  0
SECTION
  2
HEADER
  9
$ACADVER
  1
AC1009
  9
$DWGCODEPAGE
  3
ansi_1252
  9
$INSBASE
 10
0.0
 20
0.0
 30
0.0
  9
$EXTMIN
 10
-132.8968590216694
 20
-32.50003469613551
 30
0.0
  9
$EXTMAX
 10
132.8972985038375
 20
32.50003469613551
 30
0.0
  9
$LIMMIN
 10
0.0
 20
0.0
  9
$LIMMAX
 10
12.0
 20
9.0
  9
$ORTHOMODE
 70
     0
  9
$REGENMODE
 70
     1
  9
$FILLMODE
 70
     1
  9
$QTEXTMODE
 70
     0
  9
$MIRRTEXT
 70
     1
  9
$DRAGMODE
 70
     2
  9
$LTSCALE
 40
1.0
  9
$OSMODE
 70
    37
  9
$ATTMODE
 70
     1
  9
$TEXTSIZE
 40
0.2
  9
$TRACEWID
 40
0.05
  9
$TEXTSTYLE
  7
STANDARD
  9
$CLAYER
  8
0
  9
$CELTYPE
  6
BYLAYER
  9
$CECOLOR
 62
   256
  9
$DIMSCALE
 40
1.0
  9
$DIMASZ
 40
0.18
  9
$DIMEXO
 40
0.0625
  9
$DIMDLI
 40
0.38
  9
$DIMRND
 40
0.0
  9
$DIMDLE
 40
0.0
  9
$DIMEXE
 40
0.18
  9
$DIMTP
 40
0.0
  9
$DIMTM
 40
0.0
  9
$DIMTXT
 40
0.18
  9
$DIMCEN
 40
0.09
  9
$DIMTSZ
 40
0.0
  9
$DIMTOL
 70
     0
  9
$DIMLIM
 70
     0
  9
$DIMTIH
 70
     1
  9
$DIMTOH
 70
     1
  9
$DIMSE1
 70
     0
  9
$DIMSE2
 70
     0
  9
$DIMTAD
 70
     0
  9
$DIMZIN
 70
     0
  9
$DIMBLK
  1

  9
$DIMASO
 70
     1
  9
$DIMSHO
 70
     1
  9
$DIMPOST
  1

  9
$DIMAPOST
  1

  9
$DIMALT
 70
     0
  9
$DIMALTD
 70
     2
  9
$DIMALTF
 40
25.4
  9
$DIMLFAC
 40
1.0
  9
$DIMTOFL
 70
     0
  9
$DIMTVP
 40
0.0
  9
$DIMTIX
 70
     0
  9
$DIMSOXD
 70
     0
  9
$DIMSAH
 70
     0
  9
$DIMBLK1
  1

  9
$DIMBLK2
  1

  9
$DIMSTYLE
  2
STANDARD
  9
$DIMCLRD
 70
     0
  9
$DIMCLRE
 70
     0
  9
$DIMCLRT
 70
     0
  9
$DIMTFAC
 40
1.0
  9
$DIMGAP
 40
0.09
  9
$LUNITS
 70
     2
  9
$LUPREC
 70
     4
  9
$SKETCHINC
 40
0.1
  9
$FILLETRAD
 40
0.5
  9
$AUNITS
 70
     0
  9
$AUPREC
 70
     0
  9
$MENU
  1
.
  9
$ELEVATION
 40
0.0
  9
$PELEVATION
 40
0.0
  9
$THICKNESS
 40
0.0
  9
$LIMCHECK
 70
     0
  9
$CHAMFERA
 40
0.5
  9
$CHAMFERB
 40
0.5
  9
$SKPOLY
 70
     0
  9
$TDCREATE
 40
2454910.5
  9
$TDUPDATE
 40
2457528.712526794
  9
$TDINDWG
 40
0.0000000116
  9
$TDUSRTIMER
 40
0.0000000116
  9
$USRTIMER
 70
     1
  9
$ANGBASE
 50
0.0
  9
$ANGDIR
 70
     0
  9
$PDMODE
 70
     0
  9
$PDSIZE
 40
0.0
  9
$PLINEWID
 40
0.0
  9
$COORDS
 70
     1
  9
$SPLFRAME
 70
     0
  9
$SPLINETYPE
 70
     6
  9
$SPLINESEGS
 70
     8
  9
$ATTDIA
 70
     0
  9
$ATTREQ
 70
     1
  9
$HANDLING
 70
     1
  9
$HANDSEED
  5
1BC
  9
$SURFTAB1
 70
     6
  9
$SURFTAB2
 70
     6
  9
$SURFTYPE
 70
     6
  9
$SURFU
 70
     6
  9
$SURFV
 70
     6
  9
$UCSNAME
  2

  9
$UCSORG
 10
0.0
 20
0.0
 30
0.0
  9
$UCSXDIR
 10
1.0
 20
0.0
 30
0.0
  9
$UCSYDIR
 10
0.0
 20
1.0
 30
0.0
  9
$PUCSNAME
  2

  9
$PUCSORG
 10
0.0
 20
0.0
 30
0.0
  9
$PUCSXDIR
 10
1.0
 20
0.0
 30
0.0
  9
$PUCSYDIR
 10
0.0
 20
1.0
 30
0.0
  9
$USERI1
 70
     0
  9
$USERI2
 70
     0
  9
$USERI3
 70
     0
  9
$USERI4
 70
     0
  9
$USERI5
 70
     0
  9
$USERR1
 40
0.0
  9
$USERR2
 40
0.0
  9
$USERR3
 40
0.0
  9
$USERR4
 40
0.0
  9
$USERR5
 40
0.0
  9
$WORLDVIEW
 70
     1
  9
$SHADEDGE
 70
     3
  9
$SHADEDIF
 70
    70
  9
$TILEMODE
 70
     1
  9
$MAXACTVP
 70
    64
  9
$PLIMCHECK
 70
     0
  9
$PEXTMIN
 10
1.000000000000000E+20
 20
1.000000000000000E+20
 30
1.000000000000000E+20
  9
$PEXTMAX
 10
-1.000000000000000E+20
 20
-1.000000000000000E+20
 30
-1.000000000000000E+20
  9
$PLIMMIN
 10
0.0
 20
0.0
  9
$PLIMMAX
 10
12.0
 20
9.0
  9
$UNITMODE
 70
     0
  9
$VISRETAIN
 70
     1
  9
$PLINEGEN
 70
     0
  9
$PSLTSCALE
 70
     1
  0
ENDSEC
  0
SECTION
  2
TABLES
  0
TABLE
  2
VPORT
 70
     1
  0
VPORT
  2
*ACTIVE
 70
     0
 10
0.0
 20
0.0
 11
1.0
 21
1.0
 12
10.42990654205607
 22
4.5
 13
0.0
 23
0.0
 14
0.5
 24
0.5
 15
0.5
 25
0.5
 16
0.0
 26
0.0
 36
1.0
 17
0.0
 27
0.0
 37
0.0
 40
9.0
 41
1.972972972850329
 42
50.0
 43
0.0
 44
0.0
 50
0.0
 51
0.0
 71
     0
 72
   100
 73
     1
 74
     3
 75
     0
 76
     0
 77
     0
 78
     0
  0
ENDTAB
  0
TABLE
  2
LTYPE
 70
     2
  0
LTYPE
  2
CONTINUOUS
 70
     0
  3
Solid line
 72
    65
 73
     0
 40
0.0
  0
LTYPE
  2
CONTINUOUS2
 70
     0
  3
Solid Line
 72
    65
 73
     0
 40
0.0
  0
ENDTAB
  0
TABLE
  2
LAYER
 70
     2
  0
LAYER
  2
0
 70
     0
 62
     7
  6
CONTINUOUS
  0
LAYER
  2
CLAMPBASE
 70
     0
 62
    18
  6
CONTINUOUS
  0
ENDTAB
  0
TABLE
  2
STYLE
 70
     1
  0
STYLE
  2
STANDARD
 70
     0
 40
0.0
 41
1.0
 50
0.0
 71
     0
 42
0.2
  3
txt
  4

  0
ENDTAB
  0
TABLE
  2
VIEW
 70
     0
  0
ENDTAB
  0
TABLE
  2
UCS
 70
     0
  0
ENDTAB
  0
TABLE
  2
APPID
 70
     1
  0
APPID
  2
ACAD
 70
     0
  0
ENDTAB
  0
TABLE
  2
DIMSTYLE
 70
     1
  0
DIMSTYLE
  2
STANDARD
 70
     0
  3

  4

  5

  6

  7

 40
1.0
 41
0.18
 42
0.0625
 43
0.38
 44
0.18
 45
0.0
 46
0.0
 47
0.0
 48
0.0
140
0.18
141
0.09
142
0.0
143
25.4
144
1.0
145
0.0
146
1.0
147
0.09
 71
     0
 72
     0
 73
     1
 74
     1
 75
     0
 76
     0
 77
     0
 78
     0
170
     0
171
     2
172
     0
173
     0
174
     0
175
     0
176
     0
177
     0
178
     0
  0
ENDTAB
  0
ENDSEC
  0
SECTION
  2
BLOCKS
  0
BLOCK
  8
0
  2
$MODEL_SPACE
 70
     0
 10
0.0
 20
0.0
 30
0.0
  3
$MODEL_SPACE
  1

  0
ENDBLK
  5
21
  8
0
  0
BLOCK
 67
     1
  8
0
  2
$PAPER_SPACE
 70
     0
 10
0.0
 20
0.0
 30
0.0
  3
$PAPER_SPACE
  1

  0
ENDBLK
  5
1D
 67
     1
  8
0
  0
ENDSEC
  0
SECTION
  2
ENTITIES
  0
POLYLINE
  5
41
  8
CLAMPBASE
 66
     1
 10
0.0
 20
0.0
 30
0.0
 70
     1
  0
VERTEX
  5
59
  8
CLAMPBASE
 10
-15.3273993613677
 20
-25.3188831276795
 30
0.0
 42
0.4142135623730951
  0
VERTEX
  5
5A
  8
CLAMPBASE
 10
-10.32739936136776
 20
-20.3188831276795
 30
0.0
  0
VERTEX
  5
5B
  8
CLAMPBASE
 10
-10.32739936136776
 20
19.6811168723205
 30
0.0
 42
0.4142135623730951
  0
VERTEX
  5
5C
  8
CLAMPBASE
 10
-15.3273993613677
 20
24.6811168723205
 30
0.0
  0
VERTEX
  5
5D
  8
CLAMPBASE
 10
-25.32739936136768
 20
24.6811168723205
 30
0.0
 42
0.4142135623730951
  0
VERTEX
  5
5E
  8
CLAMPBASE
 10
-30.32739936136765
 20
19.6811168723205
 30
0.0
  0
VERTEX
  5
5F
  8
CLAMPBASE
 10
-30.32739936136765
 20
-20.3188831276795
 30
0.0
 42
0.4142135623730951
  0
VERTEX
  5
60
  8
CLAMPBASE
 10
-25.32739936136768
 20
-25.3188831276795
 30
0.0
  0
SEQEND
  5
61
  8
CLAMPBASE
  0
POLYLINE
  5
42
  8
CLAMPBASE
 66
     1
 10
0.0
 20
0.0
 30
0.0
 70
     1
  0
VERTEX
  5
62
  8
CLAMPBASE
 10
25.56338466557426
 20
-25.3188831276795
 30
0.0
 42
0.4142135623730951
  0
VERTEX
  5
63
  8
CLAMPBASE
 10
30.56338466557429
 20
-20.3188831276795
 30
0.0
  0
VERTEX
  5
64
  8
CLAMPBASE
 10
30.56338466557429
 20
19.6811168723205
 30
0.0
 42
0.4142135623730951
  0
VERTEX
  5
65
  8
CLAMPBASE
 10
25.56338466557429
 20
24.6811168723205
 30
0.0
  0
VERTEX
  5
66
  8
CLAMPBASE
 10
-2.43661533442577
 20
24.6811168723205
 30
0.0
 42
0.4142135623730951
  0
VERTEX
  5
67
  8
CLAMPBASE
 10
-7.436615334425774
 20
19.6811168723205
 30
0.0
  0
VERTEX
  5
68
  8
CLAMPBASE
 10
-7.436615334425774
 20
-20.3188831276795
 30
0.0
 42
0.4142135623730951
  0
VERTEX
  5
69
  8
CLAMPBASE
 10
-2.43661533442577
 20
-25.3188831276795
 30
0.0
  0
SEQEND
  5
6A
  8
CLAMPBASE
  0
POLYLINE
  5
43
  8
CLAMPBASE
 66
     1
 10
0.0
 20
0.0
 30
0.0
 70
     1
  0
VERTEX
  5
6B
  8
CLAMPBASE
 10
132.8972985038375
 20
19.80000018004404
 30
0.0
  0
VERTEX
  5
6C
  8
CLAMPBASE
 10
132.8972985038375
 20
-19.8000346961357
 30
0.0
  0
VERTEX
  5
6D
  8
CLAMPBASE
 10
132.8931505884065
 20
-20.12782744239671
 30
0.0
  0
VERTEX
  5
6E
  8
CLAMPBASE
 10
132.8807733391939
 20
-20.45357508207491
 30
0.0
  0
VERTEX
  5
6F
  8
CLAMPBASE
 10
132.86026650182
 20
-20.77717786956524
 30
0.0
  0
VERTEX
  5
70
  8
CLAMPBASE
 10
132.8317298219054
 20
-21.09853605926261
 30
0.0
  0
VERTEX
  5
71
  8
CLAMPBASE
 10
132.7952630450705
 20
-21.41754990556195
 30
0.0
  0
VERTEX
  5
72
  8
CLAMPBASE
 10
132.7509659169358
 20
-21.7341196628582
 30
0.0
  0
VERTEX
  5
73
  8
CLAMPBASE
 10
132.6989381831218
 20
-22.04814558554627
 30
0.0
  0
VERTEX
  5
74
  8
CLAMPBASE
 10
132.6392795892488
 20
-22.35952792802109
 30
0.0
  0
VERTEX
  5
75
  8
CLAMPBASE
 10
132.5720898809375
 20
-22.66816694467759
 30
0.0
  0
VERTEX
  5
76
  8
CLAMPBASE
 10
132.4974688038083
 20
-22.97396288991071
 30
0.0
  0
VERTEX
  5
77
  8
CLAMPBASE
 10
132.4155161034817
 20
-23.27681601811535
 30
0.0
  0
VERTEX
  5
78
  8
CLAMPBASE
 10
132.326331525578
 20
-23.57662658368647
 30
0.0
  0
VERTEX
  5
79
  8
CLAMPBASE
 10
132.2300148157178
 20
-23.87329484101896
 30
0.0
  0
VERTEX
  5
7A
  8
CLAMPBASE
 10
132.1266657195216
 20
-24.16672104450778
 30
0.0
  0
VERTEX
  5
7B
  8
CLAMPBASE
 10
132.0163839826097
 20
-24.45680544854783
 30
0.0
  0
VERTEX
  5
7C
  8
CLAMPBASE
 10
131.8992693506028
 20
-24.74344830753406
 30
0.0
  0
VERTEX
  5
7D
  8
CLAMPBASE
 10
131.7754215691211
 20
-25.02654987586138
 30
0.0
  0
VERTEX
  5
7E
  8
CLAMPBASE
 10
131.6449403837854
 20
-25.30601040792473
 30
0.0
  0
VERTEX
  5
7F
  8
CLAMPBASE
 10
131.3644767840332
 20
-25.8536093808392
 30
0.0
  0
VERTEX
  5
80
  8
CLAMPBASE
 10
131.0586765163099
 20
-26.38544726143687
 30
0.0
  0
VERTEX
  5
81
  8
CLAMPBASE
 10
130.7283375455793
 20
-26.90072608487718
 30
0.0
  0
VERTEX
  5
82
  8
CLAMPBASE
 10
130.374257836805
 20
-27.39864788631954
 30
0.0
  0
VERTEX
  5
83
  8
CLAMPBASE
 10
129.997235354951
 20
-27.87841470092336
 30
0.0
  0
VERTEX
  5
84
  8
CLAMPBASE
 10
129.5980680649809
 20
-28.33922856384806
 30
0.0
  0
VERTEX
  5
85
  8
CLAMPBASE
 10
129.1775539318584
 20
-28.78029151025305
 30
0.0
  0
VERTEX
  5
86
  8
CLAMPBASE
 10
128.7364909205474
 20
-29.20080557529775
 30
0.0
  0
VERTEX
  5
87
  8
CLAMPBASE
 10
128.2756769960115
 20
-29.59997279414157
 30
0.0
  0
VERTEX
  5
88
  8
CLAMPBASE
 10
127.7959101232145
 20
-29.97699520194393
 30
0.0
  0
VERTEX
  5
89
  8
CLAMPBASE
 10
127.2979882671202
 20
-30.33107483386424
 30
0.0
  0
VERTEX
  5
8A
  8
CLAMPBASE
 10
126.7827093926923
 20
-30.66141372506191
 30
0.0
  0
VERTEX
  5
8B
  8
CLAMPBASE
 10
126.2508714648945
 20
-30.96721391069638
 30
0.0
  0
VERTEX
  5
8C
  8
CLAMPBASE
 10
125.7032724486907
 20
-31.24767742592704
 30
0.0
  0
VERTEX
  5
8D
  8
CLAMPBASE
 10
125.4238118964877
 20
-31.37815856812826
 30
0.0
  0
VERTEX
  5
8E
  8
CLAMPBASE
 10
125.1407103090446
 20
-31.50200630591332
 30
0.0
  0
VERTEX
  5
8F
  8
CLAMPBASE
 10
124.8540674319817
 20
-31.61912089367713
 30
0.0
  0
VERTEX
  5
90
  8
CLAMPBASE
 10
124.5639830109198
 20
-31.72940258581463
 30
0.0
  0
VERTEX
  5
91
  8
CLAMPBASE
 10
124.2705567914791
 20
-31.83275163672074
 30
0.0
  0
VERTEX
  5
92
  8
CLAMPBASE
 10
123.9738885192802
 20
-31.92906830079038
 30
0.0
  0
VERTEX
  5
93
  8
CLAMPBASE
 10
123.6740779399435
 20
-32.01825283241849
 30
0.0
  0
VERTEX
  5
94
  8
CLAMPBASE
 10
123.3712247990895
 20
-32.10020548599999
 30
0.0
  0
VERTEX
  5
95
  8
CLAMPBASE
 10
123.0654288423387
 20
-32.17482651592982
 30
0.0
  0
VERTEX
  5
96
  8
CLAMPBASE
 10
122.7567898153115
 20
-32.24201617660289
 30
0.0
  0
VERTEX
  5
97
  8
CLAMPBASE
 10
122.4454074636284
 20
-32.30167472241413
 30
0.0
  0
VERTEX
  5
98
  8
CLAMPBASE
 10
122.1313815329099
 20
-32.35370240775847
 30
0.0
  0
VERTEX
  5
99
  8
CLAMPBASE
 10
121.8148117687765
 20
-32.39799948703083
 30
0.0
  0
VERTEX
  5
9A
  8
CLAMPBASE
 10
121.4957979168485
 20
-32.43446621462616
 30
0.0
  0
VERTEX
  5
9B
  8
CLAMPBASE
 10
121.1744397227465
 20
-32.46300284493936
 30
0.0
  0
VERTEX
  5
9C
  8
CLAMPBASE
 10
120.850836932091
 20
-32.48350963236537
 30
0.0
  0
VERTEX
  5
9D
  8
CLAMPBASE
 10
120.5250892905024
 20
-32.49588683129911
 30
0.0
  0
VERTEX
  5
9E
  8
CLAMPBASE
 10
120.1972965436011
 20
-32.50003469613551
 30
0.0
  0
VERTEX
  5
9F
  8
CLAMPBASE
 10
108.2973116764349
 20
-32.50003285938095
 30
0.0
  0
VERTEX
  5
A0
  8
CLAMPBASE
 10
108.2973116764349
 20
-27.16603285938095
 30
0.0
  0
VERTEX
  5
A1
  8
CLAMPBASE
 10
95.59731167643486
 20
-27.16603285938095
 30
0.0
  0
VERTEX
  5
A2
  8
CLAMPBASE
 10
95.59731167643486
 20
-32.50003285938095
 30
0.0
  0
VERTEX
  5
A3
  8
CLAMPBASE
 10
70.19730925281334
 20
-32.50000340809345
 30
0.0
  0
VERTEX
  5
A4
  8
CLAMPBASE
 10
70.19730925281334
 20
-27.16600340809356
 30
0.0
  0
VERTEX
  5
A5
  8
CLAMPBASE
 10
57.49730925281334
 20
-27.16600340809356
 30
0.0
  0
VERTEX
  5
A6
  8
CLAMPBASE
 10
57.49730925281334
 20
-32.50000340809345
 30
0.0
  0
VERTEX
  5
A7
  8
CLAMPBASE
 10
45.59731566859181
 20
-32.5000194915948
 30
0.0
  0
VERTEX
  5
A8
  8
CLAMPBASE
 10
45.26952264096933
 20
-32.49587201245511
 30
0.0
  0
VERTEX
  5
A9
  8
CLAMPBASE
 10
44.94377471407122
 20
-32.48349518348356
 30
0.0
  0
VERTEX
  5
AA
  8
CLAMPBASE
 10
44.62017163380623
 20
-32.4629887504541
 30
0.0
  0
VERTEX
  5
AB
  8
CLAMPBASE
 10
44.29881314608312
 20
-32.4344524591407
 30
0.0
  0
VERTEX
  5
AC
  8
CLAMPBASE
 10
43.97979899681066
 20
-32.3979860553173
 30
0.0
  0
VERTEX
  5
AD
  8
CLAMPBASE
 10
43.66322893189762
 20
-32.35368928475786
 30
0.0
  0
VERTEX
  5
AE
  8
CLAMPBASE
 10
43.34920269725276
 20
-32.30166189323633
 30
0.0
  0
VERTEX
  5
AF
  8
CLAMPBASE
 10
43.03782003878484
 20
-32.24200362652665
 30
0.0
  0
VERTEX
  5
B0
  8
CLAMPBASE
 10
42.72918070240264
 20
-32.1748142304028
 30
0.0
  0
VERTEX
  5
B1
  8
CLAMPBASE
 10
42.42338443401491
 20
-32.10019345063871
 30
0.0
  0
VERTEX
  5
B2
  8
CLAMPBASE
 10
42.12053097953042
 20
-32.01824103300834
 30
0.0
  0
VERTEX
  5
B3
  8
CLAMPBASE
 10
41.82072008485794
 20
-31.92905672328565
 30
0.0
  0
VERTEX
  5
B4
  8
CLAMPBASE
 10
41.52405149590623
 20
-31.83274026724458
 30
0.0
  0
VERTEX
  5
B5
  8
CLAMPBASE
 10
41.23062495858406
 20
-31.72939141065909
 30
0.0
  0
VERTEX
  5
B6
  8
CLAMPBASE
 10
40.94054021880018
 20
-31.61910989930313
 30
0.0
  0
VERTEX
  5
B7
  8
CLAMPBASE
 10
40.65389702246337
 20
-31.50199547895066
 30
0.0
  0
VERTEX
  5
B8
  8
CLAMPBASE
 10
40.37079511548239
 20
-31.37814789537562
 30
0.0
  0
VERTEX
  5
B9
  8
CLAMPBASE
 10
40.09133424376601
 20
-31.24766689435197
 30
0.0
  0
VERTEX
  5
BA
  8
CLAMPBASE
 10
39.54373458976208
 20
-30.96720362305467
 30
0.0
  0
VERTEX
  5
BB
  8
CLAMPBASE
 10
39.01189602772172
 20
-30.66140363125036
 30
0.0
  0
VERTEX
  5
BC
  8
CLAMPBASE
 10
38.49661652491503
 20
-30.33106488513067
 30
0.0
  0
VERTEX
  5
BD
  8
CLAMPBASE
 10
37.99869404861214
 20
-29.97698535088723
 30
0.0
  0
VERTEX
  5
BE
  8
CLAMPBASE
 10
37.51892656608317
 20
-29.59996299471164
 30
0.0
  0
VERTEX
  5
BF
  8
CLAMPBASE
 10
37.05811204459823
 20
-29.20079578279555
 30
0.0
  0
VERTEX
  5
C0
  8
CLAMPBASE
 10
36.61704845142746
 20
-28.78028168133057
 30
0.0
  0
VERTEX
  5
C1
  8
CLAMPBASE
 10
36.19653375384096
 20
-28.33921865650833
 30
0.0
  0
VERTEX
  5
C2
  8
CLAMPBASE
 10
35.79736591910885
 20
-27.87840467452044
 30
0.0
  0
VERTEX
  5
C3
  8
CLAMPBASE
 10
35.42034291450125
 20
-27.39863770155853
 30
0.0
  0
VERTEX
  5
C4
  8
CLAMPBASE
 10
35.06626270728829
 20
-26.90071570381422
 30
0.0
  0
VERTEX
  5
C5
  8
CLAMPBASE
 10
34.73592326474008
 20
-26.38543664747914
 30
0.0
  0
VERTEX
  5
C6
  8
CLAMPBASE
 10
34.43012255412674
 20
-25.85359849874491
 30
0.0
  0
VERTEX
  5
C7
  8
CLAMPBASE
 10
34.14965854271839
 20
-25.30599922380315
 30
0.0
  0
VERTEX
  5
C8
  8
CLAMPBASE
 10
34.019177163988
 20
-25.02653852843933
 30
0.0
  0
VERTEX
  5
C9
  8
CLAMPBASE
 10
33.89532919778514
 20
-24.74343678884549
 30
0.0
  0
VERTEX
  5
CA
  8
CLAMPBASE
 10
33.7782143900186
 20
-24.45679375079557
 30
0.0
  0
VERTEX
  5
CB
  8
CLAMPBASE
 10
33.66793248659713
 20
-24.16670916006354
 30
0.0
  0
VERTEX
  5
CC
  8
CLAMPBASE
 10
33.5645832334295
 20
-23.87328276242334
 30
0.0
  0
VERTEX
  5
CD
  8
CLAMPBASE
 10
33.46826637642447
 20
-23.57661430364893
 30
0.0
  0
VERTEX
  5
CE
  8
CLAMPBASE
 10
33.37908166149081
 20
-23.27680352951427
 30
0.0
  0
VERTEX
  5
CF
  8
CLAMPBASE
 10
33.29712883453728
 20
-22.9739501857933
 30
0.0
  0
VERTEX
  5
D0
  8
CLAMPBASE
 10
33.22250764147263
 20
-22.66815401825997
 30
0.0
  0
VERTEX
  5
D1
  8
CLAMPBASE
 10
33.15531782820566
 20
-22.35951477268824
 30
0.0
  0
VERTEX
  5
D2
  8
CLAMPBASE
 10
33.09565914064511
 20
-22.04813219485206
 30
0.0
  0
VERTEX
  5
D3
  8
CLAMPBASE
 10
33.04363132469976
 20
-21.73410603052539
 30
0.0
  0
VERTEX
  5
D4
  8
CLAMPBASE
 10
32.99933412627836
 20
-21.41753602548218
 30
0.0
  0
VERTEX
  5
D5
  8
CLAMPBASE
 10
32.96286729128968
 20
-21.09852192549638
 30
0.0
  0
VERTEX
  5
D6
  8
CLAMPBASE
 10
32.93433056564248
 20
-20.77716347634195
 30
0.0
  0
VERTEX
  5
D7
  8
CLAMPBASE
 10
32.91382369524554
 20
-20.45356042379283
 30
0.0
  0
VERTEX
  5
D8
  8
CLAMPBASE
 10
32.90144642600762
 20
-20.12781251362298
 30
0.0
  0
VERTEX
  5
D9
  8
CLAMPBASE
 10
32.89729850383747
 20
-19.80001949160635
 30
0.0
  0
VERTEX
  5
DA
  8
CLAMPBASE
 10
32.89729850383747
 20
19.80000018014761
 30
0.0
  0
VERTEX
  5
DB
  8
CLAMPBASE
 10
32.90144640207246
 20
20.12779222277344
 30
0.0
  0
VERTEX
  5
DC
  8
CLAMPBASE
 10
32.91382360018751
 20
20.45353917224831
 30
0.0
  0
VERTEX
  5
DD
  8
CLAMPBASE
 10
32.9343303532978
 20
20.77714128339804
 30
0.0
  0
VERTEX
  5
DE
  8
CLAMPBASE
 10
32.96286691651849
 20
21.09849881104851
 30
0.0
  0
VERTEX
  5
DF
  8
CLAMPBASE
 10
32.99933354496474
 20
21.41751201002555
 30
0.0
  0
VERTEX
  5
E0
  8
CLAMPBASE
 10
33.04363049375171
 20
21.73408113515502
 30
0.0
  0
VERTEX
  5
E1
  8
CLAMPBASE
 10
33.09565801799458
 20
22.04810644126277
 30
0.0
  0
VERTEX
  5
E2
  8
CLAMPBASE
 10
33.15531637280849
 20
22.35948818317465
 30
0.0
  0
VERTEX
  5
E3
  8
CLAMPBASE
 10
33.22250581330862
 20
22.66812661571652
 30
0.0
  0
VERTEX
  5
E4
  8
CLAMPBASE
 10
33.29712659461013
 20
22.97392199371421
 30
0.0
  0
VERTEX
  5
E5
  8
CLAMPBASE
 10
33.37907897182818
 20
23.2767745719936
 30
0.0
  0
VERTEX
  5
E6
  8
CLAMPBASE
 10
33.46826320007793
 20
23.57658460538052
 30
0.0
  0
VERTEX
  5
E7
  8
CLAMPBASE
 10
33.56457953447455
 20
23.87325234870082
 30
0.0
  0
VERTEX
  5
E8
  8
CLAMPBASE
 10
33.6679282301332
 20
24.16667805678036
 30
0.0
  0
VERTEX
  5
E9
  8
CLAMPBASE
 10
33.77820954216904
 20
24.456761984445
 30
0.0
  0
VERTEX
  5
EA
  8
CLAMPBASE
 10
33.89532372569724
 20
24.74340438652057
 30
0.0
  0
VERTEX
  5
EB
  8
CLAMPBASE
 10
34.01917103583297
 20
25.02650551783293
 30
0.0
  0
VERTEX
  5
EC
  8
CLAMPBASE
 10
34.14965172769138
 20
25.30596563320793
 30
0.0
  0
VERTEX
  5
ED
  8
CLAMPBASE
 10
34.4301142770369
 20
25.85356383544927
 30
0.0
  0
VERTEX
  5
EE
  8
CLAMPBASE
 10
34.73591341465512
 20
26.38540103185139
 30
0.0
  0
VERTEX
  5
EF
  8
CLAMPBASE
 10
35.06625118146734
 20
26.9006792610211
 30
0.0
  0
VERTEX
  5
F0
  8
CLAMPBASE
 10
35.42032961839487
 20
27.3986005615652
 30
0.0
  0
VERTEX
  5
F1
  8
CLAMPBASE
 10
35.79735076635902
 20
27.87836697209052
 30
0.0
  0
VERTEX
  5
F2
  8
CLAMPBASE
 10
36.19651666628108
 20
28.33918053120384
 30
0.0
  0
VERTEX
  5
F3
  8
CLAMPBASE
 10
36.61702935908239
 20
28.78024327751199
 30
0.0
  0
VERTEX
  5
F4
  8
CLAMPBASE
 10
37.05809088568422
 20
29.20075724962178
 30
0.0
  0
VERTEX
  5
F5
  8
CLAMPBASE
 10
37.51890328700789
 20
29.59992448614
 30
0.0
  0
VERTEX
  5
F6
  8
CLAMPBASE
 10
37.99866860397472
 20
29.97694702567347
 30
0.0
  0
VERTEX
  5
F7
  8
CLAMPBASE
 10
38.49658887750599
 20
30.33102690682901
 30
0.0
  0
VERTEX
  5
F8
  8
CLAMPBASE
 10
39.01186614852302
 20
30.66136616821342
 30
0.0
  0
VERTEX
  5
F9
  8
CLAMPBASE
 10
39.54370245794712
 20
30.96716684843349
 30
0.0
  0
VERTEX
  5
FA
  8
CLAMPBASE
 10
40.0912998466996
 20
31.24763098609606
 30
0.0
  0
VERTEX
  5
FB
  8
CLAMPBASE
 10
40.37075958361189
 20
31.3781124885329
 30
0.0
  0
VERTEX
  5
FC
  8
CLAMPBASE
 10
40.65386035570175
 20
31.50196061980791
 30
0.0
  0
VERTEX
  5
FD
  8
CLAMPBASE
 10
40.94050241808436
 20
31.61907563474695
 30
0.0
  0
VERTEX
  5
FE
  8
CLAMPBASE
 10
41.23058602587489
 20
31.72935778817587
 30
0.0
  0
VERTEX
  5
FF
  8
CLAMPBASE
 10
41.52401143418848
 20
31.83270733492051
 30
0.0
  0
VERTEX
  5
100
  8
CLAMPBASE
 10
41.82067889814032
 20
31.92902452980673
 30
0.0
  0
VERTEX
  5
101
  8
CLAMPBASE
 10
42.12048867284555
 20
32.01820962766038
 30
0.0
  0
VERTEX
  5
102
  8
CLAMPBASE
 10
42.42334101341935
 20
32.10016288330732
 30
0.0
  0
VERTEX
  5
103
  8
CLAMPBASE
 10
42.72913617497687
 20
32.17478455157338
 30
0.0
  0
VERTEX
  5
104
  8
CLAMPBASE
 10
43.03777441263329
 20
32.24197488728443
 30
0.0
  0
VERTEX
  5
105
  8
CLAMPBASE
 10
43.34915598150376
 20
32.30163414526632
 30
0.0
  0
VERTEX
  5
106
  8
CLAMPBASE
 10
43.66318113670344
 20
32.35366258034488
 30
0.0
  0
VERTEX
  5
107
  8
CLAMPBASE
 10
43.9797501333475
 20
32.39796044734599
 30
0.0
  0
VERTEX
  5
108
  8
CLAMPBASE
 10
44.2987632265511
 20
32.43442800109548
 30
0.0
  0
VERTEX
  5
109
  8
CLAMPBASE
 10
44.6201206714294
 20
32.46296549641921
 30
0.0
  0
VERTEX
  5
10A
  8
CLAMPBASE
 10
44.94372272309759
 20
32.48347318814302
 30
0.0
  0
VERTEX
  5
10B
  8
CLAMPBASE
 10
45.2694696366708
 20
32.49585133109278
 30
0.0
  0
VERTEX
  5
10C
  8
CLAMPBASE
 10
45.5972616672642
 20
32.50000018009433
 30
0.0
  0
VERTEX
  5
10D
  8
CLAMPBASE
 10
57.49722089892372
 20
32.50003469613551
 30
0.0
  0
VERTEX
  5
10E
  8
CLAMPBASE
 10
57.49722089892372
 20
27.16603469613557
 30
0.0
  0
VERTEX
  5
10F
  8
CLAMPBASE
 10
70.19722089892372
 20
27.16603469613557
 30
0.0
  0
VERTEX
  5
110
  8
CLAMPBASE
 10
70.19722089892372
 20
32.50003469613551
 30
0.0
  0
VERTEX
  5
111
  8
CLAMPBASE
 10
95.59730676788655
 20
32.50003469613551
 30
0.0
  0
VERTEX
  5
112
  8
CLAMPBASE
 10
95.59730676788655
 20
27.16603469613557
 30
0.0
  0
VERTEX
  5
113
  8
CLAMPBASE
 10
108.2973067678866
 20
27.16603469613557
 30
0.0
  0
VERTEX
  5
114
  8
CLAMPBASE
 10
108.2973067678866
 20
32.50003469613551
 30
0.0
  0
VERTEX
  5
115
  8
CLAMPBASE
 10
120.1973353403071
 20
32.50000017999042
 30
0.0
  0
VERTEX
  5
116
  8
CLAMPBASE
 10
120.5251273709024
 20
32.49585133099151
 30
0.0
  0
VERTEX
  5
117
  8
CLAMPBASE
 10
120.8508742844776
 20
32.48347318804427
 30
0.0
  0
VERTEX
  5
118
  8
CLAMPBASE
 10
121.1744763361477
 20
32.46296549632287
 30
0.0
  0
VERTEX
  5
119
  8
CLAMPBASE
 10
121.4958337810281
 20
32.43442800100146
 30
0.0
  0
VERTEX
  5
11A
  8
CLAMPBASE
 10
121.8148468742337
 20
32.39796044725419
 30
0.0
  0
VERTEX
  5
11B
  8
CLAMPBASE
 10
122.1314158708798
 20
32.3536625802552
 30
0.0
  0
VERTEX
  5
11C
  8
CLAMPBASE
 10
122.4454410260815
 20
32.30163414517865
 30
0.0
  0
VERTEX
  5
11D
  8
CLAMPBASE
 10
122.7568225949541
 20
32.24197488719867
 30
0.0
  0
VERTEX
  5
11E
  8
CLAMPBASE
 10
123.0654608326126
 20
32.17478455148944
 30
0.0
  0
VERTEX
  5
11F
  8
CLAMPBASE
 10
123.3712559941722
 20
32.10016288322508
 30
0.0
  0
VERTEX
  5
120
  8
CLAMPBASE
 10
123.6741083347482
 20
32.01820962757977
 30
0.0
  0
VERTEX
  5
121
  8
CLAMPBASE
 10
123.9739181094556
 20
31.92902452972763
 30
0.0
  0
VERTEX
  5
122
  8
CLAMPBASE
 10
124.2705855734096
 20
31.83270733484284
 30
0.0
  0
VERTEX
  5
123
  8
CLAMPBASE
 10
124.5640109817253
 20
31.72935778809952
 30
0.0
  0
VERTEX
  5
124
  8
CLAMPBASE
 10
124.854094589518
 20
31.61907563467184
 30
0.0
  0
VERTEX
  5
125
  8
CLAMPBASE
 10
125.1407366519028
 20
31.50196061973395
 30
0.0
  0
VERTEX
  5
126
  8
CLAMPBASE
 10
125.4238374239949
 20
31.37811248845999
 30
0.0
  0
VERTEX
  5
127
  8
CLAMPBASE
 10
125.7032971609093
 20
31.24763098602412
 30
0.0
  0
VERTEX
  5
128
  8
CLAMPBASE
 10
126.2508945496662
 20
30.96716684836323
 30
0.0
  0
VERTEX
  5
129
  8
CLAMPBASE
 10
126.7827308590946
 20
30.66136616814449
 30
0.0
  0
VERTEX
  5
12A
  8
CLAMPBASE
 10
127.2980081301159
 20
30.33102690676108
 30
0.0
  0
VERTEX
  5
12B
  8
CLAMPBASE
 10
127.7959284036514
 20
29.97694702560622
 30
0.0
  0
VERTEX
  5
12C
  8
CLAMPBASE
 10
128.2756937206224
 20
29.59992448607311
 30
0.0
  0
VERTEX
  5
12D
  8
CLAMPBASE
 10
128.7365061219501
 20
29.20075724955494
 30
0.0
  0
VERTEX
  5
12E
  8
CLAMPBASE
 10
129.1775676485559
 20
28.78024327744492
 30
0.0
  0
VERTEX
  5
12F
  8
CLAMPBASE
 10
129.5980803413611
 20
28.33918053113624
 30
0.0
  0
VERTEX
  5
130
  8
CLAMPBASE
 10
129.9972462412869
 20
27.87836697202211
 30
0.0
  0
VERTEX
  5
131
  8
CLAMPBASE
 10
130.3742673892546
 20
27.39860056149573
 30
0.0
  0
VERTEX
  5
132
  8
CLAMPBASE
 10
130.7283458261855
 20
26.90067926095029
 30
0.0
  0
VERTEX
  5
133
  8
CLAMPBASE
 10
131.0586835930009
 20
26.38540103177901
 30
0.0
  0
VERTEX
  5
134
  8
CLAMPBASE
 10
131.3644827306222
 20
25.85356383537507
 30
0.0
  0
VERTEX
  5
135
  8
CLAMPBASE
 10
131.6449452799705
 20
25.30596563313168
 30
0.0
  0
VERTEX
  5
136
  8
CLAMPBASE
 10
131.7754259718303
 20
25.02650551775557
 30
0.0
  0
VERTEX
  5
137
  8
CLAMPBASE
 10
131.8992732819672
 20
24.74340438644204
 30
0.0
  0
VERTEX
  5
138
  8
CLAMPBASE
 10
132.0163874654966
 20
24.45676198436526
 30
0.0
  0
VERTEX
  5
139
  8
CLAMPBASE
 10
132.1266687775336
 20
24.16667805669936
 30
0.0
  0
VERTEX
  5
13A
  8
CLAMPBASE
 10
132.2300174731933
 20
23.8732523486185
 30
0.0
  0
VERTEX
  5
13B
  8
CLAMPBASE
 10
132.326333807591
 20
23.57658460529682
 30
0.0
  0
VERTEX
  5
13C
  8
CLAMPBASE
 10
132.4155180358416
 20
23.27677457190849
 30
0.0
  0
VERTEX
  5
13D
  8
CLAMPBASE
 10
132.4974704130606
 20
22.97392199362764
 30
0.0
  0
VERTEX
  5
13E
  8
CLAMPBASE
 10
132.5720911943629
 20
22.66812661562843
 30
0.0
  0
VERTEX
  5
13F
  8
CLAMPBASE
 10
132.6392806348637
 20
22.35948818308501
 30
0.0
  0
VERTEX
  5
140
  8
CLAMPBASE
 10
132.6989389896783
 20
22.04810644117153
 30
0.0
  0
VERTEX
  5
141
  8
CLAMPBASE
 10
132.7509665139217
 20
21.73408113506214
 30
0.0
  0
VERTEX
  5
142
  8
CLAMPBASE
 10
132.7952634627092
 20
21.41751200993098
 30
0.0
  0
VERTEX
  5
143
  8
CLAMPBASE
 10
132.8317300911558
 20
21.09849881095221
 30
0.0
  0
VERTEX
  5
144
  8
CLAMPBASE
 10
132.8602666543768
 20
20.77714128329999
 30
0.0
  0
VERTEX
  5
145
  8
CLAMPBASE
 10
132.8807734074873
 20
20.45353917214845
 30
0.0
  0
VERTEX
  5
146
  8
CLAMPBASE
 10
132.8931506056025
 20
20.12779222267175
 30
0.0
  0
SEQEND
  5
147
  8
CLAMPBASE
  0
POLYLINE
  5
44
  8
CLAMPBASE
 66
     1
 10
0.0
 20
0.0
 30
0.0
 70
     1
  0
VERTEX
  5
148
  8
CLAMPBASE
 10
113.8466485823813
 20
2.974999999999858
 30
0.0
 42
0.4142135623730951
  0
VERTEX
  5
149
  8
CLAMPBASE
 10
110.8716485823813
 20
-0.0000000000001421
 30
0.0
 42
0.4142135623730951
  0
VERTEX
  5
14A
  8
CLAMPBASE
 10
113.8466485823813
 20
-2.975000000000142
 30
0.0
 42
0.4142135623730951
  0
VERTEX
  5
14B
  8
CLAMPBASE
 10
116.8216485823813
 20
-0.0000000000001421
 30
0.0
 42
0.4142135623730951
  0
SEQEND
  5
14C
  8
CLAMPBASE
  0
POLYLINE
  5
45
  8
CLAMPBASE
 66
     1
 10
0.0
 20
0.0
 30
0.0
 70
     1
  0
VERTEX
  5
14D
  8
CLAMPBASE
 10
51.94537207652572
 20
2.974999999999858
 30
0.0
 42
0.4142135623730951
  0
VERTEX
  5
14E
  8
CLAMPBASE
 10
48.97037207652572
 20
-0.0000000000001421
 30
0.0
 42
0.4142135623730951
  0
VERTEX
  5
14F
  8
CLAMPBASE
 10
51.94537207652572
 20
-2.975000000000142
 30
0.0
 42
0.4142135623730951
  0
VERTEX
  5
150
  8
CLAMPBASE
 10
54.92037207652572
 20
-0.0000000000001421
 30
0.0
 42
0.4142135623730951
  0
SEQEND
  5
151
  8
CLAMPBASE
  0
POLYLINE
  5
46
  8
CLAMPBASE
 66
     1
 10
0.0
 20
0.0
 30
0.0
 70
     1
  0
VERTEX
  5
152
  8
CLAMPBASE
 10
23.56338466557428
 20
-18.2688831276795
 30
0.0
 42
0.4142135623730951
  0
VERTEX
  5
153
  8
CLAMPBASE
 10
21.51338466557428
 20
-20.3188831276795
 30
0.0
 42
0.4142135623730951
  0
VERTEX
  5
154
  8
CLAMPBASE
 10
23.56338466557428
 20
-22.3688831276795
 30
0.0
 42
0.4142135623730951
  0
VERTEX
  5
155
  8
CLAMPBASE
 10
25.61338466557427
 20
-20.3188831276795
 30
0.0
 42
0.4142135623730951
  0
SEQEND
  5
156
  8
CLAMPBASE
  0
POLYLINE
  5
47
  8
CLAMPBASE
 66
     1
 10
0.0
 20
0.0
 30
0.0
 70
     1
  0
VERTEX
  5
157
  8
CLAMPBASE
 10
7.563384665574262
 20
-8.268883127679487
 30
0.0
 42
0.4142135623730951
  0
VERTEX
  5
158
  8
CLAMPBASE
 10
5.513384665574264
 20
-10.3188831276795
 30
0.0
 42
0.4142135623730951
  0
VERTEX
  5
159
  8
CLAMPBASE
 10
7.563384665574262
 20
-12.36888312767951
 30
0.0
 42
0.4142135623730951
  0
VERTEX
  5
15A
  8
CLAMPBASE
 10
9.613384665574259
 20
-10.3188831276795
 30
0.0
 42
0.4142135623730951
  0
SEQEND
  5
15B
  8
CLAMPBASE
  0
POLYLINE
  5
48
  8
CLAMPBASE
 66
     1
 10
0.0
 20
0.0
 30
0.0
 70
     1
  0
VERTEX
  5
15C
  8
CLAMPBASE
 10
7.563384665574262
 20
11.73111687232051
 30
0.0
 42
0.4142135623730951
  0
VERTEX
  5
15D
  8
CLAMPBASE
 10
5.513384665574264
 20
9.681116872320501
 30
0.0
 42
0.4142135623730951
  0
VERTEX
  5
15E
  8
CLAMPBASE
 10
7.563384665574262
 20
7.63111687232049
 30
0.0
 42
0.4142135623730951
  0
VERTEX
  5
15F
  8
CLAMPBASE
 10
9.613384665574259
 20
9.681116872320501
 30
0.0
 42
0.4142135623730951
  0
SEQEND
  5
160
  8
CLAMPBASE
  0
POLYLINE
  5
49
  8
CLAMPBASE
 66
     1
 10
0.0
 20
0.0
 30
0.0
 70
     1
  0
VERTEX
  5
161
  8
CLAMPBASE
 10
23.56338466557428
 20
21.73111687232051
 30
0.0
 42
0.4142135623730951
  0
VERTEX
  5
162
  8
CLAMPBASE
 10
21.51338466557428
 20
19.6811168723205
 30
0.0
 42
0.4142135623730951
  0
VERTEX
  5
163
  8
CLAMPBASE
 10
23.56338466557428
 20
17.63111687232049
 30
0.0
 42
0.4142135623730951
  0
VERTEX
  5
164
  8
CLAMPBASE
 10
25.61338466557427
 20
19.6811168723205
 30
0.0
 42
0.4142135623730951
  0
SEQEND
  5
165
  8
CLAMPBASE
  0
POLYLINE
  5
4A
  8
CLAMPBASE
 66
     1
 10
0.0
 20
0.0
 30
0.0
 70
     1
  0
VERTEX
  5
166
  8
CLAMPBASE
 10
-15.32739936136773
 20
12.23111687232051
 30
0.0
 42
0.4142135623730951
  0
VERTEX
  5
167
  8
CLAMPBASE
 10
-17.87739936136773
 20
9.681116872320501
 30
0.0
 42
0.4142135623730951
  0
VERTEX
  5
168
  8
CLAMPBASE
 10
-15.32739936136773
 20
7.13111687232049
 30
0.0
 42
0.4142135623730951
  0
VERTEX
  5
169
  8
CLAMPBASE
 10
-12.77739936136773
 20
9.681116872320501
 30
0.0
 42
0.4142135623730951
  0
SEQEND
  5
16A
  8
CLAMPBASE
  0
POLYLINE
  5
4B
  8
CLAMPBASE
 66
     1
 10
0.0
 20
0.0
 30
0.0
 70
     1
  0
VERTEX
  5
16B
  8
CLAMPBASE
 10
-15.32739936136773
 20
-7.768883127679487
 30
0.0
 42
0.4142135623730951
  0
VERTEX
  5
16C
  8
CLAMPBASE
 10
-17.87739936136773
 20
-10.3188831276795
 30
0.0
 42
0.4142135623730951
  0
VERTEX
  5
16D
  8
CLAMPBASE
 10
-15.32739936136773
 20
-12.86888312767951
 30
0.0
 42
0.4142135623730951
  0
VERTEX
  5
16E
  8
CLAMPBASE
 10
-12.77739936136773
 20
-10.3188831276795
 30
0.0
 42
0.4142135623730951
  0
SEQEND
  5
16F
  8
CLAMPBASE
  0
POLYLINE
  5
4C
  8
CLAMPBASE
 66
     1
 10
0.0
 20
0.0
 30
0.0
 70
     1
  0
VERTEX
  5
170
  8
CLAMPBASE
 10
-61.44856268055376
 20
22.54999999999996
 30
0.0
 42
0.4142135623730951
  0
VERTEX
  5
171
  8
CLAMPBASE
 10
-63.99856268055374
 20
19.99999999999996
 30
0.0
 42
0.4142135623730951
  0
VERTEX
  5
172
  8
CLAMPBASE
 10
-61.44856268055378
 20
17.44999999999996
 30
0.0
  0
VERTEX
  5
173
  8
CLAMPBASE
 10
-44.9485626805539
 20
17.44999999999996
 30
0.0
 42
0.4142135623730951
  0
VERTEX
  5
174
  8
CLAMPBASE
 10
-42.39856268055393
 20
19.99999999999996
 30
0.0
 42
0.4142135623730951
  0
VERTEX
  5
175
  8
CLAMPBASE
 10
-44.9485626805539
 20
22.54999999999996
 30
0.0
  0
SEQEND
  5
176
  8
CLAMPBASE
  0
POLYLINE
  5
4D
  8
CLAMPBASE
 66
     1
 10
0.0
 20
0.0
 30
0.0
 70
     1
  0
VERTEX
  5
177
  8
CLAMPBASE
 10
-61.44856268055374
 20
-17.44999999999995
 30
0.0
 42
0.4142135623730951
  0
VERTEX
  5
178
  8
CLAMPBASE
 10
-63.99856268055371
 20
-19.99999999999995
 30
0.0
 42
0.4142135623730951
  0
VERTEX
  5
179
  8
CLAMPBASE
 10
-61.44856268055375
 20
-22.54999999999995
 30
0.0
  0
VERTEX
  5
17A
  8
CLAMPBASE
 10
-44.94856268055387
 20
-22.54999999999995
 30
0.0
 42
0.4142135623730951
  0
VERTEX
  5
17B
  8
CLAMPBASE
 10
-42.3985626805539
 20
-19.99999999999995
 30
0.0
 42
0.4142135623730951
  0
VERTEX
  5
17C
  8
CLAMPBASE
 10
-44.94856268055387
 20
-17.44999999999995
 30
0.0
  0
SEQEND
  5
17D
  8
CLAMPBASE
  0
POLYLINE
  5
4E
  8
CLAMPBASE
 66
     1
 10
0.0
 20
0.0
 30
0.0
 70
     1
  0
VERTEX
  5
17E
  8
CLAMPBASE
 10
-131.8233894065061
 20
3.592914479758623
 30
0.0
  0
VERTEX
  5
17F
  8
CLAMPBASE
 10
-131.823471109049
 20
-3.654168881259348
 30
0.0
  0
VERTEX
  5
180
  8
CLAMPBASE
 10
-109.0400467978444
 20
-25.62504817686736
 30
0.0
  0
VERTEX
  5
181
  8
CLAMPBASE
 10
-103.4520467978444
 20
-25.62504817686731
 30
0.0
  0
VERTEX
  5
182
  8
CLAMPBASE
 10
-103.4520467978442
 20
-12.41704817686734
 30
0.0
  0
VERTEX
  5
183
  8
CLAMPBASE
 10
-109.0400467978444
 20
-12.41704817686744
 30
0.0
  0
VERTEX
  5
184
  8
CLAMPBASE
 10
-109.0400467978444
 20
12.4170481768674
 30
0.0
  0
VERTEX
  5
185
  8
CLAMPBASE
 10
-103.4520467978444
 20
12.41704817686734
 30
0.0
  0
VERTEX
  5
186
  8
CLAMPBASE
 10
-103.4520467978444
 20
25.62504817686723
 30
0.0
  0
VERTEX
  5
187
  8
CLAMPBASE
 10
-109.0400467978442
 20
25.62504817686736
 30
0.0
  0
SEQEND
  5
188
  8
CLAMPBASE
  0
POLYLINE
  5
4F
  8
CLAMPBASE
 66
     1
 10
0.0
 20
0.0
 30
0.0
 70
     1
  0
VERTEX
  5
189
  8
CLAMPBASE
 10
-106.7739532021554
 20
-2.859662292267696
 30
0.0
  0
VERTEX
  5
18A
  8
CLAMPBASE
 10
-96.7739532021555
 20
-2.859662292267696
 30
0.0
  0
VERTEX
  5
18B
  8
CLAMPBASE
 10
-96.7739532021555
 20
2.840337707732292
 30
0.0
  0
VERTEX
  5
18C
  8
CLAMPBASE
 10
-106.7739532021554
 20
2.840337707732292
 30
0.0
  0
SEQEND
  5
18D
  8
CLAMPBASE
  0
POLYLINE
  5
50
  8
CLAMPBASE
 66
     1
 10
0.0
 20
0.0
 30
0.0
 70
     1
  0
VERTEX
  5
18E
  8
CLAMPBASE
 10
-105.7004835869921
 20
3.592914479758623
 30
0.0
  0
VERTEX
  5
18F
  8
CLAMPBASE
 10
-105.700565289535
 20
-3.654168881259348
 30
0.0
  0
VERTEX
  5
190
  8
CLAMPBASE
 10
-82.91714097833079
 20
-25.62504817686736
 30
0.0
  0
VERTEX
  5
191
  8
CLAMPBASE
 10
-77.32914097833086
 20
-25.62504817686731
 30
0.0
  0
VERTEX
  5
192
  8
CLAMPBASE
 10
-77.32914097833066
 20
-12.41704817686734
 30
0.0
  0
VERTEX
  5
193
  8
CLAMPBASE
 10
-82.91714097833079
 20
-12.41704817686744
 30
0.0
  0
VERTEX
  5
194
  8
CLAMPBASE
 10
-82.91714097833076
 20
12.4170481768674
 30
0.0
  0
VERTEX
  5
195
  8
CLAMPBASE
 10
-77.32914097833086
 20
12.41704817686734
 30
0.0
  0
VERTEX
  5
196
  8
CLAMPBASE
 10
-77.32914097833086
 20
25.62504817686723
 30
0.0
  0
VERTEX
  5
197
  8
CLAMPBASE
 10
-82.91714097833062
 20
25.62504817686736
 30
0.0
  0
SEQEND
  5
198
  8
CLAMPBASE
  0
POLYLINE
  5
51
  8
CLAMPBASE
 66
     1
 10
0.0
 20
0.0
 30
0.0
 70
     1
  0
VERTEX
  5
199
  8
CLAMPBASE
 10
-132.8968590216694
 20
-2.859662292267696
 30
0.0
  0
VERTEX
  5
19A
  8
CLAMPBASE
 10
-122.8968590216693
 20
-2.859662292267696
 30
0.0
  0
VERTEX
  5
19B
  8
CLAMPBASE
 10
-122.8968590216693
 20
2.840337707732292
 30
0.0
  0
VERTEX
  5
19C
  8
CLAMPBASE
 10
-132.8968590216694
 20
2.840337707732292
 30
0.0
  0
SEQEND
  5
19D
  8
CLAMPBASE
  0
POLYLINE
  5
52
  8
CLAMPBASE
 66
     1
 10
0.0
 20
0.0
 30
0.0
 70
     1
  0
VERTEX
  5
19E
  8
CLAMPBASE
 10
80.047
 20
-9.8
 30
0.0
  0
VERTEX
  5
19F
  8
CLAMPBASE
 10
85.747
 20
-9.8
 30
0.0
  0
VERTEX
  5
1A0
  8
CLAMPBASE
 10
85.747
 20
9.8
 30
0.0
  0
VERTEX
  5
1A1
  8
CLAMPBASE
 10
80.047
 20
9.8
 30
0.0
  0
SEQEND
  5
1A2
  8
CLAMPBASE
  0
POLYLINE
  5
53
  8
CLAMPBASE
 66
     1
 10
0.0
 20
0.0
 30
0.0
 70
     1
  0
VERTEX
  5
1A3
  8
CLAMPBASE
 10
-33.19856268055375
 20
12.2311168723205
 30
0.0
  0
VERTEX
  5
1A4
  8
CLAMPBASE
 10
-48.90956788718729
 20
12.2311168723205
 30
0.0
 42
0.4142135623730951
  0
VERTEX
  5
1A5
  8
CLAMPBASE
 10
-51.45956788718726
 20
9.681116872320505
 30
0.0
 42
0.4142135623730951
  0
VERTEX
  5
1A6
  8
CLAMPBASE
 10
-48.90956788718731
 20
7.131116872320501
 30
0.0
  0
VERTEX
  5
1A7
  8
CLAMPBASE
 10
-33.19856268055375
 20
7.1311168723205
 30
0.0
  0
VERTEX
  5
1A8
  8
CLAMPBASE
 10
-33.19856268055374
 20
-7.768883127679498
 30
0.0
  0
VERTEX
  5
1A9
  8
CLAMPBASE
 10
-48.90956788718727
 20
-7.768883127679498
 30
0.0
 42
0.4142135623730951
  0
VERTEX
  5
1AA
  8
CLAMPBASE
 10
-51.45956788718723
 20
-10.3188831276795
 30
0.0
 42
0.4142135623730951
  0
VERTEX
  5
1AB
  8
CLAMPBASE
 10
-48.90956788718728
 20
-12.8688831276795
 30
0.0
  0
VERTEX
  5
1AC
  8
CLAMPBASE
 10
-33.19856268055374
 20
-12.8688831276795
 30
0.0
  0
VERTEX
  5
1AD
  8
CLAMPBASE
 10
-33.19856268055373
 20
-22.5
 30
0.0
 42
-0.4142135623730951
  0
VERTEX
  5
1AE
  8
CLAMPBASE
 10
-43.19856268055376
 20
-32.50000922127239
 30
0.0
  0
VERTEX
  5
1AF
  8
CLAMPBASE
 10
-58.89456268055373
 20
-32.50001844254479
 30
0.0
  0
VERTEX
  5
1B0
  8
CLAMPBASE
 10
-58.89456268055373
 20
-27.16601844254475
 30
0.0
  0
VERTEX
  5
1B1
  8
CLAMPBASE
 10
-72.86456268055383
 20
-27.16601844254475
 30
0.0
  0
VERTEX
  5
1B2
  8
CLAMPBASE
 10
-72.86456268055383
 20
-9.779012264701208
 30
0.0
  0
VERTEX
  5
1B3
  8
CLAMPBASE
 10
-78.19856268055355
 20
-9.779012264701208
 30
0.0
  0
VERTEX
  5
1B4
  8
CLAMPBASE
 10
-78.19856268055386
 20
9.778987735298557
 30
0.0
  0
VERTEX
  5
1B5
  8
CLAMPBASE
 10
-72.86456268055386
 20
9.778987735298557
 30
0.0
  0
VERTEX
  5
1B6
  8
CLAMPBASE
 10
-72.86456268055386
 20
27.16601844254475
 30
0.0
  0
VERTEX
  5
1B7
  8
CLAMPBASE
 10
-58.89456268055373
 20
27.16601844254475
 30
0.0
  0
VERTEX
  5
1B8
  8
CLAMPBASE
 10
-58.89456268055373
 20
32.50001844254479
 30
0.0
  0
VERTEX
  5
1B9
  8
CLAMPBASE
 10
-43.19856268055377
 20
32.50000922127239
 30
0.0
 42
-0.4142135623730951
  0
VERTEX
  5
1BA
  8
CLAMPBASE
 10
-33.19856268055376
 20
22.5
 30
0.0
  0
SEQEND
  5
1BB
  8
CLAMPBASE
  0
ENDSEC
  0
EOF
