  0
SECTION
  2
HEADER
  9
$ACADVER
  1
AC1009
  9
$DWGCODEPAGE
  3
ansi_1252
  9
$INSBASE
 10
0.0
 20
0.0
 30
0.0
  9
$EXTMIN
 10
-105.3553568712877
 20
-32.50003469613551
 30
0.0
  9
$EXTMAX
 10
105.3553568712877
 20
32.50003469613551
 30
0.0
  9
$LIMMIN
 10
0.0
 20
0.0
  9
$LIMMAX
 10
12.0
 20
9.0
  9
$ORTHOMODE
 70
     0
  9
$REGENMODE
 70
     1
  9
$FILLMODE
 70
     1
  9
$QTEXTMODE
 70
     0
  9
$MIRRTEXT
 70
     1
  9
$DRAGMODE
 70
     2
  9
$LTSCALE
 40
1.0
  9
$OSMODE
 70
    37
  9
$ATTMODE
 70
     1
  9
$TEXTSIZE
 40
0.2
  9
$TRACEWID
 40
0.05
  9
$TEXTSTYLE
  7
STANDARD
  9
$CLAYER
  8
0
  9
$CELTYPE
  6
BYLAYER
  9
$CECOLOR
 62
   256
  9
$DIMSCALE
 40
1.0
  9
$DIMASZ
 40
0.18
  9
$DIMEXO
 40
0.0625
  9
$DIMDLI
 40
0.38
  9
$DIMRND
 40
0.0
  9
$DIMDLE
 40
0.0
  9
$DIMEXE
 40
0.18
  9
$DIMTP
 40
0.0
  9
$DIMTM
 40
0.0
  9
$DIMTXT
 40
0.18
  9
$DIMCEN
 40
0.09
  9
$DIMTSZ
 40
0.0
  9
$DIMTOL
 70
     0
  9
$DIMLIM
 70
     0
  9
$DIMTIH
 70
     1
  9
$DIMTOH
 70
     1
  9
$DIMSE1
 70
     0
  9
$DIMSE2
 70
     0
  9
$DIMTAD
 70
     0
  9
$DIMZIN
 70
     0
  9
$DIMBLK
  1

  9
$DIMASO
 70
     1
  9
$DIMSHO
 70
     1
  9
$DIMPOST
  1

  9
$DIMAPOST
  1

  9
$DIMALT
 70
     0
  9
$DIMALTD
 70
     2
  9
$DIMALTF
 40
25.4
  9
$DIMLFAC
 40
1.0
  9
$DIMTOFL
 70
     0
  9
$DIMTVP
 40
0.0
  9
$DIMTIX
 70
     0
  9
$DIMSOXD
 70
     0
  9
$DIMSAH
 70
     0
  9
$DIMBLK1
  1

  9
$DIMBLK2
  1

  9
$DIMSTYLE
  2
STANDARD
  9
$DIMCLRD
 70
     0
  9
$DIMCLRE
 70
     0
  9
$DIMCLRT
 70
     0
  9
$DIMTFAC
 40
1.0
  9
$DIMGAP
 40
0.09
  9
$LUNITS
 70
     2
  9
$LUPREC
 70
     4
  9
$SKETCHINC
 40
0.1
  9
$FILLETRAD
 40
0.5
  9
$AUNITS
 70
     0
  9
$AUPREC
 70
     0
  9
$MENU
  1
.
  9
$ELEVATION
 40
0.0
  9
$PELEVATION
 40
0.0
  9
$THICKNESS
 40
0.0
  9
$LIMCHECK
 70
     0
  9
$CHAMFERA
 40
0.5
  9
$CHAMFERB
 40
0.5
  9
$SKPOLY
 70
     0
  9
$TDCREATE
 40
2454910.5
  9
$TDUPDATE
 40
2457516.671373843
  9
$TDINDWG
 40
0.0000000116
  9
$TDUSRTIMER
 40
0.0000000116
  9
$USRTIMER
 70
     1
  9
$ANGBASE
 50
0.0
  9
$ANGDIR
 70
     0
  9
$PDMODE
 70
     0
  9
$PDSIZE
 40
0.0
  9
$PLINEWID
 40
0.0
  9
$COORDS
 70
     1
  9
$SPLFRAME
 70
     0
  9
$SPLINETYPE
 70
     6
  9
$SPLINESEGS
 70
     8
  9
$ATTDIA
 70
     0
  9
$ATTREQ
 70
     1
  9
$HANDLING
 70
     1
  9
$HANDSEED
  5
18E
  9
$SURFTAB1
 70
     6
  9
$SURFTAB2
 70
     6
  9
$SURFTYPE
 70
     6
  9
$SURFU
 70
     6
  9
$SURFV
 70
     6
  9
$UCSNAME
  2

  9
$UCSORG
 10
0.0
 20
0.0
 30
0.0
  9
$UCSXDIR
 10
1.0
 20
0.0
 30
0.0
  9
$UCSYDIR
 10
0.0
 20
1.0
 30
0.0
  9
$PUCSNAME
  2

  9
$PUCSORG
 10
0.0
 20
0.0
 30
0.0
  9
$PUCSXDIR
 10
1.0
 20
0.0
 30
0.0
  9
$PUCSYDIR
 10
0.0
 20
1.0
 30
0.0
  9
$USERI1
 70
     0
  9
$USERI2
 70
     0
  9
$USERI3
 70
     0
  9
$USERI4
 70
     0
  9
$USERI5
 70
     0
  9
$USERR1
 40
0.0
  9
$USERR2
 40
0.0
  9
$USERR3
 40
0.0
  9
$USERR4
 40
0.0
  9
$USERR5
 40
0.0
  9
$WORLDVIEW
 70
     1
  9
$SHADEDGE
 70
     3
  9
$SHADEDIF
 70
    70
  9
$TILEMODE
 70
     1
  9
$MAXACTVP
 70
    64
  9
$PLIMCHECK
 70
     0
  9
$PEXTMIN
 10
1.000000000000000E+20
 20
1.000000000000000E+20
 30
1.000000000000000E+20
  9
$PEXTMAX
 10
-1.000000000000000E+20
 20
-1.000000000000000E+20
 30
-1.000000000000000E+20
  9
$PLIMMIN
 10
0.0
 20
0.0
  9
$PLIMMAX
 10
12.0
 20
9.0
  9
$UNITMODE
 70
     0
  9
$VISRETAIN
 70
     1
  9
$PLINEGEN
 70
     0
  9
$PSLTSCALE
 70
     1
  0
ENDSEC
  0
SECTION
  2
TABLES
  0
TABLE
  2
VPORT
 70
     1
  0
VPORT
  2
*ACTIVE
 70
     0
 10
0.0
 20
0.0
 11
1.0
 21
1.0
 12
10.42990654205607
 22
4.5
 13
0.0
 23
0.0
 14
0.5
 24
0.5
 15
0.5
 25
0.5
 16
0.0
 26
0.0
 36
1.0
 17
0.0
 27
0.0
 37
0.0
 40
9.0
 41
1.972972972850329
 42
50.0
 43
0.0
 44
0.0
 50
0.0
 51
0.0
 71
     0
 72
   100
 73
     1
 74
     3
 75
     0
 76
     0
 77
     0
 78
     0
  0
ENDTAB
  0
TABLE
  2
LTYPE
 70
     2
  0
LTYPE
  2
CONTINUOUS
 70
     0
  3
Solid line
 72
    65
 73
     0
 40
0.0
  0
LTYPE
  2
CONTINUOUS2
 70
     0
  3
Solid Line
 72
    65
 73
     0
 40
0.0
  0
ENDTAB
  0
TABLE
  2
LAYER
 70
     2
  0
LAYER
  2
0
 70
     0
 62
     7
  6
CONTINUOUS
  0
LAYER
  2
CLAMPBASE
 70
     0
 62
    18
  6
CONTINUOUS
  0
ENDTAB
  0
TABLE
  2
STYLE
 70
     1
  0
STYLE
  2
STANDARD
 70
     0
 40
0.0
 41
1.0
 50
0.0
 71
     0
 42
0.2
  3
txt
  4

  0
ENDTAB
  0
TABLE
  2
VIEW
 70
     0
  0
ENDTAB
  0
TABLE
  2
UCS
 70
     0
  0
ENDTAB
  0
TABLE
  2
APPID
 70
     1
  0
APPID
  2
ACAD
 70
     0
  0
ENDTAB
  0
TABLE
  2
DIMSTYLE
 70
     1
  0
DIMSTYLE
  2
STANDARD
 70
     0
  3

  4

  5

  6

  7

 40
1.0
 41
0.18
 42
0.0625
 43
0.38
 44
0.18
 45
0.0
 46
0.0
 47
0.0
 48
0.0
140
0.18
141
0.09
142
0.0
143
25.4
144
1.0
145
0.0
146
1.0
147
0.09
 71
     0
 72
     0
 73
     1
 74
     1
 75
     0
 76
     0
 77
     0
 78
     0
170
     0
171
     2
172
     0
173
     0
174
     0
175
     0
176
     0
177
     0
178
     0
  0
ENDTAB
  0
ENDSEC
  0
SECTION
  2
BLOCKS
  0
BLOCK
  8
0
  2
$MODEL_SPACE
 70
     0
 10
0.0
 20
0.0
 30
0.0
  3
$MODEL_SPACE
  1

  0
ENDBLK
  5
21
  8
0
  0
BLOCK
 67
     1
  8
0
  2
$PAPER_SPACE
 70
     0
 10
0.0
 20
0.0
 30
0.0
  3
$PAPER_SPACE
  1

  0
ENDBLK
  5
1D
 67
     1
  8
0
  0
ENDSEC
  0
SECTION
  2
ENTITIES
  0
POLYLINE
  5
41
  8
CLAMPBASE
 66
     1
 10
0.0
 20
0.0
 30
0.0
 70
     1
  0
VERTEX
  5
55
  8
CLAMPBASE
 10
-90.35535687128775
 20
-25.0
 30
0.0
 42
0.4142135623730951
  0
VERTEX
  5
56
  8
CLAMPBASE
 10
-85.35535687128781
 20
-20.0
 30
0.0
  0
VERTEX
  5
57
  8
CLAMPBASE
 10
-85.35535687128781
 20
20.0
 30
0.0
 42
0.4142135623730951
  0
VERTEX
  5
58
  8
CLAMPBASE
 10
-90.35535687128775
 20
25.0
 30
0.0
  0
VERTEX
  5
59
  8
CLAMPBASE
 10
-100.3553568712877
 20
25.0
 30
0.0
 42
0.4142135623730951
  0
VERTEX
  5
5A
  8
CLAMPBASE
 10
-105.3553568712877
 20
20.0
 30
0.0
  0
VERTEX
  5
5B
  8
CLAMPBASE
 10
-105.3553568712877
 20
-20.0
 30
0.0
 42
0.4142135623730951
  0
VERTEX
  5
5C
  8
CLAMPBASE
 10
-100.3553568712877
 20
-25.0
 30
0.0
  0
SEQEND
  5
5D
  8
CLAMPBASE
  0
POLYLINE
  5
42
  8
CLAMPBASE
 66
     1
 10
0.0
 20
0.0
 30
0.0
 70
     1
  0
VERTEX
  5
5E
  8
CLAMPBASE
 10
-92.45535687128778
 20
-10.0
 30
0.0
 42
0.4142135623730951
  0
VERTEX
  5
5F
  8
CLAMPBASE
 10
-90.35535687128775
 20
-12.09999999999999
 30
0.0
 42
0.4142135623730951
  0
VERTEX
  5
60
  8
CLAMPBASE
 10
-88.25535687128779
 20
-10.0
 30
0.0
 42
0.4142135623730951
  0
VERTEX
  5
61
  8
CLAMPBASE
 10
-90.35535687128775
 20
-7.900000000000006
 30
0.0
 42
0.4142135623730951
  0
SEQEND
  5
62
  8
CLAMPBASE
  0
POLYLINE
  5
43
  8
CLAMPBASE
 66
     1
 10
0.0
 20
0.0
 30
0.0
 70
     1
  0
VERTEX
  5
63
  8
CLAMPBASE
 10
-92.45535687128778
 20
10.0
 30
0.0
 42
0.4142135623730951
  0
VERTEX
  5
64
  8
CLAMPBASE
 10
-90.35535687128775
 20
7.900000000000006
 30
0.0
 42
0.4142135623730951
  0
VERTEX
  5
65
  8
CLAMPBASE
 10
-88.25535687128779
 20
10.0
 30
0.0
 42
0.4142135623730951
  0
VERTEX
  5
66
  8
CLAMPBASE
 10
-90.35535687128775
 20
12.09999999999999
 30
0.0
 42
0.4142135623730951
  0
SEQEND
  5
67
  8
CLAMPBASE
  0
POLYLINE
  5
44
  8
CLAMPBASE
 66
     1
 10
0.0
 20
0.0
 30
0.0
 70
     1
  0
VERTEX
  5
68
  8
CLAMPBASE
 10
-31.96387877718158
 20
-32.50000922127239
 30
0.0
  0
VERTEX
  5
69
  8
CLAMPBASE
 10
-16.26787877718149
 20
-32.50001844254479
 30
0.0
  0
VERTEX
  5
6A
  8
CLAMPBASE
 10
-16.26787877718149
 20
-27.16601844254475
 30
0.0
  0
VERTEX
  5
6B
  8
CLAMPBASE
 10
-2.29787877718131
 20
-27.16601844254475
 30
0.0
  0
VERTEX
  5
6C
  8
CLAMPBASE
 10
-2.29787877718131
 20
-9.779012264701208
 30
0.0
  0
VERTEX
  5
6D
  8
CLAMPBASE
 10
3.036121222818409
 20
-9.779012264701208
 30
0.0
  0
VERTEX
  5
6E
  8
CLAMPBASE
 10
3.036121222818721
 20
9.778987735298557
 30
0.0
  0
VERTEX
  5
6F
  8
CLAMPBASE
 10
-2.297878777181282
 20
9.778987735298557
 30
0.0
  0
VERTEX
  5
70
  8
CLAMPBASE
 10
-2.297878777181282
 20
27.16601844254475
 30
0.0
  0
VERTEX
  5
71
  8
CLAMPBASE
 10
-16.26787877718149
 20
27.16601844254475
 30
0.0
  0
VERTEX
  5
72
  8
CLAMPBASE
 10
-16.26787877718149
 20
32.50001844254479
 30
0.0
  0
VERTEX
  5
73
  8
CLAMPBASE
 10
-31.96387877718156
 20
32.50000922127239
 30
0.0
 42
0.4142135623730951
  0
VERTEX
  5
74
  8
CLAMPBASE
 10
-41.96387877718159
 20
22.5
 30
0.0
  0
VERTEX
  5
75
  8
CLAMPBASE
 10
-41.96387877718162
 20
-22.5
 30
0.0
 42
0.4142135623730951
  0
SEQEND
  5
76
  8
CLAMPBASE
  0
POLYLINE
  5
45
  8
CLAMPBASE
 66
     1
 10
0.0
 20
0.0
 30
0.0
 70
     1
  0
VERTEX
  5
77
  8
CLAMPBASE
 10
-14.06387877718142
 20
-22.09999999999999
 30
0.0
 42
0.4142135623730951
  0
VERTEX
  5
78
  8
CLAMPBASE
 10
-11.96387877718139
 20
-20.0
 30
0.0
 42
0.4142135623730951
  0
VERTEX
  5
79
  8
CLAMPBASE
 10
-14.06387877718142
 20
-17.90000000000001
 30
0.0
  0
VERTEX
  5
7A
  8
CLAMPBASE
 10
-29.86387877718154
 20
-17.90000000000001
 30
0.0
 42
0.4142135623730951
  0
VERTEX
  5
7B
  8
CLAMPBASE
 10
-31.96387877718156
 20
-20.0
 30
0.0
 42
0.4142135623730951
  0
VERTEX
  5
7C
  8
CLAMPBASE
 10
-29.86387877718154
 20
-22.09999999999999
 30
0.0
  0
SEQEND
  5
7D
  8
CLAMPBASE
  0
POLYLINE
  5
46
  8
CLAMPBASE
 66
     1
 10
0.0
 20
0.0
 30
0.0
 70
     1
  0
VERTEX
  5
7E
  8
CLAMPBASE
 10
-14.06387877718142
 20
17.90000000000001
 30
0.0
 42
0.4142135623730951
  0
VERTEX
  5
7F
  8
CLAMPBASE
 10
-11.96387877718139
 20
20.0
 30
0.0
 42
0.4142135623730951
  0
VERTEX
  5
80
  8
CLAMPBASE
 10
-14.06387877718142
 20
22.09999999999999
 30
0.0
  0
VERTEX
  5
81
  8
CLAMPBASE
 10
-29.86387877718154
 20
22.09999999999999
 30
0.0
 42
0.4142135623730951
  0
VERTEX
  5
82
  8
CLAMPBASE
 10
-31.96387877718156
 20
20.0
 30
0.0
 42
0.4142135623730951
  0
VERTEX
  5
83
  8
CLAMPBASE
 10
-29.86387877718154
 20
17.90000000000001
 30
0.0
  0
SEQEND
  5
84
  8
CLAMPBASE
  0
POLYLINE
  5
47
  8
CLAMPBASE
 66
     1
 10
0.0
 20
0.0
 30
0.0
 70
     1
  0
VERTEX
  5
85
  8
CLAMPBASE
 10
-49.4645728443458
 20
-25.0
 30
0.0
 42
0.4142135623730951
  0
VERTEX
  5
86
  8
CLAMPBASE
 10
-44.46457284434577
 20
-20.0
 30
0.0
  0
VERTEX
  5
87
  8
CLAMPBASE
 10
-44.46457284434577
 20
20.0
 30
0.0
 42
0.4142135623730951
  0
VERTEX
  5
88
  8
CLAMPBASE
 10
-49.46457284434577
 20
25.0
 30
0.0
  0
VERTEX
  5
89
  8
CLAMPBASE
 10
-77.46457284434582
 20
25.0
 30
0.0
 42
0.4142135623730951
  0
VERTEX
  5
8A
  8
CLAMPBASE
 10
-82.46457284434582
 20
20.0
 30
0.0
  0
VERTEX
  5
8B
  8
CLAMPBASE
 10
-82.46457284434582
 20
-20.0
 30
0.0
 42
0.4142135623730951
  0
VERTEX
  5
8C
  8
CLAMPBASE
 10
-77.46457284434582
 20
-25.0
 30
0.0
  0
SEQEND
  5
8D
  8
CLAMPBASE
  0
POLYLINE
  5
48
  8
CLAMPBASE
 66
     1
 10
0.0
 20
0.0
 30
0.0
 70
     1
  0
VERTEX
  5
8E
  8
CLAMPBASE
 10
-69.39507284434579
 20
-10.0
 30
0.0
 42
0.4142135623730951
  0
VERTEX
  5
8F
  8
CLAMPBASE
 10
-67.4645728443458
 20
-11.93049999999999
 30
0.0
 42
0.4142135623730951
  0
VERTEX
  5
90
  8
CLAMPBASE
 10
-65.5340728443458
 20
-10.0
 30
0.0
 42
0.4142135623730951
  0
VERTEX
  5
91
  8
CLAMPBASE
 10
-67.4645728443458
 20
-8.069500000000005
 30
0.0
 42
0.4142135623730951
  0
SEQEND
  5
92
  8
CLAMPBASE
  0
POLYLINE
  5
49
  8
CLAMPBASE
 66
     1
 10
0.0
 20
0.0
 30
0.0
 70
     1
  0
VERTEX
  5
93
  8
CLAMPBASE
 10
-69.39507284434579
 20
10.0
 30
0.0
 42
0.4142135623730951
  0
VERTEX
  5
94
  8
CLAMPBASE
 10
-67.4645728443458
 20
8.069500000000005
 30
0.0
 42
0.4142135623730951
  0
VERTEX
  5
95
  8
CLAMPBASE
 10
-65.5340728443458
 20
10.0
 30
0.0
 42
0.4142135623730951
  0
VERTEX
  5
96
  8
CLAMPBASE
 10
-67.4645728443458
 20
11.93049999999999
 30
0.0
 42
0.4142135623730951
  0
SEQEND
  5
97
  8
CLAMPBASE
  0
POLYLINE
  5
4A
  8
CLAMPBASE
 66
     1
 10
0.0
 20
0.0
 30
0.0
 70
     1
  0
VERTEX
  5
98
  8
CLAMPBASE
 10
-56.39507284434579
 20
-20.0
 30
0.0
 42
0.4142135623730951
  0
VERTEX
  5
99
  8
CLAMPBASE
 10
-54.4645728443458
 20
-21.93049999999999
 30
0.0
 42
0.4142135623730951
  0
VERTEX
  5
9A
  8
CLAMPBASE
 10
-52.53407284434577
 20
-20.0
 30
0.0
 42
0.4142135623730951
  0
VERTEX
  5
9B
  8
CLAMPBASE
 10
-54.46457284434577
 20
-18.06950000000001
 30
0.0
 42
0.4142135623730951
  0
SEQEND
  5
9C
  8
CLAMPBASE
  0
POLYLINE
  5
4B
  8
CLAMPBASE
 66
     1
 10
0.0
 20
0.0
 30
0.0
 70
     1
  0
VERTEX
  5
9D
  8
CLAMPBASE
 10
-56.39507284434579
 20
20.0
 30
0.0
 42
0.4142135623730951
  0
VERTEX
  5
9E
  8
CLAMPBASE
 10
-54.46457284434577
 20
18.06950000000001
 30
0.0
 42
0.4142135623730951
  0
VERTEX
  5
9F
  8
CLAMPBASE
 10
-52.53407284434577
 20
20.0
 30
0.0
 42
0.4142135623730951
  0
VERTEX
  5
A0
  8
CLAMPBASE
 10
-54.46457284434577
 20
21.93049999999999
 30
0.0
 42
0.4142135623730951
  0
SEQEND
  5
A1
  8
CLAMPBASE
  0
POLYLINE
  5
4C
  8
CLAMPBASE
 66
     1
 10
0.0
 20
0.0
 30
0.0
 70
     1
  0
VERTEX
  5
A2
  8
CLAMPBASE
 10
52.81535687128773
 20
9.524959214804596
 30
0.0
  0
VERTEX
  5
A3
  8
CLAMPBASE
 10
57.89535687128777
 20
9.524959214804596
 30
0.0
  0
VERTEX
  5
A4
  8
CLAMPBASE
 10
57.89535687128777
 20
-9.525040785195415
 30
0.0
  0
VERTEX
  5
A5
  8
CLAMPBASE
 10
52.81535687128773
 20
-9.525040785195415
 30
0.0
  0
SEQEND
  5
A6
  8
CLAMPBASE
  0
POLYLINE
  5
4D
  8
CLAMPBASE
 66
     1
 10
0.0
 20
0.0
 30
0.0
 70
     1
  0
VERTEX
  5
A7
  8
CLAMPBASE
 10
105.3553568712877
 20
19.80000018004404
 30
0.0
  0
VERTEX
  5
A8
  8
CLAMPBASE
 10
105.3553568712877
 20
-19.8000346961357
 30
0.0
  0
VERTEX
  5
A9
  8
CLAMPBASE
 10
105.3512089558567
 20
-20.12782744239671
 30
0.0
  0
VERTEX
  5
AA
  8
CLAMPBASE
 10
105.338831706644
 20
-20.45357508207491
 30
0.0
  0
VERTEX
  5
AB
  8
CLAMPBASE
 10
105.3183248692702
 20
-20.77717786956524
 30
0.0
  0
VERTEX
  5
AC
  8
CLAMPBASE
 10
105.2897881893555
 20
-21.09853605926261
 30
0.0
  0
VERTEX
  5
AD
  8
CLAMPBASE
 10
105.2533214125206
 20
-21.41754990556195
 30
0.0
  0
VERTEX
  5
AE
  8
CLAMPBASE
 10
105.2090242843859
 20
-21.7341196628582
 30
0.0
  0
VERTEX
  5
AF
  8
CLAMPBASE
 10
105.1569965505719
 20
-22.04814558554627
 30
0.0
  0
VERTEX
  5
B0
  8
CLAMPBASE
 10
105.097337956699
 20
-22.35952792802109
 30
0.0
  0
VERTEX
  5
B1
  8
CLAMPBASE
 10
105.0301482483877
 20
-22.66816694467759
 30
0.0
  0
VERTEX
  5
B2
  8
CLAMPBASE
 10
104.9555271712585
 20
-22.97396288991071
 30
0.0
  0
VERTEX
  5
B3
  8
CLAMPBASE
 10
104.8735744709318
 20
-23.27681601811535
 30
0.0
  0
VERTEX
  5
B4
  8
CLAMPBASE
 10
104.7843898930281
 20
-23.57662658368647
 30
0.0
  0
VERTEX
  5
B5
  8
CLAMPBASE
 10
104.6880731831679
 20
-23.87329484101896
 30
0.0
  0
VERTEX
  5
B6
  8
CLAMPBASE
 10
104.5847240869717
 20
-24.16672104450778
 30
0.0
  0
VERTEX
  5
B7
  8
CLAMPBASE
 10
104.4744423500599
 20
-24.45680544854783
 30
0.0
  0
VERTEX
  5
B8
  8
CLAMPBASE
 10
104.3573277180529
 20
-24.74344830753406
 30
0.0
  0
VERTEX
  5
B9
  8
CLAMPBASE
 10
104.2334799365713
 20
-25.02654987586138
 30
0.0
  0
VERTEX
  5
BA
  8
CLAMPBASE
 10
104.1029987512356
 20
-25.30601040792473
 30
0.0
  0
VERTEX
  5
BB
  8
CLAMPBASE
 10
103.8225351514834
 20
-25.8536093808392
 30
0.0
  0
VERTEX
  5
BC
  8
CLAMPBASE
 10
103.5167348837601
 20
-26.38544726143687
 30
0.0
  0
VERTEX
  5
BD
  8
CLAMPBASE
 10
103.1863959130295
 20
-26.90072608487718
 30
0.0
  0
VERTEX
  5
BE
  8
CLAMPBASE
 10
102.8323162042552
 20
-27.39864788631954
 30
0.0
  0
VERTEX
  5
BF
  8
CLAMPBASE
 10
102.4552937224012
 20
-27.87841470092336
 30
0.0
  0
VERTEX
  5
C0
  8
CLAMPBASE
 10
102.0561264324311
 20
-28.33922856384806
 30
0.0
  0
VERTEX
  5
C1
  8
CLAMPBASE
 10
101.6356122993086
 20
-28.78029151025305
 30
0.0
  0
VERTEX
  5
C2
  8
CLAMPBASE
 10
101.1945492879975
 20
-29.20080557529775
 30
0.0
  0
VERTEX
  5
C3
  8
CLAMPBASE
 10
100.7337353634616
 20
-29.59997279414157
 30
0.0
  0
VERTEX
  5
C4
  8
CLAMPBASE
 10
100.2539684906647
 20
-29.97699520194393
 30
0.0
  0
VERTEX
  5
C5
  8
CLAMPBASE
 10
99.75604663457035
 20
-30.33107483386424
 30
0.0
  0
VERTEX
  5
C6
  8
CLAMPBASE
 10
99.24076776014246
 20
-30.66141372506191
 30
0.0
  0
VERTEX
  5
C7
  8
CLAMPBASE
 10
98.70892983234471
 20
-30.96721391069638
 30
0.0
  0
VERTEX
  5
C8
  8
CLAMPBASE
 10
98.16133081614088
 20
-31.24767742592704
 30
0.0
  0
VERTEX
  5
C9
  8
CLAMPBASE
 10
97.88187026393786
 20
-31.37815856812826
 30
0.0
  0
VERTEX
  5
CA
  8
CLAMPBASE
 10
97.59876867649471
 20
-31.50200630591332
 30
0.0
  0
VERTEX
  5
CB
  8
CLAMPBASE
 10
97.31212579943193
 20
-31.61912089367713
 30
0.0
  0
VERTEX
  5
CC
  8
CLAMPBASE
 10
97.02204137836996
 20
-31.72940258581463
 30
0.0
  0
VERTEX
  5
CD
  8
CLAMPBASE
 10
96.72861515892929
 20
-31.83275163672074
 30
0.0
  0
VERTEX
  5
CE
  8
CLAMPBASE
 10
96.43194688673037
 20
-31.92906830079038
 30
0.0
  0
VERTEX
  5
CF
  8
CLAMPBASE
 10
96.1321363073937
 20
-32.01825283241849
 30
0.0
  0
VERTEX
  5
D0
  8
CLAMPBASE
 10
95.8292831665397
 20
-32.10020548599999
 30
0.0
  0
VERTEX
  5
D1
  8
CLAMPBASE
 10
95.52348720978888
 20
-32.17482651592982
 30
0.0
  0
VERTEX
  5
D2
  8
CLAMPBASE
 10
95.2148481827617
 20
-32.24201617660289
 30
0.0
  0
VERTEX
  5
D3
  8
CLAMPBASE
 10
94.90346583107862
 20
-32.30167472241413
 30
0.0
  0
VERTEX
  5
D4
  8
CLAMPBASE
 10
94.5894399003601
 20
-32.35370240775847
 30
0.0
  0
VERTEX
  5
D5
  8
CLAMPBASE
 10
94.27287013622663
 20
-32.39799948703083
 30
0.0
  0
VERTEX
  5
D6
  8
CLAMPBASE
 10
93.95385628429867
 20
-32.43446621462616
 30
0.0
  0
VERTEX
  5
D7
  8
CLAMPBASE
 10
93.63249809019668
 20
-32.46300284493936
 30
0.0
  0
VERTEX
  5
D8
  8
CLAMPBASE
 10
93.30889529954113
 20
-32.48350963236537
 30
0.0
  0
VERTEX
  5
D9
  8
CLAMPBASE
 10
92.98314765795251
 20
-32.49588683129911
 30
0.0
  0
VERTEX
  5
DA
  8
CLAMPBASE
 10
92.65535491105128
 20
-32.50003469613551
 30
0.0
  0
VERTEX
  5
DB
  8
CLAMPBASE
 10
80.75537004388507
 20
-32.50003285938095
 30
0.0
  0
VERTEX
  5
DC
  8
CLAMPBASE
 10
80.75537004388507
 20
-27.16603285938095
 30
0.0
  0
VERTEX
  5
DD
  8
CLAMPBASE
 10
68.05537004388502
 20
-27.16603285938095
 30
0.0
  0
VERTEX
  5
DE
  8
CLAMPBASE
 10
68.05537004388502
 20
-32.50003285938095
 30
0.0
  0
VERTEX
  5
DF
  8
CLAMPBASE
 10
42.6553676202635
 20
-32.50000340809345
 30
0.0
  0
VERTEX
  5
E0
  8
CLAMPBASE
 10
42.6553676202635
 20
-27.16600340809356
 30
0.0
  0
VERTEX
  5
E1
  8
CLAMPBASE
 10
29.95536762026352
 20
-27.16600340809356
 30
0.0
  0
VERTEX
  5
E2
  8
CLAMPBASE
 10
29.95536762026352
 20
-32.50000340809345
 30
0.0
  0
VERTEX
  5
E3
  8
CLAMPBASE
 10
18.05537403604198
 20
-32.5000194915948
 30
0.0
  0
VERTEX
  5
E4
  8
CLAMPBASE
 10
17.72758100841951
 20
-32.49587201245511
 30
0.0
  0
VERTEX
  5
E5
  8
CLAMPBASE
 10
17.40183308152139
 20
-32.48349518348356
 30
0.0
  0
VERTEX
  5
E6
  8
CLAMPBASE
 10
17.07823000125639
 20
-32.4629887504541
 30
0.0
  0
VERTEX
  5
E7
  8
CLAMPBASE
 10
16.75687151353328
 20
-32.4344524591407
 30
0.0
  0
VERTEX
  5
E8
  8
CLAMPBASE
 10
16.43785736426082
 20
-32.3979860553173
 30
0.0
  0
VERTEX
  5
E9
  8
CLAMPBASE
 10
16.12128729934778
 20
-32.35368928475786
 30
0.0
  0
VERTEX
  5
EA
  8
CLAMPBASE
 10
15.80726106470292
 20
-32.30166189323633
 30
0.0
  0
VERTEX
  5
EB
  8
CLAMPBASE
 10
15.49587840623501
 20
-32.24200362652665
 30
0.0
  0
VERTEX
  5
EC
  8
CLAMPBASE
 10
15.1872390698528
 20
-32.1748142304028
 30
0.0
  0
VERTEX
  5
ED
  8
CLAMPBASE
 10
14.88144280146508
 20
-32.10019345063871
 30
0.0
  0
VERTEX
  5
EE
  8
CLAMPBASE
 10
14.57858934698059
 20
-32.01824103300834
 30
0.0
  0
VERTEX
  5
EF
  8
CLAMPBASE
 10
14.27877845230811
 20
-31.92905672328565
 30
0.0
  0
VERTEX
  5
F0
  8
CLAMPBASE
 10
13.9821098633564
 20
-31.83274026724458
 30
0.0
  0
VERTEX
  5
F1
  8
CLAMPBASE
 10
13.68868332603422
 20
-31.72939141065909
 30
0.0
  0
VERTEX
  5
F2
  8
CLAMPBASE
 10
13.39859858625035
 20
-31.61910989930313
 30
0.0
  0
VERTEX
  5
F3
  8
CLAMPBASE
 10
13.11195538991354
 20
-31.50199547895066
 30
0.0
  0
VERTEX
  5
F4
  8
CLAMPBASE
 10
12.82885348293256
 20
-31.37814789537562
 30
0.0
  0
VERTEX
  5
F5
  8
CLAMPBASE
 10
12.54939261121617
 20
-31.24766689435197
 30
0.0
  0
VERTEX
  5
F6
  8
CLAMPBASE
 10
12.00179295721225
 20
-30.96720362305467
 30
0.0
  0
VERTEX
  5
F7
  8
CLAMPBASE
 10
11.46995439517188
 20
-30.66140363125036
 30
0.0
  0
VERTEX
  5
F8
  8
CLAMPBASE
 10
10.9546748923652
 20
-30.33106488513067
 30
0.0
  0
VERTEX
  5
F9
  8
CLAMPBASE
 10
10.45675241606231
 20
-29.97698535088723
 30
0.0
  0
VERTEX
  5
FA
  8
CLAMPBASE
 10
9.976984933533341
 20
-29.59996299471164
 30
0.0
  0
VERTEX
  5
FB
  8
CLAMPBASE
 10
9.516170412048407
 20
-29.20079578279555
 30
0.0
  0
VERTEX
  5
FC
  8
CLAMPBASE
 10
9.075106818877629
 20
-28.78028168133057
 30
0.0
  0
VERTEX
  5
FD
  8
CLAMPBASE
 10
8.654592121291124
 20
-28.33921865650833
 30
0.0
  0
VERTEX
  5
FE
  8
CLAMPBASE
 10
8.255424286559014
 20
-27.87840467452044
 30
0.0
  0
VERTEX
  5
FF
  8
CLAMPBASE
 10
7.878401281951419
 20
-27.39863770155853
 30
0.0
  0
VERTEX
  5
100
  8
CLAMPBASE
 10
7.524321074738456
 20
-26.90071570381422
 30
0.0
  0
VERTEX
  5
101
  8
CLAMPBASE
 10
7.193981632190244
 20
-26.38543664747914
 30
0.0
  0
VERTEX
  5
102
  8
CLAMPBASE
 10
6.888180921576904
 20
-25.85359849874491
 30
0.0
  0
VERTEX
  5
103
  8
CLAMPBASE
 10
6.607716910168554
 20
-25.30599922380315
 30
0.0
  0
VERTEX
  5
104
  8
CLAMPBASE
 10
6.477235531438161
 20
-25.02653852843933
 30
0.0
  0
VERTEX
  5
105
  8
CLAMPBASE
 10
6.353387565235312
 20
-24.74343678884549
 30
0.0
  0
VERTEX
  5
106
  8
CLAMPBASE
 10
6.23627275746877
 20
-24.45679375079557
 30
0.0
  0
VERTEX
  5
107
  8
CLAMPBASE
 10
6.1259908540473
 20
-24.16670916006354
 30
0.0
  0
VERTEX
  5
108
  8
CLAMPBASE
 10
6.022641600879668
 20
-23.87328276242334
 30
0.0
  0
VERTEX
  5
109
  8
CLAMPBASE
 10
5.926324743874637
 20
-23.57661430364893
 30
0.0
  0
VERTEX
  5
10A
  8
CLAMPBASE
 10
5.837140028940972
 20
-23.27680352951427
 30
0.0
  0
VERTEX
  5
10B
  8
CLAMPBASE
 10
5.755187201987439
 20
-22.9739501857933
 30
0.0
  0
VERTEX
  5
10C
  8
CLAMPBASE
 10
5.680566008922804
 20
-22.66815401825997
 30
0.0
  0
VERTEX
  5
10D
  8
CLAMPBASE
 10
5.61337619565583
 20
-22.35951477268824
 30
0.0
  0
VERTEX
  5
10E
  8
CLAMPBASE
 10
5.553717508095282
 20
-22.04813219485206
 30
0.0
  0
VERTEX
  5
10F
  8
CLAMPBASE
 10
5.501689692149926
 20
-21.73410603052539
 30
0.0
  0
VERTEX
  5
110
  8
CLAMPBASE
 10
5.457392493728525
 20
-21.41753602548218
 30
0.0
  0
VERTEX
  5
111
  8
CLAMPBASE
 10
5.420925658739846
 20
-21.09852192549638
 30
0.0
  0
VERTEX
  5
112
  8
CLAMPBASE
 10
5.392388933092652
 20
-20.77716347634195
 30
0.0
  0
VERTEX
  5
113
  8
CLAMPBASE
 10
5.371882062695711
 20
-20.45356042379283
 30
0.0
  0
VERTEX
  5
114
  8
CLAMPBASE
 10
5.359504793457786
 20
-20.12781251362298
 30
0.0
  0
VERTEX
  5
115
  8
CLAMPBASE
 10
5.35535687128764
 20
-19.80001949160635
 30
0.0
  0
VERTEX
  5
116
  8
CLAMPBASE
 10
5.35535687128764
 20
19.80000018014761
 30
0.0
  0
VERTEX
  5
117
  8
CLAMPBASE
 10
5.359504769522624
 20
20.12779222277344
 30
0.0
  0
VERTEX
  5
118
  8
CLAMPBASE
 10
5.371881967637679
 20
20.45353917224831
 30
0.0
  0
VERTEX
  5
119
  8
CLAMPBASE
 10
5.39238872074797
 20
20.77714128339804
 30
0.0
  0
VERTEX
  5
11A
  8
CLAMPBASE
 10
5.420925283968659
 20
21.09849881104851
 30
0.0
  0
VERTEX
  5
11B
  8
CLAMPBASE
 10
5.457391912414909
 20
21.41751201002555
 30
0.0
  0
VERTEX
  5
11C
  8
CLAMPBASE
 10
5.501688861201884
 20
21.73408113515502
 30
0.0
  0
VERTEX
  5
11D
  8
CLAMPBASE
 10
5.553716385444746
 20
22.04810644126277
 30
0.0
  0
VERTEX
  5
11E
  8
CLAMPBASE
 10
5.61337474025866
 20
22.35948818317465
 30
0.0
  0
VERTEX
  5
11F
  8
CLAMPBASE
 10
5.68056418075879
 20
22.66812661571652
 30
0.0
  0
VERTEX
  5
120
  8
CLAMPBASE
 10
5.755184962060296
 20
22.97392199371421
 30
0.0
  0
VERTEX
  5
121
  8
CLAMPBASE
 10
5.837137339278343
 20
23.2767745719936
 30
0.0
  0
VERTEX
  5
122
  8
CLAMPBASE
 10
5.926321567528095
 20
23.57658460538052
 30
0.0
  0
VERTEX
  5
123
  8
CLAMPBASE
 10
6.022637901924716
 20
23.87325234870082
 30
0.0
  0
VERTEX
  5
124
  8
CLAMPBASE
 10
6.125986597583366
 20
24.16667805678036
 30
0.0
  0
VERTEX
  5
125
  8
CLAMPBASE
 10
6.236267909619212
 20
24.456761984445
 30
0.0
  0
VERTEX
  5
126
  8
CLAMPBASE
 10
6.353382093147415
 20
24.74340438652057
 30
0.0
  0
VERTEX
  5
127
  8
CLAMPBASE
 10
6.47722940328314
 20
25.02650551783293
 30
0.0
  0
VERTEX
  5
128
  8
CLAMPBASE
 10
6.607710095141548
 20
25.30596563320793
 30
0.0
  0
VERTEX
  5
129
  8
CLAMPBASE
 10
6.888172644487071
 20
25.85356383544927
 30
0.0
  0
VERTEX
  5
12A
  8
CLAMPBASE
 10
7.19397178210529
 20
26.38540103185139
 30
0.0
  0
VERTEX
  5
12B
  8
CLAMPBASE
 10
7.524309548917513
 20
26.9006792610211
 30
0.0
  0
VERTEX
  5
12C
  8
CLAMPBASE
 10
7.878387985845045
 20
27.3986005615652
 30
0.0
  0
VERTEX
  5
12D
  8
CLAMPBASE
 10
8.255409133809192
 20
27.87836697209052
 30
0.0
  0
VERTEX
  5
12E
  8
CLAMPBASE
 10
8.65457503373126
 20
28.33918053120384
 30
0.0
  0
VERTEX
  5
12F
  8
CLAMPBASE
 10
9.075087726532558
 20
28.78024327751199
 30
0.0
  0
VERTEX
  5
130
  8
CLAMPBASE
 10
9.51614925313439
 20
29.20075724962178
 30
0.0
  0
VERTEX
  5
131
  8
CLAMPBASE
 10
9.976961654458066
 20
29.59992448614
 30
0.0
  0
VERTEX
  5
132
  8
CLAMPBASE
 10
10.45672697142489
 20
29.97694702567347
 30
0.0
  0
VERTEX
  5
133
  8
CLAMPBASE
 10
10.95464724495616
 20
30.33102690682901
 30
0.0
  0
VERTEX
  5
134
  8
CLAMPBASE
 10
11.4699245159732
 20
30.66136616821342
 30
0.0
  0
VERTEX
  5
135
  8
CLAMPBASE
 10
12.0017608253973
 20
30.96716684843349
 30
0.0
  0
VERTEX
  5
136
  8
CLAMPBASE
 10
12.54935821414977
 20
31.24763098609606
 30
0.0
  0
VERTEX
  5
137
  8
CLAMPBASE
 10
12.82881795106206
 20
31.3781124885329
 30
0.0
  0
VERTEX
  5
138
  8
CLAMPBASE
 10
13.11191872315193
 20
31.50196061980791
 30
0.0
  0
VERTEX
  5
139
  8
CLAMPBASE
 10
13.39856078553454
 20
31.61907563474695
 30
0.0
  0
VERTEX
  5
13A
  8
CLAMPBASE
 10
13.68864439332506
 20
31.72935778817587
 30
0.0
  0
VERTEX
  5
13B
  8
CLAMPBASE
 10
13.98206980163866
 20
31.83270733492051
 30
0.0
  0
VERTEX
  5
13C
  8
CLAMPBASE
 10
14.2787372655905
 20
31.92902452980673
 30
0.0
  0
VERTEX
  5
13D
  8
CLAMPBASE
 10
14.57854704029573
 20
32.01820962766038
 30
0.0
  0
VERTEX
  5
13E
  8
CLAMPBASE
 10
14.88139938086952
 20
32.10016288330732
 30
0.0
  0
VERTEX
  5
13F
  8
CLAMPBASE
 10
15.18719454242705
 20
32.17478455157338
 30
0.0
  0
VERTEX
  5
140
  8
CLAMPBASE
 10
15.49583278008346
 20
32.24197488728443
 30
0.0
  0
VERTEX
  5
141
  8
CLAMPBASE
 10
15.80721434895392
 20
32.30163414526632
 30
0.0
  0
VERTEX
  5
142
  8
CLAMPBASE
 10
16.12123950415361
 20
32.35366258034488
 30
0.0
  0
VERTEX
  5
143
  8
CLAMPBASE
 10
16.43780850079767
 20
32.39796044734599
 30
0.0
  0
VERTEX
  5
144
  8
CLAMPBASE
 10
16.75682159400127
 20
32.43442800109548
 30
0.0
  0
VERTEX
  5
145
  8
CLAMPBASE
 10
17.07817903887958
 20
32.46296549641921
 30
0.0
  0
VERTEX
  5
146
  8
CLAMPBASE
 10
17.40178109054776
 20
32.48347318814302
 30
0.0
  0
VERTEX
  5
147
  8
CLAMPBASE
 10
17.72752800412096
 20
32.49585133109278
 30
0.0
  0
VERTEX
  5
148
  8
CLAMPBASE
 10
18.05532003471437
 20
32.50000018009433
 30
0.0
  0
VERTEX
  5
149
  8
CLAMPBASE
 10
29.95527926637389
 20
32.50003469613551
 30
0.0
  0
VERTEX
  5
14A
  8
CLAMPBASE
 10
29.95527926637389
 20
27.16603469613557
 30
0.0
  0
VERTEX
  5
14B
  8
CLAMPBASE
 10
42.65527926637388
 20
27.16603469613557
 30
0.0
  0
VERTEX
  5
14C
  8
CLAMPBASE
 10
42.65527926637388
 20
32.50003469613551
 30
0.0
  0
VERTEX
  5
14D
  8
CLAMPBASE
 10
68.05536513533671
 20
32.50003469613551
 30
0.0
  0
VERTEX
  5
14E
  8
CLAMPBASE
 10
68.05536513533671
 20
27.16603469613557
 30
0.0
  0
VERTEX
  5
14F
  8
CLAMPBASE
 10
80.75536513533676
 20
27.16603469613557
 30
0.0
  0
VERTEX
  5
150
  8
CLAMPBASE
 10
80.75536513533676
 20
32.50003469613551
 30
0.0
  0
VERTEX
  5
151
  8
CLAMPBASE
 10
92.65539370775728
 20
32.50000017999042
 30
0.0
  0
VERTEX
  5
152
  8
CLAMPBASE
 10
92.9831857383526
 20
32.49585133099151
 30
0.0
  0
VERTEX
  5
153
  8
CLAMPBASE
 10
93.30893265192776
 20
32.48347318804427
 30
0.0
  0
VERTEX
  5
154
  8
CLAMPBASE
 10
93.63253470359791
 20
32.46296549632287
 30
0.0
  0
VERTEX
  5
155
  8
CLAMPBASE
 10
93.95389214847822
 20
32.43442800100146
 30
0.0
  0
VERTEX
  5
156
  8
CLAMPBASE
 10
94.27290524168384
 20
32.39796044725419
 30
0.0
  0
VERTEX
  5
157
  8
CLAMPBASE
 10
94.58947423832996
 20
32.3536625802552
 30
0.0
  0
VERTEX
  5
158
  8
CLAMPBASE
 10
94.90349939353172
 20
32.30163414517865
 30
0.0
  0
VERTEX
  5
159
  8
CLAMPBASE
 10
95.21488096240427
 20
32.24197488719867
 30
0.0
  0
VERTEX
  5
15A
  8
CLAMPBASE
 10
95.52351920006278
 20
32.17478455148944
 30
0.0
  0
VERTEX
  5
15B
  8
CLAMPBASE
 10
95.82931436162242
 20
32.10016288322508
 30
0.0
  0
VERTEX
  5
15C
  8
CLAMPBASE
 10
96.13216670219835
 20
32.01820962757977
 30
0.0
  0
VERTEX
  5
15D
  8
CLAMPBASE
 10
96.43197647690573
 20
31.92902452972763
 30
0.0
  0
VERTEX
  5
15E
  8
CLAMPBASE
 10
96.72864394085971
 20
31.83270733484284
 30
0.0
  0
VERTEX
  5
15F
  8
CLAMPBASE
 10
97.02206934917548
 20
31.72935778809952
 30
0.0
  0
VERTEX
  5
160
  8
CLAMPBASE
 10
97.31215295696818
 20
31.61907563467184
 30
0.0
  0
VERTEX
  5
161
  8
CLAMPBASE
 10
97.59879501935298
 20
31.50196061973395
 30
0.0
  0
VERTEX
  5
162
  8
CLAMPBASE
 10
97.88189579144503
 20
31.37811248845999
 30
0.0
  0
VERTEX
  5
163
  8
CLAMPBASE
 10
98.1613555283595
 20
31.24763098602412
 30
0.0
  0
VERTEX
  5
164
  8
CLAMPBASE
 10
98.7089529171163
 20
30.96716684836323
 30
0.0
  0
VERTEX
  5
165
  8
CLAMPBASE
 10
99.24078922654473
 20
30.66136616814449
 30
0.0
  0
VERTEX
  5
166
  8
CLAMPBASE
 10
99.75606649756605
 20
30.33102690676108
 30
0.0
  0
VERTEX
  5
167
  8
CLAMPBASE
 10
100.2539867711016
 20
29.97694702560622
 30
0.0
  0
VERTEX
  5
168
  8
CLAMPBASE
 10
100.7337520880725
 20
29.59992448607311
 30
0.0
  0
VERTEX
  5
169
  8
CLAMPBASE
 10
101.1945644894003
 20
29.20075724955494
 30
0.0
  0
VERTEX
  5
16A
  8
CLAMPBASE
 10
101.6356260160061
 20
28.78024327744492
 30
0.0
  0
VERTEX
  5
16B
  8
CLAMPBASE
 10
102.0561387088112
 20
28.33918053113624
 30
0.0
  0
VERTEX
  5
16C
  8
CLAMPBASE
 10
102.455304608737
 20
27.87836697202211
 30
0.0
  0
VERTEX
  5
16D
  8
CLAMPBASE
 10
102.8323257567047
 20
27.39860056149573
 30
0.0
  0
VERTEX
  5
16E
  8
CLAMPBASE
 10
103.1864041936357
 20
26.90067926095029
 30
0.0
  0
VERTEX
  5
16F
  8
CLAMPBASE
 10
103.5167419604511
 20
26.38540103177901
 30
0.0
  0
VERTEX
  5
170
  8
CLAMPBASE
 10
103.8225410980723
 20
25.85356383537507
 30
0.0
  0
VERTEX
  5
171
  8
CLAMPBASE
 10
104.1030036474207
 20
25.30596563313168
 30
0.0
  0
VERTEX
  5
172
  8
CLAMPBASE
 10
104.2334843392804
 20
25.02650551775557
 30
0.0
  0
VERTEX
  5
173
  8
CLAMPBASE
 10
104.3573316494174
 20
24.74340438644204
 30
0.0
  0
VERTEX
  5
174
  8
CLAMPBASE
 10
104.4744458329468
 20
24.45676198436526
 30
0.0
  0
VERTEX
  5
175
  8
CLAMPBASE
 10
104.5847271449838
 20
24.16667805669936
 30
0.0
  0
VERTEX
  5
176
  8
CLAMPBASE
 10
104.6880758406435
 20
23.8732523486185
 30
0.0
  0
VERTEX
  5
177
  8
CLAMPBASE
 10
104.7843921750411
 20
23.57658460529682
 30
0.0
  0
VERTEX
  5
178
  8
CLAMPBASE
 10
104.8735764032918
 20
23.27677457190849
 30
0.0
  0
VERTEX
  5
179
  8
CLAMPBASE
 10
104.9555287805107
 20
22.97392199362764
 30
0.0
  0
VERTEX
  5
17A
  8
CLAMPBASE
 10
105.030149561813
 20
22.66812661562843
 30
0.0
  0
VERTEX
  5
17B
  8
CLAMPBASE
 10
105.0973390023139
 20
22.35948818308501
 30
0.0
  0
VERTEX
  5
17C
  8
CLAMPBASE
 10
105.1569973571284
 20
22.04810644117153
 30
0.0
  0
VERTEX
  5
17D
  8
CLAMPBASE
 10
105.2090248813718
 20
21.73408113506214
 30
0.0
  0
VERTEX
  5
17E
  8
CLAMPBASE
 10
105.2533218301593
 20
21.41751200993098
 30
0.0
  0
VERTEX
  5
17F
  8
CLAMPBASE
 10
105.289788458606
 20
21.09849881095221
 30
0.0
  0
VERTEX
  5
180
  8
CLAMPBASE
 10
105.318325021827
 20
20.77714128329999
 30
0.0
  0
VERTEX
  5
181
  8
CLAMPBASE
 10
105.3388317749375
 20
20.45353917214845
 30
0.0
  0
VERTEX
  5
182
  8
CLAMPBASE
 10
105.3512089730526
 20
20.12779222267175
 30
0.0
  0
SEQEND
  5
183
  8
CLAMPBASE
  0
POLYLINE
  5
4E
  8
CLAMPBASE
 66
     1
 10
0.0
 20
0.0
 30
0.0
 70
     1
  0
VERTEX
  5
184
  8
CLAMPBASE
 10
86.30470694983147
 20
2.949999999999861
 30
0.0
 42
0.4142135623730951
  0
VERTEX
  5
185
  8
CLAMPBASE
 10
83.35470694983147
 20
-0.0000000000001421
 30
0.0
 42
0.4142135623730951
  0
VERTEX
  5
186
  8
CLAMPBASE
 10
86.30470694983147
 20
-2.950000000000145
 30
0.0
 42
0.4142135623730951
  0
VERTEX
  5
187
  8
CLAMPBASE
 10
89.25470694983147
 20
-0.0000000000001421
 30
0.0
 42
0.4142135623730951
  0
SEQEND
  5
188
  8
CLAMPBASE
  0
POLYLINE
  5
4F
  8
CLAMPBASE
 66
     1
 10
0.0
 20
0.0
 30
0.0
 70
     1
  0
VERTEX
  5
189
  8
CLAMPBASE
 10
24.40343044397589
 20
2.949999999999861
 30
0.0
 42
0.4142135623730951
  0
VERTEX
  5
18A
  8
CLAMPBASE
 10
21.45343044397589
 20
-0.0000000000001421
 30
0.0
 42
0.4142135623730951
  0
VERTEX
  5
18B
  8
CLAMPBASE
 10
24.40343044397589
 20
-2.950000000000145
 30
0.0
 42
0.4142135623730951
  0
VERTEX
  5
18C
  8
CLAMPBASE
 10
27.3534304439759
 20
-0.0000000000001421
 30
0.0
 42
0.4142135623730951
  0
SEQEND
  5
18D
  8
CLAMPBASE
  0
ENDSEC
  0
EOF
