  0
SECTION
  2
HEADER
  9
$ACADVER
  1
AC1009
  9
$DWGCODEPAGE
  3
ansi_1252
  9
$INSBASE
 10
0.0
 20
0.0
 30
0.0
  9
$EXTMIN
 10
-122.3730043980463
 20
-32.50003469613551
 30
0.0
  9
$EXTMAX
 10
122.3730043980462
 20
32.50003469613551
 30
0.0
  9
$LIMMIN
 10
0.0
 20
0.0
  9
$LIMMAX
 10
12.0
 20
9.0
  9
$ORTHOMODE
 70
     0
  9
$REGENMODE
 70
     1
  9
$FILLMODE
 70
     1
  9
$QTEXTMODE
 70
     0
  9
$MIRRTEXT
 70
     1
  9
$DRAGMODE
 70
     2
  9
$LTSCALE
 40
1.0
  9
$OSMODE
 70
    37
  9
$ATTMODE
 70
     1
  9
$TEXTSIZE
 40
0.2
  9
$TRACEWID
 40
0.05
  9
$TEXTSTYLE
  7
STANDARD
  9
$CLAYER
  8
0
  9
$CELTYPE
  6
BYLAYER
  9
$CECOLOR
 62
   256
  9
$DIMSCALE
 40
1.0
  9
$DIMASZ
 40
0.18
  9
$DIMEXO
 40
0.0625
  9
$DIMDLI
 40
0.38
  9
$DIMRND
 40
0.0
  9
$DIMDLE
 40
0.0
  9
$DIMEXE
 40
0.18
  9
$DIMTP
 40
0.0
  9
$DIMTM
 40
0.0
  9
$DIMTXT
 40
0.18
  9
$DIMCEN
 40
0.09
  9
$DIMTSZ
 40
0.0
  9
$DIMTOL
 70
     0
  9
$DIMLIM
 70
     0
  9
$DIMTIH
 70
     1
  9
$DIMTOH
 70
     1
  9
$DIMSE1
 70
     0
  9
$DIMSE2
 70
     0
  9
$DIMTAD
 70
     0
  9
$DIMZIN
 70
     0
  9
$DIMBLK
  1

  9
$DIMASO
 70
     1
  9
$DIMSHO
 70
     1
  9
$DIMPOST
  1

  9
$DIMAPOST
  1

  9
$DIMALT
 70
     0
  9
$DIMALTD
 70
     2
  9
$DIMALTF
 40
25.4
  9
$DIMLFAC
 40
1.0
  9
$DIMTOFL
 70
     0
  9
$DIMTVP
 40
0.0
  9
$DIMTIX
 70
     0
  9
$DIMSOXD
 70
     0
  9
$DIMSAH
 70
     0
  9
$DIMBLK1
  1

  9
$DIMBLK2
  1

  9
$DIMSTYLE
  2
STANDARD
  9
$DIMCLRD
 70
     0
  9
$DIMCLRE
 70
     0
  9
$DIMCLRT
 70
     0
  9
$DIMTFAC
 40
1.0
  9
$DIMGAP
 40
0.09
  9
$LUNITS
 70
     2
  9
$LUPREC
 70
     4
  9
$SKETCHINC
 40
0.1
  9
$FILLETRAD
 40
0.5
  9
$AUNITS
 70
     0
  9
$AUPREC
 70
     0
  9
$MENU
  1
.
  9
$ELEVATION
 40
0.0
  9
$PELEVATION
 40
0.0
  9
$THICKNESS
 40
0.0
  9
$LIMCHECK
 70
     0
  9
$CHAMFERA
 40
0.5
  9
$CHAMFERB
 40
0.5
  9
$SKPOLY
 70
     0
  9
$TDCREATE
 40
2454910.5
  9
$TDUPDATE
 40
2457516.669502569
  9
$TDINDWG
 40
0.0000000116
  9
$TDUSRTIMER
 40
0.0000000116
  9
$USRTIMER
 70
     1
  9
$ANGBASE
 50
0.0
  9
$ANGDIR
 70
     0
  9
$PDMODE
 70
     0
  9
$PDSIZE
 40
0.0
  9
$PLINEWID
 40
0.0
  9
$COORDS
 70
     1
  9
$SPLFRAME
 70
     0
  9
$SPLINETYPE
 70
     6
  9
$SPLINESEGS
 70
     8
  9
$ATTDIA
 70
     0
  9
$ATTREQ
 70
     1
  9
$HANDLING
 70
     1
  9
$HANDSEED
  5
38B
  9
$SURFTAB1
 70
     6
  9
$SURFTAB2
 70
     6
  9
$SURFTYPE
 70
     6
  9
$SURFU
 70
     6
  9
$SURFV
 70
     6
  9
$UCSNAME
  2

  9
$UCSORG
 10
0.0
 20
0.0
 30
0.0
  9
$UCSXDIR
 10
1.0
 20
0.0
 30
0.0
  9
$UCSYDIR
 10
0.0
 20
1.0
 30
0.0
  9
$PUCSNAME
  2

  9
$PUCSORG
 10
0.0
 20
0.0
 30
0.0
  9
$PUCSXDIR
 10
1.0
 20
0.0
 30
0.0
  9
$PUCSYDIR
 10
0.0
 20
1.0
 30
0.0
  9
$USERI1
 70
     0
  9
$USERI2
 70
     0
  9
$USERI3
 70
     0
  9
$USERI4
 70
     0
  9
$USERI5
 70
     0
  9
$USERR1
 40
0.0
  9
$USERR2
 40
0.0
  9
$USERR3
 40
0.0
  9
$USERR4
 40
0.0
  9
$USERR5
 40
0.0
  9
$WORLDVIEW
 70
     1
  9
$SHADEDGE
 70
     3
  9
$SHADEDIF
 70
    70
  9
$TILEMODE
 70
     1
  9
$MAXACTVP
 70
    64
  9
$PLIMCHECK
 70
     0
  9
$PEXTMIN
 10
1.000000000000000E+20
 20
1.000000000000000E+20
 30
1.000000000000000E+20
  9
$PEXTMAX
 10
-1.000000000000000E+20
 20
-1.000000000000000E+20
 30
-1.000000000000000E+20
  9
$PLIMMIN
 10
0.0
 20
0.0
  9
$PLIMMAX
 10
12.0
 20
9.0
  9
$UNITMODE
 70
     0
  9
$VISRETAIN
 70
     1
  9
$PLINEGEN
 70
     0
  9
$PSLTSCALE
 70
     1
  0
ENDSEC
  0
SECTION
  2
TABLES
  0
TABLE
  2
VPORT
 70
     1
  0
VPORT
  2
*ACTIVE
 70
     0
 10
0.0
 20
0.0
 11
1.0
 21
1.0
 12
10.42990654205607
 22
4.5
 13
0.0
 23
0.0
 14
0.5
 24
0.5
 15
0.5
 25
0.5
 16
0.0
 26
0.0
 36
1.0
 17
0.0
 27
0.0
 37
0.0
 40
9.0
 41
1.972972972850329
 42
50.0
 43
0.0
 44
0.0
 50
0.0
 51
0.0
 71
     0
 72
   100
 73
     1
 74
     3
 75
     0
 76
     0
 77
     0
 78
     0
  0
ENDTAB
  0
TABLE
  2
LTYPE
 70
     2
  0
LTYPE
  2
CONTINUOUS
 70
     0
  3
Solid line
 72
    65
 73
     0
 40
0.0
  0
LTYPE
  2
CONTINUOUS2
 70
     0
  3
Solid Line
 72
    65
 73
     0
 40
0.0
  0
ENDTAB
  0
TABLE
  2
LAYER
 70
     1
  0
LAYER
  2
0
 70
     0
 62
     7
  6
CONTINUOUS
  0
ENDTAB
  0
TABLE
  2
STYLE
 70
     1
  0
STYLE
  2
STANDARD
 70
     0
 40
0.0
 41
1.0
 50
0.0
 71
     0
 42
0.2
  3
txt
  4

  0
ENDTAB
  0
TABLE
  2
VIEW
 70
     0
  0
ENDTAB
  0
TABLE
  2
UCS
 70
     0
  0
ENDTAB
  0
TABLE
  2
APPID
 70
     1
  0
APPID
  2
ACAD
 70
     0
  0
ENDTAB
  0
TABLE
  2
DIMSTYLE
 70
     1
  0
DIMSTYLE
  2
STANDARD
 70
     0
  3

  4

  5

  6

  7

 40
1.0
 41
0.18
 42
0.0625
 43
0.38
 44
0.18
 45
0.0
 46
0.0
 47
0.0
 48
0.0
140
0.18
141
0.09
142
0.0
143
25.4
144
1.0
145
0.0
146
1.0
147
0.09
 71
     0
 72
     0
 73
     1
 74
     1
 75
     0
 76
     0
 77
     0
 78
     0
170
     0
171
     2
172
     0
173
     0
174
     0
175
     0
176
     0
177
     0
178
     0
  0
ENDTAB
  0
ENDSEC
  0
SECTION
  2
BLOCKS
  0
BLOCK
  8
0
  2
$MODEL_SPACE
 70
     0
 10
0.0
 20
0.0
 30
0.0
  3
$MODEL_SPACE
  1

  0
ENDBLK
  5
21
  8
0
  0
BLOCK
 67
     1
  8
0
  2
$PAPER_SPACE
 70
     0
 10
0.0
 20
0.0
 30
0.0
  3
$PAPER_SPACE
  1

  0
ENDBLK
  5
1D
 67
     1
  8
0
  0
ENDSEC
  0
SECTION
  2
ENTITIES
  0
POLYLINE
  5
40
  8
0
 66
     1
 10
0.0
 20
0.0
 30
0.0
 70
     1
  0
VERTEX
  5
50
  8
0
 10
69.83300439804628
 20
9.524959214804596
 30
0.0
  0
VERTEX
  5
51
  8
0
 10
74.91300439804633
 20
9.524959214804596
 30
0.0
  0
VERTEX
  5
52
  8
0
 10
74.91300439804633
 20
-9.525040785195415
 30
0.0
  0
VERTEX
  5
53
  8
0
 10
69.83300439804628
 20
-9.525040785195415
 30
0.0
  0
SEQEND
  5
54
  8
0
  0
POLYLINE
  5
41
  8
0
 66
     1
 10
0.0
 20
0.0
 30
0.0
 70
     1
  0
VERTEX
  5
55
  8
0
 10
122.3730043980462
 20
19.80000018004404
 30
0.0
  0
VERTEX
  5
56
  8
0
 10
122.3730043980462
 20
-19.8000346961357
 30
0.0
  0
VERTEX
  5
57
  8
0
 10
122.3688564826153
 20
-20.12782744239671
 30
0.0
  0
VERTEX
  5
58
  8
0
 10
122.3564792334026
 20
-20.45357508207491
 30
0.0
  0
VERTEX
  5
59
  8
0
 10
122.3359723960287
 20
-20.77717786956524
 30
0.0
  0
VERTEX
  5
5A
  8
0
 10
122.3074357161141
 20
-21.09853605926261
 30
0.0
  0
VERTEX
  5
5B
  8
0
 10
122.2709689392792
 20
-21.41754990556195
 30
0.0
  0
VERTEX
  5
5C
  8
0
 10
122.2266718111445
 20
-21.7341196628582
 30
0.0
  0
VERTEX
  5
5D
  8
0
 10
122.1746440773305
 20
-22.04814558554627
 30
0.0
  0
VERTEX
  5
5E
  8
0
 10
122.1149854834576
 20
-22.35952792802109
 30
0.0
  0
VERTEX
  5
5F
  8
0
 10
122.0477957751463
 20
-22.66816694467759
 30
0.0
  0
VERTEX
  5
60
  8
0
 10
121.9731746980171
 20
-22.97396288991071
 30
0.0
  0
VERTEX
  5
61
  8
0
 10
121.8912219976904
 20
-23.27681601811535
 30
0.0
  0
VERTEX
  5
62
  8
0
 10
121.8020374197867
 20
-23.57662658368647
 30
0.0
  0
VERTEX
  5
63
  8
0
 10
121.7057207099265
 20
-23.87329484101896
 30
0.0
  0
VERTEX
  5
64
  8
0
 10
121.6023716137303
 20
-24.16672104450778
 30
0.0
  0
VERTEX
  5
65
  8
0
 10
121.4920898768184
 20
-24.45680544854783
 30
0.0
  0
VERTEX
  5
66
  8
0
 10
121.3749752448115
 20
-24.74344830753406
 30
0.0
  0
VERTEX
  5
67
  8
0
 10
121.2511274633299
 20
-25.02654987586138
 30
0.0
  0
VERTEX
  5
68
  8
0
 10
121.1206462779941
 20
-25.30601040792473
 30
0.0
  0
VERTEX
  5
69
  8
0
 10
120.8401826782419
 20
-25.8536093808392
 30
0.0
  0
VERTEX
  5
6A
  8
0
 10
120.5343824105186
 20
-26.38544726143687
 30
0.0
  0
VERTEX
  5
6B
  8
0
 10
120.204043439788
 20
-26.90072608487718
 30
0.0
  0
VERTEX
  5
6C
  8
0
 10
119.8499637310138
 20
-27.39864788631954
 30
0.0
  0
VERTEX
  5
6D
  8
0
 10
119.4729412491597
 20
-27.87841470092336
 30
0.0
  0
VERTEX
  5
6E
  8
0
 10
119.0737739591896
 20
-28.33922856384806
 30
0.0
  0
VERTEX
  5
6F
  8
0
 10
118.6532598260671
 20
-28.78029151025305
 30
0.0
  0
VERTEX
  5
70
  8
0
 10
118.2121968147561
 20
-29.20080557529775
 30
0.0
  0
VERTEX
  5
71
  8
0
 10
117.7513828902202
 20
-29.59997279414157
 30
0.0
  0
VERTEX
  5
72
  8
0
 10
117.2716160174232
 20
-29.97699520194393
 30
0.0
  0
VERTEX
  5
73
  8
0
 10
116.7736941613289
 20
-30.33107483386424
 30
0.0
  0
VERTEX
  5
74
  8
0
 10
116.258415286901
 20
-30.66141372506191
 30
0.0
  0
VERTEX
  5
75
  8
0
 10
115.7265773591033
 20
-30.96721391069638
 30
0.0
  0
VERTEX
  5
76
  8
0
 10
115.1789783428994
 20
-31.24767742592704
 30
0.0
  0
VERTEX
  5
77
  8
0
 10
114.8995177906964
 20
-31.37815856812826
 30
0.0
  0
VERTEX
  5
78
  8
0
 10
114.6164162032533
 20
-31.50200630591332
 30
0.0
  0
VERTEX
  5
79
  8
0
 10
114.3297733261905
 20
-31.61912089367713
 30
0.0
  0
VERTEX
  5
7A
  8
0
 10
114.0396889051285
 20
-31.72940258581463
 30
0.0
  0
VERTEX
  5
7B
  8
0
 10
113.7462626856878
 20
-31.83275163672074
 30
0.0
  0
VERTEX
  5
7C
  8
0
 10
113.4495944134889
 20
-31.92906830079038
 30
0.0
  0
VERTEX
  5
7D
  8
0
 10
113.1497838341522
 20
-32.01825283241849
 30
0.0
  0
VERTEX
  5
7E
  8
0
 10
112.8469306932982
 20
-32.10020548599999
 30
0.0
  0
VERTEX
  5
7F
  8
0
 10
112.5411347365474
 20
-32.17482651592982
 30
0.0
  0
VERTEX
  5
80
  8
0
 10
112.2324957095202
 20
-32.24201617660289
 30
0.0
  0
VERTEX
  5
81
  8
0
 10
111.9211133578372
 20
-32.30167472241413
 30
0.0
  0
VERTEX
  5
82
  8
0
 10
111.6070874271186
 20
-32.35370240775847
 30
0.0
  0
VERTEX
  5
83
  8
0
 10
111.2905176629852
 20
-32.39799948703083
 30
0.0
  0
VERTEX
  5
84
  8
0
 10
110.9715038110572
 20
-32.43446621462616
 30
0.0
  0
VERTEX
  5
85
  8
0
 10
110.6501456169552
 20
-32.46300284493936
 30
0.0
  0
VERTEX
  5
86
  8
0
 10
110.3265428262997
 20
-32.48350963236537
 30
0.0
  0
VERTEX
  5
87
  8
0
 10
110.0007951847111
 20
-32.49588683129911
 30
0.0
  0
VERTEX
  5
88
  8
0
 10
109.6730024378098
 20
-32.50003469613551
 30
0.0
  0
VERTEX
  5
89
  8
0
 10
97.77301757064362
 20
-32.50003285938095
 30
0.0
  0
VERTEX
  5
8A
  8
0
 10
97.77301757064362
 20
-27.16603285938095
 30
0.0
  0
VERTEX
  5
8B
  8
0
 10
85.07301757064357
 20
-27.16603285938095
 30
0.0
  0
VERTEX
  5
8C
  8
0
 10
85.07301757064357
 20
-32.50003285938095
 30
0.0
  0
VERTEX
  5
8D
  8
0
 10
59.67301514702206
 20
-32.50000340809345
 30
0.0
  0
VERTEX
  5
8E
  8
0
 10
59.67301514702206
 20
-27.16600340809356
 30
0.0
  0
VERTEX
  5
8F
  8
0
 10
46.97301514702207
 20
-27.16600340809356
 30
0.0
  0
VERTEX
  5
90
  8
0
 10
46.97301514702207
 20
-32.50000340809345
 30
0.0
  0
VERTEX
  5
91
  8
0
 10
35.07302156280053
 20
-32.5000194915948
 30
0.0
  0
VERTEX
  5
92
  8
0
 10
34.74522853517806
 20
-32.49587201245511
 30
0.0
  0
VERTEX
  5
93
  8
0
 10
34.41948060827994
 20
-32.48349518348356
 30
0.0
  0
VERTEX
  5
94
  8
0
 10
34.09587752801495
 20
-32.4629887504541
 30
0.0
  0
VERTEX
  5
95
  8
0
 10
33.77451904029184
 20
-32.4344524591407
 30
0.0
  0
VERTEX
  5
96
  8
0
 10
33.45550489101937
 20
-32.3979860553173
 30
0.0
  0
VERTEX
  5
97
  8
0
 10
33.13893482610634
 20
-32.35368928475786
 30
0.0
  0
VERTEX
  5
98
  8
0
 10
32.82490859146147
 20
-32.30166189323633
 30
0.0
  0
VERTEX
  5
99
  8
0
 10
32.51352593299356
 20
-32.24200362652665
 30
0.0
  0
VERTEX
  5
9A
  8
0
 10
32.20488659661136
 20
-32.1748142304028
 30
0.0
  0
VERTEX
  5
9B
  8
0
 10
31.89909032822363
 20
-32.10019345063871
 30
0.0
  0
VERTEX
  5
9C
  8
0
 10
31.59623687373914
 20
-32.01824103300834
 30
0.0
  0
VERTEX
  5
9D
  8
0
 10
31.29642597906666
 20
-31.92905672328565
 30
0.0
  0
VERTEX
  5
9E
  8
0
 10
30.99975739011495
 20
-31.83274026724458
 30
0.0
  0
VERTEX
  5
9F
  8
0
 10
30.70633085279277
 20
-31.72939141065909
 30
0.0
  0
VERTEX
  5
A0
  8
0
 10
30.4162461130089
 20
-31.61910989930313
 30
0.0
  0
VERTEX
  5
A1
  8
0
 10
30.12960291667209
 20
-31.50199547895066
 30
0.0
  0
VERTEX
  5
A2
  8
0
 10
29.84650100969111
 20
-31.37814789537562
 30
0.0
  0
VERTEX
  5
A3
  8
0
 10
29.56704013797473
 20
-31.24766689435197
 30
0.0
  0
VERTEX
  5
A4
  8
0
 10
29.0194404839708
 20
-30.96720362305467
 30
0.0
  0
VERTEX
  5
A5
  8
0
 10
28.48760192193043
 20
-30.66140363125036
 30
0.0
  0
VERTEX
  5
A6
  8
0
 10
27.97232241912375
 20
-30.33106488513067
 30
0.0
  0
VERTEX
  5
A7
  8
0
 10
27.47439994282086
 20
-29.97698535088723
 30
0.0
  0
VERTEX
  5
A8
  8
0
 10
26.99463246029189
 20
-29.59996299471164
 30
0.0
  0
VERTEX
  5
A9
  8
0
 10
26.53381793880696
 20
-29.20079578279555
 30
0.0
  0
VERTEX
  5
AA
  8
0
 10
26.09275434563618
 20
-28.78028168133057
 30
0.0
  0
VERTEX
  5
AB
  8
0
 10
25.67223964804968
 20
-28.33921865650833
 30
0.0
  0
VERTEX
  5
AC
  8
0
 10
25.27307181331756
 20
-27.87840467452044
 30
0.0
  0
VERTEX
  5
AD
  8
0
 10
24.89604880870997
 20
-27.39863770155853
 30
0.0
  0
VERTEX
  5
AE
  8
0
 10
24.541968601497
 20
-26.90071570381422
 30
0.0
  0
VERTEX
  5
AF
  8
0
 10
24.21162915894879
 20
-26.38543664747914
 30
0.0
  0
VERTEX
  5
B0
  8
0
 10
23.90582844833545
 20
-25.85359849874491
 30
0.0
  0
VERTEX
  5
B1
  8
0
 10
23.6253644369271
 20
-25.30599922380315
 30
0.0
  0
VERTEX
  5
B2
  8
0
 10
23.49488305819671
 20
-25.02653852843933
 30
0.0
  0
VERTEX
  5
B3
  8
0
 10
23.37103509199386
 20
-24.74343678884549
 30
0.0
  0
VERTEX
  5
B4
  8
0
 10
23.25392028422732
 20
-24.45679375079557
 30
0.0
  0
VERTEX
  5
B5
  8
0
 10
23.14363838080585
 20
-24.16670916006354
 30
0.0
  0
VERTEX
  5
B6
  8
0
 10
23.04028912763822
 20
-23.87328276242334
 30
0.0
  0
VERTEX
  5
B7
  8
0
 10
22.94397227063319
 20
-23.57661430364893
 30
0.0
  0
VERTEX
  5
B8
  8
0
 10
22.85478755569952
 20
-23.27680352951427
 30
0.0
  0
VERTEX
  5
B9
  8
0
 10
22.77283472874599
 20
-22.9739501857933
 30
0.0
  0
VERTEX
  5
BA
  8
0
 10
22.69821353568135
 20
-22.66815401825997
 30
0.0
  0
VERTEX
  5
BB
  8
0
 10
22.63102372241438
 20
-22.35951477268824
 30
0.0
  0
VERTEX
  5
BC
  8
0
 10
22.57136503485383
 20
-22.04813219485206
 30
0.0
  0
VERTEX
  5
BD
  8
0
 10
22.51933721890848
 20
-21.73410603052539
 30
0.0
  0
VERTEX
  5
BE
  8
0
 10
22.47504002048708
 20
-21.41753602548218
 30
0.0
  0
VERTEX
  5
BF
  8
0
 10
22.4385731854984
 20
-21.09852192549638
 30
0.0
  0
VERTEX
  5
C0
  8
0
 10
22.41003645985121
 20
-20.77716347634195
 30
0.0
  0
VERTEX
  5
C1
  8
0
 10
22.38952958945426
 20
-20.45356042379283
 30
0.0
  0
VERTEX
  5
C2
  8
0
 10
22.37715232021634
 20
-20.12781251362298
 30
0.0
  0
VERTEX
  5
C3
  8
0
 10
22.37300439804619
 20
-19.80001949160635
 30
0.0
  0
VERTEX
  5
C4
  8
0
 10
22.37300439804619
 20
19.80000018014761
 30
0.0
  0
VERTEX
  5
C5
  8
0
 10
22.37715229628117
 20
20.12779222277344
 30
0.0
  0
VERTEX
  5
C6
  8
0
 10
22.38952949439623
 20
20.45353917224831
 30
0.0
  0
VERTEX
  5
C7
  8
0
 10
22.41003624750652
 20
20.77714128339804
 30
0.0
  0
VERTEX
  5
C8
  8
0
 10
22.43857281072721
 20
21.09849881104851
 30
0.0
  0
VERTEX
  5
C9
  8
0
 10
22.47503943917346
 20
21.41751201002555
 30
0.0
  0
VERTEX
  5
CA
  8
0
 10
22.51933638796043
 20
21.73408113515502
 30
0.0
  0
VERTEX
  5
CB
  8
0
 10
22.5713639122033
 20
22.04810644126277
 30
0.0
  0
VERTEX
  5
CC
  8
0
 10
22.63102226701721
 20
22.35948818317465
 30
0.0
  0
VERTEX
  5
CD
  8
0
 10
22.69821170751734
 20
22.66812661571652
 30
0.0
  0
VERTEX
  5
CE
  8
0
 10
22.77283248881885
 20
22.97392199371421
 30
0.0
  0
VERTEX
  5
CF
  8
0
 10
22.8547848660369
 20
23.2767745719936
 30
0.0
  0
VERTEX
  5
D0
  8
0
 10
22.94396909428665
 20
23.57658460538052
 30
0.0
  0
VERTEX
  5
D1
  8
0
 10
23.04028542868327
 20
23.87325234870082
 30
0.0
  0
VERTEX
  5
D2
  8
0
 10
23.14363412434192
 20
24.16667805678036
 30
0.0
  0
VERTEX
  5
D3
  8
0
 10
23.25391543637776
 20
24.456761984445
 30
0.0
  0
VERTEX
  5
D4
  8
0
 10
23.37102961990597
 20
24.74340438652057
 30
0.0
  0
VERTEX
  5
D5
  8
0
 10
23.49487693004169
 20
25.02650551783293
 30
0.0
  0
VERTEX
  5
D6
  8
0
 10
23.6253576219001
 20
25.30596563320793
 30
0.0
  0
VERTEX
  5
D7
  8
0
 10
23.90582017124562
 20
25.85356383544927
 30
0.0
  0
VERTEX
  5
D8
  8
0
 10
24.21161930886385
 20
26.38540103185139
 30
0.0
  0
VERTEX
  5
D9
  8
0
 10
24.54195707567607
 20
26.9006792610211
 30
0.0
  0
VERTEX
  5
DA
  8
0
 10
24.8960355126036
 20
27.3986005615652
 30
0.0
  0
VERTEX
  5
DB
  8
0
 10
25.27305666056775
 20
27.87836697209052
 30
0.0
  0
VERTEX
  5
DC
  8
0
 10
25.67222256048981
 20
28.33918053120384
 30
0.0
  0
VERTEX
  5
DD
  8
0
 10
26.09273525329111
 20
28.78024327751199
 30
0.0
  0
VERTEX
  5
DE
  8
0
 10
26.53379677989294
 20
29.20075724962178
 30
0.0
  0
VERTEX
  5
DF
  8
0
 10
26.99460918121662
 20
29.59992448614
 30
0.0
  0
VERTEX
  5
E0
  8
0
 10
27.47437449818344
 20
29.97694702567347
 30
0.0
  0
VERTEX
  5
E1
  8
0
 10
27.97229477171471
 20
30.33102690682901
 30
0.0
  0
VERTEX
  5
E2
  8
0
 10
28.48757204273175
 20
30.66136616821342
 30
0.0
  0
VERTEX
  5
E3
  8
0
 10
29.01940835215585
 20
30.96716684843349
 30
0.0
  0
VERTEX
  5
E4
  8
0
 10
29.56700574090832
 20
31.24763098609606
 30
0.0
  0
VERTEX
  5
E5
  8
0
 10
29.84646547782061
 20
31.3781124885329
 30
0.0
  0
VERTEX
  5
E6
  8
0
 10
30.12956624991048
 20
31.50196061980791
 30
0.0
  0
VERTEX
  5
E7
  8
0
 10
30.41620831229309
 20
31.61907563474695
 30
0.0
  0
VERTEX
  5
E8
  8
0
 10
30.70629192008361
 20
31.72935778817587
 30
0.0
  0
VERTEX
  5
E9
  8
0
 10
30.99971732839721
 20
31.83270733492051
 30
0.0
  0
VERTEX
  5
EA
  8
0
 10
31.29638479234904
 20
31.92902452980673
 30
0.0
  0
VERTEX
  5
EB
  8
0
 10
31.59619456705428
 20
32.01820962766038
 30
0.0
  0
VERTEX
  5
EC
  8
0
 10
31.89904690762807
 20
32.10016288330732
 30
0.0
  0
VERTEX
  5
ED
  8
0
 10
32.20484206918559
 20
32.17478455157338
 30
0.0
  0
VERTEX
  5
EE
  8
0
 10
32.51348030684201
 20
32.24197488728443
 30
0.0
  0
VERTEX
  5
EF
  8
0
 10
32.82486187571247
 20
32.30163414526632
 30
0.0
  0
VERTEX
  5
F0
  8
0
 10
33.13888703091215
 20
32.35366258034488
 30
0.0
  0
VERTEX
  5
F1
  8
0
 10
33.45545602755622
 20
32.39796044734599
 30
0.0
  0
VERTEX
  5
F2
  8
0
 10
33.77446912075982
 20
32.43442800109548
 30
0.0
  0
VERTEX
  5
F3
  8
0
 10
34.09582656563812
 20
32.46296549641921
 30
0.0
  0
VERTEX
  5
F4
  8
0
 10
34.4194286173063
 20
32.48347318814302
 30
0.0
  0
VERTEX
  5
F5
  8
0
 10
34.74517553087951
 20
32.49585133109278
 30
0.0
  0
VERTEX
  5
F6
  8
0
 10
35.07296756147292
 20
32.50000018009433
 30
0.0
  0
VERTEX
  5
F7
  8
0
 10
46.97292679313244
 20
32.50003469613551
 30
0.0
  0
VERTEX
  5
F8
  8
0
 10
46.97292679313244
 20
27.16603469613557
 30
0.0
  0
VERTEX
  5
F9
  8
0
 10
59.67292679313243
 20
27.16603469613557
 30
0.0
  0
VERTEX
  5
FA
  8
0
 10
59.67292679313243
 20
32.50003469613551
 30
0.0
  0
VERTEX
  5
FB
  8
0
 10
85.07301266209527
 20
32.50003469613551
 30
0.0
  0
VERTEX
  5
FC
  8
0
 10
85.07301266209527
 20
27.16603469613557
 30
0.0
  0
VERTEX
  5
FD
  8
0
 10
97.77301266209531
 20
27.16603469613557
 30
0.0
  0
VERTEX
  5
FE
  8
0
 10
97.77301266209531
 20
32.50003469613551
 30
0.0
  0
VERTEX
  5
FF
  8
0
 10
109.6730412345158
 20
32.50000017999042
 30
0.0
  0
VERTEX
  5
100
  8
0
 10
110.0008332651112
 20
32.49585133099151
 30
0.0
  0
VERTEX
  5
101
  8
0
 10
110.3265801786863
 20
32.48347318804427
 30
0.0
  0
VERTEX
  5
102
  8
0
 10
110.6501822303565
 20
32.46296549632287
 30
0.0
  0
VERTEX
  5
103
  8
0
 10
110.9715396752368
 20
32.43442800100146
 30
0.0
  0
VERTEX
  5
104
  8
0
 10
111.2905527684424
 20
32.39796044725419
 30
0.0
  0
VERTEX
  5
105
  8
0
 10
111.6071217650885
 20
32.3536625802552
 30
0.0
  0
VERTEX
  5
106
  8
0
 10
111.9211469202903
 20
32.30163414517865
 30
0.0
  0
VERTEX
  5
107
  8
0
 10
112.2325284891628
 20
32.24197488719867
 30
0.0
  0
VERTEX
  5
108
  8
0
 10
112.5411667268213
 20
32.17478455148944
 30
0.0
  0
VERTEX
  5
109
  8
0
 10
112.846961888381
 20
32.10016288322508
 30
0.0
  0
VERTEX
  5
10A
  8
0
 10
113.1498142289569
 20
32.01820962757977
 30
0.0
  0
VERTEX
  5
10B
  8
0
 10
113.4496240036643
 20
31.92902452972763
 30
0.0
  0
VERTEX
  5
10C
  8
0
 10
113.7462914676183
 20
31.83270733484284
 30
0.0
  0
VERTEX
  5
10D
  8
0
 10
114.039716875934
 20
31.72935778809952
 30
0.0
  0
VERTEX
  5
10E
  8
0
 10
114.3298004837267
 20
31.61907563467184
 30
0.0
  0
VERTEX
  5
10F
  8
0
 10
114.6164425461115
 20
31.50196061973395
 30
0.0
  0
VERTEX
  5
110
  8
0
 10
114.8995433182036
 20
31.37811248845999
 30
0.0
  0
VERTEX
  5
111
  8
0
 10
115.179003055118
 20
31.24763098602412
 30
0.0
  0
VERTEX
  5
112
  8
0
 10
115.7266004438749
 20
30.96716684836323
 30
0.0
  0
VERTEX
  5
113
  8
0
 10
116.2584367533033
 20
30.66136616814449
 30
0.0
  0
VERTEX
  5
114
  8
0
 10
116.7737140243246
 20
30.33102690676108
 30
0.0
  0
VERTEX
  5
115
  8
0
 10
117.2716342978601
 20
29.97694702560622
 30
0.0
  0
VERTEX
  5
116
  8
0
 10
117.7513996148311
 20
29.59992448607311
 30
0.0
  0
VERTEX
  5
117
  8
0
 10
118.2122120161588
 20
29.20075724955494
 30
0.0
  0
VERTEX
  5
118
  8
0
 10
118.6532735427647
 20
28.78024327744492
 30
0.0
  0
VERTEX
  5
119
  8
0
 10
119.0737862355698
 20
28.33918053113624
 30
0.0
  0
VERTEX
  5
11A
  8
0
 10
119.4729521354956
 20
27.87836697202211
 30
0.0
  0
VERTEX
  5
11B
  8
0
 10
119.8499732834633
 20
27.39860056149573
 30
0.0
  0
VERTEX
  5
11C
  8
0
 10
120.2040517203942
 20
26.90067926095029
 30
0.0
  0
VERTEX
  5
11D
  8
0
 10
120.5343894872097
 20
26.38540103177901
 30
0.0
  0
VERTEX
  5
11E
  8
0
 10
120.8401886248309
 20
25.85356383537507
 30
0.0
  0
VERTEX
  5
11F
  8
0
 10
121.1206511741792
 20
25.30596563313168
 30
0.0
  0
VERTEX
  5
120
  8
0
 10
121.251131866039
 20
25.02650551775557
 30
0.0
  0
VERTEX
  5
121
  8
0
 10
121.374979176176
 20
24.74340438644204
 30
0.0
  0
VERTEX
  5
122
  8
0
 10
121.4920933597054
 20
24.45676198436526
 30
0.0
  0
VERTEX
  5
123
  8
0
 10
121.6023746717423
 20
24.16667805669936
 30
0.0
  0
VERTEX
  5
124
  8
0
 10
121.7057233674021
 20
23.8732523486185
 30
0.0
  0
VERTEX
  5
125
  8
0
 10
121.8020397017997
 20
23.57658460529682
 30
0.0
  0
VERTEX
  5
126
  8
0
 10
121.8912239300504
 20
23.27677457190849
 30
0.0
  0
VERTEX
  5
127
  8
0
 10
121.9731763072693
 20
22.97392199362764
 30
0.0
  0
VERTEX
  5
128
  8
0
 10
122.0477970885716
 20
22.66812661562843
 30
0.0
  0
VERTEX
  5
129
  8
0
 10
122.1149865290724
 20
22.35948818308501
 30
0.0
  0
VERTEX
  5
12A
  8
0
 10
122.174644883887
 20
22.04810644117153
 30
0.0
  0
VERTEX
  5
12B
  8
0
 10
122.2266724081304
 20
21.73408113506214
 30
0.0
  0
VERTEX
  5
12C
  8
0
 10
122.2709693569179
 20
21.41751200993098
 30
0.0
  0
VERTEX
  5
12D
  8
0
 10
122.3074359853645
 20
21.09849881095221
 30
0.0
  0
VERTEX
  5
12E
  8
0
 10
122.3359725485855
 20
20.77714128329999
 30
0.0
  0
VERTEX
  5
12F
  8
0
 10
122.356479301696
 20
20.45353917214845
 30
0.0
  0
VERTEX
  5
130
  8
0
 10
122.3688564998112
 20
20.12779222267175
 30
0.0
  0
SEQEND
  5
131
  8
0
  0
POLYLINE
  5
42
  8
0
 66
     1
 10
0.0
 20
0.0
 30
0.0
 70
     1
  0
VERTEX
  5
132
  8
0
 10
-20.52256797033988
 20
-28.90792650930405
 30
0.0
  0
VERTEX
  5
133
  8
0
 10
-19.96549030625962
 20
4.34221350010489
 30
0.0
  0
VERTEX
  5
134
  8
0
 10
-16.01417761298924
 20
8.293526193375271
 30
0.0
  0
VERTEX
  5
135
  8
0
 10
-6.674711247077397
 20
-1.045940172536746
 30
0.0
  0
VERTEX
  5
136
  8
0
 10
-10.62602394034784
 20
-4.997252865806956
 30
0.0
  0
VERTEX
  5
137
  8
0
 10
6.934333996018211
 20
-22.55761080217303
 30
0.0
  0
VERTEX
  5
138
  8
0
 10
10.88564668928856
 20
-18.60629810890254
 30
0.0
  0
VERTEX
  5
139
  8
0
 10
20.22511305520041
 20
-27.94576447481455
 30
0.0
  0
VERTEX
  5
13A
  8
0
 10
16.27380036192994
 20
-31.89707716808505
 30
0.0
  0
VERTEX
  5
13B
  8
0
 10
-16.93047126031598
 20
-32.50003469613551
 30
0.0
  0
VERTEX
  5
13C
  8
0
 10
-9.825102574262843
 20
-25.39466601008246
 30
0.0
  0
VERTEX
  5
13D
  8
0
 10
-13.41720502269052
 20
-21.80256356165478
 30
0.0
  0
SEQEND
  5
13E
  8
0
  0
POLYLINE
  5
43
  8
0
 66
     1
 10
0.0
 20
0.0
 30
0.0
 70
     1
  0
VERTEX
  5
13F
  8
0
 10
16.4445739055887
 20
21.73372808620479
 30
0.0
  0
VERTEX
  5
140
  8
0
 10
-16.80556610382021
 20
21.17665042212457
 30
0.0
  0
VERTEX
  5
141
  8
0
 10
-20.75687879709042
 20
17.22533772885419
 30
0.0
  0
VERTEX
  5
142
  8
0
 10
-11.41741243117858
 20
7.885871362942339
 30
0.0
  0
VERTEX
  5
143
  8
0
 10
-7.466099737908195
 20
11.83718405621278
 30
0.0
  0
VERTEX
  5
144
  8
0
 10
10.09425819845785
 20
-5.72317388015324
 30
0.0
  0
VERTEX
  5
145
  8
0
 10
6.142945505187214
 20
-9.674486573423735
 30
0.0
  0
VERTEX
  5
146
  8
0
 10
15.48241187109926
 20
-19.01395293933547
 30
0.0
  0
VERTEX
  5
147
  8
0
 10
19.4337245643697
 20
-15.06264024606509
 30
0.0
  0
VERTEX
  5
148
  8
0
 10
20.03668209242019
 20
18.1416313761809
 30
0.0
  0
VERTEX
  5
149
  8
0
 10
12.93131340636711
 20
11.03626269012778
 30
0.0
  0
VERTEX
  5
14A
  8
0
 10
9.339210957939457
 20
14.62836513855547
 30
0.0
  0
SEQEND
  5
14B
  8
0
  0
POLYLINE
  5
44
  8
0
 66
     1
 10
0.0
 20
0.0
 30
0.0
 70
     1
  0
VERTEX
  5
14C
  8
0
 10
-114.3031430023888
 20
-0.000014327075462
 30
0.0
  0
VERTEX
  5
14D
  8
0
 10
-114.293176564803
 20
-0.1973865132875095
 30
0.0
  0
VERTEX
  5
14E
  8
0
 10
-114.2639241354016
 20
-0.3890572581648963
 30
0.0
  0
VERTEX
  5
14F
  8
0
 10
-114.2163560392191
 20
-0.5740562366732771
 30
0.0
  0
VERTEX
  5
150
  8
0
 10
-114.1514426012898
 20
-0.7514131237783062
 30
0.0
  0
VERTEX
  5
151
  8
0
 10
-114.070154146648
 20
-0.9201575944456382
 30
0.0
  0
VERTEX
  5
152
  8
0
 10
-113.9734610003281
 20
-1.079319323640928
 30
0.0
  0
VERTEX
  5
153
  8
0
 10
-113.8623334873645
 20
-1.227927986329829
 30
0.0
  0
VERTEX
  5
154
  8
0
 10
-113.7377419327914
 20
-1.365013257477997
 30
0.0
  0
VERTEX
  5
155
  8
0
 10
-113.6006566616432
 20
-1.489604812051087
 30
0.0
  0
VERTEX
  5
156
  8
0
 10
-113.4520479989543
 20
-1.600732325014751
 30
0.0
  0
VERTEX
  5
157
  8
0
 10
-113.292886269759
 20
-1.697425471334646
 30
0.0
  0
VERTEX
  5
158
  8
0
 10
-113.1241417990917
 20
-1.778713925976426
 30
0.0
  0
VERTEX
  5
159
  8
0
 10
-112.9467849119867
 20
-1.843627363905745
 30
0.0
  0
VERTEX
  5
15A
  8
0
 10
-112.7617859334783
 20
-1.891195460088257
 30
0.0
  0
VERTEX
  5
15B
  8
0
 10
-112.5701151886009
 20
-1.920447889489618
 30
0.0
  0
VERTEX
  5
15C
  8
0
 10
-112.3727430023888
 20
-1.930414327075482
 30
0.0
  0
VERTEX
  5
15D
  8
0
 10
-112.1753708161768
 20
-1.920447889489618
 30
0.0
  0
VERTEX
  5
15E
  8
0
 10
-111.9837000712994
 20
-1.891195460088257
 30
0.0
  0
VERTEX
  5
15F
  8
0
 10
-111.798701092791
 20
-1.843627363905745
 30
0.0
  0
VERTEX
  5
160
  8
0
 10
-111.621344205686
 20
-1.778713925976426
 30
0.0
  0
VERTEX
  5
161
  8
0
 10
-111.4525997350187
 20
-1.697425471334646
 30
0.0
  0
VERTEX
  5
162
  8
0
 10
-111.2934380058233
 20
-1.600732325014751
 30
0.0
  0
VERTEX
  5
163
  8
0
 10
-111.1448293431345
 20
-1.489604812051087
 30
0.0
  0
VERTEX
  5
164
  8
0
 10
-111.0077440719863
 20
-1.365013257477997
 30
0.0
  0
VERTEX
  5
165
  8
0
 10
-110.8831525174132
 20
-1.227927986329829
 30
0.0
  0
VERTEX
  5
166
  8
0
 10
-110.7720250044495
 20
-1.079319323640928
 30
0.0
  0
VERTEX
  5
167
  8
0
 10
-110.6753318581296
 20
-0.9201575944456382
 30
0.0
  0
VERTEX
  5
168
  8
0
 10
-110.5940434034879
 20
-0.7514131237783062
 30
0.0
  0
VERTEX
  5
169
  8
0
 10
-110.5291299655585
 20
-0.5740562366732771
 30
0.0
  0
VERTEX
  5
16A
  8
0
 10
-110.481561869376
 20
-0.3890572581648963
 30
0.0
  0
VERTEX
  5
16B
  8
0
 10
-110.4523094399747
 20
-0.1973865132875095
 30
0.0
  0
VERTEX
  5
16C
  8
0
 10
-110.4423430023888
 20
-0.000014327075462
 30
0.0
  0
VERTEX
  5
16D
  8
0
 10
-110.4523094399747
 20
0.1973578591365855
 30
0.0
  0
VERTEX
  5
16E
  8
0
 10
-110.481561869376
 20
0.3890286040139723
 30
0.0
  0
VERTEX
  5
16F
  8
0
 10
-110.5291299655585
 20
0.5740275825223531
 30
0.0
  0
VERTEX
  5
170
  8
0
 10
-110.5940434034879
 20
0.7513844696273821
 30
0.0
  0
VERTEX
  5
171
  8
0
 10
-110.6753318581296
 20
0.9201289402947141
 30
0.0
  0
VERTEX
  5
172
  8
0
 10
-110.7720250044495
 20
1.079290669490004
 30
0.0
  0
VERTEX
  5
173
  8
0
 10
-110.8831525174132
 20
1.227899332178905
 30
0.0
  0
VERTEX
  5
174
  8
0
 10
-111.0077440719863
 20
1.364984603327073
 30
0.0
  0
VERTEX
  5
175
  8
0
 10
-111.1448293431345
 20
1.489576157900163
 30
0.0
  0
VERTEX
  5
176
  8
0
 10
-111.2934380058233
 20
1.600703670863827
 30
0.0
  0
VERTEX
  5
177
  8
0
 10
-111.4525997350187
 20
1.697396817183722
 30
0.0
  0
VERTEX
  5
178
  8
0
 10
-111.621344205686
 20
1.778685271825502
 30
0.0
  0
VERTEX
  5
179
  8
0
 10
-111.798701092791
 20
1.843598709754821
 30
0.0
  0
VERTEX
  5
17A
  8
0
 10
-111.9837000712994
 20
1.891166805937333
 30
0.0
  0
VERTEX
  5
17B
  8
0
 10
-112.1753708161768
 20
1.920419235338694
 30
0.0
  0
VERTEX
  5
17C
  8
0
 10
-112.3727430023888
 20
1.930385672924558
 30
0.0
  0
VERTEX
  5
17D
  8
0
 10
-112.5701151886009
 20
1.920419235338694
 30
0.0
  0
VERTEX
  5
17E
  8
0
 10
-112.7617859334783
 20
1.891166805937333
 30
0.0
  0
VERTEX
  5
17F
  8
0
 10
-112.9467849119867
 20
1.843598709754821
 30
0.0
  0
VERTEX
  5
180
  8
0
 10
-113.1241417990917
 20
1.778685271825502
 30
0.0
  0
VERTEX
  5
181
  8
0
 10
-113.292886269759
 20
1.697396817183722
 30
0.0
  0
VERTEX
  5
182
  8
0
 10
-113.4520479989543
 20
1.600703670863827
 30
0.0
  0
VERTEX
  5
183
  8
0
 10
-113.6006566616432
 20
1.489576157900163
 30
0.0
  0
VERTEX
  5
184
  8
0
 10
-113.7377419327914
 20
1.364984603327073
 30
0.0
  0
VERTEX
  5
185
  8
0
 10
-113.8623334873645
 20
1.227899332178905
 30
0.0
  0
VERTEX
  5
186
  8
0
 10
-113.9734610003281
 20
1.079290669490004
 30
0.0
  0
VERTEX
  5
187
  8
0
 10
-114.070154146648
 20
0.9201289402947141
 30
0.0
  0
VERTEX
  5
188
  8
0
 10
-114.1514426012898
 20
0.7513844696273821
 30
0.0
  0
VERTEX
  5
189
  8
0
 10
-114.2163560392191
 20
0.5740275825223531
 30
0.0
  0
VERTEX
  5
18A
  8
0
 10
-114.2639241354016
 20
0.3890286040139723
 30
0.0
  0
VERTEX
  5
18B
  8
0
 10
-114.293176564803
 20
0.1973578591365855
 30
0.0
  0
SEQEND
  5
18C
  8
0
  0
POLYLINE
  5
45
  8
0
 66
     1
 10
0.0
 20
0.0
 30
0.0
 70
     1
  0
VERTEX
  5
18D
  8
0
 10
-76.80313205416172
 20
-21.65068412508182
 30
0.0
  0
VERTEX
  5
18E
  8
0
 10
-76.79316561657586
 20
-21.84805631129387
 30
0.0
  0
VERTEX
  5
18F
  8
0
 10
-76.7639131871745
 20
-22.03972705617127
 30
0.0
  0
VERTEX
  5
190
  8
0
 10
-76.71634509099201
 20
-22.22472603467965
 30
0.0
  0
VERTEX
  5
191
  8
0
 10
-76.65143165306267
 20
-22.40208292178468
 30
0.0
  0
VERTEX
  5
192
  8
0
 10
-76.57014319842091
 20
-22.57082739245202
 30
0.0
  0
VERTEX
  5
193
  8
0
 10
-76.473450052101
 20
-22.72998912164731
 30
0.0
  0
VERTEX
  5
194
  8
0
 10
-76.36232253913732
 20
-22.87859778433621
 30
0.0
  0
VERTEX
  5
195
  8
0
 10
-76.23773098456425
 20
-23.01568305548437
 30
0.0
  0
VERTEX
  5
196
  8
0
 10
-76.10064571341607
 20
-23.14027461005745
 30
0.0
  0
VERTEX
  5
197
  8
0
 10
-75.95203705072718
 20
-23.25140212302112
 30
0.0
  0
VERTEX
  5
198
  8
0
 10
-75.79287532153188
 20
-23.34809526934102
 30
0.0
  0
VERTEX
  5
199
  8
0
 10
-75.62413085086456
 20
-23.42938372398279
 30
0.0
  0
VERTEX
  5
19A
  8
0
 10
-75.44677396375954
 20
-23.49429716191211
 30
0.0
  0
VERTEX
  5
19B
  8
0
 10
-75.26177498525115
 20
-23.54186525809462
 30
0.0
  0
VERTEX
  5
19C
  8
0
 10
-75.07010424037378
 20
-23.57111768749598
 30
0.0
  0
VERTEX
  5
19D
  8
0
 10
-74.8727320541617
 20
-23.58108412508184
 30
0.0
  0
VERTEX
  5
19E
  8
0
 10
-74.67535986794965
 20
-23.57111768749598
 30
0.0
  0
VERTEX
  5
19F
  8
0
 10
-74.48368912307227
 20
-23.54186525809462
 30
0.0
  0
VERTEX
  5
1A0
  8
0
 10
-74.29869014456389
 20
-23.49429716191211
 30
0.0
  0
VERTEX
  5
1A1
  8
0
 10
-74.12133325745886
 20
-23.42938372398279
 30
0.0
  0
VERTEX
  5
1A2
  8
0
 10
-73.95258878679152
 20
-23.34809526934102
 30
0.0
  0
VERTEX
  5
1A3
  8
0
 10
-73.79342705759623
 20
-23.25140212302112
 30
0.0
  0
VERTEX
  5
1A4
  8
0
 10
-73.64481839490733
 20
-23.14027461005745
 30
0.0
  0
VERTEX
  5
1A5
  8
0
 10
-73.50773312375917
 20
-23.01568305548437
 30
0.0
  0
VERTEX
  5
1A6
  8
0
 10
-73.38314156918608
 20
-22.87859778433621
 30
0.0
  0
VERTEX
  5
1A7
  8
0
 10
-73.27201405622242
 20
-22.72998912164731
 30
0.0
  0
VERTEX
  5
1A8
  8
0
 10
-73.17532090990251
 20
-22.57082739245202
 30
0.0
  0
VERTEX
  5
1A9
  8
0
 10
-73.09403245526073
 20
-22.40208292178468
 30
0.0
  0
VERTEX
  5
1AA
  8
0
 10
-73.0291190173314
 20
-22.22472603467965
 30
0.0
  0
VERTEX
  5
1AB
  8
0
 10
-72.98155092114891
 20
-22.03972705617127
 30
0.0
  0
VERTEX
  5
1AC
  8
0
 10
-72.95229849174754
 20
-21.84805631129387
 30
0.0
  0
VERTEX
  5
1AD
  8
0
 10
-72.94233205416168
 20
-21.65068412508182
 30
0.0
  0
VERTEX
  5
1AE
  8
0
 10
-72.95229849174754
 20
-21.45331193886978
 30
0.0
  0
VERTEX
  5
1AF
  8
0
 10
-72.98155092114891
 20
-21.26164119399239
 30
0.0
  0
VERTEX
  5
1B0
  8
0
 10
-73.0291190173314
 20
-21.07664221548401
 30
0.0
  0
VERTEX
  5
1B1
  8
0
 10
-73.09403245526073
 20
-20.89928532837899
 30
0.0
  0
VERTEX
  5
1B2
  8
0
 10
-73.17532090990251
 20
-20.73054085771165
 30
0.0
  0
VERTEX
  5
1B3
  8
0
 10
-73.27201405622242
 20
-20.57137912851637
 30
0.0
  0
VERTEX
  5
1B4
  8
0
 10
-73.38314156918608
 20
-20.42277046582747
 30
0.0
  0
VERTEX
  5
1B5
  8
0
 10
-73.50773312375917
 20
-20.2856851946793
 30
0.0
  0
VERTEX
  5
1B6
  8
0
 10
-73.64481839490733
 20
-20.16109364010622
 30
0.0
  0
VERTEX
  5
1B7
  8
0
 10
-73.79342705759623
 20
-20.04996612714255
 30
0.0
  0
VERTEX
  5
1B8
  8
0
 10
-73.95258878679152
 20
-19.95327298082266
 30
0.0
  0
VERTEX
  5
1B9
  8
0
 10
-74.12133325745886
 20
-19.87198452618088
 30
0.0
  0
VERTEX
  5
1BA
  8
0
 10
-74.29869014456389
 20
-19.80707108825156
 30
0.0
  0
VERTEX
  5
1BB
  8
0
 10
-74.48368912307227
 20
-19.75950299206905
 30
0.0
  0
VERTEX
  5
1BC
  8
0
 10
-74.67535986794965
 20
-19.7302505626677
 30
0.0
  0
VERTEX
  5
1BD
  8
0
 10
-74.8727320541617
 20
-19.72028412508183
 30
0.0
  0
VERTEX
  5
1BE
  8
0
 10
-75.07010424037378
 20
-19.7302505626677
 30
0.0
  0
VERTEX
  5
1BF
  8
0
 10
-75.26177498525115
 20
-19.75950299206905
 30
0.0
  0
VERTEX
  5
1C0
  8
0
 10
-75.44677396375954
 20
-19.80707108825156
 30
0.0
  0
VERTEX
  5
1C1
  8
0
 10
-75.62413085086456
 20
-19.87198452618088
 30
0.0
  0
VERTEX
  5
1C2
  8
0
 10
-75.79287532153188
 20
-19.95327298082266
 30
0.0
  0
VERTEX
  5
1C3
  8
0
 10
-75.95203705072718
 20
-20.04996612714255
 30
0.0
  0
VERTEX
  5
1C4
  8
0
 10
-76.10064571341607
 20
-20.16109364010622
 30
0.0
  0
VERTEX
  5
1C5
  8
0
 10
-76.23773098456425
 20
-20.2856851946793
 30
0.0
  0
VERTEX
  5
1C6
  8
0
 10
-76.36232253913732
 20
-20.42277046582747
 30
0.0
  0
VERTEX
  5
1C7
  8
0
 10
-76.473450052101
 20
-20.57137912851637
 30
0.0
  0
VERTEX
  5
1C8
  8
0
 10
-76.57014319842091
 20
-20.73054085771165
 30
0.0
  0
VERTEX
  5
1C9
  8
0
 10
-76.65143165306267
 20
-20.89928532837899
 30
0.0
  0
VERTEX
  5
1CA
  8
0
 10
-76.71634509099201
 20
-21.07664221548401
 30
0.0
  0
VERTEX
  5
1CB
  8
0
 10
-76.7639131871745
 20
-21.26164119399239
 30
0.0
  0
VERTEX
  5
1CC
  8
0
 10
-76.79316561657586
 20
-21.45331193886978
 30
0.0
  0
SEQEND
  5
1CD
  8
0
  0
POLYLINE
  5
46
  8
0
 66
     1
 10
0.0
 20
0.0
 30
0.0
 70
     1
  0
VERTEX
  5
1CE
  8
0
 10
-76.8031074742535
 20
21.65061289728072
 30
0.0
  0
VERTEX
  5
1CF
  8
0
 10
-76.79314103666763
 20
21.45324071106867
 30
0.0
  0
VERTEX
  5
1D0
  8
0
 10
-76.76388860726627
 20
21.26156996619128
 30
0.0
  0
VERTEX
  5
1D1
  8
0
 10
-76.71632051108378
 20
21.0765709876829
 30
0.0
  0
VERTEX
  5
1D2
  8
0
 10
-76.65140707315445
 20
20.89921410057786
 30
0.0
  0
VERTEX
  5
1D3
  8
0
 10
-76.57011861851268
 20
20.73046962991053
 30
0.0
  0
VERTEX
  5
1D4
  8
0
 10
-76.47342547219277
 20
20.57130790071524
 30
0.0
  0
VERTEX
  5
1D5
  8
0
 10
-76.3622979592291
 20
20.42269923802634
 30
0.0
  0
VERTEX
  5
1D6
  8
0
 10
-76.23770640465602
 20
20.28561396687818
 30
0.0
  0
VERTEX
  5
1D7
  8
0
 10
-76.10062113350784
 20
20.16102241230509
 30
0.0
  0
VERTEX
  5
1D8
  8
0
 10
-75.95201247081896
 20
20.04989489934143
 30
0.0
  0
VERTEX
  5
1D9
  8
0
 10
-75.79285074162365
 20
19.95320175302153
 30
0.0
  0
VERTEX
  5
1DA
  8
0
 10
-75.62410627095633
 20
19.87191329837976
 30
0.0
  0
VERTEX
  5
1DB
  8
0
 10
-75.44674938385131
 20
19.80699986045044
 30
0.0
  0
VERTEX
  5
1DC
  8
0
 10
-75.26175040534292
 20
19.75943176426793
 30
0.0
  0
VERTEX
  5
1DD
  8
0
 10
-75.07007966046555
 20
19.73017933486657
 30
0.0
  0
VERTEX
  5
1DE
  8
0
 10
-74.87270747425347
 20
19.7202128972807
 30
0.0
  0
VERTEX
  5
1DF
  8
0
 10
-74.67533528804142
 20
19.73017933486657
 30
0.0
  0
VERTEX
  5
1E0
  8
0
 10
-74.48366454316404
 20
19.75943176426793
 30
0.0
  0
VERTEX
  5
1E1
  8
0
 10
-74.29866556465566
 20
19.80699986045044
 30
0.0
  0
VERTEX
  5
1E2
  8
0
 10
-74.12130867755063
 20
19.87191329837976
 30
0.0
  0
VERTEX
  5
1E3
  8
0
 10
-73.9525642068833
 20
19.95320175302153
 30
0.0
  0
VERTEX
  5
1E4
  8
0
 10
-73.793402477688
 20
20.04989489934143
 30
0.0
  0
VERTEX
  5
1E5
  8
0
 10
-73.6447938149991
 20
20.16102241230509
 30
0.0
  0
VERTEX
  5
1E6
  8
0
 10
-73.50770854385094
 20
20.28561396687818
 30
0.0
  0
VERTEX
  5
1E7
  8
0
 10
-73.38311698927785
 20
20.42269923802634
 30
0.0
  0
VERTEX
  5
1E8
  8
0
 10
-73.27198947631419
 20
20.57130790071524
 30
0.0
  0
VERTEX
  5
1E9
  8
0
 10
-73.17529632999428
 20
20.73046962991053
 30
0.0
  0
VERTEX
  5
1EA
  8
0
 10
-73.0940078753525
 20
20.89921410057786
 30
0.0
  0
VERTEX
  5
1EB
  8
0
 10
-73.02909443742317
 20
21.0765709876829
 30
0.0
  0
VERTEX
  5
1EC
  8
0
 10
-72.98152634124068
 20
21.26156996619128
 30
0.0
  0
VERTEX
  5
1ED
  8
0
 10
-72.95227391183931
 20
21.45324071106867
 30
0.0
  0
VERTEX
  5
1EE
  8
0
 10
-72.94230747425345
 20
21.65061289728072
 30
0.0
  0
VERTEX
  5
1EF
  8
0
 10
-72.95227391183931
 20
21.84798508349277
 30
0.0
  0
VERTEX
  5
1F0
  8
0
 10
-72.98152634124068
 20
22.03965582837016
 30
0.0
  0
VERTEX
  5
1F1
  8
0
 10
-73.02909443742317
 20
22.22465480687854
 30
0.0
  0
VERTEX
  5
1F2
  8
0
 10
-73.0940078753525
 20
22.40201169398357
 30
0.0
  0
VERTEX
  5
1F3
  8
0
 10
-73.17529632999428
 20
22.5707561646509
 30
0.0
  0
VERTEX
  5
1F4
  8
0
 10
-73.27198947631419
 20
22.72991789384619
 30
0.0
  0
VERTEX
  5
1F5
  8
0
 10
-73.38311698927785
 20
22.87852655653509
 30
0.0
  0
VERTEX
  5
1F6
  8
0
 10
-73.50770854385094
 20
23.01561182768326
 30
0.0
  0
VERTEX
  5
1F7
  8
0
 10
-73.6447938149991
 20
23.14020338225635
 30
0.0
  0
VERTEX
  5
1F8
  8
0
 10
-73.793402477688
 20
23.25133089522001
 30
0.0
  0
VERTEX
  5
1F9
  8
0
 10
-73.9525642068833
 20
23.34802404153991
 30
0.0
  0
VERTEX
  5
1FA
  8
0
 10
-74.12130867755063
 20
23.42931249618169
 30
0.0
  0
VERTEX
  5
1FB
  8
0
 10
-74.29866556465566
 20
23.49422593411101
 30
0.0
  0
VERTEX
  5
1FC
  8
0
 10
-74.48366454316404
 20
23.54179403029352
 30
0.0
  0
VERTEX
  5
1FD
  8
0
 10
-74.67533528804142
 20
23.57104645969488
 30
0.0
  0
VERTEX
  5
1FE
  8
0
 10
-74.87270747425347
 20
23.58101289728074
 30
0.0
  0
VERTEX
  5
1FF
  8
0
 10
-75.07007966046555
 20
23.57104645969488
 30
0.0
  0
VERTEX
  5
200
  8
0
 10
-75.26175040534292
 20
23.54179403029352
 30
0.0
  0
VERTEX
  5
201
  8
0
 10
-75.44674938385131
 20
23.49422593411101
 30
0.0
  0
VERTEX
  5
202
  8
0
 10
-75.62410627095633
 20
23.42931249618169
 30
0.0
  0
VERTEX
  5
203
  8
0
 10
-75.79285074162365
 20
23.34802404153991
 30
0.0
  0
VERTEX
  5
204
  8
0
 10
-75.95201247081896
 20
23.25133089522001
 30
0.0
  0
VERTEX
  5
205
  8
0
 10
-76.10062113350784
 20
23.14020338225635
 30
0.0
  0
VERTEX
  5
206
  8
0
 10
-76.23770640465602
 20
23.01561182768326
 30
0.0
  0
VERTEX
  5
207
  8
0
 10
-76.3622979592291
 20
22.87852655653509
 30
0.0
  0
VERTEX
  5
208
  8
0
 10
-76.47342547219277
 20
22.72991789384619
 30
0.0
  0
VERTEX
  5
209
  8
0
 10
-76.57011861851268
 20
22.5707561646509
 30
0.0
  0
VERTEX
  5
20A
  8
0
 10
-76.65140707315445
 20
22.40201169398357
 30
0.0
  0
VERTEX
  5
20B
  8
0
 10
-76.71632051108378
 20
22.22465480687854
 30
0.0
  0
VERTEX
  5
20C
  8
0
 10
-76.76388860726627
 20
22.03965582837016
 30
0.0
  0
VERTEX
  5
20D
  8
0
 10
-76.79314103666763
 20
21.84798508349277
 30
0.0
  0
SEQEND
  5
20E
  8
0
  0
POLYLINE
  5
47
  8
0
 66
     1
 10
0.0
 20
0.0
 30
0.0
 70
     1
  0
VERTEX
  5
20F
  8
0
 10
-107.3727275102681
 20
-0.0000285182921971
 30
0.0
  0
VERTEX
  5
210
  8
0
 10
-107.3661953613513
 20
-0.5162375115352452
 30
0.0
  0
VERTEX
  5
211
  8
0
 10
-107.3467036343735
 20
-1.029225865559154
 30
0.0
  0
VERTEX
  5
212
  8
0
 10
-107.3144094089933
 20
-1.538836500705184
 30
0.0
  0
VERTEX
  5
213
  8
0
 10
-107.2694697648696
 20
-2.044912337314594
 30
0.0
  0
VERTEX
  5
214
  8
0
 10
-107.212041781661
 20
-2.547296295728643
 30
0.0
  0
VERTEX
  5
215
  8
0
 10
-107.1422825390263
 20
-3.04583129628859
 30
0.0
  0
VERTEX
  5
216
  8
0
 10
-107.0603491166243
 20
-3.540360259335695
 30
0.0
  0
VERTEX
  5
217
  8
0
 10
-106.9663985941137
 20
-4.030726105211217
 30
0.0
  0
VERTEX
  5
218
  8
0
 10
-106.8605880511531
 20
-4.516771754256416
 30
0.0
  0
VERTEX
  5
219
  8
0
 10
-106.7430745674015
 20
-4.99834012681255
 30
0.0
  0
VERTEX
  5
21A
  8
0
 10
-106.6140152225174
 20
-5.475274143220879
 30
0.0
  0
VERTEX
  5
21B
  8
0
 10
-106.4735670961597
 20
-5.947416723822665
 30
0.0
  0
VERTEX
  5
21C
  8
0
 10
-106.3218872679871
 20
-6.414610788959163
 30
0.0
  0
VERTEX
  5
21D
  8
0
 10
-106.1591328176583
 20
-6.876699258971634
 30
0.0
  0
VERTEX
  5
21E
  8
0
 10
-105.9854608248321
 20
-7.333525054201338
 30
0.0
  0
VERTEX
  5
21F
  8
0
 10
-105.8010283691672
 20
-7.784931094989533
 30
0.0
  0
VERTEX
  5
220
  8
0
 10
-105.6059925303223
 20
-8.23076030167748
 30
0.0
  0
VERTEX
  5
221
  8
0
 10
-105.4005103879563
 20
-8.670855594606437
 30
0.0
  0
VERTEX
  5
222
  8
0
 10
-105.1847390217277
 20
-9.105059894117664
 30
0.0
  0
VERTEX
  5
223
  8
0
 10
-104.9588355112955
 20
-9.53321612055242
 30
0.0
  0
VERTEX
  5
224
  8
0
 10
-104.7229569363182
 20
-9.955167194251965
 30
0.0
  0
VERTEX
  5
225
  8
0
 10
-104.4772603764547
 20
-10.37075603555756
 30
0.0
  0
VERTEX
  5
226
  8
0
 10
-104.2219029113637
 20
-10.77982556481046
 30
0.0
  0
VERTEX
  5
227
  8
0
 10
-103.9570416207039
 20
-11.18221870235192
 30
0.0
  0
VERTEX
  5
228
  8
0
 10
-103.6828335841341
 20
-11.57777836852321
 30
0.0
  0
VERTEX
  5
229
  8
0
 10
-103.399435881313
 20
-11.96634748366559
 30
0.0
  0
VERTEX
  5
22A
  8
0
 10
-103.1070055918994
 20
-12.34776896812031
 30
0.0
  0
VERTEX
  5
22B
  8
0
 10
-102.805699795552
 20
-12.72188574222864
 30
0.0
  0
VERTEX
  5
22C
  8
0
 10
-102.4956755719295
 20
-13.08854072633182
 30
0.0
  0
VERTEX
  5
22D
  8
0
 10
-102.1770900006907
 20
-13.44757684077114
 30
0.0
  0
VERTEX
  5
22E
  8
0
 10
-101.8501001614943
 20
-13.79883700588783
 30
0.0
  0
VERTEX
  5
22F
  8
0
 10
-101.514863133999
 20
-14.14216414202316
 30
0.0
  0
VERTEX
  5
230
  8
0
 10
-101.1715359978637
 20
-14.4774011695184
 30
0.0
  0
VERTEX
  5
231
  8
0
 10
-100.820275832747
 20
-14.80439100871479
 30
0.0
  0
VERTEX
  5
232
  8
0
 10
-100.4612397183077
 20
-15.1229765799536
 30
0.0
  0
VERTEX
  5
233
  8
0
 10
-100.0945847342045
 20
-15.4330008035761
 30
0.0
  0
VERTEX
  5
234
  8
0
 10
-99.7204679600962
 20
-15.73430659992352
 30
0.0
  0
VERTEX
  5
235
  8
0
 10
-99.33904647564148
 20
-16.02673688933715
 30
0.0
  0
VERTEX
  5
236
  8
0
 10
-98.9504773604991
 20
-16.31013459215824
 30
0.0
  0
VERTEX
  5
237
  8
0
 10
-98.5549176943278
 20
-16.58434262872803
 30
0.0
  0
VERTEX
  5
238
  8
0
 10
-98.15252455678633
 20
-16.84920391938781
 30
0.0
  0
VERTEX
  5
239
  8
0
 10
-97.74345502753343
 20
-17.10456138447882
 30
0.0
  0
VERTEX
  5
23A
  8
0
 10
-97.32786618622785
 20
-17.35025794434232
 30
0.0
  0
VERTEX
  5
23B
  8
0
 10
-96.9059151125283
 20
-17.58613651931957
 30
0.0
  0
VERTEX
  5
23C
  8
0
 10
-96.47775888609355
 20
-17.81204002975184
 30
0.0
  0
VERTEX
  5
23D
  8
0
 10
-96.04355458658232
 20
-18.02781139598038
 30
0.0
  0
VERTEX
  5
23E
  8
0
 10
-95.60345929365337
 20
-18.23329353834645
 30
0.0
  0
VERTEX
  5
23F
  8
0
 10
-95.15763008696541
 20
-18.42832937719131
 30
0.0
  0
VERTEX
  5
240
  8
0
 10
-94.70622404617721
 20
-18.61276183285622
 30
0.0
  0
VERTEX
  5
241
  8
0
 10
-94.24939825094751
 20
-18.78643382568244
 30
0.0
  0
VERTEX
  5
242
  8
0
 10
-93.78730978093503
 20
-18.94918827601123
 30
0.0
  0
VERTEX
  5
243
  8
0
 10
-93.32011571579855
 20
-19.10086810418385
 30
0.0
  0
VERTEX
  5
244
  8
0
 10
-92.84797313519675
 20
-19.24131623054155
 30
0.0
  0
VERTEX
  5
245
  8
0
 10
-92.37103911878843
 20
-19.3703755754256
 30
0.0
  0
VERTEX
  5
246
  8
0
 10
-91.8894707462323
 20
-19.48788905917725
 30
0.0
  0
VERTEX
  5
247
  8
0
 10
-91.4034250971871
 20
-19.59369960213777
 30
0.0
  0
VERTEX
  5
248
  8
0
 10
-90.91305925131158
 20
-19.68765012464841
 30
0.0
  0
VERTEX
  5
249
  8
0
 10
-90.41853028826446
 20
-19.76958354705044
 30
0.0
  0
VERTEX
  5
24A
  8
0
 10
-89.91999528770452
 20
-19.83934278968512
 30
0.0
  0
VERTEX
  5
24B
  8
0
 10
-89.41761132929048
 20
-19.89677077289369
 30
0.0
  0
VERTEX
  5
24C
  8
0
 10
-88.91153549268105
 20
-19.94171041701743
 30
0.0
  0
VERTEX
  5
24D
  8
0
 10
-88.40192485753504
 20
-19.97400464239758
 30
0.0
  0
VERTEX
  5
24E
  8
0
 10
-87.88893650351113
 20
-19.99349636937542
 30
0.0
  0
VERTEX
  5
24F
  8
0
 10
-87.37272751026808
 20
-20.0000285182922
 30
0.0
  0
VERTEX
  5
250
  8
0
 10
-86.85651851702504
 20
-19.99349636937542
 30
0.0
  0
VERTEX
  5
251
  8
0
 10
-86.34353016300113
 20
-19.97400464239758
 30
0.0
  0
VERTEX
  5
252
  8
0
 10
-85.83391952785512
 20
-19.94171041701743
 30
0.0
  0
VERTEX
  5
253
  8
0
 10
-85.3278436912457
 20
-19.89677077289369
 30
0.0
  0
VERTEX
  5
254
  8
0
 10
-84.82545973283166
 20
-19.83934278968512
 30
0.0
  0
VERTEX
  5
255
  8
0
 10
-84.3269247322717
 20
-19.76958354705044
 30
0.0
  0
VERTEX
  5
256
  8
0
 10
-83.83239576922459
 20
-19.68765012464841
 30
0.0
  0
VERTEX
  5
257
  8
0
 10
-83.34202992334907
 20
-19.59369960213777
 30
0.0
  0
VERTEX
  5
258
  8
0
 10
-82.85598427430388
 20
-19.48788905917725
 30
0.0
  0
VERTEX
  5
259
  8
0
 10
-82.37441590174775
 20
-19.3703755754256
 30
0.0
  0
VERTEX
  5
25A
  8
0
 10
-81.89748188533943
 20
-19.24131623054155
 30
0.0
  0
VERTEX
  5
25B
  8
0
 10
-81.42533930473763
 20
-19.10086810418385
 30
0.0
  0
VERTEX
  5
25C
  8
0
 10
-80.95814523960115
 20
-18.94918827601123
 30
0.0
  0
VERTEX
  5
25D
  8
0
 10
-80.49605676958868
 20
-18.78643382568244
 30
0.0
  0
VERTEX
  5
25E
  8
0
 10
-80.03923097435896
 20
-18.61276183285622
 30
0.0
  0
VERTEX
  5
25F
  8
0
 10
-79.58782493357077
 20
-18.42832937719131
 30
0.0
  0
VERTEX
  5
260
  8
0
 10
-79.14199572688281
 20
-18.23329353834645
 30
0.0
  0
VERTEX
  5
261
  8
0
 10
-78.70190043395387
 20
-18.02781139598038
 30
0.0
  0
VERTEX
  5
262
  8
0
 10
-78.26769613444263
 20
-17.81204002975184
 30
0.0
  0
VERTEX
  5
263
  8
0
 10
-77.83953990800788
 20
-17.58613651931957
 30
0.0
  0
VERTEX
  5
264
  8
0
 10
-77.41758883430833
 20
-17.35025794434232
 30
0.0
  0
VERTEX
  5
265
  8
0
 10
-77.00199999300276
 20
-17.10456138447882
 30
0.0
  0
VERTEX
  5
266
  8
0
 10
-76.59293046374985
 20
-16.84920391938781
 30
0.0
  0
VERTEX
  5
267
  8
0
 10
-76.19053732620839
 20
-16.58434262872803
 30
0.0
  0
VERTEX
  5
268
  8
0
 10
-75.79497766003709
 20
-16.31013459215824
 30
0.0
  0
VERTEX
  5
269
  8
0
 10
-75.4064085448947
 20
-16.02673688933715
 30
0.0
  0
VERTEX
  5
26A
  8
0
 10
-75.02498706043998
 20
-15.73430659992352
 30
0.0
  0
VERTEX
  5
26B
  8
0
 10
-74.65087028633167
 20
-15.4330008035761
 30
0.0
  0
VERTEX
  5
26C
  8
0
 10
-74.28421530222849
 20
-15.1229765799536
 30
0.0
  0
VERTEX
  5
26D
  8
0
 10
-73.92517918778918
 20
-14.80439100871479
 30
0.0
  0
VERTEX
  5
26E
  8
0
 10
-73.5739190226725
 20
-14.4774011695184
 30
0.0
  0
VERTEX
  5
26F
  8
0
 10
-73.23059188653716
 20
-14.14216414202316
 30
0.0
  0
VERTEX
  5
270
  8
0
 10
-72.8953548590419
 20
-13.79883700588783
 30
0.0
  0
VERTEX
  5
271
  8
0
 10
-72.56836501984552
 20
-13.44757684077114
 30
0.0
  0
VERTEX
  5
272
  8
0
 10
-72.2497794486067
 20
-13.08854072633182
 30
0.0
  0
VERTEX
  5
273
  8
0
 10
-71.93975522498422
 20
-12.72188574222864
 30
0.0
  0
VERTEX
  5
274
  8
0
 10
-71.6384494286368
 20
-12.34776896812031
 30
0.0
  0
VERTEX
  5
275
  8
0
 10
-71.34601913922317
 20
-11.96634748366559
 30
0.0
  0
VERTEX
  5
276
  8
0
 10
-71.06262143640208
 20
-11.57777836852321
 30
0.0
  0
VERTEX
  5
277
  8
0
 10
-70.78841339983228
 20
-11.18221870235192
 30
0.0
  0
VERTEX
  5
278
  8
0
 10
-70.5235521091725
 20
-10.77982556481046
 30
0.0
  0
VERTEX
  5
279
  8
0
 10
-70.26819464408149
 20
-10.37075603555756
 30
0.0
  0
VERTEX
  5
27A
  8
0
 10
-70.022498084218
 20
-9.955167194251965
 30
0.0
  0
VERTEX
  5
27B
  8
0
 10
-69.78661950924075
 20
-9.53321612055242
 30
0.0
  0
VERTEX
  5
27C
  8
0
 10
-69.56071599880848
 20
-9.105059894117664
 30
0.0
  0
VERTEX
  5
27D
  8
0
 10
-69.34494463257994
 20
-8.670855594606437
 30
0.0
  0
VERTEX
  5
27E
  8
0
 10
-69.13946249021387
 20
-8.23076030167748
 30
0.0
  0
VERTEX
  5
27F
  8
0
 10
-68.94442665136901
 20
-7.784931094989533
 30
0.0
  0
VERTEX
  5
280
  8
0
 10
-68.75999419570411
 20
-7.333525054201338
 30
0.0
  0
VERTEX
  5
281
  8
0
 10
-68.58632220287788
 20
-6.876699258971634
 30
0.0
  0
VERTEX
  5
282
  8
0
 10
-68.42356775254908
 20
-6.414610788959163
 30
0.0
  0
VERTEX
  5
283
  8
0
 10
-68.27188792437647
 20
-5.947416723822665
 30
0.0
  0
VERTEX
  5
284
  8
0
 10
-68.13143979801877
 20
-5.475274143220879
 30
0.0
  0
VERTEX
  5
285
  8
0
 10
-68.00238045313473
 20
-4.99834012681255
 30
0.0
  0
VERTEX
  5
286
  8
0
 10
-67.88486696938308
 20
-4.516771754256416
 30
0.0
  0
VERTEX
  5
287
  8
0
 10
-67.77905642642256
 20
-4.030726105211217
 30
0.0
  0
VERTEX
  5
288
  8
0
 10
-67.68510590391192
 20
-3.540360259335695
 30
0.0
  0
VERTEX
  5
289
  8
0
 10
-67.60317248150989
 20
-3.04583129628859
 30
0.0
  0
VERTEX
  5
28A
  8
0
 10
-67.53341323887523
 20
-2.547296295728643
 30
0.0
  0
VERTEX
  5
28B
  8
0
 10
-67.47598525566664
 20
-2.044912337314594
 30
0.0
  0
VERTEX
  5
28C
  8
0
 10
-67.43104561154291
 20
-1.538836500705184
 30
0.0
  0
VERTEX
  5
28D
  8
0
 10
-67.39875138616276
 20
-1.029225865559154
 30
0.0
  0
VERTEX
  5
28E
  8
0
 10
-67.37925965918492
 20
-0.5162375115352452
 30
0.0
  0
VERTEX
  5
28F
  8
0
 10
-67.37272751026813
 20
-0.0000285182921971
 30
0.0
  0
VERTEX
  5
290
  8
0
 10
-67.37925965918492
 20
0.5161804749508497
 30
0.0
  0
VERTEX
  5
291
  8
0
 10
-67.39875138616276
 20
1.029168828974758
 30
0.0
  0
VERTEX
  5
292
  8
0
 10
-67.43104561154291
 20
1.538779464120786
 30
0.0
  0
VERTEX
  5
293
  8
0
 10
-67.47598525566664
 20
2.044855300730195
 30
0.0
  0
VERTEX
  5
294
  8
0
 10
-67.53341323887523
 20
2.547239259144242
 30
0.0
  0
VERTEX
  5
295
  8
0
 10
-67.60317248150989
 20
3.045774259704189
 30
0.0
  0
VERTEX
  5
296
  8
0
 10
-67.68510590391192
 20
3.540303222751293
 30
0.0
  0
VERTEX
  5
297
  8
0
 10
-67.77905642642256
 20
4.030669068626814
 30
0.0
  0
VERTEX
  5
298
  8
0
 10
-67.88486696938308
 20
4.516714717672011
 30
0.0
  0
VERTEX
  5
299
  8
0
 10
-68.00238045313473
 20
4.998283090228146
 30
0.0
  0
VERTEX
  5
29A
  8
0
 10
-68.13143979801877
 20
5.475217106636475
 30
0.0
  0
VERTEX
  5
29B
  8
0
 10
-68.27188792437647
 20
5.947359687238258
 30
0.0
  0
VERTEX
  5
29C
  8
0
 10
-68.42356775254908
 20
6.414553752374754
 30
0.0
  0
VERTEX
  5
29D
  8
0
 10
-68.58632220287788
 20
6.876642222387225
 30
0.0
  0
VERTEX
  5
29E
  8
0
 10
-68.75999419570411
 20
7.333468017616928
 30
0.0
  0
VERTEX
  5
29F
  8
0
 10
-68.94442665136901
 20
7.784874058405123
 30
0.0
  0
VERTEX
  5
2A0
  8
0
 10
-69.13946249021387
 20
8.23070326509307
 30
0.0
  0
VERTEX
  5
2A1
  8
0
 10
-69.34494463257994
 20
8.670798558022025
 30
0.0
  0
VERTEX
  5
2A2
  8
0
 10
-69.56071599880848
 20
9.105002857533252
 30
0.0
  0
VERTEX
  5
2A3
  8
0
 10
-69.78661950924075
 20
9.533159083968009
 30
0.0
  0
VERTEX
  5
2A4
  8
0
 10
-70.022498084218
 20
9.955110157667553
 30
0.0
  0
VERTEX
  5
2A5
  8
0
 10
-70.26819464408149
 20
10.37069899897315
 30
0.0
  0
VERTEX
  5
2A6
  8
0
 10
-70.5235521091725
 20
10.77976852822604
 30
0.0
  0
VERTEX
  5
2A7
  8
0
 10
-70.78841339983228
 20
11.18216166576751
 30
0.0
  0
VERTEX
  5
2A8
  8
0
 10
-71.06262143640208
 20
11.5777213319388
 30
0.0
  0
VERTEX
  5
2A9
  8
0
 10
-71.34601913922316
 20
11.96629044708118
 30
0.0
  0
VERTEX
  5
2AA
  8
0
 10
-71.63844942863678
 20
12.3477119315359
 30
0.0
  0
VERTEX
  5
2AB
  8
0
 10
-71.9397552249842
 20
12.72182870564422
 30
0.0
  0
VERTEX
  5
2AC
  8
0
 10
-72.24977944860669
 20
13.08848368974741
 30
0.0
  0
VERTEX
  5
2AD
  8
0
 10
-72.56836501984549
 20
13.44751980418672
 30
0.0
  0
VERTEX
  5
2AE
  8
0
 10
-72.89535485904187
 20
13.79877996930341
 30
0.0
  0
VERTEX
  5
2AF
  8
0
 10
-73.23059188653713
 20
14.14210710543875
 30
0.0
  0
VERTEX
  5
2B0
  8
0
 10
-73.57391902267247
 20
14.47734413293398
 30
0.0
  0
VERTEX
  5
2B1
  8
0
 10
-73.92517918778915
 20
14.80433397213038
 30
0.0
  0
VERTEX
  5
2B2
  8
0
 10
-74.28421530222846
 20
15.12291954336919
 30
0.0
  0
VERTEX
  5
2B3
  8
0
 10
-74.65087028633164
 20
15.43294376699168
 30
0.0
  0
VERTEX
  5
2B4
  8
0
 10
-75.02498706043995
 20
15.73424956333911
 30
0.0
  0
VERTEX
  5
2B5
  8
0
 10
-75.40640854489467
 20
16.02667985275274
 30
0.0
  0
VERTEX
  5
2B6
  8
0
 10
-75.79497766003706
 20
16.31007755557382
 30
0.0
  0
VERTEX
  5
2B7
  8
0
 10
-76.19053732620836
 20
16.58428559214362
 30
0.0
  0
VERTEX
  5
2B8
  8
0
 10
-76.59293046374982
 20
16.8491468828034
 30
0.0
  0
VERTEX
  5
2B9
  8
0
 10
-77.00199999300273
 20
17.1045043478944
 30
0.0
  0
VERTEX
  5
2BA
  8
0
 10
-77.4175888343083
 20
17.3502009077579
 30
0.0
  0
VERTEX
  5
2BB
  8
0
 10
-77.83953990800785
 20
17.58607948273516
 30
0.0
  0
VERTEX
  5
2BC
  8
0
 10
-78.2676961344426
 20
17.81198299316743
 30
0.0
  0
VERTEX
  5
2BD
  8
0
 10
-78.70190043395384
 20
18.02775435939596
 30
0.0
  0
VERTEX
  5
2BE
  8
0
 10
-79.14199572688278
 20
18.23323650176204
 30
0.0
  0
VERTEX
  5
2BF
  8
0
 10
-79.58782493357074
 20
18.4282723406069
 30
0.0
  0
VERTEX
  5
2C0
  8
0
 10
-80.03923097435893
 20
18.61270479627181
 30
0.0
  0
VERTEX
  5
2C1
  8
0
 10
-80.49605676958865
 20
18.78637678909804
 30
0.0
  0
VERTEX
  5
2C2
  8
0
 10
-80.95814523960112
 20
18.94913123942682
 30
0.0
  0
VERTEX
  5
2C3
  8
0
 10
-81.4253393047376
 20
19.10081106759944
 30
0.0
  0
VERTEX
  5
2C4
  8
0
 10
-81.8974818853394
 20
19.24125919395714
 30
0.0
  0
VERTEX
  5
2C5
  8
0
 10
-82.37441590174772
 20
19.37031853884119
 30
0.0
  0
VERTEX
  5
2C6
  8
0
 10
-82.85598427430385
 20
19.48783202259285
 30
0.0
  0
VERTEX
  5
2C7
  8
0
 10
-83.34202992334905
 20
19.59364256555337
 30
0.0
  0
VERTEX
  5
2C8
  8
0
 10
-83.83239576922456
 20
19.68759308806401
 30
0.0
  0
VERTEX
  5
2C9
  8
0
 10
-84.32692473227168
 20
19.76952651046604
 30
0.0
  0
VERTEX
  5
2CA
  8
0
 10
-84.82545973283163
 20
19.83928575310072
 30
0.0
  0
VERTEX
  5
2CB
  8
0
 10
-85.32784369124568
 20
19.89671373630929
 30
0.0
  0
VERTEX
  5
2CC
  8
0
 10
-85.83391952785509
 20
19.94165338043303
 30
0.0
  0
VERTEX
  5
2CD
  8
0
 10
-86.3435301630011
 20
19.97394760581319
 30
0.0
  0
VERTEX
  5
2CE
  8
0
 10
-86.85651851702501
 20
19.99343933279103
 30
0.0
  0
VERTEX
  5
2CF
  8
0
 10
-87.37272751026805
 20
19.9999714817078
 30
0.0
  0
VERTEX
  5
2D0
  8
0
 10
-87.8889365035111
 20
19.99343933279103
 30
0.0
  0
VERTEX
  5
2D1
  8
0
 10
-88.40192485753501
 20
19.97394760581319
 30
0.0
  0
VERTEX
  5
2D2
  8
0
 10
-88.91153549268103
 20
19.94165338043303
 30
0.0
  0
VERTEX
  5
2D3
  8
0
 10
-89.41761132929045
 20
19.89671373630929
 30
0.0
  0
VERTEX
  5
2D4
  8
0
 10
-89.9199952877045
 20
19.83928575310072
 30
0.0
  0
VERTEX
  5
2D5
  8
0
 10
-90.41853028826444
 20
19.76952651046604
 30
0.0
  0
VERTEX
  5
2D6
  8
0
 10
-90.91305925131155
 20
19.68759308806401
 30
0.0
  0
VERTEX
  5
2D7
  8
0
 10
-91.40342509718707
 20
19.59364256555337
 30
0.0
  0
VERTEX
  5
2D8
  8
0
 10
-91.88947074623228
 20
19.48783202259285
 30
0.0
  0
VERTEX
  5
2D9
  8
0
 10
-92.3710391187884
 20
19.37031853884119
 30
0.0
  0
VERTEX
  5
2DA
  8
0
 10
-92.84797313519672
 20
19.24125919395714
 30
0.0
  0
VERTEX
  5
2DB
  8
0
 10
-93.32011571579852
 20
19.10081106759944
 30
0.0
  0
VERTEX
  5
2DC
  8
0
 10
-93.787309780935
 20
18.94913123942682
 30
0.0
  0
VERTEX
  5
2DD
  8
0
 10
-94.24939825094748
 20
18.78637678909804
 30
0.0
  0
VERTEX
  5
2DE
  8
0
 10
-94.70622404617718
 20
18.61270479627181
 30
0.0
  0
VERTEX
  5
2DF
  8
0
 10
-95.15763008696538
 20
18.4282723406069
 30
0.0
  0
VERTEX
  5
2E0
  8
0
 10
-95.60345929365334
 20
18.23323650176204
 30
0.0
  0
VERTEX
  5
2E1
  8
0
 10
-96.04355458658229
 20
18.02775435939596
 30
0.0
  0
VERTEX
  5
2E2
  8
0
 10
-96.47775888609353
 20
17.81198299316743
 30
0.0
  0
VERTEX
  5
2E3
  8
0
 10
-96.90591511252828
 20
17.58607948273516
 30
0.0
  0
VERTEX
  5
2E4
  8
0
 10
-97.32786618622782
 20
17.3502009077579
 30
0.0
  0
VERTEX
  5
2E5
  8
0
 10
-97.74345502753343
 20
17.1045043478944
 30
0.0
  0
VERTEX
  5
2E6
  8
0
 10
-98.15252455678632
 20
16.8491468828034
 30
0.0
  0
VERTEX
  5
2E7
  8
0
 10
-98.55491769432778
 20
16.58428559214362
 30
0.0
  0
VERTEX
  5
2E8
  8
0
 10
-98.95047736049906
 20
16.31007755557382
 30
0.0
  0
VERTEX
  5
2E9
  8
0
 10
-99.33904647564145
 20
16.02667985275274
 30
0.0
  0
VERTEX
  5
2EA
  8
0
 10
-99.72046796009617
 20
15.73424956333911
 30
0.0
  0
VERTEX
  5
2EB
  8
0
 10
-100.0945847342045
 20
15.43294376699168
 30
0.0
  0
VERTEX
  5
2EC
  8
0
 10
-100.4612397183077
 20
15.12291954336919
 30
0.0
  0
VERTEX
  5
2ED
  8
0
 10
-100.820275832747
 20
14.80433397213038
 30
0.0
  0
VERTEX
  5
2EE
  8
0
 10
-101.1715359978637
 20
14.47734413293398
 30
0.0
  0
VERTEX
  5
2EF
  8
0
 10
-101.514863133999
 20
14.14210710543875
 30
0.0
  0
VERTEX
  5
2F0
  8
0
 10
-101.8501001614943
 20
13.79877996930341
 30
0.0
  0
VERTEX
  5
2F1
  8
0
 10
-102.1770900006907
 20
13.44751980418672
 30
0.0
  0
VERTEX
  5
2F2
  8
0
 10
-102.4956755719295
 20
13.08848368974741
 30
0.0
  0
VERTEX
  5
2F3
  8
0
 10
-102.805699795552
 20
12.72182870564422
 30
0.0
  0
VERTEX
  5
2F4
  8
0
 10
-103.1070055918994
 20
12.3477119315359
 30
0.0
  0
VERTEX
  5
2F5
  8
0
 10
-103.399435881313
 20
11.96629044708118
 30
0.0
  0
VERTEX
  5
2F6
  8
0
 10
-103.6828335841341
 20
11.5777213319388
 30
0.0
  0
VERTEX
  5
2F7
  8
0
 10
-103.9570416207039
 20
11.18216166576751
 30
0.0
  0
VERTEX
  5
2F8
  8
0
 10
-104.2219029113637
 20
10.77976852822604
 30
0.0
  0
VERTEX
  5
2F9
  8
0
 10
-104.4772603764547
 20
10.37069899897315
 30
0.0
  0
VERTEX
  5
2FA
  8
0
 10
-104.7229569363182
 20
9.955110157667553
 30
0.0
  0
VERTEX
  5
2FB
  8
0
 10
-104.9588355112954
 20
9.533159083968009
 30
0.0
  0
VERTEX
  5
2FC
  8
0
 10
-105.1847390217277
 20
9.105002857533252
 30
0.0
  0
VERTEX
  5
2FD
  8
0
 10
-105.4005103879562
 20
8.670798558022025
 30
0.0
  0
VERTEX
  5
2FE
  8
0
 10
-105.6059925303223
 20
8.23070326509307
 30
0.0
  0
VERTEX
  5
2FF
  8
0
 10
-105.8010283691672
 20
7.784874058405123
 30
0.0
  0
VERTEX
  5
300
  8
0
 10
-105.9854608248321
 20
7.333468017616928
 30
0.0
  0
VERTEX
  5
301
  8
0
 10
-106.1591328176583
 20
6.876642222387225
 30
0.0
  0
VERTEX
  5
302
  8
0
 10
-106.3218872679871
 20
6.414553752374754
 30
0.0
  0
VERTEX
  5
303
  8
0
 10
-106.4735670961597
 20
5.947359687238258
 30
0.0
  0
VERTEX
  5
304
  8
0
 10
-106.6140152225174
 20
5.475217106636475
 30
0.0
  0
VERTEX
  5
305
  8
0
 10
-106.7430745674015
 20
4.998283090228146
 30
0.0
  0
VERTEX
  5
306
  8
0
 10
-106.8605880511531
 20
4.516714717672011
 30
0.0
  0
VERTEX
  5
307
  8
0
 10
-106.9663985941136
 20
4.030669068626814
 30
0.0
  0
VERTEX
  5
308
  8
0
 10
-107.0603491166243
 20
3.540303222751293
 30
0.0
  0
VERTEX
  5
309
  8
0
 10
-107.1422825390263
 20
3.045774259704189
 30
0.0
  0
VERTEX
  5
30A
  8
0
 10
-107.212041781661
 20
2.547239259144242
 30
0.0
  0
VERTEX
  5
30B
  8
0
 10
-107.2694697648696
 20
2.044855300730195
 30
0.0
  0
VERTEX
  5
30C
  8
0
 10
-107.3144094089933
 20
1.538779464120786
 30
0.0
  0
VERTEX
  5
30D
  8
0
 10
-107.3467036343735
 20
1.029168828974758
 30
0.0
  0
VERTEX
  5
30E
  8
0
 10
-107.3661953613513
 20
0.5161804749508497
 30
0.0
  0
SEQEND
  5
30F
  8
0
  0
POLYLINE
  5
48
  8
0
 66
     1
 10
0.0
 20
0.0
 30
0.0
 70
     1
  0
VERTEX
  5
310
  8
0
 10
-122.3730043980463
 20
-19.80003469613544
 30
0.0
  0
VERTEX
  5
311
  8
0
 10
-122.3730043980462
 20
19.80000218895407
 30
0.0
  0
VERTEX
  5
312
  8
0
 10
-122.3688564834841
 20
20.1277948996634
 30
0.0
  0
VERTEX
  5
313
  8
0
 10
-122.3564792368531
 20
20.45354250446858
 30
0.0
  0
VERTEX
  5
314
  8
0
 10
-122.3359724037367
 20
20.77714525778631
 30
0.0
  0
VERTEX
  5
315
  8
0
 10
-122.3074357297182
 20
21.09850341403328
 30
0.0
  0
VERTEX
  5
316
  8
0
 10
-122.2709689603807
 20
21.4175172276262
 30
0.0
  0
VERTEX
  5
317
  8
0
 10
-122.2266718413077
 20
21.73408695298176
 30
0.0
  0
VERTEX
  5
318
  8
0
 10
-122.1746441180824
 20
22.04811284451667
 30
0.0
  0
VERTEX
  5
319
  8
0
 10
-122.1149855362882
 20
22.35949515664763
 30
0.0
  0
VERTEX
  5
31A
  8
0
 10
-122.0477958415082
 20
22.66813414379133
 30
0.0
  0
VERTEX
  5
31B
  8
0
 10
-121.9731747793259
 20
22.97393006036447
 30
0.0
  0
VERTEX
  5
31C
  8
0
 10
-121.8912220953246
 20
23.27678316078376
 30
0.0
  0
VERTEX
  5
31D
  8
0
 10
-121.8020375350874
 20
23.57659369946589
 30
0.0
  0
VERTEX
  5
31E
  8
0
 10
-121.7057208441978
 20
23.87326193082756
 30
0.0
  0
VERTEX
  5
31F
  8
0
 10
-121.602371768239
 20
24.16668810928548
 30
0.0
  0
VERTEX
  5
320
  8
0
 10
-121.4920900527944
 20
24.45677248925634
 30
0.0
  0
VERTEX
  5
321
  8
0
 10
-121.3749754434472
 20
24.74341532515685
 30
0.0
  0
VERTEX
  5
322
  8
0
 10
-121.2511276857807
 20
25.02651687140369
 30
0.0
  0
VERTEX
  5
323
  8
0
 10
-121.1206465253782
 20
25.30597738241358
 30
0.0
  0
VERTEX
  5
324
  8
0
 10
-120.8401829786986
 20
25.85357631638928
 30
0.0
  0
VERTEX
  5
325
  8
0
 10
-120.5343827680747
 20
26.38541416241754
 30
0.0
  0
VERTEX
  5
326
  8
0
 10
-120.204043858173
 20
26.90069295583196
 30
0.0
  0
VERTEX
  5
327
  8
0
 10
-119.8499642136598
 20
27.39861473196613
 30
0.0
  0
VERTEX
  5
328
  8
0
 10
-119.4729417992015
 20
27.87838152615367
 30
0.0
  0
VERTEX
  5
329
  8
0
 10
-119.0737745794646
 20
28.33919537372816
 30
0.0
  0
VERTEX
  5
32A
  8
0
 10
-118.6532605191154
 20
28.7802583100232
 30
0.0
  0
VERTEX
  5
32B
  8
0
 10
-118.2121975828203
 20
29.20077237037238
 30
0.0
  0
VERTEX
  5
32C
  8
0
 10
-117.7513837352459
 20
29.59993959010932
 30
0.0
  0
VERTEX
  5
32D
  8
0
 10
-117.2716169410583
 20
29.97696200456759
 30
0.0
  0
VERTEX
  5
32E
  8
0
 10
-116.7736951649241
 20
30.3310416490808
 30
0.0
  0
VERTEX
  5
32F
  8
0
 10
-116.2584163715097
 20
30.66138055898255
 30
0.0
  0
VERTEX
  5
330
  8
0
 10
-115.7265785254815
 20
30.96718076960643
 30
0.0
  0
VERTEX
  5
331
  8
0
 10
-115.1789795915058
 20
31.24764431628604
 30
0.0
  0
VERTEX
  5
332
  8
0
 10
-114.8995190804959
 20
31.3781254766885
 30
0.0
  0
VERTEX
  5
333
  8
0
 10
-114.616417534249
 20
31.50197323435498
 30
0.0
  0
VERTEX
  5
334
  8
0
 10
-114.3297746983485
 20
31.6190878437022
 30
0.0
  0
VERTEX
  5
335
  8
0
 10
-114.0396903183777
 20
31.72936955914685
 30
0.0
  0
VERTEX
  5
336
  8
0
 10
-113.7462641399197
 20
31.83271863510563
 30
0.0
  0
VERTEX
  5
337
  8
0
 10
-113.4495959085581
 20
31.92903532599524
 30
0.0
  0
VERTEX
  5
338
  8
0
 10
-113.1497853698759
 20
32.01821988623239
 30
0.0
  0
VERTEX
  5
339
  8
0
 10
-112.8469322694566
 20
32.10017257023376
 30
0.0
  0
VERTEX
  5
33A
  8
0
 10
-112.5411363528835
 20
32.17479363241606
 30
0.0
  0
VERTEX
  5
33B
  8
0
 10
-112.2324973657398
 20
32.241983327196
 30
0.0
  0
VERTEX
  5
33C
  8
0
 10
-111.9211150536088
 20
32.30164190899026
 30
0.0
  0
VERTEX
  5
33D
  8
0
 10
-111.6070891620739
 20
32.35366963221554
 30
0.0
  0
VERTEX
  5
33E
  8
0
 10
-111.2905194367184
 20
32.39796675128856
 30
0.0
  0
VERTEX
  5
33F
  8
0
 10
-110.9715056231255
 20
32.434433520626
 30
0.0
  0
VERTEX
  5
340
  8
0
 10
-110.6501474668785
 20
32.46297019464458
 30
0.0
  0
VERTEX
  5
341
  8
0
 10
-110.3265447135608
 20
32.48347702776098
 30
0.0
  0
VERTEX
  5
342
  8
0
 10
-110.0007971087556
 20
32.4958542743919
 30
0.0
  0
VERTEX
  5
343
  8
0
 10
-109.6730043980462
 20
32.50000218895406
 30
0.0
  0
VERTEX
  5
344
  8
0
 10
-41.67700439804614
 20
32.50000218895406
 30
0.0
  0
VERTEX
  5
345
  8
0
 10
-41.67700439804614
 20
27.16600218895402
 30
0.0
  0
VERTEX
  5
346
  8
0
 10
-27.70700439804594
 20
27.16600218895402
 30
0.0
  0
VERTEX
  5
347
  8
0
 10
-27.70700439804594
 20
9.778971481707828
 30
0.0
  0
VERTEX
  5
348
  8
0
 10
-22.37300439804594
 20
9.778971481707828
 30
0.0
  0
VERTEX
  5
349
  8
0
 10
-22.37300439804625
 20
-9.779028518291938
 30
0.0
  0
VERTEX
  5
34A
  8
0
 10
-27.70700439804597
 20
-9.779028518291938
 30
0.0
  0
VERTEX
  5
34B
  8
0
 10
-27.70700439804597
 20
-27.16603469613548
 30
0.0
  0
VERTEX
  5
34C
  8
0
 10
-41.67700439804617
 20
-27.16603469613548
 30
0.0
  0
VERTEX
  5
34D
  8
0
 10
-41.67700439804617
 20
-32.50003469613551
 30
0.0
  0
VERTEX
  5
34E
  8
0
 10
-109.6730043980463
 20
-32.50003469613546
 30
0.0
  0
VERTEX
  5
34F
  8
0
 10
-110.0007971087556
 20
-32.4958867815733
 30
0.0
  0
VERTEX
  5
350
  8
0
 10
-110.3265447135608
 20
-32.48350953494238
 30
0.0
  0
VERTEX
  5
351
  8
0
 10
-110.6501474668785
 20
-32.46300270182598
 30
0.0
  0
VERTEX
  5
352
  8
0
 10
-110.9715056231255
 20
-32.4344660278074
 30
0.0
  0
VERTEX
  5
353
  8
0
 10
-111.2905194367184
 20
-32.39799925846995
 30
0.0
  0
VERTEX
  5
354
  8
0
 10
-111.6070891620739
 20
-32.35370213939694
 30
0.0
  0
VERTEX
  5
355
  8
0
 10
-111.9211150536089
 20
-32.30167441617165
 30
0.0
  0
VERTEX
  5
356
  8
0
 10
-112.2324973657398
 20
-32.24201583437739
 30
0.0
  0
VERTEX
  5
357
  8
0
 10
-112.5411363528835
 20
-32.17482613959746
 30
0.0
  0
VERTEX
  5
358
  8
0
 10
-112.8469322694567
 20
-32.10020507741515
 30
0.0
  0
VERTEX
  5
359
  8
0
 10
-113.1497853698759
 20
-32.01825239341378
 30
0.0
  0
VERTEX
  5
35A
  8
0
 10
-113.4495959085581
 20
-31.92906783317664
 30
0.0
  0
VERTEX
  5
35B
  8
0
 10
-113.7462641399198
 20
-31.83275114228703
 30
0.0
  0
VERTEX
  5
35C
  8
0
 10
-114.0396903183777
 20
-31.72940206632824
 30
0.0
  0
VERTEX
  5
35D
  8
0
 10
-114.3297746983485
 20
-31.61912035088359
 30
0.0
  0
VERTEX
  5
35E
  8
0
 10
-114.6164175342491
 20
-31.50200574153637
 30
0.0
  0
VERTEX
  5
35F
  8
0
 10
-114.8995190804959
 20
-31.37815798386988
 30
0.0
  0
VERTEX
  5
360
  8
0
 10
-115.1789795915058
 20
-31.24767682346742
 30
0.0
  0
VERTEX
  5
361
  8
0
 10
-115.7265785254815
 20
-30.96721327678781
 30
0.0
  0
VERTEX
  5
362
  8
0
 10
-116.2584163715097
 20
-30.66141306616392
 30
0.0
  0
VERTEX
  5
363
  8
0
 10
-116.7736951649242
 20
-30.33107415626217
 30
0.0
  0
VERTEX
  5
364
  8
0
 10
-117.2716169410583
 20
-29.97699451174896
 30
0.0
  0
VERTEX
  5
365
  8
0
 10
-117.7513837352459
 20
-29.59997209729068
 30
0.0
  0
VERTEX
  5
366
  8
0
 10
-118.2121975828204
 20
-29.20080487755375
 30
0.0
  0
VERTEX
  5
367
  8
0
 10
-118.6532605191154
 20
-28.78029081720457
 30
0.0
  0
VERTEX
  5
368
  8
0
 10
-119.0737745794646
 20
-28.33922788090953
 30
0.0
  0
VERTEX
  5
369
  8
0
 10
-119.4729417992015
 20
-27.87841403333504
 30
0.0
  0
VERTEX
  5
36A
  8
0
 10
-119.8499642136598
 20
-27.3986472391475
 30
0.0
  0
VERTEX
  5
36B
  8
0
 10
-120.204043858173
 20
-26.90072546301332
 30
0.0
  0
VERTEX
  5
36C
  8
0
 10
-120.5343827680747
 20
-26.38544666959891
 30
0.0
  0
VERTEX
  5
36D
  8
0
 10
-120.8401829786986
 20
-25.85360882357064
 30
0.0
  0
VERTEX
  5
36E
  8
0
 10
-121.1206465253782
 20
-25.30600988959494
 30
0.0
  0
VERTEX
  5
36F
  8
0
 10
-121.2511276857807
 20
-25.02654937858505
 30
0.0
  0
VERTEX
  5
370
  8
0
 10
-121.3749754434472
 20
-24.74344783233821
 30
0.0
  0
VERTEX
  5
371
  8
0
 10
-121.4920900527944
 20
-24.45680499643771
 30
0.0
  0
VERTEX
  5
372
  8
0
 10
-121.6023717682391
 20
-24.16672061646685
 30
0.0
  0
VERTEX
  5
373
  8
0
 10
-121.7057208441979
 20
-23.87329443800893
 30
0.0
  0
VERTEX
  5
374
  8
0
 10
-121.8020375350875
 20
-23.57662620664725
 30
0.0
  0
VERTEX
  5
375
  8
0
 10
-121.8912220953246
 20
-23.27681566796512
 30
0.0
  0
VERTEX
  5
376
  8
0
 10
-121.973174779326
 20
-22.97396256754583
 30
0.0
  0
VERTEX
  5
377
  8
0
 10
-122.0477958415083
 20
-22.66816665097269
 30
0.0
  0
VERTEX
  5
378
  8
0
 10
-122.1149855362882
 20
-22.35952766382899
 30
0.0
  0
VERTEX
  5
379
  8
0
 10
-122.1746441180825
 20
-22.04814535169804
 30
0.0
  0
VERTEX
  5
37A
  8
0
 10
-122.2266718413077
 20
-21.73411946016313
 30
0.0
  0
VERTEX
  5
37B
  8
0
 10
-122.2709689603808
 20
-21.41754973480757
 30
0.0
  0
VERTEX
  5
37C
  8
0
 10
-122.3074357297182
 20
-21.09853592121465
 30
0.0
  0
VERTEX
  5
37D
  8
0
 10
-122.3359724037368
 20
-20.77717776496768
 30
0.0
  0
VERTEX
  5
37E
  8
0
 10
-122.3564792368532
 20
-20.45357501164995
 30
0.0
  0
VERTEX
  5
37F
  8
0
 10
-122.3688564834841
 20
-20.12782740684477
 30
0.0
  0
SEQEND
  5
380
  8
0
  0
POLYLINE
  5
49
  8
0
 66
     1
 10
0.0
 20
0.0
 30
0.0
 70
     1
  0
VERTEX
  5
381
  8
0
 10
103.32235447659
 20
2.949999999999858
 30
0.0
 42
0.4142135623730951
  0
VERTEX
  5
382
  8
0
 10
100.37235447659
 20
-0.0000000000001421
 30
0.0
 42
0.4142135623730951
  0
VERTEX
  5
383
  8
0
 10
103.32235447659
 20
-2.950000000000142
 30
0.0
 42
0.4142135623730951
  0
VERTEX
  5
384
  8
0
 10
106.27235447659
 20
-0.0000000000001421
 30
0.0
 42
0.4142135623730951
  0
SEQEND
  5
385
  8
0
  0
POLYLINE
  5
4A
  8
0
 66
     1
 10
0.0
 20
0.0
 30
0.0
 70
     1
  0
VERTEX
  5
386
  8
0
 10
41.42107797073444
 20
2.949999999999858
 30
0.0
 42
0.4142135623730951
  0
VERTEX
  5
387
  8
0
 10
38.47107797073444
 20
-0.0000000000001421
 30
0.0
 42
0.4142135623730951
  0
VERTEX
  5
388
  8
0
 10
41.42107797073444
 20
-2.950000000000142
 30
0.0
 42
0.4142135623730951
  0
VERTEX
  5
389
  8
0
 10
44.37107797073445
 20
-0.0000000000001421
 30
0.0
 42
0.4142135623730951
  0
SEQEND
  5
38A
  8
0
  0
ENDSEC
  0
EOF
