<?xml version="1.0" encoding="UTF-8" standalone="no"?>
<svg
   xmlns:dc="http://purl.org/dc/elements/1.1/"
   xmlns:cc="http://creativecommons.org/ns#"
   xmlns:rdf="http://www.w3.org/1999/02/22-rdf-syntax-ns#"
   xmlns:svg="http://www.w3.org/2000/svg"
   xmlns="http://www.w3.org/2000/svg"
   xmlns:sodipodi="http://sodipodi.sourceforge.net/DTD/sodipodi-0.dtd"
   xmlns:inkscape="http://www.inkscape.org/namespaces/inkscape"
   width="8.5in"
   height="11in"
   id="svg2"
   version="1.1"
   inkscape:version="0.91 r13725"
   sodipodi:docname="LaserDisc_mm.svg">
  <metadata
     id="metadata36">
    <rdf:RDF>
      <cc:Work
         rdf:about="">
        <dc:format>image/svg+xml</dc:format>
        <dc:type
           rdf:resource="http://purl.org/dc/dcmitype/StillImage" />
        <dc:title></dc:title>
      </cc:Work>
    </rdf:RDF>
  </metadata>
  <sodipodi:namedview
     pagecolor="#ffffff"
     bordercolor="#666666"
     borderopacity="1"
     objecttolerance="10"
     gridtolerance="10"
     guidetolerance="10"
     inkscape:pageopacity="0"
     inkscape:pageshadow="2"
     inkscape:window-width="1440"
     inkscape:window-height="846"
     id="namedview34"
     showgrid="false"
     units="in"
     inkscape:document-units="mm"
     inkscape:zoom="0.44851479"
     inkscape:cx="159.8895"
     inkscape:cy="575.93974"
     inkscape:window-x="0"
     inkscape:window-y="25"
     inkscape:window-maximized="1"
     inkscape:current-layer="g22" />
  <desc
     id="desc4">/opt/Media/MakeIt Labs 2016/Laser Optic Hackaday 2016/laser-cut-optics-bench/laser/LaserDisc_mm.dxf - scale = 1.000000, origin = (0.000000, 0.000000), auto = False</desc>
  <defs
     id="defs6">
    <marker
       id="DistanceX"
       orient="auto"
       refX="0"
       refY="0"
       style="overflow:visible">
      <path
         d="M 3,-3 -3,3 M 0,-5 0,5"
         style="stroke:#000000;stroke-width:0.5"
         id="path9"
         inkscape:connector-curvature="0" />
    </marker>
    <pattern
       height="8"
       id="Hatch"
       patternUnits="userSpaceOnUse"
       width="8"
       x="0"
       y="0">
      <path
         d="M8 4 l-4,4"
         linecap="square"
         stroke="#000000"
         stroke-width="0.25"
         id="path12" />
      <path
         d="M6 2 l-4,4"
         linecap="square"
         stroke="#000000"
         stroke-width="0.25"
         id="path14" />
      <path
         d="M4 0 l-4,4"
         linecap="square"
         stroke="#000000"
         stroke-width="0.25"
         id="path16" />
    </pattern>
    <symbol
       id="*Model_Space" />
    <symbol
       id="*Paper_Space" />
  </defs>
  <g
     inkscape:groupmode="layer"
     inkscape:label="0"
     id="g20"
     transform="translate(0,-62.362183)" />
  <g
     inkscape:groupmode="layer"
     inkscape:label="LAYER_1"
     id="g22"
     transform="translate(0,-62.362183)">
    <path
       d="m 160.52982,172.19575 a 10.629921,10.629921 0 0 0 -10.62992,10.6299 10.629921,10.629921 0 0 0 10.62992,10.6299 10.629921,10.629921 0 0 0 10.62993,-10.6299 10.629921,10.629921 0 0 0 -10.62993,-10.6299 z"
       style="fill:none;stroke:#000000;stroke-linecap:round"
       id="path24"
       inkscape:connector-curvature="0" />
    <path
       d="m 160.52982,94.154397 a 10.718504,10.718504 0 0 0 -10.7185,10.718503 10.718504,10.718504 0 0 0 10.7185,10.7185 10.718504,10.718504 0 0 0 10.71851,-10.7185 10.718504,10.718504 0 0 0 -10.71851,-10.718503 z"
       style="fill:none;stroke:#000000;stroke-linecap:round"
       id="path26"
       inkscape:connector-curvature="0" />
    <path
       d="m 228.03889,211.08355 a 10.718504,10.718504 0 0 0 -10.7185,10.7185 10.718504,10.718504 0 0 0 10.7185,10.7185 10.718504,10.718504 0 0 0 10.71851,-10.7185 10.718504,10.718504 0 0 0 -10.71851,-10.7185 z"
       style="fill:none;stroke:#000000;stroke-linecap:round"
       id="path28"
       inkscape:connector-curvature="0" />
    <path
       d="m 93.020759,211.08355 a 10.718504,10.718504 0 0 0 -10.71851,10.7185 10.718504,10.718504 0 0 0 10.71851,10.7185 10.718504,10.718504 0 0 0 10.718501,-10.7185 10.718504,10.718504 0 0 0 -10.718501,-10.7185 z"
       style="fill:none;stroke:#000000;stroke-linecap:round"
       id="path30"
       inkscape:connector-curvature="0" />
    <path
       d="m 160.52982,85.384707 a 97.440945,97.440945 0 0 0 -97.440941,97.440943 97.440945,97.440945 0 0 0 97.440941,97.441 97.440945,97.440945 0 0 0 97.44095,-97.441 97.440945,97.440945 0 0 0 -97.44095,-97.440943 z"
       style="fill:none;stroke:#000000;stroke-linecap:round"
       id="path32"
       inkscape:connector-curvature="0" />
  </g>
</svg>
