  0
SECTION
  2
HEADER
  9
$ACADVER
  1
AC1012
  9
$DWGCODEPAGE
  3
gb2312
  9
$INSBASE
 10
0.0
 20
0.0
 30
0.0
  9
$EXTMIN
 10
1.000000000000000E+20
 20
1.000000000000000E+20
 30
1.000000000000000E+20
  9
$EXTMAX
 10
-1.000000000000000E+20
 20
-1.000000000000000E+20
 30
-1.000000000000000E+20
  9
$LIMMIN
 10
0.0
 20
0.0
  9
$LIMMAX
 10
420.0
 20
297.0
  9
$ORTHOMODE
 70
     0
  9
$REGENMODE
 70
     1
  9
$FILLMODE
 70
     1
  9
$QTEXTMODE
 70
     0
  9
$MIRRTEXT
 70
     1
  9
$DRAGMODE
 70
     2
  9
$LTSCALE
 40
1.0
  9
$OSMODE
 70
    37
  9
$ATTMODE
 70
     1
  9
$TEXTSIZE
 40
2.5
  9
$TRACEWID
 40
1.0
  9
$TEXTSTYLE
  7
STANDARD
  9
$CLAYER
  8
0
  9
$CELTYPE
  6
BYLAYER
  9
$CECOLOR
 62
   256
  9
$CELTSCALE
 40
1.0
  9
$DELOBJ
 70
     1
  9
$DISPSILH
 70
     0
  9
$DIMSCALE
 40
1.0
  9
$DIMASZ
 40
2.5
  9
$DIMEXO
 40
0.625
  9
$DIMDLI
 40
3.75
  9
$DIMRND
 40
0.0
  9
$DIMDLE
 40
0.0
  9
$DIMEXE
 40
1.25
  9
$DIMTP
 40
0.0
  9
$DIMTM
 40
0.0
  9
$DIMTXT
 40
2.5
  9
$DIMCEN
 40
2.5
  9
$DIMTSZ
 40
0.0
  9
$DIMTOL
 70
     0
  9
$DIMLIM
 70
     0
  9
$DIMTIH
 70
     0
  9
$DIMTOH
 70
     0
  9
$DIMSE1
 70
     0
  9
$DIMSE2
 70
     0
  9
$DIMTAD
 70
     1
  9
$DIMZIN
 70
     8
  9
$DIMBLK
  1

  9
$DIMASO
 70
     1
  9
$DIMSHO
 70
     1
  9
$DIMPOST
  1

  9
$DIMAPOST
  1

  9
$DIMALT
 70
     0
  9
$DIMALTD
 70
     3
  9
$DIMALTF
 40
0.03937007874016
  9
$DIMLFAC
 40
1.0
  9
$DIMTOFL
 70
     1
  9
$DIMTVP
 40
0.0
  9
$DIMTIX
 70
     0
  9
$DIMSOXD
 70
     0
  9
$DIMSAH
 70
     0
  9
$DIMBLK1
  1

  9
$DIMBLK2
  1

  9
$DIMSTYLE
  2
ISO-25
  9
$DIMCLRD
 70
     0
  9
$DIMCLRE
 70
     0
  9
$DIMCLRT
 70
     0
  9
$DIMTFAC
 40
1.0
  9
$DIMGAP
 40
0.625
  9
$DIMJUST
 70
     0
  9
$DIMSD1
 70
     0
  9
$DIMSD2
 70
     0
  9
$DIMTOLJ
 70
     0
  9
$DIMTZIN
 70
     8
  9
$DIMALTZ
 70
     0
  9
$DIMALTTZ
 70
     0
  9
$DIMFIT
 70
     3
  9
$DIMUPT
 70
     0
  9
$DIMUNIT
 70
     2
  9
$DIMDEC
 70
     2
  9
$DIMTDEC
 70
     2
  9
$DIMALTU
 70
     2
  9
$DIMALTTD
 70
     3
  9
$DIMTXSTY
  7
STANDARD
  9
$DIMAUNIT
 70
     0
  9
$LUNITS
 70
     2
  9
$LUPREC
 70
     4
  9
$SKETCHINC
 40
1.0
  9
$FILLETRAD
 40
10.0
  9
$AUNITS
 70
     0
  9
$AUPREC
 70
     0
  9
$MENU
  1
.
  9
$ELEVATION
 40
0.0
  9
$PELEVATION
 40
0.0
  9
$THICKNESS
 40
0.0
  9
$LIMCHECK
 70
     0
  9
$BLIPMODE
 70
     0
  9
$CHAMFERA
 40
10.0
  9
$CHAMFERB
 40
10.0
  9
$CHAMFERC
 40
20.0
  9
$CHAMFERD
 40
0.0
  9
$SKPOLY
 70
     0
  9
$TDCREATE
 40
2453935.933843252
  9
$TDUPDATE
 40
2453935.934398680
  9
$TDINDWG
 40
0.0005563542
  9
$TDUSRTIMER
 40
0.0005562384
  9
$USRTIMER
 70
     1
  9
$ANGBASE
 50
0.0
  9
$ANGDIR
 70
     0
  9
$PDMODE
 70
     0
  9
$PDSIZE
 40
0.0
  9
$PLINEWID
 40
0.0
  9
$COORDS
 70
     1
  9
$SPLFRAME
 70
     0
  9
$SPLINETYPE
 70
     6
  9
$SPLINESEGS
 70
     8
  9
$ATTDIA
 70
     0
  9
$ATTREQ
 70
     1
  9
$HANDLING
 70
 22529
  9
$HANDSEED
  5
4A
  9
$SURFTAB1
 70
     6
  9
$SURFTAB2
 70
     6
  9
$SURFTYPE
 70
     6
  9
$SURFU
 70
     6
  9
$SURFV
 70
     6
  9
$UCSNAME
  2

  9
$UCSORG
 10
0.0
 20
0.0
 30
0.0
  9
$UCSXDIR
 10
1.0
 20
0.0
 30
0.0
  9
$UCSYDIR
 10
0.0
 20
1.0
 30
0.0
  9
$PUCSNAME
  2

  9
$PUCSORG
 10
0.0
 20
0.0
 30
0.0
  9
$PUCSXDIR
 10
1.0
 20
0.0
 30
0.0
  9
$PUCSYDIR
 10
0.0
 20
1.0
 30
0.0
  9
$USERI1
 70
     0
  9
$USERI2
 70
     0
  9
$USERI3
 70
     0
  9
$USERI4
 70
     0
  9
$USERI5
 70
     0
  9
$USERR1
 40
0.0
  9
$USERR2
 40
0.0
  9
$USERR3
 40
0.0
  9
$USERR4
 40
0.0
  9
$USERR5
 40
0.0
  9
$WORLDVIEW
 70
     1
  9
$SHADEDGE
 70
     3
  9
$SHADEDIF
 70
    70
  9
$TILEMODE
 70
     1
  9
$MAXACTVP
 70
    64
  9
$PINSBASE
 10
0.0
 20
0.0
 30
0.0
  9
$PLIMCHECK
 70
     0
  9
$PEXTMIN
 10
1.000000000000000E+20
 20
1.000000000000000E+20
 30
1.000000000000000E+20
  9
$PEXTMAX
 10
-1.000000000000000E+20
 20
-1.000000000000000E+20
 30
-1.000000000000000E+20
  9
$PLIMMIN
 10
0.0
 20
0.0
  9
$PLIMMAX
 10
420.0
 20
297.0
  9
$UNITMODE
 70
     0
  9
$VISRETAIN
 70
     1
  9
$PLINEGEN
 70
     0
  9
$PSLTSCALE
 70
     1
  9
$TREEDEPTH
 70
  3020
  9
$PICKSTYLE
 70
     1
  9
$CMLSTYLE
  2
STANDARD
  9
$CMLJUST
 70
     0
  9
$CMLSCALE
 40
20.0
  9
$SAVEIMAGES
 70
     1
  0
ENDSEC
  0
SECTION
  2
CLASSES
  0
CLASS
  1
ACDBDICTIONARYWDFLT
  2
AcDbDictionaryWithDefault
  3
AutoCAD 2000
 90
    32768
280
     0
281
     0
  0
CLASS
  1
ACDBPLACEHOLDER
  2
AcDbPlaceHolder
  3
AutoCAD 2000
 90
    32768
280
     0
281
     0
  0
CLASS
  1
LAYOUT
  2
AcDbLayout
  3
AutoCAD 2000
 90
    32768
280
     0
281
     0
  0
CLASS
  1
DICTIONARYVAR
  2
AcDbDictionaryVar
  3
AutoCAD 2000
 90
    32768
280
     0
281
     0
  0
CLASS
  1
LONG_TRANSACTION
  2
AcDbLongTransaction
  3
AutoCAD 2000
 90
    32768
280
     0
281
     0
  0
CLASS
  1
LWPOLYLINE
  2
AcDbPolyline
  3
AutoCAD 2000
 90
    32768
280
     0
281
     1
  0
CLASS
  1
HATCH
  2
AcDbHatch
  3
AutoCAD 2000
 90
    32768
280
     0
281
     1
  0
CLASS
  1
XRECORD
  2
AcDbXrecord
  3
AutoCAD 2000
 90
    32768
280
     0
281
     0
  0
ENDSEC
  0
SECTION
  2
TABLES
  0
TABLE
  2
VPORT
  5
8
330
0
100
AcDbSymbolTable
 70
     2
  0
VPORT
  5
43
330
8
100
AcDbSymbolTableRecord
100
AcDbViewportTableRecord
  2
*ACTIVE
 70
     0
 10
0.0
 20
0.0
 11
1.0
 21
1.0
 12
505.3812210517317
 22
257.5500453436709
 13
0.0
 23
0.0
 14
10.0
 24
10.0
 15
10.0
 25
10.0
 16
0.0
 26
0.0
 36
1.0
 17
0.0
 27
0.0
 37
0.0
 40
515.1000906873419
 41
1.962264150943396
 42
50.0
 43
0.0
 44
0.0
 50
0.0
 51
0.0
 71
     0
 72
   100
 73
     1
 74
     3
 75
     0
 76
     0
 77
     0
 78
     0
  0
ENDTAB
  0
TABLE
  2
LTYPE
  5
5
330
0
100
AcDbSymbolTable
 70
     1
  0
LTYPE
  5
14
330
5
100
AcDbSymbolTableRecord
100
AcDbLinetypeTableRecord
  2
BYBLOCK
 70
     0
  3

 72
    65
 73
     0
 40
0.0
  0
LTYPE
  5
15
330
5
100
AcDbSymbolTableRecord
100
AcDbLinetypeTableRecord
  2
BYLAYER
 70
     0
  3

 72
    65
 73
     0
 40
0.0
  0
LTYPE
  5
16
330
5
100
AcDbSymbolTableRecord
100
AcDbLinetypeTableRecord
  2
CONTINUOUS
 70
     0
  3
Solid line
 72
    65
 73
     0
 40
0.0
  0
ENDTAB
  0
TABLE
  2
LAYER
  5
2
330
0
100
AcDbSymbolTable
 70
     1
  0
LAYER
  5
10
330
2
100
AcDbSymbolTableRecord
100
AcDbLayerTableRecord
  2
0
 70
     0
 62
     7
  6
CONTINUOUS
  0
ENDTAB
  0
TABLE
  2
STYLE
  5
3
330
0
100
AcDbSymbolTable
 70
     1
  0
STYLE
  5
11
330
3
100
AcDbSymbolTableRecord
100
AcDbTextStyleTableRecord
  2
STANDARD
 70
     0
 40
0.0
 41
1.0
 50
0.0
 71
     0
 42
2.5
  3
txt
  4

  0
ENDTAB
  0
TABLE
  2
VIEW
  5
6
330
0
100
AcDbSymbolTable
 70
     0
  0
ENDTAB
  0
TABLE
  2
UCS
  5
7
330
0
100
AcDbSymbolTable
 70
     0
  0
ENDTAB
  0
TABLE
  2
APPID
  5
9
330
0
100
AcDbSymbolTable
 70
     1
  0
APPID
  5
12
330
9
100
AcDbSymbolTableRecord
100
AcDbRegAppTableRecord
  2
ACAD
 70
     0
  0
ENDTAB
  0
TABLE
  2
DIMSTYLE
  5
A
330
0
100
AcDbSymbolTable
 70
     1
  0
DIMSTYLE
105
27
330
A
100
AcDbSymbolTableRecord
100
AcDbDimStyleTableRecord
  2
ISO-25
 70
     0
  3

  4

  5

  6

  7

 40
1.0
 41
2.5
 42
0.625
 43
3.75
 44
1.25
 45
0.0
 46
0.0
 47
0.0
 48
0.0
140
2.5
141
2.5
142
0.0
143
0.03937007874016
144
1.0
145
0.0
146
1.0
147
0.625
 71
     0
 72
     0
 73
     0
 74
     0
 75
     0
 76
     0
 77
     1
 78
     8
170
     0
171
     3
172
     1
173
     0
174
     0
175
     0
176
     0
177
     0
178
     0
270
     2
271
     2
272
     2
273
     2
274
     3
340
11
275
     0
280
     0
281
     0
282
     0
283
     0
284
     8
285
     0
286
     0
287
     3
288
     0
  0
ENDTAB
  0
TABLE
  2
BLOCK_RECORD
  5
1
330
0
100
AcDbSymbolTable
 70
     1
  0
BLOCK_RECORD
  5
1F
102
{ACAD_XDICTIONARY
360
46
102
}
330
1
100
AcDbSymbolTableRecord
100
AcDbBlockTableRecord
  2
*MODEL_SPACE
  0
BLOCK_RECORD
  5
1B
102
{ACAD_XDICTIONARY
360
44
102
}
330
1
100
AcDbSymbolTableRecord
100
AcDbBlockTableRecord
  2
*PAPER_SPACE
  0
ENDTAB
  0
ENDSEC
  0
SECTION
  2
BLOCKS
  0
BLOCK
  5
20
330
1F
100
AcDbEntity
  8
0
100
AcDbBlockBegin
  2
*MODEL_SPACE
 70
     0
 10
0.0
 20
0.0
 30
0.0
  3
*MODEL_SPACE
  1

  0
ENDBLK
  5
21
330
1F
100
AcDbEntity
  8
0
100
AcDbBlockEnd
  0
BLOCK
  5
1C
330
1B
100
AcDbEntity
 67
     1
  8
0
100
AcDbBlockBegin
  2
*PAPER_SPACE
 70
     0
 10
0.0
 20
0.0
 30
0.0
  3
*PAPER_SPACE
  1

  0
ENDBLK
  5
1D
330
1B
100
AcDbEntity
 67
     1
  8
0
100
AcDbBlockEnd
  0
ENDSEC
  0
SECTION
  2
ENTITIES
  0
SPLINE
  5
100
330
1F
100
AcDbEntity
  8
0
 62
     0
100
AcDbSpline
210
0.000000
220
0.000000
230
1.0
 70
     8
 71
     3
 72
     8
 73
     4
 42
0.0000000001
 43
0.0000000001
 44
0.0000000001
 12
0.000000
 22
0.000000
 32
0.000000
 13
0.000000
 23
0.000000
 33
0.000000
 40
0.000000
 40
0.000000
 40
0.000000
 40
0.000000
 40
1.000000
 40
1.000000
 40
1.000000
 40
1.000000
 10
600.000000
 20
477.500000
 30
0.000000
 10
595.199230
 20
477.505245
 30
0.000000
 10
590.404966
 20
476.220626
 30
0.000000
 10
586.250000
 20
473.815699
 30
0.000000
  0
SPLINE
  5
101
330
1F
100
AcDbEntity
  8
0
 62
     0
100
AcDbSpline
210
0.000000
220
0.000000
230
1.0
 70
     8
 71
     3
 72
     8
 73
     4
 42
0.0000000001
 43
0.0000000001
 44
0.0000000001
 12
0.000000
 22
0.000000
 32
0.000000
 13
0.000000
 23
0.000000
 33
0.000000
 40
0.000000
 40
0.000000
 40
0.000000
 40
0.000000
 40
1.000000
 40
1.000000
 40
1.000000
 40
1.000000
 10
586.250000
 20
473.815699
 30
0.000000
 10
582.089788
 20
471.419856
 30
0.000000
 10
578.580144
 20
467.910212
 30
0.000000
 10
576.184301
 20
463.750000
 30
0.000000
  0
SPLINE
  5
102
330
1F
100
AcDbEntity
  8
0
 62
     0
100
AcDbSpline
210
0.000000
220
0.000000
230
1.0
 70
     8
 71
     3
 72
     8
 73
     4
 42
0.0000000001
 43
0.0000000001
 44
0.0000000001
 12
0.000000
 22
0.000000
 32
0.000000
 13
0.000000
 23
0.000000
 33
0.000000
 40
0.000000
 40
0.000000
 40
0.000000
 40
0.000000
 40
1.000000
 40
1.000000
 40
1.000000
 40
1.000000
 10
576.184301
 20
463.750000
 30
0.000000
 10
573.779374
 20
459.595034
 30
0.000000
 10
572.494755
 20
454.800770
 30
0.000000
 10
572.500000
 20
450.000000
 30
0.000000
  0
SPLINE
  5
103
330
1F
100
AcDbEntity
  8
0
 62
     0
100
AcDbSpline
210
0.000000
220
0.000000
230
1.0
 70
     8
 71
     3
 72
     8
 73
     4
 42
0.0000000001
 43
0.0000000001
 44
0.0000000001
 12
0.000000
 22
0.000000
 32
0.000000
 13
0.000000
 23
0.000000
 33
0.000000
 40
0.000000
 40
0.000000
 40
0.000000
 40
0.000000
 40
1.000000
 40
1.000000
 40
1.000000
 40
1.000000
 10
572.500000
 20
450.000000
 30
0.000000
 10
572.494755
 20
445.199230
 30
0.000000
 10
573.779374
 20
440.404966
 30
0.000000
 10
576.184301
 20
436.250000
 30
0.000000
  0
SPLINE
  5
104
330
1F
100
AcDbEntity
  8
0
 62
     0
100
AcDbSpline
210
0.000000
220
0.000000
230
1.0
 70
     8
 71
     3
 72
     8
 73
     4
 42
0.0000000001
 43
0.0000000001
 44
0.0000000001
 12
0.000000
 22
0.000000
 32
0.000000
 13
0.000000
 23
0.000000
 33
0.000000
 40
0.000000
 40
0.000000
 40
0.000000
 40
0.000000
 40
1.000000
 40
1.000000
 40
1.000000
 40
1.000000
 10
576.184301
 20
436.250000
 30
0.000000
 10
578.580144
 20
432.089788
 30
0.000000
 10
582.089788
 20
428.580144
 30
0.000000
 10
586.250000
 20
426.184301
 30
0.000000
  0
SPLINE
  5
105
330
1F
100
AcDbEntity
  8
0
 62
     0
100
AcDbSpline
210
0.000000
220
0.000000
230
1.0
 70
     8
 71
     3
 72
     8
 73
     4
 42
0.0000000001
 43
0.0000000001
 44
0.0000000001
 12
0.000000
 22
0.000000
 32
0.000000
 13
0.000000
 23
0.000000
 33
0.000000
 40
0.000000
 40
0.000000
 40
0.000000
 40
0.000000
 40
1.000000
 40
1.000000
 40
1.000000
 40
1.000000
 10
586.250000
 20
426.184301
 30
0.000000
 10
590.404966
 20
423.779374
 30
0.000000
 10
595.199230
 20
422.494755
 30
0.000000
 10
600.000000
 20
422.500000
 30
0.000000
  0
SPLINE
  5
106
330
1F
100
AcDbEntity
  8
0
 62
     0
100
AcDbSpline
210
0.000000
220
0.000000
230
1.0
 70
     8
 71
     3
 72
     8
 73
     4
 42
0.0000000001
 43
0.0000000001
 44
0.0000000001
 12
0.000000
 22
0.000000
 32
0.000000
 13
0.000000
 23
0.000000
 33
0.000000
 40
0.000000
 40
0.000000
 40
0.000000
 40
0.000000
 40
1.000000
 40
1.000000
 40
1.000000
 40
1.000000
 10
600.000000
 20
422.500000
 30
0.000000
 10
604.800770
 20
422.494755
 30
0.000000
 10
609.595034
 20
423.779374
 30
0.000000
 10
613.750000
 20
426.184301
 30
0.000000
  0
SPLINE
  5
107
330
1F
100
AcDbEntity
  8
0
 62
     0
100
AcDbSpline
210
0.000000
220
0.000000
230
1.0
 70
     8
 71
     3
 72
     8
 73
     4
 42
0.0000000001
 43
0.0000000001
 44
0.0000000001
 12
0.000000
 22
0.000000
 32
0.000000
 13
0.000000
 23
0.000000
 33
0.000000
 40
0.000000
 40
0.000000
 40
0.000000
 40
0.000000
 40
1.000000
 40
1.000000
 40
1.000000
 40
1.000000
 10
613.750000
 20
426.184301
 30
0.000000
 10
617.910212
 20
428.580144
 30
0.000000
 10
621.419856
 20
432.089788
 30
0.000000
 10
623.815699
 20
436.250000
 30
0.000000
  0
SPLINE
  5
108
330
1F
100
AcDbEntity
  8
0
 62
     0
100
AcDbSpline
210
0.000000
220
0.000000
230
1.0
 70
     8
 71
     3
 72
     8
 73
     4
 42
0.0000000001
 43
0.0000000001
 44
0.0000000001
 12
0.000000
 22
0.000000
 32
0.000000
 13
0.000000
 23
0.000000
 33
0.000000
 40
0.000000
 40
0.000000
 40
0.000000
 40
0.000000
 40
1.000000
 40
1.000000
 40
1.000000
 40
1.000000
 10
623.815699
 20
436.250000
 30
0.000000
 10
626.220626
 20
440.404966
 30
0.000000
 10
627.505245
 20
445.199230
 30
0.000000
 10
627.500000
 20
450.000000
 30
0.000000
  0
SPLINE
  5
109
330
1F
100
AcDbEntity
  8
0
 62
     0
100
AcDbSpline
210
0.000000
220
0.000000
230
1.0
 70
     8
 71
     3
 72
     8
 73
     4
 42
0.0000000001
 43
0.0000000001
 44
0.0000000001
 12
0.000000
 22
0.000000
 32
0.000000
 13
0.000000
 23
0.000000
 33
0.000000
 40
0.000000
 40
0.000000
 40
0.000000
 40
0.000000
 40
1.000000
 40
1.000000
 40
1.000000
 40
1.000000
 10
627.500000
 20
450.000000
 30
0.000000
 10
627.505245
 20
454.800770
 30
0.000000
 10
626.220626
 20
459.595034
 30
0.000000
 10
623.815699
 20
463.750000
 30
0.000000
  0
SPLINE
  5
110
330
1F
100
AcDbEntity
  8
0
 62
     0
100
AcDbSpline
210
0.000000
220
0.000000
230
1.0
 70
     8
 71
     3
 72
     8
 73
     4
 42
0.0000000001
 43
0.0000000001
 44
0.0000000001
 12
0.000000
 22
0.000000
 32
0.000000
 13
0.000000
 23
0.000000
 33
0.000000
 40
0.000000
 40
0.000000
 40
0.000000
 40
0.000000
 40
1.000000
 40
1.000000
 40
1.000000
 40
1.000000
 10
623.815699
 20
463.750000
 30
0.000000
 10
621.419856
 20
467.910212
 30
0.000000
 10
617.910212
 20
471.419856
 30
0.000000
 10
613.750000
 20
473.815699
 30
0.000000
  0
SPLINE
  5
111
330
1F
100
AcDbEntity
  8
0
 62
     0
100
AcDbSpline
210
0.000000
220
0.000000
230
1.0
 70
     8
 71
     3
 72
     8
 73
     4
 42
0.0000000001
 43
0.0000000001
 44
0.0000000001
 12
0.000000
 22
0.000000
 32
0.000000
 13
0.000000
 23
0.000000
 33
0.000000
 40
0.000000
 40
0.000000
 40
0.000000
 40
0.000000
 40
1.000000
 40
1.000000
 40
1.000000
 40
1.000000
 10
613.750000
 20
473.815699
 30
0.000000
 10
609.595034
 20
476.220626
 30
0.000000
 10
604.800770
 20
477.505245
 30
0.000000
 10
600.000000
 20
477.500000
 30
0.000000
  0
SPLINE
  5
112
330
1F
100
AcDbEntity
  8
0
 62
     7
100
AcDbSpline
210
0.000000
220
0.000000
230
1.0
 70
     8
 71
     3
 72
     8
 73
     4
 42
0.0000000001
 43
0.0000000001
 44
0.0000000001
 12
0.000000
 22
0.000000
 32
0.000000
 13
0.000000
 23
0.000000
 33
0.000000
 40
0.000000
 40
0.000000
 40
0.000000
 40
0.000000
 40
1.000000
 40
1.000000
 40
1.000000
 40
1.000000
 10
582.500201
 20
450.000000
 30
0.000000
 10
582.496863
 20
453.055000
 30
0.000000
 10
583.314339
 20
456.105860
 30
0.000000
 10
584.844730
 20
458.749899
 30
0.000000
  0
SPLINE
  5
113
330
1F
100
AcDbEntity
  8
0
 62
     7
100
AcDbSpline
210
0.000000
220
0.000000
230
1.0
 70
     8
 71
     3
 72
     8
 73
     4
 42
0.0000000001
 43
0.0000000001
 44
0.0000000001
 12
0.000000
 22
0.000000
 32
0.000000
 13
0.000000
 23
0.000000
 33
0.000000
 40
0.000000
 40
0.000000
 40
0.000000
 40
0.000000
 40
1.000000
 40
1.000000
 40
1.000000
 40
1.000000
 10
584.844730
 20
458.749899
 30
0.000000
 10
586.369339
 20
461.397276
 30
0.000000
 10
588.602724
 20
463.630661
 30
0.000000
 10
591.250101
 20
465.155270
 30
0.000000
  0
SPLINE
  5
114
330
1F
100
AcDbEntity
  8
0
 62
     7
100
AcDbSpline
210
0.000000
220
0.000000
230
1.0
 70
     8
 71
     3
 72
     8
 73
     4
 42
0.0000000001
 43
0.0000000001
 44
0.0000000001
 12
0.000000
 22
0.000000
 32
0.000000
 13
0.000000
 23
0.000000
 33
0.000000
 40
0.000000
 40
0.000000
 40
0.000000
 40
0.000000
 40
1.000000
 40
1.000000
 40
1.000000
 40
1.000000
 10
591.250101
 20
465.155270
 30
0.000000
 10
593.894140
 20
466.685661
 30
0.000000
 10
596.945000
 20
467.503137
 30
0.000000
 10
600.000000
 20
467.499799
 30
0.000000
  0
SPLINE
  5
115
330
1F
100
AcDbEntity
  8
0
 62
     7
100
AcDbSpline
210
0.000000
220
0.000000
230
1.0
 70
     8
 71
     3
 72
     8
 73
     4
 42
0.0000000001
 43
0.0000000001
 44
0.0000000001
 12
0.000000
 22
0.000000
 32
0.000000
 13
0.000000
 23
0.000000
 33
0.000000
 40
0.000000
 40
0.000000
 40
0.000000
 40
0.000000
 40
1.000000
 40
1.000000
 40
1.000000
 40
1.000000
 10
600.000000
 20
467.499799
 30
0.000000
 10
603.055000
 20
467.503137
 30
0.000000
 10
606.105860
 20
466.685661
 30
0.000000
 10
608.749899
 20
465.155270
 30
0.000000
  0
SPLINE
  5
116
330
1F
100
AcDbEntity
  8
0
 62
     7
100
AcDbSpline
210
0.000000
220
0.000000
230
1.0
 70
     8
 71
     3
 72
     8
 73
     4
 42
0.0000000001
 43
0.0000000001
 44
0.0000000001
 12
0.000000
 22
0.000000
 32
0.000000
 13
0.000000
 23
0.000000
 33
0.000000
 40
0.000000
 40
0.000000
 40
0.000000
 40
0.000000
 40
1.000000
 40
1.000000
 40
1.000000
 40
1.000000
 10
608.749899
 20
465.155270
 30
0.000000
 10
611.397276
 20
463.630661
 30
0.000000
 10
613.630661
 20
461.397276
 30
0.000000
 10
615.155270
 20
458.749899
 30
0.000000
  0
SPLINE
  5
117
330
1F
100
AcDbEntity
  8
0
 62
     7
100
AcDbSpline
210
0.000000
220
0.000000
230
1.0
 70
     8
 71
     3
 72
     8
 73
     4
 42
0.0000000001
 43
0.0000000001
 44
0.0000000001
 12
0.000000
 22
0.000000
 32
0.000000
 13
0.000000
 23
0.000000
 33
0.000000
 40
0.000000
 40
0.000000
 40
0.000000
 40
0.000000
 40
1.000000
 40
1.000000
 40
1.000000
 40
1.000000
 10
615.155270
 20
458.749899
 30
0.000000
 10
616.685661
 20
456.105860
 30
0.000000
 10
617.503137
 20
453.055000
 30
0.000000
 10
617.499799
 20
450.000000
 30
0.000000
  0
SPLINE
  5
118
330
1F
100
AcDbEntity
  8
0
 62
     7
100
AcDbSpline
210
0.000000
220
0.000000
230
1.0
 70
     8
 71
     3
 72
     8
 73
     4
 42
0.0000000001
 43
0.0000000001
 44
0.0000000001
 12
0.000000
 22
0.000000
 32
0.000000
 13
0.000000
 23
0.000000
 33
0.000000
 40
0.000000
 40
0.000000
 40
0.000000
 40
0.000000
 40
1.000000
 40
1.000000
 40
1.000000
 40
1.000000
 10
617.499799
 20
450.000000
 30
0.000000
 10
617.503137
 20
446.945000
 30
0.000000
 10
616.685661
 20
443.894140
 30
0.000000
 10
615.155270
 20
441.250101
 30
0.000000
  0
SPLINE
  5
119
330
1F
100
AcDbEntity
  8
0
 62
     7
100
AcDbSpline
210
0.000000
220
0.000000
230
1.0
 70
     8
 71
     3
 72
     8
 73
     4
 42
0.0000000001
 43
0.0000000001
 44
0.0000000001
 12
0.000000
 22
0.000000
 32
0.000000
 13
0.000000
 23
0.000000
 33
0.000000
 40
0.000000
 40
0.000000
 40
0.000000
 40
0.000000
 40
1.000000
 40
1.000000
 40
1.000000
 40
1.000000
 10
615.155270
 20
441.250101
 30
0.000000
 10
613.630661
 20
438.602724
 30
0.000000
 10
611.397276
 20
436.369339
 30
0.000000
 10
608.749899
 20
434.844730
 30
0.000000
  0
SPLINE
  5
120
330
1F
100
AcDbEntity
  8
0
 62
     7
100
AcDbSpline
210
0.000000
220
0.000000
230
1.0
 70
     8
 71
     3
 72
     8
 73
     4
 42
0.0000000001
 43
0.0000000001
 44
0.0000000001
 12
0.000000
 22
0.000000
 32
0.000000
 13
0.000000
 23
0.000000
 33
0.000000
 40
0.000000
 40
0.000000
 40
0.000000
 40
0.000000
 40
1.000000
 40
1.000000
 40
1.000000
 40
1.000000
 10
608.749899
 20
434.844730
 30
0.000000
 10
606.105860
 20
433.314339
 30
0.000000
 10
603.055000
 20
432.496863
 30
0.000000
 10
600.000000
 20
432.500201
 30
0.000000
  0
SPLINE
  5
121
330
1F
100
AcDbEntity
  8
0
 62
     7
100
AcDbSpline
210
0.000000
220
0.000000
230
1.0
 70
     8
 71
     3
 72
     8
 73
     4
 42
0.0000000001
 43
0.0000000001
 44
0.0000000001
 12
0.000000
 22
0.000000
 32
0.000000
 13
0.000000
 23
0.000000
 33
0.000000
 40
0.000000
 40
0.000000
 40
0.000000
 40
0.000000
 40
1.000000
 40
1.000000
 40
1.000000
 40
1.000000
 10
600.000000
 20
432.500201
 30
0.000000
 10
596.945000
 20
432.496863
 30
0.000000
 10
593.894140
 20
433.314339
 30
0.000000
 10
591.250101
 20
434.844730
 30
0.000000
  0
SPLINE
  5
122
330
1F
100
AcDbEntity
  8
0
 62
     7
100
AcDbSpline
210
0.000000
220
0.000000
230
1.0
 70
     8
 71
     3
 72
     8
 73
     4
 42
0.0000000001
 43
0.0000000001
 44
0.0000000001
 12
0.000000
 22
0.000000
 32
0.000000
 13
0.000000
 23
0.000000
 33
0.000000
 40
0.000000
 40
0.000000
 40
0.000000
 40
0.000000
 40
1.000000
 40
1.000000
 40
1.000000
 40
1.000000
 10
591.250101
 20
434.844730
 30
0.000000
 10
588.602724
 20
436.369339
 30
0.000000
 10
586.369339
 20
438.602724
 30
0.000000
 10
584.844730
 20
441.250101
 30
0.000000
  0
SPLINE
  5
123
330
1F
100
AcDbEntity
  8
0
 62
     7
100
AcDbSpline
210
0.000000
220
0.000000
230
1.0
 70
     8
 71
     3
 72
     8
 73
     4
 42
0.0000000001
 43
0.0000000001
 44
0.0000000001
 12
0.000000
 22
0.000000
 32
0.000000
 13
0.000000
 23
0.000000
 33
0.000000
 40
0.000000
 40
0.000000
 40
0.000000
 40
0.000000
 40
1.000000
 40
1.000000
 40
1.000000
 40
1.000000
 10
584.844730
 20
441.250101
 30
0.000000
 10
583.314339
 20
443.894140
 30
0.000000
 10
582.496863
 20
446.945000
 30
0.000000
 10
582.500201
 20
450.000000
 30
0.000000
  0
LINE
  5
124
330
1F
100
AcDbEntity
  8
0
  62
8
100
AcDbLine
 10
574.349986
 20
478.174355
 30
0.000000
 11
625.650014
 21
478.174355
 31
0.000000
  0
LINE
  5
125
330
1F
100
AcDbEntity
  8
0
  62
8
100
AcDbLine
 10
625.650014
 20
478.174355
 30
0.000000
 11
625.650014
 21
424.850033
 31
0.000000
  0
LINE
  5
126
330
1F
100
AcDbEntity
  8
0
  62
8
100
AcDbLine
 10
625.650014
 20
424.850033
 30
0.000000
 11
574.349986
 21
424.850033
 31
0.000000
  0
LINE
  5
127
330
1F
100
AcDbEntity
  8
0
  62
8
100
AcDbLine
 10
574.349986
 20
424.850033
 30
0.000000
 11
574.349986
 21
478.174355
 31
0.000000
  0
SPLINE
  5
128
330
1F
100
AcDbEntity
  8
0
 62
     8
100
AcDbSpline
210
0.000000
220
0.000000
230
1.0
 70
     8
 71
     3
 72
     8
 73
     4
 42
0.0000000001
 43
0.0000000001
 44
0.0000000001
 12
0.000000
 22
0.000000
 32
0.000000
 13
0.000000
 23
0.000000
 33
0.000000
 40
0.000000
 40
0.000000
 40
0.000000
 40
0.000000
 40
1.000000
 40
1.000000
 40
1.000000
 40
1.000000
 10
583.500190
 20
450.000000
 30
0.000000
 10
583.497042
 20
452.880429
 30
0.000000
 10
584.267805
 20
455.756954
 30
0.000000
 10
585.710745
 20
458.249905
 30
0.000000
  0
SPLINE
  5
129
330
1F
100
AcDbEntity
  8
0
 62
     8
100
AcDbSpline
210
0.000000
220
0.000000
230
1.0
 70
     8
 71
     3
 72
     8
 73
     4
 42
0.0000000001
 43
0.0000000001
 44
0.0000000001
 12
0.000000
 22
0.000000
 32
0.000000
 13
0.000000
 23
0.000000
 33
0.000000
 40
0.000000
 40
0.000000
 40
0.000000
 40
0.000000
 40
1.000000
 40
1.000000
 40
1.000000
 40
1.000000
 10
585.710745
 20
458.249905
 30
0.000000
 10
587.148234
 20
460.746003
 30
0.000000
 10
589.253997
 20
462.851766
 30
0.000000
 10
591.750095
 20
464.289255
 30
0.000000
  0
SPLINE
  5
130
330
1F
100
AcDbEntity
  8
0
 62
     8
100
AcDbSpline
210
0.000000
220
0.000000
230
1.0
 70
     8
 71
     3
 72
     8
 73
     4
 42
0.0000000001
 43
0.0000000001
 44
0.0000000001
 12
0.000000
 22
0.000000
 32
0.000000
 13
0.000000
 23
0.000000
 33
0.000000
 40
0.000000
 40
0.000000
 40
0.000000
 40
0.000000
 40
1.000000
 40
1.000000
 40
1.000000
 40
1.000000
 10
591.750095
 20
464.289255
 30
0.000000
 10
594.243046
 20
465.732195
 30
0.000000
 10
597.119571
 20
466.502958
 30
0.000000
 10
600.000000
 20
466.499810
 30
0.000000
  0
SPLINE
  5
131
330
1F
100
AcDbEntity
  8
0
 62
     8
100
AcDbSpline
210
0.000000
220
0.000000
230
1.0
 70
     8
 71
     3
 72
     8
 73
     4
 42
0.0000000001
 43
0.0000000001
 44
0.0000000001
 12
0.000000
 22
0.000000
 32
0.000000
 13
0.000000
 23
0.000000
 33
0.000000
 40
0.000000
 40
0.000000
 40
0.000000
 40
0.000000
 40
1.000000
 40
1.000000
 40
1.000000
 40
1.000000
 10
600.000000
 20
466.499810
 30
0.000000
 10
602.880429
 20
466.502958
 30
0.000000
 10
605.756954
 20
465.732195
 30
0.000000
 10
608.249905
 20
464.289255
 30
0.000000
  0
SPLINE
  5
132
330
1F
100
AcDbEntity
  8
0
 62
     8
100
AcDbSpline
210
0.000000
220
0.000000
230
1.0
 70
     8
 71
     3
 72
     8
 73
     4
 42
0.0000000001
 43
0.0000000001
 44
0.0000000001
 12
0.000000
 22
0.000000
 32
0.000000
 13
0.000000
 23
0.000000
 33
0.000000
 40
0.000000
 40
0.000000
 40
0.000000
 40
0.000000
 40
1.000000
 40
1.000000
 40
1.000000
 40
1.000000
 10
608.249905
 20
464.289255
 30
0.000000
 10
610.746003
 20
462.851766
 30
0.000000
 10
612.851766
 20
460.746003
 30
0.000000
 10
614.289255
 20
458.249905
 30
0.000000
  0
SPLINE
  5
133
330
1F
100
AcDbEntity
  8
0
 62
     8
100
AcDbSpline
210
0.000000
220
0.000000
230
1.0
 70
     8
 71
     3
 72
     8
 73
     4
 42
0.0000000001
 43
0.0000000001
 44
0.0000000001
 12
0.000000
 22
0.000000
 32
0.000000
 13
0.000000
 23
0.000000
 33
0.000000
 40
0.000000
 40
0.000000
 40
0.000000
 40
0.000000
 40
1.000000
 40
1.000000
 40
1.000000
 40
1.000000
 10
614.289255
 20
458.249905
 30
0.000000
 10
615.732195
 20
455.756954
 30
0.000000
 10
616.502958
 20
452.880429
 30
0.000000
 10
616.499810
 20
450.000000
 30
0.000000
  0
SPLINE
  5
134
330
1F
100
AcDbEntity
  8
0
 62
     8
100
AcDbSpline
210
0.000000
220
0.000000
230
1.0
 70
     8
 71
     3
 72
     8
 73
     4
 42
0.0000000001
 43
0.0000000001
 44
0.0000000001
 12
0.000000
 22
0.000000
 32
0.000000
 13
0.000000
 23
0.000000
 33
0.000000
 40
0.000000
 40
0.000000
 40
0.000000
 40
0.000000
 40
1.000000
 40
1.000000
 40
1.000000
 40
1.000000
 10
616.499810
 20
450.000000
 30
0.000000
 10
616.502958
 20
447.119571
 30
0.000000
 10
615.732195
 20
444.243046
 30
0.000000
 10
614.289255
 20
441.750095
 30
0.000000
  0
SPLINE
  5
135
330
1F
100
AcDbEntity
  8
0
 62
     8
100
AcDbSpline
210
0.000000
220
0.000000
230
1.0
 70
     8
 71
     3
 72
     8
 73
     4
 42
0.0000000001
 43
0.0000000001
 44
0.0000000001
 12
0.000000
 22
0.000000
 32
0.000000
 13
0.000000
 23
0.000000
 33
0.000000
 40
0.000000
 40
0.000000
 40
0.000000
 40
0.000000
 40
1.000000
 40
1.000000
 40
1.000000
 40
1.000000
 10
614.289255
 20
441.750095
 30
0.000000
 10
612.851766
 20
439.253997
 30
0.000000
 10
610.746003
 20
437.148234
 30
0.000000
 10
608.249905
 20
435.710745
 30
0.000000
  0
SPLINE
  5
136
330
1F
100
AcDbEntity
  8
0
 62
     8
100
AcDbSpline
210
0.000000
220
0.000000
230
1.0
 70
     8
 71
     3
 72
     8
 73
     4
 42
0.0000000001
 43
0.0000000001
 44
0.0000000001
 12
0.000000
 22
0.000000
 32
0.000000
 13
0.000000
 23
0.000000
 33
0.000000
 40
0.000000
 40
0.000000
 40
0.000000
 40
0.000000
 40
1.000000
 40
1.000000
 40
1.000000
 40
1.000000
 10
608.249905
 20
435.710745
 30
0.000000
 10
605.756954
 20
434.267805
 30
0.000000
 10
602.880429
 20
433.497042
 30
0.000000
 10
600.000000
 20
433.500190
 30
0.000000
  0
SPLINE
  5
137
330
1F
100
AcDbEntity
  8
0
 62
     8
100
AcDbSpline
210
0.000000
220
0.000000
230
1.0
 70
     8
 71
     3
 72
     8
 73
     4
 42
0.0000000001
 43
0.0000000001
 44
0.0000000001
 12
0.000000
 22
0.000000
 32
0.000000
 13
0.000000
 23
0.000000
 33
0.000000
 40
0.000000
 40
0.000000
 40
0.000000
 40
0.000000
 40
1.000000
 40
1.000000
 40
1.000000
 40
1.000000
 10
600.000000
 20
433.500190
 30
0.000000
 10
597.119571
 20
433.497042
 30
0.000000
 10
594.243046
 20
434.267805
 30
0.000000
 10
591.750095
 20
435.710745
 30
0.000000
  0
SPLINE
  5
138
330
1F
100
AcDbEntity
  8
0
 62
     8
100
AcDbSpline
210
0.000000
220
0.000000
230
1.0
 70
     8
 71
     3
 72
     8
 73
     4
 42
0.0000000001
 43
0.0000000001
 44
0.0000000001
 12
0.000000
 22
0.000000
 32
0.000000
 13
0.000000
 23
0.000000
 33
0.000000
 40
0.000000
 40
0.000000
 40
0.000000
 40
0.000000
 40
1.000000
 40
1.000000
 40
1.000000
 40
1.000000
 10
591.750095
 20
435.710745
 30
0.000000
 10
589.253997
 20
437.148234
 30
0.000000
 10
587.148234
 20
439.253997
 30
0.000000
 10
585.710745
 20
441.750095
 30
0.000000
  0
SPLINE
  5
139
330
1F
100
AcDbEntity
  8
0
 62
     8
100
AcDbSpline
210
0.000000
220
0.000000
230
1.0
 70
     8
 71
     3
 72
     8
 73
     4
 42
0.0000000001
 43
0.0000000001
 44
0.0000000001
 12
0.000000
 22
0.000000
 32
0.000000
 13
0.000000
 23
0.000000
 33
0.000000
 40
0.000000
 40
0.000000
 40
0.000000
 40
0.000000
 40
1.000000
 40
1.000000
 40
1.000000
 40
1.000000
 10
585.710745
 20
441.750095
 30
0.000000
 10
584.267805
 20
444.243046
 30
0.000000
 10
583.497042
 20
447.119571
 30
0.000000
 10
583.500190
 20
450.000000
 30
0.000000
 0
ENDSEC
  0
SECTION
  2
OBJECTS
  0
DICTIONARY
  5
C
330
0
100
AcDbDictionary
  3
ACAD_GROUP
350
D
  3
ACAD_LAYOUT
350
1A
  3
ACAD_MLINESTYLE
350
17
  3
ACAD_PLOTSETTINGS
350
19
1001
ACAD
1000
TREAT_AS_HARD
1070
     0
  0
DICTIONARY
  5
46
330
1F
100
AcDbDictionary
  3
ACAD_LAYOUTSELFREF
350
47
  0
DICTIONARY
  5
44
330
1B
100
AcDbDictionary
  3
ACAD_LAYOUTSELFREF
350
45
  0
DICTIONARY
  5
D
102
{ACAD_REACTORS
330
C
102
}
330
C
100
AcDbDictionary
1001
ACAD
1000
TREAT_AS_HARD
1070
     0
  0
DICTIONARY
  5
1A
102
{ACAD_REACTORS
330
C
102
}
330
C
100
AcDbDictionary
1001
ACAD
1000
TREAT_AS_HARD
1070
     0
  0
DICTIONARY
  5
17
102
{ACAD_REACTORS
330
C
102
}
330
C
100
AcDbDictionary
  3
STANDARD
350
18
1001
ACAD
1000
TREAT_AS_HARD
1070
     0
  0
DICTIONARY
  5
19
102
{ACAD_REACTORS
330
C
102
}
330
C
100
AcDbDictionary
1001
ACAD
1000
TREAT_AS_HARD
1070
     0
  0
XRECORD
  5
47
102
{ACAD_REACTORS
330
46
102
}
330
46
100
AcDbXrecord
340
1F
  0
XRECORD
  5
45
102
{ACAD_REACTORS
330
44
102
}
330
44
100
AcDbXrecord
340
1B
  0
MLINESTYLE
  5
18
102
{ACAD_REACTORS
330
17
102
}
330
17
100
AcDbMlineStyle
  2
STANDARD
 70
     0
  3

 62
   256
 51
90.0
 52
90.0
 71
     2
 49
0.5
 62
   256
  6
BYLAYER
 49
-0.5
 62
   256
  6
BYLAYER
  0
ENDSEC
  0
EOF
