  0
SECTION
  2
HEADER
  9
$ACADVER
  1
AC1009
  9
$DWGCODEPAGE
  3
ansi_1252
  9
$INSBASE
 10
0.0
 20
0.0
 30
0.0
  9
$EXTMIN
 10
-44.04271549999618
 20
-45.24614689244763
 30
0.0
  9
$EXTMAX
 10
44.95728450000382
 20
44.09233911613182
 30
0.0
  9
$LIMMIN
 10
0.0
 20
0.0
  9
$LIMMAX
 10
12.0
 20
9.0
  9
$ORTHOMODE
 70
     0
  9
$REGENMODE
 70
     1
  9
$FILLMODE
 70
     1
  9
$QTEXTMODE
 70
     0
  9
$MIRRTEXT
 70
     1
  9
$DRAGMODE
 70
     2
  9
$LTSCALE
 40
1.0
  9
$OSMODE
 70
    37
  9
$ATTMODE
 70
     1
  9
$TEXTSIZE
 40
0.2
  9
$TRACEWID
 40
0.05
  9
$TEXTSTYLE
  7
STANDARD
  9
$CLAYER
  8
0
  9
$CELTYPE
  6
BYLAYER
  9
$CECOLOR
 62
   256
  9
$DIMSCALE
 40
1.0
  9
$DIMASZ
 40
0.18
  9
$DIMEXO
 40
0.0625
  9
$DIMDLI
 40
0.38
  9
$DIMRND
 40
0.0
  9
$DIMDLE
 40
0.0
  9
$DIMEXE
 40
0.18
  9
$DIMTP
 40
0.0
  9
$DIMTM
 40
0.0
  9
$DIMTXT
 40
0.18
  9
$DIMCEN
 40
0.09
  9
$DIMTSZ
 40
0.0
  9
$DIMTOL
 70
     0
  9
$DIMLIM
 70
     0
  9
$DIMTIH
 70
     1
  9
$DIMTOH
 70
     1
  9
$DIMSE1
 70
     0
  9
$DIMSE2
 70
     0
  9
$DIMTAD
 70
     0
  9
$DIMZIN
 70
     0
  9
$DIMBLK
  1

  9
$DIMASO
 70
     1
  9
$DIMSHO
 70
     1
  9
$DIMPOST
  1

  9
$DIMAPOST
  1

  9
$DIMALT
 70
     0
  9
$DIMALTD
 70
     2
  9
$DIMALTF
 40
25.4
  9
$DIMLFAC
 40
1.0
  9
$DIMTOFL
 70
     0
  9
$DIMTVP
 40
0.0
  9
$DIMTIX
 70
     0
  9
$DIMSOXD
 70
     0
  9
$DIMSAH
 70
     0
  9
$DIMBLK1
  1

  9
$DIMBLK2
  1

  9
$DIMSTYLE
  2
STANDARD
  9
$DIMCLRD
 70
     0
  9
$DIMCLRE
 70
     0
  9
$DIMCLRT
 70
     0
  9
$DIMTFAC
 40
1.0
  9
$DIMGAP
 40
0.09
  9
$LUNITS
 70
     2
  9
$LUPREC
 70
     4
  9
$SKETCHINC
 40
0.1
  9
$FILLETRAD
 40
0.5
  9
$AUNITS
 70
     0
  9
$AUPREC
 70
     0
  9
$MENU
  1
.
  9
$ELEVATION
 40
0.0
  9
$PELEVATION
 40
0.0
  9
$THICKNESS
 40
0.0
  9
$LIMCHECK
 70
     0
  9
$CHAMFERA
 40
0.5
  9
$CHAMFERB
 40
0.5
  9
$SKPOLY
 70
     0
  9
$TDCREATE
 40
2454910.5
  9
$TDUPDATE
 40
2457666.016609606
  9
$TDINDWG
 40
0.0000000116
  9
$TDUSRTIMER
 40
0.0000000116
  9
$USRTIMER
 70
     1
  9
$ANGBASE
 50
0.0
  9
$ANGDIR
 70
     0
  9
$PDMODE
 70
     0
  9
$PDSIZE
 40
0.0
  9
$PLINEWID
 40
0.0
  9
$COORDS
 70
     1
  9
$SPLFRAME
 70
     0
  9
$SPLINETYPE
 70
     6
  9
$SPLINESEGS
 70
     8
  9
$ATTDIA
 70
     0
  9
$ATTREQ
 70
     1
  9
$HANDLING
 70
     1
  9
$HANDSEED
  5
761
  9
$SURFTAB1
 70
     6
  9
$SURFTAB2
 70
     6
  9
$SURFTYPE
 70
     6
  9
$SURFU
 70
     6
  9
$SURFV
 70
     6
  9
$UCSNAME
  2

  9
$UCSORG
 10
0.0
 20
0.0
 30
0.0
  9
$UCSXDIR
 10
1.0
 20
0.0
 30
0.0
  9
$UCSYDIR
 10
0.0
 20
1.0
 30
0.0
  9
$PUCSNAME
  2

  9
$PUCSORG
 10
0.0
 20
0.0
 30
0.0
  9
$PUCSXDIR
 10
1.0
 20
0.0
 30
0.0
  9
$PUCSYDIR
 10
0.0
 20
1.0
 30
0.0
  9
$USERI1
 70
     0
  9
$USERI2
 70
     0
  9
$USERI3
 70
     0
  9
$USERI4
 70
     0
  9
$USERI5
 70
     0
  9
$USERR1
 40
0.0
  9
$USERR2
 40
0.0
  9
$USERR3
 40
0.0
  9
$USERR4
 40
0.0
  9
$USERR5
 40
0.0
  9
$WORLDVIEW
 70
     1
  9
$SHADEDGE
 70
     3
  9
$SHADEDIF
 70
    70
  9
$TILEMODE
 70
     1
  9
$MAXACTVP
 70
    64
  9
$PLIMCHECK
 70
     0
  9
$PEXTMIN
 10
1.000000000000000E+20
 20
1.000000000000000E+20
 30
1.000000000000000E+20
  9
$PEXTMAX
 10
-1.000000000000000E+20
 20
-1.000000000000000E+20
 30
-1.000000000000000E+20
  9
$PLIMMIN
 10
0.0
 20
0.0
  9
$PLIMMAX
 10
12.0
 20
9.0
  9
$UNITMODE
 70
     0
  9
$VISRETAIN
 70
     1
  9
$PLINEGEN
 70
     0
  9
$PSLTSCALE
 70
     1
  0
ENDSEC
  0
SECTION
  2
TABLES
  0
TABLE
  2
VPORT
 70
     1
  0
VPORT
  2
*ACTIVE
 70
     0
 10
0.0
 20
0.0
 11
1.0
 21
1.0
 12
10.42990654205607
 22
4.5
 13
0.0
 23
0.0
 14
0.5
 24
0.5
 15
0.5
 25
0.5
 16
0.0
 26
0.0
 36
1.0
 17
0.0
 27
0.0
 37
0.0
 40
9.0
 41
1.972972972850329
 42
50.0
 43
0.0
 44
0.0
 50
0.0
 51
0.0
 71
     0
 72
   100
 73
     1
 74
     3
 75
     0
 76
     0
 77
     0
 78
     0
  0
ENDTAB
  0
TABLE
  2
LTYPE
 70
     2
  0
LTYPE
  2
CONTINUOUS
 70
     0
  3
Solid line
 72
    65
 73
     0
 40
0.0
  0
LTYPE
  2
CONTINUOUS2
 70
     0
  3
Solid Line
 72
    65
 73
     0
 40
0.0
  0
ENDTAB
  0
TABLE
  2
LAYER
 70
     1
  0
LAYER
  2
0
 70
     0
 62
     7
  6
CONTINUOUS
  0
ENDTAB
  0
TABLE
  2
STYLE
 70
     1
  0
STYLE
  2
STANDARD
 70
     0
 40
0.0
 41
1.0
 50
0.0
 71
     0
 42
0.2
  3
txt
  4

  0
ENDTAB
  0
TABLE
  2
VIEW
 70
     0
  0
ENDTAB
  0
TABLE
  2
UCS
 70
     0
  0
ENDTAB
  0
TABLE
  2
APPID
 70
     1
  0
APPID
  2
ACAD
 70
     0
  0
ENDTAB
  0
TABLE
  2
DIMSTYLE
 70
     1
  0
DIMSTYLE
  2
STANDARD
 70
     0
  3

  4

  5

  6

  7

 40
1.0
 41
0.18
 42
0.0625
 43
0.38
 44
0.18
 45
0.0
 46
0.0
 47
0.0
 48
0.0
140
0.18
141
0.09
142
0.0
143
25.4
144
1.0
145
0.0
146
1.0
147
0.09
 71
     0
 72
     0
 73
     1
 74
     1
 75
     0
 76
     0
 77
     0
 78
     0
170
     0
171
     2
172
     0
173
     0
174
     0
175
     0
176
     0
177
     0
178
     0
  0
ENDTAB
  0
ENDSEC
  0
SECTION
  2
BLOCKS
  0
BLOCK
  8
0
  2
$MODEL_SPACE
 70
     0
 10
0.0
 20
0.0
 30
0.0
  3
$MODEL_SPACE
  1

  0
ENDBLK
  5
21
  8
0
  0
BLOCK
 67
     1
  8
0
  2
$PAPER_SPACE
 70
     0
 10
0.0
 20
0.0
 30
0.0
  3
$PAPER_SPACE
  1

  0
ENDBLK
  5
1D
 67
     1
  8
0
  0
ENDSEC
  0
SECTION
  2
ENTITIES
  0
POLYLINE
  5
40
  8
0
 66
     1
 10
0.0
 20
0.0
 30
0.0
 70
     1
  0
VERTEX
  5
4A
  8
0
 10
-3.358705377743855
 20
15.15264252699613
 30
0.0
  0
VERTEX
  5
4B
  8
0
 10
-3.588724530085179
 20
15.10483932918941
 30
0.0
  0
VERTEX
  5
4C
  8
0
 10
-3.860102799913293
 20
15.04381976506228
 30
0.0
  0
VERTEX
  5
4D
  8
0
 10
-4.130454724980229
 20
14.9783968020241
 30
0.0
  0
VERTEX
  5
4E
  8
0
 10
-4.399708678141046
 20
14.90858963266704
 30
0.0
  0
VERTEX
  5
4F
  8
0
 10
-4.667793032250917
 20
14.83441744958317
 30
0.0
  0
VERTEX
  5
50
  8
0
 10
-4.934636160164819
 20
14.75589944536452
 30
0.0
  0
VERTEX
  5
51
  8
0
 10
-5.200166434737978
 20
14.67305481260321
 30
0.0
  0
VERTEX
  5
52
  8
0
 10
-5.464312228825401
 20
14.58590274389117
 30
0.0
  0
VERTEX
  5
53
  8
0
 10
-5.727001915281982
 20
14.49446243182067
 30
0.0
  0
VERTEX
  5
54
  8
0
 10
-5.988163866962894
 20
14.39875306898362
 30
0.0
  0
VERTEX
  5
55
  8
0
 10
-6.247726456723314
 20
14.29879384797221
 30
0.0
  0
VERTEX
  5
56
  8
0
 10
-6.505618057418226
 20
14.19460396137847
 30
0.0
  0
VERTEX
  5
57
  8
0
 10
-6.76176704190281
 20
14.08620260179442
 30
0.0
  0
VERTEX
  5
58
  8
0
 10
-7.016101783031973
 20
13.97360896181219
 30
0.0
  0
VERTEX
  5
59
  8
0
 10
-7.268550653660861
 20
13.85684223402375
 30
0.0
  0
VERTEX
  5
5A
  8
0
 10
-7.519042026644499
 20
13.73592161102135
 30
0.0
  0
VERTEX
  5
5B
  8
0
 10
-7.76750427483814
 20
13.61086628539685
 30
0.0
  0
VERTEX
  5
5C
  8
0
 10
-8.01386577109657
 20
13.48169544974244
 30
0.0
  0
VERTEX
  5
5D
  8
0
 10
-8.258054888275183
 20
13.34842829665031
 30
0.0
  0
VERTEX
  5
5E
  8
0
 10
-8.49999999922865
 20
13.21108401871219
 30
0.0
  0
VERTEX
  5
5F
  8
0
 10
-8.739916170284522
 20
13.07022561468295
 30
0.0
  0
VERTEX
  5
60
  8
0
 10
-8.977423449700883
 20
12.92538527813099
 30
0.0
  0
VERTEX
  5
61
  8
0
 10
-9.212469403518039
 20
12.77661544316326
 30
0.0
  0
VERTEX
  5
62
  8
0
 10
-9.44500159700505
 20
12.62396854433259
 30
0.0
  0
VERTEX
  5
63
  8
0
 10
-9.674967595431054
 20
12.46749701619181
 30
0.0
  0
VERTEX
  5
64
  8
0
 10
-9.902314964065667
 20
12.30725329329376
 30
0.0
  0
VERTEX
  5
65
  8
0
 10
-10.12699126817792
 20
12.14328981019143
 30
0.0
  0
VERTEX
  5
66
  8
0
 10
-10.34894407303708
 20
11.97565900143759
 30
0.0
  0
VERTEX
  5
67
  8
0
 10
-10.56812094391252
 20
11.80441330158508
 30
0.0
  0
VERTEX
  5
68
  8
0
 10
-10.78446944607339
 20
11.62960514518675
 30
0.0
  0
VERTEX
  5
69
  8
0
 10
-10.99793714478905
 20
11.45128696679551
 30
0.0
  0
VERTEX
  5
6A
  8
0
 10
-11.20847160532876
 20
11.2695112009642
 30
0.0
  0
VERTEX
  5
6B
  8
0
 10
-11.41602039296169
 20
11.08433028224567
 30
0.0
  0
VERTEX
  5
6C
  8
0
 10
-11.62053107295722
 20
10.89579664519278
 30
0.0
  0
VERTEX
  5
6D
  8
0
 10
-11.82195121058461
 20
10.70396272435839
 30
0.0
  0
VERTEX
  5
6E
  8
0
 10
-12.02022837111298
 20
10.50888095429536
 30
0.0
  0
VERTEX
  5
6F
  8
0
 10
-12.21531011981193
 20
10.31060376955654
 30
0.0
  0
VERTEX
  5
70
  8
0
 10
-12.40714402195031
 20
10.10918360469476
 30
0.0
  0
VERTEX
  5
71
  8
0
 10
-12.5956776427977
 20
9.904672894263012
 30
0.0
  0
VERTEX
  5
72
  8
0
 10
-12.78085854762322
 20
9.69712407281401
 30
0.0
  0
VERTEX
  5
73
  8
0
 10
-12.96263430169618
 20
9.486589574900542
 30
0.0
  0
VERTEX
  5
74
  8
0
 10
-13.14095247028585
 20
9.273121835075717
 30
0.0
  0
VERTEX
  5
75
  8
0
 10
-13.31576061866162
 20
9.056773287892254
 30
0.0
  0
VERTEX
  5
76
  8
0
 10
-13.48700631209254
 20
8.837596367902979
 30
0.0
  0
VERTEX
  5
77
  8
0
 10
-13.65463711584791
 20
8.615643509660787
 30
0.0
  0
VERTEX
  5
78
  8
0
 10
-13.81860059519705
 20
8.390967147718506
 30
0.0
  0
VERTEX
  5
79
  8
0
 10
-13.97884431540934
 20
8.163619716629071
 30
0.0
  0
VERTEX
  5
7A
  8
0
 10
-14.13531584175372
 20
7.933653650945271
 30
0.0
  0
VERTEX
  5
7B
  8
0
 10
-14.28796273949983
 20
7.701121385219984
 30
0.0
  0
VERTEX
  5
7C
  8
0
 10
-14.43673257391684
 20
7.466075354005993
 30
0.0
  0
VERTEX
  5
7D
  8
0
 10
-14.58157291027406
 20
7.228567991856345
 30
0.0
  0
VERTEX
  5
7E
  8
0
 10
-14.72243131384052
 20
6.98865173332371
 30
0.0
  0
VERTEX
  5
7F
  8
0
 10
-14.85977567773379
 20
6.746706709831351
 30
0.0
  0
VERTEX
  5
80
  8
0
 10
-14.99304290566478
 20
6.502517675193449
 30
0.0
  0
VERTEX
  5
81
  8
0
 10
-15.12221380619696
 20
6.256156255783246
 30
0.0
  0
VERTEX
  5
82
  8
0
 10
-15.24726918744984
 20
6.007694078745802
 30
0.0
  0
VERTEX
  5
83
  8
0
 10
-15.3681898575429
 20
5.757202771226105
 30
0.0
  0
VERTEX
  5
84
  8
0
 10
-15.48495662459538
 20
5.504753960368984
 30
0.0
  0
VERTEX
  5
85
  8
0
 10
-15.59755029672685
 20
5.25041927331938
 30
0.0
  0
VERTEX
  5
86
  8
0
 10
-15.70595168205683
 20
4.994270337222232
 30
0.0
  0
VERTEX
  5
87
  8
0
 10
-15.8101415887047
 20
4.736378779222477
 30
0.0
  0
VERTEX
  5
88
  8
0
 10
-15.91010082478956
 20
4.476816226465057
 30
0.0
  0
VERTEX
  5
89
  8
0
 10
-16.00581019843116
 20
4.215654306094908
 30
0.0
  0
VERTEX
  5
8A
  8
0
 10
-16.09725051774897
 20
3.952964645256917
 30
0.0
  0
VERTEX
  5
8B
  8
0
 10
-16.1844025908622
 20
3.688818871095966
 30
0.0
  0
VERTEX
  5
8C
  8
0
 10
-16.26724722589042
 20
3.423288610757105
 30
0.0
  0
VERTEX
  5
8D
  8
0
 10
-16.34576523095315
 20
3.156445491385163
 30
0.0
  0
VERTEX
  5
8E
  8
0
 10
-16.41993741416947
 20
2.888361140125133
 30
0.0
  0
VERTEX
  5
8F
  8
0
 10
-16.48974458365913
 20
2.619107184121902
 30
0.0
  0
VERTEX
  5
90
  8
0
 10
-16.55516754754147
 20
2.348755250520463
 30
0.0
  0
VERTEX
  5
91
  8
0
 10
-16.61618711393572
 20
2.077376966465697
 30
0.0
  0
VERTEX
  5
92
  8
0
 10
-16.67278409096168
 20
1.805043959102492
 30
0.0
  0
VERTEX
  5
93
  8
0
 10
-16.7249392867385
 20
1.53182785557584
 30
0.0
  0
VERTEX
  5
94
  8
0
 10
-16.77263350938557
 20
1.257800283030626
 30
0.0
  0
VERTEX
  5
95
  8
0
 10
-16.81584756702257
 20
0.9830328686117884
 30
0.0
  0
VERTEX
  5
96
  8
0
 10
-16.85456226776867
 20
0.7075972394642669
 30
0.0
  0
VERTEX
  5
97
  8
0
 10
-16.88875841974343
 20
0.4315650227330017
 30
0.0
  0
VERTEX
  5
98
  8
0
 10
-16.91841683106614
 20
0.1550078455629291
 30
0.0
  0
VERTEX
  5
99
  8
0
 10
-16.94351830985649
 20
-0.1220026649010646
 30
0.0
  0
VERTEX
  5
9A
  8
0
 10
-16.96404366423364
 20
-0.3993948815140405
 30
0.0
  0
VERTEX
  5
9B
  8
0
 10
-16.97997370231726
 20
-0.6770971771310601
 30
0.0
  0
VERTEX
  5
9C
  8
0
 10
-16.99128923222645
 20
-0.9550379246071806
 30
0.0
  0
VERTEX
  5
9D
  8
0
 10
-16.99797106208089
 20
-1.23314549679747
 30
0.0
  0
VERTEX
  5
9E
  8
0
 10
-17.0
 20
-1.51134826655715
 30
0.0
  0
VERTEX
  5
9F
  8
0
 10
-16.99797106209486
 20
-1.789550948981677
 30
0.0
  0
VERTEX
  5
A0
  8
0
 10
-16.99128923225523
 20
-2.06765843863896
 30
0.0
  0
VERTEX
  5
A1
  8
0
 10
-16.97997370236081
 20
-2.345599109274196
 30
0.0
  0
VERTEX
  5
A2
  8
0
 10
-16.96404366429203
 20
-2.623301333742625
 30
0.0
  0
VERTEX
  5
A3
  8
0
 10
-16.94351830992946
 20
-2.900693484899115
 30
0.0
  0
VERTEX
  5
A4
  8
0
 10
-16.91841683115386
 20
-3.177703935598795
 30
0.0
  0
VERTEX
  5
A5
  8
0
 10
-16.88875841984553
 20
-3.454261058696837
 30
0.0
  0
VERTEX
  5
A6
  8
0
 10
-16.85456226788531
 20
-3.730293227048136
 30
0.0
  0
VERTEX
  5
A7
  8
0
 10
-16.8158475671536
 20
-4.005728813507976
 30
0.0
  0
VERTEX
  5
A8
  8
0
 10
-16.77263350953108
 20
-4.280496190931304
 30
0.0
  0
VERTEX
  5
A9
  8
0
 10
-16.72493928689831
 20
-4.554523732173125
 30
0.0
  0
VERTEX
  5
AA
  8
0
 10
-16.67278409113565
 20
-4.827739810088725
 30
0.0
  0
VERTEX
  5
AB
  8
0
 10
-16.61618711412399
 20
-5.100072797532941
 30
0.0
  0
VERTEX
  5
AC
  8
0
 10
-16.55516754774371
 20
-5.371451067361002
 30
0.0
  0
VERTEX
  5
AD
  8
0
 10
-16.48974458387556
 20
-5.641802992427909
 30
0.0
  0
VERTEX
  5
AE
  8
0
 10
-16.41993741439988
 20
-5.911056945588782
 30
0.0
  0
VERTEX
  5
AF
  8
0
 10
-16.34576523119736
 20
-6.179141299698625
 30
0.0
  0
VERTEX
  5
B0
  8
0
 10
-16.26724722614862
 20
-6.445984427612609
 30
0.0
  0
VERTEX
  5
B1
  8
0
 10
-16.18440259113423
 20
-6.711514702185686
 30
0.0
  0
VERTEX
  5
B2
  8
0
 10
-16.09725051803467
 20
-6.975660496273026
 30
0.0
  0
VERTEX
  5
B3
  8
0
 10
-16.00581019873056
 20
-7.238350182729636
 30
0.0
  0
VERTEX
  5
B4
  8
0
 10
-15.91010082510266
 20
-7.499512134410629
 30
0.0
  0
VERTEX
  5
B5
  8
0
 10
-15.81014158903118
 20
-7.75907472417107
 30
0.0
  0
VERTEX
  5
B6
  8
0
 10
-15.70595168239693
 20
-8.016966324865962
 30
0.0
  0
VERTEX
  5
B7
  8
0
 10
-15.59755029708046
 20
-8.273115309350477
 30
0.0
  0
VERTEX
  5
B8
  8
0
 10
-15.48495662496237
 20
-8.527450050479676
 30
0.0
  0
VERTEX
  5
B9
  8
0
 10
-15.36818985792311
 20
-8.779898921108561
 30
0.0
  0
VERTEX
  5
BA
  8
0
 10
-15.24726918784346
 20
-9.030390294092255
 30
0.0
  0
VERTEX
  5
BB
  8
0
 10
-15.12221380660371
 20
-9.278852542285811
 30
0.0
  0
VERTEX
  5
BC
  8
0
 10
-14.99304290608472
 20
-9.525214038544409
 30
0.0
  0
VERTEX
  5
BD
  8
0
 10
-14.85977567816674
 20
-9.769403155722909
 30
0.0
  0
VERTEX
  5
BE
  8
0
 10
-14.72243131473074
 20
-10.01134826667658
 30
0.0
  0
VERTEX
  5
BF
  8
0
 10
-14.58157291073111
 20
-10.25126443773215
 30
0.0
  0
VERTEX
  5
C0
  8
0
 10
-14.43673257438661
 20
-10.48877171714872
 30
0.0
  0
VERTEX
  5
C1
  8
0
 10
-14.28796273998226
 20
-10.72381767096577
 30
0.0
  0
VERTEX
  5
C2
  8
0
 10
-14.13531584224838
 20
-10.95634986445278
 30
0.0
  0
VERTEX
  5
C3
  8
0
 10
-13.97884431591595
 20
-11.1863158628789
 30
0.0
  0
VERTEX
  5
C4
  8
0
 10
-13.81860059571589
 20
-11.41366323151341
 30
0.0
  0
VERTEX
  5
C5
  8
0
 10
-13.65463711637841
 20
-11.63833953562567
 30
0.0
  0
VERTEX
  5
C6
  8
0
 10
-13.48700631263479
 20
-11.86029234048482
 30
0.0
  0
VERTEX
  5
C7
  8
0
 10
-13.31576061921525
 20
-12.07946921136016
 30
0.0
  0
VERTEX
  5
C8
  8
0
 10
-13.14095247085102
 20
-12.29581771352113
 30
0.0
  0
VERTEX
  5
C9
  8
0
 10
-12.96263430227233
 20
-12.50928541223678
 30
0.0
  0
VERTEX
  5
CA
  8
0
 10
-12.78085854821044
 20
-12.71981987277639
 30
0.0
  0
VERTEX
  5
CB
  8
0
 10
-12.5956776433957
 20
-12.92736866040944
 30
0.0
  0
VERTEX
  5
CC
  8
0
 10
-12.407144022559
 20
-13.13187934040496
 30
0.0
  0
VERTEX
  5
CD
  8
0
 10
-12.21531012043102
 20
-13.33329947803233
 30
0.0
  0
VERTEX
  5
CE
  8
0
 10
-12.02022837174257
 20
-13.5315766385608
 30
0.0
  0
VERTEX
  5
CF
  8
0
 10
-11.82195121122418
 20
-13.72665838725965
 30
0.0
  0
VERTEX
  5
D0
  8
0
 10
-11.62053107360681
 20
-13.91849228939814
 30
0.0
  0
VERTEX
  5
D1
  8
0
 10
-11.41602039362101
 20
-14.10702591024543
 30
0.0
  0
VERTEX
  5
D2
  8
0
 10
-11.20847160599768
 20
-14.29220681507096
 30
0.0
  0
VERTEX
  5
D3
  8
0
 10
-10.99793714546748
 20
-14.47398256914403
 30
0.0
  0
VERTEX
  5
D4
  8
0
 10
-10.78446944676117
 20
-14.65230073773367
 30
0.0
  0
VERTEX
  5
D5
  8
0
 10
-10.56812094460933
 20
-14.82710888610936
 30
0.0
  0
VERTEX
  5
D6
  8
0
 10
-10.34894407374303
 20
-14.99835457954018
 30
0.0
  0
VERTEX
  5
D7
  8
0
 10
-10.12699126889262
 20
-15.16598538329556
 30
0.0
  0
VERTEX
  5
D8
  8
0
 10
-9.902314964788902
 20
-15.32994886264487
 30
0.0
  0
VERTEX
  5
D9
  8
0
 10
-9.67496759616274
 20
-15.49019258285699
 30
0.0
  0
VERTEX
  5
DA
  8
0
 10
-9.44500159774507
 20
-15.64666410920156
 30
0.0
  0
VERTEX
  5
DB
  8
0
 10
-9.212469404266233
 20
-15.79931100694766
 30
0.0
  0
VERTEX
  5
DC
  8
0
 10
-8.977423450457028
 20
-15.94808084136465
 30
0.0
  0
VERTEX
  5
DD
  8
0
 10
-8.739916171048343
 20
-16.0929211777217
 30
0.0
  0
VERTEX
  5
DE
  8
0
 10
-8.50000000077101
 20
-16.23377958128824
 30
0.0
  0
VERTEX
  5
DF
  8
0
 10
-8.258054889053009
 20
-16.37112394793865
 30
0.0
  0
VERTEX
  5
E0
  8
0
 10
-8.01386577188168
 20
-16.50439118378501
 30
0.0
  0
VERTEX
  5
E1
  8
0
 10
-7.767504275630041
 20
-16.63356209685729
 30
0.0
  0
VERTEX
  5
E2
  8
0
 10
-7.519042027442914
 20
-16.75861749474141
 30
0.0
  0
VERTEX
  5
E3
  8
0
 10
-7.268550654465599
 20
-16.87953818502307
 30
0.0
  0
VERTEX
  5
E4
  8
0
 10
-7.016101783842925
 20
-16.99630497528812
 30
0.0
  0
VERTEX
  5
E5
  8
0
 10
-6.761767042719586
 20
-17.10889867312245
 30
0.0
  0
VERTEX
  5
E6
  8
0
 10
-6.505618058240835
 20
-17.21730008611172
 30
0.0
  0
VERTEX
  5
E7
  8
0
 10
-6.247726457551272
 20
-17.3214900218418
 30
0.0
  0
VERTEX
  5
E8
  8
0
 10
-5.988163867796098
 20
-17.42144928789856
 30
0.0
  0
VERTEX
  5
E9
  8
0
 10
-5.72700191612013
 20
-17.51715869186768
 30
0.0
  0
VERTEX
  5
EA
  8
0
 10
-5.464312229668214
 20
-17.60859904133512
 30
0.0
  0
VERTEX
  5
EB
  8
0
 10
-5.200166435585457
 20
-17.69575114388656
 30
0.0
  0
VERTEX
  5
EC
  8
0
 10
-4.93463616101677
 20
-17.77859580710774
 30
0.0
  0
VERTEX
  5
ED
  8
0
 10
-4.667793033106844
 20
-17.85711383858467
 30
0.0
  0
VERTEX
  5
EE
  8
0
 10
-4.399708679000839
 20
-17.93128604590301
 30
0.0
  0
VERTEX
  5
EF
  8
0
 10
-4.130454725843638
 20
-18.00109323664852
 30
0.0
  0
VERTEX
  5
F0
  8
0
 10
-3.86010280078021
 20
-18.06651621840717
 30
0.0
  0
VERTEX
  5
F1
  8
0
 10
-3.588724530955298
 20
-18.12753579876465
 30
0.0
  0
VERTEX
  5
F2
  8
0
 10
-3.316391543513788
 20
-18.18413278530671
 30
0.0
  0
VERTEX
  5
F3
  8
0
 10
-3.043175465601143
 20
-18.23628798561923
 30
0.0
  0
VERTEX
  5
F4
  8
0
 10
-2.769147924361612
 20
-18.28398220728806
 30
0.0
  0
VERTEX
  5
F5
  8
0
 10
-2.494380546940575
 20
-18.327196257899
 30
0.0
  0
VERTEX
  5
F6
  8
0
 10
-2.218944960482808
 20
-18.36591094503781
 30
0.0
  0
VERTEX
  5
F7
  8
0
 10
-1.942912792133275
 20
-18.40010707629026
 30
0.0
  0
VERTEX
  5
F8
  8
0
 10
-1.666355669036834
 20
-18.42976545924213
 30
0.0
  0
VERTEX
  5
F9
  8
0
 10
-1.389345218338368
 20
-18.45486690147937
 30
0.0
  0
VERTEX
  5
FA
  8
0
 10
-1.111953067183121
 20
-18.47539221058756
 30
0.0
  0
VERTEX
  5
FB
  8
0
 10
-0.8342508427156716
 20
-18.49132219415278
 30
0.0
  0
VERTEX
  5
FC
  8
0
 10
-0.556310172080988
 20
-18.50263765976067
 30
0.0
  0
VERTEX
  5
FD
  8
0
 10
-0.2782026824240363
 20
-18.50931941499694
 30
0.0
  0
VERTEX
  5
FE
  8
0
 10
-0.0000000008899767
 20
-18.51134826744763
 30
0.0
  0
VERTEX
  5
FF
  8
0
 10
0.2782027697600328
 20
-18.50931941501093
 30
0.0
  0
VERTEX
  5
100
  8
0
 10
0.5563103419508189
 20
-18.50263765978943
 30
0.0
  0
VERTEX
  5
101
  8
0
 10
0.8342510894275503
 20
-18.49132219419639
 30
0.0
  0
VERTEX
  5
102
  8
0
 10
1.111953385045453
 20
-18.47539221064595
 30
0.0
  0
VERTEX
  5
103
  8
0
 10
1.389345601659451
 20
-18.45486690155233
 30
0.0
  0
VERTEX
  5
104
  8
0
 10
1.666356112124853
 20
-18.42976545932975
 30
0.0
  0
VERTEX
  5
105
  8
0
 10
1.942913289296443
 20
-18.40010707639237
 30
0.0
  0
VERTEX
  5
106
  8
0
 10
2.218945506029559
 20
-18.36591094515448
 30
0.0
  0
VERTEX
  5
107
  8
0
 10
2.494381135179179
 20
-18.32719625803006
 30
0.0
  0
VERTEX
  5
108
  8
0
 10
2.76914854960017
 20
-18.28398220743359
 30
0.0
  0
VERTEX
  5
109
  8
0
 10
3.043176122147841
 20
-18.23628798577911
 30
0.0
  0
VERTEX
  5
10A
  8
0
 10
3.316392225677281
 20
-18.18413278548078
 30
0.0
  0
VERTEX
  5
10B
  8
0
 10
3.588725233043469
 20
-18.12753579895281
 30
0.0
  0
VERTEX
  5
10C
  8
0
 10
3.860103517101354
 20
-18.06651621860944
 30
0.0
  0
VERTEX
  5
10D
  8
0
 10
4.130455450706273
 20
-18.00109323686495
 30
0.0
  0
VERTEX
  5
10E
  8
0
 10
4.399709406713066
 20
-17.93128604613333
 30
0.0
  0
VERTEX
  5
10F
  8
0
 10
4.667793757976961
 20
-17.85711383882899
 30
0.0
  0
VERTEX
  5
110
  8
0
 10
4.934636877352961
 20
-17.77859580736595
 30
0.0
  0
VERTEX
  5
111
  8
0
 10
5.200167137696047
 20
-17.69575114415855
 30
0.0
  0
VERTEX
  5
112
  8
0
 10
5.464312911861526
 20
-17.60859904162091
 30
0.0
  0
VERTEX
  5
113
  8
0
 10
5.727002572704349
 20
-17.51715869216726
 30
0.0
  0
VERTEX
  5
114
  8
0
 10
5.988164493079522
 20
-17.42144928821165
 30
0.0
  0
VERTEX
  5
115
  8
0
 10
6.2477270458423
 20
-17.32149002216849
 30
0.0
  0
VERTEX
  5
116
  8
0
 10
6.50561860384741
 20
-17.21730008645191
 30
0.0
  0
VERTEX
  5
117
  8
0
 10
6.761767539950178
 20
-17.10889867347606
 30
0.0
  0
VERTEX
  5
118
  8
0
 10
7.016102227005745
 20
-16.99630497565513
 30
0.0
  0
VERTEX
  5
119
  8
0
 10
7.268551037869132
 20
-16.87953818540339
 30
0.0
  0
VERTEX
  5
11A
  8
0
 10
7.519042345395096
 20
-16.75861749513493
 30
0.0
  0
VERTEX
  5
11B
  8
0
 10
7.767504522439168
 20
-16.63356209726402
 30
0.0
  0
VERTEX
  5
11C
  8
0
 10
8.013865941856242
 20
-16.50439118420487
 30
0.0
  0
VERTEX
  5
11D
  8
0
 10
8.258054976501104
 20
-16.3711239483717
 30
0.0
  0
VERTEX
  5
11E
  8
0
 10
8.499999999229253
 20
-16.23377958217846
 30
0.0
  0
VERTEX
  5
11F
  8
0
 10
8.739916258540177
 20
-16.09292117817885
 30
0.0
  0
VERTEX
  5
120
  8
0
 10
8.977423620697582
 20
-15.94808084183444
 30
0.0
  0
VERTEX
  5
121
  8
0
 10
9.212469651919513
 20
-15.79931100742998
 30
0.0
  0
VERTEX
  5
122
  8
0
 10
9.44500191765293
 20
-15.64666410969612
 30
0.0
  0
VERTEX
  5
123
  8
0
 10
9.674967983345137
 20
-15.49019258336379
 30
0.0
  0
VERTEX
  5
124
  8
0
 10
9.902315414442894
 20
-15.32994886316351
 30
0.0
  0
VERTEX
  5
125
  8
0
 10
10.12699177639382
 20
-15.16598538382615
 30
0.0
  0
VERTEX
  5
126
  8
0
 10
10.34894463464483
 20
-14.99835458008243
 30
0.0
  0
VERTEX
  5
127
  8
0
 10
10.56812155464307
 20
-14.82710888666308
 30
0.0
  0
VERTEX
  5
128
  8
0
 10
10.78447010183577
 20
-14.65230073829866
 30
0.0
  0
VERTEX
  5
129
  8
0
 10
10.99793784166976
 20
-14.47398256972017
 30
0.0
  0
VERTEX
  5
12A
  8
0
 10
11.20847233959268
 20
-14.29220681565819
 30
0.0
  0
VERTEX
  5
12B
  8
0
 10
11.41602116105134
 20
-14.10702591084344
 30
0.0
  0
VERTEX
  5
12C
  8
0
 10
11.62053187149299
 20
-13.91849229000674
 30
0.0
  0
VERTEX
  5
12D
  8
0
 10
11.82195203636475
 20
-13.72665838787874
 30
0.0
  0
VERTEX
  5
12E
  8
0
 10
12.02022922111367
 20
-13.5315766391902
 30
0.0
  0
VERTEX
  5
12F
  8
0
 10
12.21531099118706
 20
-13.33329947867192
 30
0.0
  0
VERTEX
  5
130
  8
0
 10
12.40714491203195
 20
-13.13187934105445
 30
0.0
  0
VERTEX
  5
131
  8
0
 10
12.59567854909549
 20
-12.92736866106874
 30
0.0
  0
VERTEX
  5
132
  8
0
 10
12.78085946782479
 20
-12.71981987344542
 30
0.0
  0
VERTEX
  5
133
  8
0
 10
12.962635233667
 20
-12.50928541291523
 30
0.0
  0
VERTEX
  5
134
  8
0
 10
13.14095341206944
 20
-12.29581771420879
 30
0.0
  0
VERTEX
  5
135
  8
0
 10
13.31576156847904
 20
-12.07946921205706
 30
0.0
  0
VERTEX
  5
136
  8
0
 10
13.48700726834313
 20
-11.86029234119066
 30
0.0
  0
VERTEX
  5
137
  8
0
 10
13.65463807710856
 20
-11.63833953634025
 30
0.0
  0
VERTEX
  5
138
  8
0
 10
13.81860156022275
 20
-11.41366323223665
 30
0.0
  0
VERTEX
  5
139
  8
0
 10
13.97884528313272
 20
-11.18631586361058
 30
0.0
  0
VERTEX
  5
13A
  8
0
 10
14.1353168112856
 20
-10.95634986519271
 30
0.0
  0
VERTEX
  5
13B
  8
0
 10
14.28796371012864
 20
-10.72381767171386
 30
0.0
  0
VERTEX
  5
13C
  8
0
 10
14.43673354510886
 20
-10.48877171790478
 30
0.0
  0
VERTEX
  5
13D
  8
0
 10
14.58157388167359
 20
-10.25126443849608
 30
0.0
  0
VERTEX
  5
13E
  8
0
 10
14.72243228526968
 20
-10.01134826821854
 30
0.0
  0
VERTEX
  5
13F
  8
0
 10
14.85977664913323
 20
-9.769403156500728
 30
0.0
  0
VERTEX
  5
140
  8
0
 10
14.99304387685672
 20
-9.525214039329324
 30
0.0
  0
VERTEX
  5
141
  8
0
 10
15.12221477682569
 20
-9.278852543077601
 30
0.0
  0
VERTEX
  5
142
  8
0
 10
15.24727015698162
 20
-9.030390294890616
 30
0.0
  0
VERTEX
  5
143
  8
0
 10
15.36819082526635
 20
-8.779898921913329
 30
0.0
  0
VERTEX
  5
144
  8
0
 10
15.48495758962098
 20
-8.527450051290515
 30
0.0
  0
VERTEX
  5
145
  8
0
 10
15.5975512579875
 20
-8.273115310167334
 30
0.0
  0
VERTEX
  5
146
  8
0
 10
15.70595263830743
 20
-8.016966325688507
 30
0.0
  0
VERTEX
  5
147
  8
0
 10
15.81014253852207
 20
-7.759074724999028
 30
0.0
  0
VERTEX
  5
148
  8
0
 10
15.91010176657305
 20
-7.499512135243779
 30
0.0
  0
VERTEX
  5
149
  8
0
 10
16.00581113040199
 20
-7.238350183567809
 30
0.0
  0
VERTEX
  5
14A
  8
0
 10
16.09725143795043
 20
-6.975660497115949
 30
0.0
  0
VERTEX
  5
14B
  8
0
 10
16.18440349715983
 20
-6.711514703033192
 30
0.0
  0
VERTEX
  5
14C
  8
0
 10
16.26724811597197
 20
-6.445984428464423
 30
0.0
  0
VERTEX
  5
14D
  8
0
 10
16.34576610232817
 20
-6.179141300554579
 30
0.0
  0
VERTEX
  5
14E
  8
0
 10
16.41993826417006
 20
-5.911056946448602
 30
0.0
  0
VERTEX
  5
14F
  8
0
 10
16.4897454094392
 20
-5.641802993291319
 30
0.0
  0
VERTEX
  5
150
  8
0
 10
16.55516834607713
 20
-5.371451068227779
 30
0.0
  0
VERTEX
  5
151
  8
0
 10
16.61618788202546
 20
-5.100072798402922
 30
0.0
  0
VERTEX
  5
152
  8
0
 10
16.67278482522569
 20
-4.827739810961577
 30
0.0
  0
VERTEX
  5
153
  8
0
 10
16.7249399836193
 20
-4.554523733048794
 30
0.0
  0
VERTEX
  5
154
  8
0
 10
16.77263416514784
 20
-4.280496191809346
 30
0.0
  0
VERTEX
  5
155
  8
0
 10
16.815848177753
 20
-4.005728814388338
 30
0.0
  0
VERTEX
  5
156
  8
0
 10
16.85456282937637
 20
-3.730293227930542
 30
0.0
  0
VERTEX
  5
157
  8
0
 10
16.88875892795931
 20
-3.454261059580954
 30
0.0
  0
VERTEX
  5
158
  8
0
 10
16.91841728144345
 20
-3.177703936484513
 30
0.0
  0
VERTEX
  5
159
  8
0
 10
16.94351869777028
 20
-2.900693485786158
 30
0.0
  0
VERTEX
  5
15A
  8
0
 10
16.96404398488155
 20
-2.623301334630828
 30
0.0
  0
VERTEX
  5
15B
  8
0
 10
16.97997395071867
 20
-2.345599110163337
 30
0.0
  0
VERTEX
  5
15C
  8
0
 10
16.99128940322316
 20
-2.067658439528709
 30
0.0
  0
VERTEX
  5
15D
  8
0
 10
16.99797115033655
 20
-1.789550949871868
 30
0.0
  0
VERTEX
  5
15E
  8
0
 10
17.0
 20
-1.511348267892519
 30
0.0
  0
VERTEX
  5
15F
  8
0
 10
16.99797115035043
 20
-1.23314549768766
 30
0.0
  0
VERTEX
  5
160
  8
0
 10
16.99128940325201
 20
-0.9550379254969296
 30
0.0
  0
VERTEX
  5
161
  8
0
 10
16.97997395076226
 20
-0.6770971780200912
 30
0.0
  0
VERTEX
  5
162
  8
0
 10
16.96404398493991
 20
-0.3993948824022426
 30
0.0
  0
VERTEX
  5
163
  8
0
 10
16.94351869784333
 20
-0.1220026657881623
 30
0.0
  0
VERTEX
  5
164
  8
0
 10
16.918417281531
 20
0.1550078446771561
 30
0.0
  0
VERTEX
  5
165
  8
0
 10
16.88875892806149
 20
0.4315650218488298
 30
0.0
  0
VERTEX
  5
166
  8
0
 10
16.85456282949297
 20
0.7075972385819176
 30
0.0
  0
VERTEX
  5
167
  8
0
 10
16.81584817788415
 20
0.9830328677314277
 30
0.0
  0
VERTEX
  5
168
  8
0
 10
16.77263416529336
 20
1.257800282152528
 30
0.0
  0
VERTEX
  5
169
  8
0
 10
16.724939983779
 20
1.531827854700172
 30
0.0
  0
VERTEX
  5
16A
  8
0
 10
16.67278482539957
 20
1.805043958229529
 30
0.0
  0
VERTEX
  5
16B
  8
0
 10
16.61618788221362
 20
2.077376965595717
 30
0.0
  0
VERTEX
  5
16C
  8
0
 10
16.55516834627948
 20
2.348755249653685
 30
0.0
  0
VERTEX
  5
16D
  8
0
 10
16.48974540965563
 20
2.619107183258548
 30
0.0
  0
VERTEX
  5
16E
  8
0
 10
16.41993826440046
 20
2.888361139265369
 30
0.0
  0
VERTEX
  5
16F
  8
0
 10
16.34576610257249
 20
3.156445490529263
 30
0.0
  0
VERTEX
  5
170
  8
0
 10
16.26724811623026
 20
3.423288609905236
 30
0.0
  0
VERTEX
  5
171
  8
0
 10
16.18440349743201
 20
3.688818870248404
 30
0.0
  0
VERTEX
  5
172
  8
0
 10
16.09725143823622
 20
3.952964644413829
 30
0.0
  0
VERTEX
  5
173
  8
0
 10
16.00581113070147
 20
4.215654305256624
 30
0.0
  0
VERTEX
  5
174
  8
0
 10
15.91010176688626
 20
4.476816225631852
 30
0.0
  0
VERTEX
  5
175
  8
0
 10
15.81014253884878
 20
4.736378778394519
 30
0.0
  0
VERTEX
  5
176
  8
0
 10
15.70595263864752
 20
4.994270336399685
 30
0.0
  0
VERTEX
  5
177
  8
0
 10
15.5975512583411
 20
5.250419272502521
 30
0.0
  0
VERTEX
  5
178
  8
0
 10
15.48495758998799
 20
5.504753959558033
 30
0.0
  0
VERTEX
  5
179
  8
0
 10
15.36819082564666
 20
5.757202770421338
 30
0.0
  0
VERTEX
  5
17A
  8
0
 10
15.24727015737525
 20
6.007694077947495
 30
0.0
  0
VERTEX
  5
17B
  8
0
 10
15.12221477723251
 20
6.256156254991456
 30
0.0
  0
VERTEX
  5
17C
  8
0
 10
14.99304387727667
 20
6.502517674408505
 30
0.0
  0
VERTEX
  5
17D
  8
0
 10
14.85977664956631
 20
6.746706709053532
 30
0.0
  0
VERTEX
  5
17E
  8
0
 10
14.72243228615989
 20
6.988651731781765
 30
0.0
  0
VERTEX
  5
17F
  8
0
 10
14.58157388213066
 20
7.228567991092442
 30
0.0
  0
VERTEX
  5
180
  8
0
 10
14.43673354557865
 20
7.466075353249929
 30
0.0
  0
VERTEX
  5
181
  8
0
 10
14.28796371061095
 20
7.701121384471818
 30
0.0
  0
VERTEX
  5
182
  8
0
 10
14.13531681178026
 20
7.933653650205221
 30
0.0
  0
VERTEX
  5
183
  8
0
 10
13.97884528363941
 20
8.163619715897305
 30
0.0
  0
VERTEX
  5
184
  8
0
 10
13.81860156074159
 20
8.390967146995239
 30
0.0
  0
VERTEX
  5
185
  8
0
 10
13.65463807763916
 20
8.615643508946135
 30
0.0
  0
VERTEX
  5
186
  8
0
 10
13.48700726888538
 20
8.83759636719706
 30
0.0
  0
VERTEX
  5
187
  8
0
 10
13.31576156903266
 20
9.056773287195332
 30
0.0
  0
VERTEX
  5
188
  8
0
 10
13.14095341263441
 20
9.273121834388022
 30
0.0
  0
VERTEX
  5
189
  8
0
 10
12.96263523424324
 20
9.486589574222174
 30
0.0
  0
VERTEX
  5
18A
  8
0
 10
12.78085946841183
 20
9.697124072145026
 30
0.0
  0
VERTEX
  5
18B
  8
0
 10
12.5956785496934
 20
9.904672893603692
 30
0.0
  0
VERTEX
  5
18C
  8
0
 10
12.40714491264045
 20
10.10918360404526
 30
0.0
  0
VERTEX
  5
18D
  8
0
 10
12.21531099180605
 20
10.31060376891699
 30
0.0
  0
VERTEX
  5
18E
  8
0
 10
12.02022922174306
 20
10.50888095366598
 30
0.0
  0
VERTEX
  5
18F
  8
0
 10
11.82195203700415
 20
10.70396272373932
 30
0.0
  0
VERTEX
  5
190
  8
0
 10
11.62053187214249
 20
10.89579664458416
 30
0.0
  0
VERTEX
  5
191
  8
0
 10
11.41602116171076
 20
11.08433028164764
 30
0.0
  0
VERTEX
  5
192
  8
0
 10
11.20847234026161
 20
11.269511200377
 30
0.0
  0
VERTEX
  5
193
  8
0
 10
10.99793784234821
 20
11.45128696621929
 30
0.0
  0
VERTEX
  5
194
  8
0
 10
10.78447010252344
 20
11.62960514462175
 30
0.0
  0
VERTEX
  5
195
  8
0
 10
10.56812155533998
 20
11.80441330103135
 30
0.0
  0
VERTEX
  5
196
  8
0
 10
10.34894463535058
 20
11.97565900089534
 30
0.0
  0
VERTEX
  5
197
  8
0
 10
10.1269917771085
 20
12.14328980966088
 30
0.0
  0
VERTEX
  5
198
  8
0
 10
9.902315415166225
 20
12.30725329277502
 30
0.0
  0
VERTEX
  5
199
  8
0
 10
9.674967984076725
 20
12.46749701568501
 30
0.0
  0
VERTEX
  5
19A
  8
0
 10
9.445001918392965
 20
12.62396854383793
 30
0.0
  0
VERTEX
  5
19B
  8
0
 10
9.212469652667707
 20
12.77661544268091
 30
0.0
  0
VERTEX
  5
19C
  8
0
 10
8.97742362145384
 20
12.92538527766119
 30
0.0
  0
VERTEX
  5
19D
  8
0
 10
8.73991625930411
 20
13.07022561422584
 30
0.0
  0
VERTEX
  5
19E
  8
0
 10
8.500000000771598
 20
13.21108401782195
 30
0.0
  0
VERTEX
  5
19F
  8
0
 10
8.258054977279032
 20
13.34842829621734
 30
0.0
  0
VERTEX
  5
1A0
  8
0
 10
8.01386594264106
 20
13.48169544932261
 30
0.0
  0
VERTEX
  5
1A1
  8
0
 10
7.767504523230971
 20
13.61086628499012
 30
0.0
  0
VERTEX
  5
1A2
  8
0
 10
7.519042346193623
 20
13.73592161062769
 30
0.0
  0
VERTEX
  5
1A3
  8
0
 10
7.268551038673775
 20
13.85684223364346
 30
0.0
  0
VERTEX
  5
1A4
  8
0
 10
7.016102227816599
 20
13.97360896144514
 30
0.0
  0
VERTEX
  5
1A5
  8
0
 10
6.761767540766954
 20
14.0862026014408
 30
0.0
  0
VERTEX
  5
1A6
  8
0
 10
6.505618604669916
 20
14.19460396103826
 30
0.0
  0
VERTEX
  5
1A7
  8
0
 10
6.247727046670148
 20
14.29879384764559
 30
0.0
  0
VERTEX
  5
1A8
  8
0
 10
5.988164493912713
 20
14.39875306867058
 30
0.0
  0
VERTEX
  5
1A9
  8
0
 10
5.727002573542593
 20
14.49446243152116
 30
0.0
  0
VERTEX
  5
1AA
  8
0
 10
5.464312912704449
 20
14.58590274360546
 30
0.0
  0
VERTEX
  5
1AB
  8
0
 10
5.200167138543636
 20
14.6730548123312
 30
0.0
  0
VERTEX
  5
1AC
  8
0
 10
4.93463687820472
 20
14.75589944510632
 30
0.0
  0
VERTEX
  5
1AD
  8
0
 10
4.667793758832778
 20
14.83441744933887
 30
0.0
  0
VERTEX
  5
1AE
  8
0
 10
4.399709407572886
 20
14.90858963243667
 30
0.0
  0
VERTEX
  5
1AF
  8
0
 10
4.130455451569572
 20
14.97839680180769
 30
0.0
  0
VERTEX
  5
1B0
  8
0
 10
3.860103517968076
 20
15.04381976485995
 30
0.0
  0
VERTEX
  5
1B1
  8
0
 10
3.588725233913284
 20
15.10483932900122
 30
0.0
  0
VERTEX
  5
1B2
  8
0
 10
3.358706113458522
 20
15.15264251669674
 30
0.0
  0
VERTEX
  5
1B3
  8
0
 10
0.0000003627076487
 20
18.51134826744763
 30
0.0
  0
SEQEND
  5
1B4
  8
0
  0
POLYLINE
  5
41
  8
0
 66
     1
 10
0.0
 20
0.0
 30
0.0
 70
     1
  0
VERTEX
  5
1B5
  8
0
 10
-30.40142087774003
 20
-11.58215609800387
 30
0.0
  0
VERTEX
  5
1B6
  8
0
 10
-30.63144003008136
 20
-11.62995929581059
 30
0.0
  0
VERTEX
  5
1B7
  8
0
 10
-30.90281829990947
 20
-11.69097885993772
 30
0.0
  0
VERTEX
  5
1B8
  8
0
 10
-31.17317022497641
 20
-11.7564018229759
 30
0.0
  0
VERTEX
  5
1B9
  8
0
 10
-31.44242417813722
 20
-11.82620899233296
 30
0.0
  0
VERTEX
  5
1BA
  8
0
 10
-31.71050853224709
 20
-11.90038117541683
 30
0.0
  0
VERTEX
  5
1BB
  8
0
 10
-31.97735166016099
 20
-11.97889917963548
 30
0.0
  0
VERTEX
  5
1BC
  8
0
 10
-32.24288193473416
 20
-12.06174381239679
 30
0.0
  0
VERTEX
  5
1BD
  8
0
 10
-32.50702772882158
 20
-12.14889588110883
 30
0.0
  0
VERTEX
  5
1BE
  8
0
 10
-32.76971741527816
 20
-12.24033619317933
 30
0.0
  0
VERTEX
  5
1BF
  8
0
 10
-33.03087936695907
 20
-12.33604555601638
 30
0.0
  0
VERTEX
  5
1C0
  8
0
 10
-33.29044195671949
 20
-12.43600477702779
 30
0.0
  0
VERTEX
  5
1C1
  8
0
 10
-33.5483335574144
 20
-12.54019466362153
 30
0.0
  0
VERTEX
  5
1C2
  8
0
 10
-33.80448254189898
 20
-12.64859602320558
 30
0.0
  0
VERTEX
  5
1C3
  8
0
 10
-34.05881728302815
 20
-12.76118966318781
 30
0.0
  0
VERTEX
  5
1C4
  8
0
 10
-34.31126615365704
 20
-12.87795639097625
 30
0.0
  0
VERTEX
  5
1C5
  8
0
 10
-34.56175752664068
 20
-12.99887701397865
 30
0.0
  0
VERTEX
  5
1C6
  8
0
 10
-34.81021977483432
 20
-13.12393233960315
 30
0.0
  0
VERTEX
  5
1C7
  8
0
 10
-35.05658127109275
 20
-13.25310317525756
 30
0.0
  0
VERTEX
  5
1C8
  8
0
 10
-35.30077038827136
 20
-13.38637032834969
 30
0.0
  0
VERTEX
  5
1C9
  8
0
 10
-35.54271549922483
 20
-13.52371460628781
 30
0.0
  0
VERTEX
  5
1CA
  8
0
 10
-35.7826316702807
 20
-13.66457301031705
 30
0.0
  0
VERTEX
  5
1CB
  8
0
 10
-36.02013894969706
 20
-13.80941334686901
 30
0.0
  0
VERTEX
  5
1CC
  8
0
 10
-36.25518490351421
 20
-13.95818318183674
 30
0.0
  0
VERTEX
  5
1CD
  8
0
 10
-36.48771709700123
 20
-14.11083008066741
 30
0.0
  0
VERTEX
  5
1CE
  8
0
 10
-36.71768309542723
 20
-14.26730160880819
 30
0.0
  0
VERTEX
  5
1CF
  8
0
 10
-36.94503046406184
 20
-14.42754533170624
 30
0.0
  0
VERTEX
  5
1D0
  8
0
 10
-37.1697067681741
 20
-14.59150881480857
 30
0.0
  0
VERTEX
  5
1D1
  8
0
 10
-37.39165957303326
 20
-14.75913962356241
 30
0.0
  0
VERTEX
  5
1D2
  8
0
 10
-37.6108364439087
 20
-14.93038532341492
 30
0.0
  0
VERTEX
  5
1D3
  8
0
 10
-37.82718494606956
 20
-15.10519347981325
 30
0.0
  0
VERTEX
  5
1D4
  8
0
 10
-38.04065264478523
 20
-15.28351165820449
 30
0.0
  0
VERTEX
  5
1D5
  8
0
 10
-38.25118710532493
 20
-15.4652874240358
 30
0.0
  0
VERTEX
  5
1D6
  8
0
 10
-38.45873589295787
 20
-15.65046834275433
 30
0.0
  0
VERTEX
  5
1D7
  8
0
 10
-38.6632465729534
 20
-15.83900197980722
 30
0.0
  0
VERTEX
  5
1D8
  8
0
 10
-38.86466671058079
 20
-16.03083590064161
 30
0.0
  0
VERTEX
  5
1D9
  8
0
 10
-39.06294387110916
 20
-16.22591767070464
 30
0.0
  0
VERTEX
  5
1DA
  8
0
 10
-39.2580256198081
 20
-16.42419485544346
 30
0.0
  0
VERTEX
  5
1DB
  8
0
 10
-39.44985952194649
 20
-16.62561502030524
 30
0.0
  0
VERTEX
  5
1DC
  8
0
 10
-39.63839314279387
 20
-16.83012573073699
 30
0.0
  0
VERTEX
  5
1DD
  8
0
 10
-39.8235740476194
 20
-17.03767455218599
 30
0.0
  0
VERTEX
  5
1DE
  8
0
 10
-40.00534980169236
 20
-17.24820905009946
 30
0.0
  0
VERTEX
  5
1DF
  8
0
 10
-40.18366797028202
 20
-17.46167678992428
 30
0.0
  0
VERTEX
  5
1E0
  8
0
 10
-40.3584761186578
 20
-17.67802533710775
 30
0.0
  0
VERTEX
  5
1E1
  8
0
 10
-40.52972181208872
 20
-17.89720225709702
 30
0.0
  0
VERTEX
  5
1E2
  8
0
 10
-40.69735261584409
 20
-18.11915511533921
 30
0.0
  0
VERTEX
  5
1E3
  8
0
 10
-40.86131609519323
 20
-18.34383147728149
 30
0.0
  0
VERTEX
  5
1E4
  8
0
 10
-41.02155981540552
 20
-18.57117890837093
 30
0.0
  0
VERTEX
  5
1E5
  8
0
 10
-41.1780313417499
 20
-18.80114497405473
 30
0.0
  0
VERTEX
  5
1E6
  8
0
 10
-41.33067823949601
 20
-19.03367723978002
 30
0.0
  0
VERTEX
  5
1E7
  8
0
 10
-41.47944807391301
 20
-19.26872327099401
 30
0.0
  0
VERTEX
  5
1E8
  8
0
 10
-41.62428841027023
 20
-19.50623063314366
 30
0.0
  0
VERTEX
  5
1E9
  8
0
 10
-41.76514681383669
 20
-19.74614689167629
 30
0.0
  0
VERTEX
  5
1EA
  8
0
 10
-41.90249117772997
 20
-19.98809191516865
 30
0.0
  0
VERTEX
  5
1EB
  8
0
 10
-42.03575840566095
 20
-20.23228094980655
 30
0.0
  0
VERTEX
  5
1EC
  8
0
 10
-42.16492930619314
 20
-20.47864236921675
 30
0.0
  0
VERTEX
  5
1ED
  8
0
 10
-42.28998468744602
 20
-20.7271045462542
 30
0.0
  0
VERTEX
  5
1EE
  8
0
 10
-42.41090535753907
 20
-20.9775958537739
 30
0.0
  0
VERTEX
  5
1EF
  8
0
 10
-42.52767212459156
 20
-21.23004466463102
 30
0.0
  0
VERTEX
  5
1F0
  8
0
 10
-42.64026579672304
 20
-21.48437935168062
 30
0.0
  0
VERTEX
  5
1F1
  8
0
 10
-42.74866718205301
 20
-21.74052828777777
 30
0.0
  0
VERTEX
  5
1F2
  8
0
 10
-42.85285708870087
 20
-21.99841984577752
 30
0.0
  0
VERTEX
  5
1F3
  8
0
 10
-42.95281632478574
 20
-22.25798239853494
 30
0.0
  0
VERTEX
  5
1F4
  8
0
 10
-43.04852569842734
 20
-22.51914431890509
 30
0.0
  0
VERTEX
  5
1F5
  8
0
 10
-43.13996601774515
 20
-22.78183397974308
 30
0.0
  0
VERTEX
  5
1F6
  8
0
 10
-43.22711809085838
 20
-23.04597975390404
 30
0.0
  0
VERTEX
  5
1F7
  8
0
 10
-43.3099627258866
 20
-23.3115100142429
 30
0.0
  0
VERTEX
  5
1F8
  8
0
 10
-43.38848073094933
 20
-23.57835313361484
 30
0.0
  0
VERTEX
  5
1F9
  8
0
 10
-43.46265291416565
 20
-23.84643748487487
 30
0.0
  0
VERTEX
  5
1FA
  8
0
 10
-43.53246008365531
 20
-24.1156914408781
 30
0.0
  0
VERTEX
  5
1FB
  8
0
 10
-43.59788304753765
 20
-24.38604337447954
 30
0.0
  0
VERTEX
  5
1FC
  8
0
 10
-43.65890261393189
 20
-24.6574216585343
 30
0.0
  0
VERTEX
  5
1FD
  8
0
 10
-43.71549959095785
 20
-24.92975466589751
 30
0.0
  0
VERTEX
  5
1FE
  8
0
 10
-43.76765478673467
 20
-25.20297076942416
 30
0.0
  0
VERTEX
  5
1FF
  8
0
 10
-43.81534900938176
 20
-25.47699834196937
 30
0.0
  0
VERTEX
  5
200
  8
0
 10
-43.85856306701874
 20
-25.75176575638821
 30
0.0
  0
VERTEX
  5
201
  8
0
 10
-43.89727776776484
 20
-26.02720138553573
 30
0.0
  0
VERTEX
  5
202
  8
0
 10
-43.93147391973961
 20
-26.303233602267
 30
0.0
  0
VERTEX
  5
203
  8
0
 10
-43.96113233106232
 20
-26.57979077943707
 30
0.0
  0
VERTEX
  5
204
  8
0
 10
-43.98623380985266
 20
-26.85680128990106
 30
0.0
  0
VERTEX
  5
205
  8
0
 10
-44.00675916422981
 20
-27.13419350651404
 30
0.0
  0
VERTEX
  5
206
  8
0
 10
-44.02268920231344
 20
-27.41189580213106
 30
0.0
  0
VERTEX
  5
207
  8
0
 10
-44.03400473222263
 20
-27.68983654960718
 30
0.0
  0
VERTEX
  5
208
  8
0
 10
-44.04068656207706
 20
-27.96794412179747
 30
0.0
  0
VERTEX
  5
209
  8
0
 10
-44.04271549999618
 20
-28.24614689155715
 30
0.0
  0
VERTEX
  5
20A
  8
0
 10
-44.04068656209104
 20
-28.52434957398168
 30
0.0
  0
VERTEX
  5
20B
  8
0
 10
-44.03400473225141
 20
-28.80245706363896
 30
0.0
  0
VERTEX
  5
20C
  8
0
 10
-44.02268920235698
 20
-29.0803977342742
 30
0.0
  0
VERTEX
  5
20D
  8
0
 10
-44.0067591642882
 20
-29.35809995874262
 30
0.0
  0
VERTEX
  5
20E
  8
0
 10
-43.98623380992564
 20
-29.63549210989911
 30
0.0
  0
VERTEX
  5
20F
  8
0
 10
-43.96113233115003
 20
-29.9125025605988
 30
0.0
  0
VERTEX
  5
210
  8
0
 10
-43.93147391984171
 20
-30.18905968369684
 30
0.0
  0
VERTEX
  5
211
  8
0
 10
-43.89727776788148
 20
-30.46509185204814
 30
0.0
  0
VERTEX
  5
212
  8
0
 10
-43.85856306714978
 20
-30.74052743850797
 30
0.0
  0
VERTEX
  5
213
  8
0
 10
-43.81534900952725
 20
-31.01529481593131
 30
0.0
  0
VERTEX
  5
214
  8
0
 10
-43.76765478689448
 20
-31.28932235717313
 30
0.0
  0
VERTEX
  5
215
  8
0
 10
-43.71549959113182
 20
-31.56253843508873
 30
0.0
  0
VERTEX
  5
216
  8
0
 10
-43.65890261412017
 20
-31.83487142253294
 30
0.0
  0
VERTEX
  5
217
  8
0
 10
-43.59788304773989
 20
-32.106249692361
 30
0.0
  0
VERTEX
  5
218
  8
0
 10
-43.53246008387174
 20
-32.37660161742791
 30
0.0
  0
VERTEX
  5
219
  8
0
 10
-43.46265291439605
 20
-32.64585557058878
 30
0.0
  0
VERTEX
  5
21A
  8
0
 10
-43.38848073119353
 20
-32.91393992469862
 30
0.0
  0
VERTEX
  5
21B
  8
0
 10
-43.3099627261448
 20
-33.18078305261261
 30
0.0
  0
VERTEX
  5
21C
  8
0
 10
-43.2271180911304
 20
-33.44631332718568
 30
0.0
  0
VERTEX
  5
21D
  8
0
 10
-43.13996601803085
 20
-33.71045912127303
 30
0.0
  0
VERTEX
  5
21E
  8
0
 10
-43.04852569872674
 20
-33.97314880772964
 30
0.0
  0
VERTEX
  5
21F
  8
0
 10
-42.95281632509883
 20
-34.23431075941063
 30
0.0
  0
VERTEX
  5
220
  8
0
 10
-42.85285708902736
 20
-34.49387334917107
 30
0.0
  0
VERTEX
  5
221
  8
0
 10
-42.74866718239311
 20
-34.75176494986596
 30
0.0
  0
VERTEX
  5
222
  8
0
 10
-42.64026579707664
 20
-35.00791393435048
 30
0.0
  0
VERTEX
  5
223
  8
0
 10
-42.52767212495855
 20
-35.26224867547968
 30
0.0
  0
VERTEX
  5
224
  8
0
 10
-42.41090535791928
 20
-35.51469754610856
 30
0.0
  0
VERTEX
  5
225
  8
0
 10
-42.28998468783964
 20
-35.76518891909225
 30
0.0
  0
VERTEX
  5
226
  8
0
 10
-42.16492930659988
 20
-36.01365116728581
 30
0.0
  0
VERTEX
  5
227
  8
0
 10
-42.0357584060809
 20
-36.26001266354441
 30
0.0
  0
VERTEX
  5
228
  8
0
 10
-41.90249117816292
 20
-36.50420178072291
 30
0.0
  0
VERTEX
  5
229
  8
0
 10
-41.76514681472691
 20
-36.74614689167658
 30
0.0
  0
VERTEX
  5
22A
  8
0
 10
-41.62428841072729
 20
-36.98606306273215
 30
0.0
  0
VERTEX
  5
22B
  8
0
 10
-41.47944807438279
 20
-37.22357034214872
 30
0.0
  0
VERTEX
  5
22C
  8
0
 10
-41.33067823997844
 20
-37.45861629596577
 30
0.0
  0
VERTEX
  5
22D
  8
0
 10
-41.17803134224456
 20
-37.69114848945277
 30
0.0
  0
VERTEX
  5
22E
  8
0
 10
-41.02155981591213
 20
-37.9211144878789
 30
0.0
  0
VERTEX
  5
22F
  8
0
 10
-40.86131609571207
 20
-38.14846185651341
 30
0.0
  0
VERTEX
  5
230
  8
0
 10
-40.69735261637459
 20
-38.37313816062567
 30
0.0
  0
VERTEX
  5
231
  8
0
 10
-40.52972181263097
 20
-38.59509096548482
 30
0.0
  0
VERTEX
  5
232
  8
0
 10
-40.35847611921143
 20
-38.81426783636017
 30
0.0
  0
VERTEX
  5
233
  8
0
 10
-40.1836679708472
 20
-39.03061633852113
 30
0.0
  0
VERTEX
  5
234
  8
0
 10
-40.00534980226851
 20
-39.24408403723677
 30
0.0
  0
VERTEX
  5
235
  8
0
 10
-39.82357404820662
 20
-39.45461849777639
 30
0.0
  0
VERTEX
  5
236
  8
0
 10
-39.63839314339187
 20
-39.66216728540945
 30
0.0
  0
VERTEX
  5
237
  8
0
 10
-39.44985952255517
 20
-39.86667796540496
 30
0.0
  0
VERTEX
  5
238
  8
0
 10
-39.2580256204272
 20
-40.06809810303233
 30
0.0
  0
VERTEX
  5
239
  8
0
 10
-39.06294387173875
 20
-40.2663752635608
 30
0.0
  0
VERTEX
  5
23A
  8
0
 10
-38.86466671122036
 20
-40.46145701225965
 30
0.0
  0
VERTEX
  5
23B
  8
0
 10
-38.66324657360299
 20
-40.65329091439814
 30
0.0
  0
VERTEX
  5
23C
  8
0
 10
-38.45873589361719
 20
-40.84182453524542
 30
0.0
  0
VERTEX
  5
23D
  8
0
 10
-38.25118710599386
 20
-41.02700544007096
 30
0.0
  0
VERTEX
  5
23E
  8
0
 10
-38.04065264546366
 20
-41.20878119414403
 30
0.0
  0
VERTEX
  5
23F
  8
0
 10
-37.82718494675734
 20
-41.38709936273366
 30
0.0
  0
VERTEX
  5
240
  8
0
 10
-37.61083644460551
 20
-41.56190751110937
 30
0.0
  0
VERTEX
  5
241
  8
0
 10
-37.39165957373921
 20
-41.73315320454019
 30
0.0
  0
VERTEX
  5
242
  8
0
 10
-37.16970676888879
 20
-41.90078400829556
 30
0.0
  0
VERTEX
  5
243
  8
0
 10
-36.94503046478508
 20
-42.06474748764487
 30
0.0
  0
VERTEX
  5
244
  8
0
 10
-36.71768309615891
 20
-42.22499120785699
 30
0.0
  0
VERTEX
  5
245
  8
0
 10
-36.48771709774125
 20
-42.38146273420156
 30
0.0
  0
VERTEX
  5
246
  8
0
 10
-36.25518490426241
 20
-42.53410963194766
 30
0.0
  0
VERTEX
  5
247
  8
0
 10
-36.02013895045321
 20
-42.68287946636465
 30
0.0
  0
VERTEX
  5
248
  8
0
 10
-35.78263167104452
 20
-42.8277198027217
 30
0.0
  0
VERTEX
  5
249
  8
0
 10
-35.54271550076719
 20
-42.96857820628824
 30
0.0
  0
VERTEX
  5
24A
  8
0
 10
-35.30077038904918
 20
-43.10592257293865
 30
0.0
  0
VERTEX
  5
24B
  8
0
 10
-35.05658127187785
 20
-43.23918980878501
 30
0.0
  0
VERTEX
  5
24C
  8
0
 10
-34.81021977562622
 20
-43.36836072185729
 30
0.0
  0
VERTEX
  5
24D
  8
0
 10
-34.56175752743909
 20
-43.49341611974141
 30
0.0
  0
VERTEX
  5
24E
  8
0
 10
-34.31126615446178
 20
-43.61433681002306
 30
0.0
  0
VERTEX
  5
24F
  8
0
 10
-34.0588172838391
 20
-43.73110360028812
 30
0.0
  0
VERTEX
  5
250
  8
0
 10
-33.80448254271576
 20
-43.84369729812245
 30
0.0
  0
VERTEX
  5
251
  8
0
 10
-33.54833355823701
 20
-43.95209871111172
 30
0.0
  0
VERTEX
  5
252
  8
0
 10
-33.29044195754745
 20
-44.05628864684181
 30
0.0
  0
VERTEX
  5
253
  8
0
 10
-33.03087936779227
 20
-44.15624791289856
 30
0.0
  0
VERTEX
  5
254
  8
0
 10
-32.76971741611631
 20
-44.25195731686767
 30
0.0
  0
VERTEX
  5
255
  8
0
 10
-32.50702772966439
 20
-44.34339766633512
 30
0.0
  0
VERTEX
  5
256
  8
0
 10
-32.24288193558164
 20
-44.43054976888656
 30
0.0
  0
VERTEX
  5
257
  8
0
 10
-31.97735166101295
 20
-44.51339443210775
 30
0.0
  0
VERTEX
  5
258
  8
0
 10
-31.71050853310302
 20
-44.59191246358468
 30
0.0
  0
VERTEX
  5
259
  8
0
 10
-31.44242417899702
 20
-44.666084670903
 30
0.0
  0
VERTEX
  5
25A
  8
0
 10
-31.17317022583982
 20
-44.73589186164851
 30
0.0
  0
VERTEX
  5
25B
  8
0
 10
-30.90281830077639
 20
-44.80131484340717
 30
0.0
  0
VERTEX
  5
25C
  8
0
 10
-30.63144003095147
 20
-44.86233442376465
 30
0.0
  0
VERTEX
  5
25D
  8
0
 10
-30.35910704350997
 20
-44.91893141030671
 30
0.0
  0
VERTEX
  5
25E
  8
0
 10
-30.08589096559732
 20
-44.97108661061922
 30
0.0
  0
VERTEX
  5
25F
  8
0
 10
-29.81186342435779
 20
-45.01878083228806
 30
0.0
  0
VERTEX
  5
260
  8
0
 10
-29.53709604693675
 20
-45.061994882899
 30
0.0
  0
VERTEX
  5
261
  8
0
 10
-29.26166046047899
 20
-45.10070957003781
 30
0.0
  0
VERTEX
  5
262
  8
0
 10
-28.98562829212945
 20
-45.13490570129026
 30
0.0
  0
VERTEX
  5
263
  8
0
 10
-28.70907116903301
 20
-45.16456408424213
 30
0.0
  0
VERTEX
  5
264
  8
0
 10
-28.43206071833454
 20
-45.18966552647937
 30
0.0
  0
VERTEX
  5
265
  8
0
 10
-28.1546685671793
 20
-45.21019083558755
 30
0.0
  0
VERTEX
  5
266
  8
0
 10
-27.87696634271185
 20
-45.22612081915278
 30
0.0
  0
VERTEX
  5
267
  8
0
 10
-27.59902567207716
 20
-45.23743628476068
 30
0.0
  0
VERTEX
  5
268
  8
0
 10
-27.32091818242021
 20
-45.24411803999695
 30
0.0
  0
VERTEX
  5
269
  8
0
 10
-27.04271550088615
 20
-45.24614689244763
 30
0.0
  0
VERTEX
  5
26A
  8
0
 10
-26.76451273023615
 20
-45.24411804001093
 30
0.0
  0
VERTEX
  5
26B
  8
0
 10
-26.48640515804536
 20
-45.23743628478942
 30
0.0
  0
VERTEX
  5
26C
  8
0
 10
-26.20846441056863
 20
-45.2261208191964
 30
0.0
  0
VERTEX
  5
26D
  8
0
 10
-25.93076211495072
 20
-45.21019083564595
 30
0.0
  0
VERTEX
  5
26E
  8
0
 10
-25.65336989833673
 20
-45.18966552655233
 30
0.0
  0
VERTEX
  5
26F
  8
0
 10
-25.37635938787133
 20
-45.16456408432975
 30
0.0
  0
VERTEX
  5
270
  8
0
 10
-25.09980221069974
 20
-45.13490570139237
 30
0.0
  0
VERTEX
  5
271
  8
0
 10
-24.82376999396662
 20
-45.10070957015448
 30
0.0
  0
VERTEX
  5
272
  8
0
 10
-24.548334364817
 20
-45.06199488303007
 30
0.0
  0
VERTEX
  5
273
  8
0
 10
-24.27356695039601
 20
-45.01878083243359
 30
0.0
  0
VERTEX
  5
274
  8
0
 10
-23.99953937784834
 20
-44.97108661077911
 30
0.0
  0
VERTEX
  5
275
  8
0
 10
-23.7263232743189
 20
-44.91893141048078
 30
0.0
  0
VERTEX
  5
276
  8
0
 10
-23.45399026695271
 20
-44.8623344239528
 30
0.0
  0
VERTEX
  5
277
  8
0
 10
-23.18261198289482
 20
-44.80131484360943
 30
0.0
  0
VERTEX
  5
278
  8
0
 10
-22.91226004928991
 20
-44.73589186186494
 30
0.0
  0
VERTEX
  5
279
  8
0
 10
-22.64300609328311
 20
-44.66608467113333
 30
0.0
  0
VERTEX
  5
27A
  8
0
 10
-22.37492174201922
 20
-44.59191246382899
 30
0.0
  0
VERTEX
  5
27B
  8
0
 10
-22.10807862264322
 20
-44.51339443236594
 30
0.0
  0
VERTEX
  5
27C
  8
0
 10
-21.84254836230013
 20
-44.43054976915855
 30
0.0
  0
VERTEX
  5
27D
  8
0
 10
-21.57840258813465
 20
-44.34339766662092
 30
0.0
  0
VERTEX
  5
27E
  8
0
 10
-21.31571292729183
 20
-44.25195731716727
 30
0.0
  0
VERTEX
  5
27F
  8
0
 10
-21.05455100691665
 20
-44.15624791321165
 30
0.0
  0
VERTEX
  5
280
  8
0
 10
-20.79498845415388
 20
-44.05628864716849
 30
0.0
  0
VERTEX
  5
281
  8
0
 10
-20.53709689614877
 20
-43.95209871145191
 30
0.0
  0
VERTEX
  5
282
  8
0
 10
-20.280947960046
 20
-43.84369729847606
 30
0.0
  0
VERTEX
  5
283
  8
0
 10
-20.02661327299043
 20
-43.73110360065513
 30
0.0
  0
VERTEX
  5
284
  8
0
 10
-19.77416446212705
 20
-43.61433681040339
 30
0.0
  0
VERTEX
  5
285
  8
0
 10
-19.52367315460108
 20
-43.49341612013494
 30
0.0
  0
VERTEX
  5
286
  8
0
 10
-19.27521097755701
 20
-43.36836072226401
 30
0.0
  0
VERTEX
  5
287
  8
0
 10
-19.02884955813994
 20
-43.23918980920487
 30
0.0
  0
VERTEX
  5
288
  8
0
 10
-18.78466052349507
 20
-43.1059225733717
 30
0.0
  0
VERTEX
  5
289
  8
0
 10
-18.54271550076692
 20
-42.96857820717845
 30
0.0
  0
VERTEX
  5
28A
  8
0
 10
-18.302799241456
 20
-42.82771980317885
 30
0.0
  0
VERTEX
  5
28B
  8
0
 10
-18.0652918792986
 20
-42.68287946683444
 30
0.0
  0
VERTEX
  5
28C
  8
0
 10
-17.83024584807666
 20
-42.53410963242998
 30
0.0
  0
VERTEX
  5
28D
  8
0
 10
-17.59771358234325
 20
-42.38146273469611
 30
0.0
  0
VERTEX
  5
28E
  8
0
 10
-17.36774751665104
 20
-42.22499120836379
 30
0.0
  0
VERTEX
  5
28F
  8
0
 10
-17.14040008555328
 20
-42.06474748816351
 30
0.0
  0
VERTEX
  5
290
  8
0
 10
-16.91572372360236
 20
-41.90078400882615
 30
0.0
  0
VERTEX
  5
291
  8
0
 10
-16.69377086535134
 20
-41.73315320508243
 30
0.0
  0
VERTEX
  5
292
  8
0
 10
-16.47459394535311
 20
-41.56190751166308
 30
0.0
  0
VERTEX
  5
293
  8
0
 10
-16.25824539816041
 20
-41.38709936329866
 30
0.0
  0
VERTEX
  5
294
  8
0
 10
-16.04477765832642
 20
-41.20878119472017
 30
0.0
  0
VERTEX
  5
295
  8
0
 10
-15.8342431604035
 20
-41.02700544065819
 30
0.0
  0
VERTEX
  5
296
  8
0
 10
-15.62669433894484
 20
-40.84182453584344
 30
0.0
  0
VERTEX
  5
297
  8
0
 10
-15.42218362850319
 20
-40.65329091500674
 30
0.0
  0
VERTEX
  5
298
  8
0
 10
-15.22076346363142
 20
-40.46145701287874
 30
0.0
  0
VERTEX
  5
299
  8
0
 10
-15.02248627888251
 20
-40.2663752641902
 30
0.0
  0
VERTEX
  5
29A
  8
0
 10
-14.82740450880912
 20
-40.06809810367192
 30
0.0
  0
VERTEX
  5
29B
  8
0
 10
-14.63557058796423
 20
-39.86667796605445
 30
0.0
  0
VERTEX
  5
29C
  8
0
 10
-14.44703695090069
 20
-39.66216728606874
 30
0.0
  0
VERTEX
  5
29D
  8
0
 10
-14.26185603217139
 20
-39.45461849844542
 30
0.0
  0
VERTEX
  5
29E
  8
0
 10
-14.08008026632918
 20
-39.24408403791523
 30
0.0
  0
VERTEX
  5
29F
  8
0
 10
-13.90176208792674
 20
-39.03061633920879
 30
0.0
  0
VERTEX
  5
2A0
  8
0
 10
-13.72695393151713
 20
-38.81426783705706
 30
0.0
  0
VERTEX
  5
2A1
  8
0
 10
-13.55570823165305
 20
-38.59509096619066
 30
0.0
  0
VERTEX
  5
2A2
  8
0
 10
-13.38807742288762
 20
-38.37313816134025
 30
0.0
  0
VERTEX
  5
2A3
  8
0
 10
-13.22411393977343
 20
-38.14846185723665
 30
0.0
  0
VERTEX
  5
2A4
  8
0
 10
-13.06387021686346
 20
-37.92111448861058
 30
0.0
  0
VERTEX
  5
2A5
  8
0
 10
-12.90739868871058
 20
-37.69114849019272
 30
0.0
  0
VERTEX
  5
2A6
  8
0
 10
-12.75475178986754
 20
-37.45861629671386
 30
0.0
  0
VERTEX
  5
2A7
  8
0
 10
-12.60598195488732
 20
-37.22357034290478
 30
0.0
  0
VERTEX
  5
2A8
  8
0
 10
-12.46114161832259
 20
-36.98606306349608
 30
0.0
  0
VERTEX
  5
2A9
  8
0
 10
-12.3202832147265
 20
-36.74614689321854
 30
0.0
  0
VERTEX
  5
2AA
  8
0
 10
-12.18293885086294
 20
-36.50420178150073
 30
0.0
  0
VERTEX
  5
2AB
  8
0
 10
-12.04967162313946
 20
-36.26001266432932
 30
0.0
  0
VERTEX
  5
2AC
  8
0
 10
-11.92050072317049
 20
-36.0136511680776
 30
0.0
  0
VERTEX
  5
2AD
  8
0
 10
-11.79544534301456
 20
-35.76518891989062
 30
0.0
  0
VERTEX
  5
2AE
  8
0
 10
-11.67452467472982
 20
-35.51469754691333
 30
0.0
  0
VERTEX
  5
2AF
  8
0
 10
-11.5577579103752
 20
-35.26224867629051
 30
0.0
  0
VERTEX
  5
2B0
  8
0
 10
-11.44516424200867
 20
-35.00791393516734
 30
0.0
  0
VERTEX
  5
2B1
  8
0
 10
-11.33676286168875
 20
-34.75176495068851
 30
0.0
  0
VERTEX
  5
2B2
  8
0
 10
-11.2325729614741
 20
-34.49387334999903
 30
0.0
  0
VERTEX
  5
2B3
  8
0
 10
-11.13261373342312
 20
-34.23431076024378
 30
0.0
  0
VERTEX
  5
2B4
  8
0
 10
-11.03690436959419
 20
-33.97314880856781
 30
0.0
  0
VERTEX
  5
2B5
  8
0
 10
-10.94546406204575
 20
-33.71045912211595
 30
0.0
  0
VERTEX
  5
2B6
  8
0
 10
-10.85831200283635
 20
-33.44631332803319
 30
0.0
  0
VERTEX
  5
2B7
  8
0
 10
-10.7754673840242
 20
-33.18078305346442
 30
0.0
  0
VERTEX
  5
2B8
  8
0
 10
-10.69694939766801
 20
-32.91393992555458
 30
0.0
  0
VERTEX
  5
2B9
  8
0
 10
-10.62277723582612
 20
-32.6458555714486
 30
0.0
  0
VERTEX
  5
2BA
  8
0
 10
-10.55297009055698
 20
-32.37660161829132
 30
0.0
  0
VERTEX
  5
2BB
  8
0
 10
-10.48754715391905
 20
-32.10624969322778
 30
0.0
  0
VERTEX
  5
2BC
  8
0
 10
-10.42652761797072
 20
-31.83487142340292
 30
0.0
  0
VERTEX
  5
2BD
  8
0
 10
-10.36993067477049
 20
-31.56253843596158
 30
0.0
  0
VERTEX
  5
2BE
  8
0
 10
-10.31777551637687
 20
-31.28932235804879
 30
0.0
  0
VERTEX
  5
2BF
  8
0
 10
-10.27008133484834
 20
-31.01529481680934
 30
0.0
  0
VERTEX
  5
2C0
  8
0
 10
-10.22686732224317
 20
-30.74052743938834
 30
0.0
  0
VERTEX
  5
2C1
  8
0
 10
-10.1881526706198
 20
-30.46509185293054
 30
0.0
  0
VERTEX
  5
2C2
  8
0
 10
-10.15395657203687
 20
-30.18905968458095
 30
0.0
  0
VERTEX
  5
2C3
  8
0
 10
-10.12429821855273
 20
-29.91250256148451
 30
0.0
  0
VERTEX
  5
2C4
  8
0
 10
-10.0991968022259
 20
-29.63549211078616
 30
0.0
  0
VERTEX
  5
2C5
  8
0
 10
-10.07867151511463
 20
-29.35809995963083
 30
0.0
  0
VERTEX
  5
2C6
  8
0
 10
-10.06274154927751
 20
-29.08039773516334
 30
0.0
  0
VERTEX
  5
2C7
  8
0
 10
-10.05142609677302
 20
-28.80245706452871
 30
0.0
  0
VERTEX
  5
2C8
  8
0
 10
-10.04474434965963
 20
-28.52434957487187
 30
0.0
  0
VERTEX
  5
2C9
  8
0
 10
-10.04271549999618
 20
-28.24614689289252
 30
0.0
  0
VERTEX
  5
2CA
  8
0
 10
-10.04474434964574
 20
-27.96794412268766
 30
0.0
  0
VERTEX
  5
2CB
  8
0
 10
-10.05142609674417
 20
-27.68983655049693
 30
0.0
  0
VERTEX
  5
2CC
  8
0
 10
-10.06274154923391
 20
-27.41189580302009
 30
0.0
  0
VERTEX
  5
2CD
  8
0
 10
-10.07867151505626
 20
-27.13419350740224
 30
0.0
  0
VERTEX
  5
2CE
  8
0
 10
-10.09919680215284
 20
-26.85680129078816
 30
0.0
  0
VERTEX
  5
2CF
  8
0
 10
-10.12429821846517
 20
-26.57979078032285
 30
0.0
  0
VERTEX
  5
2D0
  8
0
 10
-10.15395657193469
 20
-26.30323360315117
 30
0.0
  0
VERTEX
  5
2D1
  8
0
 10
-10.18815267050321
 20
-26.02720138641808
 30
0.0
  0
VERTEX
  5
2D2
  8
0
 10
-10.22686732211203
 20
-25.75176575726857
 30
0.0
  0
VERTEX
  5
2D3
  8
0
 10
-10.27008133470281
 20
-25.47699834284747
 30
0.0
  0
VERTEX
  5
2D4
  8
0
 10
-10.31777551621718
 20
-25.20297077029983
 30
0.0
  0
VERTEX
  5
2D5
  8
0
 10
-10.3699306745966
 20
-24.92975466677047
 30
0.0
  0
VERTEX
  5
2D6
  8
0
 10
-10.42652761778256
 20
-24.65742165940428
 30
0.0
  0
VERTEX
  5
2D7
  8
0
 10
-10.4875471537167
 20
-24.38604337534631
 30
0.0
  0
VERTEX
  5
2D8
  8
0
 10
-10.55297009034054
 20
-24.11569144174145
 30
0.0
  0
VERTEX
  5
2D9
  8
0
 10
-10.62277723559572
 20
-23.84643748573463
 30
0.0
  0
VERTEX
  5
2DA
  8
0
 10
-10.69694939742369
 20
-23.57835313447074
 30
0.0
  0
VERTEX
  5
2DB
  8
0
 10
-10.77546738376591
 20
-23.31151001509476
 30
0.0
  0
VERTEX
  5
2DC
  8
0
 10
-10.85831200256417
 20
-23.0459797547516
 30
0.0
  0
VERTEX
  5
2DD
  8
0
 10
-10.94546406175996
 20
-22.78183398058617
 30
0.0
  0
VERTEX
  5
2DE
  8
0
 10
-11.03690436929471
 20
-22.51914431974338
 30
0.0
  0
VERTEX
  5
2DF
  8
0
 10
-11.13261373310992
 20
-22.25798239936815
 30
0.0
  0
VERTEX
  5
2E0
  8
0
 10
-11.2325729611474
 20
-21.99841984660548
 30
0.0
  0
VERTEX
  5
2E1
  8
0
 10
-11.33676286134865
 20
-21.74052828860032
 30
0.0
  0
VERTEX
  5
2E2
  8
0
 10
-11.44516424165507
 20
-21.48437935249748
 30
0.0
  0
VERTEX
  5
2E3
  8
0
 10
-11.55775791000818
 20
-21.23004466544197
 30
0.0
  0
VERTEX
  5
2E4
  8
0
 10
-11.67452467434951
 20
-20.97759585457866
 30
0.0
  0
VERTEX
  5
2E5
  8
0
 10
-11.79544534262093
 20
-20.72710454705251
 30
0.0
  0
VERTEX
  5
2E6
  8
0
 10
-11.92050072276366
 20
-20.47864237000854
 30
0.0
  0
VERTEX
  5
2E7
  8
0
 10
-12.0496716227195
 20
-20.23228095059149
 30
0.0
  0
VERTEX
  5
2E8
  8
0
 10
-12.18293885042987
 20
-19.98809191594647
 30
0.0
  0
VERTEX
  5
2E9
  8
0
 10
-12.32028321383628
 20
-19.74614689321823
 30
0.0
  0
VERTEX
  5
2EA
  8
0
 10
-12.46114161786552
 20
-19.50623063390756
 30
0.0
  0
VERTEX
  5
2EB
  8
0
 10
-12.60598195441752
 20
-19.26872327175007
 30
0.0
  0
VERTEX
  5
2EC
  8
0
 10
-12.75475178938523
 20
-19.03367724052818
 30
0.0
  0
VERTEX
  5
2ED
  8
0
 10
-12.90739868821592
 20
-18.80114497479478
 30
0.0
  0
VERTEX
  5
2EE
  8
0
 10
-13.06387021635677
 20
-18.5711789091027
 30
0.0
  0
VERTEX
  5
2EF
  8
0
 10
-13.22411393925459
 20
-18.34383147800476
 30
0.0
  0
VERTEX
  5
2F0
  8
0
 10
-13.38807742235702
 20
-18.11915511605386
 30
0.0
  0
VERTEX
  5
2F1
  8
0
 10
-13.55570823111079
 20
-17.89720225780294
 30
0.0
  0
VERTEX
  5
2F2
  8
0
 10
-13.72695393096352
 20
-17.67802533780467
 30
0.0
  0
VERTEX
  5
2F3
  8
0
 10
-13.90176208736177
 20
-17.46167679061198
 30
0.0
  0
VERTEX
  5
2F4
  8
0
 10
-14.08008026575293
 20
-17.24820905077782
 30
0.0
  0
VERTEX
  5
2F5
  8
0
 10
-14.26185603158435
 20
-17.03767455285497
 30
0.0
  0
VERTEX
  5
2F6
  8
0
 10
-14.44703695030278
 20
-16.83012573139631
 30
0.0
  0
VERTEX
  5
2F7
  8
0
 10
-14.63557058735573
 20
-16.62561502095474
 30
0.0
  0
VERTEX
  5
2F8
  8
0
 10
-14.82740450819012
 20
-16.42419485608301
 30
0.0
  0
VERTEX
  5
2F9
  8
0
 10
-15.02248627825312
 20
-16.22591767133402
 30
0.0
  0
VERTEX
  5
2FA
  8
0
 10
-15.22076346299202
 20
-16.03083590126068
 30
0.0
  0
VERTEX
  5
2FB
  8
0
 10
-15.42218362785368
 20
-15.83900198041584
 30
0.0
  0
VERTEX
  5
2FC
  8
0
 10
-15.62669433828542
 20
-15.65046834335237
 30
0.0
  0
VERTEX
  5
2FD
  8
0
 10
-15.83424315973457
 20
-15.465287424623
 30
0.0
  0
VERTEX
  5
2FE
  8
0
 10
-16.04477765764796
 20
-15.28351165878071
 30
0.0
  0
VERTEX
  5
2FF
  8
0
 10
-16.25824539747273
 20
-15.10519348037825
 30
0.0
  0
VERTEX
  5
300
  8
0
 10
-16.4745939446562
 20
-14.93038532396865
 30
0.0
  0
VERTEX
  5
301
  8
0
 10
-16.6937708646456
 20
-14.75913962410466
 30
0.0
  0
VERTEX
  5
302
  8
0
 10
-16.91572372288768
 20
-14.59150881533912
 30
0.0
  0
VERTEX
  5
303
  8
0
 10
-17.14040008482995
 20
-14.42754533222497
 30
0.0
  0
VERTEX
  5
304
  8
0
 10
-17.36774751591945
 20
-14.26730160931499
 30
0.0
  0
VERTEX
  5
305
  8
0
 10
-17.59771358160321
 20
-14.11083008116207
 30
0.0
  0
VERTEX
  5
306
  8
0
 10
-17.83024584732847
 20
-13.95818318231909
 30
0.0
  0
VERTEX
  5
307
  8
0
 10
-18.06529187854234
 20
-13.80941334733881
 30
0.0
  0
VERTEX
  5
308
  8
0
 10
-18.30279924069207
 20
-13.66457301077416
 30
0.0
  0
VERTEX
  5
309
  8
0
 10
-18.54271549922458
 20
-13.52371460717805
 30
0.0
  0
VERTEX
  5
30A
  8
0
 10
-18.78466052271715
 20
-13.38637032878266
 30
0.0
  0
VERTEX
  5
30B
  8
0
 10
-19.02884955735512
 20
-13.25310317567739
 30
0.0
  0
VERTEX
  5
30C
  8
0
 10
-19.27521097676521
 20
-13.12393234000988
 30
0.0
  0
VERTEX
  5
30D
  8
0
 10
-19.52367315380256
 20
-12.99887701437231
 30
0.0
  0
VERTEX
  5
30E
  8
0
 10
-19.7741644613224
 20
-12.87795639135654
 30
0.0
  0
VERTEX
  5
30F
  8
0
 10
-20.02661327217958
 20
-12.76118966355486
 30
0.0
  0
VERTEX
  5
310
  8
0
 10
-20.28094795922922
 20
-12.6485960235592
 30
0.0
  0
VERTEX
  5
311
  8
0
 10
-20.53709689532626
 20
-12.54019466396174
 30
0.0
  0
VERTEX
  5
312
  8
0
 10
-20.79498845332603
 20
-12.43600477735441
 30
0.0
  0
VERTEX
  5
313
  8
0
 10
-21.05455100608346
 20
-12.33604555632942
 30
0.0
  0
VERTEX
  5
314
  8
0
 10
-21.31571292645359
 20
-12.24033619347884
 30
0.0
  0
VERTEX
  5
315
  8
0
 10
-21.57840258729173
 20
-12.14889588139454
 30
0.0
  0
VERTEX
  5
316
  8
0
 10
-21.84254836145254
 20
-12.0617438126688
 30
0.0
  0
VERTEX
  5
317
  8
0
 10
-22.10807862179146
 20
-11.97889917989368
 30
0.0
  0
VERTEX
  5
318
  8
0
 10
-22.3749217411634
 20
-11.90038117566113
 30
0.0
  0
VERTEX
  5
319
  8
0
 10
-22.64300609242329
 20
-11.82620899256333
 30
0.0
  0
VERTEX
  5
31A
  8
0
 10
-22.9122600484266
 20
-11.75640182319231
 30
0.0
  0
VERTEX
  5
31B
  8
0
 10
-23.1826119820281
 20
-11.69097886014005
 30
0.0
  0
VERTEX
  5
31C
  8
0
 10
-23.45399026608289
 20
-11.62995929599878
 30
0.0
  0
VERTEX
  5
31D
  8
0
 10
-23.68400938653765
 20
-11.58215610830326
 30
0.0
  0
VERTEX
  5
31E
  8
0
 10
-27.04271513728853
 20
-8.22345035755237
 30
0.0
  0
SEQEND
  5
31F
  8
0
  0
POLYLINE
  5
42
  8
0
 66
     1
 10
0.0
 20
0.0
 30
0.0
 70
     1
  0
VERTEX
  5
320
  8
0
 10
24.59857912225997
 20
-11.58215609800387
 30
0.0
  0
VERTEX
  5
321
  8
0
 10
24.36855996991864
 20
-11.62995929581059
 30
0.0
  0
VERTEX
  5
322
  8
0
 10
24.09718170009053
 20
-11.69097885993772
 30
0.0
  0
VERTEX
  5
323
  8
0
 10
23.82682977502359
 20
-11.7564018229759
 30
0.0
  0
VERTEX
  5
324
  8
0
 10
23.55757582186278
 20
-11.82620899233296
 30
0.0
  0
VERTEX
  5
325
  8
0
 10
23.28949146775291
 20
-11.90038117541683
 30
0.0
  0
VERTEX
  5
326
  8
0
 10
23.02264833983901
 20
-11.97889917963548
 30
0.0
  0
VERTEX
  5
327
  8
0
 10
22.75711806526584
 20
-12.06174381239679
 30
0.0
  0
VERTEX
  5
328
  8
0
 10
22.49297227117842
 20
-12.14889588110883
 30
0.0
  0
VERTEX
  5
329
  8
0
 10
22.23028258472184
 20
-12.24033619317933
 30
0.0
  0
VERTEX
  5
32A
  8
0
 10
21.96912063304093
 20
-12.33604555601638
 30
0.0
  0
VERTEX
  5
32B
  8
0
 10
21.70955804328051
 20
-12.43600477702779
 30
0.0
  0
VERTEX
  5
32C
  8
0
 10
21.4516664425856
 20
-12.54019466362153
 30
0.0
  0
VERTEX
  5
32D
  8
0
 10
21.19551745810102
 20
-12.64859602320558
 30
0.0
  0
VERTEX
  5
32E
  8
0
 10
20.94118271697185
 20
-12.76118966318781
 30
0.0
  0
VERTEX
  5
32F
  8
0
 10
20.68873384634296
 20
-12.87795639097625
 30
0.0
  0
VERTEX
  5
330
  8
0
 10
20.43824247335932
 20
-12.99887701397865
 30
0.0
  0
VERTEX
  5
331
  8
0
 10
20.18978022516568
 20
-13.12393233960315
 30
0.0
  0
VERTEX
  5
332
  8
0
 10
19.94341872890725
 20
-13.25310317525756
 30
0.0
  0
VERTEX
  5
333
  8
0
 10
19.69922961172864
 20
-13.38637032834969
 30
0.0
  0
VERTEX
  5
334
  8
0
 10
19.45728450077517
 20
-13.52371460628781
 30
0.0
  0
VERTEX
  5
335
  8
0
 10
19.2173683297193
 20
-13.66457301031705
 30
0.0
  0
VERTEX
  5
336
  8
0
 10
18.97986105030294
 20
-13.80941334686901
 30
0.0
  0
VERTEX
  5
337
  8
0
 10
18.74481509648579
 20
-13.95818318183674
 30
0.0
  0
VERTEX
  5
338
  8
0
 10
18.51228290299877
 20
-14.11083008066741
 30
0.0
  0
VERTEX
  5
339
  8
0
 10
18.28231690457277
 20
-14.26730160880819
 30
0.0
  0
VERTEX
  5
33A
  8
0
 10
18.05496953593816
 20
-14.42754533170624
 30
0.0
  0
VERTEX
  5
33B
  8
0
 10
17.8302932318259
 20
-14.59150881480857
 30
0.0
  0
VERTEX
  5
33C
  8
0
 10
17.60834042696674
 20
-14.75913962356241
 30
0.0
  0
VERTEX
  5
33D
  8
0
 10
17.3891635560913
 20
-14.93038532341492
 30
0.0
  0
VERTEX
  5
33E
  8
0
 10
17.17281505393044
 20
-15.10519347981325
 30
0.0
  0
VERTEX
  5
33F
  8
0
 10
16.95934735521477
 20
-15.28351165820449
 30
0.0
  0
VERTEX
  5
340
  8
0
 10
16.74881289467507
 20
-15.4652874240358
 30
0.0
  0
VERTEX
  5
341
  8
0
 10
16.54126410704213
 20
-15.65046834275433
 30
0.0
  0
VERTEX
  5
342
  8
0
 10
16.3367534270466
 20
-15.83900197980722
 30
0.0
  0
VERTEX
  5
343
  8
0
 10
16.13533328941921
 20
-16.03083590064161
 30
0.0
  0
VERTEX
  5
344
  8
0
 10
15.93705612889084
 20
-16.22591767070464
 30
0.0
  0
VERTEX
  5
345
  8
0
 10
15.7419743801919
 20
-16.42419485544346
 30
0.0
  0
VERTEX
  5
346
  8
0
 10
15.55014047805351
 20
-16.62561502030524
 30
0.0
  0
VERTEX
  5
347
  8
0
 10
15.36160685720613
 20
-16.83012573073699
 30
0.0
  0
VERTEX
  5
348
  8
0
 10
15.1764259523806
 20
-17.03767455218599
 30
0.0
  0
VERTEX
  5
349
  8
0
 10
14.99465019830764
 20
-17.24820905009946
 30
0.0
  0
VERTEX
  5
34A
  8
0
 10
14.81633202971798
 20
-17.46167678992428
 30
0.0
  0
VERTEX
  5
34B
  8
0
 10
14.6415238813422
 20
-17.67802533710775
 30
0.0
  0
VERTEX
  5
34C
  8
0
 10
14.47027818791128
 20
-17.89720225709702
 30
0.0
  0
VERTEX
  5
34D
  8
0
 10
14.30264738415591
 20
-18.11915511533921
 30
0.0
  0
VERTEX
  5
34E
  8
0
 10
14.13868390480677
 20
-18.34383147728149
 30
0.0
  0
VERTEX
  5
34F
  8
0
 10
13.97844018459448
 20
-18.57117890837093
 30
0.0
  0
VERTEX
  5
350
  8
0
 10
13.8219686582501
 20
-18.80114497405473
 30
0.0
  0
VERTEX
  5
351
  8
0
 10
13.66932176050399
 20
-19.03367723978002
 30
0.0
  0
VERTEX
  5
352
  8
0
 10
13.52055192608699
 20
-19.26872327099401
 30
0.0
  0
VERTEX
  5
353
  8
0
 10
13.37571158972977
 20
-19.50623063314366
 30
0.0
  0
VERTEX
  5
354
  8
0
 10
13.23485318616331
 20
-19.74614689167629
 30
0.0
  0
VERTEX
  5
355
  8
0
 10
13.09750882227003
 20
-19.98809191516865
 30
0.0
  0
VERTEX
  5
356
  8
0
 10
12.96424159433905
 20
-20.23228094980655
 30
0.0
  0
VERTEX
  5
357
  8
0
 10
12.83507069380686
 20
-20.47864236921675
 30
0.0
  0
VERTEX
  5
358
  8
0
 10
12.71001531255398
 20
-20.7271045462542
 30
0.0
  0
VERTEX
  5
359
  8
0
 10
12.58909464246093
 20
-20.9775958537739
 30
0.0
  0
VERTEX
  5
35A
  8
0
 10
12.47232787540844
 20
-21.23004466463102
 30
0.0
  0
VERTEX
  5
35B
  8
0
 10
12.35973420327696
 20
-21.48437935168062
 30
0.0
  0
VERTEX
  5
35C
  8
0
 10
12.25133281794699
 20
-21.74052828777777
 30
0.0
  0
VERTEX
  5
35D
  8
0
 10
12.14714291129913
 20
-21.99841984577752
 30
0.0
  0
VERTEX
  5
35E
  8
0
 10
12.04718367521426
 20
-22.25798239853494
 30
0.0
  0
VERTEX
  5
35F
  8
0
 10
11.95147430157266
 20
-22.51914431890509
 30
0.0
  0
VERTEX
  5
360
  8
0
 10
11.86003398225485
 20
-22.78183397974308
 30
0.0
  0
VERTEX
  5
361
  8
0
 10
11.77288190914162
 20
-23.04597975390404
 30
0.0
  0
VERTEX
  5
362
  8
0
 10
11.6900372741134
 20
-23.3115100142429
 30
0.0
  0
VERTEX
  5
363
  8
0
 10
11.61151926905067
 20
-23.57835313361484
 30
0.0
  0
VERTEX
  5
364
  8
0
 10
11.53734708583435
 20
-23.84643748487487
 30
0.0
  0
VERTEX
  5
365
  8
0
 10
11.46753991634469
 20
-24.1156914408781
 30
0.0
  0
VERTEX
  5
366
  8
0
 10
11.40211695246235
 20
-24.38604337447954
 30
0.0
  0
VERTEX
  5
367
  8
0
 10
11.34109738606811
 20
-24.6574216585343
 30
0.0
  0
VERTEX
  5
368
  8
0
 10
11.28450040904215
 20
-24.92975466589751
 30
0.0
  0
VERTEX
  5
369
  8
0
 10
11.23234521326533
 20
-25.20297076942416
 30
0.0
  0
VERTEX
  5
36A
  8
0
 10
11.18465099061824
 20
-25.47699834196937
 30
0.0
  0
VERTEX
  5
36B
  8
0
 10
11.14143693298126
 20
-25.75176575638821
 30
0.0
  0
VERTEX
  5
36C
  8
0
 10
11.10272223223516
 20
-26.02720138553573
 30
0.0
  0
VERTEX
  5
36D
  8
0
 10
11.06852608026039
 20
-26.303233602267
 30
0.0
  0
VERTEX
  5
36E
  8
0
 10
11.03886766893768
 20
-26.57979077943707
 30
0.0
  0
VERTEX
  5
36F
  8
0
 10
11.01376619014734
 20
-26.85680128990106
 30
0.0
  0
VERTEX
  5
370
  8
0
 10
10.99324083577019
 20
-27.13419350651404
 30
0.0
  0
VERTEX
  5
371
  8
0
 10
10.97731079768656
 20
-27.41189580213106
 30
0.0
  0
VERTEX
  5
372
  8
0
 10
10.96599526777737
 20
-27.68983654960718
 30
0.0
  0
VERTEX
  5
373
  8
0
 10
10.95931343792294
 20
-27.96794412179747
 30
0.0
  0
VERTEX
  5
374
  8
0
 10
10.95728450000382
 20
-28.24614689155715
 30
0.0
  0
VERTEX
  5
375
  8
0
 10
10.95931343790896
 20
-28.52434957398168
 30
0.0
  0
VERTEX
  5
376
  8
0
 10
10.96599526774859
 20
-28.80245706363896
 30
0.0
  0
VERTEX
  5
377
  8
0
 10
10.97731079764302
 20
-29.0803977342742
 30
0.0
  0
VERTEX
  5
378
  8
0
 10
10.9932408357118
 20
-29.35809995874262
 30
0.0
  0
VERTEX
  5
379
  8
0
 10
11.01376619007436
 20
-29.63549210989911
 30
0.0
  0
VERTEX
  5
37A
  8
0
 10
11.03886766884997
 20
-29.9125025605988
 30
0.0
  0
VERTEX
  5
37B
  8
0
 10
11.06852608015829
 20
-30.18905968369684
 30
0.0
  0
VERTEX
  5
37C
  8
0
 10
11.10272223211852
 20
-30.46509185204814
 30
0.0
  0
VERTEX
  5
37D
  8
0
 10
11.14143693285022
 20
-30.74052743850797
 30
0.0
  0
VERTEX
  5
37E
  8
0
 10
11.18465099047275
 20
-31.01529481593131
 30
0.0
  0
VERTEX
  5
37F
  8
0
 10
11.23234521310552
 20
-31.28932235717313
 30
0.0
  0
VERTEX
  5
380
  8
0
 10
11.28450040886818
 20
-31.56253843508873
 30
0.0
  0
VERTEX
  5
381
  8
0
 10
11.34109738587983
 20
-31.83487142253294
 30
0.0
  0
VERTEX
  5
382
  8
0
 10
11.40211695226011
 20
-32.106249692361
 30
0.0
  0
VERTEX
  5
383
  8
0
 10
11.46753991612826
 20
-32.37660161742791
 30
0.0
  0
VERTEX
  5
384
  8
0
 10
11.53734708560395
 20
-32.64585557058878
 30
0.0
  0
VERTEX
  5
385
  8
0
 10
11.61151926880647
 20
-32.91393992469862
 30
0.0
  0
VERTEX
  5
386
  8
0
 10
11.6900372738552
 20
-33.18078305261261
 30
0.0
  0
VERTEX
  5
387
  8
0
 10
11.7728819088696
 20
-33.44631332718568
 30
0.0
  0
VERTEX
  5
388
  8
0
 10
11.86003398196915
 20
-33.71045912127303
 30
0.0
  0
VERTEX
  5
389
  8
0
 10
11.95147430127326
 20
-33.97314880772964
 30
0.0
  0
VERTEX
  5
38A
  8
0
 10
12.04718367490117
 20
-34.23431075941063
 30
0.0
  0
VERTEX
  5
38B
  8
0
 10
12.14714291097264
 20
-34.49387334917107
 30
0.0
  0
VERTEX
  5
38C
  8
0
 10
12.25133281760689
 20
-34.75176494986596
 30
0.0
  0
VERTEX
  5
38D
  8
0
 10
12.35973420292336
 20
-35.00791393435048
 30
0.0
  0
VERTEX
  5
38E
  8
0
 10
12.47232787504145
 20
-35.26224867547968
 30
0.0
  0
VERTEX
  5
38F
  8
0
 10
12.58909464208072
 20
-35.51469754610856
 30
0.0
  0
VERTEX
  5
390
  8
0
 10
12.71001531216036
 20
-35.76518891909225
 30
0.0
  0
VERTEX
  5
391
  8
0
 10
12.83507069340012
 20
-36.01365116728581
 30
0.0
  0
VERTEX
  5
392
  8
0
 10
12.9642415939191
 20
-36.26001266354441
 30
0.0
  0
VERTEX
  5
393
  8
0
 10
13.09750882183708
 20
-36.50420178072291
 30
0.0
  0
VERTEX
  5
394
  8
0
 10
13.23485318527309
 20
-36.74614689167658
 30
0.0
  0
VERTEX
  5
395
  8
0
 10
13.37571158927271
 20
-36.98606306273215
 30
0.0
  0
VERTEX
  5
396
  8
0
 10
13.52055192561721
 20
-37.22357034214872
 30
0.0
  0
VERTEX
  5
397
  8
0
 10
13.66932176002156
 20
-37.45861629596577
 30
0.0
  0
VERTEX
  5
398
  8
0
 10
13.82196865775544
 20
-37.69114848945277
 30
0.0
  0
VERTEX
  5
399
  8
0
 10
13.97844018408787
 20
-37.9211144878789
 30
0.0
  0
VERTEX
  5
39A
  8
0
 10
14.13868390428793
 20
-38.14846185651341
 30
0.0
  0
VERTEX
  5
39B
  8
0
 10
14.30264738362541
 20
-38.37313816062567
 30
0.0
  0
VERTEX
  5
39C
  8
0
 10
14.47027818736903
 20
-38.59509096548482
 30
0.0
  0
VERTEX
  5
39D
  8
0
 10
14.64152388078857
 20
-38.81426783636017
 30
0.0
  0
VERTEX
  5
39E
  8
0
 10
14.8163320291528
 20
-39.03061633852113
 30
0.0
  0
VERTEX
  5
39F
  8
0
 10
14.99465019773149
 20
-39.24408403723677
 30
0.0
  0
VERTEX
  5
3A0
  8
0
 10
15.17642595179338
 20
-39.45461849777639
 30
0.0
  0
VERTEX
  5
3A1
  8
0
 10
15.36160685660813
 20
-39.66216728540945
 30
0.0
  0
VERTEX
  5
3A2
  8
0
 10
15.55014047744483
 20
-39.86667796540496
 30
0.0
  0
VERTEX
  5
3A3
  8
0
 10
15.7419743795728
 20
-40.06809810303233
 30
0.0
  0
VERTEX
  5
3A4
  8
0
 10
15.93705612826125
 20
-40.2663752635608
 30
0.0
  0
VERTEX
  5
3A5
  8
0
 10
16.13533328877964
 20
-40.46145701225965
 30
0.0
  0
VERTEX
  5
3A6
  8
0
 10
16.33675342639701
 20
-40.65329091439814
 30
0.0
  0
VERTEX
  5
3A7
  8
0
 10
16.54126410638281
 20
-40.84182453524542
 30
0.0
  0
VERTEX
  5
3A8
  8
0
 10
16.74881289400614
 20
-41.02700544007096
 30
0.0
  0
VERTEX
  5
3A9
  8
0
 10
16.95934735453634
 20
-41.20878119414403
 30
0.0
  0
VERTEX
  5
3AA
  8
0
 10
17.17281505324266
 20
-41.38709936273366
 30
0.0
  0
VERTEX
  5
3AB
  8
0
 10
17.38916355539449
 20
-41.56190751110937
 30
0.0
  0
VERTEX
  5
3AC
  8
0
 10
17.60834042626079
 20
-41.73315320454019
 30
0.0
  0
VERTEX
  5
3AD
  8
0
 10
17.83029323111121
 20
-41.90078400829556
 30
0.0
  0
VERTEX
  5
3AE
  8
0
 10
18.05496953521492
 20
-42.06474748764487
 30
0.0
  0
VERTEX
  5
3AF
  8
0
 10
18.28231690384109
 20
-42.22499120785699
 30
0.0
  0
VERTEX
  5
3B0
  8
0
 10
18.51228290225875
 20
-42.38146273420156
 30
0.0
  0
VERTEX
  5
3B1
  8
0
 10
18.74481509573759
 20
-42.53410963194766
 30
0.0
  0
VERTEX
  5
3B2
  8
0
 10
18.97986104954679
 20
-42.68287946636465
 30
0.0
  0
VERTEX
  5
3B3
  8
0
 10
19.21736832895548
 20
-42.8277198027217
 30
0.0
  0
VERTEX
  5
3B4
  8
0
 10
19.45728449923281
 20
-42.96857820628824
 30
0.0
  0
VERTEX
  5
3B5
  8
0
 10
19.69922961095082
 20
-43.10592257293865
 30
0.0
  0
VERTEX
  5
3B6
  8
0
 10
19.94341872812215
 20
-43.23918980878501
 30
0.0
  0
VERTEX
  5
3B7
  8
0
 10
20.18978022437378
 20
-43.36836072185729
 30
0.0
  0
VERTEX
  5
3B8
  8
0
 10
20.43824247256091
 20
-43.49341611974141
 30
0.0
  0
VERTEX
  5
3B9
  8
0
 10
20.68873384553822
 20
-43.61433681002306
 30
0.0
  0
VERTEX
  5
3BA
  8
0
 10
20.9411827161609
 20
-43.73110360028812
 30
0.0
  0
VERTEX
  5
3BB
  8
0
 10
21.19551745728424
 20
-43.84369729812245
 30
0.0
  0
VERTEX
  5
3BC
  8
0
 10
21.45166644176299
 20
-43.95209871111172
 30
0.0
  0
VERTEX
  5
3BD
  8
0
 10
21.70955804245255
 20
-44.05628864684181
 30
0.0
  0
VERTEX
  5
3BE
  8
0
 10
21.96912063220773
 20
-44.15624791289856
 30
0.0
  0
VERTEX
  5
3BF
  8
0
 10
22.23028258388369
 20
-44.25195731686767
 30
0.0
  0
VERTEX
  5
3C0
  8
0
 10
22.49297227033561
 20
-44.34339766633512
 30
0.0
  0
VERTEX
  5
3C1
  8
0
 10
22.75711806441836
 20
-44.43054976888656
 30
0.0
  0
VERTEX
  5
3C2
  8
0
 10
23.02264833898705
 20
-44.51339443210775
 30
0.0
  0
VERTEX
  5
3C3
  8
0
 10
23.28949146689698
 20
-44.59191246358468
 30
0.0
  0
VERTEX
  5
3C4
  8
0
 10
23.55757582100298
 20
-44.666084670903
 30
0.0
  0
VERTEX
  5
3C5
  8
0
 10
23.82682977416018
 20
-44.73589186164851
 30
0.0
  0
VERTEX
  5
3C6
  8
0
 10
24.09718169922361
 20
-44.80131484340717
 30
0.0
  0
VERTEX
  5
3C7
  8
0
 10
24.36855996904853
 20
-44.86233442376465
 30
0.0
  0
VERTEX
  5
3C8
  8
0
 10
24.64089295649003
 20
-44.91893141030671
 30
0.0
  0
VERTEX
  5
3C9
  8
0
 10
24.91410903440268
 20
-44.97108661061922
 30
0.0
  0
VERTEX
  5
3CA
  8
0
 10
25.18813657564221
 20
-45.01878083228806
 30
0.0
  0
VERTEX
  5
3CB
  8
0
 10
25.46290395306325
 20
-45.061994882899
 30
0.0
  0
VERTEX
  5
3CC
  8
0
 10
25.73833953952101
 20
-45.10070957003781
 30
0.0
  0
VERTEX
  5
3CD
  8
0
 10
26.01437170787055
 20
-45.13490570129026
 30
0.0
  0
VERTEX
  5
3CE
  8
0
 10
26.29092883096699
 20
-45.16456408424213
 30
0.0
  0
VERTEX
  5
3CF
  8
0
 10
26.56793928166546
 20
-45.18966552647937
 30
0.0
  0
VERTEX
  5
3D0
  8
0
 10
26.8453314328207
 20
-45.21019083558755
 30
0.0
  0
VERTEX
  5
3D1
  8
0
 10
27.12303365728815
 20
-45.22612081915278
 30
0.0
  0
VERTEX
  5
3D2
  8
0
 10
27.40097432792284
 20
-45.23743628476068
 30
0.0
  0
VERTEX
  5
3D3
  8
0
 10
27.67908181757979
 20
-45.24411803999695
 30
0.0
  0
VERTEX
  5
3D4
  8
0
 10
27.95728449911385
 20
-45.24614689244763
 30
0.0
  0
VERTEX
  5
3D5
  8
0
 10
28.23548726976385
 20
-45.24411804001093
 30
0.0
  0
VERTEX
  5
3D6
  8
0
 10
28.51359484195464
 20
-45.23743628478942
 30
0.0
  0
VERTEX
  5
3D7
  8
0
 10
28.79153558943137
 20
-45.2261208191964
 30
0.0
  0
VERTEX
  5
3D8
  8
0
 10
29.06923788504928
 20
-45.21019083564595
 30
0.0
  0
VERTEX
  5
3D9
  8
0
 10
29.34663010166327
 20
-45.18966552655233
 30
0.0
  0
VERTEX
  5
3DA
  8
0
 10
29.62364061212867
 20
-45.16456408432975
 30
0.0
  0
VERTEX
  5
3DB
  8
0
 10
29.90019778930026
 20
-45.13490570139237
 30
0.0
  0
VERTEX
  5
3DC
  8
0
 10
30.17623000603338
 20
-45.10070957015448
 30
0.0
  0
VERTEX
  5
3DD
  8
0
 10
30.451665635183
 20
-45.06199488303007
 30
0.0
  0
VERTEX
  5
3DE
  8
0
 10
30.72643304960399
 20
-45.01878083243359
 30
0.0
  0
VERTEX
  5
3DF
  8
0
 10
31.00046062215166
 20
-44.97108661077911
 30
0.0
  0
VERTEX
  5
3E0
  8
0
 10
31.2736767256811
 20
-44.91893141048078
 30
0.0
  0
VERTEX
  5
3E1
  8
0
 10
31.54600973304729
 20
-44.8623344239528
 30
0.0
  0
VERTEX
  5
3E2
  8
0
 10
31.81738801710518
 20
-44.80131484360943
 30
0.0
  0
VERTEX
  5
3E3
  8
0
 10
32.08773995071009
 20
-44.73589186186494
 30
0.0
  0
VERTEX
  5
3E4
  8
0
 10
32.35699390671689
 20
-44.66608467113333
 30
0.0
  0
VERTEX
  5
3E5
  8
0
 10
32.62507825798078
 20
-44.59191246382899
 30
0.0
  0
VERTEX
  5
3E6
  8
0
 10
32.89192137735679
 20
-44.51339443236594
 30
0.0
  0
VERTEX
  5
3E7
  8
0
 10
33.15745163769987
 20
-44.43054976915855
 30
0.0
  0
VERTEX
  5
3E8
  8
0
 10
33.42159741186535
 20
-44.34339766662092
 30
0.0
  0
VERTEX
  5
3E9
  8
0
 10
33.68428707270817
 20
-44.25195731716727
 30
0.0
  0
VERTEX
  5
3EA
  8
0
 10
33.94544899308335
 20
-44.15624791321165
 30
0.0
  0
VERTEX
  5
3EB
  8
0
 10
34.20501154584613
 20
-44.05628864716849
 30
0.0
  0
VERTEX
  5
3EC
  8
0
 10
34.46290310385123
 20
-43.95209871145191
 30
0.0
  0
VERTEX
  5
3ED
  8
0
 10
34.719052039954
 20
-43.84369729847606
 30
0.0
  0
VERTEX
  5
3EE
  8
0
 10
34.97338672700957
 20
-43.73110360065513
 30
0.0
  0
VERTEX
  5
3EF
  8
0
 10
35.22583553787295
 20
-43.61433681040339
 30
0.0
  0
VERTEX
  5
3F0
  8
0
 10
35.47632684539892
 20
-43.49341612013494
 30
0.0
  0
VERTEX
  5
3F1
  8
0
 10
35.72478902244299
 20
-43.36836072226401
 30
0.0
  0
VERTEX
  5
3F2
  8
0
 10
35.97115044186007
 20
-43.23918980920487
 30
0.0
  0
VERTEX
  5
3F3
  8
0
 10
36.21533947650493
 20
-43.1059225733717
 30
0.0
  0
VERTEX
  5
3F4
  8
0
 10
36.45728449923308
 20
-42.96857820717845
 30
0.0
  0
VERTEX
  5
3F5
  8
0
 10
36.697200758544
 20
-42.82771980317885
 30
0.0
  0
VERTEX
  5
3F6
  8
0
 10
36.93470812070141
 20
-42.68287946683444
 30
0.0
  0
VERTEX
  5
3F7
  8
0
 10
37.16975415192334
 20
-42.53410963242998
 30
0.0
  0
VERTEX
  5
3F8
  8
0
 10
37.40228641765675
 20
-42.38146273469611
 30
0.0
  0
VERTEX
  5
3F9
  8
0
 10
37.63225248334896
 20
-42.22499120836379
 30
0.0
  0
VERTEX
  5
3FA
  8
0
 10
37.85959991444672
 20
-42.06474748816351
 30
0.0
  0
VERTEX
  5
3FB
  8
0
 10
38.08427627639765
 20
-41.90078400882615
 30
0.0
  0
VERTEX
  5
3FC
  8
0
 10
38.30622913464866
 20
-41.73315320508243
 30
0.0
  0
VERTEX
  5
3FD
  8
0
 10
38.52540605464689
 20
-41.56190751166308
 30
0.0
  0
VERTEX
  5
3FE
  8
0
 10
38.7417546018396
 20
-41.38709936329866
 30
0.0
  0
VERTEX
  5
3FF
  8
0
 10
38.95522234167358
 20
-41.20878119472017
 30
0.0
  0
VERTEX
  5
400
  8
0
 10
39.1657568395965
 20
-41.02700544065819
 30
0.0
  0
VERTEX
  5
401
  8
0
 10
39.37330566105517
 20
-40.84182453584344
 30
0.0
  0
VERTEX
  5
402
  8
0
 10
39.57781637149682
 20
-40.65329091500674
 30
0.0
  0
VERTEX
  5
403
  8
0
 10
39.77923653636858
 20
-40.46145701287874
 30
0.0
  0
VERTEX
  5
404
  8
0
 10
39.97751372111749
 20
-40.2663752641902
 30
0.0
  0
VERTEX
  5
405
  8
0
 10
40.17259549119088
 20
-40.06809810367192
 30
0.0
  0
VERTEX
  5
406
  8
0
 10
40.36442941203578
 20
-39.86667796605445
 30
0.0
  0
VERTEX
  5
407
  8
0
 10
40.55296304909931
 20
-39.66216728606874
 30
0.0
  0
VERTEX
  5
408
  8
0
 10
40.73814396782862
 20
-39.45461849844542
 30
0.0
  0
VERTEX
  5
409
  8
0
 10
40.91991973367082
 20
-39.24408403791523
 30
0.0
  0
VERTEX
  5
40A
  8
0
 10
41.09823791207326
 20
-39.03061633920879
 30
0.0
  0
VERTEX
  5
40B
  8
0
 10
41.27304606848287
 20
-38.81426783705706
 30
0.0
  0
VERTEX
  5
40C
  8
0
 10
41.44429176834696
 20
-38.59509096619066
 30
0.0
  0
VERTEX
  5
40D
  8
0
 10
41.61192257711238
 20
-38.37313816134025
 30
0.0
  0
VERTEX
  5
40E
  8
0
 10
41.77588606022658
 20
-38.14846185723665
 30
0.0
  0
VERTEX
  5
40F
  8
0
 10
41.93612978313654
 20
-37.92111448861058
 30
0.0
  0
VERTEX
  5
410
  8
0
 10
42.09260131128943
 20
-37.69114849019272
 30
0.0
  0
VERTEX
  5
411
  8
0
 10
42.24524821013246
 20
-37.45861629671386
 30
0.0
  0
VERTEX
  5
412
  8
0
 10
42.39401804511269
 20
-37.22357034290478
 30
0.0
  0
VERTEX
  5
413
  8
0
 10
42.53885838167741
 20
-36.98606306349608
 30
0.0
  0
VERTEX
  5
414
  8
0
 10
42.6797167852735
 20
-36.74614689321854
 30
0.0
  0
VERTEX
  5
415
  8
0
 10
42.81706114913706
 20
-36.50420178150073
 30
0.0
  0
VERTEX
  5
416
  8
0
 10
42.95032837686054
 20
-36.26001266432932
 30
0.0
  0
VERTEX
  5
417
  8
0
 10
43.07949927682951
 20
-36.0136511680776
 30
0.0
  0
VERTEX
  5
418
  8
0
 10
43.20455465698544
 20
-35.76518891989062
 30
0.0
  0
VERTEX
  5
419
  8
0
 10
43.32547532527018
 20
-35.51469754691333
 30
0.0
  0
VERTEX
  5
41A
  8
0
 10
43.4422420896248
 20
-35.26224867629051
 30
0.0
  0
VERTEX
  5
41B
  8
0
 10
43.55483575799133
 20
-35.00791393516734
 30
0.0
  0
VERTEX
  5
41C
  8
0
 10
43.66323713831125
 20
-34.75176495068851
 30
0.0
  0
VERTEX
  5
41D
  8
0
 10
43.7674270385259
 20
-34.49387334999903
 30
0.0
  0
VERTEX
  5
41E
  8
0
 10
43.86738626657688
 20
-34.23431076024378
 30
0.0
  0
VERTEX
  5
41F
  8
0
 10
43.96309563040581
 20
-33.97314880856781
 30
0.0
  0
VERTEX
  5
420
  8
0
 10
44.05453593795426
 20
-33.71045912211595
 30
0.0
  0
VERTEX
  5
421
  8
0
 10
44.14168799716366
 20
-33.44631332803319
 30
0.0
  0
VERTEX
  5
422
  8
0
 10
44.2245326159758
 20
-33.18078305346442
 30
0.0
  0
VERTEX
  5
423
  8
0
 10
44.30305060233199
 20
-32.91393992555458
 30
0.0
  0
VERTEX
  5
424
  8
0
 10
44.37722276417388
 20
-32.6458555714486
 30
0.0
  0
VERTEX
  5
425
  8
0
 10
44.44702990944302
 20
-32.37660161829132
 30
0.0
  0
VERTEX
  5
426
  8
0
 10
44.51245284608095
 20
-32.10624969322778
 30
0.0
  0
VERTEX
  5
427
  8
0
 10
44.57347238202928
 20
-31.83487142340292
 30
0.0
  0
VERTEX
  5
428
  8
0
 10
44.63006932522951
 20
-31.56253843596158
 30
0.0
  0
VERTEX
  5
429
  8
0
 10
44.68222448362313
 20
-31.28932235804879
 30
0.0
  0
VERTEX
  5
42A
  8
0
 10
44.72991866515166
 20
-31.01529481680934
 30
0.0
  0
VERTEX
  5
42B
  8
0
 10
44.77313267775683
 20
-30.74052743938834
 30
0.0
  0
VERTEX
  5
42C
  8
0
 10
44.8118473293802
 20
-30.46509185293054
 30
0.0
  0
VERTEX
  5
42D
  8
0
 10
44.84604342796314
 20
-30.18905968458095
 30
0.0
  0
VERTEX
  5
42E
  8
0
 10
44.87570178144728
 20
-29.91250256148451
 30
0.0
  0
VERTEX
  5
42F
  8
0
 10
44.90080319777411
 20
-29.63549211078616
 30
0.0
  0
VERTEX
  5
430
  8
0
 10
44.92132848488537
 20
-29.35809995963083
 30
0.0
  0
VERTEX
  5
431
  8
0
 10
44.9372584507225
 20
-29.08039773516334
 30
0.0
  0
VERTEX
  5
432
  8
0
 10
44.94857390322699
 20
-28.80245706452871
 30
0.0
  0
VERTEX
  5
433
  8
0
 10
44.95525565034038
 20
-28.52434957487187
 30
0.0
  0
VERTEX
  5
434
  8
0
 10
44.95728450000382
 20
-28.24614689289252
 30
0.0
  0
VERTEX
  5
435
  8
0
 10
44.95525565035426
 20
-27.96794412268766
 30
0.0
  0
VERTEX
  5
436
  8
0
 10
44.94857390325583
 20
-27.68983655049693
 30
0.0
  0
VERTEX
  5
437
  8
0
 10
44.93725845076609
 20
-27.41189580302009
 30
0.0
  0
VERTEX
  5
438
  8
0
 10
44.92132848494374
 20
-27.13419350740224
 30
0.0
  0
VERTEX
  5
439
  8
0
 10
44.90080319784716
 20
-26.85680129078816
 30
0.0
  0
VERTEX
  5
43A
  8
0
 10
44.87570178153483
 20
-26.57979078032285
 30
0.0
  0
VERTEX
  5
43B
  8
0
 10
44.84604342806531
 20
-26.30323360315117
 30
0.0
  0
VERTEX
  5
43C
  8
0
 10
44.8118473294968
 20
-26.02720138641808
 30
0.0
  0
VERTEX
  5
43D
  8
0
 10
44.77313267788797
 20
-25.75176575726857
 30
0.0
  0
VERTEX
  5
43E
  8
0
 10
44.72991866529719
 20
-25.47699834284747
 30
0.0
  0
VERTEX
  5
43F
  8
0
 10
44.68222448378283
 20
-25.20297077029983
 30
0.0
  0
VERTEX
  5
440
  8
0
 10
44.6300693254034
 20
-24.92975466677047
 30
0.0
  0
VERTEX
  5
441
  8
0
 10
44.57347238221745
 20
-24.65742165940428
 30
0.0
  0
VERTEX
  5
442
  8
0
 10
44.51245284628331
 20
-24.38604337534631
 30
0.0
  0
VERTEX
  5
443
  8
0
 10
44.44702990965946
 20
-24.11569144174145
 30
0.0
  0
VERTEX
  5
444
  8
0
 10
44.37722276440429
 20
-23.84643748573463
 30
0.0
  0
VERTEX
  5
445
  8
0
 10
44.30305060257631
 20
-23.57835313447074
 30
0.0
  0
VERTEX
  5
446
  8
0
 10
44.22453261623409
 20
-23.31151001509476
 30
0.0
  0
VERTEX
  5
447
  8
0
 10
44.14168799743583
 20
-23.0459797547516
 30
0.0
  0
VERTEX
  5
448
  8
0
 10
44.05453593824004
 20
-22.78183398058617
 30
0.0
  0
VERTEX
  5
449
  8
0
 10
43.9630956307053
 20
-22.51914431974338
 30
0.0
  0
VERTEX
  5
44A
  8
0
 10
43.86738626689009
 20
-22.25798239936815
 30
0.0
  0
VERTEX
  5
44B
  8
0
 10
43.7674270388526
 20
-21.99841984660548
 30
0.0
  0
VERTEX
  5
44C
  8
0
 10
43.66323713865135
 20
-21.74052828860032
 30
0.0
  0
VERTEX
  5
44D
  8
0
 10
43.55483575834493
 20
-21.48437935249748
 30
0.0
  0
VERTEX
  5
44E
  8
0
 10
43.44224208999182
 20
-21.23004466544197
 30
0.0
  0
VERTEX
  5
44F
  8
0
 10
43.32547532565049
 20
-20.97759585457866
 30
0.0
  0
VERTEX
  5
450
  8
0
 10
43.20455465737908
 20
-20.72710454705251
 30
0.0
  0
VERTEX
  5
451
  8
0
 10
43.07949927723634
 20
-20.47864237000854
 30
0.0
  0
VERTEX
  5
452
  8
0
 10
42.9503283772805
 20
-20.23228095059149
 30
0.0
  0
VERTEX
  5
453
  8
0
 10
42.81706114957013
 20
-19.98809191594647
 30
0.0
  0
VERTEX
  5
454
  8
0
 10
42.67971678616372
 20
-19.74614689321823
 30
0.0
  0
VERTEX
  5
455
  8
0
 10
42.53885838213448
 20
-19.50623063390756
 30
0.0
  0
VERTEX
  5
456
  8
0
 10
42.39401804558248
 20
-19.26872327175007
 30
0.0
  0
VERTEX
  5
457
  8
0
 10
42.24524821061478
 20
-19.03367724052818
 30
0.0
  0
VERTEX
  5
458
  8
0
 10
42.09260131178408
 20
-18.80114497479478
 30
0.0
  0
VERTEX
  5
459
  8
0
 10
41.93612978364323
 20
-18.5711789091027
 30
0.0
  0
VERTEX
  5
45A
  8
0
 10
41.77588606074541
 20
-18.34383147800476
 30
0.0
  0
VERTEX
  5
45B
  8
0
 10
41.61192257764299
 20
-18.11915511605386
 30
0.0
  0
VERTEX
  5
45C
  8
0
 10
41.44429176888921
 20
-17.89720225780294
 30
0.0
  0
VERTEX
  5
45D
  8
0
 10
41.27304606903648
 20
-17.67802533780467
 30
0.0
  0
VERTEX
  5
45E
  8
0
 10
41.09823791263824
 20
-17.46167679061198
 30
0.0
  0
VERTEX
  5
45F
  8
0
 10
40.91991973424707
 20
-17.24820905077782
 30
0.0
  0
VERTEX
  5
460
  8
0
 10
40.73814396841566
 20
-17.03767455285497
 30
0.0
  0
VERTEX
  5
461
  8
0
 10
40.55296304969723
 20
-16.83012573139631
 30
0.0
  0
VERTEX
  5
462
  8
0
 10
40.36442941264428
 20
-16.62561502095474
 30
0.0
  0
VERTEX
  5
463
  8
0
 10
40.17259549180988
 20
-16.42419485608301
 30
0.0
  0
VERTEX
  5
464
  8
0
 10
39.97751372174688
 20
-16.22591767133402
 30
0.0
  0
VERTEX
  5
465
  8
0
 10
39.77923653700798
 20
-16.03083590126068
 30
0.0
  0
VERTEX
  5
466
  8
0
 10
39.57781637214632
 20
-15.83900198041584
 30
0.0
  0
VERTEX
  5
467
  8
0
 10
39.37330566171458
 20
-15.65046834335237
 30
0.0
  0
VERTEX
  5
468
  8
0
 10
39.16575684026543
 20
-15.465287424623
 30
0.0
  0
VERTEX
  5
469
  8
0
 10
38.95522234235204
 20
-15.28351165878071
 30
0.0
  0
VERTEX
  5
46A
  8
0
 10
38.74175460252727
 20
-15.10519348037825
 30
0.0
  0
VERTEX
  5
46B
  8
0
 10
38.5254060553438
 20
-14.93038532396865
 30
0.0
  0
VERTEX
  5
46C
  8
0
 10
38.3062291353544
 20
-14.75913962410466
 30
0.0
  0
VERTEX
  5
46D
  8
0
 10
38.08427627711232
 20
-14.59150881533912
 30
0.0
  0
VERTEX
  5
46E
  8
0
 10
37.85959991517005
 20
-14.42754533222497
 30
0.0
  0
VERTEX
  5
46F
  8
0
 10
37.63225248408055
 20
-14.26730160931499
 30
0.0
  0
VERTEX
  5
470
  8
0
 10
37.40228641839679
 20
-14.11083008116207
 30
0.0
  0
VERTEX
  5
471
  8
0
 10
37.16975415267153
 20
-13.95818318231909
 30
0.0
  0
VERTEX
  5
472
  8
0
 10
36.93470812145766
 20
-13.80941334733881
 30
0.0
  0
VERTEX
  5
473
  8
0
 10
36.69720075930793
 20
-13.66457301077416
 30
0.0
  0
VERTEX
  5
474
  8
0
 10
36.45728450077542
 20
-13.52371460717805
 30
0.0
  0
VERTEX
  5
475
  8
0
 10
36.21533947728285
 20
-13.38637032878266
 30
0.0
  0
VERTEX
  5
476
  8
0
 10
35.97115044264488
 20
-13.25310317567739
 30
0.0
  0
VERTEX
  5
477
  8
0
 10
35.7247890232348
 20
-13.12393234000988
 30
0.0
  0
VERTEX
  5
478
  8
0
 10
35.47632684619744
 20
-12.99887701437231
 30
0.0
  0
VERTEX
  5
479
  8
0
 10
35.2258355386776
 20
-12.87795639135654
 30
0.0
  0
VERTEX
  5
47A
  8
0
 10
34.97338672782043
 20
-12.76118966355486
 30
0.0
  0
VERTEX
  5
47B
  8
0
 10
34.71905204077078
 20
-12.6485960235592
 30
0.0
  0
VERTEX
  5
47C
  8
0
 10
34.46290310467374
 20
-12.54019466396174
 30
0.0
  0
VERTEX
  5
47D
  8
0
 10
34.20501154667397
 20
-12.43600477735441
 30
0.0
  0
VERTEX
  5
47E
  8
0
 10
33.94544899391654
 20
-12.33604555632942
 30
0.0
  0
VERTEX
  5
47F
  8
0
 10
33.68428707354641
 20
-12.24033619347884
 30
0.0
  0
VERTEX
  5
480
  8
0
 10
33.42159741270827
 20
-12.14889588139454
 30
0.0
  0
VERTEX
  5
481
  8
0
 10
33.15745163854746
 20
-12.0617438126688
 30
0.0
  0
VERTEX
  5
482
  8
0
 10
32.89192137820854
 20
-11.97889917989368
 30
0.0
  0
VERTEX
  5
483
  8
0
 10
32.6250782588366
 20
-11.90038117566113
 30
0.0
  0
VERTEX
  5
484
  8
0
 10
32.35699390757671
 20
-11.82620899256333
 30
0.0
  0
VERTEX
  5
485
  8
0
 10
32.0877399515734
 20
-11.75640182319231
 30
0.0
  0
VERTEX
  5
486
  8
0
 10
31.8173880179719
 20
-11.69097886014005
 30
0.0
  0
VERTEX
  5
487
  8
0
 10
31.54600973391711
 20
-11.62995929599878
 30
0.0
  0
VERTEX
  5
488
  8
0
 10
31.31599061346235
 20
-11.58215610830326
 30
0.0
  0
VERTEX
  5
489
  8
0
 10
27.95728486271147
 20
-8.22345035755237
 30
0.0
  0
SEQEND
  5
48A
  8
0
  0
POLYLINE
  5
43
  8
0
 66
     1
 10
0.0
 20
0.0
 30
0.0
 70
     1
  0
VERTEX
  5
48B
  8
0
 10
-30.40142087774003
 20
10.42834832168806
 30
0.0
  0
VERTEX
  5
48C
  8
0
 10
-30.63144003008136
 20
10.47615151949478
 30
0.0
  0
VERTEX
  5
48D
  8
0
 10
-30.90281829990947
 20
10.53717108362191
 30
0.0
  0
VERTEX
  5
48E
  8
0
 10
-31.17317022497641
 20
10.60259404666009
 30
0.0
  0
VERTEX
  5
48F
  8
0
 10
-31.44242417813722
 20
10.67240121601714
 30
0.0
  0
VERTEX
  5
490
  8
0
 10
-31.71050853224709
 20
10.74657339910102
 30
0.0
  0
VERTEX
  5
491
  8
0
 10
-31.97735166016099
 20
10.82509140331967
 30
0.0
  0
VERTEX
  5
492
  8
0
 10
-32.24288193473416
 20
10.90793603608098
 30
0.0
  0
VERTEX
  5
493
  8
0
 10
-32.50702772882158
 20
10.99508810479302
 30
0.0
  0
VERTEX
  5
494
  8
0
 10
-32.76971741527816
 20
11.08652841686352
 30
0.0
  0
VERTEX
  5
495
  8
0
 10
-33.03087936695907
 20
11.18223777970056
 30
0.0
  0
VERTEX
  5
496
  8
0
 10
-33.29044195671949
 20
11.28219700071197
 30
0.0
  0
VERTEX
  5
497
  8
0
 10
-33.5483335574144
 20
11.38638688730572
 30
0.0
  0
VERTEX
  5
498
  8
0
 10
-33.80448254189898
 20
11.49478824688977
 30
0.0
  0
VERTEX
  5
499
  8
0
 10
-34.05881728302815
 20
11.607381886872
 30
0.0
  0
VERTEX
  5
49A
  8
0
 10
-34.31126615365704
 20
11.72414861466044
 30
0.0
  0
VERTEX
  5
49B
  8
0
 10
-34.56175752664068
 20
11.84506923766283
 30
0.0
  0
VERTEX
  5
49C
  8
0
 10
-34.81021977483432
 20
11.97012456328734
 30
0.0
  0
VERTEX
  5
49D
  8
0
 10
-35.05658127109275
 20
12.09929539894175
 30
0.0
  0
VERTEX
  5
49E
  8
0
 10
-35.30077038827136
 20
12.23256255203388
 30
0.0
  0
VERTEX
  5
49F
  8
0
 10
-35.54271549922483
 20
12.369906829972
 30
0.0
  0
VERTEX
  5
4A0
  8
0
 10
-35.7826316702807
 20
12.51076523400124
 30
0.0
  0
VERTEX
  5
4A1
  8
0
 10
-36.02013894969706
 20
12.6556055705532
 30
0.0
  0
VERTEX
  5
4A2
  8
0
 10
-36.25518490351421
 20
12.80437540552093
 30
0.0
  0
VERTEX
  5
4A3
  8
0
 10
-36.48771709700123
 20
12.9570223043516
 30
0.0
  0
VERTEX
  5
4A4
  8
0
 10
-36.71768309542723
 20
13.11349383249238
 30
0.0
  0
VERTEX
  5
4A5
  8
0
 10
-36.94503046406184
 20
13.27373755539043
 30
0.0
  0
VERTEX
  5
4A6
  8
0
 10
-37.1697067681741
 20
13.43770103849276
 30
0.0
  0
VERTEX
  5
4A7
  8
0
 10
-37.39165957303326
 20
13.6053318472466
 30
0.0
  0
VERTEX
  5
4A8
  8
0
 10
-37.6108364439087
 20
13.7765775470991
 30
0.0
  0
VERTEX
  5
4A9
  8
0
 10
-37.82718494606956
 20
13.95138570349744
 30
0.0
  0
VERTEX
  5
4AA
  8
0
 10
-38.04065264478523
 20
14.12970388188867
 30
0.0
  0
VERTEX
  5
4AB
  8
0
 10
-38.25118710532493
 20
14.31147964771998
 30
0.0
  0
VERTEX
  5
4AC
  8
0
 10
-38.45873589295787
 20
14.49666056643851
 30
0.0
  0
VERTEX
  5
4AD
  8
0
 10
-38.6632465729534
 20
14.68519420349141
 30
0.0
  0
VERTEX
  5
4AE
  8
0
 10
-38.86466671058079
 20
14.8770281243258
 30
0.0
  0
VERTEX
  5
4AF
  8
0
 10
-39.06294387110916
 20
15.07210989438882
 30
0.0
  0
VERTEX
  5
4B0
  8
0
 10
-39.2580256198081
 20
15.27038707912765
 30
0.0
  0
VERTEX
  5
4B1
  8
0
 10
-39.44985952194649
 20
15.47180724398942
 30
0.0
  0
VERTEX
  5
4B2
  8
0
 10
-39.63839314279387
 20
15.67631795442117
 30
0.0
  0
VERTEX
  5
4B3
  8
0
 10
-39.8235740476194
 20
15.88386677587017
 30
0.0
  0
VERTEX
  5
4B4
  8
0
 10
-40.00534980169236
 20
16.09440127378365
 30
0.0
  0
VERTEX
  5
4B5
  8
0
 10
-40.18366797028202
 20
16.30786901360847
 30
0.0
  0
VERTEX
  5
4B6
  8
0
 10
-40.3584761186578
 20
16.52421756079193
 30
0.0
  0
VERTEX
  5
4B7
  8
0
 10
-40.52972181208872
 20
16.74339448078121
 30
0.0
  0
VERTEX
  5
4B8
  8
0
 10
-40.69735261584409
 20
16.9653473390234
 30
0.0
  0
VERTEX
  5
4B9
  8
0
 10
-40.86131609519323
 20
17.19002370096568
 30
0.0
  0
VERTEX
  5
4BA
  8
0
 10
-41.02155981540552
 20
17.41737113205512
 30
0.0
  0
VERTEX
  5
4BB
  8
0
 10
-41.1780313417499
 20
17.64733719773891
 30
0.0
  0
VERTEX
  5
4BC
  8
0
 10
-41.33067823949601
 20
17.8798694634642
 30
0.0
  0
VERTEX
  5
4BD
  8
0
 10
-41.47944807391301
 20
18.11491549467819
 30
0.0
  0
VERTEX
  5
4BE
  8
0
 10
-41.62428841027023
 20
18.35242285682784
 30
0.0
  0
VERTEX
  5
4BF
  8
0
 10
-41.76514681383669
 20
18.59233911536047
 30
0.0
  0
VERTEX
  5
4C0
  8
0
 10
-41.90249117772997
 20
18.83428413885284
 30
0.0
  0
VERTEX
  5
4C1
  8
0
 10
-42.03575840566095
 20
19.07847317349074
 30
0.0
  0
VERTEX
  5
4C2
  8
0
 10
-42.16492930619314
 20
19.32483459290094
 30
0.0
  0
VERTEX
  5
4C3
  8
0
 10
-42.28998468744602
 20
19.57329676993838
 30
0.0
  0
VERTEX
  5
4C4
  8
0
 10
-42.41090535753907
 20
19.82378807745808
 30
0.0
  0
VERTEX
  5
4C5
  8
0
 10
-42.52767212459156
 20
20.0762368883152
 30
0.0
  0
VERTEX
  5
4C6
  8
0
 10
-42.64026579672304
 20
20.33057157536481
 30
0.0
  0
VERTEX
  5
4C7
  8
0
 10
-42.74866718205301
 20
20.58672051146196
 30
0.0
  0
VERTEX
  5
4C8
  8
0
 10
-42.85285708870087
 20
20.84461206946171
 30
0.0
  0
VERTEX
  5
4C9
  8
0
 10
-42.95281632478574
 20
21.10417462221913
 30
0.0
  0
VERTEX
  5
4CA
  8
0
 10
-43.04852569842734
 20
21.36533654258928
 30
0.0
  0
VERTEX
  5
4CB
  8
0
 10
-43.13996601774515
 20
21.62802620342727
 30
0.0
  0
VERTEX
  5
4CC
  8
0
 10
-43.22711809085838
 20
21.89217197758822
 30
0.0
  0
VERTEX
  5
4CD
  8
0
 10
-43.3099627258866
 20
22.15770223792708
 30
0.0
  0
VERTEX
  5
4CE
  8
0
 10
-43.38848073094933
 20
22.42454535729902
 30
0.0
  0
VERTEX
  5
4CF
  8
0
 10
-43.46265291416565
 20
22.69262970855905
 30
0.0
  0
VERTEX
  5
4D0
  8
0
 10
-43.53246008365531
 20
22.96188366456229
 30
0.0
  0
VERTEX
  5
4D1
  8
0
 10
-43.59788304753765
 20
23.23223559816373
 30
0.0
  0
VERTEX
  5
4D2
  8
0
 10
-43.65890261393189
 20
23.50361388221849
 30
0.0
  0
VERTEX
  5
4D3
  8
0
 10
-43.71549959095785
 20
23.7759468895817
 30
0.0
  0
VERTEX
  5
4D4
  8
0
 10
-43.76765478673467
 20
24.04916299310835
 30
0.0
  0
VERTEX
  5
4D5
  8
0
 10
-43.81534900938176
 20
24.32319056565356
 30
0.0
  0
VERTEX
  5
4D6
  8
0
 10
-43.85856306701874
 20
24.5979579800724
 30
0.0
  0
VERTEX
  5
4D7
  8
0
 10
-43.89727776776484
 20
24.87339360921992
 30
0.0
  0
VERTEX
  5
4D8
  8
0
 10
-43.93147391973961
 20
25.14942582595119
 30
0.0
  0
VERTEX
  5
4D9
  8
0
 10
-43.96113233106232
 20
25.42598300312126
 30
0.0
  0
VERTEX
  5
4DA
  8
0
 10
-43.98623380985266
 20
25.70299351358525
 30
0.0
  0
VERTEX
  5
4DB
  8
0
 10
-44.00675916422981
 20
25.98038573019823
 30
0.0
  0
VERTEX
  5
4DC
  8
0
 10
-44.02268920231344
 20
26.25808802581525
 30
0.0
  0
VERTEX
  5
4DD
  8
0
 10
-44.03400473222263
 20
26.53602877329137
 30
0.0
  0
VERTEX
  5
4DE
  8
0
 10
-44.04068656207706
 20
26.81413634548166
 30
0.0
  0
VERTEX
  5
4DF
  8
0
 10
-44.04271549999618
 20
27.09233911524134
 30
0.0
  0
VERTEX
  5
4E0
  8
0
 10
-44.04068656209104
 20
27.37054179766587
 30
0.0
  0
VERTEX
  5
4E1
  8
0
 10
-44.03400473225141
 20
27.64864928732315
 30
0.0
  0
VERTEX
  5
4E2
  8
0
 10
-44.02268920235698
 20
27.92658995795838
 30
0.0
  0
VERTEX
  5
4E3
  8
0
 10
-44.0067591642882
 20
28.20429218242681
 30
0.0
  0
VERTEX
  5
4E4
  8
0
 10
-43.98623380992564
 20
28.4816843335833
 30
0.0
  0
VERTEX
  5
4E5
  8
0
 10
-43.96113233115003
 20
28.75869478428298
 30
0.0
  0
VERTEX
  5
4E6
  8
0
 10
-43.93147391984171
 20
29.03525190738102
 30
0.0
  0
VERTEX
  5
4E7
  8
0
 10
-43.89727776788148
 20
29.31128407573232
 30
0.0
  0
VERTEX
  5
4E8
  8
0
 10
-43.85856306714978
 20
29.58671966219217
 30
0.0
  0
VERTEX
  5
4E9
  8
0
 10
-43.81534900952725
 20
29.8614870396155
 30
0.0
  0
VERTEX
  5
4EA
  8
0
 10
-43.76765478689448
 20
30.13551458085732
 30
0.0
  0
VERTEX
  5
4EB
  8
0
 10
-43.71549959113182
 20
30.40873065877291
 30
0.0
  0
VERTEX
  5
4EC
  8
0
 10
-43.65890261412017
 20
30.68106364621713
 30
0.0
  0
VERTEX
  5
4ED
  8
0
 10
-43.59788304773989
 20
30.95244191604519
 30
0.0
  0
VERTEX
  5
4EE
  8
0
 10
-43.53246008387174
 20
31.22279384111209
 30
0.0
  0
VERTEX
  5
4EF
  8
0
 10
-43.46265291439605
 20
31.49204779427296
 30
0.0
  0
VERTEX
  5
4F0
  8
0
 10
-43.38848073119353
 20
31.76013214838281
 30
0.0
  0
VERTEX
  5
4F1
  8
0
 10
-43.3099627261448
 20
32.0269752762968
 30
0.0
  0
VERTEX
  5
4F2
  8
0
 10
-43.2271180911304
 20
32.29250555086988
 30
0.0
  0
VERTEX
  5
4F3
  8
0
 10
-43.13996601803085
 20
32.55665134495722
 30
0.0
  0
VERTEX
  5
4F4
  8
0
 10
-43.04852569872674
 20
32.81934103141383
 30
0.0
  0
VERTEX
  5
4F5
  8
0
 10
-42.95281632509883
 20
33.08050298309482
 30
0.0
  0
VERTEX
  5
4F6
  8
0
 10
-42.85285708902736
 20
33.34006557285525
 30
0.0
  0
VERTEX
  5
4F7
  8
0
 10
-42.74866718239311
 20
33.59795717355014
 30
0.0
  0
VERTEX
  5
4F8
  8
0
 10
-42.64026579707664
 20
33.85410615803467
 30
0.0
  0
VERTEX
  5
4F9
  8
0
 10
-42.52767212495855
 20
34.10844089916387
 30
0.0
  0
VERTEX
  5
4FA
  8
0
 10
-42.41090535791928
 20
34.36088976979275
 30
0.0
  0
VERTEX
  5
4FB
  8
0
 10
-42.28998468783964
 20
34.61138114277644
 30
0.0
  0
VERTEX
  5
4FC
  8
0
 10
-42.16492930659988
 20
34.85984339097
 30
0.0
  0
VERTEX
  5
4FD
  8
0
 10
-42.0357584060809
 20
35.1062048872286
 30
0.0
  0
VERTEX
  5
4FE
  8
0
 10
-41.90249117816292
 20
35.35039400440709
 30
0.0
  0
VERTEX
  5
4FF
  8
0
 10
-41.76514681472691
 20
35.59233911536077
 30
0.0
  0
VERTEX
  5
500
  8
0
 10
-41.62428841072729
 20
35.83225528641634
 30
0.0
  0
VERTEX
  5
501
  8
0
 10
-41.47944807438279
 20
36.0697625658329
 30
0.0
  0
VERTEX
  5
502
  8
0
 10
-41.33067823997844
 20
36.30480851964995
 30
0.0
  0
VERTEX
  5
503
  8
0
 10
-41.17803134224456
 20
36.53734071313696
 30
0.0
  0
VERTEX
  5
504
  8
0
 10
-41.02155981591213
 20
36.76730671156309
 30
0.0
  0
VERTEX
  5
505
  8
0
 10
-40.86131609571207
 20
36.99465408019759
 30
0.0
  0
VERTEX
  5
506
  8
0
 10
-40.69735261637459
 20
37.21933038430986
 30
0.0
  0
VERTEX
  5
507
  8
0
 10
-40.52972181263097
 20
37.44128318916901
 30
0.0
  0
VERTEX
  5
508
  8
0
 10
-40.35847611921143
 20
37.66046006004436
 30
0.0
  0
VERTEX
  5
509
  8
0
 10
-40.1836679708472
 20
37.87680856220531
 30
0.0
  0
VERTEX
  5
50A
  8
0
 10
-40.00534980226851
 20
38.09027626092096
 30
0.0
  0
VERTEX
  5
50B
  8
0
 10
-39.82357404820662
 20
38.30081072146059
 30
0.0
  0
VERTEX
  5
50C
  8
0
 10
-39.63839314339187
 20
38.50835950909364
 30
0.0
  0
VERTEX
  5
50D
  8
0
 10
-39.44985952255517
 20
38.71287018908915
 30
0.0
  0
VERTEX
  5
50E
  8
0
 10
-39.2580256204272
 20
38.91429032671653
 30
0.0
  0
VERTEX
  5
50F
  8
0
 10
-39.06294387173875
 20
39.11256748724499
 30
0.0
  0
VERTEX
  5
510
  8
0
 10
-38.86466671122036
 20
39.30764923594384
 30
0.0
  0
VERTEX
  5
511
  8
0
 10
-38.66324657360299
 20
39.49948313808233
 30
0.0
  0
VERTEX
  5
512
  8
0
 10
-38.45873589361719
 20
39.68801675892961
 30
0.0
  0
VERTEX
  5
513
  8
0
 10
-38.25118710599386
 20
39.87319766375515
 30
0.0
  0
VERTEX
  5
514
  8
0
 10
-38.04065264546366
 20
40.05497341782822
 30
0.0
  0
VERTEX
  5
515
  8
0
 10
-37.82718494675734
 20
40.23329158641786
 30
0.0
  0
VERTEX
  5
516
  8
0
 10
-37.61083644460551
 20
40.40809973479356
 30
0.0
  0
VERTEX
  5
517
  8
0
 10
-37.39165957373921
 20
40.57934542822438
 30
0.0
  0
VERTEX
  5
518
  8
0
 10
-37.16970676888879
 20
40.74697623197975
 30
0.0
  0
VERTEX
  5
519
  8
0
 10
-36.94503046478508
 20
40.91093971132906
 30
0.0
  0
VERTEX
  5
51A
  8
0
 10
-36.71768309615891
 20
41.07118343154118
 30
0.0
  0
VERTEX
  5
51B
  8
0
 10
-36.48771709774125
 20
41.22765495788575
 30
0.0
  0
VERTEX
  5
51C
  8
0
 10
-36.25518490426241
 20
41.38030185563186
 30
0.0
  0
VERTEX
  5
51D
  8
0
 10
-36.02013895045321
 20
41.52907169004884
 30
0.0
  0
VERTEX
  5
51E
  8
0
 10
-35.78263167104452
 20
41.67391202640589
 30
0.0
  0
VERTEX
  5
51F
  8
0
 10
-35.54271550076719
 20
41.81477042997243
 30
0.0
  0
VERTEX
  5
520
  8
0
 10
-35.30077038904918
 20
41.95211479662284
 30
0.0
  0
VERTEX
  5
521
  8
0
 10
-35.05658127187785
 20
42.08538203246921
 30
0.0
  0
VERTEX
  5
522
  8
0
 10
-34.81021977562622
 20
42.21455294554148
 30
0.0
  0
VERTEX
  5
523
  8
0
 10
-34.56175752743909
 20
42.3396083434256
 30
0.0
  0
VERTEX
  5
524
  8
0
 10
-34.31126615446178
 20
42.46052903370725
 30
0.0
  0
VERTEX
  5
525
  8
0
 10
-34.0588172838391
 20
42.57729582397231
 30
0.0
  0
VERTEX
  5
526
  8
0
 10
-33.80448254271576
 20
42.68988952180664
 30
0.0
  0
VERTEX
  5
527
  8
0
 10
-33.54833355823701
 20
42.79829093479591
 30
0.0
  0
VERTEX
  5
528
  8
0
 10
-33.29044195754745
 20
42.902480870526
 30
0.0
  0
VERTEX
  5
529
  8
0
 10
-33.03087936779227
 20
43.00244013658275
 30
0.0
  0
VERTEX
  5
52A
  8
0
 10
-32.76971741611631
 20
43.09814954055187
 30
0.0
  0
VERTEX
  5
52B
  8
0
 10
-32.50702772966439
 20
43.18958989001931
 30
0.0
  0
VERTEX
  5
52C
  8
0
 10
-32.24288193558164
 20
43.27674199257076
 30
0.0
  0
VERTEX
  5
52D
  8
0
 10
-31.97735166101295
 20
43.35958665579194
 30
0.0
  0
VERTEX
  5
52E
  8
0
 10
-31.71050853310302
 20
43.43810468726887
 30
0.0
  0
VERTEX
  5
52F
  8
0
 10
-31.44242417899702
 20
43.5122768945872
 30
0.0
  0
VERTEX
  5
530
  8
0
 10
-31.17317022583982
 20
43.5820840853327
 30
0.0
  0
VERTEX
  5
531
  8
0
 10
-30.90281830077639
 20
43.64750706709136
 30
0.0
  0
VERTEX
  5
532
  8
0
 10
-30.63144003095147
 20
43.70852664744884
 30
0.0
  0
VERTEX
  5
533
  8
0
 10
-30.35910704350997
 20
43.7651236339909
 30
0.0
  0
VERTEX
  5
534
  8
0
 10
-30.08589096559732
 20
43.81727883430342
 30
0.0
  0
VERTEX
  5
535
  8
0
 10
-29.81186342435779
 20
43.86497305597225
 30
0.0
  0
VERTEX
  5
536
  8
0
 10
-29.53709604693675
 20
43.90818710658319
 30
0.0
  0
VERTEX
  5
537
  8
0
 10
-29.26166046047899
 20
43.946901793722
 30
0.0
  0
VERTEX
  5
538
  8
0
 10
-28.98562829212945
 20
43.98109792497446
 30
0.0
  0
VERTEX
  5
539
  8
0
 10
-28.70907116903301
 20
44.01075630792632
 30
0.0
  0
VERTEX
  5
53A
  8
0
 10
-28.43206071833454
 20
44.03585775016357
 30
0.0
  0
VERTEX
  5
53B
  8
0
 10
-28.1546685671793
 20
44.05638305927175
 30
0.0
  0
VERTEX
  5
53C
  8
0
 10
-27.87696634271185
 20
44.07231304283697
 30
0.0
  0
VERTEX
  5
53D
  8
0
 10
-27.59902567207716
 20
44.08362850844487
 30
0.0
  0
VERTEX
  5
53E
  8
0
 10
-27.32091818242021
 20
44.09031026368114
 30
0.0
  0
VERTEX
  5
53F
  8
0
 10
-27.04271550088615
 20
44.09233911613182
 30
0.0
  0
VERTEX
  5
540
  8
0
 10
-26.76451273023615
 20
44.09031026369512
 30
0.0
  0
VERTEX
  5
541
  8
0
 10
-26.48640515804536
 20
44.08362850847362
 30
0.0
  0
VERTEX
  5
542
  8
0
 10
-26.20846441056863
 20
44.07231304288059
 30
0.0
  0
VERTEX
  5
543
  8
0
 10
-25.93076211495072
 20
44.05638305933014
 30
0.0
  0
VERTEX
  5
544
  8
0
 10
-25.65336989833673
 20
44.03585775023652
 30
0.0
  0
VERTEX
  5
545
  8
0
 10
-25.37635938787133
 20
44.01075630801395
 30
0.0
  0
VERTEX
  5
546
  8
0
 10
-25.09980221069974
 20
43.98109792507656
 30
0.0
  0
VERTEX
  5
547
  8
0
 10
-24.82376999396662
 20
43.94690179383867
 30
0.0
  0
VERTEX
  5
548
  8
0
 10
-24.548334364817
 20
43.90818710671426
 30
0.0
  0
VERTEX
  5
549
  8
0
 10
-24.27356695039601
 20
43.86497305611778
 30
0.0
  0
VERTEX
  5
54A
  8
0
 10
-23.99953937784834
 20
43.8172788344633
 30
0.0
  0
VERTEX
  5
54B
  8
0
 10
-23.7263232743189
 20
43.76512363416497
 30
0.0
  0
VERTEX
  5
54C
  8
0
 10
-23.45399026695271
 20
43.70852664763699
 30
0.0
  0
VERTEX
  5
54D
  8
0
 10
-23.18261198289482
 20
43.64750706729362
 30
0.0
  0
VERTEX
  5
54E
  8
0
 10
-22.91226004928991
 20
43.58208408554913
 30
0.0
  0
VERTEX
  5
54F
  8
0
 10
-22.64300609328311
 20
43.51227689481752
 30
0.0
  0
VERTEX
  5
550
  8
0
 10
-22.37492174201922
 20
43.43810468751318
 30
0.0
  0
VERTEX
  5
551
  8
0
 10
-22.10807862264322
 20
43.35958665605013
 30
0.0
  0
VERTEX
  5
552
  8
0
 10
-21.84254836230013
 20
43.27674199284274
 30
0.0
  0
VERTEX
  5
553
  8
0
 10
-21.57840258813465
 20
43.18958989030511
 30
0.0
  0
VERTEX
  5
554
  8
0
 10
-21.31571292729183
 20
43.09814954085146
 30
0.0
  0
VERTEX
  5
555
  8
0
 10
-21.05455100691665
 20
43.00244013689584
 30
0.0
  0
VERTEX
  5
556
  8
0
 10
-20.79498845415388
 20
42.90248087085268
 30
0.0
  0
VERTEX
  5
557
  8
0
 10
-20.53709689614877
 20
42.7982909351361
 30
0.0
  0
VERTEX
  5
558
  8
0
 10
-20.280947960046
 20
42.68988952216025
 30
0.0
  0
VERTEX
  5
559
  8
0
 10
-20.02661327299043
 20
42.57729582433932
 30
0.0
  0
VERTEX
  5
55A
  8
0
 10
-19.77416446212705
 20
42.46052903408758
 30
0.0
  0
VERTEX
  5
55B
  8
0
 10
-19.52367315460108
 20
42.33960834381913
 30
0.0
  0
VERTEX
  5
55C
  8
0
 10
-19.27521097755701
 20
42.21455294594821
 30
0.0
  0
VERTEX
  5
55D
  8
0
 10
-19.02884955813994
 20
42.08538203288906
 30
0.0
  0
VERTEX
  5
55E
  8
0
 10
-18.78466052349507
 20
41.95211479705589
 30
0.0
  0
VERTEX
  5
55F
  8
0
 10
-18.54271550076692
 20
41.81477043086264
 30
0.0
  0
VERTEX
  5
560
  8
0
 10
-18.302799241456
 20
41.67391202686304
 30
0.0
  0
VERTEX
  5
561
  8
0
 10
-18.0652918792986
 20
41.52907169051863
 30
0.0
  0
VERTEX
  5
562
  8
0
 10
-17.83024584807666
 20
41.38030185611417
 30
0.0
  0
VERTEX
  5
563
  8
0
 10
-17.59771358234325
 20
41.22765495838031
 30
0.0
  0
VERTEX
  5
564
  8
0
 10
-17.36774751665104
 20
41.07118343204798
 30
0.0
  0
VERTEX
  5
565
  8
0
 10
-17.14040008555328
 20
40.9109397118477
 30
0.0
  0
VERTEX
  5
566
  8
0
 10
-16.91572372360236
 20
40.74697623251034
 30
0.0
  0
VERTEX
  5
567
  8
0
 10
-16.69377086535134
 20
40.57934542876662
 30
0.0
  0
VERTEX
  5
568
  8
0
 10
-16.47459394535311
 20
40.40809973534727
 30
0.0
  0
VERTEX
  5
569
  8
0
 10
-16.25824539816041
 20
40.23329158698285
 30
0.0
  0
VERTEX
  5
56A
  8
0
 10
-16.04477765832642
 20
40.05497341840437
 30
0.0
  0
VERTEX
  5
56B
  8
0
 10
-15.8342431604035
 20
39.87319766434238
 30
0.0
  0
VERTEX
  5
56C
  8
0
 10
-15.62669433894484
 20
39.68801675952763
 30
0.0
  0
VERTEX
  5
56D
  8
0
 10
-15.42218362850319
 20
39.49948313869093
 30
0.0
  0
VERTEX
  5
56E
  8
0
 10
-15.22076346363142
 20
39.30764923656293
 30
0.0
  0
VERTEX
  5
56F
  8
0
 10
-15.02248627888251
 20
39.11256748787439
 30
0.0
  0
VERTEX
  5
570
  8
0
 10
-14.82740450880912
 20
38.91429032735611
 30
0.0
  0
VERTEX
  5
571
  8
0
 10
-14.63557058796423
 20
38.71287018973864
 30
0.0
  0
VERTEX
  5
572
  8
0
 10
-14.44703695090069
 20
38.50835950975293
 30
0.0
  0
VERTEX
  5
573
  8
0
 10
-14.26185603217139
 20
38.30081072212961
 30
0.0
  0
VERTEX
  5
574
  8
0
 10
-14.08008026632918
 20
38.09027626159941
 30
0.0
  0
VERTEX
  5
575
  8
0
 10
-13.90176208792674
 20
37.87680856289298
 30
0.0
  0
VERTEX
  5
576
  8
0
 10
-13.72695393151713
 20
37.66046006074124
 30
0.0
  0
VERTEX
  5
577
  8
0
 10
-13.55570823165305
 20
37.44128318987485
 30
0.0
  0
VERTEX
  5
578
  8
0
 10
-13.38807742288762
 20
37.21933038502443
 30
0.0
  0
VERTEX
  5
579
  8
0
 10
-13.22411393977343
 20
36.99465408092084
 30
0.0
  0
VERTEX
  5
57A
  8
0
 10
-13.06387021686346
 20
36.76730671229477
 30
0.0
  0
VERTEX
  5
57B
  8
0
 10
-12.90739868871058
 20
36.5373407138769
 30
0.0
  0
VERTEX
  5
57C
  8
0
 10
-12.75475178986754
 20
36.30480852039805
 30
0.0
  0
VERTEX
  5
57D
  8
0
 10
-12.60598195488732
 20
36.06976256658896
 30
0.0
  0
VERTEX
  5
57E
  8
0
 10
-12.46114161832259
 20
35.83225528718027
 30
0.0
  0
VERTEX
  5
57F
  8
0
 10
-12.3202832147265
 20
35.59233911690274
 30
0.0
  0
VERTEX
  5
580
  8
0
 10
-12.18293885086294
 20
35.35039400518491
 30
0.0
  0
VERTEX
  5
581
  8
0
 10
-12.04967162313946
 20
35.10620488801351
 30
0.0
  0
VERTEX
  5
582
  8
0
 10
-11.92050072317049
 20
34.85984339176179
 30
0.0
  0
VERTEX
  5
583
  8
0
 10
-11.79544534301456
 20
34.6113811435748
 30
0.0
  0
VERTEX
  5
584
  8
0
 10
-11.67452467472982
 20
34.36088977059751
 30
0.0
  0
VERTEX
  5
585
  8
0
 10
-11.5577579103752
 20
34.1084408999747
 30
0.0
  0
VERTEX
  5
586
  8
0
 10
-11.44516424200867
 20
33.85410615885152
 30
0.0
  0
VERTEX
  5
587
  8
0
 10
-11.33676286168875
 20
33.5979571743727
 30
0.0
  0
VERTEX
  5
588
  8
0
 10
-11.2325729614741
 20
33.34006557368322
 30
0.0
  0
VERTEX
  5
589
  8
0
 10
-11.13261373342312
 20
33.08050298392797
 30
0.0
  0
VERTEX
  5
58A
  8
0
 10
-11.03690436959419
 20
32.819341032252
 30
0.0
  0
VERTEX
  5
58B
  8
0
 10
-10.94546406204575
 20
32.55665134580013
 30
0.0
  0
VERTEX
  5
58C
  8
0
 10
-10.85831200283635
 20
32.29250555171738
 30
0.0
  0
VERTEX
  5
58D
  8
0
 10
-10.7754673840242
 20
32.02697527714861
 30
0.0
  0
VERTEX
  5
58E
  8
0
 10
-10.69694939766801
 20
31.76013214923877
 30
0.0
  0
VERTEX
  5
58F
  8
0
 10
-10.62277723582612
 20
31.49204779513279
 30
0.0
  0
VERTEX
  5
590
  8
0
 10
-10.55297009055698
 20
31.2227938419755
 30
0.0
  0
VERTEX
  5
591
  8
0
 10
-10.48754715391905
 20
30.95244191691197
 30
0.0
  0
VERTEX
  5
592
  8
0
 10
-10.42652761797072
 20
30.68106364708711
 30
0.0
  0
VERTEX
  5
593
  8
0
 10
-10.36993067477049
 20
30.40873065964577
 30
0.0
  0
VERTEX
  5
594
  8
0
 10
-10.31777551637687
 20
30.13551458173298
 30
0.0
  0
VERTEX
  5
595
  8
0
 10
-10.27008133484834
 20
29.86148704049353
 30
0.0
  0
VERTEX
  5
596
  8
0
 10
-10.22686732224317
 20
29.58671966307253
 30
0.0
  0
VERTEX
  5
597
  8
0
 10
-10.1881526706198
 20
29.31128407661473
 30
0.0
  0
VERTEX
  5
598
  8
0
 10
-10.15395657203687
 20
29.03525190826514
 30
0.0
  0
VERTEX
  5
599
  8
0
 10
-10.12429821855273
 20
28.7586947851687
 30
0.0
  0
VERTEX
  5
59A
  8
0
 10
-10.0991968022259
 20
28.48168433447034
 30
0.0
  0
VERTEX
  5
59B
  8
0
 10
-10.07867151511463
 20
28.20429218331502
 30
0.0
  0
VERTEX
  5
59C
  8
0
 10
-10.06274154927751
 20
27.92658995884753
 30
0.0
  0
VERTEX
  5
59D
  8
0
 10
-10.05142609677302
 20
27.6486492882129
 30
0.0
  0
VERTEX
  5
59E
  8
0
 10
-10.04474434965963
 20
27.37054179855605
 30
0.0
  0
VERTEX
  5
59F
  8
0
 10
-10.04271549999618
 20
27.09233911657671
 30
0.0
  0
VERTEX
  5
5A0
  8
0
 10
-10.04474434964574
 20
26.81413634637185
 30
0.0
  0
VERTEX
  5
5A1
  8
0
 10
-10.05142609674417
 20
26.53602877418112
 30
0.0
  0
VERTEX
  5
5A2
  8
0
 10
-10.06274154923391
 20
26.25808802670428
 30
0.0
  0
VERTEX
  5
5A3
  8
0
 10
-10.07867151505626
 20
25.98038573108643
 30
0.0
  0
VERTEX
  5
5A4
  8
0
 10
-10.09919680215284
 20
25.70299351447235
 30
0.0
  0
VERTEX
  5
5A5
  8
0
 10
-10.12429821846517
 20
25.42598300400703
 30
0.0
  0
VERTEX
  5
5A6
  8
0
 10
-10.15395657193469
 20
25.14942582683536
 30
0.0
  0
VERTEX
  5
5A7
  8
0
 10
-10.18815267050321
 20
24.87339361010227
 30
0.0
  0
VERTEX
  5
5A8
  8
0
 10
-10.22686732211203
 20
24.59795798095276
 30
0.0
  0
VERTEX
  5
5A9
  8
0
 10
-10.27008133470281
 20
24.32319056653166
 30
0.0
  0
VERTEX
  5
5AA
  8
0
 10
-10.31777551621718
 20
24.04916299398402
 30
0.0
  0
VERTEX
  5
5AB
  8
0
 10
-10.3699306745966
 20
23.77594689045466
 30
0.0
  0
VERTEX
  5
5AC
  8
0
 10
-10.42652761778256
 20
23.50361388308847
 30
0.0
  0
VERTEX
  5
5AD
  8
0
 10
-10.4875471537167
 20
23.2322355990305
 30
0.0
  0
VERTEX
  5
5AE
  8
0
 10
-10.55297009034054
 20
22.96188366542564
 30
0.0
  0
VERTEX
  5
5AF
  8
0
 10
-10.62277723559572
 20
22.69262970941882
 30
0.0
  0
VERTEX
  5
5B0
  8
0
 10
-10.69694939742369
 20
22.42454535815493
 30
0.0
  0
VERTEX
  5
5B1
  8
0
 10
-10.77546738376591
 20
22.15770223877895
 30
0.0
  0
VERTEX
  5
5B2
  8
0
 10
-10.85831200256417
 20
21.89217197843578
 30
0.0
  0
VERTEX
  5
5B3
  8
0
 10
-10.94546406175996
 20
21.62802620427036
 30
0.0
  0
VERTEX
  5
5B4
  8
0
 10
-11.03690436929471
 20
21.36533654342756
 30
0.0
  0
VERTEX
  5
5B5
  8
0
 10
-11.13261373310992
 20
21.10417462305233
 30
0.0
  0
VERTEX
  5
5B6
  8
0
 10
-11.2325729611474
 20
20.84461207028966
 30
0.0
  0
VERTEX
  5
5B7
  8
0
 10
-11.33676286134865
 20
20.5867205122845
 30
0.0
  0
VERTEX
  5
5B8
  8
0
 10
-11.44516424165507
 20
20.33057157618166
 30
0.0
  0
VERTEX
  5
5B9
  8
0
 10
-11.55775791000818
 20
20.07623688912615
 30
0.0
  0
VERTEX
  5
5BA
  8
0
 10
-11.67452467434951
 20
19.82378807826285
 30
0.0
  0
VERTEX
  5
5BB
  8
0
 10
-11.79544534262093
 20
19.57329677073669
 30
0.0
  0
VERTEX
  5
5BC
  8
0
 10
-11.92050072276366
 20
19.32483459369273
 30
0.0
  0
VERTEX
  5
5BD
  8
0
 10
-12.0496716227195
 20
19.07847317427568
 30
0.0
  0
VERTEX
  5
5BE
  8
0
 10
-12.18293885042987
 20
18.83428413963065
 30
0.0
  0
VERTEX
  5
5BF
  8
0
 10
-12.32028321383628
 20
18.59233911690242
 30
0.0
  0
VERTEX
  5
5C0
  8
0
 10
-12.46114161786552
 20
18.35242285759174
 30
0.0
  0
VERTEX
  5
5C1
  8
0
 10
-12.60598195441752
 20
18.11491549543425
 30
0.0
  0
VERTEX
  5
5C2
  8
0
 10
-12.75475178938523
 20
17.87986946421237
 30
0.0
  0
VERTEX
  5
5C3
  8
0
 10
-12.90739868821592
 20
17.64733719847897
 30
0.0
  0
VERTEX
  5
5C4
  8
0
 10
-13.06387021635677
 20
17.41737113278688
 30
0.0
  0
VERTEX
  5
5C5
  8
0
 10
-13.22411393925459
 20
17.19002370168894
 30
0.0
  0
VERTEX
  5
5C6
  8
0
 10
-13.38807742235702
 20
16.96534733973805
 30
0.0
  0
VERTEX
  5
5C7
  8
0
 10
-13.55570823111079
 20
16.74339448148712
 30
0.0
  0
VERTEX
  5
5C8
  8
0
 10
-13.72695393096352
 20
16.52421756148885
 30
0.0
  0
VERTEX
  5
5C9
  8
0
 10
-13.90176208736177
 20
16.30786901429617
 30
0.0
  0
VERTEX
  5
5CA
  8
0
 10
-14.08008026575293
 20
16.09440127446201
 30
0.0
  0
VERTEX
  5
5CB
  8
0
 10
-14.26185603158435
 20
15.88386677653916
 30
0.0
  0
VERTEX
  5
5CC
  8
0
 10
-14.44703695030278
 20
15.67631795508049
 30
0.0
  0
VERTEX
  5
5CD
  8
0
 10
-14.63557058735573
 20
15.47180724463892
 30
0.0
  0
VERTEX
  5
5CE
  8
0
 10
-14.82740450819012
 20
15.2703870797672
 30
0.0
  0
VERTEX
  5
5CF
  8
0
 10
-15.02248627825312
 20
15.07210989501821
 30
0.0
  0
VERTEX
  5
5D0
  8
0
 10
-15.22076346299202
 20
14.87702812494486
 30
0.0
  0
VERTEX
  5
5D1
  8
0
 10
-15.42218362785368
 20
14.68519420410003
 30
0.0
  0
VERTEX
  5
5D2
  8
0
 10
-15.62669433828542
 20
14.49666056703655
 30
0.0
  0
VERTEX
  5
5D3
  8
0
 10
-15.83424315973457
 20
14.31147964830718
 30
0.0
  0
VERTEX
  5
5D4
  8
0
 10
-16.04477765764796
 20
14.1297038824649
 30
0.0
  0
VERTEX
  5
5D5
  8
0
 10
-16.25824539747273
 20
13.95138570406244
 30
0.0
  0
VERTEX
  5
5D6
  8
0
 10
-16.4745939446562
 20
13.77657754765283
 30
0.0
  0
VERTEX
  5
5D7
  8
0
 10
-16.6937708646456
 20
13.60533184778885
 30
0.0
  0
VERTEX
  5
5D8
  8
0
 10
-16.91572372288768
 20
13.4377010390233
 30
0.0
  0
VERTEX
  5
5D9
  8
0
 10
-17.14040008482995
 20
13.27373755590916
 30
0.0
  0
VERTEX
  5
5DA
  8
0
 10
-17.36774751591945
 20
13.11349383299918
 30
0.0
  0
VERTEX
  5
5DB
  8
0
 10
-17.59771358160321
 20
12.95702230484626
 30
0.0
  0
VERTEX
  5
5DC
  8
0
 10
-17.83024584732847
 20
12.80437540600327
 30
0.0
  0
VERTEX
  5
5DD
  8
0
 10
-18.06529187854234
 20
12.655605571023
 30
0.0
  0
VERTEX
  5
5DE
  8
0
 10
-18.30279924069207
 20
12.51076523445835
 30
0.0
  0
VERTEX
  5
5DF
  8
0
 10
-18.54271549922458
 20
12.36990683086224
 30
0.0
  0
VERTEX
  5
5E0
  8
0
 10
-18.78466052271715
 20
12.23256255246685
 30
0.0
  0
VERTEX
  5
5E1
  8
0
 10
-19.02884955735512
 20
12.09929539936158
 30
0.0
  0
VERTEX
  5
5E2
  8
0
 10
-19.27521097676521
 20
11.97012456369407
 30
0.0
  0
VERTEX
  5
5E3
  8
0
 10
-19.52367315380256
 20
11.8450692380565
 30
0.0
  0
VERTEX
  5
5E4
  8
0
 10
-19.7741644613224
 20
11.72414861504073
 30
0.0
  0
VERTEX
  5
5E5
  8
0
 10
-20.02661327217958
 20
11.60738188723904
 30
0.0
  0
VERTEX
  5
5E6
  8
0
 10
-20.28094795922922
 20
11.49478824724339
 30
0.0
  0
VERTEX
  5
5E7
  8
0
 10
-20.53709689532626
 20
11.38638688764593
 30
0.0
  0
VERTEX
  5
5E8
  8
0
 10
-20.79498845332603
 20
11.2821970010386
 30
0.0
  0
VERTEX
  5
5E9
  8
0
 10
-21.05455100608346
 20
11.18223778001361
 30
0.0
  0
VERTEX
  5
5EA
  8
0
 10
-21.31571292645359
 20
11.08652841716303
 30
0.0
  0
VERTEX
  5
5EB
  8
0
 10
-21.57840258729173
 20
10.99508810507873
 30
0.0
  0
VERTEX
  5
5EC
  8
0
 10
-21.84254836145254
 20
10.90793603635299
 30
0.0
  0
VERTEX
  5
5ED
  8
0
 10
-22.10807862179146
 20
10.82509140357787
 30
0.0
  0
VERTEX
  5
5EE
  8
0
 10
-22.3749217411634
 20
10.74657339934532
 30
0.0
  0
VERTEX
  5
5EF
  8
0
 10
-22.64300609242329
 20
10.67240121624752
 30
0.0
  0
VERTEX
  5
5F0
  8
0
 10
-22.9122600484266
 20
10.6025940468765
 30
0.0
  0
VERTEX
  5
5F1
  8
0
 10
-23.1826119820281
 20
10.53717108382423
 30
0.0
  0
VERTEX
  5
5F2
  8
0
 10
-23.45399026608289
 20
10.47615151968296
 30
0.0
  0
VERTEX
  5
5F3
  8
0
 10
-23.68400938653765
 20
10.42834833198745
 30
0.0
  0
VERTEX
  5
5F4
  8
0
 10
-27.04271513728853
 20
7.069642581236558
 30
0.0
  0
SEQEND
  5
5F5
  8
0
  0
POLYLINE
  5
44
  8
0
 66
     1
 10
0.0
 20
0.0
 30
0.0
 70
     1
  0
VERTEX
  5
5F6
  8
0
 10
24.59857912225997
 20
10.42834832168806
 30
0.0
  0
VERTEX
  5
5F7
  8
0
 10
24.36855996991864
 20
10.47615151949478
 30
0.0
  0
VERTEX
  5
5F8
  8
0
 10
24.09718170009053
 20
10.53717108362191
 30
0.0
  0
VERTEX
  5
5F9
  8
0
 10
23.82682977502359
 20
10.60259404666009
 30
0.0
  0
VERTEX
  5
5FA
  8
0
 10
23.55757582186278
 20
10.67240121601714
 30
0.0
  0
VERTEX
  5
5FB
  8
0
 10
23.28949146775291
 20
10.74657339910102
 30
0.0
  0
VERTEX
  5
5FC
  8
0
 10
23.02264833983901
 20
10.82509140331967
 30
0.0
  0
VERTEX
  5
5FD
  8
0
 10
22.75711806526584
 20
10.90793603608098
 30
0.0
  0
VERTEX
  5
5FE
  8
0
 10
22.49297227117842
 20
10.99508810479302
 30
0.0
  0
VERTEX
  5
5FF
  8
0
 10
22.23028258472184
 20
11.08652841686352
 30
0.0
  0
VERTEX
  5
600
  8
0
 10
21.96912063304093
 20
11.18223777970056
 30
0.0
  0
VERTEX
  5
601
  8
0
 10
21.70955804328051
 20
11.28219700071197
 30
0.0
  0
VERTEX
  5
602
  8
0
 10
21.4516664425856
 20
11.38638688730572
 30
0.0
  0
VERTEX
  5
603
  8
0
 10
21.19551745810102
 20
11.49478824688977
 30
0.0
  0
VERTEX
  5
604
  8
0
 10
20.94118271697185
 20
11.607381886872
 30
0.0
  0
VERTEX
  5
605
  8
0
 10
20.68873384634296
 20
11.72414861466044
 30
0.0
  0
VERTEX
  5
606
  8
0
 10
20.43824247335932
 20
11.84506923766283
 30
0.0
  0
VERTEX
  5
607
  8
0
 10
20.18978022516568
 20
11.97012456328734
 30
0.0
  0
VERTEX
  5
608
  8
0
 10
19.94341872890725
 20
12.09929539894175
 30
0.0
  0
VERTEX
  5
609
  8
0
 10
19.69922961172864
 20
12.23256255203388
 30
0.0
  0
VERTEX
  5
60A
  8
0
 10
19.45728450077517
 20
12.369906829972
 30
0.0
  0
VERTEX
  5
60B
  8
0
 10
19.2173683297193
 20
12.51076523400124
 30
0.0
  0
VERTEX
  5
60C
  8
0
 10
18.97986105030294
 20
12.6556055705532
 30
0.0
  0
VERTEX
  5
60D
  8
0
 10
18.74481509648579
 20
12.80437540552093
 30
0.0
  0
VERTEX
  5
60E
  8
0
 10
18.51228290299877
 20
12.9570223043516
 30
0.0
  0
VERTEX
  5
60F
  8
0
 10
18.28231690457277
 20
13.11349383249238
 30
0.0
  0
VERTEX
  5
610
  8
0
 10
18.05496953593816
 20
13.27373755539043
 30
0.0
  0
VERTEX
  5
611
  8
0
 10
17.8302932318259
 20
13.43770103849276
 30
0.0
  0
VERTEX
  5
612
  8
0
 10
17.60834042696674
 20
13.6053318472466
 30
0.0
  0
VERTEX
  5
613
  8
0
 10
17.3891635560913
 20
13.7765775470991
 30
0.0
  0
VERTEX
  5
614
  8
0
 10
17.17281505393044
 20
13.95138570349744
 30
0.0
  0
VERTEX
  5
615
  8
0
 10
16.95934735521477
 20
14.12970388188867
 30
0.0
  0
VERTEX
  5
616
  8
0
 10
16.74881289467507
 20
14.31147964771998
 30
0.0
  0
VERTEX
  5
617
  8
0
 10
16.54126410704213
 20
14.49666056643851
 30
0.0
  0
VERTEX
  5
618
  8
0
 10
16.3367534270466
 20
14.68519420349141
 30
0.0
  0
VERTEX
  5
619
  8
0
 10
16.13533328941921
 20
14.8770281243258
 30
0.0
  0
VERTEX
  5
61A
  8
0
 10
15.93705612889084
 20
15.07210989438882
 30
0.0
  0
VERTEX
  5
61B
  8
0
 10
15.7419743801919
 20
15.27038707912765
 30
0.0
  0
VERTEX
  5
61C
  8
0
 10
15.55014047805351
 20
15.47180724398942
 30
0.0
  0
VERTEX
  5
61D
  8
0
 10
15.36160685720613
 20
15.67631795442117
 30
0.0
  0
VERTEX
  5
61E
  8
0
 10
15.1764259523806
 20
15.88386677587017
 30
0.0
  0
VERTEX
  5
61F
  8
0
 10
14.99465019830764
 20
16.09440127378365
 30
0.0
  0
VERTEX
  5
620
  8
0
 10
14.81633202971798
 20
16.30786901360847
 30
0.0
  0
VERTEX
  5
621
  8
0
 10
14.6415238813422
 20
16.52421756079193
 30
0.0
  0
VERTEX
  5
622
  8
0
 10
14.47027818791128
 20
16.74339448078121
 30
0.0
  0
VERTEX
  5
623
  8
0
 10
14.30264738415591
 20
16.9653473390234
 30
0.0
  0
VERTEX
  5
624
  8
0
 10
14.13868390480677
 20
17.19002370096568
 30
0.0
  0
VERTEX
  5
625
  8
0
 10
13.97844018459448
 20
17.41737113205512
 30
0.0
  0
VERTEX
  5
626
  8
0
 10
13.8219686582501
 20
17.64733719773891
 30
0.0
  0
VERTEX
  5
627
  8
0
 10
13.66932176050399
 20
17.8798694634642
 30
0.0
  0
VERTEX
  5
628
  8
0
 10
13.52055192608699
 20
18.11491549467819
 30
0.0
  0
VERTEX
  5
629
  8
0
 10
13.37571158972977
 20
18.35242285682784
 30
0.0
  0
VERTEX
  5
62A
  8
0
 10
13.23485318616331
 20
18.59233911536047
 30
0.0
  0
VERTEX
  5
62B
  8
0
 10
13.09750882227003
 20
18.83428413885284
 30
0.0
  0
VERTEX
  5
62C
  8
0
 10
12.96424159433905
 20
19.07847317349074
 30
0.0
  0
VERTEX
  5
62D
  8
0
 10
12.83507069380686
 20
19.32483459290094
 30
0.0
  0
VERTEX
  5
62E
  8
0
 10
12.71001531255398
 20
19.57329676993838
 30
0.0
  0
VERTEX
  5
62F
  8
0
 10
12.58909464246093
 20
19.82378807745808
 30
0.0
  0
VERTEX
  5
630
  8
0
 10
12.47232787540844
 20
20.0762368883152
 30
0.0
  0
VERTEX
  5
631
  8
0
 10
12.35973420327696
 20
20.33057157536481
 30
0.0
  0
VERTEX
  5
632
  8
0
 10
12.25133281794699
 20
20.58672051146196
 30
0.0
  0
VERTEX
  5
633
  8
0
 10
12.14714291129913
 20
20.84461206946171
 30
0.0
  0
VERTEX
  5
634
  8
0
 10
12.04718367521426
 20
21.10417462221913
 30
0.0
  0
VERTEX
  5
635
  8
0
 10
11.95147430157266
 20
21.36533654258928
 30
0.0
  0
VERTEX
  5
636
  8
0
 10
11.86003398225485
 20
21.62802620342727
 30
0.0
  0
VERTEX
  5
637
  8
0
 10
11.77288190914162
 20
21.89217197758822
 30
0.0
  0
VERTEX
  5
638
  8
0
 10
11.6900372741134
 20
22.15770223792708
 30
0.0
  0
VERTEX
  5
639
  8
0
 10
11.61151926905067
 20
22.42454535729902
 30
0.0
  0
VERTEX
  5
63A
  8
0
 10
11.53734708583435
 20
22.69262970855905
 30
0.0
  0
VERTEX
  5
63B
  8
0
 10
11.46753991634469
 20
22.96188366456229
 30
0.0
  0
VERTEX
  5
63C
  8
0
 10
11.40211695246235
 20
23.23223559816373
 30
0.0
  0
VERTEX
  5
63D
  8
0
 10
11.34109738606811
 20
23.50361388221849
 30
0.0
  0
VERTEX
  5
63E
  8
0
 10
11.28450040904215
 20
23.7759468895817
 30
0.0
  0
VERTEX
  5
63F
  8
0
 10
11.23234521326533
 20
24.04916299310835
 30
0.0
  0
VERTEX
  5
640
  8
0
 10
11.18465099061824
 20
24.32319056565356
 30
0.0
  0
VERTEX
  5
641
  8
0
 10
11.14143693298126
 20
24.5979579800724
 30
0.0
  0
VERTEX
  5
642
  8
0
 10
11.10272223223516
 20
24.87339360921992
 30
0.0
  0
VERTEX
  5
643
  8
0
 10
11.06852608026039
 20
25.14942582595119
 30
0.0
  0
VERTEX
  5
644
  8
0
 10
11.03886766893768
 20
25.42598300312126
 30
0.0
  0
VERTEX
  5
645
  8
0
 10
11.01376619014734
 20
25.70299351358525
 30
0.0
  0
VERTEX
  5
646
  8
0
 10
10.99324083577019
 20
25.98038573019823
 30
0.0
  0
VERTEX
  5
647
  8
0
 10
10.97731079768656
 20
26.25808802581525
 30
0.0
  0
VERTEX
  5
648
  8
0
 10
10.96599526777737
 20
26.53602877329137
 30
0.0
  0
VERTEX
  5
649
  8
0
 10
10.95931343792294
 20
26.81413634548166
 30
0.0
  0
VERTEX
  5
64A
  8
0
 10
10.95728450000382
 20
27.09233911524134
 30
0.0
  0
VERTEX
  5
64B
  8
0
 10
10.95931343790896
 20
27.37054179766587
 30
0.0
  0
VERTEX
  5
64C
  8
0
 10
10.96599526774859
 20
27.64864928732315
 30
0.0
  0
VERTEX
  5
64D
  8
0
 10
10.97731079764302
 20
27.92658995795838
 30
0.0
  0
VERTEX
  5
64E
  8
0
 10
10.9932408357118
 20
28.20429218242681
 30
0.0
  0
VERTEX
  5
64F
  8
0
 10
11.01376619007436
 20
28.4816843335833
 30
0.0
  0
VERTEX
  5
650
  8
0
 10
11.03886766884997
 20
28.75869478428298
 30
0.0
  0
VERTEX
  5
651
  8
0
 10
11.06852608015829
 20
29.03525190738102
 30
0.0
  0
VERTEX
  5
652
  8
0
 10
11.10272223211852
 20
29.31128407573232
 30
0.0
  0
VERTEX
  5
653
  8
0
 10
11.14143693285022
 20
29.58671966219217
 30
0.0
  0
VERTEX
  5
654
  8
0
 10
11.18465099047275
 20
29.8614870396155
 30
0.0
  0
VERTEX
  5
655
  8
0
 10
11.23234521310552
 20
30.13551458085732
 30
0.0
  0
VERTEX
  5
656
  8
0
 10
11.28450040886818
 20
30.40873065877291
 30
0.0
  0
VERTEX
  5
657
  8
0
 10
11.34109738587983
 20
30.68106364621713
 30
0.0
  0
VERTEX
  5
658
  8
0
 10
11.40211695226011
 20
30.95244191604519
 30
0.0
  0
VERTEX
  5
659
  8
0
 10
11.46753991612826
 20
31.22279384111209
 30
0.0
  0
VERTEX
  5
65A
  8
0
 10
11.53734708560395
 20
31.49204779427296
 30
0.0
  0
VERTEX
  5
65B
  8
0
 10
11.61151926880647
 20
31.76013214838281
 30
0.0
  0
VERTEX
  5
65C
  8
0
 10
11.6900372738552
 20
32.0269752762968
 30
0.0
  0
VERTEX
  5
65D
  8
0
 10
11.7728819088696
 20
32.29250555086988
 30
0.0
  0
VERTEX
  5
65E
  8
0
 10
11.86003398196915
 20
32.55665134495722
 30
0.0
  0
VERTEX
  5
65F
  8
0
 10
11.95147430127326
 20
32.81934103141383
 30
0.0
  0
VERTEX
  5
660
  8
0
 10
12.04718367490117
 20
33.08050298309482
 30
0.0
  0
VERTEX
  5
661
  8
0
 10
12.14714291097264
 20
33.34006557285525
 30
0.0
  0
VERTEX
  5
662
  8
0
 10
12.25133281760689
 20
33.59795717355014
 30
0.0
  0
VERTEX
  5
663
  8
0
 10
12.35973420292336
 20
33.85410615803467
 30
0.0
  0
VERTEX
  5
664
  8
0
 10
12.47232787504145
 20
34.10844089916387
 30
0.0
  0
VERTEX
  5
665
  8
0
 10
12.58909464208072
 20
34.36088976979275
 30
0.0
  0
VERTEX
  5
666
  8
0
 10
12.71001531216036
 20
34.61138114277644
 30
0.0
  0
VERTEX
  5
667
  8
0
 10
12.83507069340012
 20
34.85984339097
 30
0.0
  0
VERTEX
  5
668
  8
0
 10
12.9642415939191
 20
35.1062048872286
 30
0.0
  0
VERTEX
  5
669
  8
0
 10
13.09750882183708
 20
35.35039400440709
 30
0.0
  0
VERTEX
  5
66A
  8
0
 10
13.23485318527309
 20
35.59233911536077
 30
0.0
  0
VERTEX
  5
66B
  8
0
 10
13.37571158927271
 20
35.83225528641634
 30
0.0
  0
VERTEX
  5
66C
  8
0
 10
13.52055192561721
 20
36.0697625658329
 30
0.0
  0
VERTEX
  5
66D
  8
0
 10
13.66932176002156
 20
36.30480851964995
 30
0.0
  0
VERTEX
  5
66E
  8
0
 10
13.82196865775544
 20
36.53734071313696
 30
0.0
  0
VERTEX
  5
66F
  8
0
 10
13.97844018408787
 20
36.76730671156309
 30
0.0
  0
VERTEX
  5
670
  8
0
 10
14.13868390428793
 20
36.99465408019759
 30
0.0
  0
VERTEX
  5
671
  8
0
 10
14.30264738362541
 20
37.21933038430986
 30
0.0
  0
VERTEX
  5
672
  8
0
 10
14.47027818736903
 20
37.44128318916901
 30
0.0
  0
VERTEX
  5
673
  8
0
 10
14.64152388078857
 20
37.66046006004436
 30
0.0
  0
VERTEX
  5
674
  8
0
 10
14.8163320291528
 20
37.87680856220531
 30
0.0
  0
VERTEX
  5
675
  8
0
 10
14.99465019773149
 20
38.09027626092096
 30
0.0
  0
VERTEX
  5
676
  8
0
 10
15.17642595179338
 20
38.30081072146059
 30
0.0
  0
VERTEX
  5
677
  8
0
 10
15.36160685660813
 20
38.50835950909364
 30
0.0
  0
VERTEX
  5
678
  8
0
 10
15.55014047744483
 20
38.71287018908915
 30
0.0
  0
VERTEX
  5
679
  8
0
 10
15.7419743795728
 20
38.91429032671653
 30
0.0
  0
VERTEX
  5
67A
  8
0
 10
15.93705612826125
 20
39.11256748724499
 30
0.0
  0
VERTEX
  5
67B
  8
0
 10
16.13533328877964
 20
39.30764923594384
 30
0.0
  0
VERTEX
  5
67C
  8
0
 10
16.33675342639701
 20
39.49948313808233
 30
0.0
  0
VERTEX
  5
67D
  8
0
 10
16.54126410638281
 20
39.68801675892961
 30
0.0
  0
VERTEX
  5
67E
  8
0
 10
16.74881289400614
 20
39.87319766375515
 30
0.0
  0
VERTEX
  5
67F
  8
0
 10
16.95934735453634
 20
40.05497341782822
 30
0.0
  0
VERTEX
  5
680
  8
0
 10
17.17281505324266
 20
40.23329158641786
 30
0.0
  0
VERTEX
  5
681
  8
0
 10
17.38916355539449
 20
40.40809973479356
 30
0.0
  0
VERTEX
  5
682
  8
0
 10
17.60834042626079
 20
40.57934542822438
 30
0.0
  0
VERTEX
  5
683
  8
0
 10
17.83029323111121
 20
40.74697623197975
 30
0.0
  0
VERTEX
  5
684
  8
0
 10
18.05496953521492
 20
40.91093971132906
 30
0.0
  0
VERTEX
  5
685
  8
0
 10
18.28231690384109
 20
41.07118343154118
 30
0.0
  0
VERTEX
  5
686
  8
0
 10
18.51228290225875
 20
41.22765495788575
 30
0.0
  0
VERTEX
  5
687
  8
0
 10
18.74481509573759
 20
41.38030185563186
 30
0.0
  0
VERTEX
  5
688
  8
0
 10
18.97986104954679
 20
41.52907169004884
 30
0.0
  0
VERTEX
  5
689
  8
0
 10
19.21736832895548
 20
41.67391202640589
 30
0.0
  0
VERTEX
  5
68A
  8
0
 10
19.45728449923281
 20
41.81477042997243
 30
0.0
  0
VERTEX
  5
68B
  8
0
 10
19.69922961095082
 20
41.95211479662284
 30
0.0
  0
VERTEX
  5
68C
  8
0
 10
19.94341872812215
 20
42.08538203246921
 30
0.0
  0
VERTEX
  5
68D
  8
0
 10
20.18978022437378
 20
42.21455294554148
 30
0.0
  0
VERTEX
  5
68E
  8
0
 10
20.43824247256091
 20
42.3396083434256
 30
0.0
  0
VERTEX
  5
68F
  8
0
 10
20.68873384553822
 20
42.46052903370725
 30
0.0
  0
VERTEX
  5
690
  8
0
 10
20.9411827161609
 20
42.57729582397231
 30
0.0
  0
VERTEX
  5
691
  8
0
 10
21.19551745728424
 20
42.68988952180664
 30
0.0
  0
VERTEX
  5
692
  8
0
 10
21.45166644176299
 20
42.79829093479591
 30
0.0
  0
VERTEX
  5
693
  8
0
 10
21.70955804245255
 20
42.902480870526
 30
0.0
  0
VERTEX
  5
694
  8
0
 10
21.96912063220773
 20
43.00244013658275
 30
0.0
  0
VERTEX
  5
695
  8
0
 10
22.23028258388369
 20
43.09814954055187
 30
0.0
  0
VERTEX
  5
696
  8
0
 10
22.49297227033561
 20
43.18958989001931
 30
0.0
  0
VERTEX
  5
697
  8
0
 10
22.75711806441836
 20
43.27674199257076
 30
0.0
  0
VERTEX
  5
698
  8
0
 10
23.02264833898705
 20
43.35958665579194
 30
0.0
  0
VERTEX
  5
699
  8
0
 10
23.28949146689698
 20
43.43810468726887
 30
0.0
  0
VERTEX
  5
69A
  8
0
 10
23.55757582100298
 20
43.5122768945872
 30
0.0
  0
VERTEX
  5
69B
  8
0
 10
23.82682977416018
 20
43.5820840853327
 30
0.0
  0
VERTEX
  5
69C
  8
0
 10
24.09718169922361
 20
43.64750706709136
 30
0.0
  0
VERTEX
  5
69D
  8
0
 10
24.36855996904853
 20
43.70852664744884
 30
0.0
  0
VERTEX
  5
69E
  8
0
 10
24.64089295649003
 20
43.7651236339909
 30
0.0
  0
VERTEX
  5
69F
  8
0
 10
24.91410903440268
 20
43.81727883430342
 30
0.0
  0
VERTEX
  5
6A0
  8
0
 10
25.18813657564221
 20
43.86497305597225
 30
0.0
  0
VERTEX
  5
6A1
  8
0
 10
25.46290395306325
 20
43.90818710658319
 30
0.0
  0
VERTEX
  5
6A2
  8
0
 10
25.73833953952101
 20
43.946901793722
 30
0.0
  0
VERTEX
  5
6A3
  8
0
 10
26.01437170787055
 20
43.98109792497446
 30
0.0
  0
VERTEX
  5
6A4
  8
0
 10
26.29092883096699
 20
44.01075630792632
 30
0.0
  0
VERTEX
  5
6A5
  8
0
 10
26.56793928166546
 20
44.03585775016357
 30
0.0
  0
VERTEX
  5
6A6
  8
0
 10
26.8453314328207
 20
44.05638305927175
 30
0.0
  0
VERTEX
  5
6A7
  8
0
 10
27.12303365728815
 20
44.07231304283697
 30
0.0
  0
VERTEX
  5
6A8
  8
0
 10
27.40097432792284
 20
44.08362850844487
 30
0.0
  0
VERTEX
  5
6A9
  8
0
 10
27.67908181757979
 20
44.09031026368114
 30
0.0
  0
VERTEX
  5
6AA
  8
0
 10
27.95728449911385
 20
44.09233911613182
 30
0.0
  0
VERTEX
  5
6AB
  8
0
 10
28.23548726976385
 20
44.09031026369512
 30
0.0
  0
VERTEX
  5
6AC
  8
0
 10
28.51359484195464
 20
44.08362850847362
 30
0.0
  0
VERTEX
  5
6AD
  8
0
 10
28.79153558943137
 20
44.07231304288059
 30
0.0
  0
VERTEX
  5
6AE
  8
0
 10
29.06923788504928
 20
44.05638305933014
 30
0.0
  0
VERTEX
  5
6AF
  8
0
 10
29.34663010166327
 20
44.03585775023652
 30
0.0
  0
VERTEX
  5
6B0
  8
0
 10
29.62364061212867
 20
44.01075630801395
 30
0.0
  0
VERTEX
  5
6B1
  8
0
 10
29.90019778930026
 20
43.98109792507656
 30
0.0
  0
VERTEX
  5
6B2
  8
0
 10
30.17623000603338
 20
43.94690179383867
 30
0.0
  0
VERTEX
  5
6B3
  8
0
 10
30.451665635183
 20
43.90818710671426
 30
0.0
  0
VERTEX
  5
6B4
  8
0
 10
30.72643304960399
 20
43.86497305611778
 30
0.0
  0
VERTEX
  5
6B5
  8
0
 10
31.00046062215166
 20
43.8172788344633
 30
0.0
  0
VERTEX
  5
6B6
  8
0
 10
31.2736767256811
 20
43.76512363416497
 30
0.0
  0
VERTEX
  5
6B7
  8
0
 10
31.54600973304729
 20
43.70852664763699
 30
0.0
  0
VERTEX
  5
6B8
  8
0
 10
31.81738801710518
 20
43.64750706729362
 30
0.0
  0
VERTEX
  5
6B9
  8
0
 10
32.08773995071009
 20
43.58208408554913
 30
0.0
  0
VERTEX
  5
6BA
  8
0
 10
32.35699390671689
 20
43.51227689481752
 30
0.0
  0
VERTEX
  5
6BB
  8
0
 10
32.62507825798078
 20
43.43810468751318
 30
0.0
  0
VERTEX
  5
6BC
  8
0
 10
32.89192137735679
 20
43.35958665605013
 30
0.0
  0
VERTEX
  5
6BD
  8
0
 10
33.15745163769987
 20
43.27674199284274
 30
0.0
  0
VERTEX
  5
6BE
  8
0
 10
33.42159741186535
 20
43.18958989030511
 30
0.0
  0
VERTEX
  5
6BF
  8
0
 10
33.68428707270817
 20
43.09814954085146
 30
0.0
  0
VERTEX
  5
6C0
  8
0
 10
33.94544899308335
 20
43.00244013689584
 30
0.0
  0
VERTEX
  5
6C1
  8
0
 10
34.20501154584613
 20
42.90248087085268
 30
0.0
  0
VERTEX
  5
6C2
  8
0
 10
34.46290310385123
 20
42.7982909351361
 30
0.0
  0
VERTEX
  5
6C3
  8
0
 10
34.719052039954
 20
42.68988952216025
 30
0.0
  0
VERTEX
  5
6C4
  8
0
 10
34.97338672700957
 20
42.57729582433932
 30
0.0
  0
VERTEX
  5
6C5
  8
0
 10
35.22583553787295
 20
42.46052903408758
 30
0.0
  0
VERTEX
  5
6C6
  8
0
 10
35.47632684539892
 20
42.33960834381913
 30
0.0
  0
VERTEX
  5
6C7
  8
0
 10
35.72478902244299
 20
42.21455294594821
 30
0.0
  0
VERTEX
  5
6C8
  8
0
 10
35.97115044186007
 20
42.08538203288906
 30
0.0
  0
VERTEX
  5
6C9
  8
0
 10
36.21533947650493
 20
41.95211479705589
 30
0.0
  0
VERTEX
  5
6CA
  8
0
 10
36.45728449923308
 20
41.81477043086264
 30
0.0
  0
VERTEX
  5
6CB
  8
0
 10
36.697200758544
 20
41.67391202686304
 30
0.0
  0
VERTEX
  5
6CC
  8
0
 10
36.93470812070141
 20
41.52907169051863
 30
0.0
  0
VERTEX
  5
6CD
  8
0
 10
37.16975415192334
 20
41.38030185611417
 30
0.0
  0
VERTEX
  5
6CE
  8
0
 10
37.40228641765675
 20
41.22765495838031
 30
0.0
  0
VERTEX
  5
6CF
  8
0
 10
37.63225248334896
 20
41.07118343204798
 30
0.0
  0
VERTEX
  5
6D0
  8
0
 10
37.85959991444672
 20
40.9109397118477
 30
0.0
  0
VERTEX
  5
6D1
  8
0
 10
38.08427627639765
 20
40.74697623251034
 30
0.0
  0
VERTEX
  5
6D2
  8
0
 10
38.30622913464866
 20
40.57934542876662
 30
0.0
  0
VERTEX
  5
6D3
  8
0
 10
38.52540605464689
 20
40.40809973534727
 30
0.0
  0
VERTEX
  5
6D4
  8
0
 10
38.7417546018396
 20
40.23329158698285
 30
0.0
  0
VERTEX
  5
6D5
  8
0
 10
38.95522234167358
 20
40.05497341840437
 30
0.0
  0
VERTEX
  5
6D6
  8
0
 10
39.1657568395965
 20
39.87319766434238
 30
0.0
  0
VERTEX
  5
6D7
  8
0
 10
39.37330566105517
 20
39.68801675952763
 30
0.0
  0
VERTEX
  5
6D8
  8
0
 10
39.57781637149682
 20
39.49948313869093
 30
0.0
  0
VERTEX
  5
6D9
  8
0
 10
39.77923653636858
 20
39.30764923656293
 30
0.0
  0
VERTEX
  5
6DA
  8
0
 10
39.97751372111749
 20
39.11256748787439
 30
0.0
  0
VERTEX
  5
6DB
  8
0
 10
40.17259549119088
 20
38.91429032735611
 30
0.0
  0
VERTEX
  5
6DC
  8
0
 10
40.36442941203578
 20
38.71287018973864
 30
0.0
  0
VERTEX
  5
6DD
  8
0
 10
40.55296304909931
 20
38.50835950975293
 30
0.0
  0
VERTEX
  5
6DE
  8
0
 10
40.73814396782862
 20
38.30081072212961
 30
0.0
  0
VERTEX
  5
6DF
  8
0
 10
40.91991973367082
 20
38.09027626159941
 30
0.0
  0
VERTEX
  5
6E0
  8
0
 10
41.09823791207326
 20
37.87680856289298
 30
0.0
  0
VERTEX
  5
6E1
  8
0
 10
41.27304606848287
 20
37.66046006074124
 30
0.0
  0
VERTEX
  5
6E2
  8
0
 10
41.44429176834696
 20
37.44128318987485
 30
0.0
  0
VERTEX
  5
6E3
  8
0
 10
41.61192257711238
 20
37.21933038502443
 30
0.0
  0
VERTEX
  5
6E4
  8
0
 10
41.77588606022658
 20
36.99465408092084
 30
0.0
  0
VERTEX
  5
6E5
  8
0
 10
41.93612978313654
 20
36.76730671229477
 30
0.0
  0
VERTEX
  5
6E6
  8
0
 10
42.09260131128943
 20
36.5373407138769
 30
0.0
  0
VERTEX
  5
6E7
  8
0
 10
42.24524821013246
 20
36.30480852039805
 30
0.0
  0
VERTEX
  5
6E8
  8
0
 10
42.39401804511269
 20
36.06976256658896
 30
0.0
  0
VERTEX
  5
6E9
  8
0
 10
42.53885838167741
 20
35.83225528718027
 30
0.0
  0
VERTEX
  5
6EA
  8
0
 10
42.6797167852735
 20
35.59233911690274
 30
0.0
  0
VERTEX
  5
6EB
  8
0
 10
42.81706114913706
 20
35.35039400518491
 30
0.0
  0
VERTEX
  5
6EC
  8
0
 10
42.95032837686054
 20
35.10620488801351
 30
0.0
  0
VERTEX
  5
6ED
  8
0
 10
43.07949927682951
 20
34.85984339176179
 30
0.0
  0
VERTEX
  5
6EE
  8
0
 10
43.20455465698544
 20
34.6113811435748
 30
0.0
  0
VERTEX
  5
6EF
  8
0
 10
43.32547532527018
 20
34.36088977059751
 30
0.0
  0
VERTEX
  5
6F0
  8
0
 10
43.4422420896248
 20
34.1084408999747
 30
0.0
  0
VERTEX
  5
6F1
  8
0
 10
43.55483575799133
 20
33.85410615885152
 30
0.0
  0
VERTEX
  5
6F2
  8
0
 10
43.66323713831125
 20
33.5979571743727
 30
0.0
  0
VERTEX
  5
6F3
  8
0
 10
43.7674270385259
 20
33.34006557368322
 30
0.0
  0
VERTEX
  5
6F4
  8
0
 10
43.86738626657688
 20
33.08050298392797
 30
0.0
  0
VERTEX
  5
6F5
  8
0
 10
43.96309563040581
 20
32.819341032252
 30
0.0
  0
VERTEX
  5
6F6
  8
0
 10
44.05453593795426
 20
32.55665134580013
 30
0.0
  0
VERTEX
  5
6F7
  8
0
 10
44.14168799716366
 20
32.29250555171738
 30
0.0
  0
VERTEX
  5
6F8
  8
0
 10
44.2245326159758
 20
32.02697527714861
 30
0.0
  0
VERTEX
  5
6F9
  8
0
 10
44.30305060233199
 20
31.76013214923877
 30
0.0
  0
VERTEX
  5
6FA
  8
0
 10
44.37722276417388
 20
31.49204779513279
 30
0.0
  0
VERTEX
  5
6FB
  8
0
 10
44.44702990944302
 20
31.2227938419755
 30
0.0
  0
VERTEX
  5
6FC
  8
0
 10
44.51245284608095
 20
30.95244191691197
 30
0.0
  0
VERTEX
  5
6FD
  8
0
 10
44.57347238202928
 20
30.68106364708711
 30
0.0
  0
VERTEX
  5
6FE
  8
0
 10
44.63006932522951
 20
30.40873065964577
 30
0.0
  0
VERTEX
  5
6FF
  8
0
 10
44.68222448362313
 20
30.13551458173298
 30
0.0
  0
VERTEX
  5
700
  8
0
 10
44.72991866515166
 20
29.86148704049353
 30
0.0
  0
VERTEX
  5
701
  8
0
 10
44.77313267775683
 20
29.58671966307253
 30
0.0
  0
VERTEX
  5
702
  8
0
 10
44.8118473293802
 20
29.31128407661473
 30
0.0
  0
VERTEX
  5
703
  8
0
 10
44.84604342796314
 20
29.03525190826514
 30
0.0
  0
VERTEX
  5
704
  8
0
 10
44.87570178144728
 20
28.7586947851687
 30
0.0
  0
VERTEX
  5
705
  8
0
 10
44.90080319777411
 20
28.48168433447034
 30
0.0
  0
VERTEX
  5
706
  8
0
 10
44.92132848488537
 20
28.20429218331502
 30
0.0
  0
VERTEX
  5
707
  8
0
 10
44.9372584507225
 20
27.92658995884753
 30
0.0
  0
VERTEX
  5
708
  8
0
 10
44.94857390322699
 20
27.6486492882129
 30
0.0
  0
VERTEX
  5
709
  8
0
 10
44.95525565034038
 20
27.37054179855605
 30
0.0
  0
VERTEX
  5
70A
  8
0
 10
44.95728450000382
 20
27.09233911657671
 30
0.0
  0
VERTEX
  5
70B
  8
0
 10
44.95525565035426
 20
26.81413634637185
 30
0.0
  0
VERTEX
  5
70C
  8
0
 10
44.94857390325583
 20
26.53602877418112
 30
0.0
  0
VERTEX
  5
70D
  8
0
 10
44.93725845076609
 20
26.25808802670428
 30
0.0
  0
VERTEX
  5
70E
  8
0
 10
44.92132848494374
 20
25.98038573108643
 30
0.0
  0
VERTEX
  5
70F
  8
0
 10
44.90080319784716
 20
25.70299351447235
 30
0.0
  0
VERTEX
  5
710
  8
0
 10
44.87570178153483
 20
25.42598300400703
 30
0.0
  0
VERTEX
  5
711
  8
0
 10
44.84604342806531
 20
25.14942582683536
 30
0.0
  0
VERTEX
  5
712
  8
0
 10
44.8118473294968
 20
24.87339361010227
 30
0.0
  0
VERTEX
  5
713
  8
0
 10
44.77313267788797
 20
24.59795798095276
 30
0.0
  0
VERTEX
  5
714
  8
0
 10
44.72991866529719
 20
24.32319056653166
 30
0.0
  0
VERTEX
  5
715
  8
0
 10
44.68222448378283
 20
24.04916299398402
 30
0.0
  0
VERTEX
  5
716
  8
0
 10
44.6300693254034
 20
23.77594689045466
 30
0.0
  0
VERTEX
  5
717
  8
0
 10
44.57347238221745
 20
23.50361388308847
 30
0.0
  0
VERTEX
  5
718
  8
0
 10
44.51245284628331
 20
23.2322355990305
 30
0.0
  0
VERTEX
  5
719
  8
0
 10
44.44702990965946
 20
22.96188366542564
 30
0.0
  0
VERTEX
  5
71A
  8
0
 10
44.37722276440429
 20
22.69262970941882
 30
0.0
  0
VERTEX
  5
71B
  8
0
 10
44.30305060257631
 20
22.42454535815493
 30
0.0
  0
VERTEX
  5
71C
  8
0
 10
44.22453261623409
 20
22.15770223877895
 30
0.0
  0
VERTEX
  5
71D
  8
0
 10
44.14168799743583
 20
21.89217197843578
 30
0.0
  0
VERTEX
  5
71E
  8
0
 10
44.05453593824004
 20
21.62802620427036
 30
0.0
  0
VERTEX
  5
71F
  8
0
 10
43.9630956307053
 20
21.36533654342756
 30
0.0
  0
VERTEX
  5
720
  8
0
 10
43.86738626689009
 20
21.10417462305233
 30
0.0
  0
VERTEX
  5
721
  8
0
 10
43.7674270388526
 20
20.84461207028966
 30
0.0
  0
VERTEX
  5
722
  8
0
 10
43.66323713865135
 20
20.5867205122845
 30
0.0
  0
VERTEX
  5
723
  8
0
 10
43.55483575834493
 20
20.33057157618166
 30
0.0
  0
VERTEX
  5
724
  8
0
 10
43.44224208999182
 20
20.07623688912615
 30
0.0
  0
VERTEX
  5
725
  8
0
 10
43.32547532565049
 20
19.82378807826285
 30
0.0
  0
VERTEX
  5
726
  8
0
 10
43.20455465737908
 20
19.57329677073669
 30
0.0
  0
VERTEX
  5
727
  8
0
 10
43.07949927723634
 20
19.32483459369273
 30
0.0
  0
VERTEX
  5
728
  8
0
 10
42.9503283772805
 20
19.07847317427568
 30
0.0
  0
VERTEX
  5
729
  8
0
 10
42.81706114957013
 20
18.83428413963065
 30
0.0
  0
VERTEX
  5
72A
  8
0
 10
42.67971678616372
 20
18.59233911690242
 30
0.0
  0
VERTEX
  5
72B
  8
0
 10
42.53885838213448
 20
18.35242285759174
 30
0.0
  0
VERTEX
  5
72C
  8
0
 10
42.39401804558248
 20
18.11491549543425
 30
0.0
  0
VERTEX
  5
72D
  8
0
 10
42.24524821061478
 20
17.87986946421237
 30
0.0
  0
VERTEX
  5
72E
  8
0
 10
42.09260131178408
 20
17.64733719847897
 30
0.0
  0
VERTEX
  5
72F
  8
0
 10
41.93612978364323
 20
17.41737113278688
 30
0.0
  0
VERTEX
  5
730
  8
0
 10
41.77588606074541
 20
17.19002370168894
 30
0.0
  0
VERTEX
  5
731
  8
0
 10
41.61192257764299
 20
16.96534733973805
 30
0.0
  0
VERTEX
  5
732
  8
0
 10
41.44429176888921
 20
16.74339448148712
 30
0.0
  0
VERTEX
  5
733
  8
0
 10
41.27304606903648
 20
16.52421756148885
 30
0.0
  0
VERTEX
  5
734
  8
0
 10
41.09823791263824
 20
16.30786901429617
 30
0.0
  0
VERTEX
  5
735
  8
0
 10
40.91991973424707
 20
16.09440127446201
 30
0.0
  0
VERTEX
  5
736
  8
0
 10
40.73814396841566
 20
15.88386677653916
 30
0.0
  0
VERTEX
  5
737
  8
0
 10
40.55296304969723
 20
15.67631795508049
 30
0.0
  0
VERTEX
  5
738
  8
0
 10
40.36442941264428
 20
15.47180724463892
 30
0.0
  0
VERTEX
  5
739
  8
0
 10
40.17259549180988
 20
15.2703870797672
 30
0.0
  0
VERTEX
  5
73A
  8
0
 10
39.97751372174688
 20
15.07210989501821
 30
0.0
  0
VERTEX
  5
73B
  8
0
 10
39.77923653700798
 20
14.87702812494486
 30
0.0
  0
VERTEX
  5
73C
  8
0
 10
39.57781637214632
 20
14.68519420410003
 30
0.0
  0
VERTEX
  5
73D
  8
0
 10
39.37330566171458
 20
14.49666056703655
 30
0.0
  0
VERTEX
  5
73E
  8
0
 10
39.16575684026543
 20
14.31147964830718
 30
0.0
  0
VERTEX
  5
73F
  8
0
 10
38.95522234235204
 20
14.1297038824649
 30
0.0
  0
VERTEX
  5
740
  8
0
 10
38.74175460252727
 20
13.95138570406244
 30
0.0
  0
VERTEX
  5
741
  8
0
 10
38.5254060553438
 20
13.77657754765283
 30
0.0
  0
VERTEX
  5
742
  8
0
 10
38.3062291353544
 20
13.60533184778885
 30
0.0
  0
VERTEX
  5
743
  8
0
 10
38.08427627711232
 20
13.4377010390233
 30
0.0
  0
VERTEX
  5
744
  8
0
 10
37.85959991517005
 20
13.27373755590916
 30
0.0
  0
VERTEX
  5
745
  8
0
 10
37.63225248408055
 20
13.11349383299918
 30
0.0
  0
VERTEX
  5
746
  8
0
 10
37.40228641839679
 20
12.95702230484626
 30
0.0
  0
VERTEX
  5
747
  8
0
 10
37.16975415267153
 20
12.80437540600327
 30
0.0
  0
VERTEX
  5
748
  8
0
 10
36.93470812145766
 20
12.655605571023
 30
0.0
  0
VERTEX
  5
749
  8
0
 10
36.69720075930793
 20
12.51076523445835
 30
0.0
  0
VERTEX
  5
74A
  8
0
 10
36.45728450077542
 20
12.36990683086224
 30
0.0
  0
VERTEX
  5
74B
  8
0
 10
36.21533947728285
 20
12.23256255246685
 30
0.0
  0
VERTEX
  5
74C
  8
0
 10
35.97115044264488
 20
12.09929539936158
 30
0.0
  0
VERTEX
  5
74D
  8
0
 10
35.7247890232348
 20
11.97012456369407
 30
0.0
  0
VERTEX
  5
74E
  8
0
 10
35.47632684619744
 20
11.8450692380565
 30
0.0
  0
VERTEX
  5
74F
  8
0
 10
35.2258355386776
 20
11.72414861504073
 30
0.0
  0
VERTEX
  5
750
  8
0
 10
34.97338672782043
 20
11.60738188723904
 30
0.0
  0
VERTEX
  5
751
  8
0
 10
34.71905204077078
 20
11.49478824724339
 30
0.0
  0
VERTEX
  5
752
  8
0
 10
34.46290310467374
 20
11.38638688764593
 30
0.0
  0
VERTEX
  5
753
  8
0
 10
34.20501154667397
 20
11.2821970010386
 30
0.0
  0
VERTEX
  5
754
  8
0
 10
33.94544899391654
 20
11.18223778001361
 30
0.0
  0
VERTEX
  5
755
  8
0
 10
33.68428707354641
 20
11.08652841716303
 30
0.0
  0
VERTEX
  5
756
  8
0
 10
33.42159741270827
 20
10.99508810507873
 30
0.0
  0
VERTEX
  5
757
  8
0
 10
33.15745163854746
 20
10.90793603635299
 30
0.0
  0
VERTEX
  5
758
  8
0
 10
32.89192137820854
 20
10.82509140357787
 30
0.0
  0
VERTEX
  5
759
  8
0
 10
32.6250782588366
 20
10.74657339934532
 30
0.0
  0
VERTEX
  5
75A
  8
0
 10
32.35699390757671
 20
10.67240121624752
 30
0.0
  0
VERTEX
  5
75B
  8
0
 10
32.0877399515734
 20
10.6025940468765
 30
0.0
  0
VERTEX
  5
75C
  8
0
 10
31.8173880179719
 20
10.53717108382423
 30
0.0
  0
VERTEX
  5
75D
  8
0
 10
31.54600973391711
 20
10.47615151968296
 30
0.0
  0
VERTEX
  5
75E
  8
0
 10
31.31599061346235
 20
10.42834833198745
 30
0.0
  0
VERTEX
  5
75F
  8
0
 10
27.95728486271147
 20
7.069642581236558
 30
0.0
  0
SEQEND
  5
760
  8
0
  0
ENDSEC
  0
EOF
