  0
SECTION
  2
HEADER
  9
$ACADVER
  1
AC1009
  9
$DWGCODEPAGE
  3
ansi_1252
  9
$INSBASE
 10
0.0
 20
0.0
 30
0.0
  9
$EXTMIN
 10
-97.29128520981298
 20
-32.5
 30
0.0
  9
$EXTMAX
 10
58.0532893851782
 20
32.5
 30
0.0
  9
$LIMMIN
 10
0.0
 20
0.0
  9
$LIMMAX
 10
12.0
 20
9.0
  9
$ORTHOMODE
 70
     0
  9
$REGENMODE
 70
     1
  9
$FILLMODE
 70
     1
  9
$QTEXTMODE
 70
     0
  9
$MIRRTEXT
 70
     1
  9
$DRAGMODE
 70
     2
  9
$LTSCALE
 40
1.0
  9
$OSMODE
 70
    37
  9
$ATTMODE
 70
     1
  9
$TEXTSIZE
 40
0.2
  9
$TRACEWID
 40
0.05
  9
$TEXTSTYLE
  7
STANDARD
  9
$CLAYER
  8
0
  9
$CELTYPE
  6
BYLAYER
  9
$CECOLOR
 62
   256
  9
$DIMSCALE
 40
1.0
  9
$DIMASZ
 40
0.18
  9
$DIMEXO
 40
0.0625
  9
$DIMDLI
 40
0.38
  9
$DIMRND
 40
0.0
  9
$DIMDLE
 40
0.0
  9
$DIMEXE
 40
0.18
  9
$DIMTP
 40
0.0
  9
$DIMTM
 40
0.0
  9
$DIMTXT
 40
0.18
  9
$DIMCEN
 40
0.09
  9
$DIMTSZ
 40
0.0
  9
$DIMTOL
 70
     0
  9
$DIMLIM
 70
     0
  9
$DIMTIH
 70
     1
  9
$DIMTOH
 70
     1
  9
$DIMSE1
 70
     0
  9
$DIMSE2
 70
     0
  9
$DIMTAD
 70
     0
  9
$DIMZIN
 70
     0
  9
$DIMBLK
  1

  9
$DIMASO
 70
     1
  9
$DIMSHO
 70
     1
  9
$DIMPOST
  1

  9
$DIMAPOST
  1

  9
$DIMALT
 70
     0
  9
$DIMALTD
 70
     2
  9
$DIMALTF
 40
25.4
  9
$DIMLFAC
 40
1.0
  9
$DIMTOFL
 70
     0
  9
$DIMTVP
 40
0.0
  9
$DIMTIX
 70
     0
  9
$DIMSOXD
 70
     0
  9
$DIMSAH
 70
     0
  9
$DIMBLK1
  1

  9
$DIMBLK2
  1

  9
$DIMSTYLE
  2
STANDARD
  9
$DIMCLRD
 70
     0
  9
$DIMCLRE
 70
     0
  9
$DIMCLRT
 70
     0
  9
$DIMTFAC
 40
1.0
  9
$DIMGAP
 40
0.09
  9
$LUNITS
 70
     2
  9
$LUPREC
 70
     4
  9
$SKETCHINC
 40
0.1
  9
$FILLETRAD
 40
0.5
  9
$AUNITS
 70
     0
  9
$AUPREC
 70
     0
  9
$MENU
  1
.
  9
$ELEVATION
 40
0.0
  9
$PELEVATION
 40
0.0
  9
$THICKNESS
 40
0.0
  9
$LIMCHECK
 70
     0
  9
$CHAMFERA
 40
0.5
  9
$CHAMFERB
 40
0.5
  9
$SKPOLY
 70
     0
  9
$TDCREATE
 40
2454910.5
  9
$TDUPDATE
 40
2457664.936484097
  9
$TDINDWG
 40
0.0000000116
  9
$TDUSRTIMER
 40
0.0000000116
  9
$USRTIMER
 70
     1
  9
$ANGBASE
 50
0.0
  9
$ANGDIR
 70
     0
  9
$PDMODE
 70
     0
  9
$PDSIZE
 40
0.0
  9
$PLINEWID
 40
0.0
  9
$COORDS
 70
     1
  9
$SPLFRAME
 70
     0
  9
$SPLINETYPE
 70
     6
  9
$SPLINESEGS
 70
     8
  9
$ATTDIA
 70
     0
  9
$ATTREQ
 70
     1
  9
$HANDLING
 70
     1
  9
$HANDSEED
  5
54F
  9
$SURFTAB1
 70
     6
  9
$SURFTAB2
 70
     6
  9
$SURFTYPE
 70
     6
  9
$SURFU
 70
     6
  9
$SURFV
 70
     6
  9
$UCSNAME
  2

  9
$UCSORG
 10
0.0
 20
0.0
 30
0.0
  9
$UCSXDIR
 10
1.0
 20
0.0
 30
0.0
  9
$UCSYDIR
 10
0.0
 20
1.0
 30
0.0
  9
$PUCSNAME
  2

  9
$PUCSORG
 10
0.0
 20
0.0
 30
0.0
  9
$PUCSXDIR
 10
1.0
 20
0.0
 30
0.0
  9
$PUCSYDIR
 10
0.0
 20
1.0
 30
0.0
  9
$USERI1
 70
     0
  9
$USERI2
 70
     0
  9
$USERI3
 70
     0
  9
$USERI4
 70
     0
  9
$USERI5
 70
     0
  9
$USERR1
 40
0.0
  9
$USERR2
 40
0.0
  9
$USERR3
 40
0.0
  9
$USERR4
 40
0.0
  9
$USERR5
 40
0.0
  9
$WORLDVIEW
 70
     1
  9
$SHADEDGE
 70
     3
  9
$SHADEDIF
 70
    70
  9
$TILEMODE
 70
     1
  9
$MAXACTVP
 70
    64
  9
$PLIMCHECK
 70
     0
  9
$PEXTMIN
 10
1.000000000000000E+20
 20
1.000000000000000E+20
 30
1.000000000000000E+20
  9
$PEXTMAX
 10
-1.000000000000000E+20
 20
-1.000000000000000E+20
 30
-1.000000000000000E+20
  9
$PLIMMIN
 10
0.0
 20
0.0
  9
$PLIMMAX
 10
12.0
 20
9.0
  9
$UNITMODE
 70
     0
  9
$VISRETAIN
 70
     1
  9
$PLINEGEN
 70
     0
  9
$PSLTSCALE
 70
     1
  0
ENDSEC
  0
SECTION
  2
TABLES
  0
TABLE
  2
VPORT
 70
     1
  0
VPORT
  2
*ACTIVE
 70
     0
 10
0.0
 20
0.0
 11
1.0
 21
1.0
 12
10.42990654205607
 22
4.5
 13
0.0
 23
0.0
 14
0.5
 24
0.5
 15
0.5
 25
0.5
 16
0.0
 26
0.0
 36
1.0
 17
0.0
 27
0.0
 37
0.0
 40
9.0
 41
1.972972972850329
 42
50.0
 43
0.0
 44
0.0
 50
0.0
 51
0.0
 71
     0
 72
   100
 73
     1
 74
     3
 75
     0
 76
     0
 77
     0
 78
     0
  0
ENDTAB
  0
TABLE
  2
LTYPE
 70
     2
  0
LTYPE
  2
CONTINUOUS
 70
     0
  3
Solid line
 72
    65
 73
     0
 40
0.0
  0
LTYPE
  2
CONTINUOUS2
 70
     0
  3
Solid Line
 72
    65
 73
     0
 40
0.0
  0
ENDTAB
  0
TABLE
  2
LAYER
 70
     1
  0
LAYER
  2
0
 70
     0
 62
     7
  6
CONTINUOUS
  0
ENDTAB
  0
TABLE
  2
STYLE
 70
     1
  0
STYLE
  2
STANDARD
 70
     0
 40
0.0
 41
1.0
 50
0.0
 71
     0
 42
0.2
  3
txt
  4

  0
ENDTAB
  0
TABLE
  2
VIEW
 70
     0
  0
ENDTAB
  0
TABLE
  2
UCS
 70
     0
  0
ENDTAB
  0
TABLE
  2
APPID
 70
     1
  0
APPID
  2
ACAD
 70
     0
  0
ENDTAB
  0
TABLE
  2
DIMSTYLE
 70
     1
  0
DIMSTYLE
  2
STANDARD
 70
     0
  3

  4

  5

  6

  7

 40
1.0
 41
0.18
 42
0.0625
 43
0.38
 44
0.18
 45
0.0
 46
0.0
 47
0.0
 48
0.0
140
0.18
141
0.09
142
0.0
143
25.4
144
1.0
145
0.0
146
1.0
147
0.09
 71
     0
 72
     0
 73
     1
 74
     1
 75
     0
 76
     0
 77
     0
 78
     0
170
     0
171
     2
172
     0
173
     0
174
     0
175
     0
176
     0
177
     0
178
     0
  0
ENDTAB
  0
ENDSEC
  0
SECTION
  2
BLOCKS
  0
BLOCK
  8
0
  2
$MODEL_SPACE
 70
     0
 10
0.0
 20
0.0
 30
0.0
  3
$MODEL_SPACE
  1

  0
ENDBLK
  5
21
  8
0
  0
BLOCK
 67
     1
  8
0
  2
$PAPER_SPACE
 70
     0
 10
0.0
 20
0.0
 30
0.0
  3
$PAPER_SPACE
  1

  0
ENDBLK
  5
1D
 67
     1
  8
0
  0
ENDSEC
  0
SECTION
  2
ENTITIES
  0
POLYLINE
  5
40
  8
0
 66
     1
 10
0.0
 20
0.0
 30
0.0
 70
     1
  0
VERTEX
  5
56
  8
0
 10
-42.8068817609604
 20
-7.452697470772478
 30
0.0
  0
VERTEX
  5
57
  8
0
 10
-42.8068817609604
 20
-19.45267347077242
 30
0.0
  0
VERTEX
  5
58
  8
0
 10
-45.02187776096033
 20
-19.45267347077242
 30
0.0
  0
VERTEX
  5
59
  8
0
 10
-45.02187776096033
 20
-16.4526794707724
 30
0.0
  0
VERTEX
  5
5A
  8
0
 10
-52.92186176096035
 20
-16.4526794707724
 30
0.0
  0
VERTEX
  5
5B
  8
0
 10
-52.92186176096035
 20
-19.45267347077242
 30
0.0
  0
VERTEX
  5
5C
  8
0
 10
-55.13685676096039
 20
-19.45267347077242
 30
0.0
  0
VERTEX
  5
5D
  8
0
 10
-55.13685676096039
 20
-7.452697470772478
 30
0.0
  0
VERTEX
  5
5E
  8
0
 10
-52.92186176096035
 20
-7.452697470772478
 30
0.0
  0
VERTEX
  5
5F
  8
0
 10
-52.92186176096035
 20
-10.45269147077237
 30
0.0
  0
VERTEX
  5
60
  8
0
 10
-45.02187776096033
 20
-10.45269147077237
 30
0.0
  0
VERTEX
  5
61
  8
0
 10
-45.02187776096033
 20
-7.452697470772478
 30
0.0
  0
SEQEND
  5
62
  8
0
  0
POLYLINE
  5
41
  8
0
 66
     1
 10
0.0
 20
0.0
 30
0.0
 70
     1
  0
VERTEX
  5
63
  8
0
 10
-33.9718697609604
 20
-7.206671470772442
 30
0.0
  0
VERTEX
  5
64
  8
0
 10
-33.9718697609604
 20
-14.17267147077246
 30
0.0
  0
VERTEX
  5
65
  8
0
 10
-33.97338538296944
 20
-14.38050528001679
 30
0.0
  0
VERTEX
  5
66
  8
0
 10
-33.97837700265822
 20
-14.5882679721958
 30
0.0
  0
VERTEX
  5
67
  8
0
 10
-33.98683028177035
 20
-14.79590603766587
 30
0.0
  0
VERTEX
  5
68
  8
0
 10
-33.99873088204876
 20
-15.00336596678334
 30
0.0
  0
VERTEX
  5
69
  8
0
 10
-34.0140644652366
 20
-15.21059424990472
 30
0.0
  0
VERTEX
  5
6A
  8
0
 10
-34.03281669307691
 20
-15.41753737738669
 30
0.0
  0
VERTEX
  5
6B
  8
0
 10
-34.05497322731329
 20
-15.6241418395855
 30
0.0
  0
VERTEX
  5
6C
  8
0
 10
-34.08051972968857
 20
-15.83035412685762
 30
0.0
  0
VERTEX
  5
6D
  8
0
 10
-34.10944186194612
 20
-16.03612072955968
 30
0.0
  0
VERTEX
  5
6E
  8
0
 10
-34.14172528582875
 20
-16.24138813804792
 30
0.0
  0
VERTEX
  5
6F
  8
0
 10
-34.17735566308007
 20
-16.4461028426789
 30
0.0
  0
VERTEX
  5
70
  8
0
 10
-34.21631865544279
 20
-16.65021133380912
 30
0.0
  0
VERTEX
  5
71
  8
0
 10
-34.25859992466061
 20
-16.85366010179507
 30
0.0
  0
VERTEX
  5
72
  8
0
 10
-34.30418513247625
 20
-17.0563956369931
 30
0.0
  0
VERTEX
  5
73
  8
0
 10
-34.35305994063318
 20
-17.25836442975969
 30
0.0
  0
VERTEX
  5
74
  8
0
 10
-34.40521001087435
 20
-17.45951297045121
 30
0.0
  0
VERTEX
  5
75
  8
0
 10
-34.46062100494301
 20
-17.65978774942448
 30
0.0
  0
VERTEX
  5
76
  8
0
 10
-34.51927858458233
 20
-17.85913525703563
 30
0.0
  0
VERTEX
  5
77
  8
0
 10
-34.58116841153556
 20
-18.05750198364115
 30
0.0
  0
VERTEX
  5
78
  8
0
 10
-34.64627614754576
 20
-18.25483441959761
 30
0.0
  0
VERTEX
  5
79
  8
0
 10
-34.71458745435606
 20
-18.4510790552614
 30
0.0
  0
VERTEX
  5
7A
  8
0
 10
-34.78608799370974
 20
-18.64618238098898
 30
0.0
  0
VERTEX
  5
7B
  8
0
 10
-34.86076342734983
 20
-18.84009088713685
 30
0.0
  0
VERTEX
  5
7C
  8
0
 10
-34.93859941701973
 20
-19.03275106406159
 30
0.0
  0
VERTEX
  5
7D
  8
0
 10
-35.01958162446246
 20
-19.22410940211943
 30
0.0
  0
VERTEX
  5
7E
  8
0
 10
-35.10369571142117
 20
-19.4141123916669
 30
0.0
  0
VERTEX
  5
7F
  8
0
 10
-35.19092733963904
 20
-19.60270652306053
 30
0.0
  0
VERTEX
  5
80
  8
0
 10
-35.28126217085943
 20
-19.78983828665673
 30
0.0
  0
VERTEX
  5
81
  8
0
 10
-35.37468586682516
 20
-19.97545417281207
 30
0.0
  0
VERTEX
  5
82
  8
0
 10
-35.47118408927949
 20
-20.15950067188282
 30
0.0
  0
VERTEX
  5
83
  8
0
 10
-35.5707424999658
 20
-20.34192427422556
 30
0.0
  0
VERTEX
  5
84
  8
0
 10
-35.67334676062714
 20
-20.52267147019666
 30
0.0
  0
VERTEX
  5
85
  8
0
 10
-35.77857630953357
 20
-20.70190304472907
 30
0.0
  0
VERTEX
  5
86
  8
0
 10
-35.88678059101661
 20
-20.87933502737781
 30
0.0
  0
VERTEX
  5
87
  8
0
 10
-35.99792043402223
 20
-21.0549282473313
 30
0.0
  0
VERTEX
  5
88
  8
0
 10
-36.1119566671642
 20
-21.22864353320325
 30
0.0
  0
VERTEX
  5
89
  8
0
 10
-36.22885011905552
 20
-21.40044171360694
 30
0.0
  0
VERTEX
  5
8A
  8
0
 10
-36.3485616183095
 20
-21.5702836171555
 30
0.0
  0
VERTEX
  5
8B
  8
0
 10
-36.4710519935397
 20
-21.73813007246225
 30
0.0
  0
VERTEX
  5
8C
  8
0
 10
-36.5962820733591
 20
-21.90394190814062
 30
0.0
  0
VERTEX
  5
8D
  8
0
 10
-36.72421268638114
 20
-22.0676799528037
 30
0.0
  0
VERTEX
  5
8E
  8
0
 10
-36.85480466121904
 20
-22.22930503506507
 30
0.0
  0
VERTEX
  5
8F
  8
0
 10
-36.98801882648635
 20
-22.38877798353769
 30
0.0
  0
VERTEX
  5
90
  8
0
 10
-37.12381601079581
 20
-22.54605962683502
 30
0.0
  0
VERTEX
  5
91
  8
0
 10
-37.26215704276134
 20
-22.70111079357036
 30
0.0
  0
VERTEX
  5
92
  8
0
 10
-37.40300275099579
 20
-22.85389231235706
 30
0.0
  0
VERTEX
  5
93
  8
0
 10
-37.54631396411261
 20
-23.0043650118082
 30
0.0
  0
VERTEX
  5
94
  8
0
 10
-37.69205151072523
 20
-23.15248972053735
 30
0.0
  0
VERTEX
  5
95
  8
0
 10
-37.84017621944675
 20
-23.29822726715759
 30
0.0
  0
VERTEX
  5
96
  8
0
 10
-37.99064891889062
 20
-23.44153848028236
 30
0.0
  0
VERTEX
  5
97
  8
0
 10
-38.14343043766981
 20
-23.58238418852478
 30
0.0
  0
VERTEX
  5
98
  8
0
 10
-38.29848160439789
 20
-23.72072522049825
 30
0.0
  0
VERTEX
  5
99
  8
0
 10
-38.45576324768839
 20
-23.85652240481613
 30
0.0
  0
VERTEX
  5
9A
  8
0
 10
-38.61523619615397
 20
-23.98973657009162
 30
0.0
  0
VERTEX
  5
9B
  8
0
 10
-38.7768612784084
 20
-24.12032854493805
 30
0.0
  0
VERTEX
  5
9C
  8
0
 10
-38.94059932306478
 20
-24.24825915796861
 30
0.0
  0
VERTEX
  5
9D
  8
0
 10
-39.10641115873656
 20
-24.37348923779666
 30
0.0
  0
VERTEX
  5
9E
  8
0
 10
-39.27425761403693
 20
-24.49597961303572
 30
0.0
  0
VERTEX
  5
9F
  8
0
 10
-39.44409951757913
 20
-24.61569111229869
 30
0.0
  0
VERTEX
  5
A0
  8
0
 10
-39.61589769797657
 20
-24.7325845641991
 30
0.0
  0
VERTEX
  5
A1
  8
0
 10
-39.78961298384248
 20
-24.84662079735028
 30
0.0
  0
VERTEX
  5
A2
  8
0
 10
-39.96520620379018
 20
-24.95776064036534
 30
0.0
  0
VERTEX
  5
A3
  8
0
 10
-40.14263818643288
 20
-25.06596492185759
 30
0.0
  0
VERTEX
  5
A4
  8
0
 10
-40.32186976038391
 20
-25.17119447044058
 30
0.0
  0
VERTEX
  5
A5
  8
0
 10
-40.50261695692605
 20
-25.27379873144343
 30
0.0
  0
VERTEX
  5
A6
  8
0
 10
-40.68504055926356
 20
-25.37335714213963
 30
0.0
  0
VERTEX
  5
A7
  8
0
 10
-40.86908705832919
 20
-25.46985536460385
 30
0.0
  0
VERTEX
  5
A8
  8
0
 10
-41.05470294447954
 20
-25.56327906057936
 30
0.0
  0
VERTEX
  5
A9
  8
0
 10
-41.24183470807096
 20
-25.65361389180953
 30
0.0
  0
VERTEX
  5
AA
  8
0
 10
-41.43042883946006
 20
-25.7408455200374
 30
0.0
  0
VERTEX
  5
AB
  8
0
 10
-41.62043182900319
 20
-25.82495960700612
 30
0.0
  0
VERTEX
  5
AC
  8
0
 10
-41.81179016705661
 20
-25.90594181445898
 30
0.0
  0
VERTEX
  5
AD
  8
0
 10
-42.00445034397736
 20
-25.98377780413887
 30
0.0
  0
VERTEX
  5
AE
  8
0
 10
-42.19835885012125
 20
-26.05845323778919
 30
0.0
  0
VERTEX
  5
AF
  8
0
 10
-42.39346217584519
 20
-26.12995377715299
 30
0.0
  0
VERTEX
  5
B0
  8
0
 10
-42.58970681150546
 20
-26.19826508397352
 30
0.0
  0
VERTEX
  5
B1
  8
0
 10
-42.78703924745852
 20
-26.26337281999407
 30
0.0
  0
VERTEX
  5
B2
  8
0
 10
-42.98540597406085
 20
-26.32526264695765
 30
0.0
  0
VERTEX
  5
B3
  8
0
 10
-43.18475348166893
 20
-26.3839202266073
 30
0.0
  0
VERTEX
  5
B4
  8
0
 10
-43.38502826063912
 20
-26.43933122068643
 30
0.0
  0
VERTEX
  5
B5
  8
0
 10
-43.58617680132803
 20
-26.49148129093795
 30
0.0
  0
VERTEX
  5
B6
  8
0
 10
-43.78814559409212
 20
-26.54035609910533
 30
0.0
  0
VERTEX
  5
B7
  8
0
 10
-43.99088112928776
 20
-26.58594130693165
 30
0.0
  0
VERTEX
  5
B8
  8
0
 10
-44.19432989727155
 20
-26.62822257615994
 30
0.0
  0
VERTEX
  5
B9
  8
0
 10
-44.39843838839973
 20
-26.66718556853345
 30
0.0
  0
VERTEX
  5
BA
  8
0
 10
-44.6031530930289
 20
-26.70281594579536
 30
0.0
  0
VERTEX
  5
BB
  8
0
 10
-44.80842050151542
 20
-26.73509936968878
 30
0.0
  0
VERTEX
  5
BC
  8
0
 10
-45.01418710421589
 20
-26.76402150195702
 30
0.0
  0
VERTEX
  5
BD
  8
0
 10
-45.22039939148677
 20
-26.7895680043431
 30
0.0
  0
VERTEX
  5
BE
  8
0
 10
-45.42700385368445
 20
-26.81172453859028
 30
0.0
  0
VERTEX
  5
BF
  8
0
 10
-45.63394698116539
 20
-26.83047676644173
 30
0.0
  0
VERTEX
  5
C0
  8
0
 10
-45.84117526428596
 20
-26.84581034964049
 30
0.0
  0
VERTEX
  5
C1
  8
0
 10
-46.04863519340287
 20
-26.85771094992992
 30
0.0
  0
VERTEX
  5
C2
  8
0
 10
-46.25627325887236
 20
-26.86616422905308
 30
0.0
  0
VERTEX
  5
C3
  8
0
 10
-46.46403595105104
 20
-26.87115584875301
 30
0.0
  0
VERTEX
  5
C4
  8
0
 10
-46.67186976029526
 20
-26.87267147077308
 30
0.0
  0
VERTEX
  5
C5
  8
0
 10
-51.27186976096035
 20
-26.87267147077238
 30
0.0
  0
VERTEX
  5
C6
  8
0
 10
-51.47970357020468
 20
-26.87115584876335
 30
0.0
  0
VERTEX
  5
C7
  8
0
 10
-51.6874662623837
 20
-26.86616422907458
 30
0.0
  0
VERTEX
  5
C8
  8
0
 10
-51.89510432785377
 20
-26.85771094996243
 30
0.0
  0
VERTEX
  5
C9
  8
0
 10
-52.10256425697124
 20
-26.84581034968404
 30
0.0
  0
VERTEX
  5
CA
  8
0
 10
-52.30979254009261
 20
-26.8304767664962
 30
0.0
  0
VERTEX
  5
CB
  8
0
 10
-52.51673566757457
 20
-26.81172453865589
 30
0.0
  0
VERTEX
  5
CC
  8
0
 10
-52.72334012977338
 20
-26.78956800441949
 30
0.0
  0
VERTEX
  5
CD
  8
0
 10
-52.92955241704552
 20
-26.76402150204422
 30
0.0
  0
VERTEX
  5
CE
  8
0
 10
-53.13531901974758
 20
-26.73509936978667
 30
0.0
  0
VERTEX
  5
CF
  8
0
 10
-53.3405864282358
 20
-26.70281594590404
 30
0.0
  0
VERTEX
  5
D0
  8
0
 10
-53.54530113286679
 20
-26.66718556865271
 30
0.0
  0
VERTEX
  5
D1
  8
0
 10
-53.74940962399702
 20
-26.62822257629001
 30
0.0
  0
VERTEX
  5
D2
  8
0
 10
-53.95285839198296
 20
-26.58594130707218
 30
0.0
  0
VERTEX
  5
D3
  8
0
 10
-54.15559392718099
 20
-26.54035609925654
 30
0.0
  0
VERTEX
  5
D4
  8
0
 10
-54.35756271994759
 20
-26.4914812910996
 30
0.0
  0
VERTEX
  5
D5
  8
0
 10
-54.55871126063922
 20
-26.43933122085843
 30
0.0
  0
VERTEX
  5
D6
  8
0
 10
-54.75898603961237
 20
-26.38392022678976
 30
0.0
  0
VERTEX
  5
D7
  8
0
 10
-54.95833354722352
 20
-26.32526264715045
 30
0.0
  0
VERTEX
  5
D8
  8
0
 10
-55.15670027382904
 20
-26.26337282019721
 30
0.0
  0
VERTEX
  5
D9
  8
0
 10
-55.35403270978551
 20
-26.19826508418702
 30
0.0
  0
VERTEX
  5
DA
  8
0
 10
-55.5502773454493
 20
-26.12995377737673
 30
0.0
  0
VERTEX
  5
DB
  8
0
 10
-55.74538067117688
 20
-26.05845323802304
 30
0.0
  0
VERTEX
  5
DC
  8
0
 10
-55.93928917732475
 20
-25.98377780438295
 30
0.0
  0
VERTEX
  5
DD
  8
0
 10
-56.13194935424948
 20
-25.90594181471307
 30
0.0
  0
VERTEX
  5
DE
  8
0
 10
-56.32330769230733
 20
-25.82495960727034
 30
0.0
  0
VERTEX
  5
DF
  8
0
 10
-56.51331068185478
 20
-25.7408455203116
 30
0.0
  0
VERTEX
  5
E0
  8
0
 10
-56.70190481324854
 20
-25.65361389209374
 30
0.0
  0
VERTEX
  5
E1
  8
0
 10
-56.88903657684474
 20
-25.56327906087336
 30
0.0
  0
VERTEX
  5
E2
  8
0
 10
-57.07465246300008
 20
-25.46985536490764
 30
0.0
  0
VERTEX
  5
E3
  8
0
 10
-57.25869896207083
 20
-25.3733571424533
 30
0.0
  0
VERTEX
  5
E4
  8
0
 10
-57.44112256441357
 20
-25.27379873176699
 30
0.0
  0
VERTEX
  5
E5
  8
0
 10
-57.62186976038467
 20
-25.17119447110566
 30
0.0
  0
VERTEX
  5
E6
  8
0
 10
-57.80110124690437
 20
-25.06596492219921
 30
0.0
  0
VERTEX
  5
E7
  8
0
 10
-57.97853315252663
 20
-24.95776064071617
 30
0.0
  0
VERTEX
  5
E8
  8
0
 10
-58.15412630570776
 20
-24.84662079771056
 30
0.0
  0
VERTEX
  5
E9
  8
0
 10
-58.32784153432882
 20
-24.73258456456858
 30
0.0
  0
VERTEX
  5
EA
  8
0
 10
-58.49963966627055
 20
-24.61569111267726
 30
0.0
  0
VERTEX
  5
EB
  8
0
 10
-58.66948152941378
 20
-24.49597961342329
 30
0.0
  0
VERTEX
  5
EC
  8
0
 10
-58.83732795163947
 20
-24.37348923819309
 30
0.0
  0
VERTEX
  5
ED
  8
0
 10
-59.00313976082857
 20
-24.24825915837368
 30
0.0
  0
VERTEX
  5
EE
  8
0
 10
-59.16687778486184
 20
-24.12032854535165
 30
0.0
  0
VERTEX
  5
EF
  8
0
 10
-59.32850285162007
 20
-23.98973657051374
 30
0.0
  0
VERTEX
  5
F0
  8
0
 10
-59.48797578898435
 20
-23.85652240524644
 30
0.0
  0
VERTEX
  5
F1
  8
0
 10
-59.64525742483541
 20
-23.72072522093698
 30
0.0
  0
VERTEX
  5
F2
  8
0
 10
-59.80030858705421
 20
-23.58238418897145
 30
0.0
  0
VERTEX
  5
F3
  8
0
 10
-59.95309010352147
 20
-23.44153848073688
 30
0.0
  0
VERTEX
  5
F4
  8
0
 10
-60.10356280211825
 20
-23.29822726762006
 30
0.0
  0
VERTEX
  5
F5
  8
0
 10
-60.2516875107253
 20
-23.15248972100756
 30
0.0
  0
VERTEX
  5
F6
  8
0
 10
-60.39742505722332
 20
-23.00436501228604
 30
0.0
  0
VERTEX
  5
F7
  8
0
 10
-60.54073626949363
 20
-22.85389231284216
 30
0.0
  0
VERTEX
  5
F8
  8
0
 10
-60.68158197541672
 20
-22.70111079406286
 30
0.0
  0
VERTEX
  5
F9
  8
0
 10
-60.81992300287364
 20
-22.54605962733478
 30
0.0
  0
VERTEX
  5
FA
  8
0
 10
-60.95572017974526
 20
-22.3887779840444
 30
0.0
  0
VERTEX
  5
FB
  8
0
 10
-61.0889343339123
 20
-22.22930503557881
 30
0.0
  0
VERTEX
  5
FC
  8
0
 10
-61.2195262932557
 20
-22.06767995332427
 30
0.0
  0
VERTEX
  5
FD
  8
0
 10
-61.34745688565643
 20
-21.90394190866788
 30
0.0
  0
VERTEX
  5
FE
  8
0
 10
-61.47268693899544
 20
-21.73813007299611
 30
0.0
  0
VERTEX
  5
FF
  8
0
 10
-61.59517728115323
 20
-21.57028361769574
 30
0.0
  0
VERTEX
  5
100
  8
0
 10
-61.71488874001098
 20
-21.40044171415354
 30
0.0
  0
VERTEX
  5
101
  8
0
 10
-61.83178214344954
 20
-21.22864353375609
 30
0.0
  0
VERTEX
  5
102
  8
0
 10
-61.94581831934962
 20
-21.05492824789018
 30
0.0
  0
VERTEX
  5
103
  8
0
 10
-62.0569580955923
 20
-20.8793350279426
 30
0.0
  0
VERTEX
  5
104
  8
0
 10
-62.1651623000582
 20
-20.70190304529979
 30
0.0
  0
VERTEX
  5
105
  8
0
 10
-62.27039176062848
 20
-20.52267147134875
 30
0.0
  0
VERTEX
  5
106
  8
0
 10
-62.37299610964404
 20
-20.34192427480662
 30
0.0
  0
VERTEX
  5
107
  8
0
 10
-62.47255459736649
 20
-20.15950067246922
 30
0.0
  0
VERTEX
  5
108
  8
0
 10
-62.5690528866032
 20
-19.97545417340348
 30
0.0
  0
VERTEX
  5
109
  8
0
 10
-62.6624766398298
 20
-19.78983828725313
 30
0.0
  0
VERTEX
  5
10A
  8
0
 10
-62.75281151952193
 20
-19.6027065236617
 30
0.0
  0
VERTEX
  5
10B
  8
0
 10
-62.84004318815501
 20
-19.41411239227273
 30
0.0
  0
VERTEX
  5
10C
  8
0
 10
-62.92415730820479
 20
-19.2241094027296
 30
0.0
  0
VERTEX
  5
10D
  8
0
 10
-63.00513954214679
 20
-19.03275106467606
 30
0.0
  0
VERTEX
  5
10E
  8
0
 10
-63.08297555245664
 20
-18.84009088775542
 30
0.0
  0
VERTEX
  5
10F
  8
0
 10
-63.15765100160987
 20
-18.64618238161142
 30
0.0
  0
VERTEX
  5
110
  8
0
 10
-63.22915155208212
 20
-18.4510790558876
 30
0.0
  0
VERTEX
  5
111
  8
0
 10
-63.29746286634903
 20
-18.25483442022733
 30
0.0
  0
VERTEX
  5
112
  8
0
 10
-63.36257060688612
 20
-18.05750198427427
 30
0.0
  0
VERTEX
  5
113
  8
0
 10
-63.42446043616891
 20
-17.85913525767194
 30
0.0
  0
VERTEX
  5
114
  8
0
 10
-63.48311801667304
 20
-17.65978775006386
 30
0.0
  0
VERTEX
  5
115
  8
0
 10
-63.53852901087426
 20
-17.45951297109365
 30
0.0
  0
VERTEX
  5
116
  8
0
 10
-63.59067908124799
 20
-17.25836443040475
 30
0.0
  0
VERTEX
  5
117
  8
0
 10
-63.63955389026986
 20
-17.05639563764054
 30
0.0
  0
VERTEX
  5
118
  8
0
 10
-63.68513910041539
 20
-16.85366010244501
 30
0.0
  0
VERTEX
  5
119
  8
0
 10
-63.72742037416034
 20
-16.65021133446123
 30
0.0
  0
VERTEX
  5
11A
  8
0
 10
-63.76638337398011
 20
-16.44610284333305
 30
0.0
  0
VERTEX
  5
11B
  8
0
 10
-63.80201376235046
 20
-16.24138813870388
 30
0.0
  0
VERTEX
  5
11C
  8
0
 10
-63.83429720174691
 20
-16.03612073021736
 30
0.0
  0
VERTEX
  5
11D
  8
0
 10
-63.86321935464499
 20
-15.83035412751689
 30
0.0
  0
VERTEX
  5
11E
  8
0
 10
-63.88876588352033
 20
-15.62414184024601
 30
0.0
  0
VERTEX
  5
11F
  8
0
 10
-63.91092245084857
 20
-15.41753737804834
 30
0.0
  0
VERTEX
  5
120
  8
0
 10
-63.92967471910534
 20
-15.2105942505674
 30
0.0
  0
VERTEX
  5
121
  8
0
 10
-63.94500835076595
 20
-15.00336596744683
 30
0.0
  0
VERTEX
  5
122
  8
0
 10
-63.95690900830638
 20
-14.79590603832992
 30
0.0
  0
VERTEX
  5
123
  8
0
 10
-63.96536235420191
 20
-14.58826797286042
 30
0.0
  0
VERTEX
  5
124
  8
0
 10
-63.9703540509283
 20
-14.38050528068175
 30
0.0
  0
VERTEX
  5
125
  8
0
 10
-63.97186976096108
 20
-14.17267147143752
 30
0.0
  0
VERTEX
  5
126
  8
0
 10
-63.9718697609604
 20
-7.206671470772442
 30
0.0
  0
VERTEX
  5
127
  8
0
 10
-61.79886976096039
 20
-7.206671470772442
 30
0.0
  0
VERTEX
  5
128
  8
0
 10
-61.79886976096039
 20
-2.380671470772427
 30
0.0
  0
VERTEX
  5
129
  8
0
 10
-61.7977953195544
 20
-2.347443800853853
 30
0.0
  0
VERTEX
  5
12A
  8
0
 10
-61.79452372971124
 20
-2.314364361403932
 30
0.0
  0
VERTEX
  5
12B
  8
0
 10
-61.78909171799361
 20
-2.281570132891602
 30
0.0
  0
VERTEX
  5
12C
  8
0
 10
-61.78153601096377
 20
-2.249198095785232
 30
0.0
  0
VERTEX
  5
12D
  8
0
 10
-61.77189333518444
 20
-2.217385230553752
 30
0.0
  0
VERTEX
  5
12E
  8
0
 10
-61.76020041721798
 20
-2.186268517665894
 30
0.0
  0
VERTEX
  5
12F
  8
0
 10
-61.74649398362688
 20
-2.155984937590127
 30
0.0
  0
VERTEX
  5
130
  8
0
 10
-61.73081076097363
 20
-2.126671470795607
 30
0.0
  0
VERTEX
  5
131
  8
0
 10
-61.713266272681
 20
-2.098432732493848
 30
0.0
  0
VERTEX
  5
132
  8
0
 10
-61.69389316721432
 20
-2.071420877027663
 30
0.0
  0
VERTEX
  5
133
  8
0
 10
-61.67279173362314
 20
-2.045736193436142
 30
0.0
  0
VERTEX
  5
134
  8
0
 10
-61.65006226096974
 20
-2.021478970781914
 30
0.0
  0
VERTEX
  5
135
  8
0
 10
-61.62580503831665
 20
-1.998749498127154
 30
0.0
  0
VERTEX
  5
136
  8
0
 10
-61.60012035472615
 20
-1.977648064534606
 30
0.0
  0
VERTEX
  5
137
  8
0
 10
-61.57310849926099
 20
-1.958274959066678
 30
0.0
  0
VERTEX
  5
138
  8
0
 10
-61.54486976098357
 20
-1.940730470785752
 30
0.0
  0
VERTEX
  5
139
  8
0
 10
-61.51555629416642
 20
-1.925047248117608
 30
0.0
  0
VERTEX
  5
13A
  8
0
 10
-61.48527271409144
 20
-1.911340814524927
 30
0.0
  0
VERTEX
  5
13B
  8
0
 10
-61.45415600120415
 20
-1.899647896556985
 30
0.0
  0
VERTEX
  5
13C
  8
0
 10
-61.42234313597313
 20
-1.890005220775834
 30
0.0
  0
VERTEX
  5
13D
  8
0
 10
-61.38997109886721
 20
-1.882449513744405
 30
0.0
  0
VERTEX
  5
13E
  8
0
 10
-61.3571768703551
 20
-1.877017502024955
 30
0.0
  0
VERTEX
  5
13F
  8
0
 10
-61.32409743090542
 20
-1.873745912180198
 30
0.0
  0
VERTEX
  5
140
  8
0
 10
-61.29086976098696
 20
-1.872671470772381
 30
0.0
  0
VERTEX
  5
141
  8
0
 10
-36.65286976096032
 20
-1.872671470772381
 30
0.0
  0
VERTEX
  5
142
  8
0
 10
-36.61964176291675
 20
-1.873745912178371
 30
0.0
  0
VERTEX
  5
143
  8
0
 10
-36.58656208909198
 20
-1.877017502021545
 30
0.0
  0
VERTEX
  5
144
  8
0
 10
-36.55376771995449
 20
-1.882449513739175
 30
0.0
  0
VERTEX
  5
145
  8
0
 10
-36.52139563597321
 20
-1.890005220769012
 30
0.0
  0
VERTEX
  5
146
  8
0
 10
-36.48958281761664
 20
-1.899647896548345
 30
0.0
  0
VERTEX
  5
147
  8
0
 10
-36.45846624535371
 20
-1.911340814514801
 30
0.0
  0
VERTEX
  5
148
  8
0
 10
-36.42818289965313
 20
-1.925047248105898
 30
0.0
  0
VERTEX
  5
149
  8
0
 10
-36.39886976098349
 20
-1.940730470759142
 30
0.0
  0
VERTEX
  5
14A
  8
0
 10
-36.37063073557245
 20
-1.958274959051778
 30
0.0
  0
VERTEX
  5
14B
  8
0
 10
-36.34361874534064
 20
-1.977648064518462
 30
0.0
  0
VERTEX
  5
14C
  8
0
 10
-36.31793404417098
 20
-1.998749498109646
 30
0.0
  0
VERTEX
  5
14D
  8
0
 10
-36.29367688596979
 20
-2.021478970763042
 30
0.0
  0
VERTEX
  5
14E
  8
0
 10
-36.27094752464321
 20
-2.045736193416133
 30
0.0
  0
VERTEX
  5
14F
  8
0
 10
-36.24984621409745
 20
-2.071420877006638
 30
0.0
  0
VERTEX
  5
150
  8
0
 10
-36.23047320823886
 20
-2.098432732471792
 30
0.0
  0
VERTEX
  5
151
  8
0
 10
-36.21292876097365
 20
-2.126671470749216
 30
0.0
  0
VERTEX
  5
152
  8
0
 10
-36.19724525119621
 20
-2.155984937566352
 30
0.0
  0
VERTEX
  5
153
  8
0
 10
-36.1835386828379
 20
-2.186268517641338
 30
0.0
  0
VERTEX
  5
154
  8
0
 10
-36.17184574729158
 20
-2.217385230528635
 30
0.0
  0
VERTEX
  5
155
  8
0
 10
-36.16220313596383
 20
-2.249198095759532
 30
0.0
  0
VERTEX
  5
156
  8
0
 10
-36.15464754026047
 20
-2.281570132865454
 30
0.0
  0
VERTEX
  5
157
  8
0
 10
-36.14921565158792
 20
-2.314364361377677
 30
0.0
  0
VERTEX
  5
158
  8
0
 10
-36.1459441613525
 20
-2.347443800827364
 30
0.0
  0
VERTEX
  5
159
  8
0
 10
-36.1448697609604
 20
-2.380671470745824
 30
0.0
  0
VERTEX
  5
15A
  8
0
 10
-36.1448697609604
 20
-7.206671470772442
 30
0.0
  0
SEQEND
  5
15B
  8
0
  0
POLYLINE
  5
42
  8
0
 66
     1
 10
0.0
 20
0.0
 30
0.0
 70
     1
  0
VERTEX
  5
15C
  8
0
 10
-55.13685676096039
 20
8.373364529227615
 30
0.0
  0
VERTEX
  5
15D
  8
0
 10
-55.13685676096039
 20
20.37334052922757
 30
0.0
  0
VERTEX
  5
15E
  8
0
 10
-52.92186176096035
 20
20.37334052922757
 30
0.0
  0
VERTEX
  5
15F
  8
0
 10
-52.92186176096035
 20
17.37334652922755
 30
0.0
  0
VERTEX
  5
160
  8
0
 10
-45.02187776096033
 20
17.37334652922755
 30
0.0
  0
VERTEX
  5
161
  8
0
 10
-45.02187776096033
 20
20.37334052922757
 30
0.0
  0
VERTEX
  5
162
  8
0
 10
-42.8068817609604
 20
20.37334052922757
 30
0.0
  0
VERTEX
  5
163
  8
0
 10
-42.8068817609604
 20
8.373364529227615
 30
0.0
  0
VERTEX
  5
164
  8
0
 10
-45.02187776096033
 20
8.373364529227615
 30
0.0
  0
VERTEX
  5
165
  8
0
 10
-45.02187776096033
 20
11.37335852922763
 30
0.0
  0
VERTEX
  5
166
  8
0
 10
-52.92186176096035
 20
11.37335852922763
 30
0.0
  0
VERTEX
  5
167
  8
0
 10
-52.92186176096035
 20
8.373364529227615
 30
0.0
  0
SEQEND
  5
168
  8
0
  0
POLYLINE
  5
43
  8
0
 66
     1
 10
0.0
 20
0.0
 30
0.0
 70
     1
  0
VERTEX
  5
169
  8
0
 10
-63.9718697609604
 20
8.127339529227587
 30
0.0
  0
VERTEX
  5
16A
  8
0
 10
-63.9718697609604
 20
15.0933395292276
 30
0.0
  0
VERTEX
  5
16B
  8
0
 10
-63.97035405093876
 20
15.30117333847193
 30
0.0
  0
VERTEX
  5
16C
  8
0
 10
-63.96536235422351
 20
15.50893603065095
 30
0.0
  0
VERTEX
  5
16D
  8
0
 10
-63.95690900833889
 20
15.716574096121
 30
0.0
  0
VERTEX
  5
16E
  8
0
 10
-63.94500835080949
 20
15.92403402523848
 30
0.0
  0
VERTEX
  5
16F
  8
0
 10
-63.9296747191598
 20
16.13126230835985
 30
0.0
  0
VERTEX
  5
170
  8
0
 10
-63.91092245091394
 20
16.33820543584181
 30
0.0
  0
VERTEX
  5
171
  8
0
 10
-63.88876588359673
 20
16.54480989804063
 30
0.0
  0
VERTEX
  5
172
  8
0
 10
-63.86321935473207
 20
16.75102218531277
 30
0.0
  0
VERTEX
  5
173
  8
0
 10
-63.8342972018448
 20
16.95678878801482
 30
0.0
  0
VERTEX
  5
174
  8
0
 10
-63.80201376245915
 20
17.16205619650304
 30
0.0
  0
VERTEX
  5
175
  8
0
 10
-63.76638337409948
 20
17.36677090113404
 30
0.0
  0
VERTEX
  5
176
  8
0
 10
-63.72742037429028
 20
17.57087939226426
 30
0.0
  0
VERTEX
  5
177
  8
0
 10
-63.68513910055602
 20
17.77432816025021
 30
0.0
  0
VERTEX
  5
178
  8
0
 10
-63.63955389042095
 20
17.97706369544824
 30
0.0
  0
VERTEX
  5
179
  8
0
 10
-63.59067908140965
 20
18.17903248821483
 30
0.0
  0
VERTEX
  5
17A
  8
0
 10
-63.53852901104639
 20
18.38018102890646
 30
0.0
  0
VERTEX
  5
17B
  8
0
 10
-63.48311801685562
 20
18.58045580787962
 30
0.0
  0
VERTEX
  5
17C
  8
0
 10
-63.42446043636183
 20
18.77980331549077
 30
0.0
  0
VERTEX
  5
17D
  8
0
 10
-63.36257060708927
 20
18.97817004209629
 30
0.0
  0
VERTEX
  5
17E
  8
0
 10
-63.29746286656242
 20
19.17550247805275
 30
0.0
  0
VERTEX
  5
17F
  8
0
 10
-63.22915155230586
 20
19.37174711371654
 30
0.0
  0
VERTEX
  5
180
  8
0
 10
-63.15765100184372
 20
19.56685043944412
 30
0.0
  0
VERTEX
  5
181
  8
0
 10
-63.08297555270072
 20
19.76075894559199
 30
0.0
  0
VERTEX
  5
182
  8
0
 10
-63.00513954240088
 20
19.95341912251671
 30
0.0
  0
VERTEX
  5
183
  8
0
 10
-62.92415730846889
 20
20.14477746057457
 30
0.0
  0
VERTEX
  5
184
  8
0
 10
-62.84004318842911
 20
20.33478045012203
 30
0.0
  0
VERTEX
  5
185
  8
0
 10
-62.75281151980592
 20
20.52337458151579
 30
0.0
  0
VERTEX
  5
186
  8
0
 10
-62.66247664012379
 20
20.71050634511197
 30
0.0
  0
VERTEX
  5
187
  8
0
 10
-62.56905288690708
 20
20.89612223126733
 30
0.0
  0
VERTEX
  5
188
  8
0
 10
-62.47255459768015
 20
21.08016873033807
 30
0.0
  0
VERTEX
  5
189
  8
0
 10
-62.37299610996759
 20
21.26259233268082
 30
0.0
  0
VERTEX
  5
18A
  8
0
 10
-62.27039176129355
 20
21.4433395286519
 30
0.0
  0
VERTEX
  5
18B
  8
0
 10
-62.16516230039982
 20
21.62257101517162
 30
0.0
  0
VERTEX
  5
18C
  8
0
 10
-62.05695809594324
 20
21.80000292079388
 30
0.0
  0
VERTEX
  5
18D
  8
0
 10
-61.94581831971001
 20
21.975596073975
 30
0.0
  0
VERTEX
  5
18E
  8
0
 10
-61.83178214381902
 20
22.14931130259607
 30
0.0
  0
VERTEX
  5
18F
  8
0
 10
-61.71488874038955
 20
22.32110943453779
 30
0.0
  0
VERTEX
  5
190
  8
0
 10
-61.5951772815408
 20
22.49095129768103
 30
0.0
  0
VERTEX
  5
191
  8
0
 10
-61.47268693939176
 20
22.65879771990672
 30
0.0
  0
VERTEX
  5
192
  8
0
 10
-61.34745688606161
 20
22.82460952909582
 30
0.0
  0
VERTEX
  5
193
  8
0
 10
-61.21952629366941
 20
22.98834755312907
 30
0.0
  0
VERTEX
  5
194
  8
0
 10
-61.08893433433442
 20
23.14997261988731
 30
0.0
  0
VERTEX
  5
195
  8
0
 10
-60.95572018017567
 20
23.30944555725159
 30
0.0
  0
VERTEX
  5
196
  8
0
 10
-60.81992300331236
 20
23.46672719310266
 30
0.0
  0
VERTEX
  5
197
  8
0
 10
-60.68158197586339
 20
23.62177835532145
 30
0.0
  0
VERTEX
  5
198
  8
0
 10
-60.54073626994825
 20
23.77455987178871
 30
0.0
  0
VERTEX
  5
199
  8
0
 10
-60.39742505768591
 20
23.9250325703855
 30
0.0
  0
VERTEX
  5
19A
  8
0
 10
-60.2516875111954
 20
24.07315727899254
 30
0.0
  0
VERTEX
  5
19B
  8
0
 10
-60.10356280259597
 20
24.21889482549057
 30
0.0
  0
VERTEX
  5
19C
  8
0
 10
-59.95309010400668
 20
24.36220603776087
 30
0.0
  0
VERTEX
  5
19D
  8
0
 10
-59.80030858754671
 20
24.50305174368395
 30
0.0
  0
VERTEX
  5
19E
  8
0
 10
-59.64525742533518
 20
24.64139277114089
 30
0.0
  0
VERTEX
  5
19F
  8
0
 10
-59.48797578949117
 20
24.77718994801251
 30
0.0
  0
VERTEX
  5
1A0
  8
0
 10
-59.32850285213382
 20
24.91040410217954
 30
0.0
  0
VERTEX
  5
1A1
  8
0
 10
-59.1668777853824
 20
25.04099606152295
 30
0.0
  0
VERTEX
  5
1A2
  8
0
 10
-59.00313976135586
 20
25.16892665392368
 30
0.0
  0
VERTEX
  5
1A3
  8
0
 10
-58.83732795217335
 20
25.29415670726269
 30
0.0
  0
VERTEX
  5
1A4
  8
0
 10
-58.66948152995402
 20
25.41664704942048
 30
0.0
  0
VERTEX
  5
1A5
  8
0
 10
-58.49963966681715
 20
25.53635850827823
 30
0.0
  0
VERTEX
  5
1A6
  8
0
 10
-58.32784153488156
 20
25.65325191171678
 30
0.0
  0
VERTEX
  5
1A7
  8
0
 10
-58.15412630626664
 20
25.76728808761686
 30
0.0
  0
VERTEX
  5
1A8
  8
0
 10
-57.97853315309154
 20
25.87842786385954
 30
0.0
  0
VERTEX
  5
1A9
  8
0
 10
-57.80110124747507
 20
25.98663206832543
 30
0.0
  0
VERTEX
  5
1AA
  8
0
 10
-57.62186976153676
 20
26.09186152889572
 30
0.0
  0
VERTEX
  5
1AB
  8
0
 10
-57.44112256499461
 20
26.19446587791128
 30
0.0
  0
VERTEX
  5
1AC
  8
0
 10
-57.25869896265711
 20
26.29402436563373
 30
0.0
  0
VERTEX
  5
1AD
  8
0
 10
-57.07465246359148
 20
26.39052265487044
 30
0.0
  0
VERTEX
  5
1AE
  8
0
 10
-56.88903657744114
 20
26.48394640809704
 30
0.0
  0
VERTEX
  5
1AF
  8
0
 10
-56.70190481384972
 20
26.57428128778918
 30
0.0
  0
VERTEX
  5
1B0
  8
0
 10
-56.51331068246062
 20
26.66151295642226
 30
0.0
  0
VERTEX
  5
1B1
  8
0
 10
-56.32330769291749
 20
26.74562707647203
 30
0.0
  0
VERTEX
  5
1B2
  8
0
 10
-56.13194935486407
 20
26.82660931041403
 30
0.0
  0
VERTEX
  5
1B3
  8
0
 10
-55.93928917794332
 20
26.90444532072388
 30
0.0
  0
VERTEX
  5
1B4
  8
0
 10
-55.74538067179943
 20
26.97912076987711
 30
0.0
  0
VERTEX
  5
1B5
  8
0
 10
-55.55027734607548
 20
27.05062132034936
 30
0.0
  0
VERTEX
  5
1B6
  8
0
 10
-55.35403271041522
 20
27.11893263461627
 30
0.0
  0
VERTEX
  5
1B7
  8
0
 10
-55.15670027446216
 20
27.18404037515336
 30
0.0
  0
VERTEX
  5
1B8
  8
0
 10
-54.95833354785983
 20
27.24593020443615
 30
0.0
  0
VERTEX
  5
1B9
  8
0
 10
-54.75898604025175
 20
27.30458778494028
 30
0.0
  0
VERTEX
  5
1BA
  8
0
 10
-54.55871126128155
 20
27.35999877914151
 30
0.0
  0
VERTEX
  5
1BB
  8
0
 10
-54.35756272059265
 20
27.41214884951523
 30
0.0
  0
VERTEX
  5
1BC
  8
0
 10
-54.15559392782855
 20
27.46102365853699
 30
0.0
  0
VERTEX
  5
1BD
  8
0
 10
-53.95285839263291
 20
27.50660886868263
 30
0.0
  0
VERTEX
  5
1BE
  8
0
 10
-53.74940962464913
 20
27.54889014242758
 30
0.0
  0
VERTEX
  5
1BF
  8
0
 10
-53.54530113352094
 20
27.58785314224735
 30
0.0
  0
VERTEX
  5
1C0
  8
0
 10
-53.34058642889178
 20
27.6234835306177
 30
0.0
  0
VERTEX
  5
1C1
  8
0
 10
-53.13531902040526
 20
27.65576697001404
 30
0.0
  0
VERTEX
  5
1C2
  8
0
 10
-52.92955241770479
 20
27.68468912291223
 30
0.0
  0
VERTEX
  5
1C3
  8
0
 10
-52.7233401304339
 20
27.71023565178757
 30
0.0
  0
VERTEX
  5
1C4
  8
0
 10
-52.51673566823623
 20
27.7323922191157
 30
0.0
  0
VERTEX
  5
1C5
  8
0
 10
-52.30979254075529
 20
27.75114448737247
 30
0.0
  0
VERTEX
  5
1C6
  8
0
 10
-52.10256425763472
 20
27.7664781190332
 30
0.0
  0
VERTEX
  5
1C7
  8
0
 10
-51.89510432851781
 20
27.7783787765735
 30
0.0
  0
VERTEX
  5
1C8
  8
0
 10
-51.68746626304831
 20
27.78683212246904
 30
0.0
  0
VERTEX
  5
1C9
  8
0
 10
-51.47970357086964
 20
27.79182381919543
 30
0.0
  0
VERTEX
  5
1CA
  8
0
 10
-51.27186976162542
 20
27.79333952922821
 30
0.0
  0
VERTEX
  5
1CB
  8
0
 10
-46.67186976096033
 20
27.79333952922752
 30
0.0
  0
VERTEX
  5
1CC
  8
0
 10
-46.46403595171599
 20
27.79182381920589
 30
0.0
  0
VERTEX
  5
1CD
  8
0
 10
-46.25627325953698
 20
27.78683212249064
 30
0.0
  0
VERTEX
  5
1CE
  8
0
 10
-46.04863519406691
 20
27.77837877660613
 30
0.0
  0
VERTEX
  5
1CF
  8
0
 10
-45.84117526494943
 20
27.76647811907674
 30
0.0
  0
VERTEX
  5
1D0
  8
0
 10
-45.63394698182807
 20
27.75114448742704
 30
0.0
  0
VERTEX
  5
1D1
  8
0
 10
-45.4270038543461
 20
27.73239221918118
 30
0.0
  0
VERTEX
  5
1D2
  8
0
 10
-45.22039939214729
 20
27.71023565186385
 30
0.0
  0
VERTEX
  5
1D3
  8
0
 10
-45.01418710487516
 20
27.68468912299932
 30
0.0
  0
VERTEX
  5
1D4
  8
0
 10
-44.8084205021731
 20
27.65576697011204
 30
0.0
  0
VERTEX
  5
1D5
  8
0
 10
-44.60315309368487
 20
27.62348353072639
 30
0.0
  0
VERTEX
  5
1D6
  8
0
 10
-44.39843838905389
 20
27.58785314236673
 30
0.0
  0
VERTEX
  5
1D7
  8
0
 10
-44.19432989792366
 20
27.54889014255752
 30
0.0
  0
VERTEX
  5
1D8
  8
0
 10
-43.99088112993771
 20
27.50660886882315
 30
0.0
  0
VERTEX
  5
1D9
  8
0
 10
-43.78814559473968
 20
27.46102365868819
 30
0.0
  0
VERTEX
  5
1DA
  8
0
 10
-43.58617680197309
 20
27.4121488496769
 30
0.0
  0
VERTEX
  5
1DB
  8
0
 10
-43.38502826128146
 20
27.35999877931363
 30
0.0
  0
VERTEX
  5
1DC
  8
0
 10
-43.1847534823083
 20
27.30458778512286
 30
0.0
  0
VERTEX
  5
1DD
  8
0
 10
-42.98540597469715
 20
27.24593020462908
 30
0.0
  0
VERTEX
  5
1DE
  8
0
 10
-42.78703924809164
 20
27.18404037535652
 30
0.0
  0
VERTEX
  5
1DF
  8
0
 10
-42.58970681213517
 20
27.11893263482966
 30
0.0
  0
VERTEX
  5
1E0
  8
0
 10
-42.39346217647138
 20
27.0506213205731
 30
0.0
  0
VERTEX
  5
1E1
  8
0
 10
-42.19835885074379
 20
26.97912077011097
 30
0.0
  0
VERTEX
  5
1E2
  8
0
 10
-42.00445034459593
 20
26.90444532096797
 30
0.0
  0
VERTEX
  5
1E3
  8
0
 10
-41.8117901676712
 20
26.82660931066812
 30
0.0
  0
VERTEX
  5
1E4
  8
0
 10
-41.62043182961335
 20
26.74562707673613
 30
0.0
  0
VERTEX
  5
1E5
  8
0
 10
-41.43042884006589
 20
26.66151295669636
 30
0.0
  0
VERTEX
  5
1E6
  8
0
 10
-41.24183470867214
 20
26.57428128807317
 30
0.0
  0
VERTEX
  5
1E7
  8
0
 10
-41.05470294507594
 20
26.48394640839103
 30
0.0
  0
VERTEX
  5
1E8
  8
0
 10
-40.86908705892059
 20
26.39052265517432
 30
0.0
  0
VERTEX
  5
1E9
  8
0
 10
-40.68504055984985
 20
26.29402436594739
 30
0.0
  0
VERTEX
  5
1EA
  8
0
 10
-40.50261695750711
 20
26.19446587823484
 30
0.0
  0
VERTEX
  5
1EB
  8
0
 10
-40.32186976153601
 20
26.09186152956079
 30
0.0
  0
VERTEX
  5
1EC
  8
0
 10
-40.14263818700359
 20
25.98663206866706
 30
0.0
  0
VERTEX
  5
1ED
  8
0
 10
-39.96520620435498
 20
25.87842786421049
 30
0.0
  0
VERTEX
  5
1EE
  8
0
 10
-39.78961298440137
 20
25.76728808797725
 30
0.0
  0
VERTEX
  5
1EF
  8
0
 10
-39.61589769852943
 20
25.65325191208626
 30
0.0
  0
VERTEX
  5
1F0
  8
0
 10
-39.44409951812585
 20
25.5363585086568
 30
0.0
  0
VERTEX
  5
1F1
  8
0
 10
-39.27425761457729
 20
25.41664704980803
 30
0.0
  0
VERTEX
  5
1F2
  8
0
 10
-39.10641115927043
 20
25.294156707659
 30
0.0
  0
VERTEX
  5
1F3
  8
0
 10
-38.94059932359217
 20
25.16892665432886
 30
0.0
  0
VERTEX
  5
1F4
  8
0
 10
-38.77686127892897
 20
25.04099606193665
 30
0.0
  0
VERTEX
  5
1F5
  8
0
 10
-38.61523619666772
 20
24.91040410260166
 30
0.0
  0
VERTEX
  5
1F6
  8
0
 10
-38.45576324819509
 20
24.77718994844292
 30
0.0
  0
VERTEX
  5
1F7
  8
0
 10
-38.29848160489777
 20
24.6413927715796
 30
0.0
  0
VERTEX
  5
1F8
  8
0
 10
-38.14343043816242
 20
24.50305174413063
 30
0.0
  0
VERTEX
  5
1F9
  8
0
 10
-37.99064891937572
 20
24.3622060382155
 30
0.0
  0
VERTEX
  5
1FA
  8
0
 10
-37.84017621992458
 20
24.21889482595316
 30
0.0
  0
VERTEX
  5
1FB
  8
0
 10
-37.69205151119544
 20
24.07315727946263
 30
0.0
  0
VERTEX
  5
1FC
  8
0
 10
-37.5463139645752
 20
23.92503257086321
 30
0.0
  0
VERTEX
  5
1FD
  8
0
 10
-37.40300275145042
 20
23.77455987227393
 30
0.0
  0
VERTEX
  5
1FE
  8
0
 10
-37.26215704320801
 20
23.62177835581394
 30
0.0
  0
VERTEX
  5
1FF
  8
0
 10
-37.12381601123453
 20
23.46672719360242
 30
0.0
  0
VERTEX
  5
200
  8
0
 10
-36.98801882691665
 20
23.30944555775841
 30
0.0
  0
VERTEX
  5
201
  8
0
 10
-36.85480466164116
 20
23.14997262040106
 30
0.0
  0
VERTEX
  5
202
  8
0
 10
-36.72421268679474
 20
22.98834755364965
 30
0.0
  0
VERTEX
  5
203
  8
0
 10
-36.59628207376416
 20
22.8246095296231
 30
0.0
  0
VERTEX
  5
204
  8
0
 10
-36.47105199393612
 20
22.65879772044059
 30
0.0
  0
VERTEX
  5
205
  8
0
 10
-36.34856161869705
 20
22.49095129822127
 30
0.0
  0
VERTEX
  5
206
  8
0
 10
-36.22885011943409
 20
22.3211094350844
 30
0.0
  0
VERTEX
  5
207
  8
0
 10
-36.11195666753369
 20
22.14931130314881
 30
0.0
  0
VERTEX
  5
208
  8
0
 10
-35.9979204343825
 20
21.97559607453389
 30
0.0
  0
VERTEX
  5
209
  8
0
 10
-35.88678059136745
 20
21.80000292135879
 30
0.0
  0
VERTEX
  5
20A
  8
0
 10
-35.7785763098752
 20
21.62257101574232
 30
0.0
  0
VERTEX
  5
20B
  8
0
 10
-35.6733467612922
 20
21.44333952980401
 30
0.0
  0
VERTEX
  5
20C
  8
0
 10
-35.57074250028935
 20
21.26259233326186
 30
0.0
  0
VERTEX
  5
20D
  8
0
 10
-35.47118408959314
 20
21.08016873092436
 30
0.0
  0
VERTEX
  5
20E
  8
0
 10
-35.37468586712892
 20
20.89612223185873
 30
0.0
  0
VERTEX
  5
20F
  8
0
 10
-35.28126217115343
 20
20.71050634570839
 30
0.0
  0
VERTEX
  5
210
  8
0
 10
-35.19092733992326
 20
20.52337458211696
 30
0.0
  0
VERTEX
  5
211
  8
0
 10
-35.10369571169539
 20
20.33478045072787
 30
0.0
  0
VERTEX
  5
212
  8
0
 10
-35.01958162472667
 20
20.14477746118474
 30
0.0
  0
VERTEX
  5
213
  8
0
 10
-34.93859941727382
 20
19.95341912313132
 30
0.0
  0
VERTEX
  5
214
  8
0
 10
-34.86076342759392
 20
19.76075894621056
 30
0.0
  0
VERTEX
  5
215
  8
0
 10
-34.78608799394359
 20
19.56685044006667
 30
0.0
  0
VERTEX
  5
216
  8
0
 10
-34.7145874545798
 20
19.37174711434272
 30
0.0
  0
VERTEX
  5
217
  8
0
 10
-34.64627614775926
 20
19.17550247868247
 30
0.0
  0
VERTEX
  5
218
  8
0
 10
-34.58116841173873
 20
18.97817004272941
 30
0.0
  0
VERTEX
  5
219
  8
0
 10
-34.51927858477515
 20
18.77980331612708
 30
0.0
  0
VERTEX
  5
21A
  8
0
 10
-34.46062100512549
 20
18.580455808519
 30
0.0
  0
VERTEX
  5
21B
  8
0
 10
-34.40521001104636
 20
18.38018102954879
 30
0.0
  0
VERTEX
  5
21C
  8
0
 10
-34.35305994079485
 20
18.17903248885989
 30
0.0
  0
VERTEX
  5
21D
  8
0
 10
-34.30418513262745
 20
17.9770636960958
 30
0.0
  0
VERTEX
  5
21E
  8
0
 10
-34.25859992480112
 20
17.77432816090015
 30
0.0
  0
VERTEX
  5
21F
  8
0
 10
-34.21631865557283
 20
17.57087939291637
 30
0.0
  0
VERTEX
  5
220
  8
0
 10
-34.17735566319933
 20
17.36677090178819
 30
0.0
  0
VERTEX
  5
221
  8
0
 10
-34.14172528593744
 20
17.16205619715902
 30
0.0
  0
VERTEX
  5
222
  8
0
 10
-34.109441862044
 20
16.9567887886725
 30
0.0
  0
VERTEX
  5
223
  8
0
 10
-34.08051972977577
 20
16.75102218597204
 30
0.0
  0
VERTEX
  5
224
  8
0
 10
-34.05497322738969
 20
16.54480989870115
 30
0.0
  0
VERTEX
  5
225
  8
0
 10
-34.0328166931425
 20
16.33820543650348
 30
0.0
  0
VERTEX
  5
226
  8
0
 10
-34.01406446529105
 20
16.13126230902254
 30
0.0
  0
VERTEX
  5
227
  8
0
 10
-33.9987308820923
 20
15.92403402590196
 30
0.0
  0
VERTEX
  5
228
  8
0
 10
-33.98683028180286
 20
15.71657409678506
 30
0.0
  0
VERTEX
  5
229
  8
0
 10
-33.9783770026797
 20
15.50893603131556
 30
0.0
  0
VERTEX
  5
22A
  8
0
 10
-33.97338538297978
 20
15.30117333913688
 30
0.0
  0
VERTEX
  5
22B
  8
0
 10
-33.97186976095972
 20
15.09333952989266
 30
0.0
  0
VERTEX
  5
22C
  8
0
 10
-33.9718697609604
 20
8.127339529227587
 30
0.0
  0
VERTEX
  5
22D
  8
0
 10
-36.1448697609604
 20
8.127339529227587
 30
0.0
  0
VERTEX
  5
22E
  8
0
 10
-36.1448697609604
 20
3.301339529227565
 30
0.0
  0
VERTEX
  5
22F
  8
0
 10
-36.14594416135079
 20
3.268111531183987
 30
0.0
  0
VERTEX
  5
230
  8
0
 10
-36.14921565158451
 20
3.235031857359214
 30
0.0
  0
VERTEX
  5
231
  8
0
 10
-36.15464754025535
 20
3.202237488221726
 30
0.0
  0
VERTEX
  5
232
  8
0
 10
-36.1622031359569
 20
3.169865404240454
 30
0.0
  0
VERTEX
  5
233
  8
0
 10
-36.17184574728318
 20
3.138052585883887
 30
0.0
  0
VERTEX
  5
234
  8
0
 10
-36.18353868282767
 20
3.106936013620956
 30
0.0
  0
VERTEX
  5
235
  8
0
 10
-36.19724525118439
 20
3.076652667920374
 30
0.0
  0
VERTEX
  5
236
  8
0
 10
-36.21292876094704
 20
3.047339529250735
 30
0.0
  0
VERTEX
  5
237
  8
0
 10
-36.23047320822408
 20
3.019100503839695
 30
0.0
  0
VERTEX
  5
238
  8
0
 10
-36.24984621408131
 20
2.992088513607886
 30
0.0
  0
VERTEX
  5
239
  8
0
 10
-36.27094752462559
 20
2.966403812438216
 30
0.0
  0
VERTEX
  5
23A
  8
0
 10
-36.29367688595092
 20
2.942146654237035
 30
0.0
  0
VERTEX
  5
23B
  8
0
 10
-36.31793404415085
 20
2.919417292910456
 30
0.0
  0
VERTEX
  5
23C
  8
0
 10
-36.3436187453195
 20
2.898315982364696
 30
0.0
  0
VERTEX
  5
23D
  8
0
 10
-36.3706307355504
 20
2.878942976506096
 30
0.0
  0
VERTEX
  5
23E
  8
0
 10
-36.39886976093711
 20
2.861398529240887
 30
0.0
  0
VERTEX
  5
23F
  8
0
 10
-36.42818289962926
 20
2.845715019463455
 30
0.0
  0
VERTEX
  5
240
  8
0
 10
-36.45846624532916
 20
2.832008451105136
 30
0.0
  0
VERTEX
  5
241
  8
0
 10
-36.48958281759152
 20
2.820315515558836
 30
0.0
  0
VERTEX
  5
242
  8
0
 10
-36.52139563594752
 20
2.810672904230955
 30
0.0
  0
VERTEX
  5
243
  8
0
 10
-36.55376771992845
 20
2.803117308527586
 30
0.0
  0
VERTEX
  5
244
  8
0
 10
-36.5865620890656
 20
2.797685419855156
 30
0.0
  0
VERTEX
  5
245
  8
0
 10
-36.61964176289026
 20
2.794413929619626
 30
0.0
  0
VERTEX
  5
246
  8
0
 10
-36.65286976093372
 20
2.793339529227527
 30
0.0
  0
VERTEX
  5
247
  8
0
 10
-61.29086976096035
 20
2.793339529227527
 30
0.0
  0
VERTEX
  5
248
  8
0
 10
-61.32409743087893
 20
2.794413929617917
 30
0.0
  0
VERTEX
  5
249
  8
0
 10
-61.35717687032874
 20
2.797685419851636
 30
0.0
  0
VERTEX
  5
24A
  8
0
 10
-61.38997109884118
 20
2.803117308522477
 30
0.0
  0
VERTEX
  5
24B
  8
0
 10
-61.42234313594755
 20
2.810672904224134
 30
0.0
  0
VERTEX
  5
24C
  8
0
 10
-61.45415600117902
 20
2.820315515550416
 30
0.0
  0
VERTEX
  5
24D
  8
0
 10
-61.48527271406689
 20
2.832008451094907
 30
0.0
  0
VERTEX
  5
24E
  8
0
 10
-61.51555629414267
 20
2.845715019451635
 30
0.0
  0
VERTEX
  5
24F
  8
0
 10
-61.54486976093719
 20
2.861398529214284
 30
0.0
  0
VERTEX
  5
250
  8
0
 10
-61.57310849923882
 20
2.878942976491317
 30
0.0
  0
VERTEX
  5
251
  8
0
 10
-61.60012035470512
 20
2.898315982348546
 30
0.0
  0
VERTEX
  5
252
  8
0
 10
-61.62580503829653
 20
2.919417292892835
 30
0.0
  0
VERTEX
  5
253
  8
0
 10
-61.65006226095087
 20
2.942146654218167
 30
0.0
  0
VERTEX
  5
254
  8
0
 10
-61.67279173360563
 20
2.966403812418097
 30
0.0
  0
VERTEX
  5
255
  8
0
 10
-61.69389316719818
 20
2.992088513586737
 30
0.0
  0
VERTEX
  5
256
  8
0
 10
-61.71326627266611
 20
3.019100503817636
 30
0.0
  0
VERTEX
  5
257
  8
0
 10
-61.73081076094703
 20
3.047339529204347
 30
0.0
  0
VERTEX
  5
258
  8
0
 10
-61.74649398361517
 20
3.076652667896496
 30
0.0
  0
VERTEX
  5
259
  8
0
 10
-61.76020041720787
 20
3.106936013596396
 30
0.0
  0
VERTEX
  5
25A
  8
0
 10
-61.7718933351758
 20
3.138052585858755
 30
0.0
  0
VERTEX
  5
25B
  8
0
 10
-61.78153601095695
 20
3.169865404214764
 30
0.0
  0
VERTEX
  5
25C
  8
0
 10
-61.78909171798838
 20
3.202237488195696
 30
0.0
  0
VERTEX
  5
25D
  8
0
 10
-61.79452372970783
 20
3.235031857332846
 30
0.0
  0
VERTEX
  5
25E
  8
0
 10
-61.79779531955258
 20
3.268111531157505
 30
0.0
  0
VERTEX
  5
25F
  8
0
 10
-61.79886976096039
 20
3.301339529200956
 30
0.0
  0
VERTEX
  5
260
  8
0
 10
-61.79886976096039
 20
8.127339529227587
 30
0.0
  0
SEQEND
  5
261
  8
0
  0
POLYLINE
  5
44
  8
0
 66
     1
 10
0.0
 20
0.0
 30
0.0
 70
     1
  0
VERTEX
  5
262
  8
0
 10
48.05328938544014
 20
9.821710500000506
 30
0.0
  0
VERTEX
  5
263
  8
0
 10
43.0532893851782
 20
9.821710500000847
 30
0.0
  0
VERTEX
  5
264
  8
0
 10
42.88964068573168
 20
9.822903980713416
 30
0.0
  0
VERTEX
  5
265
  8
0
 10
42.72604798872655
 20
9.826834458984134
 30
0.0
  0
VERTEX
  5
266
  8
0
 10
42.5625534274636
 20
9.833490645262085
 30
0.0
  0
VERTEX
  5
267
  8
0
 10
42.39919913524349
 20
9.842861249996584
 30
0.0
  0
VERTEX
  5
268
  8
0
 10
42.23602724536724
 20
9.854934983636724
 30
0.0
  0
VERTEX
  5
269
  8
0
 10
42.07307989113528
 20
9.869700556631816
 30
0.0
  0
VERTEX
  5
26A
  8
0
 10
41.91039920584862
 20
9.887146679430945
 30
0.0
  0
VERTEX
  5
26B
  8
0
 10
41.74802732280793
 20
9.907262062483657
 30
0.0
  0
VERTEX
  5
26C
  8
0
 10
41.5860063753141
 20
9.930035416238926
 30
0.0
  0
VERTEX
  5
26D
  8
0
 10
41.4243784966678
 20
9.955455451145955
 30
0.0
  0
VERTEX
  5
26E
  8
0
 10
41.2631858201697
 20
9.983510877654055
 30
0.0
  0
VERTEX
  5
26F
  8
0
 10
41.1024704791208
 20
10.01419040621244
 30
0.0
  0
VERTEX
  5
270
  8
0
 10
40.94227460682166
 20
10.04748274727029
 30
0.0
  0
VERTEX
  5
271
  8
0
 10
40.78264033657328
 20
10.08337661127684
 30
0.0
  0
VERTEX
  5
272
  8
0
 10
40.623609801676
 20
10.12186070868136
 30
0.0
  0
VERTEX
  5
273
  8
0
 10
40.46522513543104
 20
10.16292374993299
 30
0.0
  0
VERTEX
  5
274
  8
0
 10
40.30752847113908
 20
10.20655444548101
 30
0.0
  0
VERTEX
  5
275
  8
0
 10
40.15056194210067
 20
10.25274150577474
 30
0.0
  0
VERTEX
  5
276
  8
0
 10
39.99436768161681
 20
10.30147364126328
 30
0.0
  0
VERTEX
  5
277
  8
0
 10
39.83898782298806
 20
10.35273956239581
 30
0.0
  0
VERTEX
  5
278
  8
0
 10
39.68446449951543
 20
10.40652797962144
 30
0.0
  0
VERTEX
  5
279
  8
0
 10
39.53083984449947
 20
10.46282760338983
 30
0.0
  0
VERTEX
  5
27A
  8
0
 10
39.37815599124119
 20
10.52162714414981
 30
0.0
  0
VERTEX
  5
27B
  8
0
 10
39.22645507304102
 20
10.58291531235074
 30
0.0
  0
VERTEX
  5
27C
  8
0
 10
39.07577922319999
 20
10.64668081844178
 30
0.0
  0
VERTEX
  5
27D
  8
0
 10
38.92617057501886
 20
10.71291237287226
 30
0.0
  0
VERTEX
  5
27E
  8
0
 10
38.7776712617983
 20
10.7815986860914
 30
0.0
  0
VERTEX
  5
27F
  8
0
 10
38.6303234168391
 20
10.85272846854826
 30
0.0
  0
VERTEX
  5
280
  8
0
 10
38.48416917344204
 20
10.92629043069218
 30
0.0
  0
VERTEX
  5
281
  8
0
 10
38.33925066490801
 20
11.00227328297234
 30
0.0
  0
VERTEX
  5
282
  8
0
 10
38.19561002453744
 20
11.08066573583806
 30
0.0
  0
VERTEX
  5
283
  8
0
 10
38.05328938563147
 20
11.16145649973857
 30
0.0
  0
VERTEX
  5
284
  8
0
 10
37.91216222415093
 20
11.24431443553926
 30
0.0
  0
VERTEX
  5
285
  8
0
 10
37.77245205390724
 20
11.32951467967104
 30
0.0
  0
VERTEX
  5
286
  8
0
 10
37.634189718746
 20
11.4170263886461
 30
0.0
  0
VERTEX
  5
287
  8
0
 10
37.49740606296697
 20
11.50681871871456
 30
0.0
  0
VERTEX
  5
288
  8
0
 10
37.36213193086925
 20
11.5988608261261
 30
0.0
  0
VERTEX
  5
289
  8
0
 10
37.22839816675216
 20
11.69312186713109
 30
0.0
  0
VERTEX
  5
28A
  8
0
 10
37.096235614915
 20
11.78957099797941
 30
0.0
  0
VERTEX
  5
28B
  8
0
 10
36.96567511965699
 20
11.88817737492099
 30
0.0
  0
VERTEX
  5
28C
  8
0
 10
36.83674752527767
 20
11.98891015420606
 30
0.0
  0
VERTEX
  5
28D
  8
0
 10
36.70948367607613
 20
12.09173849208441
 30
0.0
  0
VERTEX
  5
28E
  8
0
 10
36.58391441635169
 20
12.19663154480617
 30
0.0
  0
VERTEX
  5
28F
  8
0
 10
36.460070590404
 20
12.30355846862125
 30
0.0
  0
VERTEX
  5
290
  8
0
 10
36.33798304253182
 20
12.41248841977978
 30
0.0
  0
VERTEX
  5
291
  8
0
 10
36.2176826170348
 20
12.52339055453166
 30
0.0
  0
VERTEX
  5
292
  8
0
 10
36.09920015821226
 20
12.63623402912702
 30
0.0
  0
VERTEX
  5
293
  8
0
 10
35.98256651036328
 20
12.75098799981578
 30
0.0
  0
VERTEX
  5
294
  8
0
 10
35.86781251778743
 20
12.86762162284782
 30
0.0
  0
VERTEX
  5
295
  8
0
 10
35.75496902478389
 20
12.9861040544734
 30
0.0
  0
VERTEX
  5
296
  8
0
 10
35.64406687565199
 20
13.10640445094242
 30
0.0
  0
VERTEX
  5
297
  8
0
 10
35.53513691469104
 20
13.22849196850489
 30
0.0
  0
VERTEX
  5
298
  8
0
 10
35.42820998620013
 20
13.35233576341085
 30
0.0
  0
VERTEX
  5
299
  8
0
 10
35.32331693447892
 20
13.47790499191018
 30
0.0
  0
VERTEX
  5
29A
  8
0
 10
35.22048860382662
 20
13.60516881025314
 30
0.0
  0
VERTEX
  5
29B
  8
0
 10
35.11975583854232
 20
13.73409637468939
 30
0.0
  0
VERTEX
  5
29C
  8
0
 10
35.02114948292567
 20
13.86465684146929
 30
0.0
  0
VERTEX
  5
29D
  8
0
 10
34.92470038127576
 20
13.99681936684265
 30
0.0
  0
VERTEX
  5
29E
  8
0
 10
34.83043937789191
 20
14.13055310705959
 30
0.0
  0
VERTEX
  5
29F
  8
0
 10
34.73839731707344
 20
14.26582721837002
 30
0.0
  0
VERTEX
  5
2A0
  8
0
 10
34.64860504311966
 20
14.40261085702383
 30
0.0
  0
VERTEX
  5
2A1
  8
0
 10
34.56109340032978
 20
14.54087317927139
 30
0.0
  0
VERTEX
  5
2A2
  8
0
 10
34.47589323300346
 20
14.68058334136236
 30
0.0
  0
VERTEX
  5
2A3
  8
0
 10
34.39303538543945
 20
14.8217104995469
 30
0.0
  0
VERTEX
  5
2A4
  8
0
 10
34.31224462127008
 20
14.96403114174069
 30
0.0
  0
VERTEX
  5
2A5
  8
0
 10
34.23385216839685
 20
15.10767179025521
 30
0.0
  0
VERTEX
  5
2A6
  8
0
 10
34.15786931610884
 20
15.25259031169417
 30
0.0
  0
VERTEX
  5
2A7
  8
0
 10
34.08430735395709
 20
15.39874457220781
 30
0.0
  0
VERTEX
  5
2A8
  8
0
 10
34.01317757149238
 20
15.54609243794567
 30
0.0
  0
VERTEX
  5
2A9
  8
0
 10
33.94449125826563
 20
15.69459177505798
 30
0.0
  0
VERTEX
  5
2AA
  8
0
 10
33.87825970382718
 20
15.84420044969437
 30
0.0
  0
VERTEX
  5
2AB
  8
0
 10
33.81449419772818
 20
15.99487632800487
 30
0.0
  0
VERTEX
  5
2AC
  8
0
 10
33.7532060295193
 20
16.14657727613957
 30
0.0
  0
VERTEX
  5
2AD
  8
0
 10
33.69440648875147
 20
16.29926116024803
 30
0.0
  0
VERTEX
  5
2AE
  8
0
 10
33.63810686497513
 20
16.45288584648046
 30
0.0
  0
VERTEX
  5
2AF
  8
0
 10
33.58431844774131
 20
16.60740920098675
 30
0.0
  0
VERTEX
  5
2B0
  8
0
 10
33.5330525266007
 20
16.76278908991668
 30
0.0
  0
VERTEX
  5
2B1
  8
0
 10
33.48432039110409
 20
16.91898337942024
 30
0.0
  0
VERTEX
  5
2B2
  8
0
 10
33.43813333080217
 20
17.07594993564743
 30
0.0
  0
VERTEX
  5
2B3
  8
0
 10
33.39450263524597
 20
17.23364662474791
 30
0.0
  0
VERTEX
  5
2B4
  8
0
 10
33.35343959398605
 20
17.39203131287189
 30
0.0
  0
VERTEX
  5
2B5
  8
0
 10
33.31495549657333
 20
17.55106186616904
 30
0.0
  0
VERTEX
  5
2B6
  8
0
 10
33.27906163255838
 20
17.71069615078949
 30
0.0
  0
VERTEX
  5
2B7
  8
0
 10
33.24576929149222
 20
17.87089203288298
 30
0.0
  0
VERTEX
  5
2B8
  8
0
 10
33.21508976292543
 20
18.03160737859952
 30
0.0
  0
VERTEX
  5
2B9
  8
0
 10
33.18703433640891
 20
18.19280005408899
 30
0.0
  0
VERTEX
  5
2BA
  8
0
 10
33.16161430149336
 20
18.3544279255014
 30
0.0
  0
VERTEX
  5
2BB
  8
0
 10
33.13884094772968
 20
18.51644885898651
 30
0.0
  0
VERTEX
  5
2BC
  8
0
 10
33.11872556466855
 20
18.67882072069431
 30
0.0
  0
VERTEX
  5
2BD
  8
0
 10
33.10127944186067
 20
18.84150137677472
 30
0.0
  0
VERTEX
  5
2BE
  8
0
 10
33.08651386885705
 20
19.0044486933777
 30
0.0
  0
VERTEX
  5
2BF
  8
0
 10
33.07444013520816
 20
19.16762053665304
 30
0.0
  0
VERTEX
  5
2C0
  8
0
 10
33.06506953046514
 20
19.33097477275073
 30
0.0
  0
VERTEX
  5
2C1
  8
0
 10
33.05841334417843
 20
19.49446926782065
 30
0.0
  0
VERTEX
  5
2C2
  8
0
 10
33.05448286589908
 20
19.65806188801281
 30
0.0
  0
VERTEX
  5
2C3
  8
0
 10
33.05328938517752
 20
19.82171049947697
 30
0.0
  0
VERTEX
  5
2C4
  8
0
 10
33.0532893851782
 20
24.82171050000085
 30
0.0
  0
VERTEX
  5
2C5
  8
0
 10
38.08588938517821
 20
24.8254215000008
 30
0.0
  0
VERTEX
  5
2C6
  8
0
 10
38.08588938517821
 20
30.15942150000086
 30
0.0
  0
VERTEX
  5
2C7
  8
0
 10
53.0206893851782
 20
30.15942150000086
 30
0.0
  0
VERTEX
  5
2C8
  8
0
 10
53.0206893851782
 20
24.8254215000008
 30
0.0
  0
VERTEX
  5
2C9
  8
0
 10
58.0532893851782
 20
24.82171050000085
 30
0.0
  0
VERTEX
  5
2CA
  8
0
 10
58.0532893851782
 20
19.82171050000085
 30
0.0
  0
VERTEX
  5
2CB
  8
0
 10
58.05209590446552
 20
19.65806188853646
 30
0.0
  0
VERTEX
  5
2CC
  8
0
 10
58.0481654261948
 20
19.49446926834407
 30
0.0
  0
VERTEX
  5
2CD
  8
0
 10
58.04150923991685
 20
19.33097477327379
 30
0.0
  0
VERTEX
  5
2CE
  8
0
 10
58.03213863518246
 20
19.16762053717554
 30
0.0
  0
VERTEX
  5
2CF
  8
0
 10
58.02006490154221
 20
19.00444869389952
 30
0.0
  0
VERTEX
  5
2D0
  8
0
 10
58.00529932854724
 20
18.84150137729575
 30
0.0
  0
VERTEX
  5
2D1
  8
0
 10
57.987853205748
 20
18.67882072121444
 30
0.0
  0
VERTEX
  5
2D2
  8
0
 10
57.9677378226954
 20
18.5164488595056
 30
0.0
  0
VERTEX
  5
2D3
  8
0
 10
57.94496446894001
 20
18.35442792601925
 30
0.0
  0
VERTEX
  5
2D4
  8
0
 10
57.9195444340331
 20
18.19280005460558
 30
0.0
  0
VERTEX
  5
2D5
  8
0
 10
57.89148900752488
 20
18.03160737911464
 30
0.0
  0
VERTEX
  5
2D6
  8
0
 10
57.86080947896662
 20
17.87089203339651
 30
0.0
  0
VERTEX
  5
2D7
  8
0
 10
57.82751713790864
 20
17.71069615130131
 30
0.0
  0
VERTEX
  5
2D8
  8
0
 10
57.7916232739021
 20
17.55106186667894
 30
0.0
  0
VERTEX
  5
2D9
  8
0
 10
57.75313917649757
 20
17.39203131337974
 30
0.0
  0
VERTEX
  5
2DA
  8
0
 10
57.71207613524595
 20
17.2336466252537
 30
0.0
  0
VERTEX
  5
2DB
  8
0
 10
57.66844543969793
 20
17.07594993615083
 30
0.0
  0
VERTEX
  5
2DC
  8
0
 10
57.6222583794042
 20
16.91898337992138
 30
0.0
  0
VERTEX
  5
2DD
  8
0
 10
57.57352624391567
 20
16.76278909041531
 30
0.0
  0
VERTEX
  5
2DE
  8
0
 10
57.52226032278324
 20
16.60740920148266
 30
0.0
  0
VERTEX
  5
2DF
  8
0
 10
57.46847190555749
 20
16.45288584697363
 30
0.0
  0
VERTEX
  5
2E0
  8
0
 10
57.41217228178911
 20
16.29926116073824
 30
0.0
  0
VERTEX
  5
2E1
  8
0
 10
57.35337274102923
 20
16.1465772766266
 30
0.0
  0
VERTEX
  5
2E2
  8
0
 10
57.29208457282832
 20
15.9948763284886
 30
0.0
  0
VERTEX
  5
2E3
  8
0
 10
57.22831906673716
 20
15.84420045017481
 30
0.0
  0
VERTEX
  5
2E4
  8
0
 10
57.16208751230678
 20
15.69459177553489
 30
0.0
  0
VERTEX
  5
2E5
  8
0
 10
57.09340119908765
 20
15.54609243841907
 30
0.0
  0
VERTEX
  5
2E6
  8
0
 10
57.02227141663079
 20
15.39874457267745
 30
0.0
  0
VERTEX
  5
2E7
  8
0
 10
56.94870945448687
 20
15.25259031215996
 30
0.0
  0
VERTEX
  5
2E8
  8
0
 10
56.87272660220671
 20
15.10767179071701
 30
0.0
  0
VERTEX
  5
2E9
  8
0
 10
56.79433414934087
 20
14.96403114219817
 30
0.0
  0
VERTEX
  5
2EA
  8
0
 10
56.71354338544049
 20
14.82171050045412
 30
0.0
  0
VERTEX
  5
2EB
  8
0
 10
56.63068553762193
 20
14.68058334181177
 30
0.0
  0
VERTEX
  5
2EC
  8
0
 10
56.54548537030277
 20
14.54087317971613
 30
0.0
  0
VERTEX
  5
2ED
  8
0
 10
56.4579737275204
 20
14.40261085746392
 30
0.0
  0
VERTEX
  5
2EE
  8
0
 10
56.36818145357401
 20
14.26582721880522
 30
0.0
  0
VERTEX
  5
2EF
  8
0
 10
56.2761393927627
 20
14.13055310748991
 30
0.0
  0
VERTEX
  5
2F0
  8
0
 10
56.18187838938579
 20
13.99681936726807
 30
0.0
  0
VERTEX
  5
2F1
  8
0
 10
56.08542928774281
 20
13.86465684188959
 30
0.0
  0
VERTEX
  5
2F2
  8
0
 10
55.98682293213298
 20
13.73409637510457
 30
0.0
  0
VERTEX
  5
2F3
  8
0
 10
55.8860901668555
 20
13.60516881066297
 30
0.0
  0
VERTEX
  5
2F4
  8
0
 10
55.78326183620979
 20
13.47790499231479
 30
0.0
  0
VERTEX
  5
2F5
  8
0
 10
55.67836878449506
 20
13.35233576380989
 30
0.0
  0
VERTEX
  5
2F6
  8
0
 10
55.57144185601086
 20
13.22849196889836
 30
0.0
  0
VERTEX
  5
2F7
  8
0
 10
55.46251189505617
 20
13.10640445133032
 30
0.0
  0
VERTEX
  5
2F8
  8
0
 10
55.35160974593052
 20
12.98610405485551
 30
0.0
  0
VERTEX
  5
2F9
  8
0
 10
55.23876625293312
 20
12.86762162322401
 30
0.0
  0
VERTEX
  5
2FA
  8
0
 10
55.12401226036329
 20
12.75098800018595
 30
0.0
  0
VERTEX
  5
2FB
  8
0
 10
55.00737861252034
 20
12.63623402949117
 30
0.0
  0
VERTEX
  5
2FC
  8
0
 10
54.88889615370371
 20
12.52339055488966
 30
0.0
  0
VERTEX
  5
2FD
  8
0
 10
54.76859572821238
 20
12.41248842013163
 30
0.0
  0
VERTEX
  5
2FE
  8
0
 10
54.64650818034599
 20
12.30355846896675
 30
0.0
  0
VERTEX
  5
2FF
  8
0
 10
54.52266435440376
 20
12.19663154514518
 30
0.0
  0
VERTEX
  5
300
  8
0
 10
54.39709509468489
 20
12.09173849241683
 30
0.0
  0
VERTEX
  5
301
  8
0
 10
54.26983124548869
 20
11.98891015453177
 30
0.0
  0
VERTEX
  5
302
  8
0
 10
54.1409036511146
 20
11.8881773752401
 30
0.0
  0
VERTEX
  5
303
  8
0
 10
54.01034315586182
 20
11.78957099829159
 30
0.0
  0
VERTEX
  5
304
  8
0
 10
53.87818060402967
 20
11.69312186743621
 30
0.0
  0
VERTEX
  5
305
  8
0
 10
53.74444683991757
 20
11.59886082642419
 30
0.0
  0
VERTEX
  5
306
  8
0
 10
53.60917270782474
 20
11.50681871900537
 30
0.0
  0
VERTEX
  5
307
  8
0
 10
53.47238905205037
 20
11.41702638892986
 30
0.0
  0
VERTEX
  5
308
  8
0
 10
53.33412671689402
 20
11.32951467994753
 30
0.0
  0
VERTEX
  5
309
  8
0
 10
53.19441654665476
 20
11.24431443580835
 30
0.0
  0
VERTEX
  5
30A
  8
0
 10
53.05328938563216
 20
11.16145650026209
 30
0.0
  0
VERTEX
  5
30B
  8
0
 10
52.91096874627644
 20
11.08066573609273
 30
0.0
  0
VERTEX
  5
30C
  8
0
 10
52.7673281059102
 20
11.00227328321949
 30
0.0
  0
VERTEX
  5
30D
  8
0
 10
52.62240959738003
 20
10.92629043093148
 30
0.0
  0
VERTEX
  5
30E
  8
0
 10
52.47625535398683
 20
10.85272846877973
 30
0.0
  0
VERTEX
  5
30F
  8
0
 10
52.3289075090315
 20
10.78159868631503
 30
0.0
  0
VERTEX
  5
310
  8
0
 10
52.18040819581458
 20
10.71291237308828
 30
0.0
  0
VERTEX
  5
311
  8
0
 10
52.03079954763686
 20
10.64668081864983
 30
0.0
  0
VERTEX
  5
312
  8
0
 10
51.88012369779912
 20
10.58291531255082
 30
0.0
  0
VERTEX
  5
313
  8
0
 10
51.72842277960225
 20
10.52162714434183
 30
0.0
  0
VERTEX
  5
314
  8
0
 10
51.57573892634704
 20
10.462827603574
 30
0.0
  0
VERTEX
  5
315
  8
0
 10
51.42211427133392
 20
10.40652797979766
 30
0.0
  0
VERTEX
  5
316
  8
0
 10
51.26759094786414
 20
10.35273956256384
 30
0.0
  0
VERTEX
  5
317
  8
0
 10
51.11221108923812
 20
10.30147364142323
 30
0.0
  0
VERTEX
  5
318
  8
0
 10
50.95601682875687
 20
10.25274150592663
 30
0.0
  0
VERTEX
  5
319
  8
0
 10
50.79905029972085
 20
10.20655444562481
 30
0.0
  0
VERTEX
  5
31A
  8
0
 10
50.64135363543105
 20
10.1629237500685
 30
0.0
  0
VERTEX
  5
31B
  8
0
 10
50.48296896918825
 20
10.1218607088087
 30
0.0
  0
VERTEX
  5
31C
  8
0
 10
50.32393843429313
 20
10.08337661139587
 30
0.0
  0
VERTEX
  5
31D
  8
0
 10
50.16430416404646
 20
10.04748274738103
 30
0.0
  0
VERTEX
  5
31E
  8
0
 10
50.00410829174902
 20
10.01419040631476
 30
0.0
  0
VERTEX
  5
31F
  8
0
 10
49.84339295070171
 20
9.983510877748074
 30
0.0
  0
VERTEX
  5
320
  8
0
 10
49.6822002742052
 20
9.955455451231444
 30
0.0
  0
VERTEX
  5
321
  8
0
 10
49.52057239556015
 20
9.930035416316006
 30
0.0
  0
VERTEX
  5
322
  8
0
 10
49.35855144806746
 20
9.907262062552206
 30
0.0
  0
VERTEX
  5
323
  8
0
 10
49.1961795650279
 20
9.887146679491085
 30
0.0
  0
VERTEX
  5
324
  8
0
 10
49.03349887974215
 20
9.869700556683316
 30
0.0
  0
VERTEX
  5
325
  8
0
 10
48.8705515255111
 20
9.854934983679694
 30
0.0
  0
VERTEX
  5
326
  8
0
 10
48.70737963563531
 20
9.842861250030804
 30
0.0
  0
VERTEX
  5
327
  8
0
 10
48.54402534341577
 20
9.833490645287785
 30
0.0
  0
VERTEX
  5
328
  8
0
 10
48.38053078215316
 20
9.826834459001077
 30
0.0
  0
VERTEX
  5
329
  8
0
 10
48.21693808514826
 20
9.822903980721716
 30
0.0
  0
SEQEND
  5
32A
  8
0
  0
POLYLINE
  5
45
  8
0
 66
     1
 10
0.0
 20
0.0
 30
0.0
 70
     1
  0
VERTEX
  5
32B
  8
0
 10
-13.0
 20
15.07269701306862
 30
0.0
  0
VERTEX
  5
32C
  8
0
 10
13.0
 20
15.07269701306862
 30
0.0
  0
VERTEX
  5
32D
  8
0
 10
13.0
 20
20.57269701306862
 30
0.0
  0
VERTEX
  5
32E
  8
0
 10
-13.0
 20
20.57269701306862
 30
0.0
  0
SEQEND
  5
32F
  8
0
  0
POLYLINE
  5
46
  8
0
 66
     1
 10
0.0
 20
0.0
 30
0.0
 70
     1
  0
VERTEX
  5
330
  8
0
 10
-13.0
 20
-20.33356603494809
 30
0.0
  0
VERTEX
  5
331
  8
0
 10
13.0
 20
-20.33356603494809
 30
0.0
  0
VERTEX
  5
332
  8
0
 10
13.0
 20
-14.83356603494809
 30
0.0
  0
VERTEX
  5
333
  8
0
 10
-13.0
 20
-14.83356603494809
 30
0.0
  0
SEQEND
  5
334
  8
0
  0
POLYLINE
  5
47
  8
0
 66
     1
 10
0.0
 20
0.0
 30
0.0
 70
     1
  0
VERTEX
  5
335
  8
0
 10
-7.500000000000001
 20
-25.83365734709784
 30
0.0
  0
VERTEX
  5
336
  8
0
 10
7.499999999999999
 20
-25.83365734709784
 30
0.0
  0
VERTEX
  5
337
  8
0
 10
7.499999999999999
 20
-20.33365734709784
 30
0.0
  0
VERTEX
  5
338
  8
0
 10
-7.500000000000001
 20
-20.33365734709784
 30
0.0
  0
SEQEND
  5
339
  8
0
  0
POLYLINE
  5
48
  8
0
 66
     1
 10
0.0
 20
0.0
 30
0.0
 70
     1
  0
VERTEX
  5
33A
  8
0
 10
1.487514191216756
 20
27.57644106837946
 30
0.0
 42
0.4142135623730951
  0
VERTEX
  5
33B
  8
0
 10
-2.576411385041953
 20
26.48751549212075
 30
0.0
 42
0.4142135623730951
  0
VERTEX
  5
33C
  8
0
 10
-1.487485808783247
 20
22.42358991586205
 30
0.0
 42
0.4142135623730951
  0
VERTEX
  5
33D
  8
0
 10
2.576439767475459
 20
23.51251549212075
 30
0.0
 42
0.4142135623730951
  0
SEQEND
  5
33E
  8
0
  0
POLYLINE
  5
49
  8
0
 66
     1
 10
0.0
 20
0.0
 30
0.0
 70
     1
  0
VERTEX
  5
33F
  8
0
 10
23.13814141557276
 20
-9.923594459755865
 30
0.0
 42
0.4142135623730951
  0
VERTEX
  5
340
  8
0
 10
19.07421583931406
 20
-11.01252003601457
 30
0.0
 42
0.4142135623730951
  0
VERTEX
  5
341
  8
0
 10
20.16314141557276
 20
-15.07644561227327
 30
0.0
 42
0.4142135623730951
  0
VERTEX
  5
342
  8
0
 10
24.22706699183147
 20
-13.98752003601457
 30
0.0
 42
0.4142135623730951
  0
SEQEND
  5
343
  8
0
  0
POLYLINE
  5
4A
  8
0
 66
     1
 10
0.0
 20
0.0
 30
0.0
 70
     1
  0
VERTEX
  5
344
  8
0
 10
-20.16315560678949
 20
-9.923569879847623
 30
0.0
 42
0.4142135623730951
  0
VERTEX
  5
345
  8
0
 10
-24.22708118304819
 20
-11.01249545610633
 30
0.0
 42
0.4142135623730951
  0
VERTEX
  5
346
  8
0
 10
-23.13815560678949
 20
-15.07642103236503
 30
0.0
 42
0.4142135623730951
  0
VERTEX
  5
347
  8
0
 10
-19.07423003053078
 20
-13.98749545610633
 30
0.0
 42
0.4142135623730951
  0
SEQEND
  5
348
  8
0
  0
POLYLINE
  5
4B
  8
0
 66
     1
 10
0.0
 20
0.0
 30
0.0
 70
     1
  0
VERTEX
  5
349
  8
0
 10
0.0
 20
32.5
 30
0.0
 42
0.4142135623730951
  0
VERTEX
  5
34A
  8
0
 10
-32.5
 20
0.0
 30
0.0
 42
0.4142135623730951
  0
VERTEX
  5
34B
  8
0
 10
0.0
 20
-32.5
 30
0.0
 42
0.4142135623730951
  0
VERTEX
  5
34C
  8
0
 10
32.5
 20
0.0
 30
0.0
 42
0.4142135623730951
  0
SEQEND
  5
34D
  8
0
  0
POLYLINE
  5
4C
  8
0
 66
     1
 10
0.0
 20
0.0
 30
0.0
 70
     1
  0
VERTEX
  5
34E
  8
0
 10
0.0
 20
12.5
 30
0.0
 42
0.4142135623730951
  0
VERTEX
  5
34F
  8
0
 10
-12.5
 20
0.0
 30
0.0
 42
0.4142135623730951
  0
VERTEX
  5
350
  8
0
 10
0.0
 20
-12.5
 30
0.0
 42
0.4142135623730951
  0
VERTEX
  5
351
  8
0
 10
12.5
 20
0.0
 30
0.0
 42
0.4142135623730951
  0
SEQEND
  5
352
  8
0
  0
POLYLINE
  5
4D
  8
0
 66
     1
 10
0.0
 20
0.0
 30
0.0
 70
     1
  0
VERTEX
  5
353
  8
0
 10
-67.2912852098123
 20
-7.206671470772442
 30
0.0
  0
VERTEX
  5
354
  8
0
 10
-67.2912852098123
 20
-14.17267147077246
 30
0.0
  0
VERTEX
  5
355
  8
0
 10
-67.29280083182135
 20
-14.38050528001679
 30
0.0
  0
VERTEX
  5
356
  8
0
 10
-67.29779245151013
 20
-14.5882679721958
 30
0.0
  0
VERTEX
  5
357
  8
0
 10
-67.30624573062225
 20
-14.79590603766587
 30
0.0
  0
VERTEX
  5
358
  8
0
 10
-67.31814633090067
 20
-15.00336596678334
 30
0.0
  0
VERTEX
  5
359
  8
0
 10
-67.33347991408851
 20
-15.21059424990472
 30
0.0
  0
VERTEX
  5
35A
  8
0
 10
-67.35223214192882
 20
-15.41753737738669
 30
0.0
  0
VERTEX
  5
35B
  8
0
 10
-67.3743886761652
 20
-15.6241418395855
 30
0.0
  0
VERTEX
  5
35C
  8
0
 10
-67.39993517854047
 20
-15.83035412685762
 30
0.0
  0
VERTEX
  5
35D
  8
0
 10
-67.42885731079802
 20
-16.03612072955968
 30
0.0
  0
VERTEX
  5
35E
  8
0
 10
-67.46114073468065
 20
-16.24138813804792
 30
0.0
  0
VERTEX
  5
35F
  8
0
 10
-67.49677111193198
 20
-16.4461028426789
 30
0.0
  0
VERTEX
  5
360
  8
0
 10
-67.5357341042947
 20
-16.65021133380912
 30
0.0
  0
VERTEX
  5
361
  8
0
 10
-67.57801537351251
 20
-16.85366010179507
 30
0.0
  0
VERTEX
  5
362
  8
0
 10
-67.62360058132816
 20
-17.0563956369931
 30
0.0
  0
VERTEX
  5
363
  8
0
 10
-67.67247538948509
 20
-17.25836442975969
 30
0.0
  0
VERTEX
  5
364
  8
0
 10
-67.72462545972625
 20
-17.45951297045121
 30
0.0
  0
VERTEX
  5
365
  8
0
 10
-67.78003645379492
 20
-17.65978774942448
 30
0.0
  0
VERTEX
  5
366
  8
0
 10
-67.83869403343424
 20
-17.85913525703563
 30
0.0
  0
VERTEX
  5
367
  8
0
 10
-67.90058386038747
 20
-18.05750198364115
 30
0.0
  0
VERTEX
  5
368
  8
0
 10
-67.96569159639766
 20
-18.25483441959761
 30
0.0
  0
VERTEX
  5
369
  8
0
 10
-68.03400290320796
 20
-18.4510790552614
 30
0.0
  0
VERTEX
  5
36A
  8
0
 10
-68.10550344256164
 20
-18.64618238098898
 30
0.0
  0
VERTEX
  5
36B
  8
0
 10
-68.18017887620174
 20
-18.84009088713685
 30
0.0
  0
VERTEX
  5
36C
  8
0
 10
-68.25801486587164
 20
-19.03275106406159
 30
0.0
  0
VERTEX
  5
36D
  8
0
 10
-68.33899707331437
 20
-19.22410940211943
 30
0.0
  0
VERTEX
  5
36E
  8
0
 10
-68.42311116027308
 20
-19.4141123916669
 30
0.0
  0
VERTEX
  5
36F
  8
0
 10
-68.51034278849095
 20
-19.60270652306053
 30
0.0
  0
VERTEX
  5
370
  8
0
 10
-68.60067761971133
 20
-19.78983828665673
 30
0.0
  0
VERTEX
  5
371
  8
0
 10
-68.69410131567707
 20
-19.97545417281207
 30
0.0
  0
VERTEX
  5
372
  8
0
 10
-68.7905995381314
 20
-20.15950067188282
 30
0.0
  0
VERTEX
  5
373
  8
0
 10
-68.8901579488177
 20
-20.34192427422556
 30
0.0
  0
VERTEX
  5
374
  8
0
 10
-68.99276220947905
 20
-20.52267147019666
 30
0.0
  0
VERTEX
  5
375
  8
0
 10
-69.09799175838548
 20
-20.70190304472907
 30
0.0
  0
VERTEX
  5
376
  8
0
 10
-69.20619603986852
 20
-20.87933502737781
 30
0.0
  0
VERTEX
  5
377
  8
0
 10
-69.31733588287413
 20
-21.0549282473313
 30
0.0
  0
VERTEX
  5
378
  8
0
 10
-69.4313721160161
 20
-21.22864353320325
 30
0.0
  0
VERTEX
  5
379
  8
0
 10
-69.54826556790742
 20
-21.40044171360694
 30
0.0
  0
VERTEX
  5
37A
  8
0
 10
-69.6679770671614
 20
-21.5702836171555
 30
0.0
  0
VERTEX
  5
37B
  8
0
 10
-69.7904674423916
 20
-21.73813007246225
 30
0.0
  0
VERTEX
  5
37C
  8
0
 10
-69.915697522211
 20
-21.90394190814062
 30
0.0
  0
VERTEX
  5
37D
  8
0
 10
-70.04362813523305
 20
-22.0676799528037
 30
0.0
  0
VERTEX
  5
37E
  8
0
 10
-70.17422011007095
 20
-22.22930503506507
 30
0.0
  0
VERTEX
  5
37F
  8
0
 10
-70.30743427533825
 20
-22.38877798353769
 30
0.0
  0
VERTEX
  5
380
  8
0
 10
-70.44323145964772
 20
-22.54605962683502
 30
0.0
  0
VERTEX
  5
381
  8
0
 10
-70.58157249161324
 20
-22.70111079357036
 30
0.0
  0
VERTEX
  5
382
  8
0
 10
-70.7224181998477
 20
-22.85389231235706
 30
0.0
  0
VERTEX
  5
383
  8
0
 10
-70.86572941296451
 20
-23.0043650118082
 30
0.0
  0
VERTEX
  5
384
  8
0
 10
-71.01146695957713
 20
-23.15248972053735
 30
0.0
  0
VERTEX
  5
385
  8
0
 10
-71.15959166829866
 20
-23.29822726715759
 30
0.0
  0
VERTEX
  5
386
  8
0
 10
-71.31006436774253
 20
-23.44153848028236
 30
0.0
  0
VERTEX
  5
387
  8
0
 10
-71.46284588652172
 20
-23.58238418852478
 30
0.0
  0
VERTEX
  5
388
  8
0
 10
-71.61789705324979
 20
-23.72072522049825
 30
0.0
  0
VERTEX
  5
389
  8
0
 10
-71.7751786965403
 20
-23.85652240481613
 30
0.0
  0
VERTEX
  5
38A
  8
0
 10
-71.93465164500587
 20
-23.98973657009162
 30
0.0
  0
VERTEX
  5
38B
  8
0
 10
-72.0962767272603
 20
-24.12032854493805
 30
0.0
  0
VERTEX
  5
38C
  8
0
 10
-72.26001477191669
 20
-24.24825915796861
 30
0.0
  0
VERTEX
  5
38D
  8
0
 10
-72.42582660758846
 20
-24.37348923779666
 30
0.0
  0
VERTEX
  5
38E
  8
0
 10
-72.59367306288884
 20
-24.49597961303572
 30
0.0
  0
VERTEX
  5
38F
  8
0
 10
-72.76351496643103
 20
-24.61569111229869
 30
0.0
  0
VERTEX
  5
390
  8
0
 10
-72.93531314682848
 20
-24.7325845641991
 30
0.0
  0
VERTEX
  5
391
  8
0
 10
-73.10902843269439
 20
-24.84662079735028
 30
0.0
  0
VERTEX
  5
392
  8
0
 10
-73.28462165264209
 20
-24.95776064036534
 30
0.0
  0
VERTEX
  5
393
  8
0
 10
-73.46205363528479
 20
-25.06596492185759
 30
0.0
  0
VERTEX
  5
394
  8
0
 10
-73.64128520923582
 20
-25.17119447044058
 30
0.0
  0
VERTEX
  5
395
  8
0
 10
-73.82203240577796
 20
-25.27379873144343
 30
0.0
  0
VERTEX
  5
396
  8
0
 10
-74.00445600811547
 20
-25.37335714213963
 30
0.0
  0
VERTEX
  5
397
  8
0
 10
-74.1885025071811
 20
-25.46985536460385
 30
0.0
  0
VERTEX
  5
398
  8
0
 10
-74.37411839333144
 20
-25.56327906057936
 30
0.0
  0
VERTEX
  5
399
  8
0
 10
-74.56125015692287
 20
-25.65361389180953
 30
0.0
  0
VERTEX
  5
39A
  8
0
 10
-74.74984428831196
 20
-25.7408455200374
 30
0.0
  0
VERTEX
  5
39B
  8
0
 10
-74.9398472778551
 20
-25.82495960700612
 30
0.0
  0
VERTEX
  5
39C
  8
0
 10
-75.13120561590851
 20
-25.90594181445898
 30
0.0
  0
VERTEX
  5
39D
  8
0
 10
-75.32386579282927
 20
-25.98377780413887
 30
0.0
  0
VERTEX
  5
39E
  8
0
 10
-75.51777429897315
 20
-26.05845323778919
 30
0.0
  0
VERTEX
  5
39F
  8
0
 10
-75.7128776246971
 20
-26.12995377715299
 30
0.0
  0
VERTEX
  5
3A0
  8
0
 10
-75.90912226035736
 20
-26.19826508397352
 30
0.0
  0
VERTEX
  5
3A1
  8
0
 10
-76.10645469631042
 20
-26.26337281999407
 30
0.0
  0
VERTEX
  5
3A2
  8
0
 10
-76.30482142291275
 20
-26.32526264695765
 30
0.0
  0
VERTEX
  5
3A3
  8
0
 10
-76.50416893052083
 20
-26.3839202266073
 30
0.0
  0
VERTEX
  5
3A4
  8
0
 10
-76.70444370949103
 20
-26.43933122068643
 30
0.0
  0
VERTEX
  5
3A5
  8
0
 10
-76.90559225017994
 20
-26.49148129093795
 30
0.0
  0
VERTEX
  5
3A6
  8
0
 10
-77.10756104294403
 20
-26.54035609910533
 30
0.0
  0
VERTEX
  5
3A7
  8
0
 10
-77.31029657813967
 20
-26.58594130693165
 30
0.0
  0
VERTEX
  5
3A8
  8
0
 10
-77.51374534612346
 20
-26.62822257615994
 30
0.0
  0
VERTEX
  5
3A9
  8
0
 10
-77.71785383725164
 20
-26.66718556853345
 30
0.0
  0
VERTEX
  5
3AA
  8
0
 10
-77.9225685418808
 20
-26.70281594579536
 30
0.0
  0
VERTEX
  5
3AB
  8
0
 10
-78.12783595036733
 20
-26.73509936968878
 30
0.0
  0
VERTEX
  5
3AC
  8
0
 10
-78.33360255306779
 20
-26.76402150195702
 30
0.0
  0
VERTEX
  5
3AD
  8
0
 10
-78.53981484033868
 20
-26.7895680043431
 30
0.0
  0
VERTEX
  5
3AE
  8
0
 10
-78.74641930253635
 20
-26.81172453859028
 30
0.0
  0
VERTEX
  5
3AF
  8
0
 10
-78.9533624300173
 20
-26.83047676644173
 30
0.0
  0
VERTEX
  5
3B0
  8
0
 10
-79.16059071313786
 20
-26.84581034964049
 30
0.0
  0
VERTEX
  5
3B1
  8
0
 10
-79.36805064225477
 20
-26.85771094992992
 30
0.0
  0
VERTEX
  5
3B2
  8
0
 10
-79.57568870772427
 20
-26.86616422905308
 30
0.0
  0
VERTEX
  5
3B3
  8
0
 10
-79.78345139990294
 20
-26.87115584875301
 30
0.0
  0
VERTEX
  5
3B4
  8
0
 10
-79.99128520914716
 20
-26.87267147077308
 30
0.0
  0
VERTEX
  5
3B5
  8
0
 10
-84.59128520981226
 20
-26.87267147077238
 30
0.0
  0
VERTEX
  5
3B6
  8
0
 10
-84.79911901905659
 20
-26.87115584876335
 30
0.0
  0
VERTEX
  5
3B7
  8
0
 10
-85.00688171123561
 20
-26.86616422907458
 30
0.0
  0
VERTEX
  5
3B8
  8
0
 10
-85.21451977670567
 20
-26.85771094996243
 30
0.0
  0
VERTEX
  5
3B9
  8
0
 10
-85.42197970582315
 20
-26.84581034968404
 30
0.0
  0
VERTEX
  5
3BA
  8
0
 10
-85.62920798894451
 20
-26.8304767664962
 30
0.0
  0
VERTEX
  5
3BB
  8
0
 10
-85.83615111642648
 20
-26.81172453865589
 30
0.0
  0
VERTEX
  5
3BC
  8
0
 10
-86.04275557862529
 20
-26.78956800441949
 30
0.0
  0
VERTEX
  5
3BD
  8
0
 10
-86.24896786589743
 20
-26.76402150204422
 30
0.0
  0
VERTEX
  5
3BE
  8
0
 10
-86.45473446859948
 20
-26.73509936978667
 30
0.0
  0
VERTEX
  5
3BF
  8
0
 10
-86.66000187708771
 20
-26.70281594590404
 30
0.0
  0
VERTEX
  5
3C0
  8
0
 10
-86.8647165817187
 20
-26.66718556865271
 30
0.0
  0
VERTEX
  5
3C1
  8
0
 10
-87.06882507284892
 20
-26.62822257629001
 30
0.0
  0
VERTEX
  5
3C2
  8
0
 10
-87.27227384083487
 20
-26.58594130707218
 30
0.0
  0
VERTEX
  5
3C3
  8
0
 10
-87.4750093760329
 20
-26.54035609925654
 30
0.0
  0
VERTEX
  5
3C4
  8
0
 10
-87.6769781687995
 20
-26.4914812910996
 30
0.0
  0
VERTEX
  5
3C5
  8
0
 10
-87.87812670949113
 20
-26.43933122085843
 30
0.0
  0
VERTEX
  5
3C6
  8
0
 10
-88.07840148846428
 20
-26.38392022678976
 30
0.0
  0
VERTEX
  5
3C7
  8
0
 10
-88.27774899607543
 20
-26.32526264715045
 30
0.0
  0
VERTEX
  5
3C8
  8
0
 10
-88.47611572268094
 20
-26.26337282019721
 30
0.0
  0
VERTEX
  5
3C9
  8
0
 10
-88.67344815863741
 20
-26.19826508418702
 30
0.0
  0
VERTEX
  5
3CA
  8
0
 10
-88.8696927943012
 20
-26.12995377737673
 30
0.0
  0
VERTEX
  5
3CB
  8
0
 10
-89.06479612002879
 20
-26.05845323802304
 30
0.0
  0
VERTEX
  5
3CC
  8
0
 10
-89.25870462617665
 20
-25.98377780438295
 30
0.0
  0
VERTEX
  5
3CD
  8
0
 10
-89.45136480310138
 20
-25.90594181471307
 30
0.0
  0
VERTEX
  5
3CE
  8
0
 10
-89.64272314115924
 20
-25.82495960727034
 30
0.0
  0
VERTEX
  5
3CF
  8
0
 10
-89.83272613070669
 20
-25.7408455203116
 30
0.0
  0
VERTEX
  5
3D0
  8
0
 10
-90.02132026210045
 20
-25.65361389209374
 30
0.0
  0
VERTEX
  5
3D1
  8
0
 10
-90.20845202569664
 20
-25.56327906087336
 30
0.0
  0
VERTEX
  5
3D2
  8
0
 10
-90.39406791185199
 20
-25.46985536490764
 30
0.0
  0
VERTEX
  5
3D3
  8
0
 10
-90.57811441092274
 20
-25.3733571424533
 30
0.0
  0
VERTEX
  5
3D4
  8
0
 10
-90.76053801326547
 20
-25.27379873176699
 30
0.0
  0
VERTEX
  5
3D5
  8
0
 10
-90.94128520923658
 20
-25.17119447110566
 30
0.0
  0
VERTEX
  5
3D6
  8
0
 10
-91.12051669575628
 20
-25.06596492219921
 30
0.0
  0
VERTEX
  5
3D7
  8
0
 10
-91.29794860137854
 20
-24.95776064071617
 30
0.0
  0
VERTEX
  5
3D8
  8
0
 10
-91.47354175455966
 20
-24.84662079771056
 30
0.0
  0
VERTEX
  5
3D9
  8
0
 10
-91.64725698318072
 20
-24.73258456456858
 30
0.0
  0
VERTEX
  5
3DA
  8
0
 10
-91.81905511512245
 20
-24.61569111267726
 30
0.0
  0
VERTEX
  5
3DB
  8
0
 10
-91.98889697826569
 20
-24.49597961342329
 30
0.0
  0
VERTEX
  5
3DC
  8
0
 10
-92.15674340049138
 20
-24.37348923819309
 30
0.0
  0
VERTEX
  5
3DD
  8
0
 10
-92.32255520968049
 20
-24.24825915837368
 30
0.0
  0
VERTEX
  5
3DE
  8
0
 10
-92.48629323371375
 20
-24.12032854535165
 30
0.0
  0
VERTEX
  5
3DF
  8
0
 10
-92.64791830047197
 20
-23.98973657051374
 30
0.0
  0
VERTEX
  5
3E0
  8
0
 10
-92.80739123783626
 20
-23.85652240524644
 30
0.0
  0
VERTEX
  5
3E1
  8
0
 10
-92.96467287368732
 20
-23.72072522093698
 30
0.0
  0
VERTEX
  5
3E2
  8
0
 10
-93.11972403590612
 20
-23.58238418897145
 30
0.0
  0
VERTEX
  5
3E3
  8
0
 10
-93.27250555237337
 20
-23.44153848073688
 30
0.0
  0
VERTEX
  5
3E4
  8
0
 10
-93.42297825097016
 20
-23.29822726762006
 30
0.0
  0
VERTEX
  5
3E5
  8
0
 10
-93.5711029595772
 20
-23.15248972100756
 30
0.0
  0
VERTEX
  5
3E6
  8
0
 10
-93.71684050607523
 20
-23.00436501228604
 30
0.0
  0
VERTEX
  5
3E7
  8
0
 10
-93.86015171834553
 20
-22.85389231284216
 30
0.0
  0
VERTEX
  5
3E8
  8
0
 10
-94.00099742426863
 20
-22.70111079406286
 30
0.0
  0
VERTEX
  5
3E9
  8
0
 10
-94.13933845172555
 20
-22.54605962733478
 30
0.0
  0
VERTEX
  5
3EA
  8
0
 10
-94.27513562859717
 20
-22.3887779840444
 30
0.0
  0
VERTEX
  5
3EB
  8
0
 10
-94.4083497827642
 20
-22.22930503557881
 30
0.0
  0
VERTEX
  5
3EC
  8
0
 10
-94.53894174210761
 20
-22.06767995332427
 30
0.0
  0
VERTEX
  5
3ED
  8
0
 10
-94.66687233450834
 20
-21.90394190866788
 30
0.0
  0
VERTEX
  5
3EE
  8
0
 10
-94.79210238784735
 20
-21.73813007299611
 30
0.0
  0
VERTEX
  5
3EF
  8
0
 10
-94.91459273000514
 20
-21.57028361769574
 30
0.0
  0
VERTEX
  5
3F0
  8
0
 10
-95.03430418886289
 20
-21.40044171415354
 30
0.0
  0
VERTEX
  5
3F1
  8
0
 10
-95.15119759230144
 20
-21.22864353375609
 30
0.0
  0
VERTEX
  5
3F2
  8
0
 10
-95.26523376820153
 20
-21.05492824789018
 30
0.0
  0
VERTEX
  5
3F3
  8
0
 10
-95.3763735444442
 20
-20.8793350279426
 30
0.0
  0
VERTEX
  5
3F4
  8
0
 10
-95.48457774891011
 20
-20.70190304529979
 30
0.0
  0
VERTEX
  5
3F5
  8
0
 10
-95.58980720948038
 20
-20.52267147134875
 30
0.0
  0
VERTEX
  5
3F6
  8
0
 10
-95.69241155849595
 20
-20.34192427480662
 30
0.0
  0
VERTEX
  5
3F7
  8
0
 10
-95.7919700462184
 20
-20.15950067246922
 30
0.0
  0
VERTEX
  5
3F8
  8
0
 10
-95.8884683354551
 20
-19.97545417340348
 30
0.0
  0
VERTEX
  5
3F9
  8
0
 10
-95.9818920886817
 20
-19.78983828725313
 30
0.0
  0
VERTEX
  5
3FA
  8
0
 10
-96.07222696837384
 20
-19.6027065236617
 30
0.0
  0
VERTEX
  5
3FB
  8
0
 10
-96.15945863700692
 20
-19.41411239227273
 30
0.0
  0
VERTEX
  5
3FC
  8
0
 10
-96.2435727570567
 20
-19.2241094027296
 30
0.0
  0
VERTEX
  5
3FD
  8
0
 10
-96.32455499099869
 20
-19.03275106467606
 30
0.0
  0
VERTEX
  5
3FE
  8
0
 10
-96.40239100130854
 20
-18.84009088775542
 30
0.0
  0
VERTEX
  5
3FF
  8
0
 10
-96.47706645046178
 20
-18.64618238161142
 30
0.0
  0
VERTEX
  5
400
  8
0
 10
-96.54856700093403
 20
-18.4510790558876
 30
0.0
  0
VERTEX
  5
401
  8
0
 10
-96.61687831520094
 20
-18.25483442022733
 30
0.0
  0
VERTEX
  5
402
  8
0
 10
-96.68198605573802
 20
-18.05750198427427
 30
0.0
  0
VERTEX
  5
403
  8
0
 10
-96.74387588502081
 20
-17.85913525767194
 30
0.0
  0
VERTEX
  5
404
  8
0
 10
-96.80253346552495
 20
-17.65978775006386
 30
0.0
  0
VERTEX
  5
405
  8
0
 10
-96.85794445972617
 20
-17.45951297109365
 30
0.0
  0
VERTEX
  5
406
  8
0
 10
-96.9100945300999
 20
-17.25836443040475
 30
0.0
  0
VERTEX
  5
407
  8
0
 10
-96.95896933912177
 20
-17.05639563764054
 30
0.0
  0
VERTEX
  5
408
  8
0
 10
-97.0045545492673
 20
-16.85366010244501
 30
0.0
  0
VERTEX
  5
409
  8
0
 10
-97.04683582301224
 20
-16.65021133446123
 30
0.0
  0
VERTEX
  5
40A
  8
0
 10
-97.08579882283202
 20
-16.44610284333305
 30
0.0
  0
VERTEX
  5
40B
  8
0
 10
-97.12142921120237
 20
-16.24138813870388
 30
0.0
  0
VERTEX
  5
40C
  8
0
 10
-97.15371265059882
 20
-16.03612073021736
 30
0.0
  0
VERTEX
  5
40D
  8
0
 10
-97.1826348034969
 20
-15.83035412751689
 30
0.0
  0
VERTEX
  5
40E
  8
0
 10
-97.20818133237223
 20
-15.62414184024601
 30
0.0
  0
VERTEX
  5
40F
  8
0
 10
-97.23033789970047
 20
-15.41753737804834
 30
0.0
  0
VERTEX
  5
410
  8
0
 10
-97.24909016795725
 20
-15.2105942505674
 30
0.0
  0
VERTEX
  5
411
  8
0
 10
-97.26442379961786
 20
-15.00336596744683
 30
0.0
  0
VERTEX
  5
412
  8
0
 10
-97.27632445715828
 20
-14.79590603832992
 30
0.0
  0
VERTEX
  5
413
  8
0
 10
-97.28477780305381
 20
-14.58826797286042
 30
0.0
  0
VERTEX
  5
414
  8
0
 10
-97.2897694997802
 20
-14.38050528068175
 30
0.0
  0
VERTEX
  5
415
  8
0
 10
-97.29128520981298
 20
-14.17267147143752
 30
0.0
  0
VERTEX
  5
416
  8
0
 10
-97.2912852098123
 20
-7.206671470772442
 30
0.0
  0
VERTEX
  5
417
  8
0
 10
-95.1182852098123
 20
-7.206671470772442
 30
0.0
  0
VERTEX
  5
418
  8
0
 10
-95.1182852098123
 20
-2.380671470772427
 30
0.0
  0
VERTEX
  5
419
  8
0
 10
-95.11721076840631
 20
-2.347443800853853
 30
0.0
  0
VERTEX
  5
41A
  8
0
 10
-95.11393917856314
 20
-2.314364361403932
 30
0.0
  0
VERTEX
  5
41B
  8
0
 10
-95.10850716684551
 20
-2.281570132891602
 30
0.0
  0
VERTEX
  5
41C
  8
0
 10
-95.10095145981568
 20
-2.249198095785232
 30
0.0
  0
VERTEX
  5
41D
  8
0
 10
-95.09130878403634
 20
-2.217385230553752
 30
0.0
  0
VERTEX
  5
41E
  8
0
 10
-95.07961586606989
 20
-2.186268517665894
 30
0.0
  0
VERTEX
  5
41F
  8
0
 10
-95.06590943247879
 20
-2.155984937590127
 30
0.0
  0
VERTEX
  5
420
  8
0
 10
-95.05022620982554
 20
-2.126671470795607
 30
0.0
  0
VERTEX
  5
421
  8
0
 10
-95.03268172153291
 20
-2.098432732493848
 30
0.0
  0
VERTEX
  5
422
  8
0
 10
-95.01330861606623
 20
-2.071420877027663
 30
0.0
  0
VERTEX
  5
423
  8
0
 10
-94.99220718247504
 20
-2.045736193436142
 30
0.0
  0
VERTEX
  5
424
  8
0
 10
-94.96947770982165
 20
-2.021478970781914
 30
0.0
  0
VERTEX
  5
425
  8
0
 10
-94.94522048716856
 20
-1.998749498127154
 30
0.0
  0
VERTEX
  5
426
  8
0
 10
-94.91953580357806
 20
-1.977648064534606
 30
0.0
  0
VERTEX
  5
427
  8
0
 10
-94.8925239481129
 20
-1.958274959066678
 30
0.0
  0
VERTEX
  5
428
  8
0
 10
-94.86428520983547
 20
-1.940730470785752
 30
0.0
  0
VERTEX
  5
429
  8
0
 10
-94.83497174301833
 20
-1.925047248117608
 30
0.0
  0
VERTEX
  5
42A
  8
0
 10
-94.80468816294335
 20
-1.911340814524927
 30
0.0
  0
VERTEX
  5
42B
  8
0
 10
-94.77357145005605
 20
-1.899647896556985
 30
0.0
  0
VERTEX
  5
42C
  8
0
 10
-94.74175858482504
 20
-1.890005220775834
 30
0.0
  0
VERTEX
  5
42D
  8
0
 10
-94.70938654771912
 20
-1.882449513744405
 30
0.0
  0
VERTEX
  5
42E
  8
0
 10
-94.67659231920702
 20
-1.877017502024955
 30
0.0
  0
VERTEX
  5
42F
  8
0
 10
-94.64351287975732
 20
-1.873745912180198
 30
0.0
  0
VERTEX
  5
430
  8
0
 10
-94.61028520983886
 20
-1.872671470772381
 30
0.0
  0
VERTEX
  5
431
  8
0
 10
-69.97228520981223
 20
-1.872671470772381
 30
0.0
  0
VERTEX
  5
432
  8
0
 10
-69.93905721176866
 20
-1.873745912178371
 30
0.0
  0
VERTEX
  5
433
  8
0
 10
-69.90597753794388
 20
-1.877017502021545
 30
0.0
  0
VERTEX
  5
434
  8
0
 10
-69.87318316880639
 20
-1.882449513739175
 30
0.0
  0
VERTEX
  5
435
  8
0
 10
-69.84081108482512
 20
-1.890005220769012
 30
0.0
  0
VERTEX
  5
436
  8
0
 10
-69.80899826646855
 20
-1.899647896548345
 30
0.0
  0
VERTEX
  5
437
  8
0
 10
-69.77788169420562
 20
-1.911340814514801
 30
0.0
  0
VERTEX
  5
438
  8
0
 10
-69.74759834850504
 20
-1.925047248105898
 30
0.0
  0
VERTEX
  5
439
  8
0
 10
-69.7182852098354
 20
-1.940730470759142
 30
0.0
  0
VERTEX
  5
43A
  8
0
 10
-69.69004618442436
 20
-1.958274959051778
 30
0.0
  0
VERTEX
  5
43B
  8
0
 10
-69.66303419419255
 20
-1.977648064518462
 30
0.0
  0
VERTEX
  5
43C
  8
0
 10
-69.63734949302288
 20
-1.998749498109646
 30
0.0
  0
VERTEX
  5
43D
  8
0
 10
-69.6130923348217
 20
-2.021478970763042
 30
0.0
  0
VERTEX
  5
43E
  8
0
 10
-69.59036297349512
 20
-2.045736193416133
 30
0.0
  0
VERTEX
  5
43F
  8
0
 10
-69.56926166294936
 20
-2.071420877006638
 30
0.0
  0
VERTEX
  5
440
  8
0
 10
-69.54988865709076
 20
-2.098432732471792
 30
0.0
  0
VERTEX
  5
441
  8
0
 10
-69.53234420982555
 20
-2.126671470749216
 30
0.0
  0
VERTEX
  5
442
  8
0
 10
-69.51666070004812
 20
-2.155984937566352
 30
0.0
  0
VERTEX
  5
443
  8
0
 10
-69.5029541316898
 20
-2.186268517641338
 30
0.0
  0
VERTEX
  5
444
  8
0
 10
-69.4912611961435
 20
-2.217385230528635
 30
0.0
  0
VERTEX
  5
445
  8
0
 10
-69.48161858481573
 20
-2.249198095759532
 30
0.0
  0
VERTEX
  5
446
  8
0
 10
-69.47406298911238
 20
-2.281570132865454
 30
0.0
  0
VERTEX
  5
447
  8
0
 10
-69.46863110043982
 20
-2.314364361377677
 30
0.0
  0
VERTEX
  5
448
  8
0
 10
-69.4653596102044
 20
-2.347443800827364
 30
0.0
  0
VERTEX
  5
449
  8
0
 10
-69.4642852098123
 20
-2.380671470745824
 30
0.0
  0
VERTEX
  5
44A
  8
0
 10
-69.4642852098123
 20
-7.206671470772442
 30
0.0
  0
SEQEND
  5
44B
  8
0
  0
POLYLINE
  5
4E
  8
0
 66
     1
 10
0.0
 20
0.0
 30
0.0
 70
     1
  0
VERTEX
  5
44C
  8
0
 10
-97.2912852098123
 20
8.127339529227587
 30
0.0
  0
VERTEX
  5
44D
  8
0
 10
-97.2912852098123
 20
15.0933395292276
 30
0.0
  0
VERTEX
  5
44E
  8
0
 10
-97.28976949979067
 20
15.30117333847193
 30
0.0
  0
VERTEX
  5
44F
  8
0
 10
-97.28477780307541
 20
15.50893603065095
 30
0.0
  0
VERTEX
  5
450
  8
0
 10
-97.2763244571908
 20
15.716574096121
 30
0.0
  0
VERTEX
  5
451
  8
0
 10
-97.2644237996614
 20
15.92403402523848
 30
0.0
  0
VERTEX
  5
452
  8
0
 10
-97.2490901680117
 20
16.13126230835985
 30
0.0
  0
VERTEX
  5
453
  8
0
 10
-97.23033789976584
 20
16.33820543584181
 30
0.0
  0
VERTEX
  5
454
  8
0
 10
-97.20818133244863
 20
16.54480989804063
 30
0.0
  0
VERTEX
  5
455
  8
0
 10
-97.18263480358398
 20
16.75102218531277
 30
0.0
  0
VERTEX
  5
456
  8
0
 10
-97.1537126506967
 20
16.95678878801482
 30
0.0
  0
VERTEX
  5
457
  8
0
 10
-97.12142921131105
 20
17.16205619650304
 30
0.0
  0
VERTEX
  5
458
  8
0
 10
-97.08579882295139
 20
17.36677090113404
 30
0.0
  0
VERTEX
  5
459
  8
0
 10
-97.04683582314219
 20
17.57087939226426
 30
0.0
  0
VERTEX
  5
45A
  8
0
 10
-97.00455454940793
 20
17.77432816025021
 30
0.0
  0
VERTEX
  5
45B
  8
0
 10
-96.95896933927285
 20
17.97706369544824
 30
0.0
  0
VERTEX
  5
45C
  8
0
 10
-96.91009453026156
 20
18.17903248821483
 30
0.0
  0
VERTEX
  5
45D
  8
0
 10
-96.85794445989829
 20
18.38018102890646
 30
0.0
  0
VERTEX
  5
45E
  8
0
 10
-96.80253346570753
 20
18.58045580787962
 30
0.0
  0
VERTEX
  5
45F
  8
0
 10
-96.74387588521374
 20
18.77980331549077
 30
0.0
  0
VERTEX
  5
460
  8
0
 10
-96.68198605594118
 20
18.97817004209629
 30
0.0
  0
VERTEX
  5
461
  8
0
 10
-96.61687831541433
 20
19.17550247805275
 30
0.0
  0
VERTEX
  5
462
  8
0
 10
-96.54856700115776
 20
19.37174711371654
 30
0.0
  0
VERTEX
  5
463
  8
0
 10
-96.47706645069563
 20
19.56685043944412
 30
0.0
  0
VERTEX
  5
464
  8
0
 10
-96.40239100155263
 20
19.76075894559199
 30
0.0
  0
VERTEX
  5
465
  8
0
 10
-96.32455499125278
 20
19.95341912251671
 30
0.0
  0
VERTEX
  5
466
  8
0
 10
-96.24357275732079
 20
20.14477746057457
 30
0.0
  0
VERTEX
  5
467
  8
0
 10
-96.15945863728102
 20
20.33478045012203
 30
0.0
  0
VERTEX
  5
468
  8
0
 10
-96.07222696865783
 20
20.52337458151579
 30
0.0
  0
VERTEX
  5
469
  8
0
 10
-95.9818920889757
 20
20.71050634511197
 30
0.0
  0
VERTEX
  5
46A
  8
0
 10
-95.88846833575899
 20
20.89612223126733
 30
0.0
  0
VERTEX
  5
46B
  8
0
 10
-95.79197004653206
 20
21.08016873033807
 30
0.0
  0
VERTEX
  5
46C
  8
0
 10
-95.6924115588195
 20
21.26259233268082
 30
0.0
  0
VERTEX
  5
46D
  8
0
 10
-95.58980721014545
 20
21.4433395286519
 30
0.0
  0
VERTEX
  5
46E
  8
0
 10
-95.48457774925173
 20
21.62257101517162
 30
0.0
  0
VERTEX
  5
46F
  8
0
 10
-95.37637354479516
 20
21.80000292079388
 30
0.0
  0
VERTEX
  5
470
  8
0
 10
-95.26523376856191
 20
21.975596073975
 30
0.0
  0
VERTEX
  5
471
  8
0
 10
-95.15119759267093
 20
22.14931130259607
 30
0.0
  0
VERTEX
  5
472
  8
0
 10
-95.03430418924147
 20
22.32110943453779
 30
0.0
  0
VERTEX
  5
473
  8
0
 10
-94.91459273039271
 20
22.49095129768103
 30
0.0
  0
VERTEX
  5
474
  8
0
 10
-94.79210238824366
 20
22.65879771990672
 30
0.0
  0
VERTEX
  5
475
  8
0
 10
-94.66687233491352
 20
22.82460952909582
 30
0.0
  0
VERTEX
  5
476
  8
0
 10
-94.53894174252132
 20
22.98834755312907
 30
0.0
  0
VERTEX
  5
477
  8
0
 10
-94.40834978318632
 20
23.14997261988731
 30
0.0
  0
VERTEX
  5
478
  8
0
 10
-94.27513562902759
 20
23.30944555725159
 30
0.0
  0
VERTEX
  5
479
  8
0
 10
-94.13933845216427
 20
23.46672719310266
 30
0.0
  0
VERTEX
  5
47A
  8
0
 10
-94.0009974247153
 20
23.62177835532145
 30
0.0
  0
VERTEX
  5
47B
  8
0
 10
-93.86015171880017
 20
23.77455987178871
 30
0.0
  0
VERTEX
  5
47C
  8
0
 10
-93.71684050653782
 20
23.9250325703855
 30
0.0
  0
VERTEX
  5
47D
  8
0
 10
-93.57110296004731
 20
24.07315727899254
 30
0.0
  0
VERTEX
  5
47E
  8
0
 10
-93.42297825144787
 20
24.21889482549057
 30
0.0
  0
VERTEX
  5
47F
  8
0
 10
-93.27250555285859
 20
24.36220603776087
 30
0.0
  0
VERTEX
  5
480
  8
0
 10
-93.11972403639862
 20
24.50305174368395
 30
0.0
  0
VERTEX
  5
481
  8
0
 10
-92.96467287418709
 20
24.64139277114089
 30
0.0
  0
VERTEX
  5
482
  8
0
 10
-92.80739123834307
 20
24.77718994801251
 30
0.0
  0
VERTEX
  5
483
  8
0
 10
-92.64791830098572
 20
24.91040410217954
 30
0.0
  0
VERTEX
  5
484
  8
0
 10
-92.48629323423431
 20
25.04099606152295
 30
0.0
  0
VERTEX
  5
485
  8
0
 10
-92.32255521020777
 20
25.16892665392368
 30
0.0
  0
VERTEX
  5
486
  8
0
 10
-92.15674340102525
 20
25.29415670726269
 30
0.0
  0
VERTEX
  5
487
  8
0
 10
-91.98889697880593
 20
25.41664704942048
 30
0.0
  0
VERTEX
  5
488
  8
0
 10
-91.81905511566906
 20
25.53635850827823
 30
0.0
  0
VERTEX
  5
489
  8
0
 10
-91.64725698373347
 20
25.65325191171678
 30
0.0
  0
VERTEX
  5
48A
  8
0
 10
-91.47354175511855
 20
25.76728808761686
 30
0.0
  0
VERTEX
  5
48B
  8
0
 10
-91.29794860194345
 20
25.87842786385954
 30
0.0
  0
VERTEX
  5
48C
  8
0
 10
-91.12051669632699
 20
25.98663206832543
 30
0.0
  0
VERTEX
  5
48D
  8
0
 10
-90.94128521038867
 20
26.09186152889572
 30
0.0
  0
VERTEX
  5
48E
  8
0
 10
-90.76053801384653
 20
26.19446587791128
 30
0.0
  0
VERTEX
  5
48F
  8
0
 10
-90.57811441150902
 20
26.29402436563373
 30
0.0
  0
VERTEX
  5
490
  8
0
 10
-90.39406791244339
 20
26.39052265487044
 30
0.0
  0
VERTEX
  5
491
  8
0
 10
-90.20845202629305
 20
26.48394640809704
 30
0.0
  0
VERTEX
  5
492
  8
0
 10
-90.02132026270162
 20
26.57428128778918
 30
0.0
  0
VERTEX
  5
493
  8
0
 10
-89.83272613131253
 20
26.66151295642226
 30
0.0
  0
VERTEX
  5
494
  8
0
 10
-89.6427231417694
 20
26.74562707647203
 30
0.0
  0
VERTEX
  5
495
  8
0
 10
-89.45136480371598
 20
26.82660931041403
 30
0.0
  0
VERTEX
  5
496
  8
0
 10
-89.25870462679522
 20
26.90444532072388
 30
0.0
  0
VERTEX
  5
497
  8
0
 10
-89.06479612065134
 20
26.97912076987711
 30
0.0
  0
VERTEX
  5
498
  8
0
 10
-88.86969279492739
 20
27.05062132034936
 30
0.0
  0
VERTEX
  5
499
  8
0
 10
-88.67344815926712
 20
27.11893263461627
 30
0.0
  0
VERTEX
  5
49A
  8
0
 10
-88.47611572331407
 20
27.18404037515336
 30
0.0
  0
VERTEX
  5
49B
  8
0
 10
-88.27774899671174
 20
27.24593020443615
 30
0.0
  0
VERTEX
  5
49C
  8
0
 10
-88.07840148910365
 20
27.30458778494028
 30
0.0
  0
VERTEX
  5
49D
  8
0
 10
-87.87812671013346
 20
27.35999877914151
 30
0.0
  0
VERTEX
  5
49E
  8
0
 10
-87.67697816944455
 20
27.41214884951523
 30
0.0
  0
VERTEX
  5
49F
  8
0
 10
-87.47500937668046
 20
27.46102365853699
 30
0.0
  0
VERTEX
  5
4A0
  8
0
 10
-87.27227384148482
 20
27.50660886868263
 30
0.0
  0
VERTEX
  5
4A1
  8
0
 10
-87.06882507350103
 20
27.54889014242758
 30
0.0
  0
VERTEX
  5
4A2
  8
0
 10
-86.86471658237285
 20
27.58785314224735
 30
0.0
  0
VERTEX
  5
4A3
  8
0
 10
-86.66000187774368
 20
27.6234835306177
 30
0.0
  0
VERTEX
  5
4A4
  8
0
 10
-86.45473446925716
 20
27.65576697001404
 30
0.0
  0
VERTEX
  5
4A5
  8
0
 10
-86.2489678665567
 20
27.68468912291223
 30
0.0
  0
VERTEX
  5
4A6
  8
0
 10
-86.04275557928581
 20
27.71023565178757
 30
0.0
  0
VERTEX
  5
4A7
  8
0
 10
-85.83615111708814
 20
27.7323922191157
 30
0.0
  0
VERTEX
  5
4A8
  8
0
 10
-85.6292079896072
 20
27.75114448737247
 30
0.0
  0
VERTEX
  5
4A9
  8
0
 10
-85.42197970648662
 20
27.7664781190332
 30
0.0
  0
VERTEX
  5
4AA
  8
0
 10
-85.21451977736972
 20
27.7783787765735
 30
0.0
  0
VERTEX
  5
4AB
  8
0
 10
-85.00688171190022
 20
27.78683212246904
 30
0.0
  0
VERTEX
  5
4AC
  8
0
 10
-84.79911901972154
 20
27.79182381919543
 30
0.0
  0
VERTEX
  5
4AD
  8
0
 10
-84.59128521047732
 20
27.79333952922821
 30
0.0
  0
VERTEX
  5
4AE
  8
0
 10
-79.99128520981223
 20
27.79333952922752
 30
0.0
  0
VERTEX
  5
4AF
  8
0
 10
-79.7834514005679
 20
27.79182381920589
 30
0.0
  0
VERTEX
  5
4B0
  8
0
 10
-79.57568870838888
 20
27.78683212249064
 30
0.0
  0
VERTEX
  5
4B1
  8
0
 10
-79.36805064291882
 20
27.77837877660613
 30
0.0
  0
VERTEX
  5
4B2
  8
0
 10
-79.16059071380134
 20
27.76647811907674
 30
0.0
  0
VERTEX
  5
4B3
  8
0
 10
-78.95336243067997
 20
27.75114448742704
 30
0.0
  0
VERTEX
  5
4B4
  8
0
 10
-78.74641930319801
 20
27.73239221918118
 30
0.0
  0
VERTEX
  5
4B5
  8
0
 10
-78.5398148409992
 20
27.71023565186385
 30
0.0
  0
VERTEX
  5
4B6
  8
0
 10
-78.33360255372706
 20
27.68468912299932
 30
0.0
  0
VERTEX
  5
4B7
  8
0
 10
-78.127835951025
 20
27.65576697011204
 30
0.0
  0
VERTEX
  5
4B8
  8
0
 10
-77.92256854253678
 20
27.62348353072639
 30
0.0
  0
VERTEX
  5
4B9
  8
0
 10
-77.71785383790579
 20
27.58785314236673
 30
0.0
  0
VERTEX
  5
4BA
  8
0
 10
-77.51374534677556
 20
27.54889014255752
 30
0.0
  0
VERTEX
  5
4BB
  8
0
 10
-77.31029657878962
 20
27.50660886882315
 30
0.0
  0
VERTEX
  5
4BC
  8
0
 10
-77.10756104359159
 20
27.46102365868819
 30
0.0
  0
VERTEX
  5
4BD
  8
0
 10
-76.905592250825
 20
27.4121488496769
 30
0.0
  0
VERTEX
  5
4BE
  8
0
 10
-76.70444371013336
 20
27.35999877931363
 30
0.0
  0
VERTEX
  5
4BF
  8
0
 10
-76.50416893116021
 20
27.30458778512286
 30
0.0
  0
VERTEX
  5
4C0
  8
0
 10
-76.30482142354906
 20
27.24593020462908
 30
0.0
  0
VERTEX
  5
4C1
  8
0
 10
-76.10645469694354
 20
27.18404037535652
 30
0.0
  0
VERTEX
  5
4C2
  8
0
 10
-75.90912226098708
 20
27.11893263482966
 30
0.0
  0
VERTEX
  5
4C3
  8
0
 10
-75.71287762532329
 20
27.0506213205731
 30
0.0
  0
VERTEX
  5
4C4
  8
0
 10
-75.5177742995957
 20
26.97912077011097
 30
0.0
  0
VERTEX
  5
4C5
  8
0
 10
-75.32386579344784
 20
26.90444532096797
 30
0.0
  0
VERTEX
  5
4C6
  8
0
 10
-75.1312056165231
 20
26.82660931066812
 30
0.0
  0
VERTEX
  5
4C7
  8
0
 10
-74.93984727846525
 20
26.74562707673613
 30
0.0
  0
VERTEX
  5
4C8
  8
0
 10
-74.7498442889178
 20
26.66151295669636
 30
0.0
  0
VERTEX
  5
4C9
  8
0
 10
-74.56125015752404
 20
26.57428128807317
 30
0.0
  0
VERTEX
  5
4CA
  8
0
 10
-74.37411839392784
 20
26.48394640839103
 30
0.0
  0
VERTEX
  5
4CB
  8
0
 10
-74.1885025077725
 20
26.39052265517432
 30
0.0
  0
VERTEX
  5
4CC
  8
0
 10
-74.00445600870175
 20
26.29402436594739
 30
0.0
  0
VERTEX
  5
4CD
  8
0
 10
-73.82203240635901
 20
26.19446587823484
 30
0.0
  0
VERTEX
  5
4CE
  8
0
 10
-73.64128521038792
 20
26.09186152956079
 30
0.0
  0
VERTEX
  5
4CF
  8
0
 10
-73.4620536358555
 20
25.98663206866706
 30
0.0
  0
VERTEX
  5
4D0
  8
0
 10
-73.28462165320688
 20
25.87842786421049
 30
0.0
  0
VERTEX
  5
4D1
  8
0
 10
-73.10902843325327
 20
25.76728808797725
 30
0.0
  0
VERTEX
  5
4D2
  8
0
 10
-72.93531314738134
 20
25.65325191208626
 30
0.0
  0
VERTEX
  5
4D3
  8
0
 10
-72.76351496697775
 20
25.5363585086568
 30
0.0
  0
VERTEX
  5
4D4
  8
0
 10
-72.5936730634292
 20
25.41664704980803
 30
0.0
  0
VERTEX
  5
4D5
  8
0
 10
-72.42582660812234
 20
25.294156707659
 30
0.0
  0
VERTEX
  5
4D6
  8
0
 10
-72.26001477244408
 20
25.16892665432886
 30
0.0
  0
VERTEX
  5
4D7
  8
0
 10
-72.09627672778088
 20
25.04099606193665
 30
0.0
  0
VERTEX
  5
4D8
  8
0
 10
-71.93465164551962
 20
24.91040410260166
 30
0.0
  0
VERTEX
  5
4D9
  8
0
 10
-71.775178697047
 20
24.77718994844292
 30
0.0
  0
VERTEX
  5
4DA
  8
0
 10
-71.61789705374967
 20
24.6413927715796
 30
0.0
  0
VERTEX
  5
4DB
  8
0
 10
-71.46284588701432
 20
24.50305174413063
 30
0.0
  0
VERTEX
  5
4DC
  8
0
 10
-71.31006436822763
 20
24.3622060382155
 30
0.0
  0
VERTEX
  5
4DD
  8
0
 10
-71.15959166877649
 20
24.21889482595316
 30
0.0
  0
VERTEX
  5
4DE
  8
0
 10
-71.01146696004734
 20
24.07315727946263
 30
0.0
  0
VERTEX
  5
4DF
  8
0
 10
-70.8657294134271
 20
23.92503257086321
 30
0.0
  0
VERTEX
  5
4E0
  8
0
 10
-70.72241820030233
 20
23.77455987227393
 30
0.0
  0
VERTEX
  5
4E1
  8
0
 10
-70.58157249205992
 20
23.62177835581394
 30
0.0
  0
VERTEX
  5
4E2
  8
0
 10
-70.44323146008644
 20
23.46672719360242
 30
0.0
  0
VERTEX
  5
4E3
  8
0
 10
-70.30743427576856
 20
23.30944555775841
 30
0.0
  0
VERTEX
  5
4E4
  8
0
 10
-70.17422011049307
 20
23.14997262040106
 30
0.0
  0
VERTEX
  5
4E5
  8
0
 10
-70.04362813564664
 20
22.98834755364965
 30
0.0
  0
VERTEX
  5
4E6
  8
0
 10
-69.91569752261607
 20
22.8246095296231
 30
0.0
  0
VERTEX
  5
4E7
  8
0
 10
-69.79046744278803
 20
22.65879772044059
 30
0.0
  0
VERTEX
  5
4E8
  8
0
 10
-69.66797706754896
 20
22.49095129822127
 30
0.0
  0
VERTEX
  5
4E9
  8
0
 10
-69.548265568286
 20
22.3211094350844
 30
0.0
  0
VERTEX
  5
4EA
  8
0
 10
-69.4313721163856
 20
22.14931130314881
 30
0.0
  0
VERTEX
  5
4EB
  8
0
 10
-69.3173358832344
 20
21.97559607453389
 30
0.0
  0
VERTEX
  5
4EC
  8
0
 10
-69.20619604021935
 20
21.80000292135879
 30
0.0
  0
VERTEX
  5
4ED
  8
0
 10
-69.0979917587271
 20
21.62257101574232
 30
0.0
  0
VERTEX
  5
4EE
  8
0
 10
-68.99276221014411
 20
21.44333952980401
 30
0.0
  0
VERTEX
  5
4EF
  8
0
 10
-68.89015794914125
 20
21.26259233326186
 30
0.0
  0
VERTEX
  5
4F0
  8
0
 10
-68.79059953844505
 20
21.08016873092436
 30
0.0
  0
VERTEX
  5
4F1
  8
0
 10
-68.69410131598083
 20
20.89612223185873
 30
0.0
  0
VERTEX
  5
4F2
  8
0
 10
-68.60067762000534
 20
20.71050634570839
 30
0.0
  0
VERTEX
  5
4F3
  8
0
 10
-68.51034278877516
 20
20.52337458211696
 30
0.0
  0
VERTEX
  5
4F4
  8
0
 10
-68.4231111605473
 20
20.33478045072787
 30
0.0
  0
VERTEX
  5
4F5
  8
0
 10
-68.33899707357858
 20
20.14477746118474
 30
0.0
  0
VERTEX
  5
4F6
  8
0
 10
-68.25801486612573
 20
19.95341912313132
 30
0.0
  0
VERTEX
  5
4F7
  8
0
 10
-68.18017887644582
 20
19.76075894621056
 30
0.0
  0
VERTEX
  5
4F8
  8
0
 10
-68.1055034427955
 20
19.56685044006667
 30
0.0
  0
VERTEX
  5
4F9
  8
0
 10
-68.03400290343171
 20
19.37174711434272
 30
0.0
  0
VERTEX
  5
4FA
  8
0
 10
-67.96569159661117
 20
19.17550247868247
 30
0.0
  0
VERTEX
  5
4FB
  8
0
 10
-67.90058386059064
 20
18.97817004272941
 30
0.0
  0
VERTEX
  5
4FC
  8
0
 10
-67.83869403362706
 20
18.77980331612708
 30
0.0
  0
VERTEX
  5
4FD
  8
0
 10
-67.7800364539774
 20
18.580455808519
 30
0.0
  0
VERTEX
  5
4FE
  8
0
 10
-67.72462545989826
 20
18.38018102954879
 30
0.0
  0
VERTEX
  5
4FF
  8
0
 10
-67.67247538964676
 20
18.17903248885989
 30
0.0
  0
VERTEX
  5
500
  8
0
 10
-67.62360058147935
 20
17.9770636960958
 30
0.0
  0
VERTEX
  5
501
  8
0
 10
-67.57801537365303
 20
17.77432816090015
 30
0.0
  0
VERTEX
  5
502
  8
0
 10
-67.53573410442475
 20
17.57087939291637
 30
0.0
  0
VERTEX
  5
503
  8
0
 10
-67.49677111205123
 20
17.36677090178819
 30
0.0
  0
VERTEX
  5
504
  8
0
 10
-67.46114073478935
 20
17.16205619715902
 30
0.0
  0
VERTEX
  5
505
  8
0
 10
-67.4288573108959
 20
16.9567887886725
 30
0.0
  0
VERTEX
  5
506
  8
0
 10
-67.39993517862767
 20
16.75102218597204
 30
0.0
  0
VERTEX
  5
507
  8
0
 10
-67.3743886762416
 20
16.54480989870115
 30
0.0
  0
VERTEX
  5
508
  8
0
 10
-67.3522321419944
 20
16.33820543650348
 30
0.0
  0
VERTEX
  5
509
  8
0
 10
-67.33347991414296
 20
16.13126230902254
 30
0.0
  0
VERTEX
  5
50A
  8
0
 10
-67.3181463309442
 20
15.92403402590196
 30
0.0
  0
VERTEX
  5
50B
  8
0
 10
-67.30624573065477
 20
15.71657409678506
 30
0.0
  0
VERTEX
  5
50C
  8
0
 10
-67.2977924515316
 20
15.50893603131556
 30
0.0
  0
VERTEX
  5
50D
  8
0
 10
-67.29280083183168
 20
15.30117333913688
 30
0.0
  0
VERTEX
  5
50E
  8
0
 10
-67.29128520981163
 20
15.09333952989266
 30
0.0
  0
VERTEX
  5
50F
  8
0
 10
-67.2912852098123
 20
8.127339529227587
 30
0.0
  0
VERTEX
  5
510
  8
0
 10
-69.4642852098123
 20
8.127339529227587
 30
0.0
  0
VERTEX
  5
511
  8
0
 10
-69.4642852098123
 20
3.301339529227565
 30
0.0
  0
VERTEX
  5
512
  8
0
 10
-69.4653596102027
 20
3.268111531183987
 30
0.0
  0
VERTEX
  5
513
  8
0
 10
-69.46863110043641
 20
3.235031857359214
 30
0.0
  0
VERTEX
  5
514
  8
0
 10
-69.47406298910725
 20
3.202237488221726
 30
0.0
  0
VERTEX
  5
515
  8
0
 10
-69.48161858480881
 20
3.169865404240454
 30
0.0
  0
VERTEX
  5
516
  8
0
 10
-69.49126119613508
 20
3.138052585883887
 30
0.0
  0
VERTEX
  5
517
  8
0
 10
-69.50295413167957
 20
3.106936013620956
 30
0.0
  0
VERTEX
  5
518
  8
0
 10
-69.5166607000363
 20
3.076652667920374
 30
0.0
  0
VERTEX
  5
519
  8
0
 10
-69.53234420979895
 20
3.047339529250735
 30
0.0
  0
VERTEX
  5
51A
  8
0
 10
-69.54988865707598
 20
3.019100503839695
 30
0.0
  0
VERTEX
  5
51B
  8
0
 10
-69.56926166293322
 20
2.992088513607886
 30
0.0
  0
VERTEX
  5
51C
  8
0
 10
-69.5903629734775
 20
2.966403812438216
 30
0.0
  0
VERTEX
  5
51D
  8
0
 10
-69.61309233480283
 20
2.942146654237035
 30
0.0
  0
VERTEX
  5
51E
  8
0
 10
-69.63734949300276
 20
2.919417292910456
 30
0.0
  0
VERTEX
  5
51F
  8
0
 10
-69.6630341941714
 20
2.898315982364696
 30
0.0
  0
VERTEX
  5
520
  8
0
 10
-69.6900461844023
 20
2.878942976506096
 30
0.0
  0
VERTEX
  5
521
  8
0
 10
-69.71828520978902
 20
2.861398529240887
 30
0.0
  0
VERTEX
  5
522
  8
0
 10
-69.74759834848116
 20
2.845715019463455
 30
0.0
  0
VERTEX
  5
523
  8
0
 10
-69.77788169418106
 20
2.832008451105136
 30
0.0
  0
VERTEX
  5
524
  8
0
 10
-69.80899826644342
 20
2.820315515558836
 30
0.0
  0
VERTEX
  5
525
  8
0
 10
-69.84081108479943
 20
2.810672904230955
 30
0.0
  0
VERTEX
  5
526
  8
0
 10
-69.87318316878036
 20
2.803117308527586
 30
0.0
  0
VERTEX
  5
527
  8
0
 10
-69.90597753791751
 20
2.797685419855156
 30
0.0
  0
VERTEX
  5
528
  8
0
 10
-69.93905721174217
 20
2.794413929619626
 30
0.0
  0
VERTEX
  5
529
  8
0
 10
-69.97228520978562
 20
2.793339529227527
 30
0.0
  0
VERTEX
  5
52A
  8
0
 10
-94.61028520981226
 20
2.793339529227527
 30
0.0
  0
VERTEX
  5
52B
  8
0
 10
-94.64351287973084
 20
2.794413929617917
 30
0.0
  0
VERTEX
  5
52C
  8
0
 10
-94.67659231918064
 20
2.797685419851636
 30
0.0
  0
VERTEX
  5
52D
  8
0
 10
-94.70938654769309
 20
2.803117308522477
 30
0.0
  0
VERTEX
  5
52E
  8
0
 10
-94.74175858479946
 20
2.810672904224134
 30
0.0
  0
VERTEX
  5
52F
  8
0
 10
-94.77357145003093
 20
2.820315515550416
 30
0.0
  0
VERTEX
  5
530
  8
0
 10
-94.8046881629188
 20
2.832008451094907
 30
0.0
  0
VERTEX
  5
531
  8
0
 10
-94.83497174299458
 20
2.845715019451635
 30
0.0
  0
VERTEX
  5
532
  8
0
 10
-94.8642852097891
 20
2.861398529214284
 30
0.0
  0
VERTEX
  5
533
  8
0
 10
-94.89252394809073
 20
2.878942976491317
 30
0.0
  0
VERTEX
  5
534
  8
0
 10
-94.91953580355703
 20
2.898315982348546
 30
0.0
  0
VERTEX
  5
535
  8
0
 10
-94.94522048714843
 20
2.919417292892835
 30
0.0
  0
VERTEX
  5
536
  8
0
 10
-94.96947770980277
 20
2.942146654218167
 30
0.0
  0
VERTEX
  5
537
  8
0
 10
-94.99220718245753
 20
2.966403812418097
 30
0.0
  0
VERTEX
  5
538
  8
0
 10
-95.01330861605008
 20
2.992088513586737
 30
0.0
  0
VERTEX
  5
539
  8
0
 10
-95.03268172151802
 20
3.019100503817636
 30
0.0
  0
VERTEX
  5
53A
  8
0
 10
-95.05022620979894
 20
3.047339529204347
 30
0.0
  0
VERTEX
  5
53B
  8
0
 10
-95.06590943246708
 20
3.076652667896496
 30
0.0
  0
VERTEX
  5
53C
  8
0
 10
-95.07961586605978
 20
3.106936013596396
 30
0.0
  0
VERTEX
  5
53D
  8
0
 10
-95.0913087840277
 20
3.138052585858755
 30
0.0
  0
VERTEX
  5
53E
  8
0
 10
-95.10095145980885
 20
3.169865404214764
 30
0.0
  0
VERTEX
  5
53F
  8
0
 10
-95.10850716684028
 20
3.202237488195696
 30
0.0
  0
VERTEX
  5
540
  8
0
 10
-95.11393917855973
 20
3.235031857332846
 30
0.0
  0
VERTEX
  5
541
  8
0
 10
-95.11721076840449
 20
3.268111531157505
 30
0.0
  0
VERTEX
  5
542
  8
0
 10
-95.1182852098123
 20
3.301339529200956
 30
0.0
  0
VERTEX
  5
543
  8
0
 10
-95.1182852098123
 20
8.127339529227587
 30
0.0
  0
SEQEND
  5
544
  8
0
  0
POLYLINE
  5
4F
  8
0
 66
     1
 10
0.0
 20
0.0
 30
0.0
 70
     1
  0
VERTEX
  5
545
  8
0
 10
-88.6412847098123
 20
8.023352529227587
 30
0.0
  0
VERTEX
  5
546
  8
0
 10
-75.9412847098123
 20
8.023352529227587
 30
0.0
  0
VERTEX
  5
547
  8
0
 10
-75.9412847098123
 20
20.72335252922759
 30
0.0
  0
VERTEX
  5
548
  8
0
 10
-88.6412847098123
 20
20.72335252922759
 30
0.0
  0
SEQEND
  5
549
  8
0
  0
POLYLINE
  5
50
  8
0
 66
     1
 10
0.0
 20
0.0
 30
0.0
 70
     1
  0
VERTEX
  5
54A
  8
0
 10
-88.64128470981231
 20
-19.80268547077245
 30
0.0
  0
VERTEX
  5
54B
  8
0
 10
-75.94128470981231
 20
-19.80268547077245
 30
0.0
  0
VERTEX
  5
54C
  8
0
 10
-75.94128470981231
 20
-7.102685470772453
 30
0.0
  0
VERTEX
  5
54D
  8
0
 10
-88.64128470981231
 20
-7.102685470772453
 30
0.0
  0
SEQEND
  5
54E
  8
0
  0
ENDSEC
  0
EOF
