  0
SECTION
  2
HEADER
  9
$ACADVER
  1
AC1009
  9
$DWGCODEPAGE
  3
ansi_1252
  9
$INSBASE
 10
0.0
 20
0.0
 30
0.0
  9
$EXTMIN
 10
-132.897
 20
-32.50003329064151
 30
0.0
  9
$EXTMAX
 10
125.3973031613595
 20
32.50003352366259
 30
0.0
  9
$LIMMIN
 10
0.0
 20
0.0
  9
$LIMMAX
 10
12.0
 20
9.0
  9
$ORTHOMODE
 70
     0
  9
$REGENMODE
 70
     1
  9
$FILLMODE
 70
     1
  9
$QTEXTMODE
 70
     0
  9
$MIRRTEXT
 70
     1
  9
$DRAGMODE
 70
     2
  9
$LTSCALE
 40
1.0
  9
$OSMODE
 70
    37
  9
$ATTMODE
 70
     1
  9
$TEXTSIZE
 40
0.2
  9
$TRACEWID
 40
0.05
  9
$TEXTSTYLE
  7
STANDARD
  9
$CLAYER
  8
0
  9
$CELTYPE
  6
BYLAYER
  9
$CECOLOR
 62
   256
  9
$DIMSCALE
 40
1.0
  9
$DIMASZ
 40
0.18
  9
$DIMEXO
 40
0.0625
  9
$DIMDLI
 40
0.38
  9
$DIMRND
 40
0.0
  9
$DIMDLE
 40
0.0
  9
$DIMEXE
 40
0.18
  9
$DIMTP
 40
0.0
  9
$DIMTM
 40
0.0
  9
$DIMTXT
 40
0.18
  9
$DIMCEN
 40
0.09
  9
$DIMTSZ
 40
0.0
  9
$DIMTOL
 70
     0
  9
$DIMLIM
 70
     0
  9
$DIMTIH
 70
     1
  9
$DIMTOH
 70
     1
  9
$DIMSE1
 70
     0
  9
$DIMSE2
 70
     0
  9
$DIMTAD
 70
     0
  9
$DIMZIN
 70
     0
  9
$DIMBLK
  1

  9
$DIMASO
 70
     1
  9
$DIMSHO
 70
     1
  9
$DIMPOST
  1

  9
$DIMAPOST
  1

  9
$DIMALT
 70
     0
  9
$DIMALTD
 70
     2
  9
$DIMALTF
 40
25.4
  9
$DIMLFAC
 40
1.0
  9
$DIMTOFL
 70
     0
  9
$DIMTVP
 40
0.0
  9
$DIMTIX
 70
     0
  9
$DIMSOXD
 70
     0
  9
$DIMSAH
 70
     0
  9
$DIMBLK1
  1

  9
$DIMBLK2
  1

  9
$DIMSTYLE
  2
STANDARD
  9
$DIMCLRD
 70
     0
  9
$DIMCLRE
 70
     0
  9
$DIMCLRT
 70
     0
  9
$DIMTFAC
 40
1.0
  9
$DIMGAP
 40
0.09
  9
$LUNITS
 70
     2
  9
$LUPREC
 70
     4
  9
$SKETCHINC
 40
0.1
  9
$FILLETRAD
 40
0.5
  9
$AUNITS
 70
     0
  9
$AUPREC
 70
     0
  9
$MENU
  1
.
  9
$ELEVATION
 40
0.0
  9
$PELEVATION
 40
0.0
  9
$THICKNESS
 40
0.0
  9
$LIMCHECK
 70
     0
  9
$CHAMFERA
 40
0.5
  9
$CHAMFERB
 40
0.5
  9
$SKPOLY
 70
     0
  9
$TDCREATE
 40
2454910.5
  9
$TDUPDATE
 40
2457663.875349583
  9
$TDINDWG
 40
0.0000000116
  9
$TDUSRTIMER
 40
0.0000000116
  9
$USRTIMER
 70
     1
  9
$ANGBASE
 50
0.0
  9
$ANGDIR
 70
     0
  9
$PDMODE
 70
     0
  9
$PDSIZE
 40
0.0
  9
$PLINEWID
 40
0.0
  9
$COORDS
 70
     1
  9
$SPLFRAME
 70
     0
  9
$SPLINETYPE
 70
     6
  9
$SPLINESEGS
 70
     8
  9
$ATTDIA
 70
     0
  9
$ATTREQ
 70
     1
  9
$HANDLING
 70
     1
  9
$HANDSEED
  5
1C0
  9
$SURFTAB1
 70
     6
  9
$SURFTAB2
 70
     6
  9
$SURFTYPE
 70
     6
  9
$SURFU
 70
     6
  9
$SURFV
 70
     6
  9
$UCSNAME
  2

  9
$UCSORG
 10
0.0
 20
0.0
 30
0.0
  9
$UCSXDIR
 10
1.0
 20
0.0
 30
0.0
  9
$UCSYDIR
 10
0.0
 20
1.0
 30
0.0
  9
$PUCSNAME
  2

  9
$PUCSORG
 10
0.0
 20
0.0
 30
0.0
  9
$PUCSXDIR
 10
1.0
 20
0.0
 30
0.0
  9
$PUCSYDIR
 10
0.0
 20
1.0
 30
0.0
  9
$USERI1
 70
     0
  9
$USERI2
 70
     0
  9
$USERI3
 70
     0
  9
$USERI4
 70
     0
  9
$USERI5
 70
     0
  9
$USERR1
 40
0.0
  9
$USERR2
 40
0.0
  9
$USERR3
 40
0.0
  9
$USERR4
 40
0.0
  9
$USERR5
 40
0.0
  9
$WORLDVIEW
 70
     1
  9
$SHADEDGE
 70
     3
  9
$SHADEDIF
 70
    70
  9
$TILEMODE
 70
     1
  9
$MAXACTVP
 70
    64
  9
$PLIMCHECK
 70
     0
  9
$PEXTMIN
 10
1.000000000000000E+20
 20
1.000000000000000E+20
 30
1.000000000000000E+20
  9
$PEXTMAX
 10
-1.000000000000000E+20
 20
-1.000000000000000E+20
 30
-1.000000000000000E+20
  9
$PLIMMIN
 10
0.0
 20
0.0
  9
$PLIMMAX
 10
12.0
 20
9.0
  9
$UNITMODE
 70
     0
  9
$VISRETAIN
 70
     1
  9
$PLINEGEN
 70
     0
  9
$PSLTSCALE
 70
     1
  0
ENDSEC
  0
SECTION
  2
TABLES
  0
TABLE
  2
VPORT
 70
     1
  0
VPORT
  2
*ACTIVE
 70
     0
 10
0.0
 20
0.0
 11
1.0
 21
1.0
 12
10.42990654205607
 22
4.5
 13
0.0
 23
0.0
 14
0.5
 24
0.5
 15
0.5
 25
0.5
 16
0.0
 26
0.0
 36
1.0
 17
0.0
 27
0.0
 37
0.0
 40
9.0
 41
1.972972972850329
 42
50.0
 43
0.0
 44
0.0
 50
0.0
 51
0.0
 71
     0
 72
   100
 73
     1
 74
     3
 75
     0
 76
     0
 77
     0
 78
     0
  0
ENDTAB
  0
TABLE
  2
LTYPE
 70
     2
  0
LTYPE
  2
CONTINUOUS
 70
     0
  3
Solid line
 72
    65
 73
     0
 40
0.0
  0
LTYPE
  2
CONTINUOUS2
 70
     0
  3
Solid Line
 72
    65
 73
     0
 40
0.0
  0
ENDTAB
  0
TABLE
  2
LAYER
 70
     2
  0
LAYER
  2
0
 70
     0
 62
     7
  6
CONTINUOUS
  0
LAYER
  2
CLAMPBASE
 70
     0
 62
    18
  6
CONTINUOUS
  0
ENDTAB
  0
TABLE
  2
STYLE
 70
     1
  0
STYLE
  2
STANDARD
 70
     0
 40
0.0
 41
1.0
 50
0.0
 71
     0
 42
0.2
  3
txt
  4

  0
ENDTAB
  0
TABLE
  2
VIEW
 70
     0
  0
ENDTAB
  0
TABLE
  2
UCS
 70
     0
  0
ENDTAB
  0
TABLE
  2
APPID
 70
     1
  0
APPID
  2
ACAD
 70
     0
  0
ENDTAB
  0
TABLE
  2
DIMSTYLE
 70
     1
  0
DIMSTYLE
  2
STANDARD
 70
     0
  3

  4

  5

  6

  7

 40
1.0
 41
0.18
 42
0.0625
 43
0.38
 44
0.18
 45
0.0
 46
0.0
 47
0.0
 48
0.0
140
0.18
141
0.09
142
0.0
143
25.4
144
1.0
145
0.0
146
1.0
147
0.09
 71
     0
 72
     0
 73
     1
 74
     1
 75
     0
 76
     0
 77
     0
 78
     0
170
     0
171
     2
172
     0
173
     0
174
     0
175
     0
176
     0
177
     0
178
     0
  0
ENDTAB
  0
ENDSEC
  0
SECTION
  2
BLOCKS
  0
BLOCK
  8
0
  2
$MODEL_SPACE
 70
     0
 10
0.0
 20
0.0
 30
0.0
  3
$MODEL_SPACE
  1

  0
ENDBLK
  5
21
  8
0
  0
BLOCK
 67
     1
  8
0
  2
$PAPER_SPACE
 70
     0
 10
0.0
 20
0.0
 30
0.0
  3
$PAPER_SPACE
  1

  0
ENDBLK
  5
1D
 67
     1
  8
0
  0
ENDSEC
  0
SECTION
  2
ENTITIES
  0
POLYLINE
  5
41
  8
CLAMPBASE
 66
     1
 10
0.0
 20
0.0
 30
0.0
 70
     1
  0
VERTEX
  5
59
  8
CLAMPBASE
 10
-15.3273993613677
 20
-25.3188831276795
 30
0.0
 42
0.4142135623730951
  0
VERTEX
  5
5A
  8
CLAMPBASE
 10
-10.32739936136776
 20
-20.3188831276795
 30
0.0
  0
VERTEX
  5
5B
  8
CLAMPBASE
 10
-10.32739936136776
 20
19.6811168723205
 30
0.0
 42
0.4142135623730951
  0
VERTEX
  5
5C
  8
CLAMPBASE
 10
-15.3273993613677
 20
24.6811168723205
 30
0.0
  0
VERTEX
  5
5D
  8
CLAMPBASE
 10
-25.32739936136768
 20
24.6811168723205
 30
0.0
 42
0.4142135623730951
  0
VERTEX
  5
5E
  8
CLAMPBASE
 10
-30.32739936136765
 20
19.6811168723205
 30
0.0
  0
VERTEX
  5
5F
  8
CLAMPBASE
 10
-30.32739936136765
 20
-20.3188831276795
 30
0.0
 42
0.4142135623730951
  0
VERTEX
  5
60
  8
CLAMPBASE
 10
-25.32739936136768
 20
-25.3188831276795
 30
0.0
  0
SEQEND
  5
61
  8
CLAMPBASE
  0
POLYLINE
  5
42
  8
CLAMPBASE
 66
     1
 10
0.0
 20
0.0
 30
0.0
 70
     1
  0
VERTEX
  5
62
  8
CLAMPBASE
 10
25.56338466557426
 20
-25.3188831276795
 30
0.0
 42
0.4142135623730951
  0
VERTEX
  5
63
  8
CLAMPBASE
 10
30.56338466557429
 20
-20.3188831276795
 30
0.0
  0
VERTEX
  5
64
  8
CLAMPBASE
 10
30.56338466557429
 20
19.6811168723205
 30
0.0
 42
0.4142135623730951
  0
VERTEX
  5
65
  8
CLAMPBASE
 10
25.56338466557429
 20
24.6811168723205
 30
0.0
  0
VERTEX
  5
66
  8
CLAMPBASE
 10
-2.43661533442577
 20
24.6811168723205
 30
0.0
 42
0.4142135623730951
  0
VERTEX
  5
67
  8
CLAMPBASE
 10
-7.436615334425774
 20
19.6811168723205
 30
0.0
  0
VERTEX
  5
68
  8
CLAMPBASE
 10
-7.436615334425774
 20
-20.3188831276795
 30
0.0
 42
0.4142135623730951
  0
VERTEX
  5
69
  8
CLAMPBASE
 10
-2.43661533442577
 20
-25.3188831276795
 30
0.0
  0
SEQEND
  5
6A
  8
CLAMPBASE
  0
POLYLINE
  5
43
  8
CLAMPBASE
 66
     1
 10
0.0
 20
0.0
 30
0.0
 70
     1
  0
VERTEX
  5
6B
  8
CLAMPBASE
 10
111.3622361702744
 20
2.974999999999852
 30
0.0
 42
0.4142135623730951
  0
VERTEX
  5
6C
  8
CLAMPBASE
 10
108.3872361702744
 20
-0.0000000000001421
 30
0.0
 42
0.4142135623730951
  0
VERTEX
  5
6D
  8
CLAMPBASE
 10
111.3622361702744
 20
-2.975000000000136
 30
0.0
 42
0.4142135623730951
  0
VERTEX
  5
6E
  8
CLAMPBASE
 10
114.3372361702744
 20
-0.0000000000001421
 30
0.0
 42
0.4142135623730951
  0
SEQEND
  5
6F
  8
CLAMPBASE
  0
POLYLINE
  5
44
  8
CLAMPBASE
 66
     1
 10
0.0
 20
0.0
 30
0.0
 70
     1
  0
VERTEX
  5
70
  8
CLAMPBASE
 10
54.42976382972557
 20
2.974999999999852
 30
0.0
 42
0.4142135623730951
  0
VERTEX
  5
71
  8
CLAMPBASE
 10
51.45476382972556
 20
-0.0000000000001421
 30
0.0
 42
0.4142135623730951
  0
VERTEX
  5
72
  8
CLAMPBASE
 10
54.42976382972557
 20
-2.975000000000136
 30
0.0
 42
0.4142135623730951
  0
VERTEX
  5
73
  8
CLAMPBASE
 10
57.40476382972557
 20
-0.0000000000001421
 30
0.0
 42
0.4142135623730951
  0
SEQEND
  5
74
  8
CLAMPBASE
  0
POLYLINE
  5
45
  8
CLAMPBASE
 66
     1
 10
0.0
 20
0.0
 30
0.0
 70
     1
  0
VERTEX
  5
75
  8
CLAMPBASE
 10
23.56338466557428
 20
-18.2688831276795
 30
0.0
 42
0.4142135623730951
  0
VERTEX
  5
76
  8
CLAMPBASE
 10
21.51338466557428
 20
-20.3188831276795
 30
0.0
 42
0.4142135623730951
  0
VERTEX
  5
77
  8
CLAMPBASE
 10
23.56338466557428
 20
-22.3688831276795
 30
0.0
 42
0.4142135623730951
  0
VERTEX
  5
78
  8
CLAMPBASE
 10
25.61338466557427
 20
-20.3188831276795
 30
0.0
 42
0.4142135623730951
  0
SEQEND
  5
79
  8
CLAMPBASE
  0
POLYLINE
  5
46
  8
CLAMPBASE
 66
     1
 10
0.0
 20
0.0
 30
0.0
 70
     1
  0
VERTEX
  5
7A
  8
CLAMPBASE
 10
7.563384665574262
 20
-8.268883127679487
 30
0.0
 42
0.4142135623730951
  0
VERTEX
  5
7B
  8
CLAMPBASE
 10
5.513384665574264
 20
-10.3188831276795
 30
0.0
 42
0.4142135623730951
  0
VERTEX
  5
7C
  8
CLAMPBASE
 10
7.563384665574262
 20
-12.36888312767951
 30
0.0
 42
0.4142135623730951
  0
VERTEX
  5
7D
  8
CLAMPBASE
 10
9.613384665574259
 20
-10.3188831276795
 30
0.0
 42
0.4142135623730951
  0
SEQEND
  5
7E
  8
CLAMPBASE
  0
POLYLINE
  5
47
  8
CLAMPBASE
 66
     1
 10
0.0
 20
0.0
 30
0.0
 70
     1
  0
VERTEX
  5
7F
  8
CLAMPBASE
 10
7.563384665574262
 20
11.73111687232051
 30
0.0
 42
0.4142135623730951
  0
VERTEX
  5
80
  8
CLAMPBASE
 10
5.513384665574264
 20
9.681116872320501
 30
0.0
 42
0.4142135623730951
  0
VERTEX
  5
81
  8
CLAMPBASE
 10
7.563384665574262
 20
7.63111687232049
 30
0.0
 42
0.4142135623730951
  0
VERTEX
  5
82
  8
CLAMPBASE
 10
9.613384665574259
 20
9.681116872320501
 30
0.0
 42
0.4142135623730951
  0
SEQEND
  5
83
  8
CLAMPBASE
  0
POLYLINE
  5
48
  8
CLAMPBASE
 66
     1
 10
0.0
 20
0.0
 30
0.0
 70
     1
  0
VERTEX
  5
84
  8
CLAMPBASE
 10
23.56338466557428
 20
21.73111687232051
 30
0.0
 42
0.4142135623730951
  0
VERTEX
  5
85
  8
CLAMPBASE
 10
21.51338466557428
 20
19.6811168723205
 30
0.0
 42
0.4142135623730951
  0
VERTEX
  5
86
  8
CLAMPBASE
 10
23.56338466557428
 20
17.63111687232049
 30
0.0
 42
0.4142135623730951
  0
VERTEX
  5
87
  8
CLAMPBASE
 10
25.61338466557427
 20
19.6811168723205
 30
0.0
 42
0.4142135623730951
  0
SEQEND
  5
88
  8
CLAMPBASE
  0
POLYLINE
  5
49
  8
CLAMPBASE
 66
     1
 10
0.0
 20
0.0
 30
0.0
 70
     1
  0
VERTEX
  5
89
  8
CLAMPBASE
 10
-15.32739936136773
 20
12.23111687232051
 30
0.0
 42
0.4142135623730951
  0
VERTEX
  5
8A
  8
CLAMPBASE
 10
-17.87739936136773
 20
9.681116872320501
 30
0.0
 42
0.4142135623730951
  0
VERTEX
  5
8B
  8
CLAMPBASE
 10
-15.32739936136773
 20
7.13111687232049
 30
0.0
 42
0.4142135623730951
  0
VERTEX
  5
8C
  8
CLAMPBASE
 10
-12.77739936136773
 20
9.681116872320501
 30
0.0
 42
0.4142135623730951
  0
SEQEND
  5
8D
  8
CLAMPBASE
  0
POLYLINE
  5
4A
  8
CLAMPBASE
 66
     1
 10
0.0
 20
0.0
 30
0.0
 70
     1
  0
VERTEX
  5
8E
  8
CLAMPBASE
 10
-15.32739936136773
 20
-7.768883127679487
 30
0.0
 42
0.4142135623730951
  0
VERTEX
  5
8F
  8
CLAMPBASE
 10
-17.87739936136773
 20
-10.3188831276795
 30
0.0
 42
0.4142135623730951
  0
VERTEX
  5
90
  8
CLAMPBASE
 10
-15.32739936136773
 20
-12.86888312767951
 30
0.0
 42
0.4142135623730951
  0
VERTEX
  5
91
  8
CLAMPBASE
 10
-12.77739936136773
 20
-10.3188831276795
 30
0.0
 42
0.4142135623730951
  0
SEQEND
  5
92
  8
CLAMPBASE
  0
POLYLINE
  5
4B
  8
CLAMPBASE
 66
     1
 10
0.0
 20
0.0
 30
0.0
 70
     1
  0
VERTEX
  5
93
  8
CLAMPBASE
 10
-61.44856268055376
 20
22.54999999999996
 30
0.0
 42
0.4142135623730951
  0
VERTEX
  5
94
  8
CLAMPBASE
 10
-63.99856268055374
 20
19.99999999999996
 30
0.0
 42
0.4142135623730951
  0
VERTEX
  5
95
  8
CLAMPBASE
 10
-61.44856268055378
 20
17.44999999999996
 30
0.0
  0
VERTEX
  5
96
  8
CLAMPBASE
 10
-44.9485626805539
 20
17.44999999999996
 30
0.0
 42
0.4142135623730951
  0
VERTEX
  5
97
  8
CLAMPBASE
 10
-42.39856268055393
 20
19.99999999999996
 30
0.0
 42
0.4142135623730951
  0
VERTEX
  5
98
  8
CLAMPBASE
 10
-44.9485626805539
 20
22.54999999999996
 30
0.0
  0
SEQEND
  5
99
  8
CLAMPBASE
  0
POLYLINE
  5
4C
  8
CLAMPBASE
 66
     1
 10
0.0
 20
0.0
 30
0.0
 70
     1
  0
VERTEX
  5
9A
  8
CLAMPBASE
 10
-61.44856268055374
 20
-17.44999999999995
 30
0.0
 42
0.4142135623730951
  0
VERTEX
  5
9B
  8
CLAMPBASE
 10
-63.99856268055371
 20
-19.99999999999995
 30
0.0
 42
0.4142135623730951
  0
VERTEX
  5
9C
  8
CLAMPBASE
 10
-61.44856268055375
 20
-22.54999999999995
 30
0.0
  0
VERTEX
  5
9D
  8
CLAMPBASE
 10
-44.94856268055387
 20
-22.54999999999995
 30
0.0
 42
0.4142135623730951
  0
VERTEX
  5
9E
  8
CLAMPBASE
 10
-42.3985626805539
 20
-19.99999999999995
 30
0.0
 42
0.4142135623730951
  0
VERTEX
  5
9F
  8
CLAMPBASE
 10
-44.94856268055387
 20
-17.44999999999995
 30
0.0
  0
SEQEND
  5
A0
  8
CLAMPBASE
  0
POLYLINE
  5
4D
  8
CLAMPBASE
 66
     1
 10
0.0
 20
0.0
 30
0.0
 70
     1
  0
VERTEX
  5
A1
  8
CLAMPBASE
 10
-131.8233894065061
 20
3.592914479758623
 30
0.0
  0
VERTEX
  5
A2
  8
CLAMPBASE
 10
-131.823471109049
 20
-3.654168881259348
 30
0.0
  0
VERTEX
  5
A3
  8
CLAMPBASE
 10
-109.0400467978444
 20
-25.62504817686736
 30
0.0
  0
VERTEX
  5
A4
  8
CLAMPBASE
 10
-103.4520467978444
 20
-25.62504817686731
 30
0.0
  0
VERTEX
  5
A5
  8
CLAMPBASE
 10
-103.4520467978442
 20
-12.41704817686734
 30
0.0
  0
VERTEX
  5
A6
  8
CLAMPBASE
 10
-109.0400467978444
 20
-12.41704817686744
 30
0.0
  0
VERTEX
  5
A7
  8
CLAMPBASE
 10
-109.0400467978444
 20
12.4170481768674
 30
0.0
  0
VERTEX
  5
A8
  8
CLAMPBASE
 10
-103.4520467978444
 20
12.41704817686734
 30
0.0
  0
VERTEX
  5
A9
  8
CLAMPBASE
 10
-103.4520467978444
 20
25.62504817686723
 30
0.0
  0
VERTEX
  5
AA
  8
CLAMPBASE
 10
-109.0400467978442
 20
25.62504817686736
 30
0.0
  0
SEQEND
  5
AB
  8
CLAMPBASE
  0
POLYLINE
  5
4E
  8
CLAMPBASE
 66
     1
 10
0.0
 20
0.0
 30
0.0
 70
     1
  0
VERTEX
  5
AC
  8
CLAMPBASE
 10
-105.7004835869921
 20
3.592914479758623
 30
0.0
  0
VERTEX
  5
AD
  8
CLAMPBASE
 10
-105.700565289535
 20
-3.654168881259348
 30
0.0
  0
VERTEX
  5
AE
  8
CLAMPBASE
 10
-82.91714097833079
 20
-25.62504817686736
 30
0.0
  0
VERTEX
  5
AF
  8
CLAMPBASE
 10
-77.32914097833086
 20
-25.62504817686731
 30
0.0
  0
VERTEX
  5
B0
  8
CLAMPBASE
 10
-77.32914097833066
 20
-12.41704817686734
 30
0.0
  0
VERTEX
  5
B1
  8
CLAMPBASE
 10
-82.91714097833079
 20
-12.41704817686744
 30
0.0
  0
VERTEX
  5
B2
  8
CLAMPBASE
 10
-82.91714097833076
 20
12.4170481768674
 30
0.0
  0
VERTEX
  5
B3
  8
CLAMPBASE
 10
-77.32914097833086
 20
12.41704817686734
 30
0.0
  0
VERTEX
  5
B4
  8
CLAMPBASE
 10
-77.32914097833086
 20
25.62504817686723
 30
0.0
  0
VERTEX
  5
B5
  8
CLAMPBASE
 10
-82.91714097833062
 20
25.62504817686736
 30
0.0
  0
SEQEND
  5
B6
  8
CLAMPBASE
  0
POLYLINE
  5
4F
  8
CLAMPBASE
 66
     1
 10
0.0
 20
0.0
 30
0.0
 70
     1
  0
VERTEX
  5
B7
  8
CLAMPBASE
 10
-33.19856268055375
 20
12.2311168723205
 30
0.0
  0
VERTEX
  5
B8
  8
CLAMPBASE
 10
-48.90956788718729
 20
12.2311168723205
 30
0.0
 42
0.4142135623730951
  0
VERTEX
  5
B9
  8
CLAMPBASE
 10
-51.45956788718726
 20
9.681116872320505
 30
0.0
 42
0.4142135623730951
  0
VERTEX
  5
BA
  8
CLAMPBASE
 10
-48.90956788718731
 20
7.131116872320501
 30
0.0
  0
VERTEX
  5
BB
  8
CLAMPBASE
 10
-33.19856268055375
 20
7.1311168723205
 30
0.0
  0
VERTEX
  5
BC
  8
CLAMPBASE
 10
-33.19856268055374
 20
-7.768883127679498
 30
0.0
  0
VERTEX
  5
BD
  8
CLAMPBASE
 10
-48.90956788718727
 20
-7.768883127679498
 30
0.0
 42
0.4142135623730951
  0
VERTEX
  5
BE
  8
CLAMPBASE
 10
-51.45956788718723
 20
-10.3188831276795
 30
0.0
 42
0.4142135623730951
  0
VERTEX
  5
BF
  8
CLAMPBASE
 10
-48.90956788718728
 20
-12.8688831276795
 30
0.0
  0
VERTEX
  5
C0
  8
CLAMPBASE
 10
-33.19856268055374
 20
-12.8688831276795
 30
0.0
  0
VERTEX
  5
C1
  8
CLAMPBASE
 10
-33.19856268055373
 20
-22.5
 30
0.0
 42
-0.4142135623730951
  0
VERTEX
  5
C2
  8
CLAMPBASE
 10
-43.19856268055376
 20
-32.50000922127239
 30
0.0
  0
VERTEX
  5
C3
  8
CLAMPBASE
 10
-58.89456268055373
 20
-32.50001844254479
 30
0.0
  0
VERTEX
  5
C4
  8
CLAMPBASE
 10
-58.89456268055373
 20
-27.16601844254475
 30
0.0
  0
VERTEX
  5
C5
  8
CLAMPBASE
 10
-72.86456268055383
 20
-27.16601844254475
 30
0.0
  0
VERTEX
  5
C6
  8
CLAMPBASE
 10
-72.86456268055383
 20
-9.779012264701208
 30
0.0
  0
VERTEX
  5
C7
  8
CLAMPBASE
 10
-78.19856268055355
 20
-9.779012264701208
 30
0.0
  0
VERTEX
  5
C8
  8
CLAMPBASE
 10
-78.19856268055386
 20
9.778987735298557
 30
0.0
  0
VERTEX
  5
C9
  8
CLAMPBASE
 10
-72.86456268055386
 20
9.778987735298557
 30
0.0
  0
VERTEX
  5
CA
  8
CLAMPBASE
 10
-72.86456268055386
 20
27.16601844254475
 30
0.0
  0
VERTEX
  5
CB
  8
CLAMPBASE
 10
-58.89456268055373
 20
27.16601844254475
 30
0.0
  0
VERTEX
  5
CC
  8
CLAMPBASE
 10
-58.89456268055373
 20
32.50001844254479
 30
0.0
  0
VERTEX
  5
CD
  8
CLAMPBASE
 10
-43.19856268055377
 20
32.50000922127239
 30
0.0
 42
-0.4142135623730951
  0
VERTEX
  5
CE
  8
CLAMPBASE
 10
-33.19856268055376
 20
22.5
 30
0.0
  0
SEQEND
  5
CF
  8
CLAMPBASE
  0
POLYLINE
  5
50
  8
CLAMPBASE
 66
     1
 10
0.0
 20
0.0
 30
0.0
 70
     1
  0
VERTEX
  5
D0
  8
CLAMPBASE
 10
-106.774
 20
-2.76
 30
0.0
  0
VERTEX
  5
D1
  8
CLAMPBASE
 10
-96.77400000000003
 20
-2.76
 30
0.0
  0
VERTEX
  5
D2
  8
CLAMPBASE
 10
-96.77400000000003
 20
2.74
 30
0.0
  0
VERTEX
  5
D3
  8
CLAMPBASE
 10
-106.774
 20
2.74
 30
0.0
  0
SEQEND
  5
D4
  8
CLAMPBASE
  0
POLYLINE
  5
51
  8
CLAMPBASE
 66
     1
 10
0.0
 20
0.0
 30
0.0
 70
     1
  0
VERTEX
  5
D5
  8
CLAMPBASE
 10
-132.897
 20
-2.76
 30
0.0
  0
VERTEX
  5
D6
  8
CLAMPBASE
 10
-122.897
 20
-2.76
 30
0.0
  0
VERTEX
  5
D7
  8
CLAMPBASE
 10
-122.897
 20
2.74
 30
0.0
  0
VERTEX
  5
D8
  8
CLAMPBASE
 10
-132.897
 20
2.74
 30
0.0
  0
SEQEND
  5
D9
  8
CLAMPBASE
  0
POLYLINE
  5
52
  8
CLAMPBASE
 66
     1
 10
0.0
 20
0.0
 30
0.0
 70
     1
  0
VERTEX
  5
DA
  8
CLAMPBASE
 10
80.1469896705465
 20
-10.0
 30
0.0
  0
VERTEX
  5
DB
  8
CLAMPBASE
 10
85.6469896705465
 20
-10.0
 30
0.0
  0
VERTEX
  5
DC
  8
CLAMPBASE
 10
85.6469896705465
 20
10.0
 30
0.0
  0
VERTEX
  5
DD
  8
CLAMPBASE
 10
80.1469896705465
 20
10.0
 30
0.0
  0
SEQEND
  5
DE
  8
CLAMPBASE
  0
POLYLINE
  5
53
  8
CLAMPBASE
 66
     1
 10
0.0
 20
0.0
 30
0.0
 70
     1
  0
VERTEX
  5
DF
  8
CLAMPBASE
 10
54.77130042873769
 20
-32.50002554828571
 30
0.0
  0
VERTEX
  5
E0
  8
CLAMPBASE
 10
57.18330566087009
 20
-32.50001675247483
 30
0.0
  0
VERTEX
  5
E1
  8
CLAMPBASE
 10
57.18330566086782
 20
-27.00000200259945
 30
0.0
  0
VERTEX
  5
E2
  8
CLAMPBASE
 10
70.48330566086787
 20
-27.00000200259945
 30
0.0
  0
VERTEX
  5
E3
  8
CLAMPBASE
 10
70.48330566088484
 20
-32.50001656149991
 30
0.0
  0
VERTEX
  5
E4
  8
CLAMPBASE
 10
95.31679984695555
 20
-32.50000216521492
 30
0.0
  0
VERTEX
  5
E5
  8
CLAMPBASE
 10
95.31679984695535
 20
-27.00000200259945
 30
0.0
  0
VERTEX
  5
E6
  8
CLAMPBASE
 10
108.6167998469554
 20
-27.00000200259945
 30
0.0
  0
VERTEX
  5
E7
  8
CLAMPBASE
 10
108.6167998469551
 20
-32.50000221851545
 30
0.0
  0
VERTEX
  5
E8
  8
CLAMPBASE
 10
111.0479259646598
 20
-32.50001068789618
 30
0.0
  0
VERTEX
  5
E9
  8
CLAMPBASE
 10
112.6972859966051
 20
-32.50001808610079
 30
0.0
  0
VERTEX
  5
EA
  8
CLAMPBASE
 10
113.0250790242276
 20
-32.49587060696111
 30
0.0
  0
VERTEX
  5
EB
  8
CLAMPBASE
 10
113.3508269511257
 20
-32.48349377798955
 30
0.0
  0
VERTEX
  5
EC
  8
CLAMPBASE
 10
113.6744300313907
 20
-32.4629873449601
 30
0.0
  0
VERTEX
  5
ED
  8
CLAMPBASE
 10
113.9957885191138
 20
-32.4344510536467
 30
0.0
  0
VERTEX
  5
EE
  8
CLAMPBASE
 10
114.3148026683863
 20
-32.39798464982329
 30
0.0
  0
VERTEX
  5
EF
  8
CLAMPBASE
 10
114.6313727332993
 20
-32.35368787926385
 30
0.0
  0
VERTEX
  5
F0
  8
CLAMPBASE
 10
114.9453989679442
 20
-32.30166048774232
 30
0.0
  0
VERTEX
  5
F1
  8
CLAMPBASE
 10
115.2567816264121
 20
-32.24200222103265
 30
0.0
  0
VERTEX
  5
F2
  8
CLAMPBASE
 10
115.5654209627943
 20
-32.17481282490879
 30
0.0
  0
VERTEX
  5
F3
  8
CLAMPBASE
 10
115.8712172311821
 20
-32.1001920451447
 30
0.0
  0
VERTEX
  5
F4
  8
CLAMPBASE
 10
116.1740706856665
 20
-32.01823962751433
 30
0.0
  0
VERTEX
  5
F5
  8
CLAMPBASE
 10
116.473881580339
 20
-31.92905531779164
 30
0.0
  0
VERTEX
  5
F6
  8
CLAMPBASE
 10
116.7705501692907
 20
-31.83273886175057
 30
0.0
  0
VERTEX
  5
F7
  8
CLAMPBASE
 10
117.0639767066129
 20
-31.72939000516509
 30
0.0
  0
VERTEX
  5
F8
  8
CLAMPBASE
 10
117.3540614463968
 20
-31.61910849380913
 30
0.0
  0
VERTEX
  5
F9
  8
CLAMPBASE
 10
117.6407046427336
 20
-31.50199407345665
 30
0.0
  0
VERTEX
  5
FA
  8
CLAMPBASE
 10
117.9238065497146
 20
-31.37814648988162
 30
0.0
  0
VERTEX
  5
FB
  8
CLAMPBASE
 10
118.203267421431
 20
-31.24766548885797
 30
0.0
  0
VERTEX
  5
FC
  8
CLAMPBASE
 10
118.7508670754349
 20
-30.96720221756066
 30
0.0
  0
VERTEX
  5
FD
  8
CLAMPBASE
 10
119.2827056374752
 20
-30.66140222575635
 30
0.0
  0
VERTEX
  5
FE
  8
CLAMPBASE
 10
119.7979851402819
 20
-30.33106347963667
 30
0.0
  0
VERTEX
  5
FF
  8
CLAMPBASE
 10
120.2959076165848
 20
-29.97698394539322
 30
0.0
  0
VERTEX
  5
100
  8
CLAMPBASE
 10
120.7756750991138
 20
-29.59996158921764
 30
0.0
  0
VERTEX
  5
101
  8
CLAMPBASE
 10
121.2364896205987
 20
-29.20079437730155
 30
0.0
  0
VERTEX
  5
102
  8
CLAMPBASE
 10
121.6775532137695
 20
-28.78028027583657
 30
0.0
  0
VERTEX
  5
103
  8
CLAMPBASE
 10
122.098067911356
 20
-28.33921725101432
 30
0.0
  0
VERTEX
  5
104
  8
CLAMPBASE
 10
122.4972357460881
 20
-27.87840326902643
 30
0.0
  0
VERTEX
  5
105
  8
CLAMPBASE
 10
122.8742587506957
 20
-27.39863629606452
 30
0.0
  0
VERTEX
  5
106
  8
CLAMPBASE
 10
123.2283389579087
 20
-26.90071429832022
 30
0.0
  0
VERTEX
  5
107
  8
CLAMPBASE
 10
123.5586784004569
 20
-26.38543524198514
 30
0.0
  0
VERTEX
  5
108
  8
CLAMPBASE
 10
123.8644791110702
 20
-25.8535970932509
 30
0.0
  0
VERTEX
  5
109
  8
CLAMPBASE
 10
124.1449431224786
 20
-25.30599781830914
 30
0.0
  0
VERTEX
  5
10A
  8
CLAMPBASE
 10
124.275424501209
 20
-25.02653712294533
 30
0.0
  0
VERTEX
  5
10B
  8
CLAMPBASE
 10
124.3992724674118
 20
-24.74343538335148
 30
0.0
  0
VERTEX
  5
10C
  8
CLAMPBASE
 10
124.5163872751783
 20
-24.45679234530157
 30
0.0
  0
VERTEX
  5
10D
  8
CLAMPBASE
 10
124.6266691785998
 20
-24.16670775456954
 30
0.0
  0
VERTEX
  5
10E
  8
CLAMPBASE
 10
124.7300184317675
 20
-23.87328135692934
 30
0.0
  0
VERTEX
  5
10F
  8
CLAMPBASE
 10
124.8263352887725
 20
-23.57661289815493
 30
0.0
  0
VERTEX
  5
110
  8
CLAMPBASE
 10
124.9155200037061
 20
-23.27680212402026
 30
0.0
  0
VERTEX
  5
111
  8
CLAMPBASE
 10
124.9974728306597
 20
-22.97394878029929
 30
0.0
  0
VERTEX
  5
112
  8
CLAMPBASE
 10
125.0720940237243
 20
-22.66815261276597
 30
0.0
  0
VERTEX
  5
113
  8
CLAMPBASE
 10
125.1392838369913
 20
-22.35951336719424
 30
0.0
  0
VERTEX
  5
114
  8
CLAMPBASE
 10
125.1989425245518
 20
-22.04813078935807
 30
0.0
  0
VERTEX
  5
115
  8
CLAMPBASE
 10
125.2509703404972
 20
-21.7341046250314
 30
0.0
  0
VERTEX
  5
116
  8
CLAMPBASE
 10
125.2952675389186
 20
-21.41753461998818
 30
0.0
  0
VERTEX
  5
117
  8
CLAMPBASE
 10
125.3317343739073
 20
-21.09852052000238
 30
0.0
  0
VERTEX
  5
118
  8
CLAMPBASE
 10
125.3602710995545
 20
-20.77716207084795
 30
0.0
  0
VERTEX
  5
119
  8
CLAMPBASE
 10
125.3807779699514
 20
-20.45355901829883
 30
0.0
  0
VERTEX
  5
11A
  8
CLAMPBASE
 10
125.3931552391893
 20
-20.12781110812897
 30
0.0
  0
VERTEX
  5
11B
  8
CLAMPBASE
 10
125.3973031613595
 20
-19.80001808611235
 30
0.0
  0
VERTEX
  5
11C
  8
CLAMPBASE
 10
125.3973031613595
 20
19.80000158564161
 30
0.0
  0
VERTEX
  5
11D
  8
CLAMPBASE
 10
125.3931552631245
 20
20.12779362826744
 30
0.0
  0
VERTEX
  5
11E
  8
CLAMPBASE
 10
125.3807780650094
 20
20.4535405777423
 30
0.0
  0
VERTEX
  5
11F
  8
CLAMPBASE
 10
125.3602713118992
 20
20.77714268889204
 30
0.0
  0
VERTEX
  5
120
  8
CLAMPBASE
 10
125.3317347486785
 20
21.0985002165425
 30
0.0
  0
VERTEX
  5
121
  8
CLAMPBASE
 10
125.2952681202322
 20
21.41751341551955
 30
0.0
  0
VERTEX
  5
122
  8
CLAMPBASE
 10
125.2509711714452
 20
21.73408254064902
 30
0.0
  0
VERTEX
  5
123
  8
CLAMPBASE
 10
125.1989436472024
 20
22.04810784675677
 30
0.0
  0
VERTEX
  5
124
  8
CLAMPBASE
 10
125.1392852923885
 20
22.35948958866865
 30
0.0
  0
VERTEX
  5
125
  8
CLAMPBASE
 10
125.0720958518883
 20
22.66812802121052
 30
0.0
  0
VERTEX
  5
126
  8
CLAMPBASE
 10
124.9974750705868
 20
22.97392339920822
 30
0.0
  0
VERTEX
  5
127
  8
CLAMPBASE
 10
124.9155226933688
 20
23.2767759774876
 30
0.0
  0
VERTEX
  5
128
  8
CLAMPBASE
 10
124.826338465119
 20
23.57658601087452
 30
0.0
  0
VERTEX
  5
129
  8
CLAMPBASE
 10
124.7300221307224
 20
23.87325375419483
 30
0.0
  0
VERTEX
  5
12A
  8
CLAMPBASE
 10
124.6266734350637
 20
24.16667946227437
 30
0.0
  0
VERTEX
  5
12B
  8
CLAMPBASE
 10
124.5163921230279
 20
24.456763389939
 30
0.0
  0
VERTEX
  5
12C
  8
CLAMPBASE
 10
124.3992779394997
 20
24.74340579201457
 30
0.0
  0
VERTEX
  5
12D
  8
CLAMPBASE
 10
124.275430629364
 20
25.02650692332693
 30
0.0
  0
VERTEX
  5
12E
  8
CLAMPBASE
 10
124.1449499375056
 20
25.30596703870193
 30
0.0
  0
VERTEX
  5
12F
  8
CLAMPBASE
 10
123.86448738816
 20
25.85356524094327
 30
0.0
  0
VERTEX
  5
130
  8
CLAMPBASE
 10
123.5586882505418
 20
26.38540243734539
 30
0.0
  0
VERTEX
  5
131
  8
CLAMPBASE
 10
123.2283504837296
 20
26.9006806665151
 30
0.0
  0
VERTEX
  5
132
  8
CLAMPBASE
 10
122.8742720468021
 20
27.39860196705921
 30
0.0
  0
VERTEX
  5
133
  8
CLAMPBASE
 10
122.4972508988379
 20
27.87836837758452
 30
0.0
  0
VERTEX
  5
134
  8
CLAMPBASE
 10
122.0980849989159
 20
28.33918193669785
 30
0.0
  0
VERTEX
  5
135
  8
CLAMPBASE
 10
121.6775723061146
 20
28.780244683006
 30
0.0
  0
VERTEX
  5
136
  8
CLAMPBASE
 10
121.2365107795127
 20
29.20075865511578
 30
0.0
  0
VERTEX
  5
137
  8
CLAMPBASE
 10
120.775698378189
 20
29.59992589163401
 30
0.0
  0
VERTEX
  5
138
  8
CLAMPBASE
 10
120.2959330612222
 20
29.97694843116748
 30
0.0
  0
VERTEX
  5
139
  8
CLAMPBASE
 10
119.798012787691
 20
30.33102831232302
 30
0.0
  0
VERTEX
  5
13A
  8
CLAMPBASE
 10
119.2827355166739
 20
30.66136757370742
 30
0.0
  0
VERTEX
  5
13B
  8
CLAMPBASE
 10
118.7508992072498
 20
30.9671682539275
 30
0.0
  0
VERTEX
  5
13C
  8
CLAMPBASE
 10
118.2033018184973
 20
31.24763239159006
 30
0.0
  0
VERTEX
  5
13D
  8
CLAMPBASE
 10
117.9238420815851
 20
31.3781138940269
 30
0.0
  0
VERTEX
  5
13E
  8
CLAMPBASE
 10
117.6407413094952
 20
31.50196202530191
 30
0.0
  0
VERTEX
  5
13F
  8
CLAMPBASE
 10
117.3540992471126
 20
31.61907704024095
 30
0.0
  0
VERTEX
  5
140
  8
CLAMPBASE
 10
117.064015639322
 20
31.72935919366987
 30
0.0
  0
VERTEX
  5
141
  8
CLAMPBASE
 10
116.7705902310084
 20
31.83270874041452
 30
0.0
  0
VERTEX
  5
142
  8
CLAMPBASE
 10
116.4739227670566
 20
31.92902593530074
 30
0.0
  0
VERTEX
  5
143
  8
CLAMPBASE
 10
116.1741129923514
 20
32.01821103315439
 30
0.0
  0
VERTEX
  5
144
  8
CLAMPBASE
 10
115.8712606517776
 20
32.10016428880132
 30
0.0
  0
VERTEX
  5
145
  8
CLAMPBASE
 10
115.5654654902201
 20
32.17478595706739
 30
0.0
  0
VERTEX
  5
146
  8
CLAMPBASE
 10
115.2568272525637
 20
32.24197629277843
 30
0.0
  0
VERTEX
  5
147
  8
CLAMPBASE
 10
114.9454456836932
 20
32.30163555076032
 30
0.0
  0
VERTEX
  5
148
  8
CLAMPBASE
 10
114.6314205284935
 20
32.35366398583889
 30
0.0
  0
VERTEX
  5
149
  8
CLAMPBASE
 10
114.3148515318495
 20
32.39796185283999
 30
0.0
  0
VERTEX
  5
14A
  8
CLAMPBASE
 10
113.9958384386458
 20
32.43442940658948
 30
0.0
  0
VERTEX
  5
14B
  8
CLAMPBASE
 10
113.6744809937675
 20
32.46296690191321
 30
0.0
  0
VERTEX
  5
14C
  8
CLAMPBASE
 10
113.3508789420994
 20
32.48347459363703
 30
0.0
  0
VERTEX
  5
14D
  8
CLAMPBASE
 10
113.0251320285261
 20
32.49585273658678
 30
0.0
  0
VERTEX
  5
14E
  8
CLAMPBASE
 10
112.6973399979327
 20
32.50000158558834
 30
0.0
  0
VERTEX
  5
14F
  8
CLAMPBASE
 10
111.0479259646598
 20
32.50001574178842
 30
0.0
  0
VERTEX
  5
150
  8
CLAMPBASE
 10
108.5710875796506
 20
32.50003206733218
 30
0.0
  0
VERTEX
  5
151
  8
CLAMPBASE
 10
108.5710875796412
 20
27.00002882692626
 30
0.0
  0
VERTEX
  5
152
  8
CLAMPBASE
 10
95.27108757964116
 20
27.00002882692626
 30
0.0
  0
VERTEX
  5
153
  8
CLAMPBASE
 10
95.27108757964069
 20
32.50003244347859
 30
0.0
  0
VERTEX
  5
154
  8
CLAMPBASE
 10
70.49653506466544
 20
32.50003290156296
 30
0.0
  0
VERTEX
  5
155
  8
CLAMPBASE
 10
70.49653506466552
 20
27.0000318180524
 30
0.0
  0
VERTEX
  5
156
  8
CLAMPBASE
 10
57.19653506466551
 20
27.0000318180524
 30
0.0
  0
VERTEX
  5
157
  8
CLAMPBASE
 10
57.19653506466057
 20
32.50003352366259
 30
0.0
  0
VERTEX
  5
158
  8
CLAMPBASE
 10
54.77130042873769
 20
32.5000165203714
 30
0.0
  0
VERTEX
  5
159
  8
CLAMPBASE
 10
53.09726632488989
 20
32.50000158548443
 30
0.0
  0
VERTEX
  5
15A
  8
CLAMPBASE
 10
52.76947429429457
 20
32.49585273648551
 30
0.0
  0
VERTEX
  5
15B
  8
CLAMPBASE
 10
52.44372738071942
 20
32.48347459353828
 30
0.0
  0
VERTEX
  5
15C
  8
CLAMPBASE
 10
52.12012532904926
 20
32.46296690181688
 30
0.0
  0
VERTEX
  5
15D
  8
CLAMPBASE
 10
51.79876788416895
 20
32.43442940649547
 30
0.0
  0
VERTEX
  5
15E
  8
CLAMPBASE
 10
51.47975479096333
 20
32.3979618527482
 30
0.0
  0
VERTEX
  5
15F
  8
CLAMPBASE
 10
51.16318579431722
 20
32.35366398574921
 30
0.0
  0
VERTEX
  5
160
  8
CLAMPBASE
 10
50.84916063911547
 20
32.30163555067265
 30
0.0
  0
VERTEX
  5
161
  8
CLAMPBASE
 10
50.53777907024291
 20
32.24197629269268
 30
0.0
  0
VERTEX
  5
162
  8
CLAMPBASE
 10
50.22914083258439
 20
32.17478595698344
 30
0.0
  0
VERTEX
  5
163
  8
CLAMPBASE
 10
49.92334567102474
 20
32.10016428871909
 30
0.0
  0
VERTEX
  5
164
  8
CLAMPBASE
 10
49.62049333044881
 20
32.01821103307378
 30
0.0
  0
VERTEX
  5
165
  8
CLAMPBASE
 10
49.32068355574143
 20
31.92902593522164
 30
0.0
  0
VERTEX
  5
166
  8
CLAMPBASE
 10
49.02401609178744
 20
31.83270874033684
 30
0.0
  0
VERTEX
  5
167
  8
CLAMPBASE
 10
48.73059068347168
 20
31.72935919359352
 30
0.0
  0
VERTEX
  5
168
  8
CLAMPBASE
 10
48.44050707567897
 20
31.61907704016585
 30
0.0
  0
VERTEX
  5
169
  8
CLAMPBASE
 10
48.15386501329418
 20
31.50196202522795
 30
0.0
  0
VERTEX
  5
16A
  8
CLAMPBASE
 10
47.87076424120214
 20
31.378113893954
 30
0.0
  0
VERTEX
  5
16B
  8
CLAMPBASE
 10
47.59130450428767
 20
31.24763239151812
 30
0.0
  0
VERTEX
  5
16C
  8
CLAMPBASE
 10
47.04370711553085
 20
30.96716825385723
 30
0.0
  0
VERTEX
  5
16D
  8
CLAMPBASE
 10
46.51187080610242
 20
30.66136757363849
 30
0.0
  0
VERTEX
  5
16E
  8
CLAMPBASE
 10
45.9965935350811
 20
30.33102831225509
 30
0.0
  0
VERTEX
  5
16F
  8
CLAMPBASE
 10
45.49867326154559
 20
29.97694843110023
 30
0.0
  0
VERTEX
  5
170
  8
CLAMPBASE
 10
45.01890794457461
 20
29.59992589156711
 30
0.0
  0
VERTEX
  5
171
  8
CLAMPBASE
 10
44.55809554324687
 20
29.20075865504894
 30
0.0
  0
VERTEX
  5
172
  8
CLAMPBASE
 10
44.11703401664107
 20
28.78024468293892
 30
0.0
  0
VERTEX
  5
173
  8
CLAMPBASE
 10
43.69652132383592
 20
28.33918193663025
 30
0.0
  0
VERTEX
  5
174
  8
CLAMPBASE
 10
43.29735542391013
 20
27.87836837751611
 30
0.0
  0
VERTEX
  5
175
  8
CLAMPBASE
 10
42.92033427594242
 20
27.39860196698973
 30
0.0
  0
VERTEX
  5
176
  8
CLAMPBASE
 10
42.56625583901149
 20
26.90068066644429
 30
0.0
  0
VERTEX
  5
177
  8
CLAMPBASE
 10
42.23591807219604
 20
26.38540243727301
 30
0.0
  0
VERTEX
  5
178
  8
CLAMPBASE
 10
41.93011893457481
 20
25.85356524086907
 30
0.0
  0
VERTEX
  5
179
  8
CLAMPBASE
 10
41.64965638522648
 20
25.30596703862568
 30
0.0
  0
VERTEX
  5
17A
  8
CLAMPBASE
 10
41.51917569336675
 20
25.02650692324957
 30
0.0
  0
VERTEX
  5
17B
  8
CLAMPBASE
 10
41.39532838322976
 20
24.74340579193604
 30
0.0
  0
VERTEX
  5
17C
  8
CLAMPBASE
 10
41.27821419970035
 20
24.45676338985926
 30
0.0
  0
VERTEX
  5
17D
  8
CLAMPBASE
 10
41.16793288766337
 20
24.16667946219336
 30
0.0
  0
VERTEX
  5
17E
  8
CLAMPBASE
 10
41.06458419200365
 20
23.8732537541125
 30
0.0
  0
VERTEX
  5
17F
  8
CLAMPBASE
 10
40.96826785760603
 20
23.57658601079082
 30
0.0
  0
VERTEX
  5
180
  8
CLAMPBASE
 10
40.87908362935535
 20
23.27677597740249
 30
0.0
  0
VERTEX
  5
181
  8
CLAMPBASE
 10
40.79713125213644
 20
22.97392339912164
 30
0.0
  0
VERTEX
  5
182
  8
CLAMPBASE
 10
40.72251047083414
 20
22.66812802112243
 30
0.0
  0
VERTEX
  5
183
  8
CLAMPBASE
 10
40.65532103033329
 20
22.35948958857901
 30
0.0
  0
VERTEX
  5
184
  8
CLAMPBASE
 10
40.59566267551874
 20
22.04810784666553
 30
0.0
  0
VERTEX
  5
185
  8
CLAMPBASE
 10
40.54363515127531
 20
21.73408254055613
 30
0.0
  0
VERTEX
  5
186
  8
CLAMPBASE
 10
40.49933820248786
 20
21.41751341542498
 30
0.0
  0
VERTEX
  5
187
  8
CLAMPBASE
 10
40.46287157404121
 20
21.09850021644621
 30
0.0
  0
VERTEX
  5
188
  8
CLAMPBASE
 10
40.43433501082021
 20
20.77714268879399
 30
0.0
  0
VERTEX
  5
189
  8
CLAMPBASE
 10
40.4138282577097
 20
20.45354057764245
 30
0.0
  0
VERTEX
  5
18A
  8
CLAMPBASE
 10
40.4014510595945
 20
20.12779362816575
 30
0.0
  0
VERTEX
  5
18B
  8
CLAMPBASE
 10
40.39730316135947
 20
19.80000158553804
 30
0.0
  0
VERTEX
  5
18C
  8
CLAMPBASE
 10
40.39730316135947
 20
-19.8000332906417
 30
0.0
  0
VERTEX
  5
18D
  8
CLAMPBASE
 10
40.40145107679047
 20
-20.12782603690271
 30
0.0
  0
VERTEX
  5
18E
  8
CLAMPBASE
 10
40.41382832600314
 20
-20.45357367658092
 30
0.0
  0
VERTEX
  5
18F
  8
CLAMPBASE
 10
40.43433516337703
 20
-20.77717646407124
 30
0.0
  0
VERTEX
  5
190
  8
CLAMPBASE
 10
40.46287184329164
 20
-21.09853465376861
 30
0.0
  0
VERTEX
  5
191
  8
CLAMPBASE
 10
40.49933862012654
 20
-21.41754850006795
 30
0.0
  0
VERTEX
  5
192
  8
CLAMPBASE
 10
40.54363574826124
 20
-21.73411825736419
 30
0.0
  0
VERTEX
  5
193
  8
CLAMPBASE
 10
40.59566348207527
 20
-22.04814418005226
 30
0.0
  0
VERTEX
  5
194
  8
CLAMPBASE
 10
40.65532207594816
 20
-22.35952652252709
 30
0.0
  0
VERTEX
  5
195
  8
CLAMPBASE
 10
40.72251178425946
 20
-22.66816553918359
 30
0.0
  0
VERTEX
  5
196
  8
CLAMPBASE
 10
40.79713286138868
 20
-22.97396148441671
 30
0.0
  0
VERTEX
  5
197
  8
CLAMPBASE
 10
40.87908556171536
 20
-23.27681461262135
 30
0.0
  0
VERTEX
  5
198
  8
CLAMPBASE
 10
40.96827013961903
 20
-23.57662517819246
 30
0.0
  0
VERTEX
  5
199
  8
CLAMPBASE
 10
41.06458684947922
 20
-23.87329343552496
 30
0.0
  0
VERTEX
  5
19A
  8
CLAMPBASE
 10
41.16793594567547
 20
-24.16671963901377
 30
0.0
  0
VERTEX
  5
19B
  8
CLAMPBASE
 10
41.2782176825873
 20
-24.45680404305383
 30
0.0
  0
VERTEX
  5
19C
  8
CLAMPBASE
 10
41.39533231459424
 20
-24.74344690204006
 30
0.0
  0
VERTEX
  5
19D
  8
CLAMPBASE
 10
41.51918009607583
 20
-25.02654847036738
 30
0.0
  0
VERTEX
  5
19E
  8
CLAMPBASE
 10
41.6496612814116
 20
-25.30600900243072
 30
0.0
  0
VERTEX
  5
19F
  8
CLAMPBASE
 10
41.93012488116381
 20
-25.85360797534519
 30
0.0
  0
VERTEX
  5
1A0
  8
CLAMPBASE
 10
42.23592514888709
 20
-26.38544585594287
 30
0.0
  0
VERTEX
  5
1A1
  8
CLAMPBASE
 10
42.56626411961771
 20
-26.90072467938318
 30
0.0
  0
VERTEX
  5
1A2
  8
CLAMPBASE
 10
42.92034382839192
 20
-27.39864648082554
 30
0.0
  0
VERTEX
  5
1A3
  8
CLAMPBASE
 10
43.29736631024596
 20
-27.87841329542936
 30
0.0
  0
VERTEX
  5
1A4
  8
CLAMPBASE
 10
43.6965336002161
 20
-28.33922715835406
 30
0.0
  0
VERTEX
  5
1A5
  8
CLAMPBASE
 10
44.11704773333857
 20
-28.78029010475905
 30
0.0
  0
VERTEX
  5
1A6
  8
CLAMPBASE
 10
44.55811074464962
 20
-29.20080416980375
 30
0.0
  0
VERTEX
  5
1A7
  8
CLAMPBASE
 10
45.01892466918551
 20
-29.59997138864756
 30
0.0
  0
VERTEX
  5
1A8
  8
CLAMPBASE
 10
45.4986915419825
 20
-29.97699379644992
 30
0.0
  0
VERTEX
  5
1A9
  8
CLAMPBASE
 10
45.99661339807681
 20
-30.33107342837023
 30
0.0
  0
VERTEX
  5
1AA
  8
CLAMPBASE
 10
46.51189227250471
 20
-30.66141231956791
 30
0.0
  0
VERTEX
  5
1AB
  8
CLAMPBASE
 10
47.04373020030245
 20
-30.96721250520238
 30
0.0
  0
VERTEX
  5
1AC
  8
CLAMPBASE
 10
47.59132921650628
 20
-31.24767602043304
 30
0.0
  0
VERTEX
  5
1AD
  8
CLAMPBASE
 10
47.8707897687093
 20
-31.37815716263426
 30
0.0
  0
VERTEX
  5
1AE
  8
CLAMPBASE
 10
48.15389135615244
 20
-31.50200490041932
 30
0.0
  0
VERTEX
  5
1AF
  8
CLAMPBASE
 10
48.44053423321523
 20
-31.61911948818313
 30
0.0
  0
VERTEX
  5
1B0
  8
CLAMPBASE
 10
48.73061865427719
 20
-31.72940118032063
 30
0.0
  0
VERTEX
  5
1B1
  8
CLAMPBASE
 10
49.02404487371787
 20
-31.83275023122673
 30
0.0
  0
VERTEX
  5
1B2
  8
CLAMPBASE
 10
49.32071314591678
 20
-31.92906689529638
 30
0.0
  0
VERTEX
  5
1B3
  8
CLAMPBASE
 10
49.62052372525347
 20
-32.01825142692449
 30
0.0
  0
VERTEX
  5
1B4
  8
CLAMPBASE
 10
49.92337686610746
 20
-32.10020408050599
 30
0.0
  0
VERTEX
  5
1B5
  8
CLAMPBASE
 10
50.22917282285829
 20
-32.17482511043582
 30
0.0
  0
VERTEX
  5
1B6
  8
CLAMPBASE
 10
50.53781184988547
 20
-32.24201477110888
 30
0.0
  0
VERTEX
  5
1B7
  8
CLAMPBASE
 10
50.84919420156856
 20
-32.30167331692012
 30
0.0
  0
VERTEX
  5
1B8
  8
CLAMPBASE
 10
51.16322013228707
 20
-32.35370100226447
 30
0.0
  0
VERTEX
  5
1B9
  8
CLAMPBASE
 10
51.47978989642054
 20
-32.39799808153683
 30
0.0
  0
VERTEX
  5
1BA
  8
CLAMPBASE
 10
51.7988037483485
 20
-32.43446480913215
 30
0.0
  0
VERTEX
  5
1BB
  8
CLAMPBASE
 10
52.12016194245049
 20
-32.46300143944536
 30
0.0
  0
VERTEX
  5
1BC
  8
CLAMPBASE
 10
52.44376473310604
 20
-32.48350822687136
 30
0.0
  0
VERTEX
  5
1BD
  8
CLAMPBASE
 10
52.76951237469466
 20
-32.49588542580511
 30
0.0
  0
VERTEX
  5
1BE
  8
CLAMPBASE
 10
53.09730512159589
 20
-32.50003329064151
 30
0.0
  0
SEQEND
  5
1BF
  8
CLAMPBASE
  0
ENDSEC
  0
EOF
