  0
SECTION
  2
HEADER
  9
$ACADVER
  1
AC1009
  9
$DWGCODEPAGE
  3
ansi_1252
  9
$INSBASE
 10
0.0
 20
0.0
 30
0.0
  9
$EXTMIN
 10
-128.4200489248602
 20
-32.50003469613551
 30
0.0
  9
$EXTMAX
 10
128.4200489248602
 20
32.50003211816859
 30
0.0
  9
$LIMMIN
 10
0.0
 20
0.0
  9
$LIMMAX
 10
12.0
 20
9.0
  9
$ORTHOMODE
 70
     0
  9
$REGENMODE
 70
     1
  9
$FILLMODE
 70
     1
  9
$QTEXTMODE
 70
     0
  9
$MIRRTEXT
 70
     1
  9
$DRAGMODE
 70
     2
  9
$LTSCALE
 40
1.0
  9
$OSMODE
 70
    37
  9
$ATTMODE
 70
     1
  9
$TEXTSIZE
 40
0.2
  9
$TRACEWID
 40
0.05
  9
$TEXTSTYLE
  7
STANDARD
  9
$CLAYER
  8
0
  9
$CELTYPE
  6
BYLAYER
  9
$CECOLOR
 62
   256
  9
$DIMSCALE
 40
1.0
  9
$DIMASZ
 40
0.18
  9
$DIMEXO
 40
0.0625
  9
$DIMDLI
 40
0.38
  9
$DIMRND
 40
0.0
  9
$DIMDLE
 40
0.0
  9
$DIMEXE
 40
0.18
  9
$DIMTP
 40
0.0
  9
$DIMTM
 40
0.0
  9
$DIMTXT
 40
0.18
  9
$DIMCEN
 40
0.09
  9
$DIMTSZ
 40
0.0
  9
$DIMTOL
 70
     0
  9
$DIMLIM
 70
     0
  9
$DIMTIH
 70
     1
  9
$DIMTOH
 70
     1
  9
$DIMSE1
 70
     0
  9
$DIMSE2
 70
     0
  9
$DIMTAD
 70
     0
  9
$DIMZIN
 70
     0
  9
$DIMBLK
  1

  9
$DIMASO
 70
     1
  9
$DIMSHO
 70
     1
  9
$DIMPOST
  1

  9
$DIMAPOST
  1

  9
$DIMALT
 70
     0
  9
$DIMALTD
 70
     2
  9
$DIMALTF
 40
25.4
  9
$DIMLFAC
 40
1.0
  9
$DIMTOFL
 70
     0
  9
$DIMTVP
 40
0.0
  9
$DIMTIX
 70
     0
  9
$DIMSOXD
 70
     0
  9
$DIMSAH
 70
     0
  9
$DIMBLK1
  1

  9
$DIMBLK2
  1

  9
$DIMSTYLE
  2
STANDARD
  9
$DIMCLRD
 70
     0
  9
$DIMCLRE
 70
     0
  9
$DIMCLRT
 70
     0
  9
$DIMTFAC
 40
1.0
  9
$DIMGAP
 40
0.09
  9
$LUNITS
 70
     2
  9
$LUPREC
 70
     4
  9
$SKETCHINC
 40
0.1
  9
$FILLETRAD
 40
0.5
  9
$AUNITS
 70
     0
  9
$AUPREC
 70
     0
  9
$MENU
  1
.
  9
$ELEVATION
 40
0.0
  9
$PELEVATION
 40
0.0
  9
$THICKNESS
 40
0.0
  9
$LIMCHECK
 70
     0
  9
$CHAMFERA
 40
0.5
  9
$CHAMFERB
 40
0.5
  9
$SKPOLY
 70
     0
  9
$TDCREATE
 40
2454910.5
  9
$TDUPDATE
 40
2457663.874890787
  9
$TDINDWG
 40
0.0000000116
  9
$TDUSRTIMER
 40
0.0000000116
  9
$USRTIMER
 70
     1
  9
$ANGBASE
 50
0.0
  9
$ANGDIR
 70
     0
  9
$PDMODE
 70
     0
  9
$PDSIZE
 40
0.0
  9
$PLINEWID
 40
0.0
  9
$COORDS
 70
     1
  9
$SPLFRAME
 70
     0
  9
$SPLINETYPE
 70
     6
  9
$SPLINESEGS
 70
     8
  9
$ATTDIA
 70
     0
  9
$ATTREQ
 70
     1
  9
$HANDLING
 70
     1
  9
$HANDSEED
  5
2DF
  9
$SURFTAB1
 70
     6
  9
$SURFTAB2
 70
     6
  9
$SURFTYPE
 70
     6
  9
$SURFU
 70
     6
  9
$SURFV
 70
     6
  9
$UCSNAME
  2

  9
$UCSORG
 10
0.0
 20
0.0
 30
0.0
  9
$UCSXDIR
 10
1.0
 20
0.0
 30
0.0
  9
$UCSYDIR
 10
0.0
 20
1.0
 30
0.0
  9
$PUCSNAME
  2

  9
$PUCSORG
 10
0.0
 20
0.0
 30
0.0
  9
$PUCSXDIR
 10
1.0
 20
0.0
 30
0.0
  9
$PUCSYDIR
 10
0.0
 20
1.0
 30
0.0
  9
$USERI1
 70
     0
  9
$USERI2
 70
     0
  9
$USERI3
 70
     0
  9
$USERI4
 70
     0
  9
$USERI5
 70
     0
  9
$USERR1
 40
0.0
  9
$USERR2
 40
0.0
  9
$USERR3
 40
0.0
  9
$USERR4
 40
0.0
  9
$USERR5
 40
0.0
  9
$WORLDVIEW
 70
     1
  9
$SHADEDGE
 70
     3
  9
$SHADEDIF
 70
    70
  9
$TILEMODE
 70
     1
  9
$MAXACTVP
 70
    64
  9
$PLIMCHECK
 70
     0
  9
$PEXTMIN
 10
1.000000000000000E+20
 20
1.000000000000000E+20
 30
1.000000000000000E+20
  9
$PEXTMAX
 10
-1.000000000000000E+20
 20
-1.000000000000000E+20
 30
-1.000000000000000E+20
  9
$PLIMMIN
 10
0.0
 20
0.0
  9
$PLIMMAX
 10
12.0
 20
9.0
  9
$UNITMODE
 70
     0
  9
$VISRETAIN
 70
     1
  9
$PLINEGEN
 70
     0
  9
$PSLTSCALE
 70
     1
  0
ENDSEC
  0
SECTION
  2
TABLES
  0
TABLE
  2
VPORT
 70
     1
  0
VPORT
  2
*ACTIVE
 70
     0
 10
0.0
 20
0.0
 11
1.0
 21
1.0
 12
10.42990654205607
 22
4.5
 13
0.0
 23
0.0
 14
0.5
 24
0.5
 15
0.5
 25
0.5
 16
0.0
 26
0.0
 36
1.0
 17
0.0
 27
0.0
 37
0.0
 40
9.0
 41
1.972972972850329
 42
50.0
 43
0.0
 44
0.0
 50
0.0
 51
0.0
 71
     0
 72
   100
 73
     1
 74
     3
 75
     0
 76
     0
 77
     0
 78
     0
  0
ENDTAB
  0
TABLE
  2
LTYPE
 70
     2
  0
LTYPE
  2
CONTINUOUS
 70
     0
  3
Solid line
 72
    65
 73
     0
 40
0.0
  0
LTYPE
  2
CONTINUOUS2
 70
     0
  3
Solid Line
 72
    65
 73
     0
 40
0.0
  0
ENDTAB
  0
TABLE
  2
LAYER
 70
     1
  0
LAYER
  2
0
 70
     0
 62
     7
  6
CONTINUOUS
  0
ENDTAB
  0
TABLE
  2
STYLE
 70
     1
  0
STYLE
  2
STANDARD
 70
     0
 40
0.0
 41
1.0
 50
0.0
 71
     0
 42
0.2
  3
txt
  4

  0
ENDTAB
  0
TABLE
  2
VIEW
 70
     0
  0
ENDTAB
  0
TABLE
  2
UCS
 70
     0
  0
ENDTAB
  0
TABLE
  2
APPID
 70
     1
  0
APPID
  2
ACAD
 70
     0
  0
ENDTAB
  0
TABLE
  2
DIMSTYLE
 70
     1
  0
DIMSTYLE
  2
STANDARD
 70
     0
  3

  4

  5

  6

  7

 40
1.0
 41
0.18
 42
0.0625
 43
0.38
 44
0.18
 45
0.0
 46
0.0
 47
0.0
 48
0.0
140
0.18
141
0.09
142
0.0
143
25.4
144
1.0
145
0.0
146
1.0
147
0.09
 71
     0
 72
     0
 73
     1
 74
     1
 75
     0
 76
     0
 77
     0
 78
     0
170
     0
171
     2
172
     0
173
     0
174
     0
175
     0
176
     0
177
     0
178
     0
  0
ENDTAB
  0
ENDSEC
  0
SECTION
  2
BLOCKS
  0
BLOCK
  8
0
  2
$MODEL_SPACE
 70
     0
 10
0.0
 20
0.0
 30
0.0
  3
$MODEL_SPACE
  1

  0
ENDBLK
  5
21
  8
0
  0
BLOCK
 67
     1
  8
0
  2
$PAPER_SPACE
 70
     0
 10
0.0
 20
0.0
 30
0.0
  3
$PAPER_SPACE
  1

  0
ENDBLK
  5
1D
 67
     1
  8
0
  0
ENDSEC
  0
SECTION
  2
ENTITIES
  0
POLYLINE
  5
40
  8
0
 66
     1
 10
0.0
 20
0.0
 30
0.0
 70
     1
  0
VERTEX
  5
52
  8
0
 10
113.4197720370821
 20
-0.0000285182921971
 30
0.0
  0
VERTEX
  5
53
  8
0
 10
113.4132398881654
 20
-0.5162375115352452
 30
0.0
  0
VERTEX
  5
54
  8
0
 10
113.3937481611875
 20
-1.029225865559154
 30
0.0
  0
VERTEX
  5
55
  8
0
 10
113.3614539358074
 20
-1.538836500705184
 30
0.0
  0
VERTEX
  5
56
  8
0
 10
113.3165142916836
 20
-2.044912337314594
 30
0.0
  0
VERTEX
  5
57
  8
0
 10
113.259086308475
 20
-2.547296295728643
 30
0.0
  0
VERTEX
  5
58
  8
0
 10
113.1893270658404
 20
-3.04583129628859
 30
0.0
  0
VERTEX
  5
59
  8
0
 10
113.1073936434384
 20
-3.540360259335695
 30
0.0
  0
VERTEX
  5
5A
  8
0
 10
113.0134431209277
 20
-4.030726105211217
 30
0.0
  0
VERTEX
  5
5B
  8
0
 10
112.9076325779672
 20
-4.516771754256416
 30
0.0
  0
VERTEX
  5
5C
  8
0
 10
112.7901190942155
 20
-4.99834012681255
 30
0.0
  0
VERTEX
  5
5D
  8
0
 10
112.6610597493315
 20
-5.475274143220879
 30
0.0
  0
VERTEX
  5
5E
  8
0
 10
112.5206116229738
 20
-5.947416723822665
 30
0.0
  0
VERTEX
  5
5F
  8
0
 10
112.3689317948012
 20
-6.414610788959163
 30
0.0
  0
VERTEX
  5
60
  8
0
 10
112.2061773444724
 20
-6.876699258971634
 30
0.0
  0
VERTEX
  5
61
  8
0
 10
112.0325053516462
 20
-7.333525054201338
 30
0.0
  0
VERTEX
  5
62
  8
0
 10
111.8480728959813
 20
-7.784931094989533
 30
0.0
  0
VERTEX
  5
63
  8
0
 10
111.6530370571364
 20
-8.23076030167748
 30
0.0
  0
VERTEX
  5
64
  8
0
 10
111.4475549147703
 20
-8.670855594606437
 30
0.0
  0
VERTEX
  5
65
  8
0
 10
111.2317835485418
 20
-9.105059894117664
 30
0.0
  0
VERTEX
  5
66
  8
0
 10
111.0058800381095
 20
-9.53321612055242
 30
0.0
  0
VERTEX
  5
67
  8
0
 10
110.7700014631323
 20
-9.955167194251965
 30
0.0
  0
VERTEX
  5
68
  8
0
 10
110.5243049032688
 20
-10.37075603555756
 30
0.0
  0
VERTEX
  5
69
  8
0
 10
110.2689474381777
 20
-10.77982556481046
 30
0.0
  0
VERTEX
  5
6A
  8
0
 10
110.004086147518
 20
-11.18221870235192
 30
0.0
  0
VERTEX
  5
6B
  8
0
 10
109.7298781109482
 20
-11.57777836852321
 30
0.0
  0
VERTEX
  5
6C
  8
0
 10
109.4464804081271
 20
-11.96634748366559
 30
0.0
  0
VERTEX
  5
6D
  8
0
 10
109.1540501187135
 20
-12.34776896812031
 30
0.0
  0
VERTEX
  5
6E
  8
0
 10
108.852744322366
 20
-12.72188574222864
 30
0.0
  0
VERTEX
  5
6F
  8
0
 10
108.5427200987436
 20
-13.08854072633182
 30
0.0
  0
VERTEX
  5
70
  8
0
 10
108.2241345275047
 20
-13.44757684077114
 30
0.0
  0
VERTEX
  5
71
  8
0
 10
107.8971446883083
 20
-13.79883700588783
 30
0.0
  0
VERTEX
  5
72
  8
0
 10
107.5619076608131
 20
-14.14216414202316
 30
0.0
  0
VERTEX
  5
73
  8
0
 10
107.2185805246777
 20
-14.4774011695184
 30
0.0
  0
VERTEX
  5
74
  8
0
 10
106.8673203595611
 20
-14.80439100871479
 30
0.0
  0
VERTEX
  5
75
  8
0
 10
106.5082842451217
 20
-15.1229765799536
 30
0.0
  0
VERTEX
  5
76
  8
0
 10
106.1416292610186
 20
-15.4330008035761
 30
0.0
  0
VERTEX
  5
77
  8
0
 10
105.7675124869102
 20
-15.73430659992352
 30
0.0
  0
VERTEX
  5
78
  8
0
 10
105.3860910024555
 20
-16.02673688933715
 30
0.0
  0
VERTEX
  5
79
  8
0
 10
104.9975218873131
 20
-16.31013459215824
 30
0.0
  0
VERTEX
  5
7A
  8
0
 10
104.6019622211418
 20
-16.58434262872803
 30
0.0
  0
VERTEX
  5
7B
  8
0
 10
104.1995690836004
 20
-16.84920391938781
 30
0.0
  0
VERTEX
  5
7C
  8
0
 10
103.7904995543475
 20
-17.10456138447882
 30
0.0
  0
VERTEX
  5
7D
  8
0
 10
103.3749107130419
 20
-17.35025794434232
 30
0.0
  0
VERTEX
  5
7E
  8
0
 10
102.9529596393423
 20
-17.58613651931957
 30
0.0
  0
VERTEX
  5
7F
  8
0
 10
102.5248034129076
 20
-17.81204002975184
 30
0.0
  0
VERTEX
  5
80
  8
0
 10
102.0905991133964
 20
-18.02781139598038
 30
0.0
  0
VERTEX
  5
81
  8
0
 10
101.6505038204674
 20
-18.23329353834645
 30
0.0
  0
VERTEX
  5
82
  8
0
 10
101.2046746137794
 20
-18.42832937719131
 30
0.0
  0
VERTEX
  5
83
  8
0
 10
100.7532685729912
 20
-18.61276183285622
 30
0.0
  0
VERTEX
  5
84
  8
0
 10
100.2964427777615
 20
-18.78643382568244
 30
0.0
  0
VERTEX
  5
85
  8
0
 10
99.83435430774907
 20
-18.94918827601123
 30
0.0
  0
VERTEX
  5
86
  8
0
 10
99.36716024261258
 20
-19.10086810418385
 30
0.0
  0
VERTEX
  5
87
  8
0
 10
98.89501766201079
 20
-19.24131623054155
 30
0.0
  0
VERTEX
  5
88
  8
0
 10
98.41808364560247
 20
-19.3703755754256
 30
0.0
  0
VERTEX
  5
89
  8
0
 10
97.93651527304634
 20
-19.48788905917725
 30
0.0
  0
VERTEX
  5
8A
  8
0
 10
97.45046962400113
 20
-19.59369960213777
 30
0.0
  0
VERTEX
  5
8B
  8
0
 10
96.96010377812561
 20
-19.68765012464841
 30
0.0
  0
VERTEX
  5
8C
  8
0
 10
96.4655748150785
 20
-19.76958354705044
 30
0.0
  0
VERTEX
  5
8D
  8
0
 10
95.96703981451856
 20
-19.83934278968512
 30
0.0
  0
VERTEX
  5
8E
  8
0
 10
95.46465585610451
 20
-19.89677077289369
 30
0.0
  0
VERTEX
  5
8F
  8
0
 10
94.95858001949509
 20
-19.94171041701743
 30
0.0
  0
VERTEX
  5
90
  8
0
 10
94.44896938434907
 20
-19.97400464239758
 30
0.0
  0
VERTEX
  5
91
  8
0
 10
93.93598103032517
 20
-19.99349636937542
 30
0.0
  0
VERTEX
  5
92
  8
0
 10
93.41977203708211
 20
-20.0000285182922
 30
0.0
  0
VERTEX
  5
93
  8
0
 10
92.90356304383907
 20
-19.99349636937542
 30
0.0
  0
VERTEX
  5
94
  8
0
 10
92.39057468981517
 20
-19.97400464239758
 30
0.0
  0
VERTEX
  5
95
  8
0
 10
91.88096405466915
 20
-19.94171041701743
 30
0.0
  0
VERTEX
  5
96
  8
0
 10
91.37488821805974
 20
-19.89677077289369
 30
0.0
  0
VERTEX
  5
97
  8
0
 10
90.8725042596457
 20
-19.83934278968512
 30
0.0
  0
VERTEX
  5
98
  8
0
 10
90.37396925908574
 20
-19.76958354705044
 30
0.0
  0
VERTEX
  5
99
  8
0
 10
89.87944029603862
 20
-19.68765012464841
 30
0.0
  0
VERTEX
  5
9A
  8
0
 10
89.38907445016311
 20
-19.59369960213777
 30
0.0
  0
VERTEX
  5
9B
  8
0
 10
88.90302880111791
 20
-19.48788905917725
 30
0.0
  0
VERTEX
  5
9C
  8
0
 10
88.42146042856179
 20
-19.3703755754256
 30
0.0
  0
VERTEX
  5
9D
  8
0
 10
87.94452641215346
 20
-19.24131623054155
 30
0.0
  0
VERTEX
  5
9E
  8
0
 10
87.47238383155167
 20
-19.10086810418385
 30
0.0
  0
VERTEX
  5
9F
  8
0
 10
87.00518976641519
 20
-18.94918827601123
 30
0.0
  0
VERTEX
  5
A0
  8
0
 10
86.54310129640271
 20
-18.78643382568244
 30
0.0
  0
VERTEX
  5
A1
  8
0
 10
86.08627550117299
 20
-18.61276183285622
 30
0.0
  0
VERTEX
  5
A2
  8
0
 10
85.6348694603848
 20
-18.42832937719131
 30
0.0
  0
VERTEX
  5
A3
  8
0
 10
85.18904025369685
 20
-18.23329353834645
 30
0.0
  0
VERTEX
  5
A4
  8
0
 10
84.7489449607679
 20
-18.02781139598038
 30
0.0
  0
VERTEX
  5
A5
  8
0
 10
84.31474066125666
 20
-17.81204002975184
 30
0.0
  0
VERTEX
  5
A6
  8
0
 10
83.88658443482191
 20
-17.58613651931957
 30
0.0
  0
VERTEX
  5
A7
  8
0
 10
83.46463336112237
 20
-17.35025794434232
 30
0.0
  0
VERTEX
  5
A8
  8
0
 10
83.04904451981679
 20
-17.10456138447882
 30
0.0
  0
VERTEX
  5
A9
  8
0
 10
82.63997499056389
 20
-16.84920391938781
 30
0.0
  0
VERTEX
  5
AA
  8
0
 10
82.23758185302242
 20
-16.58434262872803
 30
0.0
  0
VERTEX
  5
AB
  8
0
 10
81.84202218685112
 20
-16.31013459215824
 30
0.0
  0
VERTEX
  5
AC
  8
0
 10
81.45345307170874
 20
-16.02673688933715
 30
0.0
  0
VERTEX
  5
AD
  8
0
 10
81.07203158725402
 20
-15.73430659992352
 30
0.0
  0
VERTEX
  5
AE
  8
0
 10
80.6979148131457
 20
-15.4330008035761
 30
0.0
  0
VERTEX
  5
AF
  8
0
 10
80.33125982904252
 20
-15.1229765799536
 30
0.0
  0
VERTEX
  5
B0
  8
0
 10
79.97222371460322
 20
-14.80439100871479
 30
0.0
  0
VERTEX
  5
B1
  8
0
 10
79.62096354948653
 20
-14.4774011695184
 30
0.0
  0
VERTEX
  5
B2
  8
0
 10
79.27763641335119
 20
-14.14216414202316
 30
0.0
  0
VERTEX
  5
B3
  8
0
 10
78.94239938585594
 20
-13.79883700588783
 30
0.0
  0
VERTEX
  5
B4
  8
0
 10
78.61540954665955
 20
-13.44757684077114
 30
0.0
  0
VERTEX
  5
B5
  8
0
 10
78.29682397542074
 20
-13.08854072633182
 30
0.0
  0
VERTEX
  5
B6
  8
0
 10
77.98679975179826
 20
-12.72188574222864
 30
0.0
  0
VERTEX
  5
B7
  8
0
 10
77.68549395545084
 20
-12.34776896812031
 30
0.0
  0
VERTEX
  5
B8
  8
0
 10
77.39306366603721
 20
-11.96634748366559
 30
0.0
  0
VERTEX
  5
B9
  8
0
 10
77.10966596321612
 20
-11.57777836852321
 30
0.0
  0
VERTEX
  5
BA
  8
0
 10
76.83545792664631
 20
-11.18221870235192
 30
0.0
  0
VERTEX
  5
BB
  8
0
 10
76.57059663598653
 20
-10.77982556481046
 30
0.0
  0
VERTEX
  5
BC
  8
0
 10
76.31523917089552
 20
-10.37075603555756
 30
0.0
  0
VERTEX
  5
BD
  8
0
 10
76.06954261103203
 20
-9.955167194251965
 30
0.0
  0
VERTEX
  5
BE
  8
0
 10
75.83366403605478
 20
-9.53321612055242
 30
0.0
  0
VERTEX
  5
BF
  8
0
 10
75.60776052562251
 20
-9.105059894117664
 30
0.0
  0
VERTEX
  5
C0
  8
0
 10
75.39198915939397
 20
-8.670855594606437
 30
0.0
  0
VERTEX
  5
C1
  8
0
 10
75.1865070170279
 20
-8.23076030167748
 30
0.0
  0
VERTEX
  5
C2
  8
0
 10
74.99147117818305
 20
-7.784931094989533
 30
0.0
  0
VERTEX
  5
C3
  8
0
 10
74.80703872251814
 20
-7.333525054201338
 30
0.0
  0
VERTEX
  5
C4
  8
0
 10
74.63336672969191
 20
-6.876699258971634
 30
0.0
  0
VERTEX
  5
C5
  8
0
 10
74.47061227936311
 20
-6.414610788959163
 30
0.0
  0
VERTEX
  5
C6
  8
0
 10
74.3189324511905
 20
-5.947416723822665
 30
0.0
  0
VERTEX
  5
C7
  8
0
 10
74.17848432483281
 20
-5.475274143220879
 30
0.0
  0
VERTEX
  5
C8
  8
0
 10
74.04942497994877
 20
-4.99834012681255
 30
0.0
  0
VERTEX
  5
C9
  8
0
 10
73.93191149619712
 20
-4.516771754256416
 30
0.0
  0
VERTEX
  5
CA
  8
0
 10
73.82610095323659
 20
-4.030726105211217
 30
0.0
  0
VERTEX
  5
CB
  8
0
 10
73.73215043072595
 20
-3.540360259335695
 30
0.0
  0
VERTEX
  5
CC
  8
0
 10
73.65021700832392
 20
-3.04583129628859
 30
0.0
  0
VERTEX
  5
CD
  8
0
 10
73.58045776568926
 20
-2.547296295728643
 30
0.0
  0
VERTEX
  5
CE
  8
0
 10
73.52302978248068
 20
-2.044912337314594
 30
0.0
  0
VERTEX
  5
CF
  8
0
 10
73.47809013835695
 20
-1.538836500705184
 30
0.0
  0
VERTEX
  5
D0
  8
0
 10
73.44579591297679
 20
-1.029225865559154
 30
0.0
  0
VERTEX
  5
D1
  8
0
 10
73.42630418599896
 20
-0.5162375115352452
 30
0.0
  0
VERTEX
  5
D2
  8
0
 10
73.41977203708217
 20
-0.0000285182921971
 30
0.0
  0
VERTEX
  5
D3
  8
0
 10
73.42630418599896
 20
0.5161804749508497
 30
0.0
  0
VERTEX
  5
D4
  8
0
 10
73.44579591297679
 20
1.029168828974758
 30
0.0
  0
VERTEX
  5
D5
  8
0
 10
73.47809013835695
 20
1.538779464120786
 30
0.0
  0
VERTEX
  5
D6
  8
0
 10
73.52302978248068
 20
2.044855300730195
 30
0.0
  0
VERTEX
  5
D7
  8
0
 10
73.58045776568926
 20
2.547239259144242
 30
0.0
  0
VERTEX
  5
D8
  8
0
 10
73.65021700832392
 20
3.045774259704189
 30
0.0
  0
VERTEX
  5
D9
  8
0
 10
73.73215043072595
 20
3.540303222751293
 30
0.0
  0
VERTEX
  5
DA
  8
0
 10
73.82610095323659
 20
4.030669068626814
 30
0.0
  0
VERTEX
  5
DB
  8
0
 10
73.93191149619712
 20
4.516714717672011
 30
0.0
  0
VERTEX
  5
DC
  8
0
 10
74.04942497994877
 20
4.998283090228146
 30
0.0
  0
VERTEX
  5
DD
  8
0
 10
74.17848432483281
 20
5.475217106636475
 30
0.0
  0
VERTEX
  5
DE
  8
0
 10
74.3189324511905
 20
5.947359687238258
 30
0.0
  0
VERTEX
  5
DF
  8
0
 10
74.47061227936311
 20
6.414553752374754
 30
0.0
  0
VERTEX
  5
E0
  8
0
 10
74.63336672969191
 20
6.876642222387225
 30
0.0
  0
VERTEX
  5
E1
  8
0
 10
74.80703872251814
 20
7.333468017616928
 30
0.0
  0
VERTEX
  5
E2
  8
0
 10
74.99147117818305
 20
7.784874058405123
 30
0.0
  0
VERTEX
  5
E3
  8
0
 10
75.1865070170279
 20
8.23070326509307
 30
0.0
  0
VERTEX
  5
E4
  8
0
 10
75.39198915939397
 20
8.670798558022025
 30
0.0
  0
VERTEX
  5
E5
  8
0
 10
75.60776052562251
 20
9.105002857533252
 30
0.0
  0
VERTEX
  5
E6
  8
0
 10
75.83366403605478
 20
9.533159083968009
 30
0.0
  0
VERTEX
  5
E7
  8
0
 10
76.06954261103203
 20
9.955110157667553
 30
0.0
  0
VERTEX
  5
E8
  8
0
 10
76.31523917089552
 20
10.37069899897315
 30
0.0
  0
VERTEX
  5
E9
  8
0
 10
76.57059663598653
 20
10.77976852822604
 30
0.0
  0
VERTEX
  5
EA
  8
0
 10
76.83545792664631
 20
11.18216166576751
 30
0.0
  0
VERTEX
  5
EB
  8
0
 10
77.10966596321612
 20
11.5777213319388
 30
0.0
  0
VERTEX
  5
EC
  8
0
 10
77.3930636660372
 20
11.96629044708118
 30
0.0
  0
VERTEX
  5
ED
  8
0
 10
77.68549395545081
 20
12.3477119315359
 30
0.0
  0
VERTEX
  5
EE
  8
0
 10
77.98679975179823
 20
12.72182870564422
 30
0.0
  0
VERTEX
  5
EF
  8
0
 10
78.29682397542072
 20
13.08848368974741
 30
0.0
  0
VERTEX
  5
F0
  8
0
 10
78.61540954665952
 20
13.44751980418672
 30
0.0
  0
VERTEX
  5
F1
  8
0
 10
78.94239938585591
 20
13.79877996930341
 30
0.0
  0
VERTEX
  5
F2
  8
0
 10
79.27763641335116
 20
14.14210710543875
 30
0.0
  0
VERTEX
  5
F3
  8
0
 10
79.6209635494865
 20
14.47734413293398
 30
0.0
  0
VERTEX
  5
F4
  8
0
 10
79.97222371460319
 20
14.80433397213038
 30
0.0
  0
VERTEX
  5
F5
  8
0
 10
80.3312598290425
 20
15.12291954336919
 30
0.0
  0
VERTEX
  5
F6
  8
0
 10
80.69791481314567
 20
15.43294376699168
 30
0.0
  0
VERTEX
  5
F7
  8
0
 10
81.07203158725399
 20
15.73424956333911
 30
0.0
  0
VERTEX
  5
F8
  8
0
 10
81.45345307170871
 20
16.02667985275274
 30
0.0
  0
VERTEX
  5
F9
  8
0
 10
81.8420221868511
 20
16.31007755557382
 30
0.0
  0
VERTEX
  5
FA
  8
0
 10
82.23758185302239
 20
16.58428559214362
 30
0.0
  0
VERTEX
  5
FB
  8
0
 10
82.63997499056386
 20
16.8491468828034
 30
0.0
  0
VERTEX
  5
FC
  8
0
 10
83.04904451981676
 20
17.1045043478944
 30
0.0
  0
VERTEX
  5
FD
  8
0
 10
83.46463336112234
 20
17.3502009077579
 30
0.0
  0
VERTEX
  5
FE
  8
0
 10
83.88658443482188
 20
17.58607948273516
 30
0.0
  0
VERTEX
  5
FF
  8
0
 10
84.31474066125664
 20
17.81198299316743
 30
0.0
  0
VERTEX
  5
100
  8
0
 10
84.74894496076787
 20
18.02775435939596
 30
0.0
  0
VERTEX
  5
101
  8
0
 10
85.18904025369682
 20
18.23323650176204
 30
0.0
  0
VERTEX
  5
102
  8
0
 10
85.63486946038478
 20
18.4282723406069
 30
0.0
  0
VERTEX
  5
103
  8
0
 10
86.08627550117296
 20
18.61270479627181
 30
0.0
  0
VERTEX
  5
104
  8
0
 10
86.54310129640268
 20
18.78637678909804
 30
0.0
  0
VERTEX
  5
105
  8
0
 10
87.00518976641516
 20
18.94913123942682
 30
0.0
  0
VERTEX
  5
106
  8
0
 10
87.47238383155164
 20
19.10081106759944
 30
0.0
  0
VERTEX
  5
107
  8
0
 10
87.94452641215344
 20
19.24125919395714
 30
0.0
  0
VERTEX
  5
108
  8
0
 10
88.42146042856176
 20
19.37031853884119
 30
0.0
  0
VERTEX
  5
109
  8
0
 10
88.90302880111788
 20
19.48783202259285
 30
0.0
  0
VERTEX
  5
10A
  8
0
 10
89.38907445016308
 20
19.59364256555337
 30
0.0
  0
VERTEX
  5
10B
  8
0
 10
89.8794402960386
 20
19.68759308806401
 30
0.0
  0
VERTEX
  5
10C
  8
0
 10
90.37396925908571
 20
19.76952651046604
 30
0.0
  0
VERTEX
  5
10D
  8
0
 10
90.87250425964567
 20
19.83928575310072
 30
0.0
  0
VERTEX
  5
10E
  8
0
 10
91.37488821805971
 20
19.89671373630929
 30
0.0
  0
VERTEX
  5
10F
  8
0
 10
91.88096405466912
 20
19.94165338043303
 30
0.0
  0
VERTEX
  5
110
  8
0
 10
92.39057468981514
 20
19.97394760581319
 30
0.0
  0
VERTEX
  5
111
  8
0
 10
92.90356304383904
 20
19.99343933279103
 30
0.0
  0
VERTEX
  5
112
  8
0
 10
93.41977203708208
 20
19.9999714817078
 30
0.0
  0
VERTEX
  5
113
  8
0
 10
93.93598103032514
 20
19.99343933279103
 30
0.0
  0
VERTEX
  5
114
  8
0
 10
94.44896938434904
 20
19.97394760581319
 30
0.0
  0
VERTEX
  5
115
  8
0
 10
94.95858001949506
 20
19.94165338043303
 30
0.0
  0
VERTEX
  5
116
  8
0
 10
95.46465585610449
 20
19.89671373630929
 30
0.0
  0
VERTEX
  5
117
  8
0
 10
95.96703981451853
 20
19.83928575310072
 30
0.0
  0
VERTEX
  5
118
  8
0
 10
96.46557481507847
 20
19.76952651046604
 30
0.0
  0
VERTEX
  5
119
  8
0
 10
96.96010377812559
 20
19.68759308806401
 30
0.0
  0
VERTEX
  5
11A
  8
0
 10
97.4504696240011
 20
19.59364256555337
 30
0.0
  0
VERTEX
  5
11B
  8
0
 10
97.93651527304631
 20
19.48783202259285
 30
0.0
  0
VERTEX
  5
11C
  8
0
 10
98.41808364560244
 20
19.37031853884119
 30
0.0
  0
VERTEX
  5
11D
  8
0
 10
98.89501766201076
 20
19.24125919395714
 30
0.0
  0
VERTEX
  5
11E
  8
0
 10
99.36716024261256
 20
19.10081106759944
 30
0.0
  0
VERTEX
  5
11F
  8
0
 10
99.83435430774904
 20
18.94913123942682
 30
0.0
  0
VERTEX
  5
120
  8
0
 10
100.2964427777615
 20
18.78637678909804
 30
0.0
  0
VERTEX
  5
121
  8
0
 10
100.7532685729912
 20
18.61270479627181
 30
0.0
  0
VERTEX
  5
122
  8
0
 10
101.2046746137794
 20
18.4282723406069
 30
0.0
  0
VERTEX
  5
123
  8
0
 10
101.6505038204674
 20
18.23323650176204
 30
0.0
  0
VERTEX
  5
124
  8
0
 10
102.0905991133963
 20
18.02775435939596
 30
0.0
  0
VERTEX
  5
125
  8
0
 10
102.5248034129076
 20
17.81198299316743
 30
0.0
  0
VERTEX
  5
126
  8
0
 10
102.9529596393423
 20
17.58607948273516
 30
0.0
  0
VERTEX
  5
127
  8
0
 10
103.3749107130419
 20
17.3502009077579
 30
0.0
  0
VERTEX
  5
128
  8
0
 10
103.7904995543475
 20
17.1045043478944
 30
0.0
  0
VERTEX
  5
129
  8
0
 10
104.1995690836004
 20
16.8491468828034
 30
0.0
  0
VERTEX
  5
12A
  8
0
 10
104.6019622211418
 20
16.58428559214362
 30
0.0
  0
VERTEX
  5
12B
  8
0
 10
104.9975218873131
 20
16.31007755557382
 30
0.0
  0
VERTEX
  5
12C
  8
0
 10
105.3860910024555
 20
16.02667985275274
 30
0.0
  0
VERTEX
  5
12D
  8
0
 10
105.7675124869102
 20
15.73424956333911
 30
0.0
  0
VERTEX
  5
12E
  8
0
 10
106.1416292610185
 20
15.43294376699168
 30
0.0
  0
VERTEX
  5
12F
  8
0
 10
106.5082842451217
 20
15.12291954336919
 30
0.0
  0
VERTEX
  5
130
  8
0
 10
106.867320359561
 20
14.80433397213038
 30
0.0
  0
VERTEX
  5
131
  8
0
 10
107.2185805246777
 20
14.47734413293398
 30
0.0
  0
VERTEX
  5
132
  8
0
 10
107.5619076608131
 20
14.14210710543875
 30
0.0
  0
VERTEX
  5
133
  8
0
 10
107.8971446883083
 20
13.79877996930341
 30
0.0
  0
VERTEX
  5
134
  8
0
 10
108.2241345275047
 20
13.44751980418672
 30
0.0
  0
VERTEX
  5
135
  8
0
 10
108.5427200987435
 20
13.08848368974741
 30
0.0
  0
VERTEX
  5
136
  8
0
 10
108.852744322366
 20
12.72182870564422
 30
0.0
  0
VERTEX
  5
137
  8
0
 10
109.1540501187134
 20
12.3477119315359
 30
0.0
  0
VERTEX
  5
138
  8
0
 10
109.4464804081271
 20
11.96629044708118
 30
0.0
  0
VERTEX
  5
139
  8
0
 10
109.7298781109481
 20
11.5777213319388
 30
0.0
  0
VERTEX
  5
13A
  8
0
 10
110.0040861475179
 20
11.18216166576751
 30
0.0
  0
VERTEX
  5
13B
  8
0
 10
110.2689474381777
 20
10.77976852822604
 30
0.0
  0
VERTEX
  5
13C
  8
0
 10
110.5243049032687
 20
10.37069899897315
 30
0.0
  0
VERTEX
  5
13D
  8
0
 10
110.7700014631322
 20
9.955110157667553
 30
0.0
  0
VERTEX
  5
13E
  8
0
 10
111.0058800381095
 20
9.533159083968009
 30
0.0
  0
VERTEX
  5
13F
  8
0
 10
111.2317835485418
 20
9.105002857533252
 30
0.0
  0
VERTEX
  5
140
  8
0
 10
111.4475549147703
 20
8.670798558022025
 30
0.0
  0
VERTEX
  5
141
  8
0
 10
111.6530370571364
 20
8.23070326509307
 30
0.0
  0
VERTEX
  5
142
  8
0
 10
111.8480728959812
 20
7.784874058405123
 30
0.0
  0
VERTEX
  5
143
  8
0
 10
112.0325053516461
 20
7.333468017616928
 30
0.0
  0
VERTEX
  5
144
  8
0
 10
112.2061773444724
 20
6.876642222387225
 30
0.0
  0
VERTEX
  5
145
  8
0
 10
112.3689317948012
 20
6.414553752374754
 30
0.0
  0
VERTEX
  5
146
  8
0
 10
112.5206116229738
 20
5.947359687238258
 30
0.0
  0
VERTEX
  5
147
  8
0
 10
112.6610597493315
 20
5.475217106636475
 30
0.0
  0
VERTEX
  5
148
  8
0
 10
112.7901190942155
 20
4.998283090228146
 30
0.0
  0
VERTEX
  5
149
  8
0
 10
112.9076325779672
 20
4.516714717672011
 30
0.0
  0
VERTEX
  5
14A
  8
0
 10
113.0134431209277
 20
4.030669068626814
 30
0.0
  0
VERTEX
  5
14B
  8
0
 10
113.1073936434384
 20
3.540303222751293
 30
0.0
  0
VERTEX
  5
14C
  8
0
 10
113.1893270658404
 20
3.045774259704189
 30
0.0
  0
VERTEX
  5
14D
  8
0
 10
113.259086308475
 20
2.547239259144242
 30
0.0
  0
VERTEX
  5
14E
  8
0
 10
113.3165142916836
 20
2.044855300730195
 30
0.0
  0
VERTEX
  5
14F
  8
0
 10
113.3614539358074
 20
1.538779464120786
 30
0.0
  0
VERTEX
  5
150
  8
0
 10
113.3937481611875
 20
1.029168828974758
 30
0.0
  0
VERTEX
  5
151
  8
0
 10
113.4132398881654
 20
0.5161804749508497
 30
0.0
  0
SEQEND
  5
152
  8
0
  0
POLYLINE
  5
41
  8
0
 66
     1
 10
0.0
 20
0.0
 30
0.0
 70
     1
  0
VERTEX
  5
153
  8
0
 10
128.4200489248602
 20
-19.80003469613544
 30
0.0
  0
VERTEX
  5
154
  8
0
 10
128.4200489248602
 20
19.80000218895407
 30
0.0
  0
VERTEX
  5
155
  8
0
 10
128.415901010298
 20
20.1277948996634
 30
0.0
  0
VERTEX
  5
156
  8
0
 10
128.4035237636671
 20
20.45354250446858
 30
0.0
  0
VERTEX
  5
157
  8
0
 10
128.3830169305507
 20
20.77714525778631
 30
0.0
  0
VERTEX
  5
158
  8
0
 10
128.3544802565321
 20
21.09850341403328
 30
0.0
  0
VERTEX
  5
159
  8
0
 10
128.3180134871947
 20
21.4175172276262
 30
0.0
  0
VERTEX
  5
15A
  8
0
 10
128.2737163681217
 20
21.73408695298176
 30
0.0
  0
VERTEX
  5
15B
  8
0
 10
128.2216886448964
 20
22.04811284451667
 30
0.0
  0
VERTEX
  5
15C
  8
0
 10
128.1620300631021
 20
22.35949515664763
 30
0.0
  0
VERTEX
  5
15D
  8
0
 10
128.0948403683221
 20
22.66813414379133
 30
0.0
  0
VERTEX
  5
15E
  8
0
 10
128.0202193061399
 20
22.97393006036447
 30
0.0
  0
VERTEX
  5
15F
  8
0
 10
127.9382666221385
 20
23.27678316078376
 30
0.0
  0
VERTEX
  5
160
  8
0
 10
127.8490820619014
 20
23.57659369946589
 30
0.0
  0
VERTEX
  5
161
  8
0
 10
127.7527653710117
 20
23.87326193082756
 30
0.0
  0
VERTEX
  5
162
  8
0
 10
127.649416295053
 20
24.16668810928548
 30
0.0
  0
VERTEX
  5
163
  8
0
 10
127.5391345796083
 20
24.45677248925634
 30
0.0
  0
VERTEX
  5
164
  8
0
 10
127.4220199702611
 20
24.74341532515685
 30
0.0
  0
VERTEX
  5
165
  8
0
 10
127.2981722125946
 20
25.02651687140369
 30
0.0
  0
VERTEX
  5
166
  8
0
 10
127.1676910521921
 20
25.30597738241358
 30
0.0
  0
VERTEX
  5
167
  8
0
 10
126.8872275055125
 20
25.85357631638928
 30
0.0
  0
VERTEX
  5
168
  8
0
 10
126.5814272948887
 20
26.38541416241754
 30
0.0
  0
VERTEX
  5
169
  8
0
 10
126.2510883849869
 20
26.90069295583196
 30
0.0
  0
VERTEX
  5
16A
  8
0
 10
125.8970087404737
 20
27.39861473196613
 30
0.0
  0
VERTEX
  5
16B
  8
0
 10
125.5199863260154
 20
27.87838152615367
 30
0.0
  0
VERTEX
  5
16C
  8
0
 10
125.1208191062785
 20
28.33919537372816
 30
0.0
  0
VERTEX
  5
16D
  8
0
 10
124.7003050459293
 20
28.7802583100232
 30
0.0
  0
VERTEX
  5
16E
  8
0
 10
124.2592421096343
 20
29.20077237037238
 30
0.0
  0
VERTEX
  5
16F
  8
0
 10
123.7984282620598
 20
29.59993959010932
 30
0.0
  0
VERTEX
  5
170
  8
0
 10
123.3186614678723
 20
29.97696200456759
 30
0.0
  0
VERTEX
  5
171
  8
0
 10
122.8207396917381
 20
30.3310416490808
 30
0.0
  0
VERTEX
  5
172
  8
0
 10
122.3054608983237
 20
30.66138055898255
 30
0.0
  0
VERTEX
  5
173
  8
0
 10
121.7736230522954
 20
30.96718076960643
 30
0.0
  0
VERTEX
  5
174
  8
0
 10
121.2260241183198
 20
31.24764431628604
 30
0.0
  0
VERTEX
  5
175
  8
0
 10
120.9465636073099
 20
31.3781254766885
 30
0.0
  0
VERTEX
  5
176
  8
0
 10
120.663462061063
 20
31.50197323435498
 30
0.0
  0
VERTEX
  5
177
  8
0
 10
120.3768192251625
 20
31.6190878437022
 30
0.0
  0
VERTEX
  5
178
  8
0
 10
120.0867348451917
 20
31.72936955914685
 30
0.0
  0
VERTEX
  5
179
  8
0
 10
119.7933086667337
 20
31.83271863510563
 30
0.0
  0
VERTEX
  5
17A
  8
0
 10
119.4966404353721
 20
31.92903532599524
 30
0.0
  0
VERTEX
  5
17B
  8
0
 10
119.1968298966899
 20
32.01821988623239
 30
0.0
  0
VERTEX
  5
17C
  8
0
 10
118.8939767962707
 20
32.10017257023376
 30
0.0
  0
VERTEX
  5
17D
  8
0
 10
118.5881808796975
 20
32.17479363241606
 30
0.0
  0
VERTEX
  5
17E
  8
0
 10
118.2795418925538
 20
32.241983327196
 30
0.0
  0
VERTEX
  5
17F
  8
0
 10
117.9681595804229
 20
32.30164190899026
 30
0.0
  0
VERTEX
  5
180
  8
0
 10
117.654133688888
 20
32.35366963221554
 30
0.0
  0
VERTEX
  5
181
  8
0
 10
117.3375639635324
 20
32.39796675128856
 30
0.0
  0
VERTEX
  5
182
  8
0
 10
117.0185501499395
 20
32.434433520626
 30
0.0
  0
VERTEX
  5
183
  8
0
 10
116.6971919936925
 20
32.46297019464458
 30
0.0
  0
VERTEX
  5
184
  8
0
 10
116.3735892403748
 20
32.48347702776098
 30
0.0
  0
VERTEX
  5
185
  8
0
 10
116.0478416355696
 20
32.4958542743919
 30
0.0
  0
VERTEX
  5
186
  8
0
 10
115.7200489248603
 20
32.50000218895406
 30
0.0
  0
VERTEX
  5
187
  8
0
 10
47.72404892486014
 20
32.50000218895406
 30
0.0
  0
VERTEX
  5
188
  8
0
 10
47.72404892486014
 20
27.16600218895402
 30
0.0
  0
VERTEX
  5
189
  8
0
 10
33.75404892485994
 20
27.16600218895402
 30
0.0
  0
VERTEX
  5
18A
  8
0
 10
33.75404892485994
 20
9.778971481707828
 30
0.0
  0
VERTEX
  5
18B
  8
0
 10
28.42004892485993
 20
9.778971481707828
 30
0.0
  0
VERTEX
  5
18C
  8
0
 10
28.42004892486025
 20
-9.779028518291938
 30
0.0
  0
VERTEX
  5
18D
  8
0
 10
33.75404892485997
 20
-9.779028518291938
 30
0.0
  0
VERTEX
  5
18E
  8
0
 10
33.75404892485997
 20
-27.16603469613548
 30
0.0
  0
VERTEX
  5
18F
  8
0
 10
47.72404892486017
 20
-27.16603469613548
 30
0.0
  0
VERTEX
  5
190
  8
0
 10
47.72404892486017
 20
-32.50003469613551
 30
0.0
  0
VERTEX
  5
191
  8
0
 10
115.7200489248603
 20
-32.50003469613546
 30
0.0
  0
VERTEX
  5
192
  8
0
 10
116.0478416355697
 20
-32.4958867815733
 30
0.0
  0
VERTEX
  5
193
  8
0
 10
116.3735892403748
 20
-32.48350953494238
 30
0.0
  0
VERTEX
  5
194
  8
0
 10
116.6971919936926
 20
-32.46300270182598
 30
0.0
  0
VERTEX
  5
195
  8
0
 10
117.0185501499395
 20
-32.4344660278074
 30
0.0
  0
VERTEX
  5
196
  8
0
 10
117.3375639635324
 20
-32.39799925846995
 30
0.0
  0
VERTEX
  5
197
  8
0
 10
117.654133688888
 20
-32.35370213939694
 30
0.0
  0
VERTEX
  5
198
  8
0
 10
117.9681595804229
 20
-32.30167441617165
 30
0.0
  0
VERTEX
  5
199
  8
0
 10
118.2795418925539
 20
-32.24201583437739
 30
0.0
  0
VERTEX
  5
19A
  8
0
 10
118.5881808796975
 20
-32.17482613959746
 30
0.0
  0
VERTEX
  5
19B
  8
0
 10
118.8939767962707
 20
-32.10020507741515
 30
0.0
  0
VERTEX
  5
19C
  8
0
 10
119.19682989669
 20
-32.01825239341378
 30
0.0
  0
VERTEX
  5
19D
  8
0
 10
119.4966404353721
 20
-31.92906783317664
 30
0.0
  0
VERTEX
  5
19E
  8
0
 10
119.7933086667338
 20
-31.83275114228703
 30
0.0
  0
VERTEX
  5
19F
  8
0
 10
120.0867348451917
 20
-31.72940206632824
 30
0.0
  0
VERTEX
  5
1A0
  8
0
 10
120.3768192251625
 20
-31.61912035088359
 30
0.0
  0
VERTEX
  5
1A1
  8
0
 10
120.6634620610631
 20
-31.50200574153637
 30
0.0
  0
VERTEX
  5
1A2
  8
0
 10
120.9465636073099
 20
-31.37815798386988
 30
0.0
  0
VERTEX
  5
1A3
  8
0
 10
121.2260241183198
 20
-31.24767682346742
 30
0.0
  0
VERTEX
  5
1A4
  8
0
 10
121.7736230522955
 20
-30.96721327678781
 30
0.0
  0
VERTEX
  5
1A5
  8
0
 10
122.3054608983237
 20
-30.66141306616392
 30
0.0
  0
VERTEX
  5
1A6
  8
0
 10
122.8207396917382
 20
-30.33107415626217
 30
0.0
  0
VERTEX
  5
1A7
  8
0
 10
123.3186614678723
 20
-29.97699451174896
 30
0.0
  0
VERTEX
  5
1A8
  8
0
 10
123.7984282620599
 20
-29.59997209729068
 30
0.0
  0
VERTEX
  5
1A9
  8
0
 10
124.2592421096343
 20
-29.20080487755375
 30
0.0
  0
VERTEX
  5
1AA
  8
0
 10
124.7003050459294
 20
-28.78029081720457
 30
0.0
  0
VERTEX
  5
1AB
  8
0
 10
125.1208191062785
 20
-28.33922788090953
 30
0.0
  0
VERTEX
  5
1AC
  8
0
 10
125.5199863260155
 20
-27.87841403333504
 30
0.0
  0
VERTEX
  5
1AD
  8
0
 10
125.8970087404737
 20
-27.3986472391475
 30
0.0
  0
VERTEX
  5
1AE
  8
0
 10
126.251088384987
 20
-26.90072546301332
 30
0.0
  0
VERTEX
  5
1AF
  8
0
 10
126.5814272948887
 20
-26.38544666959891
 30
0.0
  0
VERTEX
  5
1B0
  8
0
 10
126.8872275055126
 20
-25.85360882357064
 30
0.0
  0
VERTEX
  5
1B1
  8
0
 10
127.1676910521922
 20
-25.30600988959494
 30
0.0
  0
VERTEX
  5
1B2
  8
0
 10
127.2981722125947
 20
-25.02654937858505
 30
0.0
  0
VERTEX
  5
1B3
  8
0
 10
127.4220199702611
 20
-24.74344783233821
 30
0.0
  0
VERTEX
  5
1B4
  8
0
 10
127.5391345796084
 20
-24.45680499643771
 30
0.0
  0
VERTEX
  5
1B5
  8
0
 10
127.649416295053
 20
-24.16672061646685
 30
0.0
  0
VERTEX
  5
1B6
  8
0
 10
127.7527653710118
 20
-23.87329443800893
 30
0.0
  0
VERTEX
  5
1B7
  8
0
 10
127.8490820619014
 20
-23.57662620664725
 30
0.0
  0
VERTEX
  5
1B8
  8
0
 10
127.9382666221385
 20
-23.27681566796512
 30
0.0
  0
VERTEX
  5
1B9
  8
0
 10
128.0202193061399
 20
-22.97396256754583
 30
0.0
  0
VERTEX
  5
1BA
  8
0
 10
128.0948403683222
 20
-22.66816665097269
 30
0.0
  0
VERTEX
  5
1BB
  8
0
 10
128.1620300631022
 20
-22.35952766382899
 30
0.0
  0
VERTEX
  5
1BC
  8
0
 10
128.2216886448964
 20
-22.04814535169804
 30
0.0
  0
VERTEX
  5
1BD
  8
0
 10
128.2737163681217
 20
-21.73411946016313
 30
0.0
  0
VERTEX
  5
1BE
  8
0
 10
128.3180134871947
 20
-21.41754973480757
 30
0.0
  0
VERTEX
  5
1BF
  8
0
 10
128.3544802565321
 20
-21.09853592121465
 30
0.0
  0
VERTEX
  5
1C0
  8
0
 10
128.3830169305507
 20
-20.77717776496768
 30
0.0
  0
VERTEX
  5
1C1
  8
0
 10
128.4035237636671
 20
-20.45357501164995
 30
0.0
  0
VERTEX
  5
1C2
  8
0
 10
128.4159010102981
 20
-20.12782740684477
 30
0.0
  0
SEQEND
  5
1C3
  8
0
  0
POLYLINE
  5
42
  8
0
 66
     1
 10
0.0
 20
0.0
 30
0.0
 70
     1
  0
VERTEX
  5
1C4
  8
0
 10
-114.3849969207506
 20
2.974999999999858
 30
0.0
 42
-0.4142135623730951
  0
VERTEX
  5
1C5
  8
0
 10
-111.4099969207506
 20
-0.0000000000001421
 30
0.0
 42
-0.4142135623730951
  0
VERTEX
  5
1C6
  8
0
 10
-114.3849969207506
 20
-2.975000000000142
 30
0.0
 42
-0.4142135623730951
  0
VERTEX
  5
1C7
  8
0
 10
-117.3599969207506
 20
-0.0000000000001421
 30
0.0
 42
-0.4142135623730951
  0
SEQEND
  5
1C8
  8
0
  0
POLYLINE
  5
43
  8
0
 66
     1
 10
0.0
 20
0.0
 30
0.0
 70
     1
  0
VERTEX
  5
1C9
  8
0
 10
-42.4525245802018
 20
2.974999999999858
 30
0.0
 42
-0.4142135623730951
  0
VERTEX
  5
1CA
  8
0
 10
-39.47752458020179
 20
-0.0000000000001421
 30
0.0
 42
-0.4142135623730951
  0
VERTEX
  5
1CB
  8
0
 10
-42.4525245802018
 20
-2.975000000000142
 30
0.0
 42
-0.4142135623730951
  0
VERTEX
  5
1CC
  8
0
 10
-45.4275245802018
 20
-0.0000000000001421
 30
0.0
 42
-0.4142135623730951
  0
SEQEND
  5
1CD
  8
0
  0
POLYLINE
  5
44
  8
0
 66
     1
 10
0.0
 20
0.0
 30
0.0
 70
     1
  0
VERTEX
  5
1CE
  8
0
 10
-25.1838320976782
 20
3.447503773536818
 30
0.0
  0
VERTEX
  5
1CF
  8
0
 10
-25.18391380022104
 20
-3.799579587481167
 30
0.0
  0
VERTEX
  5
1D0
  8
0
 10
-2.400489489016728
 20
-25.77045888308916
 30
0.0
  0
VERTEX
  5
1D1
  8
0
 10
3.187510510983252
 20
-25.77045888308912
 30
0.0
  0
VERTEX
  5
1D2
  8
0
 10
3.187510510983465
 20
-12.56245888308916
 30
0.0
  0
VERTEX
  5
1D3
  8
0
 10
-2.400489489016728
 20
-12.56245888308926
 30
0.0
  0
VERTEX
  5
1D4
  8
0
 10
-2.400489489016707
 20
12.27163747064561
 30
0.0
  0
VERTEX
  5
1D5
  8
0
 10
3.187510510983266
 20
12.27163747064555
 30
0.0
  0
VERTEX
  5
1D6
  8
0
 10
3.187510510983266
 20
25.47963747064545
 30
0.0
  0
VERTEX
  5
1D7
  8
0
 10
-2.40048948901655
 20
25.47963747064558
 30
0.0
  0
SEQEND
  5
1D8
  8
0
  0
POLYLINE
  5
45
  8
0
 66
     1
 10
0.0
 20
0.0
 30
0.0
 70
     1
  0
VERTEX
  5
1D9
  8
0
 10
0.9390737218355305
 20
3.447503773536818
 30
0.0
  0
VERTEX
  5
1DA
  8
0
 10
0.9389920192926873
 20
-3.799579587481167
 30
0.0
  0
VERTEX
  5
1DB
  8
0
 10
23.72241633049697
 20
-25.77045888308916
 30
0.0
  0
VERTEX
  5
1DC
  8
0
 10
29.31041633049696
 20
-25.77045888308912
 30
0.0
  0
VERTEX
  5
1DD
  8
0
 10
29.31041633049717
 20
-12.56245888308916
 30
0.0
  0
VERTEX
  5
1DE
  8
0
 10
23.72241633049697
 20
-12.56245888308926
 30
0.0
  0
VERTEX
  5
1DF
  8
0
 10
23.72241633049699
 20
12.27163747064561
 30
0.0
  0
VERTEX
  5
1E0
  8
0
 10
29.31041633049697
 20
12.27163747064555
 30
0.0
  0
VERTEX
  5
1E1
  8
0
 10
29.31041633049697
 20
25.47963747064545
 30
0.0
  0
VERTEX
  5
1E2
  8
0
 10
23.72241633049715
 20
25.47963747064558
 30
0.0
  0
SEQEND
  5
1E3
  8
0
  0
POLYLINE
  5
46
  8
0
 66
     1
 10
0.0
 20
0.0
 30
0.0
 70
     1
  0
VERTEX
  5
1E4
  8
0
 10
-26.25700000000001
 20
-2.905
 30
0.0
  0
VERTEX
  5
1E5
  8
0
 10
-16.25699999999999
 20
-2.905
 30
0.0
  0
VERTEX
  5
1E6
  8
0
 10
-16.25699999999999
 20
2.595
 30
0.0
  0
VERTEX
  5
1E7
  8
0
 10
-26.25700000000001
 20
2.595
 30
0.0
  0
SEQEND
  5
1E8
  8
0
  0
POLYLINE
  5
47
  8
0
 66
     1
 10
0.0
 20
0.0
 30
0.0
 70
     1
  0
VERTEX
  5
1E9
  8
0
 10
-0.1339999999999932
 20
-2.905
 30
0.0
  0
VERTEX
  5
1EA
  8
0
 10
9.865999999999993
 20
-2.905
 30
0.0
  0
VERTEX
  5
1EB
  8
0
 10
9.865999999999993
 20
2.595
 30
0.0
  0
VERTEX
  5
1EC
  8
0
 10
-0.1339999999999932
 20
2.595
 30
0.0
  0
SEQEND
  5
1ED
  8
0
  0
POLYLINE
  5
48
  8
0
 66
     1
 10
0.0
 20
0.0
 30
0.0
 70
     1
  0
VERTEX
  5
1EE
  8
0
 10
80.91975200106752
 20
24.62561289728072
 30
0.0
 42
0.4142135623730951
  0
VERTEX
  5
1EF
  8
0
 10
77.94475200106753
 20
21.65061289728072
 30
0.0
 42
0.4142135623730951
  0
VERTEX
  5
1F0
  8
0
 10
80.91975200106752
 20
18.67561289728072
 30
0.0
 42
0.4142135623730951
  0
VERTEX
  5
1F1
  8
0
 10
83.89475200106752
 20
21.65061289728072
 30
0.0
 42
0.4142135623730951
  0
SEQEND
  5
1F2
  8
0
  0
POLYLINE
  5
49
  8
0
 66
     1
 10
0.0
 20
0.0
 30
0.0
 70
     1
  0
VERTEX
  5
1F3
  8
0
 10
118.4197875292028
 20
2.974985672924538
 30
0.0
 42
0.4142135623730951
  0
VERTEX
  5
1F4
  8
0
 10
115.4447875292028
 20
-0.000014327075462
 30
0.0
 42
0.4142135623730951
  0
VERTEX
  5
1F5
  8
0
 10
118.4197875292028
 20
-2.975014327075462
 30
0.0
 42
0.4142135623730951
  0
VERTEX
  5
1F6
  8
0
 10
121.3947875292028
 20
-0.000014327075462
 30
0.0
 42
0.4142135623730951
  0
SEQEND
  5
1F7
  8
0
  0
POLYLINE
  5
4A
  8
0
 66
     1
 10
0.0
 20
0.0
 30
0.0
 70
     1
  0
VERTEX
  5
1F8
  8
0
 10
80.91977658097575
 20
-18.67568412508184
 30
0.0
 42
0.4142135623730951
  0
VERTEX
  5
1F9
  8
0
 10
77.94477658097576
 20
-21.65068412508184
 30
0.0
 42
0.4142135623730951
  0
VERTEX
  5
1FA
  8
0
 10
80.91977658097575
 20
-24.62568412508184
 30
0.0
 42
0.4142135623730951
  0
VERTEX
  5
1FB
  8
0
 10
83.89477658097574
 20
-21.65068412508184
 30
0.0
 42
0.4142135623730951
  0
SEQEND
  5
1FC
  8
0
  0
POLYLINE
  5
4B
  8
0
 66
     1
 10
0.0
 20
0.0
 30
0.0
 70
     1
  0
VERTEX
  5
1FD
  8
0
 10
-81.17
 20
-10.0
 30
0.0
  0
VERTEX
  5
1FE
  8
0
 10
-75.67
 20
-10.0
 30
0.0
  0
VERTEX
  5
1FF
  8
0
 10
-75.67
 20
10.0
 30
0.0
  0
VERTEX
  5
200
  8
0
 10
-81.17
 20
10.0
 30
0.0
  0
SEQEND
  5
201
  8
0
  0
POLYLINE
  5
4C
  8
0
 66
     1
 10
0.0
 20
0.0
 30
0.0
 70
     1
  0
VERTEX
  5
202
  8
0
 10
-104.1340464253496
 20
-32.50001815796883
 30
0.0
  0
VERTEX
  5
203
  8
0
 10
-104.1340464253519
 20
-27.00000340809345
 30
0.0
  0
VERTEX
  5
204
  8
0
 10
-90.8340464253518
 20
-27.00000340809345
 30
0.0
  0
VERTEX
  5
205
  8
0
 10
-90.83404642533483
 20
-32.50001796699392
 30
0.0
  0
VERTEX
  5
206
  8
0
 10
-66.00055223926412
 20
-32.50000357070893
 30
0.0
  0
VERTEX
  5
207
  8
0
 10
-66.00055223926432
 20
-27.00000340809345
 30
0.0
  0
VERTEX
  5
208
  8
0
 10
-52.7005522392643
 20
-27.00000340809345
 30
0.0
  0
VERTEX
  5
209
  8
0
 10
-52.7005522392646
 20
-32.50000362400946
 30
0.0
  0
VERTEX
  5
20A
  8
0
 10
-41.12006608961454
 20
-32.5000194915948
 30
0.0
  0
VERTEX
  5
20B
  8
0
 10
-40.79227306199207
 20
-32.49587201245511
 30
0.0
  0
VERTEX
  5
20C
  8
0
 10
-40.46652513509395
 20
-32.48349518348356
 30
0.0
  0
VERTEX
  5
20D
  8
0
 10
-40.14292205482895
 20
-32.4629887504541
 30
0.0
  0
VERTEX
  5
20E
  8
0
 10
-39.82156356710584
 20
-32.4344524591407
 30
0.0
  0
VERTEX
  5
20F
  8
0
 10
-39.50254941783338
 20
-32.3979860553173
 30
0.0
  0
VERTEX
  5
210
  8
0
 10
-39.18597935292034
 20
-32.35368928475786
 30
0.0
  0
VERTEX
  5
211
  8
0
 10
-38.87195311827548
 20
-32.30166189323633
 30
0.0
  0
VERTEX
  5
212
  8
0
 10
-38.56057045980756
 20
-32.24200362652665
 30
0.0
  0
VERTEX
  5
213
  8
0
 10
-38.25193112342536
 20
-32.1748142304028
 30
0.0
  0
VERTEX
  5
214
  8
0
 10
-37.94613485503763
 20
-32.10019345063871
 30
0.0
  0
VERTEX
  5
215
  8
0
 10
-37.64328140055314
 20
-32.01824103300834
 30
0.0
  0
VERTEX
  5
216
  8
0
 10
-37.34347050588066
 20
-31.92905672328565
 30
0.0
  0
VERTEX
  5
217
  8
0
 10
-37.04680191692895
 20
-31.83274026724458
 30
0.0
  0
VERTEX
  5
218
  8
0
 10
-36.75337537960678
 20
-31.72939141065909
 30
0.0
  0
VERTEX
  5
219
  8
0
 10
-36.4632906398229
 20
-31.61910989930313
 30
0.0
  0
VERTEX
  5
21A
  8
0
 10
-36.17664744348609
 20
-31.50199547895066
 30
0.0
  0
VERTEX
  5
21B
  8
0
 10
-35.89354553650511
 20
-31.37814789537562
 30
0.0
  0
VERTEX
  5
21C
  8
0
 10
-35.61408466478873
 20
-31.24766689435197
 30
0.0
  0
VERTEX
  5
21D
  8
0
 10
-35.0664850107848
 20
-30.96720362305467
 30
0.0
  0
VERTEX
  5
21E
  8
0
 10
-34.53464644874444
 20
-30.66140363125036
 30
0.0
  0
VERTEX
  5
21F
  8
0
 10
-34.01936694593775
 20
-30.33106488513067
 30
0.0
  0
VERTEX
  5
220
  8
0
 10
-33.52144446963487
 20
-29.97698535088723
 30
0.0
  0
VERTEX
  5
221
  8
0
 10
-33.04167698710589
 20
-29.59996299471164
 30
0.0
  0
VERTEX
  5
222
  8
0
 10
-32.58086246562097
 20
-29.20079578279555
 30
0.0
  0
VERTEX
  5
223
  8
0
 10
-32.13979887245019
 20
-28.78028168133057
 30
0.0
  0
VERTEX
  5
224
  8
0
 10
-31.71928417486368
 20
-28.33921865650833
 30
0.0
  0
VERTEX
  5
225
  8
0
 10
-31.32011634013157
 20
-27.87840467452044
 30
0.0
  0
VERTEX
  5
226
  8
0
 10
-30.94309333552398
 20
-27.39863770155853
 30
0.0
  0
VERTEX
  5
227
  8
0
 10
-30.58901312831101
 20
-26.90071570381422
 30
0.0
  0
VERTEX
  5
228
  8
0
 10
-30.2586736857628
 20
-26.38543664747914
 30
0.0
  0
VERTEX
  5
229
  8
0
 10
-29.95287297514946
 20
-25.85359849874491
 30
0.0
  0
VERTEX
  5
22A
  8
0
 10
-29.67240896374111
 20
-25.30599922380315
 30
0.0
  0
VERTEX
  5
22B
  8
0
 10
-29.54192758501072
 20
-25.02653852843933
 30
0.0
  0
VERTEX
  5
22C
  8
0
 10
-29.41807961880787
 20
-24.74343678884549
 30
0.0
  0
VERTEX
  5
22D
  8
0
 10
-29.30096481104133
 20
-24.45679375079557
 30
0.0
  0
VERTEX
  5
22E
  8
0
 10
-29.19068290761986
 20
-24.16670916006354
 30
0.0
  0
VERTEX
  5
22F
  8
0
 10
-29.08733365445222
 20
-23.87328276242334
 30
0.0
  0
VERTEX
  5
230
  8
0
 10
-28.99101679744719
 20
-23.57661430364893
 30
0.0
  0
VERTEX
  5
231
  8
0
 10
-28.90183208251353
 20
-23.27680352951427
 30
0.0
  0
VERTEX
  5
232
  8
0
 10
-28.81987925555999
 20
-22.9739501857933
 30
0.0
  0
VERTEX
  5
233
  8
0
 10
-28.74525806249536
 20
-22.66815401825997
 30
0.0
  0
VERTEX
  5
234
  8
0
 10
-28.67806824922839
 20
-22.35951477268824
 30
0.0
  0
VERTEX
  5
235
  8
0
 10
-28.61840956166784
 20
-22.04813219485206
 30
0.0
  0
VERTEX
  5
236
  8
0
 10
-28.56638174572248
 20
-21.73410603052539
 30
0.0
  0
VERTEX
  5
237
  8
0
 10
-28.52208454730108
 20
-21.41753602548218
 30
0.0
  0
VERTEX
  5
238
  8
0
 10
-28.4856177123124
 20
-21.09852192549638
 30
0.0
  0
VERTEX
  5
239
  8
0
 10
-28.45708098666521
 20
-20.77716347634195
 30
0.0
  0
VERTEX
  5
23A
  8
0
 10
-28.43657411626827
 20
-20.45356042379283
 30
0.0
  0
VERTEX
  5
23B
  8
0
 10
-28.42419684703034
 20
-20.12781251362298
 30
0.0
  0
VERTEX
  5
23C
  8
0
 10
-28.4200489248602
 20
-19.80001949160635
 30
0.0
  0
VERTEX
  5
23D
  8
0
 10
-28.4200489248602
 20
19.80000018014761
 30
0.0
  0
VERTEX
  5
23E
  8
0
 10
-28.42419682309518
 20
20.12779222277344
 30
0.0
  0
VERTEX
  5
23F
  8
0
 10
-28.43657402121023
 20
20.45353917224831
 30
0.0
  0
VERTEX
  5
240
  8
0
 10
-28.45708077432052
 20
20.77714128339804
 30
0.0
  0
VERTEX
  5
241
  8
0
 10
-28.48561733754121
 20
21.09849881104851
 30
0.0
  0
VERTEX
  5
242
  8
0
 10
-28.52208396598746
 20
21.41751201002555
 30
0.0
  0
VERTEX
  5
243
  8
0
 10
-28.56638091477444
 20
21.73408113515502
 30
0.0
  0
VERTEX
  5
244
  8
0
 10
-28.6184084390173
 20
22.04810644126277
 30
0.0
  0
VERTEX
  5
245
  8
0
 10
-28.67806679383122
 20
22.35948818317465
 30
0.0
  0
VERTEX
  5
246
  8
0
 10
-28.74525623433134
 20
22.66812661571652
 30
0.0
  0
VERTEX
  5
247
  8
0
 10
-28.81987701563285
 20
22.97392199371421
 30
0.0
  0
VERTEX
  5
248
  8
0
 10
-28.9018293928509
 20
23.2767745719936
 30
0.0
  0
VERTEX
  5
249
  8
0
 10
-28.99101362110066
 20
23.57658460538052
 30
0.0
  0
VERTEX
  5
24A
  8
0
 10
-29.08732995549727
 20
23.87325234870082
 30
0.0
  0
VERTEX
  5
24B
  8
0
 10
-29.19067865115592
 20
24.16667805678036
 30
0.0
  0
VERTEX
  5
24C
  8
0
 10
-29.30095996319177
 20
24.456761984445
 30
0.0
  0
VERTEX
  5
24D
  8
0
 10
-29.41807414671997
 20
24.74340438652057
 30
0.0
  0
VERTEX
  5
24E
  8
0
 10
-29.5419214568557
 20
25.02650551783293
 30
0.0
  0
VERTEX
  5
24F
  8
0
 10
-29.67240214871411
 20
25.30596563320793
 30
0.0
  0
VERTEX
  5
250
  8
0
 10
-29.95286469805963
 20
25.85356383544927
 30
0.0
  0
VERTEX
  5
251
  8
0
 10
-30.25866383567785
 20
26.38540103185139
 30
0.0
  0
VERTEX
  5
252
  8
0
 10
-30.58900160249007
 20
26.9006792610211
 30
0.0
  0
VERTEX
  5
253
  8
0
 10
-30.9430800394176
 20
27.3986005615652
 30
0.0
  0
VERTEX
  5
254
  8
0
 10
-31.32010118738175
 20
27.87836697209052
 30
0.0
  0
VERTEX
  5
255
  8
0
 10
-31.71926708730382
 20
28.33918053120384
 30
0.0
  0
VERTEX
  5
256
  8
0
 10
-32.13977978010512
 20
28.78024327751199
 30
0.0
  0
VERTEX
  5
257
  8
0
 10
-32.58084130670694
 20
29.20075724962178
 30
0.0
  0
VERTEX
  5
258
  8
0
 10
-33.04165370803062
 20
29.59992448614
 30
0.0
  0
VERTEX
  5
259
  8
0
 10
-33.52141902499744
 20
29.97694702567347
 30
0.0
  0
VERTEX
  5
25A
  8
0
 10
-34.01933929852872
 20
30.33102690682901
 30
0.0
  0
VERTEX
  5
25B
  8
0
 10
-34.53461656954575
 20
30.66136616821342
 30
0.0
  0
VERTEX
  5
25C
  8
0
 10
-35.06645287896986
 20
30.96716684843349
 30
0.0
  0
VERTEX
  5
25D
  8
0
 10
-35.61405026772233
 20
31.24763098609606
 30
0.0
  0
VERTEX
  5
25E
  8
0
 10
-35.89351000463462
 20
31.3781124885329
 30
0.0
  0
VERTEX
  5
25F
  8
0
 10
-36.17661077672449
 20
31.50196061980791
 30
0.0
  0
VERTEX
  5
260
  8
0
 10
-36.4632528391071
 20
31.61907563474695
 30
0.0
  0
VERTEX
  5
261
  8
0
 10
-36.75333644689762
 20
31.72935778817587
 30
0.0
  0
VERTEX
  5
262
  8
0
 10
-37.04676185521122
 20
31.83270733492051
 30
0.0
  0
VERTEX
  5
263
  8
0
 10
-37.34342931916306
 20
31.92902452980673
 30
0.0
  0
VERTEX
  5
264
  8
0
 10
-37.64323909386829
 20
32.01820962766038
 30
0.0
  0
VERTEX
  5
265
  8
0
 10
-37.94609143444209
 20
32.10016288330732
 30
0.0
  0
VERTEX
  5
266
  8
0
 10
-38.25188659599961
 20
32.17478455157338
 30
0.0
  0
VERTEX
  5
267
  8
0
 10
-38.56052483365602
 20
32.24197488728443
 30
0.0
  0
VERTEX
  5
268
  8
0
 10
-38.87190640252648
 20
32.30163414526632
 30
0.0
  0
VERTEX
  5
269
  8
0
 10
-39.18593155772616
 20
32.35366258034488
 30
0.0
  0
VERTEX
  5
26A
  8
0
 10
-39.50250055437022
 20
32.39796044734599
 30
0.0
  0
VERTEX
  5
26B
  8
0
 10
-39.82151364757382
 20
32.43442800109548
 30
0.0
  0
VERTEX
  5
26C
  8
0
 10
-40.14287109245213
 20
32.46296549641921
 30
0.0
  0
VERTEX
  5
26D
  8
0
 10
-40.46647314412031
 20
32.48347318814302
 30
0.0
  0
VERTEX
  5
26E
  8
0
 10
-40.79222005769352
 20
32.49585133109278
 30
0.0
  0
VERTEX
  5
26F
  8
0
 10
-41.12001208828693
 20
32.50000018009433
 30
0.0
  0
VERTEX
  5
270
  8
0
 10
-52.74626450656909
 20
32.50003066183817
 30
0.0
  0
VERTEX
  5
271
  8
0
 10
-52.74626450657849
 20
27.00002742143226
 30
0.0
  0
VERTEX
  5
272
  8
0
 10
-66.04626450657851
 20
27.00002742143226
 30
0.0
  0
VERTEX
  5
273
  8
0
 10
-66.04626450657898
 20
32.50003103798458
 30
0.0
  0
VERTEX
  5
274
  8
0
 10
-90.82081702155423
 20
32.50003149606896
 30
0.0
  0
VERTEX
  5
275
  8
0
 10
-90.82081702155415
 20
27.0000304125584
 30
0.0
  0
VERTEX
  5
276
  8
0
 10
-104.1208170215542
 20
27.0000304125584
 30
0.0
  0
VERTEX
  5
277
  8
0
 10
-104.1208170215591
 20
32.50003211816859
 30
0.0
  0
VERTEX
  5
278
  8
0
 10
-115.7200857613298
 20
32.50000017999042
 30
0.0
  0
VERTEX
  5
279
  8
0
 10
-116.0478777919251
 20
32.49585133099151
 30
0.0
  0
VERTEX
  5
27A
  8
0
 10
-116.3736247055002
 20
32.48347318804427
 30
0.0
  0
VERTEX
  5
27B
  8
0
 10
-116.6972267571704
 20
32.46296549632287
 30
0.0
  0
VERTEX
  5
27C
  8
0
 10
-117.0185842020507
 20
32.43442800100146
 30
0.0
  0
VERTEX
  5
27D
  8
0
 10
-117.3375972952564
 20
32.39796044725419
 30
0.0
  0
VERTEX
  5
27E
  8
0
 10
-117.6541662919025
 20
32.3536625802552
 30
0.0
  0
VERTEX
  5
27F
  8
0
 10
-117.9681914471042
 20
32.30163414517865
 30
0.0
  0
VERTEX
  5
280
  8
0
 10
-118.2795730159768
 20
32.24197488719867
 30
0.0
  0
VERTEX
  5
281
  8
0
 10
-118.5882112536353
 20
32.17478455148944
 30
0.0
  0
VERTEX
  5
282
  8
0
 10
-118.8940064151949
 20
32.10016288322508
 30
0.0
  0
VERTEX
  5
283
  8
0
 10
-119.1968587557709
 20
32.01820962757977
 30
0.0
  0
VERTEX
  5
284
  8
0
 10
-119.4966685304782
 20
31.92902452972763
 30
0.0
  0
VERTEX
  5
285
  8
0
 10
-119.7933359944322
 20
31.83270733484284
 30
0.0
  0
VERTEX
  5
286
  8
0
 10
-120.086761402748
 20
31.72935778809952
 30
0.0
  0
VERTEX
  5
287
  8
0
 10
-120.3768450105407
 20
31.61907563467184
 30
0.0
  0
VERTEX
  5
288
  8
0
 10
-120.6634870729255
 20
31.50196061973395
 30
0.0
  0
VERTEX
  5
289
  8
0
 10
-120.9465878450175
 20
31.37811248845999
 30
0.0
  0
VERTEX
  5
28A
  8
0
 10
-121.226047581932
 20
31.24763098602412
 30
0.0
  0
VERTEX
  5
28B
  8
0
 10
-121.7736449706888
 20
30.96716684836323
 30
0.0
  0
VERTEX
  5
28C
  8
0
 10
-122.3054812801172
 20
30.66136616814449
 30
0.0
  0
VERTEX
  5
28D
  8
0
 10
-122.8207585511386
 20
30.33102690676108
 30
0.0
  0
VERTEX
  5
28E
  8
0
 10
-123.3186788246741
 20
29.97694702560622
 30
0.0
  0
VERTEX
  5
28F
  8
0
 10
-123.7984441416451
 20
29.59992448607311
 30
0.0
  0
VERTEX
  5
290
  8
0
 10
-124.2592565429728
 20
29.20075724955494
 30
0.0
  0
VERTEX
  5
291
  8
0
 10
-124.7003180695786
 20
28.78024327744492
 30
0.0
  0
VERTEX
  5
292
  8
0
 10
-125.1208307623837
 20
28.33918053113624
 30
0.0
  0
VERTEX
  5
293
  8
0
 10
-125.5199966623095
 20
27.87836697202211
 30
0.0
  0
VERTEX
  5
294
  8
0
 10
-125.8970178102772
 20
27.39860056149573
 30
0.0
  0
VERTEX
  5
295
  8
0
 10
-126.2510962472082
 20
26.90067926095029
 30
0.0
  0
VERTEX
  5
296
  8
0
 10
-126.5814340140236
 20
26.38540103177901
 30
0.0
  0
VERTEX
  5
297
  8
0
 10
-126.8872331516449
 20
25.85356383537507
 30
0.0
  0
VERTEX
  5
298
  8
0
 10
-127.1676957009932
 20
25.30596563313168
 30
0.0
  0
VERTEX
  5
299
  8
0
 10
-127.2981763928529
 20
25.02650551775557
 30
0.0
  0
VERTEX
  5
29A
  8
0
 10
-127.4220237029899
 20
24.74340438644204
 30
0.0
  0
VERTEX
  5
29B
  8
0
 10
-127.5391378865193
 20
24.45676198436526
 30
0.0
  0
VERTEX
  5
29C
  8
0
 10
-127.6494191985563
 20
24.16667805669936
 30
0.0
  0
VERTEX
  5
29D
  8
0
 10
-127.752767894216
 20
23.8732523486185
 30
0.0
  0
VERTEX
  5
29E
  8
0
 10
-127.8490842286136
 20
23.57658460529682
 30
0.0
  0
VERTEX
  5
29F
  8
0
 10
-127.9382684568643
 20
23.27677457190849
 30
0.0
  0
VERTEX
  5
2A0
  8
0
 10
-128.0202208340832
 20
22.97392199362764
 30
0.0
  0
VERTEX
  5
2A1
  8
0
 10
-128.0948416153855
 20
22.66812661562843
 30
0.0
  0
VERTEX
  5
2A2
  8
0
 10
-128.1620310558864
 20
22.35948818308501
 30
0.0
  0
VERTEX
  5
2A3
  8
0
 10
-128.2216894107009
 20
22.04810644117153
 30
0.0
  0
VERTEX
  5
2A4
  8
0
 10
-128.2737169349443
 20
21.73408113506214
 30
0.0
  0
VERTEX
  5
2A5
  8
0
 10
-128.3180138837318
 20
21.41751200993098
 30
0.0
  0
VERTEX
  5
2A6
  8
0
 10
-128.3544805121784
 20
21.09849881095221
 30
0.0
  0
VERTEX
  5
2A7
  8
0
 10
-128.3830170753995
 20
20.77714128329999
 30
0.0
  0
VERTEX
  5
2A8
  8
0
 10
-128.4035238285099
 20
20.45353917214845
 30
0.0
  0
VERTEX
  5
2A9
  8
0
 10
-128.4159010266251
 20
20.12779222267175
 30
0.0
  0
VERTEX
  5
2AA
  8
0
 10
-128.4200489248602
 20
19.80000018004404
 30
0.0
  0
VERTEX
  5
2AB
  8
0
 10
-128.4200489248602
 20
-19.8000346961357
 30
0.0
  0
VERTEX
  5
2AC
  8
0
 10
-128.4159010094292
 20
-20.12782744239671
 30
0.0
  0
VERTEX
  5
2AD
  8
0
 10
-128.4035237602166
 20
-20.45357508207491
 30
0.0
  0
VERTEX
  5
2AE
  8
0
 10
-128.3830169228427
 20
-20.77717786956524
 30
0.0
  0
VERTEX
  5
2AF
  8
0
 10
-128.354480242928
 20
-21.09853605926261
 30
0.0
  0
VERTEX
  5
2B0
  8
0
 10
-128.3180134660931
 20
-21.41754990556195
 30
0.0
  0
VERTEX
  5
2B1
  8
0
 10
-128.2737163379584
 20
-21.7341196628582
 30
0.0
  0
VERTEX
  5
2B2
  8
0
 10
-128.2216886041444
 20
-22.04814558554627
 30
0.0
  0
VERTEX
  5
2B3
  8
0
 10
-128.1620300102715
 20
-22.35952792802109
 30
0.0
  0
VERTEX
  5
2B4
  8
0
 10
-128.0948403019602
 20
-22.66816694467759
 30
0.0
  0
VERTEX
  5
2B5
  8
0
 10
-128.020219224831
 20
-22.97396288991071
 30
0.0
  0
VERTEX
  5
2B6
  8
0
 10
-127.9382665245043
 20
-23.27681601811535
 30
0.0
  0
VERTEX
  5
2B7
  8
0
 10
-127.8490819466006
 20
-23.57662658368647
 30
0.0
  0
VERTEX
  5
2B8
  8
0
 10
-127.7527652367404
 20
-23.87329484101896
 30
0.0
  0
VERTEX
  5
2B9
  8
0
 10
-127.6494161405442
 20
-24.16672104450778
 30
0.0
  0
VERTEX
  5
2BA
  8
0
 10
-127.5391344036324
 20
-24.45680544854783
 30
0.0
  0
VERTEX
  5
2BB
  8
0
 10
-127.4220197716254
 20
-24.74344830753406
 30
0.0
  0
VERTEX
  5
2BC
  8
0
 10
-127.2981719901438
 20
-25.02654987586138
 30
0.0
  0
VERTEX
  5
2BD
  8
0
 10
-127.1676908048081
 20
-25.30601040792473
 30
0.0
  0
VERTEX
  5
2BE
  8
0
 10
-126.8872272050559
 20
-25.8536093808392
 30
0.0
  0
VERTEX
  5
2BF
  8
0
 10
-126.5814269373326
 20
-26.38544726143687
 30
0.0
  0
VERTEX
  5
2C0
  8
0
 10
-126.251087966602
 20
-26.90072608487718
 30
0.0
  0
VERTEX
  5
2C1
  8
0
 10
-125.8970082578277
 20
-27.39864788631954
 30
0.0
  0
VERTEX
  5
2C2
  8
0
 10
-125.5199857759737
 20
-27.87841470092336
 30
0.0
  0
VERTEX
  5
2C3
  8
0
 10
-125.1208184860036
 20
-28.33922856384806
 30
0.0
  0
VERTEX
  5
2C4
  8
0
 10
-124.7003043528811
 20
-28.78029151025305
 30
0.0
  0
VERTEX
  5
2C5
  8
0
 10
-124.25924134157
 20
-29.20080557529775
 30
0.0
  0
VERTEX
  5
2C6
  8
0
 10
-123.7984274170342
 20
-29.59997279414157
 30
0.0
  0
VERTEX
  5
2C7
  8
0
 10
-123.3186605442372
 20
-29.97699520194393
 30
0.0
  0
VERTEX
  5
2C8
  8
0
 10
-122.8207386881429
 20
-30.33107483386424
 30
0.0
  0
VERTEX
  5
2C9
  8
0
 10
-122.305459813715
 20
-30.66141372506191
 30
0.0
  0
VERTEX
  5
2CA
  8
0
 10
-121.7736218859172
 20
-30.96721391069638
 30
0.0
  0
VERTEX
  5
2CB
  8
0
 10
-121.2260228697134
 20
-31.24767742592704
 30
0.0
  0
VERTEX
  5
2CC
  8
0
 10
-120.9465623175104
 20
-31.37815856812826
 30
0.0
  0
VERTEX
  5
2CD
  8
0
 10
-120.6634607300672
 20
-31.50200630591332
 30
0.0
  0
VERTEX
  5
2CE
  8
0
 10
-120.3768178530044
 20
-31.61912089367713
 30
0.0
  0
VERTEX
  5
2CF
  8
0
 10
-120.0867334319425
 20
-31.72940258581463
 30
0.0
  0
VERTEX
  5
2D0
  8
0
 10
-119.7933072125018
 20
-31.83275163672074
 30
0.0
  0
VERTEX
  5
2D1
  8
0
 10
-119.4966389403029
 20
-31.92906830079038
 30
0.0
  0
VERTEX
  5
2D2
  8
0
 10
-119.1968283609662
 20
-32.01825283241849
 30
0.0
  0
VERTEX
  5
2D3
  8
0
 10
-118.8939752201122
 20
-32.10020548599999
 30
0.0
  0
VERTEX
  5
2D4
  8
0
 10
-118.5881792633614
 20
-32.17482651592982
 30
0.0
  0
VERTEX
  5
2D5
  8
0
 10
-118.2795402363342
 20
-32.24201617660289
 30
0.0
  0
VERTEX
  5
2D6
  8
0
 10
-117.9681578846511
 20
-32.30167472241413
 30
0.0
  0
VERTEX
  5
2D7
  8
0
 10
-117.6541319539326
 20
-32.35370240775847
 30
0.0
  0
VERTEX
  5
2D8
  8
0
 10
-117.3375621897991
 20
-32.39799948703083
 30
0.0
  0
VERTEX
  5
2D9
  8
0
 10
-117.0185483378712
 20
-32.43446621462616
 30
0.0
  0
VERTEX
  5
2DA
  8
0
 10
-116.6971901437692
 20
-32.46300284493936
 30
0.0
  0
VERTEX
  5
2DB
  8
0
 10
-116.3735873531136
 20
-32.48350963236537
 30
0.0
  0
VERTEX
  5
2DC
  8
0
 10
-116.047839711525
 20
-32.49588683129911
 30
0.0
  0
VERTEX
  5
2DD
  8
0
 10
-115.7200469646238
 20
-32.50003469613551
 30
0.0
  0
SEQEND
  5
2DE
  8
0
  0
ENDSEC
  0
EOF
