  0
SECTION
  2
HEADER
  9
$ACADVER
  1
AC1009
  9
$DWGCODEPAGE
  3
ansi_1252
  9
$INSBASE
 10
0.0
 20
0.0
 30
0.0
  9
$EXTMIN
 10
-32.50000000000006
 20
-32.5
 30
0.0
  9
$EXTMAX
 10
32.50000000000011
 20
32.5
 30
0.0
  9
$LIMMIN
 10
0.0
 20
0.0
  9
$LIMMAX
 10
12.0
 20
9.0
  9
$ORTHOMODE
 70
     0
  9
$REGENMODE
 70
     1
  9
$FILLMODE
 70
     1
  9
$QTEXTMODE
 70
     0
  9
$MIRRTEXT
 70
     1
  9
$DRAGMODE
 70
     2
  9
$LTSCALE
 40
1.0
  9
$OSMODE
 70
    37
  9
$ATTMODE
 70
     1
  9
$TEXTSIZE
 40
0.2
  9
$TRACEWID
 40
0.05
  9
$TEXTSTYLE
  7
STANDARD
  9
$CLAYER
  8
0
  9
$CELTYPE
  6
BYLAYER
  9
$CECOLOR
 62
   256
  9
$DIMSCALE
 40
1.0
  9
$DIMASZ
 40
0.18
  9
$DIMEXO
 40
0.0625
  9
$DIMDLI
 40
0.38
  9
$DIMRND
 40
0.0
  9
$DIMDLE
 40
0.0
  9
$DIMEXE
 40
0.18
  9
$DIMTP
 40
0.0
  9
$DIMTM
 40
0.0
  9
$DIMTXT
 40
0.18
  9
$DIMCEN
 40
0.09
  9
$DIMTSZ
 40
0.0
  9
$DIMTOL
 70
     0
  9
$DIMLIM
 70
     0
  9
$DIMTIH
 70
     1
  9
$DIMTOH
 70
     1
  9
$DIMSE1
 70
     0
  9
$DIMSE2
 70
     0
  9
$DIMTAD
 70
     0
  9
$DIMZIN
 70
     0
  9
$DIMBLK
  1

  9
$DIMASO
 70
     1
  9
$DIMSHO
 70
     1
  9
$DIMPOST
  1

  9
$DIMAPOST
  1

  9
$DIMALT
 70
     0
  9
$DIMALTD
 70
     2
  9
$DIMALTF
 40
25.4
  9
$DIMLFAC
 40
1.0
  9
$DIMTOFL
 70
     0
  9
$DIMTVP
 40
0.0
  9
$DIMTIX
 70
     0
  9
$DIMSOXD
 70
     0
  9
$DIMSAH
 70
     0
  9
$DIMBLK1
  1

  9
$DIMBLK2
  1

  9
$DIMSTYLE
  2
STANDARD
  9
$DIMCLRD
 70
     0
  9
$DIMCLRE
 70
     0
  9
$DIMCLRT
 70
     0
  9
$DIMTFAC
 40
1.0
  9
$DIMGAP
 40
0.09
  9
$LUNITS
 70
     2
  9
$LUPREC
 70
     4
  9
$SKETCHINC
 40
0.1
  9
$FILLETRAD
 40
0.5
  9
$AUNITS
 70
     0
  9
$AUPREC
 70
     0
  9
$MENU
  1
.
  9
$ELEVATION
 40
0.0
  9
$PELEVATION
 40
0.0
  9
$THICKNESS
 40
0.0
  9
$LIMCHECK
 70
     0
  9
$CHAMFERA
 40
0.5
  9
$CHAMFERB
 40
0.5
  9
$SKPOLY
 70
     0
  9
$TDCREATE
 40
2454910.5
  9
$TDUPDATE
 40
2457657.78947478
  9
$TDINDWG
 40
0.0000000116
  9
$TDUSRTIMER
 40
0.0000000116
  9
$USRTIMER
 70
     1
  9
$ANGBASE
 50
0.0
  9
$ANGDIR
 70
     0
  9
$PDMODE
 70
     0
  9
$PDSIZE
 40
0.0
  9
$PLINEWID
 40
0.0
  9
$COORDS
 70
     1
  9
$SPLFRAME
 70
     0
  9
$SPLINETYPE
 70
     6
  9
$SPLINESEGS
 70
     8
  9
$ATTDIA
 70
     0
  9
$ATTREQ
 70
     1
  9
$HANDLING
 70
     1
  9
$HANDSEED
  5
159
  9
$SURFTAB1
 70
     6
  9
$SURFTAB2
 70
     6
  9
$SURFTYPE
 70
     6
  9
$SURFU
 70
     6
  9
$SURFV
 70
     6
  9
$UCSNAME
  2

  9
$UCSORG
 10
0.0
 20
0.0
 30
0.0
  9
$UCSXDIR
 10
1.0
 20
0.0
 30
0.0
  9
$UCSYDIR
 10
0.0
 20
1.0
 30
0.0
  9
$PUCSNAME
  2

  9
$PUCSORG
 10
0.0
 20
0.0
 30
0.0
  9
$PUCSXDIR
 10
1.0
 20
0.0
 30
0.0
  9
$PUCSYDIR
 10
0.0
 20
1.0
 30
0.0
  9
$USERI1
 70
     0
  9
$USERI2
 70
     0
  9
$USERI3
 70
     0
  9
$USERI4
 70
     0
  9
$USERI5
 70
     0
  9
$USERR1
 40
0.0
  9
$USERR2
 40
0.0
  9
$USERR3
 40
0.0
  9
$USERR4
 40
0.0
  9
$USERR5
 40
0.0
  9
$WORLDVIEW
 70
     1
  9
$SHADEDGE
 70
     3
  9
$SHADEDIF
 70
    70
  9
$TILEMODE
 70
     1
  9
$MAXACTVP
 70
    64
  9
$PLIMCHECK
 70
     0
  9
$PEXTMIN
 10
1.000000000000000E+20
 20
1.000000000000000E+20
 30
1.000000000000000E+20
  9
$PEXTMAX
 10
-1.000000000000000E+20
 20
-1.000000000000000E+20
 30
-1.000000000000000E+20
  9
$PLIMMIN
 10
0.0
 20
0.0
  9
$PLIMMAX
 10
12.0
 20
9.0
  9
$UNITMODE
 70
     0
  9
$VISRETAIN
 70
     1
  9
$PLINEGEN
 70
     0
  9
$PSLTSCALE
 70
     1
  0
ENDSEC
  0
SECTION
  2
TABLES
  0
TABLE
  2
VPORT
 70
     1
  0
VPORT
  2
*ACTIVE
 70
     0
 10
0.0
 20
0.0
 11
1.0
 21
1.0
 12
10.42990654205607
 22
4.5
 13
0.0
 23
0.0
 14
0.5
 24
0.5
 15
0.5
 25
0.5
 16
0.0
 26
0.0
 36
1.0
 17
0.0
 27
0.0
 37
0.0
 40
9.0
 41
1.972972972850329
 42
50.0
 43
0.0
 44
0.0
 50
0.0
 51
0.0
 71
     0
 72
   100
 73
     1
 74
     3
 75
     0
 76
     0
 77
     0
 78
     0
  0
ENDTAB
  0
TABLE
  2
LTYPE
 70
     2
  0
LTYPE
  2
CONTINUOUS
 70
     0
  3
Solid line
 72
    65
 73
     0
 40
0.0
  0
LTYPE
  2
CONTINUOUS2
 70
     0
  3
Solid Line
 72
    65
 73
     0
 40
0.0
  0
ENDTAB
  0
TABLE
  2
LAYER
 70
     1
  0
LAYER
  2
0
 70
     0
 62
     7
  6
CONTINUOUS
  0
ENDTAB
  0
TABLE
  2
STYLE
 70
     1
  0
STYLE
  2
STANDARD
 70
     0
 40
0.0
 41
1.0
 50
0.0
 71
     0
 42
0.2
  3
txt
  4

  0
ENDTAB
  0
TABLE
  2
VIEW
 70
     0
  0
ENDTAB
  0
TABLE
  2
UCS
 70
     0
  0
ENDTAB
  0
TABLE
  2
APPID
 70
     1
  0
APPID
  2
ACAD
 70
     0
  0
ENDTAB
  0
TABLE
  2
DIMSTYLE
 70
     1
  0
DIMSTYLE
  2
STANDARD
 70
     0
  3

  4

  5

  6

  7

 40
1.0
 41
0.18
 42
0.0625
 43
0.38
 44
0.18
 45
0.0
 46
0.0
 47
0.0
 48
0.0
140
0.18
141
0.09
142
0.0
143
25.4
144
1.0
145
0.0
146
1.0
147
0.09
 71
     0
 72
     0
 73
     1
 74
     1
 75
     0
 76
     0
 77
     0
 78
     0
170
     0
171
     2
172
     0
173
     0
174
     0
175
     0
176
     0
177
     0
178
     0
  0
ENDTAB
  0
ENDSEC
  0
SECTION
  2
BLOCKS
  0
BLOCK
  8
0
  2
$MODEL_SPACE
 70
     0
 10
0.0
 20
0.0
 30
0.0
  3
$MODEL_SPACE
  1

  0
ENDBLK
  5
21
  8
0
  0
BLOCK
 67
     1
  8
0
  2
$PAPER_SPACE
 70
     0
 10
0.0
 20
0.0
 30
0.0
  3
$PAPER_SPACE
  1

  0
ENDBLK
  5
1D
 67
     1
  8
0
  0
ENDSEC
  0
SECTION
  2
ENTITIES
  0
POLYLINE
  5
40
  8
0
 66
     1
 10
0.0
 20
0.0
 30
0.0
 70
     1
  0
VERTEX
  5
49
  8
0
 10
0.0
 20
32.5
 30
0.0
  0
VERTEX
  5
4A
  8
0
 10
-0.8388396140199488
 20
32.48938525801024
 30
0.0
  0
VERTEX
  5
4B
  8
0
 10
-1.672445689308797
 20
32.45771120167125
 30
0.0
  0
VERTEX
  5
4C
  8
0
 10
-2.500562971421092
 20
32.4052330854285
 30
0.0
  0
VERTEX
  5
4D
  8
0
 10
-3.322936205911379
 20
32.33220616372743
 30
0.0
  0
VERTEX
  5
4E
  8
0
 10
-4.139310138334205
 20
32.23888569101349
 30
0.0
  0
VERTEX
  5
4F
  8
0
 10
-4.949429514244117
 20
32.12552692173215
 30
0.0
  0
VERTEX
  5
50
  8
0
 10
-5.75303907919566
 20
31.99238511032885
 30
0.0
  0
VERTEX
  5
51
  8
0
 10
-6.549883578743382
 20
31.83971551124905
 30
0.0
  0
VERTEX
  5
52
  8
0
 10
-7.339707758441827
 20
31.66777337893821
 30
0.0
  0
VERTEX
  5
53
  8
0
 10
-8.122256363845544
 20
31.47681396784177
 30
0.0
  0
VERTEX
  5
54
  8
0
 10
-8.89727414050908
 20
31.26709253240519
 30
0.0
  0
VERTEX
  5
55
  8
0
 10
-9.664505833986977
 20
31.03886432707392
 30
0.0
  0
VERTEX
  5
56
  8
0
 10
-10.42369618983379
 20
30.79238460629341
 30
0.0
  0
VERTEX
  5
57
  8
0
 10
-11.17458995360405
 20
30.52790862450913
 30
0.0
  0
VERTEX
  5
58
  8
0
 10
-11.91693187085232
 20
30.24569163616652
 30
0.0
  0
VERTEX
  5
59
  8
0
 10
-12.65046668713314
 20
29.94598889571104
 30
0.0
  0
VERTEX
  5
5A
  8
0
 10
-13.37493914800105
 20
29.62905565758815
 30
0.0
  0
VERTEX
  5
5B
  8
0
 10
-14.09009399901061
 20
29.29514717624328
 30
0.0
  0
VERTEX
  5
5C
  8
0
 10
-14.79567598571635
 20
28.9445187061219
 30
0.0
  0
VERTEX
  5
5D
  8
0
 10
-15.49142985367283
 20
28.57742550166947
 30
0.0
  0
VERTEX
  5
5E
  8
0
 10
-16.17710034843459
 20
28.19412281733143
 30
0.0
  0
VERTEX
  5
5F
  8
0
 10
-16.85243221555618
 20
27.79486590755323
 30
0.0
  0
VERTEX
  5
60
  8
0
 10
-17.51717020059215
 20
27.37991002678034
 30
0.0
  0
VERTEX
  5
61
  8
0
 10
-18.17105904909703
 20
26.94951042945821
 30
0.0
  0
VERTEX
  5
62
  8
0
 10
-18.81384350662537
 20
26.50392237003229
 30
0.0
  0
VERTEX
  5
63
  8
0
 10
-19.44526831873174
 20
26.04340110294802
 30
0.0
  0
VERTEX
  5
64
  8
0
 10
-20.06507823097067
 20
25.56820188265088
 30
0.0
  0
VERTEX
  5
65
  8
0
 10
-20.6730179888967
 20
25.0785799635863
 30
0.0
  0
VERTEX
  5
66
  8
0
 10
-21.26883233806438
 20
24.57479060019975
 30
0.0
  0
VERTEX
  5
67
  8
0
 10
-21.85226602402826
 20
24.05708904693668
 30
0.0
  0
VERTEX
  5
68
  8
0
 10
-22.42306379234289
 20
23.52573055824254
 30
0.0
  0
VERTEX
  5
69
  8
0
 10
-22.98097038856281
 20
22.98097038856278
 30
0.0
  0
VERTEX
  5
6A
  8
0
 10
-23.52573055824257
 20
22.42306379234286
 30
0.0
  0
VERTEX
  5
6B
  8
0
 10
-24.05708904693671
 20
21.85226602402824
 30
0.0
  0
VERTEX
  5
6C
  8
0
 10
-24.57479060019978
 20
21.26883233806436
 30
0.0
  0
VERTEX
  5
6D
  8
0
 10
-25.07857996358634
 20
20.67301798889667
 30
0.0
  0
VERTEX
  5
6E
  8
0
 10
-25.56820188265091
 20
20.06507823097065
 30
0.0
  0
VERTEX
  5
6F
  8
0
 10
-26.04340110294806
 20
19.44526831873172
 30
0.0
  0
VERTEX
  5
70
  8
0
 10
-26.50392237003232
 20
18.81384350662536
 30
0.0
  0
VERTEX
  5
71
  8
0
 10
-26.94951042945824
 20
18.17105904909701
 30
0.0
  0
VERTEX
  5
72
  8
0
 10
-27.37991002678038
 20
17.51717020059213
 30
0.0
  0
VERTEX
  5
73
  8
0
 10
-27.79486590755327
 20
16.85243221555617
 30
0.0
  0
VERTEX
  5
74
  8
0
 10
-28.19412281733146
 20
16.17710034843458
 30
0.0
  0
VERTEX
  5
75
  8
0
 10
-28.57742550166951
 20
15.49142985367282
 30
0.0
  0
VERTEX
  5
76
  8
0
 10
-28.94451870612194
 20
14.79567598571634
 30
0.0
  0
VERTEX
  5
77
  8
0
 10
-29.29514717624332
 20
14.0900939990106
 30
0.0
  0
VERTEX
  5
78
  8
0
 10
-29.62905565758819
 20
13.37493914800104
 30
0.0
  0
VERTEX
  5
79
  8
0
 10
-29.94598889571109
 20
12.65046668713313
 30
0.0
  0
VERTEX
  5
7A
  8
0
 10
-30.24569163616657
 20
11.91693187085231
 30
0.0
  0
VERTEX
  5
7B
  8
0
 10
-30.52790862450918
 20
11.17458995360404
 30
0.0
  0
VERTEX
  5
7C
  8
0
 10
-30.79238460629346
 20
10.42369618983378
 30
0.0
  0
VERTEX
  5
7D
  8
0
 10
-31.03886432707397
 20
9.664505833986972
 30
0.0
  0
VERTEX
  5
7E
  8
0
 10
-31.26709253240524
 20
8.897274140509076
 30
0.0
  0
VERTEX
  5
7F
  8
0
 10
-31.47681396784182
 20
8.12225636384554
 30
0.0
  0
VERTEX
  5
80
  8
0
 10
-31.66777337893826
 20
7.339707758441826
 30
0.0
  0
VERTEX
  5
81
  8
0
 10
-31.83971551124911
 20
6.54988357874338
 30
0.0
  0
VERTEX
  5
82
  8
0
 10
-31.99238511032891
 20
5.753039079195658
 30
0.0
  0
VERTEX
  5
83
  8
0
 10
-32.12552692173221
 20
4.949429514244116
 30
0.0
  0
VERTEX
  5
84
  8
0
 10
-32.23888569101355
 20
4.139310138334205
 30
0.0
  0
VERTEX
  5
85
  8
0
 10
-32.33220616372748
 20
3.322936205911379
 30
0.0
  0
VERTEX
  5
86
  8
0
 10
-32.40523308542856
 20
2.500562971421092
 30
0.0
  0
VERTEX
  5
87
  8
0
 10
-32.45771120167131
 20
1.672445689308797
 30
0.0
  0
VERTEX
  5
88
  8
0
 10
-32.4893852580103
 20
0.8388396140199488
 30
0.0
  0
VERTEX
  5
89
  8
0
 10
-32.50000000000006
 20
0.0
 30
0.0
  0
VERTEX
  5
8A
  8
0
 10
-32.4893852580103
 20
-0.8388396140199488
 30
0.0
  0
VERTEX
  5
8B
  8
0
 10
-32.45771120167131
 20
-1.672445689308797
 30
0.0
  0
VERTEX
  5
8C
  8
0
 10
-32.40523308542856
 20
-2.500562971421092
 30
0.0
  0
VERTEX
  5
8D
  8
0
 10
-32.33220616372748
 20
-3.322936205911379
 30
0.0
  0
VERTEX
  5
8E
  8
0
 10
-32.23888569101355
 20
-4.139310138334205
 30
0.0
  0
VERTEX
  5
8F
  8
0
 10
-32.12552692173221
 20
-4.949429514244116
 30
0.0
  0
VERTEX
  5
90
  8
0
 10
-31.99238511032891
 20
-5.753039079195658
 30
0.0
  0
VERTEX
  5
91
  8
0
 10
-31.83971551124911
 20
-6.54988357874338
 30
0.0
  0
VERTEX
  5
92
  8
0
 10
-31.66777337893826
 20
-7.339707758441826
 30
0.0
  0
VERTEX
  5
93
  8
0
 10
-31.47681396784182
 20
-8.12225636384554
 30
0.0
  0
VERTEX
  5
94
  8
0
 10
-31.26709253240524
 20
-8.897274140509076
 30
0.0
  0
VERTEX
  5
95
  8
0
 10
-31.03886432707397
 20
-9.664505833986972
 30
0.0
  0
VERTEX
  5
96
  8
0
 10
-30.79238460629346
 20
-10.42369618983378
 30
0.0
  0
VERTEX
  5
97
  8
0
 10
-30.52790862450918
 20
-11.17458995360404
 30
0.0
  0
VERTEX
  5
98
  8
0
 10
-30.24569163616657
 20
-11.91693187085231
 30
0.0
  0
VERTEX
  5
99
  8
0
 10
-29.94598889571109
 20
-12.65046668713313
 30
0.0
  0
VERTEX
  5
9A
  8
0
 10
-29.62905565758819
 20
-13.37493914800104
 30
0.0
  0
VERTEX
  5
9B
  8
0
 10
-29.29514717624332
 20
-14.0900939990106
 30
0.0
  0
VERTEX
  5
9C
  8
0
 10
-28.94451870612194
 20
-14.79567598571634
 30
0.0
  0
VERTEX
  5
9D
  8
0
 10
-28.57742550166951
 20
-15.49142985367282
 30
0.0
  0
VERTEX
  5
9E
  8
0
 10
-28.19412281733146
 20
-16.17710034843458
 30
0.0
  0
VERTEX
  5
9F
  8
0
 10
-27.79486590755327
 20
-16.85243221555617
 30
0.0
  0
VERTEX
  5
A0
  8
0
 10
-27.37991002678038
 20
-17.51717020059213
 30
0.0
  0
VERTEX
  5
A1
  8
0
 10
-26.94951042945824
 20
-18.17105904909701
 30
0.0
  0
VERTEX
  5
A2
  8
0
 10
-26.50392237003232
 20
-18.81384350662536
 30
0.0
  0
VERTEX
  5
A3
  8
0
 10
-26.04340110294806
 20
-19.44526831873172
 30
0.0
  0
VERTEX
  5
A4
  8
0
 10
-25.56820188265091
 20
-20.06507823097065
 30
0.0
  0
VERTEX
  5
A5
  8
0
 10
-25.07857996358634
 20
-20.67301798889667
 30
0.0
  0
VERTEX
  5
A6
  8
0
 10
-24.57479060019978
 20
-21.26883233806436
 30
0.0
  0
VERTEX
  5
A7
  8
0
 10
-24.05708904693671
 20
-21.85226602402824
 30
0.0
  0
VERTEX
  5
A8
  8
0
 10
-23.52573055824257
 20
-22.42306379234286
 30
0.0
  0
VERTEX
  5
A9
  8
0
 10
-22.98097038856281
 20
-22.98097038856278
 30
0.0
  0
VERTEX
  5
AA
  8
0
 10
-22.42306379234289
 20
-23.52573055824254
 30
0.0
  0
VERTEX
  5
AB
  8
0
 10
-21.85226602402826
 20
-24.05708904693668
 30
0.0
  0
VERTEX
  5
AC
  8
0
 10
-21.26883233806438
 20
-24.57479060019975
 30
0.0
  0
VERTEX
  5
AD
  8
0
 10
-20.6730179888967
 20
-25.0785799635863
 30
0.0
  0
VERTEX
  5
AE
  8
0
 10
-20.06507823097067
 20
-25.56820188265088
 30
0.0
  0
VERTEX
  5
AF
  8
0
 10
-19.44526831873174
 20
-26.04340110294802
 30
0.0
  0
VERTEX
  5
B0
  8
0
 10
-18.81384350662537
 20
-26.50392237003229
 30
0.0
  0
VERTEX
  5
B1
  8
0
 10
-18.17105904909703
 20
-26.94951042945821
 30
0.0
  0
VERTEX
  5
B2
  8
0
 10
-17.51717020059215
 20
-27.37991002678034
 30
0.0
  0
VERTEX
  5
B3
  8
0
 10
-16.85243221555618
 20
-27.79486590755323
 30
0.0
  0
VERTEX
  5
B4
  8
0
 10
-16.17710034843459
 20
-28.19412281733143
 30
0.0
  0
VERTEX
  5
B5
  8
0
 10
-15.49142985367283
 20
-28.57742550166947
 30
0.0
  0
VERTEX
  5
B6
  8
0
 10
-14.79567598571635
 20
-28.9445187061219
 30
0.0
  0
VERTEX
  5
B7
  8
0
 10
-14.09009399901061
 20
-29.29514717624328
 30
0.0
  0
VERTEX
  5
B8
  8
0
 10
-13.37493914800105
 20
-29.62905565758815
 30
0.0
  0
VERTEX
  5
B9
  8
0
 10
-12.65046668713314
 20
-29.94598889571104
 30
0.0
  0
VERTEX
  5
BA
  8
0
 10
-11.91693187085232
 20
-30.24569163616652
 30
0.0
  0
VERTEX
  5
BB
  8
0
 10
-11.17458995360405
 20
-30.52790862450913
 30
0.0
  0
VERTEX
  5
BC
  8
0
 10
-10.42369618983379
 20
-30.79238460629341
 30
0.0
  0
VERTEX
  5
BD
  8
0
 10
-9.664505833986977
 20
-31.03886432707392
 30
0.0
  0
VERTEX
  5
BE
  8
0
 10
-8.89727414050908
 20
-31.26709253240519
 30
0.0
  0
VERTEX
  5
BF
  8
0
 10
-8.122256363845544
 20
-31.47681396784177
 30
0.0
  0
VERTEX
  5
C0
  8
0
 10
-7.339707758441827
 20
-31.66777337893821
 30
0.0
  0
VERTEX
  5
C1
  8
0
 10
-6.549883578743382
 20
-31.83971551124905
 30
0.0
  0
VERTEX
  5
C2
  8
0
 10
-5.75303907919566
 20
-31.99238511032885
 30
0.0
  0
VERTEX
  5
C3
  8
0
 10
-4.949429514244117
 20
-32.12552692173215
 30
0.0
  0
VERTEX
  5
C4
  8
0
 10
-4.139310138334205
 20
-32.23888569101349
 30
0.0
  0
VERTEX
  5
C5
  8
0
 10
-3.322936205911379
 20
-32.33220616372743
 30
0.0
  0
VERTEX
  5
C6
  8
0
 10
-2.500562971421092
 20
-32.4052330854285
 30
0.0
  0
VERTEX
  5
C7
  8
0
 10
-1.672445689308797
 20
-32.45771120167125
 30
0.0
  0
VERTEX
  5
C8
  8
0
 10
-0.8388396140199488
 20
-32.48938525801024
 30
0.0
  0
VERTEX
  5
C9
  8
0
 10
0.0
 20
-32.5
 30
0.0
  0
VERTEX
  5
CA
  8
0
 10
0.8388396140199462
 20
-32.48938525801024
 30
0.0
  0
VERTEX
  5
CB
  8
0
 10
1.672445689308792
 20
-32.45771120167125
 30
0.0
  0
VERTEX
  5
CC
  8
0
 10
2.500562971421085
 20
-32.4052330854285
 30
0.0
  0
VERTEX
  5
CD
  8
0
 10
3.322936205911371
 20
-32.33220616372743
 30
0.0
  0
VERTEX
  5
CE
  8
0
 10
4.139310138334195
 20
-32.23888569101349
 30
0.0
  0
VERTEX
  5
CF
  8
0
 10
4.949429514244105
 20
-32.12552692173215
 30
0.0
  0
VERTEX
  5
D0
  8
0
 10
5.753039079195647
 20
-31.99238511032885
 30
0.0
  0
VERTEX
  5
D1
  8
0
 10
6.549883578743367
 20
-31.83971551124905
 30
0.0
  0
VERTEX
  5
D2
  8
0
 10
7.339707758441811
 20
-31.66777337893821
 30
0.0
  0
VERTEX
  5
D3
  8
0
 10
8.122256363845528
 20
-31.47681396784177
 30
0.0
  0
VERTEX
  5
D4
  8
0
 10
8.897274140509063
 20
-31.26709253240519
 30
0.0
  0
VERTEX
  5
D5
  8
0
 10
9.664505833986961
 20
-31.03886432707392
 30
0.0
  0
VERTEX
  5
D6
  8
0
 10
10.42369618983377
 20
-30.79238460629341
 30
0.0
  0
VERTEX
  5
D7
  8
0
 10
11.17458995360403
 20
-30.52790862450913
 30
0.0
  0
VERTEX
  5
D8
  8
0
 10
11.9169318708523
 20
-30.24569163616652
 30
0.0
  0
VERTEX
  5
D9
  8
0
 10
12.65046668713312
 20
-29.94598889571104
 30
0.0
  0
VERTEX
  5
DA
  8
0
 10
13.37493914800103
 20
-29.62905565758815
 30
0.0
  0
VERTEX
  5
DB
  8
0
 10
14.09009399901059
 20
-29.29514717624328
 30
0.0
  0
VERTEX
  5
DC
  8
0
 10
14.79567598571634
 20
-28.9445187061219
 30
0.0
  0
VERTEX
  5
DD
  8
0
 10
15.49142985367282
 20
-28.57742550166947
 30
0.0
  0
VERTEX
  5
DE
  8
0
 10
16.17710034843458
 20
-28.19412281733143
 30
0.0
  0
VERTEX
  5
DF
  8
0
 10
16.85243221555617
 20
-27.79486590755323
 30
0.0
  0
VERTEX
  5
E0
  8
0
 10
17.51717020059214
 20
-27.37991002678034
 30
0.0
  0
VERTEX
  5
E1
  8
0
 10
18.17105904909702
 20
-26.94951042945821
 30
0.0
  0
VERTEX
  5
E2
  8
0
 10
18.81384350662537
 20
-26.50392237003229
 30
0.0
  0
VERTEX
  5
E3
  8
0
 10
19.44526831873174
 20
-26.04340110294802
 30
0.0
  0
VERTEX
  5
E4
  8
0
 10
20.06507823097066
 20
-25.56820188265088
 30
0.0
  0
VERTEX
  5
E5
  8
0
 10
20.6730179888967
 20
-25.0785799635863
 30
0.0
  0
VERTEX
  5
E6
  8
0
 10
21.26883233806438
 20
-24.57479060019975
 30
0.0
  0
VERTEX
  5
E7
  8
0
 10
21.85226602402827
 20
-24.05708904693668
 30
0.0
  0
VERTEX
  5
E8
  8
0
 10
22.4230637923429
 20
-23.52573055824254
 30
0.0
  0
VERTEX
  5
E9
  8
0
 10
22.98097038856282
 20
-22.98097038856278
 30
0.0
  0
VERTEX
  5
EA
  8
0
 10
23.52573055824258
 20
-22.42306379234286
 30
0.0
  0
VERTEX
  5
EB
  8
0
 10
24.05708904693672
 20
-21.85226602402824
 30
0.0
  0
VERTEX
  5
EC
  8
0
 10
24.57479060019979
 20
-21.26883233806436
 30
0.0
  0
VERTEX
  5
ED
  8
0
 10
25.07857996358635
 20
-20.67301798889667
 30
0.0
  0
VERTEX
  5
EE
  8
0
 10
25.56820188265092
 20
-20.06507823097065
 30
0.0
  0
VERTEX
  5
EF
  8
0
 10
26.04340110294807
 20
-19.44526831873172
 30
0.0
  0
VERTEX
  5
F0
  8
0
 10
26.50392237003233
 20
-18.81384350662536
 30
0.0
  0
VERTEX
  5
F1
  8
0
 10
26.94951042945826
 20
-18.17105904909701
 30
0.0
  0
VERTEX
  5
F2
  8
0
 10
27.3799100267804
 20
-17.51717020059213
 30
0.0
  0
VERTEX
  5
F3
  8
0
 10
27.79486590755329
 20
-16.85243221555617
 30
0.0
  0
VERTEX
  5
F4
  8
0
 10
28.19412281733149
 20
-16.17710034843458
 30
0.0
  0
VERTEX
  5
F5
  8
0
 10
28.57742550166954
 20
-15.49142985367282
 30
0.0
  0
VERTEX
  5
F6
  8
0
 10
28.94451870612198
 20
-14.79567598571634
 30
0.0
  0
VERTEX
  5
F7
  8
0
 10
29.29514717624336
 20
-14.0900939990106
 30
0.0
  0
VERTEX
  5
F8
  8
0
 10
29.62905565758823
 20
-13.37493914800104
 30
0.0
  0
VERTEX
  5
F9
  8
0
 10
29.94598889571113
 20
-12.65046668713313
 30
0.0
  0
VERTEX
  5
FA
  8
0
 10
30.24569163616661
 20
-11.91693187085231
 30
0.0
  0
VERTEX
  5
FB
  8
0
 10
30.52790862450923
 20
-11.17458995360404
 30
0.0
  0
VERTEX
  5
FC
  8
0
 10
30.79238460629351
 20
-10.42369618983378
 30
0.0
  0
VERTEX
  5
FD
  8
0
 10
31.03886432707402
 20
-9.664505833986972
 30
0.0
  0
VERTEX
  5
FE
  8
0
 10
31.26709253240529
 20
-8.897274140509076
 30
0.0
  0
VERTEX
  5
FF
  8
0
 10
31.47681396784187
 20
-8.12225636384554
 30
0.0
  0
VERTEX
  5
100
  8
0
 10
31.66777337893831
 20
-7.339707758441826
 30
0.0
  0
VERTEX
  5
101
  8
0
 10
31.83971551124916
 20
-6.54988357874338
 30
0.0
  0
VERTEX
  5
102
  8
0
 10
31.99238511032897
 20
-5.753039079195658
 30
0.0
  0
VERTEX
  5
103
  8
0
 10
32.12552692173227
 20
-4.949429514244116
 30
0.0
  0
VERTEX
  5
104
  8
0
 10
32.23888569101361
 20
-4.139310138334205
 30
0.0
  0
VERTEX
  5
105
  8
0
 10
32.33220616372754
 20
-3.322936205911379
 30
0.0
  0
VERTEX
  5
106
  8
0
 10
32.40523308542861
 20
-2.500562971421092
 30
0.0
  0
VERTEX
  5
107
  8
0
 10
32.45771120167137
 20
-1.672445689308797
 30
0.0
  0
VERTEX
  5
108
  8
0
 10
32.48938525801036
 20
-0.8388396140199488
 30
0.0
  0
VERTEX
  5
109
  8
0
 10
32.50000000000011
 20
0.0
 30
0.0
  0
VERTEX
  5
10A
  8
0
 10
32.48938525801034
 20
0.8388396140199538
 30
0.0
  0
VERTEX
  5
10B
  8
0
 10
32.45771120167136
 20
1.672445689308807
 30
0.0
  0
VERTEX
  5
10C
  8
0
 10
32.4052330854286
 20
2.500562971421107
 30
0.0
  0
VERTEX
  5
10D
  8
0
 10
32.33220616372752
 20
3.322936205911397
 30
0.0
  0
VERTEX
  5
10E
  8
0
 10
32.23888569101358
 20
4.139310138334227
 30
0.0
  0
VERTEX
  5
10F
  8
0
 10
32.12552692173224
 20
4.949429514244142
 30
0.0
  0
VERTEX
  5
110
  8
0
 10
31.99238511032894
 20
5.753039079195688
 30
0.0
  0
VERTEX
  5
111
  8
0
 10
31.83971551124914
 20
6.549883578743412
 30
0.0
  0
VERTEX
  5
112
  8
0
 10
31.66777337893829
 20
7.339707758441859
 30
0.0
  0
VERTEX
  5
113
  8
0
 10
31.47681396784184
 20
8.12225636384558
 30
0.0
  0
VERTEX
  5
114
  8
0
 10
31.26709253240526
 20
8.897274140509115
 30
0.0
  0
VERTEX
  5
115
  8
0
 10
31.03886432707399
 20
9.664505833987015
 30
0.0
  0
VERTEX
  5
116
  8
0
 10
30.79238460629348
 20
10.42369618983382
 30
0.0
  0
VERTEX
  5
117
  8
0
 10
30.5279086245092
 20
11.17458995360409
 30
0.0
  0
VERTEX
  5
118
  8
0
 10
30.24569163616659
 20
11.91693187085236
 30
0.0
  0
VERTEX
  5
119
  8
0
 10
29.94598889571111
 20
12.65046668713318
 30
0.0
  0
VERTEX
  5
11A
  8
0
 10
29.6290556575882
 20
13.37493914800109
 30
0.0
  0
VERTEX
  5
11B
  8
0
 10
29.29514717624334
 20
14.09009399901065
 30
0.0
  0
VERTEX
  5
11C
  8
0
 10
28.94451870612196
 20
14.79567598571639
 30
0.0
  0
VERTEX
  5
11D
  8
0
 10
28.57742550166952
 20
15.49142985367287
 30
0.0
  0
VERTEX
  5
11E
  8
0
 10
28.19412281733148
 20
16.17710034843463
 30
0.0
  0
VERTEX
  5
11F
  8
0
 10
27.79486590755329
 20
16.85243221555622
 30
0.0
  0
VERTEX
  5
120
  8
0
 10
27.3799100267804
 20
17.51717020059218
 30
0.0
  0
VERTEX
  5
121
  8
0
 10
26.94951042945826
 20
18.17105904909706
 30
0.0
  0
VERTEX
  5
122
  8
0
 10
26.50392237003234
 20
18.81384350662541
 30
0.0
  0
VERTEX
  5
123
  8
0
 10
26.04340110294808
 20
19.44526831873177
 30
0.0
  0
VERTEX
  5
124
  8
0
 10
25.56820188265093
 20
20.06507823097069
 30
0.0
  0
VERTEX
  5
125
  8
0
 10
25.07857996358636
 20
20.67301798889672
 30
0.0
  0
VERTEX
  5
126
  8
0
 10
24.5747906001998
 20
21.26883233806441
 30
0.0
  0
VERTEX
  5
127
  8
0
 10
24.05708904693673
 20
21.85226602402828
 30
0.0
  0
VERTEX
  5
128
  8
0
 10
23.52573055824259
 20
22.42306379234291
 30
0.0
  0
VERTEX
  5
129
  8
0
 10
22.98097038856284
 20
22.98097038856282
 30
0.0
  0
VERTEX
  5
12A
  8
0
 10
22.42306379234292
 20
23.52573055824258
 30
0.0
  0
VERTEX
  5
12B
  8
0
 10
21.85226602402829
 20
24.05708904693672
 30
0.0
  0
VERTEX
  5
12C
  8
0
 10
21.26883233806441
 20
24.57479060019979
 30
0.0
  0
VERTEX
  5
12D
  8
0
 10
20.67301798889673
 20
25.07857996358634
 30
0.0
  0
VERTEX
  5
12E
  8
0
 10
20.0650782309707
 20
25.56820188265091
 30
0.0
  0
VERTEX
  5
12F
  8
0
 10
19.44526831873178
 20
26.04340110294805
 30
0.0
  0
VERTEX
  5
130
  8
0
 10
18.81384350662542
 20
26.50392237003231
 30
0.0
  0
VERTEX
  5
131
  8
0
 10
18.17105904909707
 20
26.94951042945824
 30
0.0
  0
VERTEX
  5
132
  8
0
 10
17.51717020059218
 20
27.37991002678037
 30
0.0
  0
VERTEX
  5
133
  8
0
 10
16.85243221555622
 20
27.79486590755326
 30
0.0
  0
VERTEX
  5
134
  8
0
 10
16.17710034843463
 20
28.19412281733145
 30
0.0
  0
VERTEX
  5
135
  8
0
 10
15.49142985367287
 20
28.57742550166949
 30
0.0
  0
VERTEX
  5
136
  8
0
 10
14.79567598571639
 20
28.94451870612192
 30
0.0
  0
VERTEX
  5
137
  8
0
 10
14.09009399901065
 20
29.2951471762433
 30
0.0
  0
VERTEX
  5
138
  8
0
 10
13.37493914800109
 20
29.62905565758816
 30
0.0
  0
VERTEX
  5
139
  8
0
 10
12.65046668713318
 20
29.94598889571106
 30
0.0
  0
VERTEX
  5
13A
  8
0
 10
11.91693187085236
 20
30.24569163616654
 30
0.0
  0
VERTEX
  5
13B
  8
0
 10
11.17458995360409
 20
30.52790862450915
 30
0.0
  0
VERTEX
  5
13C
  8
0
 10
10.42369618983382
 20
30.79238460629343
 30
0.0
  0
VERTEX
  5
13D
  8
0
 10
9.664505833987015
 20
31.03886432707393
 30
0.0
  0
VERTEX
  5
13E
  8
0
 10
8.897274140509115
 20
31.26709253240519
 30
0.0
  0
VERTEX
  5
13F
  8
0
 10
8.12225636384558
 20
31.47681396784177
 30
0.0
  0
VERTEX
  5
140
  8
0
 10
7.339707758441859
 20
31.66777337893821
 30
0.0
  0
VERTEX
  5
141
  8
0
 10
6.549883578743412
 20
31.83971551124906
 30
0.0
  0
VERTEX
  5
142
  8
0
 10
5.753039079195688
 20
31.99238511032886
 30
0.0
  0
VERTEX
  5
143
  8
0
 10
4.949429514244142
 20
32.12552692173216
 30
0.0
  0
VERTEX
  5
144
  8
0
 10
4.139310138334227
 20
32.2388856910135
 30
0.0
  0
VERTEX
  5
145
  8
0
 10
3.322936205911397
 20
32.33220616372743
 30
0.0
  0
VERTEX
  5
146
  8
0
 10
2.500562971421107
 20
32.4052330854285
 30
0.0
  0
VERTEX
  5
147
  8
0
 10
1.672445689308807
 20
32.45771120167125
 30
0.0
  0
VERTEX
  5
148
  8
0
 10
0.8388396140199538
 20
32.48938525801024
 30
0.0
  0
SEQEND
  5
149
  8
0
  0
POLYLINE
  5
41
  8
0
 66
     1
 10
0.0
 20
0.0
 30
0.0
 70
     1
  0
VERTEX
  5
14A
  8
0
 10
-12.49999545610615
 20
24.62565560678946
 30
0.0
 42
0.4142135623730951
  0
VERTEX
  5
14B
  8
0
 10
-15.47499545610615
 20
21.65065560678946
 30
0.0
 42
0.4142135623730951
  0
VERTEX
  5
14C
  8
0
 10
-12.49999545610615
 20
18.67565560678946
 30
0.0
 42
0.4142135623730951
  0
VERTEX
  5
14D
  8
0
 10
-9.524995456106149
 20
21.65065560678946
 30
0.0
 42
0.4142135623730951
  0
SEQEND
  5
14E
  8
0
  0
POLYLINE
  5
42
  8
0
 66
     1
 10
0.0
 20
0.0
 30
0.0
 70
     1
  0
VERTEX
  5
14F
  8
0
 10
25.00001549212078
 20
2.974985808783279
 30
0.0
 42
0.4142135623730951
  0
VERTEX
  5
150
  8
0
 10
22.02501549212078
 20
-0.0000141912167209
 30
0.0
 42
0.4142135623730951
  0
VERTEX
  5
151
  8
0
 10
25.00001549212078
 20
-2.975014191216721
 30
0.0
 42
0.4142135623730951
  0
VERTEX
  5
152
  8
0
 10
27.97501549212078
 20
-0.0000141912167209
 30
0.0
 42
0.4142135623730951
  0
SEQEND
  5
153
  8
0
  0
POLYLINE
  5
43
  8
0
 66
     1
 10
0.0
 20
0.0
 30
0.0
 70
     1
  0
VERTEX
  5
154
  8
0
 10
-12.50002003601452
 20
-18.67564141557288
 30
0.0
 42
0.4142135623730951
  0
VERTEX
  5
155
  8
0
 10
-15.47502003601452
 20
-21.65064141557288
 30
0.0
 42
0.4142135623730951
  0
VERTEX
  5
156
  8
0
 10
-12.50002003601452
 20
-24.62564141557288
 30
0.0
 42
0.4142135623730951
  0
VERTEX
  5
157
  8
0
 10
-9.525020036014519
 20
-21.65064141557288
 30
0.0
 42
0.4142135623730951
  0
SEQEND
  5
158
  8
0
  0
ENDSEC
  0
EOF
