  0
SECTION
  2
HEADER
  9
$ACADVER
  1
AC1009
  9
$DWGCODEPAGE
  3
ansi_1252
  9
$INSBASE
 10
0.0
 20
0.0
 30
0.0
  9
$EXTMIN
 10
-101.5997968
 20
-107.5497849
 30
0.0
  9
$EXTMAX
 10
101.5997968
 20
107.5497849
 30
0.0
  9
$LIMMIN
 10
0.0
 20
0.0
  9
$LIMMAX
 10
12.0
 20
9.0
  9
$ORTHOMODE
 70
     0
  9
$REGENMODE
 70
     1
  9
$FILLMODE
 70
     1
  9
$QTEXTMODE
 70
     0
  9
$MIRRTEXT
 70
     1
  9
$DRAGMODE
 70
     2
  9
$LTSCALE
 40
1.0
  9
$OSMODE
 70
    37
  9
$ATTMODE
 70
     1
  9
$TEXTSIZE
 40
0.2
  9
$TRACEWID
 40
0.05
  9
$TEXTSTYLE
  7
STANDARD
  9
$CLAYER
  8
0
  9
$CELTYPE
  6
BYLAYER
  9
$CECOLOR
 62
   256
  9
$DIMSCALE
 40
1.0
  9
$DIMASZ
 40
0.18
  9
$DIMEXO
 40
0.0625
  9
$DIMDLI
 40
0.38
  9
$DIMRND
 40
0.0
  9
$DIMDLE
 40
0.0
  9
$DIMEXE
 40
0.18
  9
$DIMTP
 40
0.0
  9
$DIMTM
 40
0.0
  9
$DIMTXT
 40
0.18
  9
$DIMCEN
 40
0.09
  9
$DIMTSZ
 40
0.0
  9
$DIMTOL
 70
     0
  9
$DIMLIM
 70
     0
  9
$DIMTIH
 70
     1
  9
$DIMTOH
 70
     1
  9
$DIMSE1
 70
     0
  9
$DIMSE2
 70
     0
  9
$DIMTAD
 70
     0
  9
$DIMZIN
 70
     0
  9
$DIMBLK
  1

  9
$DIMASO
 70
     1
  9
$DIMSHO
 70
     1
  9
$DIMPOST
  1

  9
$DIMAPOST
  1

  9
$DIMALT
 70
     0
  9
$DIMALTD
 70
     2
  9
$DIMALTF
 40
25.4
  9
$DIMLFAC
 40
1.0
  9
$DIMTOFL
 70
     0
  9
$DIMTVP
 40
0.0
  9
$DIMTIX
 70
     0
  9
$DIMSOXD
 70
     0
  9
$DIMSAH
 70
     0
  9
$DIMBLK1
  1

  9
$DIMBLK2
  1

  9
$DIMSTYLE
  2
STANDARD
  9
$DIMCLRD
 70
     0
  9
$DIMCLRE
 70
     0
  9
$DIMCLRT
 70
     0
  9
$DIMTFAC
 40
1.0
  9
$DIMGAP
 40
0.09
  9
$LUNITS
 70
     2
  9
$LUPREC
 70
     4
  9
$SKETCHINC
 40
0.1
  9
$FILLETRAD
 40
0.5
  9
$AUNITS
 70
     0
  9
$AUPREC
 70
     0
  9
$MENU
  1
.
  9
$ELEVATION
 40
0.0
  9
$PELEVATION
 40
0.0
  9
$THICKNESS
 40
0.0
  9
$LIMCHECK
 70
     0
  9
$CHAMFERA
 40
0.5
  9
$CHAMFERB
 40
0.5
  9
$SKPOLY
 70
     0
  9
$TDCREATE
 40
2454910.5
  9
$TDUPDATE
 40
2457659.739622141
  9
$TDINDWG
 40
0.0000000116
  9
$TDUSRTIMER
 40
0.0000000116
  9
$USRTIMER
 70
     1
  9
$ANGBASE
 50
0.0
  9
$ANGDIR
 70
     0
  9
$PDMODE
 70
     0
  9
$PDSIZE
 40
0.0
  9
$PLINEWID
 40
0.0
  9
$COORDS
 70
     1
  9
$SPLFRAME
 70
     0
  9
$SPLINETYPE
 70
     6
  9
$SPLINESEGS
 70
     8
  9
$ATTDIA
 70
     0
  9
$ATTREQ
 70
     1
  9
$HANDLING
 70
     1
  9
$HANDSEED
  5
2F7
  9
$SURFTAB1
 70
     6
  9
$SURFTAB2
 70
     6
  9
$SURFTYPE
 70
     6
  9
$SURFU
 70
     6
  9
$SURFV
 70
     6
  9
$UCSNAME
  2

  9
$UCSORG
 10
0.0
 20
0.0
 30
0.0
  9
$UCSXDIR
 10
1.0
 20
0.0
 30
0.0
  9
$UCSYDIR
 10
0.0
 20
1.0
 30
0.0
  9
$PUCSNAME
  2

  9
$PUCSORG
 10
0.0
 20
0.0
 30
0.0
  9
$PUCSXDIR
 10
1.0
 20
0.0
 30
0.0
  9
$PUCSYDIR
 10
0.0
 20
1.0
 30
0.0
  9
$USERI1
 70
     0
  9
$USERI2
 70
     0
  9
$USERI3
 70
     0
  9
$USERI4
 70
     0
  9
$USERI5
 70
     0
  9
$USERR1
 40
0.0
  9
$USERR2
 40
0.0
  9
$USERR3
 40
0.0
  9
$USERR4
 40
0.0
  9
$USERR5
 40
0.0
  9
$WORLDVIEW
 70
     1
  9
$SHADEDGE
 70
     3
  9
$SHADEDIF
 70
    70
  9
$TILEMODE
 70
     1
  9
$MAXACTVP
 70
    64
  9
$PLIMCHECK
 70
     0
  9
$PEXTMIN
 10
1.000000000000000E+20
 20
1.000000000000000E+20
 30
1.000000000000000E+20
  9
$PEXTMAX
 10
-1.000000000000000E+20
 20
-1.000000000000000E+20
 30
-1.000000000000000E+20
  9
$PLIMMIN
 10
0.0
 20
0.0
  9
$PLIMMAX
 10
12.0
 20
9.0
  9
$UNITMODE
 70
     0
  9
$VISRETAIN
 70
     1
  9
$PLINEGEN
 70
     0
  9
$PSLTSCALE
 70
     1
  0
ENDSEC
  0
SECTION
  2
TABLES
  0
TABLE
  2
VPORT
 70
     1
  0
VPORT
  2
*ACTIVE
 70
     0
 10
0.0
 20
0.0
 11
1.0
 21
1.0
 12
10.42990654205607
 22
4.5
 13
0.0
 23
0.0
 14
0.5
 24
0.5
 15
0.5
 25
0.5
 16
0.0
 26
0.0
 36
1.0
 17
0.0
 27
0.0
 37
0.0
 40
9.0
 41
1.972972972850329
 42
50.0
 43
0.0
 44
0.0
 50
0.0
 51
0.0
 71
     0
 72
   100
 73
     1
 74
     3
 75
     0
 76
     0
 77
     0
 78
     0
  0
ENDTAB
  0
TABLE
  2
LTYPE
 70
     2
  0
LTYPE
  2
CONTINUOUS
 70
     0
  3
Solid line
 72
    65
 73
     0
 40
0.0
  0
LTYPE
  2
CONTINUOUS2
 70
     0
  3
Solid Line
 72
    65
 73
     0
 40
0.0
  0
ENDTAB
  0
TABLE
  2
LAYER
 70
     1
  0
LAYER
  2
0
 70
     0
 62
     7
  6
CONTINUOUS
  0
ENDTAB
  0
TABLE
  2
STYLE
 70
     1
  0
STYLE
  2
STANDARD
 70
     0
 40
0.0
 41
1.0
 50
0.0
 71
     0
 42
0.2
  3
txt
  4

  0
ENDTAB
  0
TABLE
  2
VIEW
 70
     0
  0
ENDTAB
  0
TABLE
  2
UCS
 70
     0
  0
ENDTAB
  0
TABLE
  2
APPID
 70
     1
  0
APPID
  2
ACAD
 70
     0
  0
ENDTAB
  0
TABLE
  2
DIMSTYLE
 70
     1
  0
DIMSTYLE
  2
STANDARD
 70
     0
  3

  4

  5

  6

  7

 40
1.0
 41
0.18
 42
0.0625
 43
0.38
 44
0.18
 45
0.0
 46
0.0
 47
0.0
 48
0.0
140
0.18
141
0.09
142
0.0
143
25.4
144
1.0
145
0.0
146
1.0
147
0.09
 71
     0
 72
     0
 73
     1
 74
     1
 75
     0
 76
     0
 77
     0
 78
     0
170
     0
171
     2
172
     0
173
     0
174
     0
175
     0
176
     0
177
     0
178
     0
  0
ENDTAB
  0
ENDSEC
  0
SECTION
  2
BLOCKS
  0
BLOCK
  8
0
  2
$MODEL_SPACE
 70
     0
 10
0.0
 20
0.0
 30
0.0
  3
$MODEL_SPACE
  1

  0
ENDBLK
  5
21
  8
0
  0
BLOCK
 67
     1
  8
0
  2
$PAPER_SPACE
 70
     0
 10
0.0
 20
0.0
 30
0.0
  3
$PAPER_SPACE
  1

  0
ENDBLK
  5
1D
 67
     1
  8
0
  0
ENDSEC
  0
SECTION
  2
ENTITIES
  0
POLYLINE
  5
40
  8
0
 66
     1
 10
0.0
 20
0.0
 30
0.0
 70
     1
  0
VERTEX
  5
7B
  8
0
 10
40.8565264634598
 20
88.94141831214071
 30
0.0
  0
VERTEX
  5
7C
  8
0
 10
40.8565264634598
 20
97.9413102332027
 30
0.0
 42
-0.4142135623730951
  0
VERTEX
  5
7D
  8
0
 10
43.3565264634598
 20
100.4413102332027
 30
0.0
  0
VERTEX
  5
7E
  8
0
 10
63.3565264634598
 20
100.4413102332027
 30
0.0
 42
-0.4142135623730951
  0
VERTEX
  5
7F
  8
0
 10
65.8565264634598
 20
97.9413102332027
 30
0.0
  0
VERTEX
  5
80
  8
0
 10
65.8565264634598
 20
88.94141831214071
 30
0.0
 42
-0.4142135623730752
  0
VERTEX
  5
81
  8
0
 10
63.3565264634598
 20
86.44141831214071
 30
0.0
  0
VERTEX
  5
82
  8
0
 10
61.99134063244111
 20
86.44141831214071
 30
0.0
 42
0.3321270353981076
  0
VERTEX
  5
83
  8
0
 10
59.5944042398734
 20
84.6518378571877
 30
0.0
 42
0.1237996390402794
  0
VERTEX
  5
84
  8
0
 10
59.5945936996429
 20
36.2314273667252
 30
0.0
 42
0.3321270353980557
  0
VERTEX
  5
85
  8
0
 10
61.99153009221061
 20
34.44184691177219
 30
0.0
  0
VERTEX
  5
86
  8
0
 10
63.3565264634598
 20
34.44184691177219
 30
0.0
 42
-0.4142135623730752
  0
VERTEX
  5
87
  8
0
 10
65.8565264634598
 20
31.94184691177219
 30
0.0
  0
VERTEX
  5
88
  8
0
 10
65.8565264634598
 20
22.9413102332027
 30
0.0
 42
-0.4142135623730951
  0
VERTEX
  5
89
  8
0
 10
63.3565264634598
 20
20.4413102332027
 30
0.0
  0
VERTEX
  5
8A
  8
0
 10
43.3565264634598
 20
20.4413102332027
 30
0.0
 42
-0.4142135623730951
  0
VERTEX
  5
8B
  8
0
 10
40.8565264634598
 20
22.9413102332027
 30
0.0
  0
VERTEX
  5
8C
  8
0
 10
40.8565264634598
 20
31.94184691177219
 30
0.0
 42
-0.4142135623730752
  0
VERTEX
  5
8D
  8
0
 10
43.3565264634598
 20
34.44184691177219
 30
0.0
  0
VERTEX
  5
8E
  8
0
 10
44.7201729881352
 20
34.44184691177219
 30
0.0
 42
0.3321270353980745
  0
VERTEX
  5
8F
  8
0
 10
47.1171093807029
 20
36.2314273667252
 30
0.0
 42
0.1238546511448937
  0
VERTEX
  5
90
  8
0
 10
47.1173349277465
 20
84.6518378571877
 30
0.0
 42
0.3321270353980856
  0
VERTEX
  5
91
  8
0
 10
44.7203985351789
 20
86.44141831214071
 30
0.0
  0
VERTEX
  5
92
  8
0
 10
43.3565264634598
 20
86.44141831214071
 30
0.0
 42
-0.4142135623730752
  0
SEQEND
  5
93
  8
0
  0
POLYLINE
  5
41
  8
0
 66
     1
 10
0.0
 20
0.0
 30
0.0
 70
     1
  0
VERTEX
  5
94
  8
0
 10
-49.14347953654026
 20
-86.52241714359917
 30
0.0
  0
VERTEX
  5
95
  8
0
 10
-44.64347353654018
 20
-86.52241714359917
 30
0.0
 42
-0.4142135623730951
  0
VERTEX
  5
96
  8
0
 10
-42.14347353654018
 20
-89.02241714359917
 30
0.0
  0
VERTEX
  5
97
  8
0
 10
-42.14347353654019
 20
-98.02268807896108
 30
0.0
 42
-0.4142135623730951
  0
VERTEX
  5
98
  8
0
 10
-44.64347353654018
 20
-100.5226880789611
 30
0.0
  0
VERTEX
  5
99
  8
0
 10
-64.64347353654018
 20
-100.5226880789611
 30
0.0
 42
-0.4142135623730951
  0
VERTEX
  5
9A
  8
0
 10
-67.1434735365402
 20
-98.0226880789611
 30
0.0
  0
VERTEX
  5
9B
  8
0
 10
-67.14347353654018
 20
-89.02241714359917
 30
0.0
 42
-0.4142135623730951
  0
VERTEX
  5
9C
  8
0
 10
-64.64347353654018
 20
-86.52241714359917
 30
0.0
  0
VERTEX
  5
9D
  8
0
 10
-60.14346753654025
 20
-86.52241714359917
 30
0.0
 42
0.4142135623730951
  0
VERTEX
  5
9E
  8
0
 10
-57.64346753654025
 20
-84.02241714359917
 30
0.0
  0
VERTEX
  5
9F
  8
0
 10
-57.64346753654026
 20
-72.74712653544088
 30
0.0
 42
-0.5882053555815854
  0
VERTEX
  5
A0
  8
0
 10
-57.6434675365401
 20
-48.01431720966423
 30
0.0
  0
VERTEX
  5
A1
  8
0
 10
-57.64346753654009
 20
-36.97920519946352
 30
0.0
 42
0.4142135623730951
  0
VERTEX
  5
A2
  8
0
 10
-60.1434675365401
 20
-34.47920519946352
 30
0.0
  0
VERTEX
  5
A3
  8
0
 10
-64.64347353654018
 20
-34.47920519946352
 30
0.0
 42
-0.4142135623730985
  0
VERTEX
  5
A4
  8
0
 10
-67.14347353654018
 20
-31.97920519946352
 30
0.0
  0
VERTEX
  5
A5
  8
0
 10
-67.14347353654018
 20
-23.0226880789611
 30
0.0
 42
-0.4142135623730951
  0
VERTEX
  5
A6
  8
0
 10
-64.64347353654018
 20
-20.5226880789611
 30
0.0
  0
VERTEX
  5
A7
  8
0
 10
-44.64347353654018
 20
-20.5226880789611
 30
0.0
 42
-0.4142135623730951
  0
VERTEX
  5
A8
  8
0
 10
-42.14347353654019
 20
-23.0226880789611
 30
0.0
  0
VERTEX
  5
A9
  8
0
 10
-42.14347353654018
 20
-31.97920519946351
 30
0.0
 42
-0.4142135623731017
  0
VERTEX
  5
AA
  8
0
 10
-44.64347353654018
 20
-34.47920519946351
 30
0.0
  0
VERTEX
  5
AB
  8
0
 10
-49.1434795365403
 20
-34.47920519946351
 30
0.0
 42
0.4142135623730951
  0
VERTEX
  5
AC
  8
0
 10
-51.6434795365403
 20
-36.97920519946351
 30
0.0
  0
VERTEX
  5
AD
  8
0
 10
-51.6434795365403
 20
-48.01431720966423
 30
0.0
 42
-0.5882053555815987
  0
VERTEX
  5
AE
  8
0
 10
-51.64347953654026
 20
-72.74712653544037
 30
0.0
  0
VERTEX
  5
AF
  8
0
 10
-51.64347953654026
 20
-84.02241714359917
 30
0.0
 42
0.4142135623730951
  0
SEQEND
  5
B0
  8
0
  0
POLYLINE
  5
42
  8
0
 66
     1
 10
0.0
 20
0.0
 30
0.0
 70
     1
  0
VERTEX
  5
B1
  8
0
 10
-22.14347953653983
 20
-86.52078400556339
 30
0.0
  0
VERTEX
  5
B2
  8
0
 10
-17.64347353654019
 20
-86.52078400556339
 30
0.0
 42
-0.4142135623730951
  0
VERTEX
  5
B3
  8
0
 10
-15.14347353654019
 20
-89.02078400556339
 30
0.0
  0
VERTEX
  5
B4
  8
0
 10
-15.14347353654019
 20
-98.02268807896111
 30
0.0
 42
-0.4142135623730951
  0
VERTEX
  5
B5
  8
0
 10
-17.64347353654019
 20
-100.5226880789611
 30
0.0
  0
VERTEX
  5
B6
  8
0
 10
-37.64347353654019
 20
-100.5226880789611
 30
0.0
 42
-0.4142135623730951
  0
VERTEX
  5
B7
  8
0
 10
-40.14347353654019
 20
-98.02268807896111
 30
0.0
  0
VERTEX
  5
B8
  8
0
 10
-40.14347353654019
 20
-89.02078400556339
 30
0.0
 42
-0.4142135623730951
  0
VERTEX
  5
B9
  8
0
 10
-37.64347353654019
 20
-86.52078400556339
 30
0.0
  0
VERTEX
  5
BA
  8
0
 10
-33.14346753654011
 20
-86.52078400556339
 30
0.0
 42
0.4142135623730951
  0
VERTEX
  5
BB
  8
0
 10
-30.64346753654011
 20
-84.02078400556339
 30
0.0
  0
VERTEX
  5
BC
  8
0
 10
-30.64346753654011
 20
-76.29528247234079
 30
0.0
 42
-0.4452651085066731
  0
VERTEX
  5
BD
  8
0
 10
-30.64346753654013
 20
-44.75009368558082
 30
0.0
  0
VERTEX
  5
BE
  8
0
 10
-30.64346753654013
 20
-37.005335409596
 30
0.0
 42
0.4142135623731017
  0
VERTEX
  5
BF
  8
0
 10
-33.14346753654013
 20
-34.505335409596
 30
0.0
  0
VERTEX
  5
C0
  8
0
 10
-37.64347353654019
 20
-34.505335409596
 30
0.0
 42
-0.4142135623730951
  0
VERTEX
  5
C1
  8
0
 10
-40.14347353654019
 20
-32.005335409596
 30
0.0
  0
VERTEX
  5
C2
  8
0
 10
-40.14347353654019
 20
-23.02268807896112
 30
0.0
 42
-0.4142135623730951
  0
VERTEX
  5
C3
  8
0
 10
-37.64347353654019
 20
-20.52268807896112
 30
0.0
  0
VERTEX
  5
C4
  8
0
 10
-17.64347353654019
 20
-20.52268807896112
 30
0.0
 42
-0.4142135623730951
  0
VERTEX
  5
C5
  8
0
 10
-15.14347353654019
 20
-23.02268807896112
 30
0.0
  0
VERTEX
  5
C6
  8
0
 10
-15.14347353654018
 20
-32.00533540959599
 30
0.0
 42
-0.4142135623730951
  0
VERTEX
  5
C7
  8
0
 10
-17.64347353654018
 20
-34.50533540959599
 30
0.0
  0
VERTEX
  5
C8
  8
0
 10
-22.14347953654016
 20
-34.50533540959599
 30
0.0
 42
0.4142135623730985
  0
VERTEX
  5
C9
  8
0
 10
-24.64347953654016
 20
-37.00533540959599
 30
0.0
  0
VERTEX
  5
CA
  8
0
 10
-24.64347953654016
 20
-44.75009368558094
 30
0.0
 42
-0.4452651085066616
  0
VERTEX
  5
CB
  8
0
 10
-24.64347953653983
 20
-76.2952824723404
 30
0.0
  0
VERTEX
  5
CC
  8
0
 10
-24.64347953653983
 20
-84.02078400556339
 30
0.0
 42
0.4142135623730951
  0
SEQEND
  5
CD
  8
0
  0
POLYLINE
  5
43
  8
0
 66
     1
 10
0.0
 20
0.0
 30
0.0
 70
     1
  0
VERTEX
  5
CE
  8
0
 10
4.850293306894827
 20
-86.51751773058699
 30
0.0
  0
VERTEX
  5
CF
  8
0
 10
9.3565264634598
 20
-86.51751773058699
 30
0.0
 42
-0.4142135623730951
  0
VERTEX
  5
D0
  8
0
 10
11.8565264634598
 20
-89.01751773058699
 30
0.0
  0
VERTEX
  5
D1
  8
0
 10
11.8565264634598
 20
-98.02268807896112
 30
0.0
 42
-0.4142135623730951
  0
VERTEX
  5
D2
  8
0
 10
9.3565264634598
 20
-100.5226880789611
 30
0.0
  0
VERTEX
  5
D3
  8
0
 10
-10.6434735365402
 20
-100.5226880789611
 30
0.0
 42
-0.4142135623730951
  0
VERTEX
  5
D4
  8
0
 10
-13.14347353654019
 20
-98.02268807896112
 30
0.0
  0
VERTEX
  5
D5
  8
0
 10
-13.1434735365402
 20
-89.01751773058697
 30
0.0
 42
-0.4142135623730951
  0
VERTEX
  5
D6
  8
0
 10
-10.6434735365402
 20
-86.51751773058697
 30
0.0
  0
VERTEX
  5
D7
  8
0
 10
-6.149701059728287
 20
-86.51751773058697
 30
0.0
 42
0.414943143564722
  0
VERTEX
  5
D8
  8
0
 10
-3.649708811737526
 20
-84.01129197873712
 30
0.0
  0
VERTEX
  5
D9
  8
0
 10
-3.671805061285824
 20
-79.14356570152493
 30
0.0
 42
-0.3751017550971845
  0
VERTEX
  5
DA
  8
0
 10
-3.671805061285824
 20
-41.92354013568489
 30
0.0
  0
VERTEX
  5
DB
  8
0
 10
-3.649696886561969
 20
-37.01154929542447
 30
0.0
 42
0.4149417526523966
  0
VERTEX
  5
DC
  8
0
 10
-6.14968916407463
 20
-34.505335409596
 30
0.0
  0
VERTEX
  5
DD
  8
0
 10
-10.64347353654018
 20
-34.505335409596
 30
0.0
 42
-0.4142135623730985
  0
VERTEX
  5
DE
  8
0
 10
-13.14347353654018
 20
-32.005335409596
 30
0.0
  0
VERTEX
  5
DF
  8
0
 10
-13.14347353654019
 20
-23.02268807896112
 30
0.0
 42
-0.4142135623730951
  0
VERTEX
  5
E0
  8
0
 10
-10.6434735365402
 20
-20.52268807896112
 30
0.0
  0
VERTEX
  5
E1
  8
0
 10
9.3565264634598
 20
-20.52268807896112
 30
0.0
 42
-0.4142135623730951
  0
VERTEX
  5
E2
  8
0
 10
11.8565264634598
 20
-23.02268807896112
 30
0.0
  0
VERTEX
  5
E3
  8
0
 10
11.85652646345982
 20
-32.005335409596
 30
0.0
 42
-0.4142135623730951
  0
VERTEX
  5
E4
  8
0
 10
9.356526463459815
 20
-34.505335409596
 30
0.0
  0
VERTEX
  5
E5
  8
0
 10
4.861914670437926
 20
-34.505335409596
 30
0.0
 42
0.4148449927181539
  0
VERTEX
  5
E6
  8
0
 10
2.361920477388622
 20
-37.01072379709389
 30
0.0
  0
VERTEX
  5
E7
  8
0
 10
2.380980375925319
 20
-41.87109966784543
 30
0.0
 42
-0.3760284166852745
  0
VERTEX
  5
E8
  8
0
 10
2.328182938714008
 20
-79.16028374523668
 30
0.0
  0
VERTEX
  5
E9
  8
0
 10
2.350301081732539
 20
-84.02375264262355
 30
0.0
 42
0.4134832847396759
  0
SEQEND
  5
EA
  8
0
  0
POLYLINE
  5
44
  8
0
 66
     1
 10
0.0
 20
0.0
 30
0.0
 70
     1
  0
VERTEX
  5
EB
  8
0
 10
31.8437520502696
 20
-86.51751773058697
 30
0.0
  0
VERTEX
  5
EC
  8
0
 10
36.3565264634598
 20
-86.51751773058697
 30
0.0
 42
-0.4142135623730951
  0
VERTEX
  5
ED
  8
0
 10
38.8565264634598
 20
-89.01751773058697
 30
0.0
  0
VERTEX
  5
EE
  8
0
 10
38.8565264634598
 20
-98.02268807896108
 30
0.0
 42
-0.4142135623730951
  0
VERTEX
  5
EF
  8
0
 10
36.3565264634598
 20
-100.5226880789611
 30
0.0
  0
VERTEX
  5
F0
  8
0
 10
16.3565264634598
 20
-100.5226880789611
 30
0.0
 42
-0.4142135623730951
  0
VERTEX
  5
F1
  8
0
 10
13.8565264634598
 20
-98.0226880789611
 30
0.0
  0
VERTEX
  5
F2
  8
0
 10
13.8565264634598
 20
-89.01751773058697
 30
0.0
 42
-0.4142135623730951
  0
VERTEX
  5
F3
  8
0
 10
16.3565264634598
 20
-86.51751773058697
 30
0.0
  0
VERTEX
  5
F4
  8
0
 10
20.84374041217379
 20
-86.51751773058697
 30
0.0
 42
0.4157092079763481
  0
VERTEX
  5
F5
  8
0
 10
23.34370785188993
 20
-84.00475840619
 30
0.0
  0
VERTEX
  5
F6
  8
0
 10
23.31031364643202
 20
-81.46691568251634
 30
0.0
 42
-0.3285360027812201
  0
VERTEX
  5
F7
  8
0
 10
23.40275128048719
 20
-39.51169430531922
 30
0.0
  0
VERTEX
  5
F8
  8
0
 10
23.36932063366859
 20
-36.99248131735007
 30
0.0
 42
0.4127084057275743
  0
VERTEX
  5
F9
  8
0
 10
20.86935367942449
 20
-34.505335409596
 30
0.0
  0
VERTEX
  5
FA
  8
0
 10
16.3565264634598
 20
-34.505335409596
 30
0.0
 42
-0.4142135623730951
  0
VERTEX
  5
FB
  8
0
 10
13.8565264634598
 20
-32.005335409596
 30
0.0
  0
VERTEX
  5
FC
  8
0
 10
13.8565264634598
 20
-23.02268807896111
 30
0.0
 42
-0.4142135623730951
  0
VERTEX
  5
FD
  8
0
 10
16.3565264634598
 20
-20.52268807896111
 30
0.0
  0
VERTEX
  5
FE
  8
0
 10
36.3565264634598
 20
-20.52268807896111
 30
0.0
 42
-0.4142135623730951
  0
VERTEX
  5
FF
  8
0
 10
38.8565264634598
 20
-23.02268807896111
 30
0.0
  0
VERTEX
  5
100
  8
0
 10
38.8565264634598
 20
-32.00533540959599
 30
0.0
 42
-0.4142135623730951
  0
VERTEX
  5
101
  8
0
 10
36.3565264634598
 20
-34.50533540959599
 30
0.0
  0
VERTEX
  5
102
  8
0
 10
31.8693655136163
 20
-34.50533540959599
 30
0.0
 42
0.415715391983198
  0
VERTEX
  5
103
  8
0
 10
29.3693983435648
 20
-37.01814746112321
 30
0.0
  0
VERTEX
  5
104
  8
0
 10
29.4027392804874
 20
-39.54119108469138
 30
0.0
 42
-0.3285360027812256
  0
VERTEX
  5
105
  8
0
 10
29.31030164643219
 20
-81.4964124618889
 30
0.0
  0
VERTEX
  5
106
  8
0
 10
29.3437848237031
 20
-84.03031874982474
 30
0.0
 42
0.4127146171069076
  0
SEQEND
  5
107
  8
0
  0
POLYLINE
  5
45
  8
0
 66
     1
 10
0.0
 20
0.0
 30
0.0
 70
     1
  0
VERTEX
  5
108
  8
0
 10
60.8532255544213
 20
-86.52215531350056
 30
0.0
  0
VERTEX
  5
109
  8
0
 10
63.3565264634598
 20
-86.52215531350056
 30
0.0
 42
-0.4142135623730951
  0
VERTEX
  5
10A
  8
0
 10
65.8565264634598
 20
-89.02215531350056
 30
0.0
  0
VERTEX
  5
10B
  8
0
 10
65.8565264634598
 20
-98.0226880789611
 30
0.0
 42
-0.4142135623730951
  0
VERTEX
  5
10C
  8
0
 10
63.3565264634598
 20
-100.5226880789611
 30
0.0
  0
VERTEX
  5
10D
  8
0
 10
43.3565264634598
 20
-100.5226880789611
 30
0.0
 42
-0.4142135623730951
  0
VERTEX
  5
10E
  8
0
 10
40.8565264634598
 20
-98.02268807896108
 30
0.0
  0
VERTEX
  5
10F
  8
0
 10
40.8565264634598
 20
-89.02215531350056
 30
0.0
 42
-0.4142135623730951
  0
VERTEX
  5
110
  8
0
 10
43.3565264634598
 20
-86.52215531350056
 30
0.0
  0
VERTEX
  5
111
  8
0
 10
45.86102170151
 20
-86.52215531350058
 30
0.0
 42
0.4142135623730938
  0
VERTEX
  5
112
  8
0
 10
48.36102170151
 20
-84.02215531350058
 30
0.0
  0
VERTEX
  5
113
  8
0
 10
48.36102170151
 20
-83.77708245827252
 30
0.0
 42
-0.2149670314332797
  0
VERTEX
  5
114
  8
0
 10
48.3601375547493
 20
-37.2673139365526
 30
0.0
  0
VERTEX
  5
115
  8
0
 10
48.3601375547493
 20
-37.02224108132512
 30
0.0
 42
0.414213562373105
  0
VERTEX
  5
116
  8
0
 10
45.8601375547493
 20
-34.52224108132512
 30
0.0
  0
VERTEX
  5
117
  8
0
 10
43.3565264634598
 20
-34.52224108132512
 30
0.0
 42
-0.4142135623730951
  0
VERTEX
  5
118
  8
0
 10
40.8565264634598
 20
-32.02224108132512
 30
0.0
  0
VERTEX
  5
119
  8
0
 10
40.8565264634598
 20
-23.0226880789611
 30
0.0
 42
-0.4142135623730951
  0
VERTEX
  5
11A
  8
0
 10
43.3565264634598
 20
-20.5226880789611
 30
0.0
  0
VERTEX
  5
11B
  8
0
 10
63.3565264634598
 20
-20.5226880789611
 30
0.0
 42
-0.4142135623730951
  0
VERTEX
  5
11C
  8
0
 10
65.8565264634598
 20
-23.0226880789611
 30
0.0
  0
VERTEX
  5
11D
  8
0
 10
65.8565264634598
 20
-32.02224108132512
 30
0.0
 42
-0.4142135623731017
  0
VERTEX
  5
11E
  8
0
 10
63.3565264634598
 20
-34.52224108132512
 30
0.0
  0
VERTEX
  5
11F
  8
0
 10
60.8497611459413
 20
-34.52224108132512
 30
0.0
 42
0.4142135623730951
  0
VERTEX
  5
120
  8
0
 10
58.3497611459413
 20
-37.02224108132512
 30
0.0
  0
VERTEX
  5
121
  8
0
 10
58.3497611459413
 20
-37.26731393655214
 30
0.0
 42
-0.2150091707206885
  0
VERTEX
  5
122
  8
0
 10
58.3532255544213
 20
-83.77708245827291
 30
0.0
  0
VERTEX
  5
123
  8
0
 10
58.3532255544213
 20
-84.02215531350056
 30
0.0
 42
0.4142135623730955
  0
SEQEND
  5
124
  8
0
  0
POLYLINE
  5
46
  8
0
 66
     1
 10
0.0
 20
0.0
 30
0.0
 70
     1
  0
VERTEX
  5
125
  8
0
 10
92.86738306250251
 20
-89.02253423325872
 30
0.0
  0
VERTEX
  5
126
  8
0
 10
92.86738306250251
 20
-98.04898688961268
 30
0.0
 42
-0.4142135623730552
  0
VERTEX
  5
127
  8
0
 10
90.36738306250251
 20
-100.5489868896127
 30
0.0
  0
VERTEX
  5
128
  8
0
 10
70.439861936299
 20
-100.5226880789611
 30
0.0
 42
-0.4142135623730943
  0
VERTEX
  5
129
  8
0
 10
67.939861936299
 20
-98.02268807896111
 30
0.0
  0
VERTEX
  5
12A
  8
0
 10
67.939861936299
 20
-89.02080202877431
 30
0.0
 42
-0.4142135623730683
  0
VERTEX
  5
12B
  8
0
 10
70.439861936299
 20
-86.52080202877431
 30
0.0
  0
VERTEX
  5
12C
  8
0
 10
70.91846806144
 20
-86.52080202877431
 30
0.0
 42
0.5237776574815463
  0
VERTEX
  5
12D
  8
0
 10
72.35398807717351
 20
-84.47684770744193
 30
0.0
 42
-0.143894827095703
  0
VERTEX
  5
12E
  8
0
 10
72.3341136777641
 20
-36.62043137501706
 30
0.0
 42
0.4760601923401457
  0
VERTEX
  5
12F
  8
0
 10
70.91691564048091
 20
-34.49617683985987
 30
0.0
  0
VERTEX
  5
130
  8
0
 10
70.3565264634598
 20
-34.49617683985987
 30
0.0
 42
-0.4142135623730885
  0
VERTEX
  5
131
  8
0
 10
67.8565264634598
 20
-31.99617683985987
 30
0.0
  0
VERTEX
  5
132
  8
0
 10
67.8565264634598
 20
-23.0226880789611
 30
0.0
 42
-0.4142135623730951
  0
VERTEX
  5
133
  8
0
 10
70.3565264634598
 20
-20.5226880789611
 30
0.0
  0
VERTEX
  5
134
  8
0
 10
90.2840475896634
 20
-20.54898688961266
 30
0.0
 42
-0.4142135623731367
  0
VERTEX
  5
135
  8
0
 10
92.7840475896634
 20
-23.04898688961265
 30
0.0
  0
VERTEX
  5
136
  8
0
 10
92.7840475896634
 20
-32.02247565051144
 30
0.0
 42
-0.4142135623731217
  0
VERTEX
  5
137
  8
0
 10
90.2840475896634
 20
-34.52247565051144
 30
0.0
  0
VERTEX
  5
138
  8
0
 10
89.89143367085671
 20
-34.52247565051144
 30
0.0
 42
0.4879024021431781
  0
VERTEX
  5
139
  8
0
 10
88.3076633889363
 20
-36.32676108465751
 30
0.0
 42
-0.1343554811256364
  0
VERTEX
  5
13A
  8
0
 10
88.3180175750293
 20
-84.72061439338206
 30
0.0
 42
0.4891416451362481
  0
VERTEX
  5
13B
  8
0
 10
89.8918648987399
 20
-86.52253423325872
 30
0.0
  0
VERTEX
  5
13C
  8
0
 10
90.36738306250251
 20
-86.52253423325872
 30
0.0
 42
-0.4142135623730951
  0
SEQEND
  5
13D
  8
0
  0
POLYLINE
  5
47
  8
0
 66
     1
 10
0.0
 20
0.0
 30
0.0
 70
     1
  0
VERTEX
  5
13E
  8
0
 10
13.85652646345982
 20
87.4415716844097
 30
0.0
  0
VERTEX
  5
13F
  8
0
 10
13.85652646345982
 20
97.9413102332027
 30
0.0
 42
-0.4142135623730951
  0
VERTEX
  5
140
  8
0
 10
16.35652646345982
 20
100.4413102332027
 30
0.0
  0
VERTEX
  5
141
  8
0
 10
36.3565264634598
 20
100.4413102332027
 30
0.0
 42
-0.4142135623730951
  0
VERTEX
  5
142
  8
0
 10
38.8565264634598
 20
97.9413102332027
 30
0.0
  0
VERTEX
  5
143
  8
0
 10
38.8565264634598
 20
87.4415716844097
 30
0.0
 42
-0.4142135623731118
  0
VERTEX
  5
144
  8
0
 10
37.8565264634598
 20
86.4415716844097
 30
0.0
  0
VERTEX
  5
145
  8
0
 10
35.35100614171439
 20
86.44131023320261
 30
0.0
 42
0.2207005223110108
  0
VERTEX
  5
146
  8
0
 10
35.35100614171409
 20
34.4413102332027
 30
0.0
  0
VERTEX
  5
147
  8
0
 10
37.8565264634598
 20
34.44144092649509
 30
0.0
 42
-0.4142135623731285
  0
VERTEX
  5
148
  8
0
 10
38.8565264634598
 20
33.44144092649509
 30
0.0
  0
VERTEX
  5
149
  8
0
 10
38.8565264634598
 20
22.9413102332027
 30
0.0
 42
-0.4142135623730951
  0
VERTEX
  5
14A
  8
0
 10
36.3565264634598
 20
20.4413102332027
 30
0.0
  0
VERTEX
  5
14B
  8
0
 10
16.35652646345982
 20
20.4413102332027
 30
0.0
 42
-0.4142135623730951
  0
VERTEX
  5
14C
  8
0
 10
13.85652646345982
 20
22.9413102332027
 30
0.0
  0
VERTEX
  5
14D
  8
0
 10
13.85652646345979
 20
33.44144092649509
 30
0.0
 42
-0.4142135623731118
  0
VERTEX
  5
14E
  8
0
 10
14.85652646345979
 20
34.44144092649509
 30
0.0
  0
VERTEX
  5
14F
  8
0
 10
17.36204678520529
 20
34.4413102332027
 30
0.0
 42
0.2207005223110228
  0
VERTEX
  5
150
  8
0
 10
17.36204678520527
 20
86.44131023320261
 30
0.0
  0
VERTEX
  5
151
  8
0
 10
14.85652646345982
 20
86.4415716844097
 30
0.0
 42
-0.4142135623731118
  0
SEQEND
  5
152
  8
0
  0
POLYLINE
  5
48
  8
0
 66
     1
 10
0.0
 20
0.0
 30
0.0
 70
     1
  0
VERTEX
  5
153
  8
0
 10
-37.64347353654017
 20
100.4413102332027
 30
0.0
  0
VERTEX
  5
154
  8
0
 10
-17.6434735365402
 20
100.4413102332027
 30
0.0
 42
-0.4142135623730951
  0
VERTEX
  5
155
  8
0
 10
-15.1434735365402
 20
97.9413102332027
 30
0.0
  0
VERTEX
  5
156
  8
0
 10
-15.14347353654017
 20
85.43530770778031
 30
0.0
 42
0.384537297723524
  0
VERTEX
  5
157
  8
0
 10
-15.14347353654017
 20
35.4473127586252
 30
0.0
  0
VERTEX
  5
158
  8
0
 10
-15.14347353654017
 20
22.9413102332027
 30
0.0
 42
-0.4142135623730951
  0
VERTEX
  5
159
  8
0
 10
-17.64347353654017
 20
20.4413102332027
 30
0.0
  0
VERTEX
  5
15A
  8
0
 10
-37.64347353654017
 20
20.4413102332028
 30
0.0
 42
-0.4142135623730951
  0
VERTEX
  5
15B
  8
0
 10
-40.14347353654017
 20
22.9413102332028
 30
0.0
  0
VERTEX
  5
15C
  8
0
 10
-40.14347353654017
 20
35.4473127586252
 30
0.0
 42
0.3856020441194115
  0
VERTEX
  5
15D
  8
0
 10
-40.14347353654017
 20
85.43530770778031
 30
0.0
  0
VERTEX
  5
15E
  8
0
 10
-40.14347353654017
 20
97.9413102332027
 30
0.0
 42
-0.4142135623730951
  0
SEQEND
  5
15F
  8
0
  0
POLYLINE
  5
49
  8
0
 66
     1
 10
0.0
 20
0.0
 30
0.0
 70
     1
  0
VERTEX
  5
160
  8
0
 10
-91.64347353654023
 20
100.4413102332027
 30
0.0
  0
VERTEX
  5
161
  8
0
 10
-71.6434735365402
 20
100.4413102332027
 30
0.0
 42
-0.4142135623730951
  0
VERTEX
  5
162
  8
0
 10
-69.1434735365402
 20
97.9413102332027
 30
0.0
  0
VERTEX
  5
163
  8
0
 10
-69.1434735365402
 20
79.5090115781606
 30
0.0
 42
0.4600512861261392
  0
VERTEX
  5
164
  8
0
 10
-69.1434735365402
 20
41.43893505622651
 30
0.0
  0
VERTEX
  5
165
  8
0
 10
-69.1434735365402
 20
22.9413102332027
 30
0.0
 42
-0.4142135623730951
  0
VERTEX
  5
166
  8
0
 10
-71.6434735365402
 20
20.4413102332027
 30
0.0
  0
VERTEX
  5
167
  8
0
 10
-91.64347353654023
 20
20.4413102332028
 30
0.0
 42
-0.4142135623730951
  0
VERTEX
  5
168
  8
0
 10
-94.14347353654023
 20
22.9413102332028
 30
0.0
  0
VERTEX
  5
169
  8
0
 10
-94.1434735365402
 20
41.52088054374019
 30
0.0
 42
0.4628431200868942
  0
VERTEX
  5
16A
  8
0
 10
-94.1434735365402
 20
79.36173992266521
 30
0.0
  0
VERTEX
  5
16B
  8
0
 10
-94.14347353654023
 20
97.9413102332027
 30
0.0
 42
-0.4142135623730951
  0
SEQEND
  5
16C
  8
0
  0
POLYLINE
  5
4A
  8
0
 66
     1
 10
0.0
 20
0.0
 30
0.0
 70
     1
  0
VERTEX
  5
16D
  8
0
 10
-76.14347953654033
 20
-86.52160057454854
 30
0.0
  0
VERTEX
  5
16E
  8
0
 10
-71.64347353654023
 20
-86.52160057454854
 30
0.0
 42
-0.4142135623730951
  0
VERTEX
  5
16F
  8
0
 10
-69.14347353654023
 20
-89.02160057454854
 30
0.0
  0
VERTEX
  5
170
  8
0
 10
-69.14347353654023
 20
-98.02268807896108
 30
0.0
 42
-0.4142135623730951
  0
VERTEX
  5
171
  8
0
 10
-71.64347353654023
 20
-100.5226880789611
 30
0.0
  0
VERTEX
  5
172
  8
0
 10
-91.64347353654017
 20
-100.5226880789611
 30
0.0
 42
-0.4142135623730929
  0
VERTEX
  5
173
  8
0
 10
-94.14347353654017
 20
-98.0226880789611
 30
0.0
  0
VERTEX
  5
174
  8
0
 10
-94.14347353654023
 20
-89.02160057454854
 30
0.0
 42
-0.4142135623730683
  0
VERTEX
  5
175
  8
0
 10
-91.64347353654023
 20
-86.52160057454854
 30
0.0
  0
VERTEX
  5
176
  8
0
 10
-87.1434675365403
 20
-86.52160057454854
 30
0.0
 42
0.4142135623730683
  0
VERTEX
  5
177
  8
0
 10
-84.6434675365403
 20
-84.02160057454854
 30
0.0
  0
VERTEX
  5
178
  8
0
 10
-84.6434675365403
 20
-77.36334511092875
 30
0.0
  0
VERTEX
  5
179
  8
0
 10
-92.67709792605677
 20
-47.38142832802401
 30
0.0
 42
-0.4931454260313032
  0
VERTEX
  5
17A
  8
0
 10
-90.2622833603341
 20
-44.23438071526771
 30
0.0
  0
VERTEX
  5
17B
  8
0
 10
-87.1434675365403
 20
-44.23438071526771
 30
0.0
 42
0.4142135623730951
  0
VERTEX
  5
17C
  8
0
 10
-84.6434675365403
 20
-41.73438071526771
 30
0.0
  0
VERTEX
  5
17D
  8
0
 10
-84.64346753654036
 20
-36.9792051994635
 30
0.0
 42
0.4142135623730951
  0
VERTEX
  5
17E
  8
0
 10
-87.14346753654036
 20
-34.47920519946351
 30
0.0
  0
VERTEX
  5
17F
  8
0
 10
-91.64347353654023
 20
-34.47920519946351
 30
0.0
 42
-0.4142135623731217
  0
VERTEX
  5
180
  8
0
 10
-94.14347353654023
 20
-31.97920519946351
 30
0.0
  0
VERTEX
  5
181
  8
0
 10
-94.14347353654023
 20
-23.0226880789611
 30
0.0
 42
-0.4142135623730951
  0
VERTEX
  5
182
  8
0
 10
-91.64347353654023
 20
-20.5226880789611
 30
0.0
  0
VERTEX
  5
183
  8
0
 10
-71.64347353654023
 20
-20.5226880789611
 30
0.0
 42
-0.4142135623730951
  0
VERTEX
  5
184
  8
0
 10
-69.14347353654023
 20
-23.0226880789611
 30
0.0
  0
VERTEX
  5
185
  8
0
 10
-69.14347353654023
 20
-31.97920519946351
 30
0.0
 42
-0.4142135623730951
  0
VERTEX
  5
186
  8
0
 10
-71.64347353654023
 20
-34.47920519946351
 30
0.0
  0
VERTEX
  5
187
  8
0
 10
-76.14347953654033
 20
-34.47920519946351
 30
0.0
 42
0.4142135623731217
  0
VERTEX
  5
188
  8
0
 10
-78.64347953654033
 20
-36.97920519946351
 30
0.0
  0
VERTEX
  5
189
  8
0
 10
-78.64347953654033
 20
-41.73438071526771
 30
0.0
 42
0.4142135623730951
  0
VERTEX
  5
18A
  8
0
 10
-76.14347953654033
 20
-44.23438071526771
 30
0.0
  0
VERTEX
  5
18B
  8
0
 10
-73.02461242880486
 20
-44.23438071526771
 30
0.0
 42
-0.4931454260313032
  0
VERTEX
  5
18C
  8
0
 10
-70.60979786308218
 20
-47.38142832802401
 30
0.0
  0
VERTEX
  5
18D
  8
0
 10
-78.64347953654033
 20
-77.3635365052047
 30
0.0
  0
VERTEX
  5
18E
  8
0
 10
-78.64347953654033
 20
-84.02160057454854
 30
0.0
 42
0.4142135623730683
  0
SEQEND
  5
18F
  8
0
  0
POLYLINE
  5
4B
  8
0
 66
     1
 10
0.0
 20
0.0
 30
0.0
 70
     1
  0
VERTEX
  5
190
  8
0
 10
-57.64346753654024
 20
66.9496931024996
 30
0.0
  0
VERTEX
  5
191
  8
0
 10
-57.64346753654024
 20
83.941606266034
 30
0.0
 42
0.4142135623731217
  0
VERTEX
  5
192
  8
0
 10
-60.14346753654024
 20
86.441606266034
 30
0.0
  0
VERTEX
  5
193
  8
0
 10
-64.64347353654017
 20
86.441606266034
 30
0.0
 42
-0.4142135623730951
  0
VERTEX
  5
194
  8
0
 10
-67.14347353654017
 20
88.941606266034
 30
0.0
  0
VERTEX
  5
195
  8
0
 10
-67.14347353654017
 20
97.9413102332027
 30
0.0
 42
-0.4142135623730951
  0
VERTEX
  5
196
  8
0
 10
-64.64347353654017
 20
100.4413102332027
 30
0.0
  0
VERTEX
  5
197
  8
0
 10
-44.64347353654017
 20
100.4413102332027
 30
0.0
 42
-0.4142135623730951
  0
VERTEX
  5
198
  8
0
 10
-42.14347353654017
 20
97.9413102332027
 30
0.0
  0
VERTEX
  5
199
  8
0
 10
-42.14347353654017
 20
88.94160626603411
 30
0.0
 42
-0.4142135623730951
  0
VERTEX
  5
19A
  8
0
 10
-44.64347353654017
 20
86.44160626603411
 30
0.0
  0
VERTEX
  5
19B
  8
0
 10
-49.14347953654027
 20
86.441606266034
 30
0.0
 42
0.4142135623730951
  0
VERTEX
  5
19C
  8
0
 10
-51.64347953654027
 20
83.941606266034
 30
0.0
  0
VERTEX
  5
19D
  8
0
 10
-51.64347953654027
 20
72.9496811024996
 30
0.0
  0
VERTEX
  5
19E
  8
0
 10
-45.61278953812746
 20
50.44283962372549
 30
0.0
 42
-0.5768443308476455
  0
VERTEX
  5
19F
  8
0
 10
-46.81286960948728
 20
49.24093626939461
 30
0.0
  0
VERTEX
  5
1A0
  8
0
 10
-48.49643192378414
 20
49.69204543191799
 30
0.0
 42
0.4931454260312963
  0
VERTEX
  5
1A1
  8
0
 10
-51.64347953654044
 20
47.27723086619531
 30
0.0
  0
VERTEX
  5
1A2
  8
0
 10
-51.64347953654044
 20
36.945755324597
 30
0.0
 42
0.4142135623730818
  0
VERTEX
  5
1A3
  8
0
 10
-49.14347953654044
 20
34.445755324597
 30
0.0
  0
VERTEX
  5
1A4
  8
0
 10
-44.64347353654017
 20
34.445755324597
 30
0.0
 42
-0.4142135623730951
  0
VERTEX
  5
1A5
  8
0
 10
-42.14347353654017
 20
31.945755324597
 30
0.0
  0
VERTEX
  5
1A6
  8
0
 10
-42.14347353654017
 20
22.9413102332027
 30
0.0
 42
-0.4142135623730951
  0
VERTEX
  5
1A7
  8
0
 10
-44.64347353654017
 20
20.4413102332027
 30
0.0
  0
VERTEX
  5
1A8
  8
0
 10
-64.64347353654011
 20
20.4413102332027
 30
0.0
 42
-0.4142135623730929
  0
VERTEX
  5
1A9
  8
0
 10
-67.14347353654011
 20
22.9413102332027
 30
0.0
  0
VERTEX
  5
1AA
  8
0
 10
-67.14347353654017
 20
31.94575532459689
 30
0.0
 42
-0.4142135623730683
  0
VERTEX
  5
1AB
  8
0
 10
-64.64347353654017
 20
34.44575532459689
 30
0.0
  0
VERTEX
  5
1AC
  8
0
 10
-60.14346753654024
 20
34.44575532459689
 30
0.0
 42
0.4142135623730683
  0
VERTEX
  5
1AD
  8
0
 10
-57.64346753654024
 20
36.94575532459689
 30
0.0
  0
VERTEX
  5
1AE
  8
0
 10
-57.64346753654024
 20
50.22466876754731
 30
0.0
 42
0.3394542588633764
  0
VERTEX
  5
1AF
  8
0
 10
-59.49641992378395
 20
52.63948333326991
 30
0.0
  0
VERTEX
  5
1B0
  8
0
 10
-67.67225019357238
 20
54.83019045151369
 30
0.0
 42
-0.5637746558044958
  0
VERTEX
  5
1B1
  8
0
 10
-68.14229117600314
 20
56.45086946303681
 30
0.0
  0
SEQEND
  5
1B2
  8
0
  0
POLYLINE
  5
4C
  8
0
 66
     1
 10
0.0
 20
0.0
 30
0.0
 70
     1
  0
VERTEX
  5
1B3
  8
0
 10
85.8565204634597
 20
34.45882042827969
 30
0.0
  0
VERTEX
  5
1B4
  8
0
 10
90.3565264634598
 20
34.45882042827969
 30
0.0
 42
-0.4142135623730951
  0
VERTEX
  5
1B5
  8
0
 10
92.8565264634598
 20
31.95882042827969
 30
0.0
  0
VERTEX
  5
1B6
  8
0
 10
92.8565264634598
 20
22.9413102332027
 30
0.0
 42
-0.4142135623730951
  0
VERTEX
  5
1B7
  8
0
 10
90.3565264634598
 20
20.4413102332027
 30
0.0
  0
VERTEX
  5
1B8
  8
0
 10
70.3565264634598
 20
20.4413102332027
 30
0.0
 42
-0.4142135623730951
  0
VERTEX
  5
1B9
  8
0
 10
67.8565264634598
 20
22.9413102332027
 30
0.0
  0
VERTEX
  5
1BA
  8
0
 10
67.8565264634598
 20
31.95882042827969
 30
0.0
 42
-0.4142135623730951
  0
VERTEX
  5
1BB
  8
0
 10
70.3565264634598
 20
34.45882042827969
 30
0.0
  0
VERTEX
  5
1BC
  8
0
 10
74.8565324634599
 20
34.45882042827969
 30
0.0
 42
0.4142135623731017
  0
VERTEX
  5
1BD
  8
0
 10
77.3565324634599
 20
36.95882042827969
 30
0.0
  0
VERTEX
  5
1BE
  8
0
 10
77.3565324634599
 20
50.41745499159379
 30
0.0
 42
0.1316524955973488
  0
VERTEX
  5
1BF
  8
0
 10
77.02159598270171
 20
51.66745497465311
 30
0.0
  0
VERTEX
  5
1C0
  8
0
 10
68.1066877975745
 20
67.1085291751265
 30
0.0
 42
-0.315914184912496
  0
VERTEX
  5
1C1
  8
0
 10
68.2081096314516
 20
68.25303004104339
 30
0.0
  0
VERTEX
  5
1C2
  8
0
 10
76.76804139800899
 20
78.4081046075253
 30
0.0
 42
0.1769040905943782
  0
VERTEX
  5
1C3
  8
0
 10
77.3565324634599
 20
80.01935678925821
 30
0.0
  0
VERTEX
  5
1C4
  8
0
 10
77.3565324634599
 20
83.94323940414509
 30
0.0
 42
0.4142135623730683
  0
VERTEX
  5
1C5
  8
0
 10
74.8565324634599
 20
86.44323940414509
 30
0.0
  0
VERTEX
  5
1C6
  8
0
 10
70.3565264634598
 20
86.44323940414509
 30
0.0
 42
-0.4142135623730752
  0
VERTEX
  5
1C7
  8
0
 10
67.8565264634598
 20
88.94323940414509
 30
0.0
  0
VERTEX
  5
1C8
  8
0
 10
67.8565264634598
 20
97.9413102332027
 30
0.0
 42
-0.4142135623730951
  0
VERTEX
  5
1C9
  8
0
 10
70.3565264634598
 20
100.4413102332027
 30
0.0
  0
VERTEX
  5
1CA
  8
0
 10
90.35652646345989
 20
100.4413102332027
 30
0.0
 42
-0.4142135623730968
  0
VERTEX
  5
1CB
  8
0
 10
92.85652646345989
 20
97.9413102332027
 30
0.0
  0
VERTEX
  5
1CC
  8
0
 10
92.85652646345989
 20
88.94323940414509
 30
0.0
 42
-0.4142135623730552
  0
VERTEX
  5
1CD
  8
0
 10
90.35652646345989
 20
86.44323940414509
 30
0.0
  0
VERTEX
  5
1CE
  8
0
 10
85.8565204634597
 20
86.44323940414509
 30
0.0
 42
0.4142135623730683
  0
VERTEX
  5
1CF
  8
0
 10
83.3565204634597
 20
83.94323940414509
 30
0.0
  0
VERTEX
  5
1D0
  8
0
 10
83.3565204634597
 20
80.0193567854501
 30
0.0
 42
0.176904089901357
  0
VERTEX
  5
1D1
  8
0
 10
83.94501152457971
 20
78.40810460885521
 30
0.0
  0
VERTEX
  5
1D2
  8
0
 10
92.5049434045246
 20
68.25302985246401
 30
0.0
 42
-0.3159141884761698
  0
VERTEX
  5
1D3
  8
0
 10
92.60636522884471
 20
67.10852897504981
 30
0.0
  0
VERTEX
  5
1D4
  8
0
 10
83.6914569637793
 20
51.6674551941621
 30
0.0
 42
0.1316524995774393
  0
VERTEX
  5
1D5
  8
0
 10
83.3565204634597
 20
50.4174551772214
 30
0.0
  0
VERTEX
  5
1D6
  8
0
 10
83.3565204634597
 20
36.95882042827969
 30
0.0
 42
0.4142135623730823
  0
SEQEND
  5
1D7
  8
0
  0
POLYLINE
  5
4D
  8
0
 66
     1
 10
0.0
 20
0.0
 30
0.0
 70
     1
  0
VERTEX
  5
1D8
  8
0
 10
86.28024422912151
 20
67.71637228591169
 30
0.0
  0
VERTEX
  5
1D9
  8
0
 10
74.49892857800839
 20
67.7163723780954
 30
0.0
 42
-0.5350007984364872
  0
VERTEX
  5
1DA
  8
0
 10
73.5746775634912
 20
69.10189479327809
 30
0.0
 42
-0.6549071275070197
  0
VERTEX
  5
1DB
  8
0
 10
87.2088651107697
 20
69.0911150650696
 30
0.0
 42
-0.537715108031439
  0
SEQEND
  5
1DC
  8
0
  0
POLYLINE
  5
4E
  8
0
 66
     1
 10
0.0
 20
0.0
 30
0.0
 70
     1
  0
VERTEX
  5
1DD
  8
0
 10
90.457680975259
 20
-107.5497849
 30
0.0
  0
VERTEX
  5
1DE
  8
0
 10
-98.5997968
 20
-107.5497849
 30
0.0
 42
-0.4142135623730951
  0
VERTEX
  5
1DF
  8
0
 10
-101.5997968
 20
-104.5497849
 30
0.0
  0
VERTEX
  5
1E0
  8
0
 10
-101.5997968
 20
104.5497849
 30
0.0
 42
-0.4142135623730951
  0
VERTEX
  5
1E1
  8
0
 10
-98.59979679999998
 20
107.5497849
 30
0.0
  0
VERTEX
  5
1E2
  8
0
 10
90.45768097525891
 20
107.5497849
 30
0.0
 42
-0.1989123673796529
  0
VERTEX
  5
1E3
  8
0
 10
92.57900131881851
 20
106.6711052435597
 30
0.0
  0
VERTEX
  5
1E4
  8
0
 10
100.7211171435596
 20
98.52898941881861
 30
0.0
 42
-0.1989123673796565
  0
VERTEX
  5
1E5
  8
0
 10
101.5997968
 20
96.40766907525901
 30
0.0
  0
VERTEX
  5
1E6
  8
0
 10
101.5997968
 20
11.1421158247411
 30
0.0
 42
-0.1989123673796525
  0
VERTEX
  5
1E7
  8
0
 10
100.7211171435596
 20
9.020795481181494
 30
0.0
  0
VERTEX
  5
1E8
  8
0
 10
93.82164200593789
 20
2.121320343559702
 30
0.0
 42
0.4142135623730911
  0
VERTEX
  5
1E9
  8
0
 10
93.82164200593789
 20
-2.121320343559603
 30
0.0
  0
VERTEX
  5
1EA
  8
0
 10
100.7211171435597
 20
-9.020795481181437
 30
0.0
 42
-0.1989123673796569
  0
VERTEX
  5
1EB
  8
0
 10
101.5997968
 20
-11.1421158247411
 30
0.0
  0
VERTEX
  5
1EC
  8
0
 10
101.5997968
 20
-96.40766907525898
 30
0.0
 42
-0.198912367379652
  0
VERTEX
  5
1ED
  8
0
 10
100.7211171435596
 20
-98.52898941881864
 30
0.0
  0
VERTEX
  5
1EE
  8
0
 10
92.57900131881871
 20
-106.6711052435596
 30
0.0
 42
-0.1989123673796578
  0
SEQEND
  5
1EF
  8
0
  0
POLYLINE
  5
4F
  8
0
 66
     1
 10
0.0
 20
0.0
 30
0.0
 70
     1
  0
VERTEX
  5
1F0
  8
0
 10
-87.3360644963374
 20
13.52150500243469
 30
0.0
  0
VERTEX
  5
1F1
  8
0
 10
-11.3360644963374
 20
13.52150500243469
 30
0.0
 42
-0.4142135623730951
  0
VERTEX
  5
1F2
  8
0
 10
-8.3360644963374
 20
10.52150500243469
 30
0.0
  0
VERTEX
  5
1F3
  8
0
 10
-8.3360644963374
 20
-10.47849499756532
 30
0.0
 42
-0.4142135623730951
  0
VERTEX
  5
1F4
  8
0
 10
-11.3360644963374
 20
-13.47849499756532
 30
0.0
  0
VERTEX
  5
1F5
  8
0
 10
-87.3360644963374
 20
-13.47849499756532
 30
0.0
 42
-0.4142135623730951
  0
VERTEX
  5
1F6
  8
0
 10
-90.3360644963374
 20
-10.47849499756532
 30
0.0
  0
VERTEX
  5
1F7
  8
0
 10
-90.3360644963374
 20
10.52150500243469
 30
0.0
 42
-0.4142135623730951
  0
SEQEND
  5
1F8
  8
0
  0
POLYLINE
  5
50
  8
0
 66
     1
 10
0.0
 20
0.0
 30
0.0
 70
     1
  0
VERTEX
  5
1F9
  8
0
 10
4.891454535390267
 20
13.52150500243469
 30
0.0
  0
VERTEX
  5
1FA
  8
0
 10
80.8914545353903
 20
13.52150500243469
 30
0.0
 42
-0.4142135623730951
  0
VERTEX
  5
1FB
  8
0
 10
83.8914545353903
 20
10.52150500243469
 30
0.0
  0
VERTEX
  5
1FC
  8
0
 10
83.8914545353903
 20
-10.47849499756532
 30
0.0
 42
-0.4142135623730951
  0
VERTEX
  5
1FD
  8
0
 10
80.8914545353903
 20
-13.47849499756532
 30
0.0
  0
VERTEX
  5
1FE
  8
0
 10
4.891454535390267
 20
-13.47849499756532
 30
0.0
 42
-0.4142135623730951
  0
VERTEX
  5
1FF
  8
0
 10
1.891454535390267
 20
-10.47849499756532
 30
0.0
  0
VERTEX
  5
200
  8
0
 10
1.891454535390267
 20
10.52150500243469
 30
0.0
 42
-0.4142135623730953
  0
SEQEND
  5
201
  8
0
  0
POLYLINE
  5
51
  8
0
 66
     1
 10
0.0
 20
0.0
 30
0.0
 70
     1
  0
VERTEX
  5
202
  8
0
 10
-92.59979680000004
 20
101.5497849
 30
0.0
  0
VERTEX
  5
203
  8
0
 10
91.40020319999999
 20
101.5497849
 30
0.0
 42
-0.4142135623730951
  0
VERTEX
  5
204
  8
0
 10
94.40020319999999
 20
98.54978489999999
 30
0.0
  0
VERTEX
  5
205
  8
0
 10
94.40020319999999
 20
22.54978490000001
 30
0.0
 42
-0.4142135623730951
  0
VERTEX
  5
206
  8
0
 10
91.40020319999999
 20
19.54978490000001
 30
0.0
  0
VERTEX
  5
207
  8
0
 10
-92.59979680000004
 20
19.54978490000001
 30
0.0
 42
-0.4142135623730951
  0
VERTEX
  5
208
  8
0
 10
-95.59979680000004
 20
22.54978490000001
 30
0.0
  0
VERTEX
  5
209
  8
0
 10
-95.59979680000004
 20
98.54978489999999
 30
0.0
 42
-0.4142135623730951
  0
SEQEND
  5
20A
  8
0
  0
POLYLINE
  5
52
  8
0
 66
     1
 10
0.0
 20
0.0
 30
0.0
 70
     1
  0
VERTEX
  5
20B
  8
0
 10
-92.59979680000001
 20
-19.54978489999999
 30
0.0
  0
VERTEX
  5
20C
  8
0
 10
91.40020319999999
 20
-19.54978489999999
 30
0.0
 42
-0.4142135623730951
  0
VERTEX
  5
20D
  8
0
 10
94.40020319999999
 20
-22.54978489999999
 30
0.0
  0
VERTEX
  5
20E
  8
0
 10
94.40020319999999
 20
-98.54978489999999
 30
0.0
 42
-0.4142135623730951
  0
VERTEX
  5
20F
  8
0
 10
91.40020319999999
 20
-101.5497849
 30
0.0
  0
VERTEX
  5
210
  8
0
 10
-92.59979680000001
 20
-101.5497849
 30
0.0
 42
-0.4142135623730951
  0
VERTEX
  5
211
  8
0
 10
-95.59979680000001
 20
-98.54978489999999
 30
0.0
  0
VERTEX
  5
212
  8
0
 10
-95.59979680000001
 20
-22.54978489999999
 30
0.0
 42
-0.4142135623730951
  0
SEQEND
  5
213
  8
0
  0
POLYLINE
  5
53
  8
0
 66
     1
 10
0.0
 20
0.0
 30
0.0
 70
     1
  0
VERTEX
  5
214
  8
0
 10
-75.32386786650403
 20
-5.487225586809785
 30
0.0
  0
VERTEX
  5
215
  8
0
 10
-75.32386786650403
 20
-10.0
 30
0.0
 42
-0.4142135623730951
  0
VERTEX
  5
216
  8
0
 10
-77.82386786650403
 20
-12.5
 30
0.0
  0
VERTEX
  5
217
  8
0
 10
-86.77177274545753
 20
-12.5
 30
0.0
 42
-0.4142135623730951
  0
VERTEX
  5
218
  8
0
 10
-89.27177274545753
 20
-10.0
 30
0.0
  0
VERTEX
  5
219
  8
0
 10
-89.27177274545753
 20
10.0
 30
0.0
 42
-0.4142135623730951
  0
VERTEX
  5
21A
  8
0
 10
-86.77177274545753
 20
12.5
 30
0.0
  0
VERTEX
  5
21B
  8
0
 10
-77.82386786650403
 20
12.5
 30
0.0
 42
-0.4142135623730951
  0
VERTEX
  5
21C
  8
0
 10
-75.32386786650403
 20
10.0
 30
0.0
  0
VERTEX
  5
21D
  8
0
 10
-75.32386786650403
 20
5.512786051286
 30
0.0
 42
0.4157092079763481
  0
VERTEX
  5
21E
  8
0
 10
-72.81110854210705
 20
3.012818611569898
 30
0.0
  0
VERTEX
  5
21F
  8
0
 10
-70.21600034901277
 20
3.046212817027794
 30
0.0
 42
-0.3285360027812196
  0
VERTEX
  5
220
  8
0
 10
-28.26077897181567
 20
2.953775182972606
 30
0.0
  0
VERTEX
  5
221
  8
0
 10
-25.77097014253926
 20
2.987205829791193
 30
0.0
 42
0.4127084057275743
  0
VERTEX
  5
222
  8
0
 10
-23.28382423478519
 20
5.487172784035295
 30
0.0
  0
VERTEX
  5
223
  8
0
 10
-23.28382423478519
 20
10.0
 30
0.0
 42
-0.4142135623730985
  0
VERTEX
  5
224
  8
0
 10
-20.78382423478519
 20
12.5
 30
0.0
  0
VERTEX
  5
225
  8
0
 10
-11.77177274545755
 20
12.5
 30
0.0
 42
-0.4142135623730951
  0
VERTEX
  5
226
  8
0
 10
-9.271772745457554
 20
10.0
 30
0.0
  0
VERTEX
  5
227
  8
0
 10
-9.271772745457554
 20
-9.999999999999986
 30
0.0
 42
-0.4142135623730951
  0
VERTEX
  5
228
  8
0
 10
-11.77177274545755
 20
-12.49999999999999
 30
0.0
  0
VERTEX
  5
229
  8
0
 10
-20.78382423478517
 20
-12.49999999999999
 30
0.0
 42
-0.4142135623731017
  0
VERTEX
  5
22A
  8
0
 10
-23.28382423478517
 20
-9.999999999999986
 30
0.0
  0
VERTEX
  5
22B
  8
0
 10
-23.28382423478517
 20
-5.512839050156515
 30
0.0
 42
0.415715391983198
  0
VERTEX
  5
22C
  8
0
 10
-25.79663628631239
 20
-3.012871880104939
 30
0.0
  0
VERTEX
  5
22D
  8
0
 10
-72.8366688857418
 20
-2.987258360243317
 30
0.0
 42
0.4127146171069094
  0
SEQEND
  5
22E
  8
0
  0
POLYLINE
  5
54
  8
0
 66
     1
 10
0.0
 20
0.0
 30
0.0
 70
     1
  0
VERTEX
  5
22F
  8
0
 10
83.1169698392736
 20
10.0000000000001
 30
0.0
  0
VERTEX
  5
230
  8
0
 10
83.11696983927351
 20
-10.0
 30
0.0
 42
-0.4142135623730951
  0
VERTEX
  5
231
  8
0
 10
80.61696983927351
 20
-12.5
 30
0.0
  0
VERTEX
  5
232
  8
0
 10
71.60041797816879
 20
-12.5
 30
0.0
 42
-0.4142135623730951
  0
VERTEX
  5
233
  8
0
 10
69.10041797816879
 20
-10.0
 30
0.0
  0
VERTEX
  5
234
  8
0
 10
69.10041797816879
 20
-5.51287188010491
 30
0.0
 42
0.4142135623730752
  0
VERTEX
  5
235
  8
0
 10
66.60041797816879
 20
-3.01287188010491
 30
0.0
  0
VERTEX
  5
236
  8
0
 10
19.58808961382704
 20
-3.01287188010491
 30
0.0
 42
0.4142135623730885
  0
VERTEX
  5
237
  8
0
 10
17.08808961382704
 20
-5.51287188010491
 30
0.0
  0
VERTEX
  5
238
  8
0
 10
17.08808961382704
 20
-10.0
 30
0.0
 42
-0.4142135623730985
  0
VERTEX
  5
239
  8
0
 10
14.58808961382707
 20
-12.5
 30
0.0
  0
VERTEX
  5
23A
  8
0
 10
5.616969839273537
 20
-12.5
 30
0.0
 42
-0.4142135623730951
  0
VERTEX
  5
23B
  8
0
 10
3.116969839273537
 20
-10.0
 30
0.0
  0
VERTEX
  5
23C
  8
0
 10
3.116969839273537
 20
10.0
 30
0.0
 42
-0.4142135623730951
  0
VERTEX
  5
23D
  8
0
 10
5.616969839273537
 20
12.5
 30
0.0
  0
VERTEX
  5
23E
  8
0
 10
18.12297236469598
 20
12.5
 30
0.0
 42
0.3856020441194112
  0
VERTEX
  5
23F
  8
0
 10
68.11096731385109
 20
12.5
 30
0.0
  0
VERTEX
  5
240
  8
0
 10
80.6169698392736
 20
12.5000000000001
 30
0.0
 42
-0.4142135623730951
  0
SEQEND
  5
241
  8
0
  0
POLYLINE
  5
55
  8
0
 66
     1
 10
0.0
 20
0.0
 30
0.0
 70
     1
  0
VERTEX
  5
242
  8
0
 10
-13.14347353654014
 20
87.4417160347426
 30
0.0
  0
VERTEX
  5
243
  8
0
 10
-13.14347353654014
 20
97.9413102332027
 30
0.0
 42
-0.4142135623730951
  0
VERTEX
  5
244
  8
0
 10
-10.64347353654014
 20
100.4413102332027
 30
0.0
  0
VERTEX
  5
245
  8
0
 10
9.356526463459858
 20
100.4413102332027
 30
0.0
 42
-0.4142135623730951
  0
VERTEX
  5
246
  8
0
 10
11.85652646345986
 20
97.9413102332027
 30
0.0
  0
VERTEX
  5
247
  8
0
 10
11.85652646345986
 20
87.4417160347426
 30
0.0
 42
-0.4142135623731118
  0
VERTEX
  5
248
  8
0
 10
10.85652646345986
 20
86.4417160347426
 30
0.0
  0
VERTEX
  5
249
  8
0
 10
10.08344024815435
 20
86.44131023320261
 30
0.0
 42
0.2828560597364695
  0
VERTEX
  5
24A
  8
0
 10
10.08344024815474
 20
34.4413102332027
 30
0.0
  0
VERTEX
  5
24B
  8
0
 10
10.85652646345989
 20
34.44136875130781
 30
0.0
 42
-0.4142135623731285
  0
VERTEX
  5
24C
  8
0
 10
11.85652646345989
 20
33.44136875130781
 30
0.0
  0
VERTEX
  5
24D
  8
0
 10
11.85652646345986
 20
22.9413102332027
 30
0.0
 42
-0.4142135623730951
  0
VERTEX
  5
24E
  8
0
 10
9.356526463459858
 20
20.4413102332027
 30
0.0
  0
VERTEX
  5
24F
  8
0
 10
-10.64347353654014
 20
20.4413102332027
 30
0.0
 42
-0.4142135623730951
  0
VERTEX
  5
250
  8
0
 10
-13.14347353654014
 20
22.9413102332027
 30
0.0
  0
VERTEX
  5
251
  8
0
 10
-13.14347353654017
 20
33.44136875130781
 30
0.0
 42
-0.4142135623731118
  0
VERTEX
  5
252
  8
0
 10
-12.14347353654017
 20
34.44136875130781
 30
0.0
  0
VERTEX
  5
253
  8
0
 10
-11.37038732123406
 20
34.4413102332027
 30
0.0
 42
0.2828560597364378
  0
VERTEX
  5
254
  8
0
 10
-11.3703873212342
 20
86.44131023320261
 30
0.0
  0
VERTEX
  5
255
  8
0
 10
-12.14347353654014
 20
86.4417160347426
 30
0.0
 42
-0.4142135623731118
  0
SEQEND
  5
256
  8
0
  0
POLYLINE
  5
56
  8
0
 66
     1
 10
0.0
 20
0.0
 30
0.0
 70
     1
  0
VERTEX
  5
257
  8
0
 10
-81.64347353654026
 20
96.41631045871
 30
0.0
 42
0.4142135623730951
  0
VERTEX
  5
258
  8
0
 10
-84.61847353654025
 20
93.44131045871
 30
0.0
 42
0.4142135623730951
  0
VERTEX
  5
259
  8
0
 10
-81.64347353654026
 20
90.46631045871001
 30
0.0
 42
0.4142135623730951
  0
VERTEX
  5
25A
  8
0
 10
-78.66847353654026
 20
93.44131045871
 30
0.0
 42
0.4142135623730951
  0
SEQEND
  5
25B
  8
0
  0
POLYLINE
  5
57
  8
0
 66
     1
 10
0.0
 20
0.0
 30
0.0
 70
     1
  0
VERTEX
  5
25C
  8
0
 10
-81.64347353654026
 20
30.41631044686969
 30
0.0
 42
0.4142135623730951
  0
VERTEX
  5
25D
  8
0
 10
-84.61847353654025
 20
27.44131044686969
 30
0.0
 42
0.4142135623730951
  0
VERTEX
  5
25E
  8
0
 10
-81.64347353654026
 20
24.46631044686969
 30
0.0
 42
0.4142135623730951
  0
VERTEX
  5
25F
  8
0
 10
-78.66847353654026
 20
27.44131044686969
 30
0.0
 42
0.4142135623730951
  0
SEQEND
  5
260
  8
0
  0
POLYLINE
  5
58
  8
0
 66
     1
 10
0.0
 20
0.0
 30
0.0
 70
     1
  0
VERTEX
  5
261
  8
0
 10
-54.64347353654026
 20
96.41631045871
 30
0.0
 42
0.4142135623730951
  0
VERTEX
  5
262
  8
0
 10
-57.61847353654026
 20
93.44131045871
 30
0.0
 42
0.4142135623730951
  0
VERTEX
  5
263
  8
0
 10
-54.64347353654026
 20
90.46631045871001
 30
0.0
 42
0.4142135623730951
  0
VERTEX
  5
264
  8
0
 10
-51.66847353654025
 20
93.44131045871
 30
0.0
 42
0.4142135623730951
  0
SEQEND
  5
265
  8
0
  0
POLYLINE
  5
59
  8
0
 66
     1
 10
0.0
 20
0.0
 30
0.0
 70
     1
  0
VERTEX
  5
266
  8
0
 10
-54.64347353654026
 20
30.41631044686969
 30
0.0
 42
0.4142135623730951
  0
VERTEX
  5
267
  8
0
 10
-57.61847353654026
 20
27.44131044686969
 30
0.0
 42
0.4142135623730951
  0
VERTEX
  5
268
  8
0
 10
-54.64347353654026
 20
24.46631044686969
 30
0.0
 42
0.4142135623730951
  0
VERTEX
  5
269
  8
0
 10
-51.66847353654025
 20
27.44131044686969
 30
0.0
 42
0.4142135623730951
  0
SEQEND
  5
26A
  8
0
  0
POLYLINE
  5
5A
  8
0
 66
     1
 10
0.0
 20
0.0
 30
0.0
 70
     1
  0
VERTEX
  5
26B
  8
0
 10
-27.64347353654017
 20
96.41631045871
 30
0.0
 42
0.4142135623730951
  0
VERTEX
  5
26C
  8
0
 10
-30.61847353654017
 20
93.44131045871
 30
0.0
 42
0.4142135623730951
  0
VERTEX
  5
26D
  8
0
 10
-27.64347353654017
 20
90.46631045871001
 30
0.0
 42
0.4142135623730951
  0
VERTEX
  5
26E
  8
0
 10
-24.66847353654017
 20
93.44131045871
 30
0.0
 42
0.4142135623730951
  0
SEQEND
  5
26F
  8
0
  0
POLYLINE
  5
5B
  8
0
 66
     1
 10
0.0
 20
0.0
 30
0.0
 70
     1
  0
VERTEX
  5
270
  8
0
 10
-27.64347353654017
 20
30.41631044686969
 30
0.0
 42
0.4142135623730951
  0
VERTEX
  5
271
  8
0
 10
-30.61847353654017
 20
27.44131044686969
 30
0.0
 42
0.4142135623730951
  0
VERTEX
  5
272
  8
0
 10
-27.64347353654017
 20
24.46631044686969
 30
0.0
 42
0.4142135623730951
  0
VERTEX
  5
273
  8
0
 10
-24.66847353654017
 20
27.44131044686969
 30
0.0
 42
0.4142135623730951
  0
SEQEND
  5
274
  8
0
  0
POLYLINE
  5
5C
  8
0
 66
     1
 10
0.0
 20
0.0
 30
0.0
 70
     1
  0
VERTEX
  5
275
  8
0
 10
-0.6434735365401707
 20
96.41631045871
 30
0.0
 42
0.4142135623730951
  0
VERTEX
  5
276
  8
0
 10
-3.618473536540171
 20
93.44131045871
 30
0.0
 42
0.4142135623730951
  0
VERTEX
  5
277
  8
0
 10
-0.6434735365401707
 20
90.46631045871001
 30
0.0
 42
0.4142135623730951
  0
VERTEX
  5
278
  8
0
 10
2.331526463459829
 20
93.44131045871
 30
0.0
 42
0.4142135623730951
  0
SEQEND
  5
279
  8
0
  0
POLYLINE
  5
5D
  8
0
 66
     1
 10
0.0
 20
0.0
 30
0.0
 70
     1
  0
VERTEX
  5
27A
  8
0
 10
-0.6434735365401707
 20
30.41631044686969
 30
0.0
 42
0.4142135623730951
  0
VERTEX
  5
27B
  8
0
 10
-3.618473536540171
 20
27.44131044686969
 30
0.0
 42
0.4142135623730951
  0
VERTEX
  5
27C
  8
0
 10
-0.6434735365401707
 20
24.46631044686969
 30
0.0
 42
0.4142135623730951
  0
VERTEX
  5
27D
  8
0
 10
2.331526463459829
 20
27.44131044686969
 30
0.0
 42
0.4142135623730951
  0
SEQEND
  5
27E
  8
0
  0
POLYLINE
  5
5E
  8
0
 66
     1
 10
0.0
 20
0.0
 30
0.0
 70
     1
  0
VERTEX
  5
27F
  8
0
 10
26.3565264634598
 20
96.41631045871
 30
0.0
 42
0.4142135623730951
  0
VERTEX
  5
280
  8
0
 10
23.3815264634598
 20
93.44131045871
 30
0.0
 42
0.4142135623730951
  0
VERTEX
  5
281
  8
0
 10
26.3565264634598
 20
90.46631045871001
 30
0.0
 42
0.4142135623730951
  0
VERTEX
  5
282
  8
0
 10
29.3315264634598
 20
93.44131045871
 30
0.0
 42
0.4142135623730951
  0
SEQEND
  5
283
  8
0
  0
POLYLINE
  5
5F
  8
0
 66
     1
 10
0.0
 20
0.0
 30
0.0
 70
     1
  0
VERTEX
  5
284
  8
0
 10
26.3565264634598
 20
30.41631044686969
 30
0.0
 42
0.4142135623730951
  0
VERTEX
  5
285
  8
0
 10
23.3815264634598
 20
27.44131044686969
 30
0.0
 42
0.4142135623730951
  0
VERTEX
  5
286
  8
0
 10
26.3565264634598
 20
24.46631044686969
 30
0.0
 42
0.4142135623730951
  0
VERTEX
  5
287
  8
0
 10
29.3315264634598
 20
27.44131044686969
 30
0.0
 42
0.4142135623730951
  0
SEQEND
  5
288
  8
0
  0
POLYLINE
  5
60
  8
0
 66
     1
 10
0.0
 20
0.0
 30
0.0
 70
     1
  0
VERTEX
  5
289
  8
0
 10
53.3565264634598
 20
96.41631045871
 30
0.0
 42
0.4142135623730951
  0
VERTEX
  5
28A
  8
0
 10
50.3815264634598
 20
93.44131045871
 30
0.0
 42
0.4142135623730951
  0
VERTEX
  5
28B
  8
0
 10
53.3565264634598
 20
90.46631045871001
 30
0.0
 42
0.4142135623730951
  0
VERTEX
  5
28C
  8
0
 10
56.3315264634598
 20
93.44131045871
 30
0.0
 42
0.4142135623730951
  0
SEQEND
  5
28D
  8
0
  0
POLYLINE
  5
61
  8
0
 66
     1
 10
0.0
 20
0.0
 30
0.0
 70
     1
  0
VERTEX
  5
28E
  8
0
 10
53.3565264634598
 20
30.41631044686969
 30
0.0
 42
0.4142135623730951
  0
VERTEX
  5
28F
  8
0
 10
50.3815264634598
 20
27.44131044686969
 30
0.0
 42
0.4142135623730951
  0
VERTEX
  5
290
  8
0
 10
53.3565264634598
 20
24.46631044686969
 30
0.0
 42
0.4142135623730951
  0
VERTEX
  5
291
  8
0
 10
56.3315264634598
 20
27.44131044686969
 30
0.0
 42
0.4142135623730951
  0
SEQEND
  5
292
  8
0
  0
POLYLINE
  5
62
  8
0
 66
     1
 10
0.0
 20
0.0
 30
0.0
 70
     1
  0
VERTEX
  5
293
  8
0
 10
80.3565264634598
 20
96.41631045871009
 30
0.0
 42
0.4142135623730951
  0
VERTEX
  5
294
  8
0
 10
77.3815264634598
 20
93.44131045871009
 30
0.0
 42
0.4142135623730951
  0
VERTEX
  5
295
  8
0
 10
80.3565264634598
 20
90.4663104587101
 30
0.0
 42
0.4142135623730951
  0
VERTEX
  5
296
  8
0
 10
83.3315264634598
 20
93.44131045871009
 30
0.0
 42
0.4142135623730951
  0
SEQEND
  5
297
  8
0
  0
POLYLINE
  5
63
  8
0
 66
     1
 10
0.0
 20
0.0
 30
0.0
 70
     1
  0
VERTEX
  5
298
  8
0
 10
80.3565264634598
 20
30.41631044686969
 30
0.0
 42
0.4142135623730951
  0
VERTEX
  5
299
  8
0
 10
77.3815264634598
 20
27.44131044686969
 30
0.0
 42
0.4142135623730951
  0
VERTEX
  5
29A
  8
0
 10
80.3565264634598
 20
24.46631044686969
 30
0.0
 42
0.4142135623730951
  0
VERTEX
  5
29B
  8
0
 10
83.3315264634598
 20
27.44131044686969
 30
0.0
 42
0.4142135623730951
  0
SEQEND
  5
29C
  8
0
  0
POLYLINE
  5
64
  8
0
 66
     1
 10
0.0
 20
0.0
 30
0.0
 70
     1
  0
VERTEX
  5
29D
  8
0
 10
-82.27578209941774
 20
2.975
 30
0.0
 42
0.4142135623730951
  0
VERTEX
  5
29E
  8
0
 10
-85.25078209941773
 20
0.0
 30
0.0
 42
0.4142135623730951
  0
VERTEX
  5
29F
  8
0
 10
-82.27578209941774
 20
-2.975
 30
0.0
 42
0.4142135623730951
  0
VERTEX
  5
2A0
  8
0
 10
-79.30078209941775
 20
0.0
 30
0.0
 42
0.4142135623730951
  0
SEQEND
  5
2A1
  8
0
  0
POLYLINE
  5
65
  8
0
 66
     1
 10
0.0
 20
0.0
 30
0.0
 70
     1
  0
VERTEX
  5
2A2
  8
0
 10
-16.28109867526048
 20
2.975
 30
0.0
 42
0.4142135623730951
  0
VERTEX
  5
2A3
  8
0
 10
-19.25609867526048
 20
0.0
 30
0.0
 42
0.4142135623730951
  0
VERTEX
  5
2A4
  8
0
 10
-16.28109867526048
 20
-2.975
 30
0.0
 42
0.4142135623730951
  0
VERTEX
  5
2A5
  8
0
 10
-13.30609867526048
 20
0.0
 30
0.0
 42
0.4142135623730951
  0
SEQEND
  5
2A6
  8
0
  0
POLYLINE
  5
66
  8
0
 66
     1
 10
0.0
 20
0.0
 30
0.0
 70
     1
  0
VERTEX
  5
2A7
  8
0
 10
10.11307932499906
 20
2.975
 30
0.0
 42
0.4142135623730951
  0
VERTEX
  5
2A8
  8
0
 10
7.138079324999064
 20
0.0
 30
0.0
 42
0.4142135623730951
  0
VERTEX
  5
2A9
  8
0
 10
10.11307932499906
 20
-2.975
 30
0.0
 42
0.4142135623730951
  0
VERTEX
  5
2AA
  8
0
 10
13.08807932499906
 20
0.0
 30
0.0
 42
0.4142135623730951
  0
SEQEND
  5
2AB
  8
0
  0
POLYLINE
  5
67
  8
0
 66
     1
 10
0.0
 20
0.0
 30
0.0
 70
     1
  0
VERTEX
  5
2AC
  8
0
 10
76.07542826520171
 20
2.975
 30
0.0
 42
0.4142135623730951
  0
VERTEX
  5
2AD
  8
0
 10
73.10042826520171
 20
0.0
 30
0.0
 42
0.4142135623730951
  0
VERTEX
  5
2AE
  8
0
 10
76.07542826520171
 20
-2.975
 30
0.0
 42
0.4142135623730951
  0
VERTEX
  5
2AF
  8
0
 10
79.0504282652017
 20
0.0
 30
0.0
 42
0.4142135623730951
  0
SEQEND
  5
2B0
  8
0
  0
POLYLINE
  5
68
  8
0
 66
     1
 10
0.0
 20
0.0
 30
0.0
 70
     1
  0
VERTEX
  5
2B1
  8
0
 10
-81.6434735365402
 20
-24.54111275746691
 30
0.0
 42
0.4142135623730951
  0
VERTEX
  5
2B2
  8
0
 10
-84.6184735365402
 20
-27.51611275746691
 30
0.0
 42
0.4142135623730951
  0
VERTEX
  5
2B3
  8
0
 10
-81.6434735365402
 20
-30.49111275746692
 30
0.0
 42
0.4142135623730951
  0
VERTEX
  5
2B4
  8
0
 10
-78.6684735365402
 20
-27.51611275746691
 30
0.0
 42
0.4142135623730951
  0
SEQEND
  5
2B5
  8
0
  0
POLYLINE
  5
69
  8
0
 66
     1
 10
0.0
 20
0.0
 30
0.0
 70
     1
  0
VERTEX
  5
2B6
  8
0
 10
-54.64347353654018
 20
-24.54111275746691
 30
0.0
 42
0.4142135623730951
  0
VERTEX
  5
2B7
  8
0
 10
-57.61847353654019
 20
-27.51611275746691
 30
0.0
 42
0.4142135623730951
  0
VERTEX
  5
2B8
  8
0
 10
-54.64347353654018
 20
-30.49111275746692
 30
0.0
 42
0.4142135623730951
  0
VERTEX
  5
2B9
  8
0
 10
-51.66847353654018
 20
-27.51611275746691
 30
0.0
 42
0.4142135623730951
  0
SEQEND
  5
2BA
  8
0
  0
POLYLINE
  5
6A
  8
0
 66
     1
 10
0.0
 20
0.0
 30
0.0
 70
     1
  0
VERTEX
  5
2BB
  8
0
 10
-27.6434735365402
 20
-24.54111275746694
 30
0.0
 42
0.4142135623730951
  0
VERTEX
  5
2BC
  8
0
 10
-30.6184735365402
 20
-27.51611275746694
 30
0.0
 42
0.4142135623730951
  0
VERTEX
  5
2BD
  8
0
 10
-27.6434735365402
 20
-30.49111275746694
 30
0.0
 42
0.4142135623730951
  0
VERTEX
  5
2BE
  8
0
 10
-24.6684735365402
 20
-27.51611275746694
 30
0.0
 42
0.4142135623730951
  0
SEQEND
  5
2BF
  8
0
  0
POLYLINE
  5
6B
  8
0
 66
     1
 10
0.0
 20
0.0
 30
0.0
 70
     1
  0
VERTEX
  5
2C0
  8
0
 10
-0.6434735365401849
 20
-24.54111275746694
 30
0.0
 42
0.4142135623730951
  0
VERTEX
  5
2C1
  8
0
 10
-3.618473536540185
 20
-27.51611275746694
 30
0.0
 42
0.4142135623730951
  0
VERTEX
  5
2C2
  8
0
 10
-0.6434735365401849
 20
-30.49111275746694
 30
0.0
 42
0.4142135623730951
  0
VERTEX
  5
2C3
  8
0
 10
2.331526463459815
 20
-27.51611275746694
 30
0.0
 42
0.4142135623730951
  0
SEQEND
  5
2C4
  8
0
  0
POLYLINE
  5
6C
  8
0
 66
     1
 10
0.0
 20
0.0
 30
0.0
 70
     1
  0
VERTEX
  5
2C5
  8
0
 10
26.3565264634598
 20
-24.54111275746691
 30
0.0
 42
0.4142135623730951
  0
VERTEX
  5
2C6
  8
0
 10
23.3815264634598
 20
-27.51611275746691
 30
0.0
 42
0.4142135623730951
  0
VERTEX
  5
2C7
  8
0
 10
26.3565264634598
 20
-30.49111275746692
 30
0.0
 42
0.4142135623730951
  0
VERTEX
  5
2C8
  8
0
 10
29.3315264634598
 20
-27.51611275746691
 30
0.0
 42
0.4142135623730951
  0
SEQEND
  5
2C9
  8
0
  0
POLYLINE
  5
6D
  8
0
 66
     1
 10
0.0
 20
0.0
 30
0.0
 70
     1
  0
VERTEX
  5
2CA
  8
0
 10
53.3565264634598
 20
-24.54111275746691
 30
0.0
 42
0.4142135623730951
  0
VERTEX
  5
2CB
  8
0
 10
50.3815264634598
 20
-27.51611275746691
 30
0.0
 42
0.4142135623730951
  0
VERTEX
  5
2CC
  8
0
 10
53.3565264634598
 20
-30.49111275746692
 30
0.0
 42
0.4142135623730951
  0
VERTEX
  5
2CD
  8
0
 10
56.3315264634598
 20
-27.51611275746691
 30
0.0
 42
0.4142135623730951
  0
SEQEND
  5
2CE
  8
0
  0
POLYLINE
  5
6E
  8
0
 66
     1
 10
0.0
 20
0.0
 30
0.0
 70
     1
  0
VERTEX
  5
2CF
  8
0
 10
80.36195476298121
 20
-24.55426216279269
 30
0.0
 42
0.4142135623730951
  0
VERTEX
  5
2D0
  8
0
 10
77.38695476298122
 20
-27.52926216279269
 30
0.0
 42
0.4142135623730951
  0
VERTEX
  5
2D1
  8
0
 10
80.36195476298121
 20
-30.50426216279269
 30
0.0
 42
0.4142135623730951
  0
VERTEX
  5
2D2
  8
0
 10
83.33695476298121
 20
-27.52926216279269
 30
0.0
 42
0.4142135623730951
  0
SEQEND
  5
2D3
  8
0
  0
POLYLINE
  5
6F
  8
0
 66
     1
 10
0.0
 20
0.0
 30
0.0
 70
     1
  0
VERTEX
  5
2D4
  8
0
 10
80.36195476298121
 20
-90.55275124285123
 30
0.0
 42
0.4142135623730951
  0
VERTEX
  5
2D5
  8
0
 10
77.38695476298122
 20
-93.52775124285122
 30
0.0
 42
0.4142135623730951
  0
VERTEX
  5
2D6
  8
0
 10
80.36195476298121
 20
-96.50275124285122
 30
0.0
 42
0.4142135623730951
  0
VERTEX
  5
2D7
  8
0
 10
83.33695476298121
 20
-93.52775124285122
 30
0.0
 42
0.4142135623730951
  0
SEQEND
  5
2D8
  8
0
  0
POLYLINE
  5
70
  8
0
 66
     1
 10
0.0
 20
0.0
 30
0.0
 70
     1
  0
VERTEX
  5
2D9
  8
0
 10
53.3565264634598
 20
-90.53960183752542
 30
0.0
 42
0.4142135623730951
  0
VERTEX
  5
2DA
  8
0
 10
50.3815264634598
 20
-93.51460183752542
 30
0.0
 42
0.4142135623730951
  0
VERTEX
  5
2DB
  8
0
 10
53.3565264634598
 20
-96.48960183752541
 30
0.0
 42
0.4142135623730951
  0
VERTEX
  5
2DC
  8
0
 10
56.3315264634598
 20
-93.51460183752542
 30
0.0
 42
0.4142135623730951
  0
SEQEND
  5
2DD
  8
0
  0
POLYLINE
  5
71
  8
0
 66
     1
 10
0.0
 20
0.0
 30
0.0
 70
     1
  0
VERTEX
  5
2DE
  8
0
 10
26.3565264634598
 20
-90.53960183752542
 30
0.0
 42
0.4142135623730951
  0
VERTEX
  5
2DF
  8
0
 10
23.3815264634598
 20
-93.51460183752542
 30
0.0
 42
0.4142135623730951
  0
VERTEX
  5
2E0
  8
0
 10
26.3565264634598
 20
-96.48960183752541
 30
0.0
 42
0.4142135623730951
  0
VERTEX
  5
2E1
  8
0
 10
29.3315264634598
 20
-93.51460183752542
 30
0.0
 42
0.4142135623730951
  0
SEQEND
  5
2E2
  8
0
  0
POLYLINE
  5
72
  8
0
 66
     1
 10
0.0
 20
0.0
 30
0.0
 70
     1
  0
VERTEX
  5
2E3
  8
0
 10
-0.6434735365401849
 20
-90.53960183752548
 30
0.0
 42
0.4142135623730951
  0
VERTEX
  5
2E4
  8
0
 10
-3.618473536540185
 20
-93.51460183752548
 30
0.0
 42
0.4142135623730951
  0
VERTEX
  5
2E5
  8
0
 10
-0.6434735365401849
 20
-96.48960183752547
 30
0.0
 42
0.4142135623730951
  0
VERTEX
  5
2E6
  8
0
 10
2.331526463459815
 20
-93.51460183752548
 30
0.0
 42
0.4142135623730951
  0
SEQEND
  5
2E7
  8
0
  0
POLYLINE
  5
73
  8
0
 66
     1
 10
0.0
 20
0.0
 30
0.0
 70
     1
  0
VERTEX
  5
2E8
  8
0
 10
-27.64347353654018
 20
-90.53960183752548
 30
0.0
 42
0.4142135623730951
  0
VERTEX
  5
2E9
  8
0
 10
-30.61847353654018
 20
-93.51460183752548
 30
0.0
 42
0.4142135623730951
  0
VERTEX
  5
2EA
  8
0
 10
-27.64347353654018
 20
-96.48960183752547
 30
0.0
 42
0.4142135623730951
  0
VERTEX
  5
2EB
  8
0
 10
-24.66847353654018
 20
-93.51460183752548
 30
0.0
 42
0.4142135623730951
  0
SEQEND
  5
2EC
  8
0
  0
POLYLINE
  5
74
  8
0
 66
     1
 10
0.0
 20
0.0
 30
0.0
 70
     1
  0
VERTEX
  5
2ED
  8
0
 10
-54.64347353654017
 20
-90.53960183752542
 30
0.0
 42
0.4142135623730951
  0
VERTEX
  5
2EE
  8
0
 10
-57.61847353654017
 20
-93.51460183752542
 30
0.0
 42
0.4142135623730951
  0
VERTEX
  5
2EF
  8
0
 10
-54.64347353654017
 20
-96.48960183752541
 30
0.0
 42
0.4142135623730951
  0
VERTEX
  5
2F0
  8
0
 10
-51.66847353654017
 20
-93.51460183752542
 30
0.0
 42
0.4142135623730951
  0
SEQEND
  5
2F1
  8
0
  0
POLYLINE
  5
75
  8
0
 66
     1
 10
0.0
 20
0.0
 30
0.0
 70
     1
  0
VERTEX
  5
2F2
  8
0
 10
-81.6434735365402
 20
-90.53960183752542
 30
0.0
 42
0.4142135623730951
  0
VERTEX
  5
2F3
  8
0
 10
-84.6184735365402
 20
-93.51460183752542
 30
0.0
 42
0.4142135623730951
  0
VERTEX
  5
2F4
  8
0
 10
-81.6434735365402
 20
-96.48960183752541
 30
0.0
 42
0.4142135623730951
  0
VERTEX
  5
2F5
  8
0
 10
-78.6684735365402
 20
-93.51460183752542
 30
0.0
 42
0.4142135623730951
  0
SEQEND
  5
2F6
  8
0
  0
ENDSEC
  0
EOF
